<?xml version="1.0" encoding="utf-8"?>
<!-- Generator: Adobe Illustrator 21.1.0, SVG Export Plug-In . SVG Version: 6.00 Build 0)  -->
<svg version="1.1" id="圖層_1" xmlns="http://www.w3.org/2000/svg" xmlns:xlink="http://www.w3.org/1999/xlink" x="0px" y="0px"
	 viewBox="0 0 841.9 595.3" style="enable-background:new 0 0 841.9 595.3;" xml:space="preserve">
<style type="text/css">
	.st0{opacity:0.52;}
	.st1{fill:#D0DBE0;}
	.st2{fill:#E8C689;}
	.st3{fill:none;stroke:#DAB980;stroke-miterlimit:10;}
	.st4{fill:none;stroke:#947F70;stroke-miterlimit:10;}
	.st5{fill:#FFF6E0;}
</style>
<g class="st0">
	<path class="st1" d="M561,243c0-80.9-68.7-146.5-153.4-146.5S254.2,162.1,254.2,243c0,36.7,14.1,70.3,37.5,96h0l0,0
		c1.7,1.8,3.4,3.7,5.2,5.4l77.5,81c1.9,2,4.5,3.1,7.2,3.1h58c2.8,0,5.5-1.2,7.3-3.3l70.3-79.8C554.6,296.9,561,282.9,561,243z"/>
</g>
<path class="st2" d="M436.8,486.7h-50.7c-4.3,0-7.8-3.5-7.8-7.8v-21.2c0-4.3,3.5-7.8,7.8-7.8h50.7c4.3,0,7.8,3.5,7.8,7.8v21.2
	C444.6,483.2,441.1,486.7,436.8,486.7z"/>
<path class="st3" d="M380,428.6l6.4,8.4c0,0,0.9,10.1,0.9,13.5"/>
<path class="st3" d="M442.3,428.6l-6.4,8.4c0,0-0.9,10.1-0.9,13.5"/>
<polyline class="st3" points="395.1,428.6 397.4,436.2 398.1,449.9 "/>
<polyline class="st3" points="432.4,428.6 428.2,435.8 428.2,449.9 "/>
<polyline class="st3" points="403.7,428.6 405.9,436 405.4,449.9 "/>
<polyline class="st3" points="418.9,428.2 417,436.1 418.3,449.9 "/>
<polyline class="st4" points="386,437.2 398.1,436.1 406.4,436.1 417.5,436.1 428.2,435.8 436.4,437.2 "/>
<g class="st0">
	<path class="st5" d="M407.6,96.5c54.8,166,34.7,201.6,7.5,332.1C415.1,428.6,510.9,235.8,407.6,96.5z"/>
</g>
<g class="st0">
	<path class="st5" d="M419,428.6c0,0,177.9-208.1-7.5-332.1C521.3,211.5,485.6,300.1,419,428.6z"/>
</g>
<g class="st0">
	<path class="st5" d="M425.1,428.6c125.4-131.9,180.2-240.3-7.5-332.1C565.1,172.1,545.4,288,425.1,428.6z"/>
</g>
<g class="st0">
	<path class="st5" d="M403.7,428.6c-70.4-102.7-107.6-217.1,2.2-332.1C329.2,187.6,333.5,326.6,403.7,428.6z"/>
</g>
<g class="st0">
	<path class="st5" d="M415.1,428.6c-54.5-145-54.5-240.6-7.5-332.1C371.1,195.5,387.1,307.6,415.1,428.6z"/>
</g>
<g class="st0">
	<path class="st5" d="M390.4,428.6c-101.3-110.3-181.7-224.7,7.5-332.1C243.2,202.1,300.2,317.6,390.4,428.6z"/>
</g>
<path class="st4" d="M381.6,478.3c0,3.3,3.3,6,7.5,6"/>
<path class="st4" d="M383.1,473.5c0,3.9,2.1,7,4.6,7"/>
<path class="st4" d="M441.9,460c0-4.2-3.8-7.5-8.5-7.5"/>
<path class="st4" d="M438.8,458.1c0-2.1-3.4-3.8-7.7-3.8"/>
</svg>
