<?xml version="1.0" encoding="utf-8"?>
<!-- Generator: Adobe Illustrator 23.0.1, SVG Export Plug-In . SVG Version: 6.00 Build 0)  -->
<svg version="1.1" id="圖層_1" xmlns="http://www.w3.org/2000/svg" xmlns:xlink="http://www.w3.org/1999/xlink" x="0px" y="0px"
	 viewBox="0 0 709.5 296.6" style="enable-background:new 0 0 709.5 296.6;" xml:space="preserve">
<style type="text/css">
	.st0{fill:none;stroke:#FFFFFF;stroke-miterlimit:10;}
	.st1{fill:#E8C689;}
	.st2{fill:none;stroke:#E8C689;stroke-width:4;stroke-linecap:round;stroke-miterlimit:10;}
	.st3{fill:#67BE8D;}
	.st4{fill:#718CC6;}
	.st5{fill:#D0C5B9;}
	.st6{fill:#D0DBE0;}
</style>
<g>
	<path class="st0" d="M58.6,159.5c-0.5,3.8,2.5,7.3,6.6,7.8"/>
	<path class="st0" d="M58.1,162.9c-0.2,1.9,1.3,3.7,3.6,3.9"/>
	<path class="st1" d="M53.2,178.7l12.9,1.6c1.1,0.1,2.1-0.7,2.3-1.8L83.5,54.2c0.1-0.9-0.4-1.8-1.3-2.1l-0.5-0.2
		c-1.2-0.4-2.4,0.2-2.7,1.5L51.5,176.2C51.2,177.3,52,178.5,53.2,178.7z"/>
	<g>
		<g>
			<path class="st1" d="M43.5,68.6c7.7,13.7,15.4,27.5,23.2,41.2c1.1,1.9,2.2,3.8,3.2,5.8c1.6,2.7,6.2,0.9,4.6-1.9
				c-7.7-13.7-15.4-27.5-23.2-41.2c-1.1-1.9-2.2-3.8-3.2-5.8C46.6,63.9,41.9,65.8,43.5,68.6L43.5,68.6z"/>
		</g>
	</g>
	<g>
		<g>
			<path class="st1" d="M103.9,96.6c-12.2,14.2-24.6,28.4-36.8,42.6c-1.7,2-3.4,4-5.2,6c-2.1,2.4,1.8,5.4,4,3
				c12.2-14.2,24.6-28.4,36.8-42.6c1.7-2,3.4-4,5.2-6C109.9,97.2,106,94.2,103.9,96.6L103.9,96.6z"/>
		</g>
	</g>
	<g>
		<g>
			<path class="st1" d="M93.8,65.7c-6.1,5.9-12.2,11.7-18.3,17.6c-2.3,2.2,0.7,6.2,3,4c6.1-5.9,12.2-11.7,18.3-17.6
				C99.1,67.4,96.2,63.5,93.8,65.7L93.8,65.7z"/>
		</g>
	</g>
	<g>
		<g>
			<path class="st1" d="M57.1,68c-0.4,7.1-0.9,14.1-1.3,21.2c-0.2,3.2,4.7,3.8,4.9,0.6c0.4-7.1,0.9-14.1,1.3-21.2
				C62.2,65.5,57.3,64.8,57.1,68L57.1,68z"/>
		</g>
	</g>
	<g>
		<g>
			<path class="st1" d="M89.9,96.4c1.2,4,2.5,7.9,3.8,11.8c1,3,5.5,1.1,4.6-1.9c-1.2-4-2.5-7.9-3.8-11.8
				C93.5,91.4,89,93.4,89.9,96.4L89.9,96.4z"/>
		</g>
	</g>
	<line class="st2" x1="88" y1="62.8" x2="88.9" y2="73.8"/>
	<line class="st2" x1="43.4" y1="84.3" x2="60" y2="96.1"/>
	<g>
		<path class="st3" d="M96.7,64.2c0,0,5.9-4.3,1.9-11.6C98.3,52.9,92.4,56.7,96.7,64.2z"/>
		<path class="st4" d="M96.7,64.2l1.9-11.6C98.6,52.6,92.1,56.5,96.7,64.2z"/>
	</g>
	<g>
		<path class="st3" d="M98.6,65.6c0,0,5.7,4.5,11.6-1.5C109.9,64,104.6,59.3,98.6,65.6z"/>
		<path class="st4" d="M98.6,65.6l11.6-1.5C110.2,64.2,104.6,59,98.6,65.6z"/>
	</g>
	<g>
		<path class="st3" d="M91.6,92.4c0,0,6.3-3.8,2.7-11.5C94,81.3,87.7,84.6,91.6,92.4z"/>
		<path class="st4" d="M91.6,92.4L94.3,81C94.3,81,87.4,84.4,91.6,92.4z"/>
	</g>
	<g>
		<path class="st3" d="M90.5,93.1c0,0-1.6-7.1-9.9-6.2C80.7,87.2,81.9,94.2,90.5,93.1z"/>
		<path class="st4" d="M90.5,93.1l-9.9-6.2C80.6,86.9,81.7,94.4,90.5,93.1z"/>
	</g>
	<g>
		<path class="st3" d="M60.1,65.2c0,0,7.3,0.3,8.6-8C68.3,57.3,61.3,56.6,60.1,65.2z"/>
		<path class="st4" d="M60.1,65.2l8.6-8C68.7,57.2,61.1,56.4,60.1,65.2z"/>
	</g>
	<g>
		<path class="st3" d="M58.7,65.4c0,0,2.6-6.8-4.9-10.7C53.9,55.3,50.9,61.6,58.7,65.4z"/>
		<path class="st4" d="M58.7,65.4l-4.9-10.7C53.9,54.8,50.6,61.7,58.7,65.4z"/>
	</g>
	<g>
		<path class="st3" d="M43.1,65.2c0,0-2.2-9.1-12.9-7.8C30.5,57.8,32.1,66.7,43.1,65.2z"/>
		<path class="st4" d="M43.1,65.2l-12.9-7.8C30.2,57.3,31.8,67,43.1,65.2z"/>
	</g>
	<g>
		<path class="st3" d="M42.1,83.6c0,0-0.8-7.2-9.2-7.3C33,76.6,33.4,83.6,42.1,83.6z"/>
		<path class="st4" d="M42.1,83.6l-9.2-7.3C32.9,76.3,33.2,83.9,42.1,83.6z"/>
	</g>
	<g>
		<path class="st3" d="M44.3,64.3c0,0,6.8-6.6,0.1-15.1C44.2,49.7,37.3,55.6,44.3,64.3z"/>
		<path class="st4" d="M44.3,64.3l0.1-15.1C44.4,49.3,36.9,55.6,44.3,64.3z"/>
	</g>
	<g>
		<path class="st3" d="M107.1,94.4c0,0,5.3-5.1,0.2-11.7C107.1,83,101.8,87.5,107.1,94.4z"/>
		<path class="st4" d="M107.1,94.4l0.2-11.7C107.4,82.7,101.5,87.5,107.1,94.4z"/>
	</g>
	<g>
		<path class="st3" d="M80.1,50.9c0,0,4.6-9.2-5.2-15.7C74.7,35.7,69.7,44.3,80.1,50.9z"/>
		<path class="st4" d="M80.1,50.9l-5.2-15.7C74.8,35.2,69.3,44.4,80.1,50.9z"/>
	</g>
	<g>
		<path class="st3" d="M82.9,50.8c0,0,10.2-1,10.5-12.8C92.9,38.2,83,38.5,82.9,50.8z"/>
		<path class="st4" d="M82.9,50.8L93.4,38C93.5,38,82.6,38.3,82.9,50.8z"/>
	</g>
	<path class="st0" d="M81.8,57.9c-0.3,2.4-1.5,4.2-2.6,4"/>
	<path class="st0" d="M82.6,62.3c-0.2,1.2-1.8,2.1-3.7,1.8"/>
	<path class="st0" d="M75.9,76.7c-0.2,1.7,0.7,3.2,2,3.4"/>
	<path class="st0" d="M74.5,79.6c-0.2,1.5,1.6,2.9,4.1,3.2"/>
	<path class="st0" d="M77,91.8c-0.2,2.1-1.8,3.7-3.6,3.4"/>
	<path class="st0" d="M77,94.7c-0.1,1.1-1.5,1.8-2.9,1.6"/>
	<path class="st0" d="M67.9,105.2c-0.3,2.2,1.9,4.3,4.9,4.7"/>
	<path class="st0" d="M69.5,103.7c-0.2,2,1.2,3.9,3.2,4.1"/>
	<path class="st0" d="M75.1,119.7c-0.2,1.5-3.1,2.3-6.6,1.8"/>
	<path class="st0" d="M74.8,122.4c-0.1,0.8-2.3,1.2-4.9,0.9"/>
	<path class="st0" d="M64.3,133.2c-0.3,2.5,1.8,4.8,4.8,5.2"/>
	<path class="st0" d="M62.7,135.3c-0.2,1.2,1.5,2.5,3.7,2.8"/>
	<path class="st0" d="M71.5,147.7c-0.3,2.4-4,3.9-8.2,3.4"/>
	<path class="st0" d="M69.7,151.9c-0.1,1-2.2,1.6-4.7,1.3"/>
	<g>
		<path class="st3" d="M109.2,96.2c0,0,6.8,2.6,10.7-4.8C119.5,91.3,113.1,88.4,109.2,96.2z"/>
		<path class="st4" d="M109.2,96.2l10.7-4.8C119.9,91.4,113,88.2,109.2,96.2z"/>
	</g>
</g>
<g>
	<path class="st0" d="M656.9,161.1c5-1.1,8.3-5.8,7.3-10.3"/>
	<path class="st0" d="M661.1,160.2c2.7-0.6,4.5-2.9,4-5.2"/>
	<path class="st1" d="M674.7,170.6L627.5,24.8c-0.4-1.4-2.2-2.2-3.5-1.5l-0.6,0.3c-1,0.5-1.6,1.6-1.3,2.8l32.2,149
		c0.3,1.4,1.6,2.2,3,1.9l15.6-3.4C674.3,173.5,675.1,172,674.7,170.6z"/>
	<g>
		<g>
			<path class="st1" d="M672.8,39.7c1.6-3.6-4.2-5.5-5.8-1.9c-1.1,2.5-2.2,5-3.4,7.5c-8,17.7-15.9,35.4-24,53.1
				c-1.6,3.6,4.2,5.5,5.8,1.9c1.1-2.5,2.2-5,3.4-7.5C656.8,75.1,664.8,57.3,672.8,39.7L672.8,39.7z"/>
		</g>
	</g>
	<g>
		<g>
			<path class="st1" d="M601.7,80.6c-2.8-2.8-7.3,1.3-4.5,4.2c2.3,2.2,4.6,4.5,7,6.7c16.5,16.1,33.2,30.2,49.8,46.2
				c2.8,2.7,7.3-1.4,4.5-4.2c-2.3-2.2-4.6-4.5-7-6.7C634.9,110.8,618.3,96.6,601.7,80.6L601.7,80.6z"/>
		</g>
	</g>
	<g>
		<g>
			<path class="st1" d="M610.7,41.5c-3.1-2.5-6.3,2.7-3.3,5.2c8.1,6.6,16.2,13,24.4,19.6c3.1,2.5,6.4-2.7,3.3-5.2
				C627,54.6,618.8,48.1,610.7,41.5L610.7,41.5z"/>
		</g>
	</g>
	<g>
		<g>
			<path class="st1" d="M656,40.4c-0.6-3.9-6.6-2.5-6,1.3c1.3,8.6,2.6,17.3,3.9,25.9c0.6,3.9,6.6,2.5,6-1.3
				C658.6,57.7,657.3,49,656,40.4L656,40.4z"/>
		</g>
	</g>
	<g>
		<g>
			<path class="st1" d="M618.9,78.8c0.9-3.8-4.9-5.8-5.8-1.9c-1.1,4.9-2.2,10-3.4,14.9c-0.8,3.8,4.9,5.8,5.8,1.9
				C616.6,88.9,617.8,83.8,618.9,78.8L618.9,78.8z"/>
		</g>
	</g>
	<line class="st2" x1="617.7" y1="51" x2="617.6" y2="37.3"/>
	<line class="st2" x1="655.6" y1="75.2" x2="674.6" y2="58.8"/>
	<g>
		<path class="st3" d="M603.5,26c-4.2,9.4,3.6,14,3.6,14C611.5,30.3,603.8,26.3,603.5,26z"/>
		<path class="st4" d="M603.5,26l3.6,14C611.9,30.2,603.5,26,603.5,26z"/>
	</g>
	<g>
		<path class="st3" d="M590.4,41.4c7.9,6.7,14.5,0.6,14.5,0.6C596.8,34.9,590.9,41.2,590.4,41.4z"/>
		<path class="st4" d="M590.4,41.4l14.5,0.6C596.8,34.5,590.4,41.5,590.4,41.4z"/>
	</g>
	<g>
		<path class="st3" d="M611.8,60.3c-3.5,9.7,4.6,13.8,4.6,13.8C620.2,64.1,612.3,60.7,611.8,60.3z"/>
		<path class="st4" d="M611.8,60.3l4.6,13.8C620.6,63.8,611.8,60.3,611.8,60.3z"/>
	</g>
	<g>
		<path class="st3" d="M629.3,66.2c-10.3-0.2-11.5,8.7-11.5,8.7C628.5,75.2,629.1,66.6,629.3,66.2z"/>
		<path class="st4" d="M629.3,66.2l-11.5,8.7C628.8,75.5,629.3,66.2,629.3,66.2z"/>
	</g>
	<g>
		<path class="st3" d="M640.6,28.4c2.5,10,11.4,8.9,11.4,8.9C649.7,26.9,641.1,28.4,640.6,28.4z"/>
		<path class="st4" d="M640.6,28.4l11.4,8.9C649.9,26.6,640.7,28.4,640.6,28.4z"/>
	</g>
	<g>
		<path class="st3" d="M658.6,23.9c-8.8,5.5-4.9,13.6-4.9,13.6C662.9,31.9,658.6,24.4,658.6,23.9z"/>
		<path class="st4" d="M658.6,23.9l-4.9,13.6C663.3,32,658.6,23.9,658.6,23.9z"/>
	</g>
	<g>
		<path class="st3" d="M687.9,24.5c-13.3-0.4-15,10.9-15,10.9C686.6,36.1,687.6,25.1,687.9,24.5z"/>
		<path class="st4" d="M687.9,24.5l-15,10.9C687,36.4,687.8,24.5,687.9,24.5z"/>
	</g>
	<g>
		<path class="st3" d="M686.6,48c-10.3,1-10.5,10-10.5,10C686.9,57.1,686.5,48.4,686.6,48z"/>
		<path class="st4" d="M686.6,48l-10.5,10C687.1,57.3,686.6,48,686.6,48z"/>
	</g>
	<g>
		<path class="st3" d="M669.6,16c-7.2,11.2,1.8,18.6,1.8,18.6C679,23,669.9,16.5,669.6,16z"/>
		<path class="st4" d="M669.6,16l1.8,18.6C679.5,23,669.6,16.1,669.6,16z"/>
	</g>
	<g>
		<path class="st3" d="M596,63.8c-5.4,8.8,1.6,14.4,1.6,14.4C603.4,69.2,596.3,64.3,596,63.8z"/>
		<path class="st4" d="M596,63.8l1.6,14.4C603.8,69.2,596,63.8,596,63.8z"/>
	</g>
	<g>
		<path class="st3" d="M630.7,0c-11.4,9.1-4.7,21.8-4.7,21.8C638,12.6,630.9,0.7,630.7,0z"/>
		<path class="st4" d="M630.7,0L626,21.8C638.5,12.8,630.7,0.1,630.7,0z"/>
	</g>
	<g>
		<path class="st3" d="M608.2,5.6c1.6,14.5,14.3,16.5,14.3,16.5C621.1,7,608.9,5.8,608.2,5.6z"/>
		<path class="st4" d="M608.2,5.6l14.3,16.5C621.5,6.6,608.2,5.5,608.2,5.6z"/>
	</g>
	<path class="st0" d="M628.3,35.3c-1.4,0.3-3.1-1.8-3.7-4.6"/>
	<path class="st0" d="M628.9,38c-2.3,0.5-4.4-0.3-4.7-1.8"/>
	<path class="st0" d="M631.9,57.5c1.6-0.4,2.5-2.3,2.1-4.3"/>
	<path class="st0" d="M631.3,60.9c3-0.7,5.1-2.5,4.7-4.3"/>
	<path class="st0" d="M638.9,75.6c-2.1,0.4-4.2-1.3-4.7-3.8"/>
	<path class="st0" d="M638.2,77c-1.7,0.4-3.4-0.4-3.7-1.7"/>
	<path class="st0" d="M641.3,93.5c3.6-0.8,6.1-3.6,5.5-6.3"/>
	<path class="st0" d="M641.3,91c2.5-0.5,4-3,3.4-5.5"/>
	<path class="st0" d="M647.8,107.4c-4.2,0.9-7.9,0.2-8.3-1.6"/>
	<path class="st0" d="M646.4,109.6c-3.2,0.7-6,0.4-6.1-0.6"/>
	<path class="st0" d="M648.9,126.1c3.7-0.8,6.1-1.9,5.4-4.9"/>
	<path class="st0" d="M652.2,125.4c2.7-0.6,4.6-0.3,4.3-1.8"/>
	<path class="st0" d="M657.4,141.1c-5.1,1.1-9.7-0.4-10.3-3.2"/>
	<path class="st0" d="M655.6,143.8c-3,0.7-5.6,0.2-5.8-1"/>
	<g>
		<path class="st3" d="M581.5,75.9c5.5,8.7,13.7,4.8,13.7,4.8C589.5,71.5,582,75.8,581.5,75.9z"/>
		<path class="st4" d="M581.5,75.9l13.7,4.8C589.6,71.2,581.5,75.9,581.5,75.9z"/>
	</g>
</g>
<path class="st5" d="M0.3,154.2c-3.8-3.3,30.8-1.7,65.3,6c7.8,1.7,61.2,25.4,59,27c15.3,18.7,22.1,17.2,39,28.5
	c11.5,11.4,42.9,24.1,62.7,35.5c17.2,5.6,33.6-2.7,56,8c3.9,4.2,99.3,9,103.9,12.3c2.4,2.9,70.3-3.1,79.9-10.8
	c9.6-7.7,66.6-13.3,66.6-13.3c4.2,2.4,52.2-14.5,53.9-21.6c15.8-30.9,34.5-32.9,39.5-36.3c19.5-17.9,21.4-22.2,29.2-23.6l36.6-13.1
	l17.7,1.5v131.7H0.7L0.3,154.2z"/>
<path class="st6" d="M0.7,166.7c2.4-3.5,66.3,4.5,71.5,5.5c11,2.1,51.8,24.8,48.1,26.2c10.7,17.8,41.8,20.8,54.4,29.4
	c22.8,16.4,30.3,16.4,51.4,34.2c26.6,8.7,74.8,10.1,74.8,10.1c8.1-5.2,106,8.8,102.9,7.1c0,0,60.1-10.5,62-7.8
	c27-1.8,49-6.4,66.6-13.3c8.3,3,47.3-21.4,53.9-21.6c19.7-0.5,32-39.7,35.7-35.8c0,0,29.7-12.8,33.2-18c3.6-5.2,29.4-16,32.1-12.7
	c9.4-10.4,14.8,2.9,22,1.5v125.2H0.7V166.7z"/>
</svg>
