<?xml version="1.0" encoding="utf-8"?>
<!-- Generator: Adobe Illustrator 21.1.0, SVG Export Plug-In . SVG Version: 6.00 Build 0)  -->
<svg version="1.1" id="圖層_1" xmlns="http://www.w3.org/2000/svg" xmlns:xlink="http://www.w3.org/1999/xlink" x="0px" y="0px"
	 viewBox="0 0 708.7 510.2" style="enable-background:new 0 0 708.7 510.2;" xml:space="preserve">
<style type="text/css">
	.st0{fill:#E8D9C4;}
	.st1{fill:#947F70;}
	.st2{fill:#947F70;stroke:#8FB928;stroke-width:3;stroke-miterlimit:10;}
	.st3{fill:#FFFFFF;}
	.st4{fill:#9F8D7F;}
</style>
<g>
	<path class="st0" d="M44.2,20.6C21.1,34.9,18.3,66.8,18.1,94c-0.9,99.4-1.8,198.8-2.7,298.2c-0.2,21.1-0.4,42.3,2.5,63.2
		c1,7.5,2.7,15.4,8,20.8c3.4,3.5,8,5.5,12.6,7.2c50.9,19.6,107.6,13.3,162,17.9c23.3,2,46.4,6.1,69.7,5.4
		c19.8-0.6,39.3-4.6,58.9-7.4c114.5-16.2,233.7,9.1,345.2-21.4c5.1-1.4,10.4-3.1,14-7c4.6-5.1,5-12.5,5-19.3
		c0.9-79.7-10.7-159.4-7.2-239.1c2.2-49.6,10.2-99.8,0.5-148.5c-3.9-19.4-12.2-40.2-30.3-48.2c-10.4-4.7-22.4-4.2-33.8-3.6
		c-178,8.4-356.4,8.9-534.4,1.5C71.6,12.3,56.7,14.1,44.2,20.6z"/>
</g>
<g>
	<path class="st1" d="M35.3,464.7c-0.1,0.4,0.5,0.5,0.6,0.1C36,464.5,35.3,464.3,35.3,464.7z"/>
	<path class="st1" d="M26.1,469.7c2.6,1.1,5,1.7,6.9,1.8c1.6,0.1,3-0.2,4.1-0.7c1.9-0.9,2.5-2.1,2.5-2.1l0.1,0.1l-0.1-0.1l0.2,0.2
		c0,0-0.1,0.4-0.5,0.9c-0.3,0.5-0.9,1.1-1.9,1.6c-1.1,0.5-2.5,0.8-4.1,0.7c-2-0.1-4.4-0.7-7-1.8L26.1,469.7z"/>
	<path class="st1" d="M39.2,449.2l0.5,0.5c-5.6,5.5-5.8,14.5-0.3,20.1c5.5,5.6,14.5,5.8,20.1,0.3l0.5,0.5
		c-5.9,5.7-15.4,5.6-21.1-0.3c-3.3-3.4-4.8-8.3-4-13C35.5,454.2,37,451.3,39.2,449.2z"/>
	<path class="st2" d="M56.2,466.1"/>
	<path class="st1" d="M38.8,469.9c0.1-0.2,0.3-0.2,0.5-0.2c0.1,0,7.4,3.4,16.7-3.9l0.4,0.5c-5.1,4-9.5,4.8-12.3,4.9
		c-0.5,0-1.1,0-1.6-0.1c3.6,1.2,7.3,0.9,11.1-0.8c3.7-1.7,6.1-4.2,6.2-4.2l0.5,0.5c-0.1,0.1-2.5,2.6-6.3,4.4
		c-3.5,1.6-9,2.8-14.9-0.6C38.8,470.2,38.8,470.1,38.8,469.9C38.8,469.9,38.8,469.9,38.8,469.9z"/>
	<path class="st1" d="M43.1,458.9c2.8-2.6,5.9-4.1,6-4.2l0.3,0.6c-0.1,0.1-12.3,6.1-9.9,14.3l-0.6,0.2c-0.4-1.2-0.4-2.6-0.2-3.8
		C39.1,463.6,40.6,461.2,43.1,458.9z"/>
	<path class="st1" d="M37.9,461.6c1.3-4.3,5.1-7.9,11.3-10.8l0.3,0.6c-6.1,2.8-9.7,6.3-11,10.3c-1,3.3,0,6.1,0.5,7.4
		c0.9-2.1,2.7-4.2,5.4-6.5c1.4-1.1,2.9-2.1,4.4-3l0.3,0.6c-0.1,0-8.2,4.7-9.8,9.9c0,0.1-0.1,0.1-0.1,0.2c-0.2,0.1-0.4,0.1-0.5-0.1
		c-0.1-0.1-2-3.2-1.3-7.4C37.7,462.4,37.8,462,37.9,461.6z"/>
	<path class="st1" d="M36.3,459c1.4-7.3,8.5-12,8.8-12.2l0.4,0.6c-0.1,0-7.2,4.8-8.5,11.7c-0.7,3.4,0.1,6.9,2.4,10.2
		c1,0.1,6.6,0.1,14.1-6.3l0.4,0.5c-8.4,7.2-14.5,6.5-14.7,6.4c-0.1,0-0.2-0.1-0.2-0.1c-2.4-3.5-3.3-7-2.6-10.6
		C36.3,459.2,36.3,459.1,36.3,459z"/>
	<path class="st1" d="M60.7,469C60.7,469,60.7,469,60.7,469c0.7,0.5,0.9,1.5,0.4,2.2s-1.5,0.9-2.2,0.4c-0.7-0.5-0.9-1.5-0.4-2.2
		C59,468.7,60,468.5,60.7,469z"/>
	<path class="st1" d="M61.2,465C61.2,465,61.2,465,61.2,465c0.7,0.5,0.9,1.5,0.4,2.2s-1.5,0.9-2.2,0.4c-0.7-0.5-0.9-1.5-0.4-2.2
		C59.5,464.6,60.5,464.5,61.2,465z"/>
	<path class="st1" d="M57.1,464.8C57.1,464.8,57.1,464.8,57.1,464.8c0.7,0.5,0.9,1.5,0.4,2.2c-0.5,0.7-1.5,0.9-2.2,0.4
		c-0.7-0.5-0.9-1.5-0.4-2.2C55.4,464.5,56.4,464.3,57.1,464.8z"/>
	<path class="st1" d="M49.8,458.6C49.8,458.6,49.8,458.6,49.8,458.6c0.7,0.5,0.9,1.5,0.4,2.2s-1.5,0.9-2.2,0.4
		c-0.7-0.5-0.9-1.5-0.4-2.2C48.2,458.2,49.1,458.1,49.8,458.6z"/>
	<path class="st1" d="M48,450.2c0.5-0.7,1.5-0.9,2.2-0.4c0,0,0,0,0,0c0.7,0.5,0.9,1.5,0.4,2.2s-1.5,0.9-2.2,0.4
		C47.7,451.9,47.5,450.9,48,450.2C48,450.2,48,450.2,48,450.2z"/>
	<path class="st1" d="M44,446.2c0.5-0.7,1.5-0.9,2.2-0.4c0,0,0,0,0,0c0.7,0.5,0.9,1.5,0.4,2.2c-0.5,0.7-1.5,0.9-2.2,0.4
		C43.7,447.9,43.5,446.9,44,446.2L44,446.2z"/>
	<path class="st1" d="M38.1,445.1C38.1,445.1,38.1,445.1,38.1,445.1c0.7,0.5,0.9,1.5,0.4,2.2c-0.5,0.7-1.5,0.9-2.2,0.4
		c-0.7-0.5-0.9-1.5-0.4-2.2S37.4,444.6,38.1,445.1z"/>
	<path class="st1" d="M53.5,462.3c0.4-0.4,1-0.3,1.4,0.1c0.4,0.4,0.3,1-0.1,1.4c-0.4,0.4-1,0.3-1.4-0.1
		C53,463.3,53.1,462.6,53.5,462.3C53.5,462.3,53.5,462.3,53.5,462.3z"/>
	<path class="st1" d="M57.8,475.5c0.4-0.4,1-0.3,1.4,0.1c0.4,0.4,0.3,1-0.1,1.4c-0.4,0.4-1,0.3-1.4-0.1S57.4,475.9,57.8,475.5
		C57.8,475.5,57.8,475.5,57.8,475.5z"/>
	<path class="st1" d="M48.5,454.3c0.4-0.4,1-0.3,1.4,0.1c0.4,0.4,0.3,1-0.1,1.4c-0.4,0.4-1,0.3-1.4-0.1
		C48.1,455.3,48.1,454.7,48.5,454.3C48.5,454.3,48.5,454.3,48.5,454.3z"/>
	<path class="st1" d="M38.5,449c0.4-0.4,1-0.3,1.4,0.1c0.4,0.4,0.3,1-0.1,1.4c-0.4,0.4-1,0.3-1.4-0.1S38.1,449.3,38.5,449
		C38.5,449,38.5,449,38.5,449z"/>
	<path class="st1" d="M36.9,446.2l0.6,0.4c-4.4,6.8-6.7,11.5,1.9,23.2c3.5,4.7,7.7,7.1,12.7,7.3c3.7,0.1,6.4-1.1,6.4-1.2l0.3,0.6
		c-0.1,0.1-2.9,1.3-6.7,1.2c-3.6-0.1-8.7-1.5-13.2-7.6c-4.2-5.6-6-9.8-6-13.6c0-0.7,0.1-1.4,0.2-2.1
		C33.5,451.9,34.9,449.3,36.9,446.2z"/>
	<path class="st1" d="M50.1,473.1c-0.1,0.3,0.4,0.4,0.5,0.1C50.6,472.9,50.2,472.8,50.1,473.1z"/>
	<path class="st3" d="M48.9,471.5c-0.1,0-0.1,0.1-0.2,0.1c-0.1,0.1-0.2,0.2-0.2,0.3c0,0.1,0,0.2,0.1,0.3c0,0,0.1,0.1,0.1,0.1
		c0.2,0.1,0.3,0.2,0.5,0.1c0.2-0.1,0.3-0.2,0.3-0.3c0-0.1,0-0.2,0-0.3c0-0.1,0-0.1-0.1-0.2C49.3,471.5,49.1,471.4,48.9,471.5z"/>
	<path class="st3" d="M44.1,450c-0.1,0.7,1,0.9,1.2,0.2C45.3,449.5,44.2,449.3,44.1,450z"/>
	<path class="st1" d="M38.2,457.4c-0.1,0.4,0.6,0.5,0.6,0.1C38.9,457.1,38.3,457,38.2,457.4z"/>
	<path class="st1" d="M40,463.6c-0.1,0.4,0.6,0.5,0.6,0.1C40.7,463.3,40.1,463.2,40,463.6z"/>
	<path class="st3" d="M38.3,461.7c-0.2,0.9,1.2,1.1,1.4,0.2C39.8,461,38.5,460.8,38.3,461.7z"/>
	<path class="st1" d="M52.9,472.1c-0.1,0.3,0.4,0.4,0.5,0.1C53.4,471.9,53,471.8,52.9,472.1z"/>
</g>
<g>
	<path class="st1" d="M670.2,469.1c0.4,0.1,0.5-0.5,0.1-0.6C669.9,468.4,669.8,469,670.2,469.1z"/>
	<path class="st1" d="M675.2,478.3c1.1-2.6,1.7-5,1.8-6.9c0.1-1.6-0.2-3-0.7-4.1c-0.9-1.9-2.1-2.5-2.1-2.5l0.1-0.1l-0.1,0.1l0.2-0.2
		c0,0,0.4,0.1,0.9,0.5c0.5,0.3,1.1,0.9,1.6,1.9c0.5,1.1,0.8,2.5,0.7,4.1c-0.1,2-0.7,4.4-1.8,7L675.2,478.3z"/>
	<path class="st1" d="M654.6,465.1l0.5-0.5c5.5,5.6,14.5,5.8,20.1,0.3s5.8-14.5,0.3-20.1l0.5-0.5c5.7,5.9,5.6,15.4-0.3,21.1
		c-3.4,3.3-8.3,4.8-13,4C659.6,468.9,656.8,467.4,654.6,465.1z"/>
	<path class="st2" d="M671.5,448.2"/>
	<path class="st1" d="M675.3,465.5c-0.2-0.1-0.2-0.3-0.2-0.5c0-0.1,3.4-7.4-3.9-16.7l0.5-0.4c4,5.1,4.8,9.5,4.9,12.3
		c0,0.5,0,1.1-0.1,1.6c1.2-3.6,0.9-7.3-0.8-11.1c-1.7-3.7-4.2-6.1-4.2-6.2l0.5-0.5c0.1,0.1,2.6,2.5,4.4,6.3c1.6,3.5,2.8,9-0.6,14.9
		C675.7,465.5,675.6,465.6,675.3,465.5C675.4,465.6,675.3,465.5,675.3,465.5z"/>
	<path class="st1" d="M664.4,461.3c-2.6-2.8-4.1-5.9-4.2-6l0.6-0.3c0.1,0.1,6.1,12.3,14.3,9.9l0.2,0.6c-1.2,0.4-2.6,0.4-3.8,0.2
		C669.1,465.3,666.6,463.8,664.4,461.3z"/>
	<path class="st1" d="M667.1,466.5c-4.3-1.3-7.9-5.1-10.8-11.3l0.6-0.3c2.8,6.1,6.3,9.7,10.3,11c3.3,1,6.1,0,7.4-0.5
		c-2.1-0.9-4.2-2.7-6.5-5.4c-1.1-1.4-2.1-2.9-3-4.4l0.6-0.3c0,0.1,4.7,8.2,9.9,9.8c0.1,0,0.1,0.1,0.2,0.1c0.1,0.2,0.1,0.4-0.1,0.5
		c-0.1,0.1-3.2,2-7.4,1.3C667.9,466.7,667.5,466.6,667.1,466.5z"/>
	<path class="st1" d="M664.4,468c-7.3-1.4-12-8.5-12.2-8.8l0.6-0.4c0,0.1,4.8,7.2,11.7,8.5c3.4,0.7,6.9-0.1,10.2-2.4
		c0.1-1,0.1-6.6-6.3-14.1l0.5-0.4c7.2,8.4,6.5,14.5,6.4,14.7c0,0.1-0.1,0.2-0.1,0.2c-3.5,2.4-7,3.3-10.6,2.6
		C664.6,468.1,664.5,468,664.4,468z"/>
	<path class="st1" d="M674.5,443.7C674.5,443.7,674.5,443.7,674.5,443.7c0.5-0.7,1.5-0.9,2.2-0.4s0.9,1.5,0.4,2.2s-1.5,0.9-2.2,0.4
		C674.1,445.4,674,444.4,674.5,443.7z"/>
	<path class="st1" d="M670.4,443.2C670.4,443.2,670.4,443.2,670.4,443.2c0.5-0.7,1.5-0.9,2.2-0.4c0.7,0.5,0.9,1.5,0.4,2.2
		c-0.5,0.7-1.5,0.9-2.2,0.4C670.1,444.8,669.9,443.9,670.4,443.2z"/>
	<path class="st1" d="M670.3,447.3C670.3,447.3,670.3,447.3,670.3,447.3c0.5-0.7,1.5-0.9,2.2-0.4c0.7,0.5,0.9,1.5,0.4,2.2
		c-0.5,0.7-1.5,0.9-2.2,0.4C669.9,448.9,669.8,448,670.3,447.3z"/>
	<path class="st1" d="M664,454.5C664,454.5,664,454.5,664,454.5c0.5-0.7,1.5-0.9,2.2-0.4c0.7,0.5,0.9,1.5,0.4,2.2
		c-0.5,0.7-1.5,0.9-2.2,0.4C663.7,456.2,663.5,455.2,664,454.5z"/>
	<path class="st1" d="M655.7,456.3c-0.7-0.5-0.9-1.5-0.4-2.2c0,0,0,0,0,0c0.5-0.7,1.5-0.9,2.2-0.4c0.7,0.5,0.9,1.5,0.4,2.2
		C657.4,456.7,656.4,456.9,655.7,456.3C655.7,456.3,655.7,456.3,655.7,456.3z"/>
	<path class="st1" d="M651.7,460.3c-0.7-0.5-0.9-1.5-0.4-2.2c0,0,0,0,0,0c0.5-0.7,1.5-0.9,2.2-0.4s0.9,1.5,0.4,2.2
		S652.4,460.8,651.7,460.3L651.7,460.3z"/>
	<path class="st1" d="M650.6,466.3C650.6,466.3,650.6,466.3,650.6,466.3c0.5-0.7,1.5-0.9,2.2-0.4c0.7,0.5,0.9,1.5,0.4,2.2
		c-0.5,0.7-1.5,0.9-2.2,0.4C650.3,467.9,650.1,467,650.6,466.3z"/>
	<path class="st1" d="M667.7,450.9c-0.4-0.4-0.3-1,0.1-1.4c0.4-0.4,1-0.3,1.4,0.1c0.4,0.4,0.3,1-0.1,1.4
		C668.7,451.3,668.1,451.3,667.7,450.9C667.7,450.9,667.7,450.9,667.7,450.9z"/>
	<path class="st1" d="M681,446.5c-0.4-0.4-0.3-1,0.1-1.4c0.4-0.4,1-0.3,1.4,0.1s0.3,1-0.1,1.4C682,446.9,681.3,446.9,681,446.5
		C681,446.5,681,446.5,681,446.5z"/>
	<path class="st1" d="M659.8,455.9c-0.4-0.4-0.3-1,0.1-1.4c0.4-0.4,1-0.3,1.4,0.1s0.3,1-0.1,1.4
		C660.8,456.3,660.1,456.3,659.8,455.9C659.8,455.9,659.8,455.9,659.8,455.9z"/>
	<path class="st1" d="M654.4,465.9c-0.4-0.4-0.3-1,0.1-1.4c0.4-0.4,1-0.3,1.4,0.1s0.3,1-0.1,1.4
		C655.4,466.3,654.8,466.3,654.4,465.9C654.4,465.9,654.4,465.9,654.4,465.9z"/>
	<path class="st1" d="M651.7,467.5l0.4-0.6c6.8,4.4,11.5,6.7,23.2-1.9c4.7-3.5,7.1-7.7,7.3-12.7c0.1-3.7-1.1-6.4-1.2-6.4l0.6-0.3
		c0.1,0.1,1.3,2.9,1.2,6.7c-0.1,3.6-1.5,8.7-7.6,13.2c-5.6,4.2-9.8,6-13.6,6c-0.7,0-1.4-0.1-2.1-0.2
		C657.3,470.9,654.8,469.5,651.7,467.5z"/>
	<path class="st1" d="M678.6,454.3c0.3,0.1,0.4-0.4,0.1-0.5C678.4,453.8,678.3,454.2,678.6,454.3z"/>
	<path class="st3" d="M676.9,455.4c0,0.1,0.1,0.1,0.1,0.2c0.1,0.1,0.2,0.2,0.3,0.2c0.1,0,0.2,0,0.3-0.1c0,0,0.1-0.1,0.1-0.1
		c0.1-0.2,0.2-0.3,0.1-0.5c-0.1-0.2-0.2-0.3-0.3-0.3c-0.1,0-0.2,0-0.3,0c-0.1,0-0.1,0-0.2,0.1C676.9,455.1,676.8,455.3,676.9,455.4z
		"/>
	<path class="st3" d="M655.5,460.3c0.7,0.1,0.9-1,0.2-1.2C654.9,459,654.7,460.2,655.5,460.3z"/>
	<path class="st1" d="M662.8,466.2c0.4,0.1,0.5-0.6,0.1-0.6C662.5,465.5,662.4,466.1,662.8,466.2z"/>
	<path class="st1" d="M669.1,464.4c0.4,0.1,0.5-0.6,0.1-0.6C668.8,463.7,668.7,464.3,669.1,464.4z"/>
	<path class="st3" d="M667.1,466.1c0.9,0.2,1.1-1.2,0.2-1.4C666.5,464.5,666.3,465.9,667.1,466.1z"/>
	<path class="st1" d="M677.6,451.5c0.3,0.1,0.4-0.4,0.1-0.5C677.3,450.9,677.3,451.4,677.6,451.5z"/>
</g>
<g>
	<path class="st1" d="M50.6,30c-0.4-0.1-0.5,0.5-0.1,0.6C50.8,30.6,50.9,30,50.6,30z"/>
	<path class="st1" d="M45.7,20.9c-1,2.6-1.7,4.9-1.8,6.8c-0.1,1.6,0.2,3,0.7,4c0.9,1.8,2,2.4,2,2.4l-0.1,0.1l0.1-0.1l-0.2,0.2
		c0,0-0.4-0.1-0.9-0.5c-0.5-0.3-1.1-0.9-1.6-1.9c-0.5-1.1-0.8-2.5-0.7-4c0.1-2,0.7-4.3,1.7-6.9L45.7,20.9z"/>
	<path class="st1" d="M65.9,33.9l-0.5,0.5C60,28.8,51.1,28.6,45.6,34s-5.7,14.3-0.3,19.8l-0.5,0.5c-5.6-5.8-5.5-15.1,0.3-20.8
		c3.4-3.3,8.1-4.7,12.8-3.9C60.9,30.2,63.7,31.6,65.9,33.9z"/>
	<path class="st2" d="M49.2,50.6"/>
	<path class="st1" d="M45.5,33.5c0.2,0.1,0.2,0.3,0.2,0.4c0,0.1-3.4,7.2,3.8,16.4L49,50.8c-3.9-5-4.8-9.3-4.8-12.1
		c0-0.5,0-1.1,0.1-1.6c-1.2,3.5-0.9,7.2,0.8,10.9c1.7,3.7,4.2,6,4.2,6.1l-0.5,0.5c-0.1-0.1-2.6-2.5-4.3-6.2
		c-1.6-3.5-2.8-8.9,0.6-14.6C45.1,33.5,45.3,33.4,45.5,33.5C45.4,33.5,45.5,33.5,45.5,33.5z"/>
	<path class="st1" d="M56.3,37.7c2.6,2.8,4.1,5.8,4.1,5.9l-0.6,0.3c-0.1-0.1-6-12.1-14.1-9.7l-0.2-0.6c1.2-0.4,2.5-0.4,3.8-0.2
		C51.7,33.8,54,35.2,56.3,37.7z"/>
	<path class="st1" d="M53.6,32.6c4.2,1.2,7.8,5,10.6,11.1L63.6,44c-2.8-6-6.2-9.6-10.2-10.8c-3.3-1-6,0-7.3,0.5
		c2,0.8,4.2,2.6,6.4,5.3c1.1,1.4,2.1,2.8,3,4.3L55,43.7c0-0.1-4.6-8.1-9.7-9.6c-0.1,0-0.1-0.1-0.2-0.1c-0.1-0.2-0.1-0.4,0.1-0.5
		c0.1-0.1,3.2-2,7.2-1.2C52.8,32.3,53.2,32.4,53.6,32.6z"/>
	<path class="st1" d="M56.2,31c7.1,1.4,11.8,8.4,12,8.7l-0.6,0.4c0-0.1-4.7-7-11.5-8.4C52.7,31,49.3,31.8,46,34
		C46,35,46,40.5,52.2,47.9l-0.5,0.4c-7-8.3-6.4-14.3-6.3-14.5c0-0.1,0.1-0.2,0.1-0.2c3.4-2.3,6.9-3.2,10.4-2.6
		C56,31,56.1,31,56.2,31z"/>
	<path class="st1" d="M46.3,54.9C46.3,54.9,46.3,54.9,46.3,54.9c-0.5,0.7-1.5,0.8-2.1,0.3s-0.8-1.4-0.3-2.1c0.5-0.7,1.4-0.8,2.1-0.3
		C46.7,53.3,46.8,54.3,46.3,54.9z"/>
	<path class="st1" d="M50.3,55.5C50.3,55.5,50.3,55.5,50.3,55.5c-0.5,0.7-1.5,0.8-2.1,0.3c-0.7-0.5-0.8-1.5-0.3-2.1
		c0.5-0.7,1.5-0.8,2.1-0.3C50.7,53.8,50.8,54.8,50.3,55.5z"/>
	<path class="st1" d="M50.5,51.5C50.5,51.5,50.5,51.5,50.5,51.5c-0.5,0.7-1.5,0.8-2.1,0.3c-0.7-0.5-0.8-1.5-0.3-2.1
		c0.5-0.7,1.5-0.8,2.1-0.3C50.8,49.8,51,50.8,50.5,51.5z"/>
	<path class="st1" d="M56.6,44.3C56.6,44.3,56.6,44.3,56.6,44.3c-0.5,0.7-1.5,0.8-2.1,0.3c-0.7-0.5-0.8-1.5-0.3-2.1
		c0.5-0.7,1.5-0.8,2.1-0.3C57,42.7,57.1,43.6,56.6,44.3z"/>
	<path class="st1" d="M64.8,42.5c0.7,0.5,0.8,1.4,0.3,2.1c0,0,0,0,0,0c-0.5,0.7-1.5,0.8-2.1,0.3c-0.7-0.5-0.8-1.5-0.3-2.1
		C63.2,42.2,64.1,42,64.8,42.5C64.8,42.5,64.8,42.5,64.8,42.5z"/>
	<path class="st1" d="M68.8,38.6c0.7,0.5,0.8,1.4,0.3,2.1c0,0,0,0,0,0c-0.5,0.7-1.4,0.8-2.1,0.3c-0.7-0.5-0.8-1.4-0.3-2.1
		S68.1,38.1,68.8,38.6L68.8,38.6z"/>
	<path class="st1" d="M69.8,32.7C69.8,32.7,69.8,32.7,69.8,32.7c-0.5,0.7-1.5,0.8-2.1,0.3c-0.7-0.5-0.8-1.4-0.3-2.1
		c0.5-0.7,1.4-0.8,2.1-0.3C70.2,31.1,70.3,32.1,69.8,32.7z"/>
	<path class="st1" d="M53,47.9c0.4,0.4,0.3,1-0.1,1.4c-0.4,0.4-1,0.3-1.4-0.1s-0.3-1,0.1-1.4C52,47.4,52.6,47.5,53,47.9
		C53,47.9,53,47.9,53,47.9z"/>
	<path class="st1" d="M39.9,52.2c0.4,0.4,0.3,1-0.1,1.4s-1,0.3-1.4-0.1c-0.4-0.4-0.3-1,0.1-1.4S39.6,51.8,39.9,52.2
		C39.9,52.2,39.9,52.2,39.9,52.2z"/>
	<path class="st1" d="M60.8,43c0.4,0.4,0.3,1-0.1,1.4c-0.4,0.4-1,0.3-1.4-0.1c-0.4-0.4-0.3-1,0.1-1.4C59.8,42.6,60.4,42.6,60.8,43
		C60.8,43,60.8,43,60.8,43z"/>
	<path class="st1" d="M66.1,33.2c0.4,0.4,0.3,1-0.1,1.4s-1,0.3-1.4-0.1c-0.4-0.4-0.3-1,0.1-1.4C65.1,32.7,65.7,32.8,66.1,33.2
		C66.1,33.2,66.1,33.2,66.1,33.2z"/>
	<path class="st1" d="M68.8,31.6l-0.4,0.6c-6.7-4.4-11.3-6.6-22.9,1.9c-4.6,3.4-7,7.6-7.2,12.5c-0.1,3.6,1.1,6.3,1.1,6.3l-0.6,0.3
		c-0.1-0.1-1.3-2.8-1.2-6.6c0.1-3.5,1.5-8.6,7.5-13c5.5-4.1,9.6-5.9,13.4-5.9c0.7,0,1.4,0.1,2.1,0.2C63.2,28.2,65.7,29.6,68.8,31.6z
		"/>
	<path class="st1" d="M42.3,44.6c-0.3,0-0.4,0.4-0.1,0.4C42.5,45.1,42.6,44.6,42.3,44.6z"/>
	<path class="st3" d="M43.9,43.4c0-0.1-0.1-0.1-0.1-0.2c-0.1-0.1-0.2-0.2-0.3-0.2c-0.1,0-0.2,0-0.3,0.1c0,0-0.1,0.1-0.1,0.1
		c-0.1,0.2-0.2,0.3-0.1,0.5c0.1,0.1,0.2,0.3,0.3,0.3c0.1,0,0.2,0,0.3,0c0.1,0,0.1,0,0.2-0.1C43.9,43.8,44,43.6,43.9,43.4z"/>
	<path class="st3" d="M65,38.6c-0.7-0.1-0.9,1-0.2,1.1C65.6,39.9,65.8,38.8,65,38.6z"/>
	<path class="st1" d="M57.8,32.9c-0.4-0.1-0.5,0.6-0.1,0.6C58.1,33.6,58.2,32.9,57.8,32.9z"/>
	<path class="st1" d="M51.6,34.6c-0.4-0.1-0.5,0.6-0.1,0.6C51.9,35.3,52,34.7,51.6,34.6z"/>
	<path class="st3" d="M53.6,33c-0.9-0.2-1.1,1.2-0.2,1.3C54.2,34.5,54.4,33.1,53.6,33z"/>
	<path class="st1" d="M43.3,47.3c-0.3-0.1-0.4,0.4-0.1,0.5C43.5,47.8,43.6,47.4,43.3,47.3z"/>
</g>
<g>
	<path class="st1" d="M654.2,27.5c0.4-0.1,0.3-0.8-0.1-0.7C653.7,26.8,653.8,27.5,654.2,27.5z"/>
	<path class="st1" d="M660.5,16.4c1.2,3,1.9,5.7,2,8c0.1,1.8-0.2,3.4-0.8,4.7c-0.6,1.1-1.3,1.8-1.8,2.2c-0.6,0.4-1,0.6-1,0.6
		l-0.2-0.2l0.1,0.1l-0.1-0.1c0,0,1.4-0.7,2.4-2.9c0.6-1.3,0.9-2.9,0.8-4.7c-0.1-2.3-0.9-5-2.1-8L660.5,16.4z"/>
	<path class="st1" d="M645.5,26.4c5.4-1,11,0.7,14.9,4.6c6.8,6.6,6.9,17.4,0.4,24.2l-0.6-0.5c6.3-6.5,6.1-16.8-0.4-23.1
		c-6.5-6.3-16.8-6.1-23.1,0.4l-0.6-0.5C638.7,28.7,642,27,645.5,26.4z"/>
	<path class="st2" d="M655.7,50.8"/>
	<path class="st1" d="M660.1,30.8c0.2,0,0.3,0,0.4,0.2c4,6.7,2.6,13,0.7,17c-2,4.4-4.9,7.2-5,7.3l-0.5-0.6c0,0,2.9-2.8,4.9-7.1
		c2-4.4,2.3-8.7,1-12.7c0.1,0.6,0.1,1.3,0.1,1.9c0,3.3-1,8.4-5.6,14.2l-0.6-0.5c8.4-10.7,4.5-19.1,4.5-19.2c-0.1-0.2,0-0.4,0.2-0.5
		C660,30.8,660.1,30.8,660.1,30.8z"/>
	<path class="st1" d="M655.6,30.7c1.5-0.3,3-0.2,4.4,0.2l-0.2,0.7c-9.4-2.8-16.4,11.2-16.4,11.3l-0.7-0.3c0.1-0.1,1.8-3.7,4.8-6.9
		C650,32.9,652.8,31.2,655.6,30.7z"/>
	<path class="st1" d="M651.9,29.4c4.7-0.8,8.3,1.3,8.4,1.4c0.2,0.1,0.2,0.4,0.1,0.5c0,0.1-0.1,0.1-0.2,0.2
		c-5.9,1.8-11.3,11.1-11.3,11.2l-0.7-0.4c1-1.8,2.2-3.4,3.5-5c2.5-3.1,5-5.2,7.4-6.2c-1.4-0.6-4.7-1.8-8.5-0.6
		c-4.7,1.4-8.7,5.6-11.9,12.6l-0.7-0.3c3.3-7.2,7.5-11.5,12.4-13C651,29.6,651.4,29.5,651.9,29.4z"/>
	<path class="st1" d="M647.8,27.9c4.1-0.7,8.2,0.3,12.2,3c0.1,0.1,0.1,0.2,0.2,0.3c0,0.3,0.8,7.2-7.4,16.9l-0.6-0.5
		c7.3-8.6,7.3-15,7.2-16.1c-3.8-2.6-7.8-3.5-11.7-2.7c-8,1.6-13.4,9.7-13.5,9.8l-0.6-0.4c0.2-0.3,5.6-8.5,13.9-10.1
		C647.6,28,647.7,28,647.8,27.9z"/>
	<path class="st1" d="M659.4,53.4c0.8-0.6,1.9-0.4,2.5,0.4c0.6,0.8,0.4,1.9-0.4,2.5c-0.8,0.6-1.9,0.4-2.5-0.4c0,0,0,0,0,0
		C658.5,55.1,658.6,54,659.4,53.4z"/>
	<path class="st1" d="M654.8,54c0.8-0.6,1.9-0.4,2.5,0.4c0.6,0.8,0.4,1.9-0.4,2.5c-0.8,0.6-1.9,0.4-2.5-0.4c0,0,0,0,0,0
		C653.8,55.7,654,54.6,654.8,54z"/>
	<path class="st1" d="M654.6,49.3c0.8-0.6,1.9-0.4,2.5,0.4c0.6,0.8,0.4,1.9-0.4,2.5c-0.8,0.6-1.9,0.4-2.5-0.4c0,0,0,0,0,0
		C653.6,51,653.8,49.9,654.6,49.3z"/>
	<path class="st1" d="M647.4,41c0.8-0.6,1.9-0.4,2.5,0.4c0.6,0.8,0.4,1.9-0.4,2.5c-0.8,0.6-1.9,0.4-2.5-0.4c0,0,0,0,0,0
		C646.4,42.7,646.6,41.5,647.4,41z"/>
	<path class="st1" d="M637.5,41.4c0.8-0.6,1.9-0.4,2.5,0.4c0.6,0.8,0.4,1.9-0.4,2.5c-0.8,0.6-1.9,0.4-2.5-0.4c0,0,0,0,0,0
		C636.5,43.1,636.7,42,637.5,41.4C637.5,41.4,637.5,41.4,637.5,41.4z"/>
	<path class="st1" d="M632.9,36.8c0.8-0.6,1.9-0.4,2.5,0.4c0.6,0.8,0.4,1.9-0.4,2.5c-0.8,0.6-1.9,0.4-2.5-0.4c0,0,0,0,0,0
		C631.9,38.5,632.1,37.4,632.9,36.8L632.9,36.8z"/>
	<path class="st1" d="M632,27.5c0.8-0.6,1.9-0.4,2.5,0.4c0.6,0.8,0.4,1.9-0.4,2.5c-0.8,0.6-1.9,0.4-2.5-0.4c0,0,0,0,0,0
		C631.1,29.2,631.2,28.1,632,27.5z"/>
	<path class="st1" d="M651.3,47.6c0.4-0.5,1.1-0.5,1.6-0.1c0.5,0.4,0.5,1.1,0.1,1.6c-0.4,0.5-1.1,0.5-1.6,0.1
		C650.9,48.8,650.9,48.1,651.3,47.6C651.3,47.6,651.3,47.6,651.3,47.6z"/>
	<path class="st1" d="M666.5,52.6c0.4-0.5,1.1-0.5,1.6-0.1s0.5,1.1,0.1,1.6c-0.4,0.5-1.1,0.5-1.6,0.1
		C666.1,53.8,666,53.1,666.5,52.6C666.5,52.6,666.5,52.6,666.5,52.6z"/>
	<path class="st1" d="M642.2,41.9c0.4-0.5,1.1-0.5,1.6-0.1c0.5,0.4,0.5,1.1,0.1,1.6s-1.1,0.5-1.6,0.1
		C641.7,43.1,641.7,42.4,642.2,41.9C642.1,41.9,642.1,41.9,642.2,41.9z"/>
	<path class="st1" d="M636,30.5c0.4-0.5,1.1-0.5,1.6-0.1s0.5,1.1,0.1,1.6c-0.4,0.5-1.1,0.5-1.6,0.1S635.6,30.9,636,30.5
		C636,30.5,636,30.5,636,30.5z"/>
	<path class="st1" d="M642.4,24.2c0.8-0.1,1.6-0.2,2.4-0.2c4.4,0,9.2,2.1,15.6,6.9c7,5.2,8.6,11.1,8.7,15.2c0.1,4.4-1.3,7.6-1.4,7.7
		l-0.7-0.3c0,0,1.5-3.1,1.3-7.4c-0.2-5.7-3-10.6-8.4-14.6c-13.4-10-18.9-7.3-26.6-2.2l-0.4-0.6C636.5,26.3,639.3,24.7,642.4,24.2z"
		/>
	<path class="st1" d="M663.8,44.3c0.3-0.1,0.2-0.6-0.1-0.5C663.4,43.8,663.5,44.4,663.8,44.3z"/>
	<path class="st3" d="M662,43c0.1,0,0.1,0.1,0.2,0.1c0.1,0.1,0.2,0.1,0.3,0c0.2,0,0.3-0.2,0.4-0.3c0.1-0.2,0-0.4-0.1-0.6
		c0,0-0.1-0.1-0.1-0.1c-0.1-0.1-0.3-0.1-0.4-0.1c-0.1,0-0.3,0.1-0.4,0.2c0,0.1-0.1,0.1-0.1,0.2C661.7,42.6,661.8,42.8,662,43z"/>
	<path class="st3" d="M637.5,38.2c0.9-0.2,0.6-1.5-0.2-1.3C636.4,37,636.6,38.3,637.5,38.2z"/>
	<path class="st1" d="M645.8,30.9c0.5-0.1,0.3-0.8-0.1-0.7C645.2,30.2,645.3,30.9,645.8,30.9z"/>
	<path class="st1" d="M653,32.9c0.5-0.1,0.3-0.8-0.1-0.7C652.4,32.3,652.5,33,653,32.9z"/>
	<path class="st3" d="M650.9,31.8c1-0.2,0.7-1.7-0.3-1.5C649.6,30.4,649.9,32,650.9,31.8z"/>
	<path class="st1" d="M662.6,47.5c0.3-0.1,0.2-0.6-0.1-0.5C662.2,47,662.3,47.6,662.6,47.5z"/>
</g>
<g>
	<g>
		<path class="st0" d="M143.8,45.2c3.2,0,3.2-5,0-5C140.6,40.2,140.6,45.2,143.8,45.2L143.8,45.2z"/>
	</g>
</g>
<g>
	<g>
		<path class="st0" d="M98.3,45.1c15.4-3.6,31.1-5.9,47-6.5c8.6-0.3,16.7,0.4,25.1,2.6c7.3,1.8,14.5,3.6,22,4.8
			c29.3,4.8,59.3,3.1,87.9-4.7c3.1-0.8,1.8-5.7-1.3-4.8c-30.1,8.2-61.9,9.6-92.5,3.4c-7.4-1.5-14.7-3.8-22.1-5.2
			c-7.2-1.3-14.5-1.3-21.8-0.9c-15.3,0.8-30.6,3-45.5,6.5C93.9,41,95.2,45.9,98.3,45.1L98.3,45.1z"/>
	</g>
</g>
<g>
	<g>
		<g>
			<g>
				<g>
					<path class="st4" d="M656.1,472.5c0.9-0.2,0.5-0.2,0.7-0.3C655.4,472.6,656.2,472.5,656.1,472.5z"/>
					<polygon class="st4" points="642,476.2 642.2,476.1 640.1,476.6 					"/>
					<path class="st4" d="M628.5,478.8c1.3,0,4.9-0.9,7.3-1.3l0.4,0l1.1-0.3C634.3,477.7,630.6,478.5,628.5,478.8z"/>
					<path class="st4" d="M621.2,479.6c0.5,0-1.6,0.3,1.7-0.3c-0.2,0-0.2,0-0.3,0C622.3,479.4,621.9,479.5,621.2,479.6z"/>
					<path class="st4" d="M622.6,479.4C624,479.2,621.6,479.5,622.6,479.4L622.6,479.4z"/>
					<path class="st4" d="M616,480.4l1.9-0.3c-0.4,0-2.1,0.2-1.5,0.1C614.5,480.5,614.9,480.5,616,480.4z"/>
					<path class="st4" d="M614.2,480.7l1-0.2C615,480.6,614.8,480.6,614.2,480.7z"/>
					<path class="st4" d="M617.3,480.3l-2.1,0.3c0.3,0,0.3,0,0.9-0.1C616,480.5,616.4,480.4,617.3,480.3z"/>
					<path class="st4" d="M618.4,480.1c1.1-0.1,2.4-0.3,0.5,0.1c1.8-0.2,2.6-0.4,2.4-0.4C621.3,479.7,620.2,479.9,618.4,480.1z"/>
					<path class="st4" d="M627.8,479.1l1.4-0.2c0.4-0.1,0.8-0.2,1.2-0.3C629.9,478.8,627.7,479.1,627.8,479.1z"/>
					<path class="st4" d="M604.2,481.7c-0.1,0.1,0.6,0,0.8,0.1l1.4-0.2C605.7,481.6,604.3,481.7,604.2,481.7z"/>
					<path class="st4" d="M605,481.8l-2.1,0.3C604.8,481.9,605.1,481.8,605,481.8z"/>
					<polygon class="st4" points="613.9,481 617.3,480.4 613.3,481.1 					"/>
					<polygon class="st4" points="596.2,482.4 597.4,482.2 595.3,482.6 					"/>
					<path class="st4" d="M590.9,482.9c0.9-0.1-1.2,0-0.3-0.1c-1.4,0.1-2.7,0.3-3.8,0.4C588,483,589.3,482.9,590.9,482.9z"/>
					<path class="st4" d="M585,483.3c0.6-0.1,1.2-0.1,1.9-0.2C586.2,483.2,585.6,483.2,585,483.3z"/>
					<path class="st4" d="M599.4,482.4c-0.2,0-0.5,0-1.7,0l0.8,0C598.8,482.4,599.1,482.4,599.4,482.4z"/>
					<path class="st4" d="M598.6,482.4L598.6,482.4c-0.9,0.1-1.5,0.1-1.8,0.1C597,482.6,597.5,482.5,598.6,482.4z"/>
					<path class="st4" d="M599.6,482.3c-0.1,0-0.1,0-0.2,0C599.4,482.4,599.5,482.4,599.6,482.3z"/>
					<path class="st4" d="M608.4,481.6c-1.2,0.2-3.8,0.5-1.3,0.4C608,481.7,606.6,481.9,608.4,481.6z"/>
					<path class="st4" d="M600.6,482.4c0.7-0.1,1.5-0.1,2.2-0.2c0,0-0.5,0,0.2-0.1C602.2,482.2,601.4,482.3,600.6,482.4z"/>
					<polygon class="st4" points="599.5,482.5 600.6,482.4 599.8,482.5 					"/>
					<path class="st4" d="M588.8,483.2c-1,0.1-2,0.2-3.2,0.3c1.3-0.1,2.6-0.2,3.8-0.2C589.6,483.2,590.2,483.1,588.8,483.2z"/>
					<path class="st4" d="M593.6,482.9c-0.1,0-0.2,0-0.2,0C593.5,482.9,593.6,482.9,593.6,482.9z"/>
					<path class="st4" d="M573.9,484c0.1,0,0.1,0,0.2,0l0,0L573.9,484z"/>
					<path class="st4" d="M589.7,483.2c1,0,1.5-0.1,2.1-0.2c-0.7,0.1-1.5,0.1-2.3,0.2C589.4,483.2,589.4,483.2,589.7,483.2z"/>
					<path class="st4" d="M581.7,483.5c0.5,0,1.1,0,1.7,0C582.9,483.5,581.9,483.5,581.7,483.5z"/>
					<path class="st4" d="M593,482.9c0,0,0.1,0,0.1,0C592.8,482.9,592.9,482.9,593,482.9z"/>
					<path class="st4" d="M593,482.9c-0.5,0.1-0.9,0.1-1.3,0.2c0.6-0.1,1.1-0.1,1.6-0.1C593.2,482.9,593.1,482.9,593,482.9z"/>
					<path class="st4" d="M570.4,484.8c0.2-0.1,2.7-0.3,4.9-0.2c2.1-0.2,0.7-0.4-1.2-0.5c-0.1,0-0.1,0.1-2.3,0.2c0.8,0,4.9,0,3,0.1
						c-2.9,0.1-2.4,0-3.8,0c1.2,0.1-3.7,0.3-3.1,0.5l2.6-0.1C570.6,484.7,569.6,484.8,570.4,484.8z"/>
					<path class="st4" d="M578.3,483.8l0.9-0.1c-1,0-1.8,0-3.1,0c-1.5,0.1-1.8,0.2-1.9,0.2l4.5-0.2L578.3,483.8z"/>
					<path class="st4" d="M583.3,483.6c-0.7,0.1-2.9,0.3-1.5,0.3c2.7-0.1,1.9-0.2,3.5-0.3C580.9,483.9,586.4,483.5,583.3,483.6
						c0.9-0.1,1.6-0.1,2.4-0.2c-0.8,0-1.5,0.1-2.2,0.1c0,0,0.1,0,0.1,0l0,0l0,0c0.2,0,0.2,0,0,0c0,0-0.1,0-0.1,0
						C583.4,483.6,583.3,483.6,583.3,483.6c-1.2,0-0.2,0,0.2-0.1c0,0,0,0,0.1,0c0,0,0,0,0,0l-4.3,0.3
						C580.1,483.8,581.2,483.7,583.3,483.6z"/>
					<path class="st4" d="M604.9,482.4c-0.1,0-0.1,0-0.1,0C604.5,482.4,604.4,482.5,604.9,482.4z"/>
					<path class="st4" d="M603.1,482.5c0.3,0,0.6-0.1,1.6-0.2c0.9-0.1,0,0.1,0.1,0.1c0.6-0.1,2.1-0.3,0.2-0.2l-0.3,0
						c-1.7,0.2-4,0.2-3.7,0.2C601.5,482.5,601.9,482.6,603.1,482.5z"/>
					<path class="st4" d="M593.1,483.2l-3.6,0.3l1.8,0l-0.1,0C593.3,483.3,592.8,483.3,593.1,483.2z"/>
					<polygon class="st4" points="573.5,484 573.9,483.8 571.9,484.1 					"/>
					<polygon class="st4" points="568.8,484.1 569,484 567.8,484.1 					"/>
					<path class="st4" d="M306.1,494.7l-1.1,0.1C305.5,494.8,305.9,494.7,306.1,494.7z"/>
					<path class="st4" d="M313.7,494.3l0.2-0.1C313.6,494.3,313.4,494.3,313.7,494.3z"/>
					<path class="st4" d="M454.2,481.9c-1.5-0.1-3.3-0.3-3.1-0.2l0.5,0.1C452.7,481.9,453.5,481.9,454.2,481.9z"/>
					<path class="st4" d="M375.7,485.1c0.1,0,0.3,0,0.5,0c0.4-0.1,0.7-0.2,1-0.2C376.8,485,376.3,485.1,375.7,485.1z"/>
					<path class="st4" d="M374.7,485.7l-2,0.2C373.1,485.8,373.8,485.8,374.7,485.7z"/>
					<path class="st4" d="M264.3,494.9l-1.2,0.1C265,495.1,264.2,495,264.3,494.9z"/>
					<path class="st4" d="M521,484c-1.3-0.1-2.4-0.1-3.3-0.2C519.3,484,520.6,484.1,521,484z"/>
					<path class="st4" d="M309,493.4c-0.6,0.1-0.9,0.1-0.9,0.1C308.8,493.5,309.2,493.4,309,493.4z"/>
					<path class="st4" d="M513.9,483.8c0.2,0,0.5,0,0.7,0c1,0,1.9,0,3.1,0.1C516.5,483.8,515.2,483.7,513.9,483.8z"/>
					<path class="st4" d="M112.9,490.7c-0.1,0-0.2,0-0.3,0C112.6,490.7,112.7,490.7,112.9,490.7z"/>
					<path class="st4" d="M69.3,485.5c0.4,0.1,1.1,0.3,1.7,0.5C70.7,485.9,70.2,485.7,69.3,485.5z"/>
					<path class="st4" d="M550,484.4C551,484.3,550.2,484.3,550,484.4L550,484.4z"/>
					<path class="st4" d="M554.9,484.8c-0.2,0-0.4,0-0.4,0.1C554.5,484.8,554.7,484.8,554.9,484.8z"/>
					<path class="st4" d="M504,484.1C504,484.1,504,484.1,504,484.1C504.2,484.2,504.2,484.2,504,484.1z"/>
					<path class="st4" d="M551.5,484.4c-0.4,0-0.8,0-1.3,0C550.5,484.4,550.9,484.4,551.5,484.4z"/>
					<path class="st4" d="M551.3,484.3c0.3,0,0.6,0,0.9,0C552.3,484.3,552.2,484.3,551.3,484.3z"/>
					<path class="st4" d="M548.7,484.4c0.6,0,1.1,0,1.6,0c-0.2,0-0.3,0-0.2,0C549.8,484.4,549.3,484.4,548.7,484.4z"/>
					<path class="st4" d="M194,492.8c-0.1,0-0.1,0-0.2,0C192.8,492.8,193.3,492.8,194,492.8z"/>
					<path class="st4" d="M428.4,482.9c0,0,0.1,0,0.1,0C428.5,482.9,428.4,482.9,428.4,482.9L428.4,482.9z"/>
					<path class="st4" d="M424.8,483c1.5-0.2,2.4-0.1,3.5-0.1l-1.2-0.3L424.8,483z"/>
					<path class="st4" d="M287.8,495.2l2.5,0.1c-3,0.2-5.2,0.1-2.9,0.3c0.4-0.3,9.7-0.1,10.1-0.5l1.7,0c-0.5,0-0.5,0-1,0
						c3.2,0.1,2.4-0.3,6.5-0.4c1.4,0,2.4,0,1.5,0l3.2-0.2c0.9,0,0.7,0-0.2,0.1c1.6-0.1,3.3-0.2,4.9-0.3l0,0c0.7-0.1,2.3-0.3,3-0.4
						c1.2-0.1-0.6,0.1-0.3,0.1l2.7-0.3c1.1,0-1.1,0.3-3,0.4c2.6,0.1,2.2-0.2,7.7-0.6l-2.5,0.3c1.7,0,3.6-0.3,6.5-0.5
						c-0.7,0-5.8,0.4-2.9,0c0.8-0.1,1.9-0.2,3.5-0.5c0,0.1,1.6-0.1,3.5-0.4l-0.1,0.2c2.1-0.4,1.9-0.4,3.1-0.7
						c2.3-0.3,2.8-0.3,3.4-0.3c3.7-0.6-2.6,0.2,1.8-0.5c3.1-0.4,5.2-0.9,8.9-1.6c2.2-0.3-0.4,0.2,0.4,0.1l1.9-0.4
						c0.5-0.1,0.3,0,0.2,0c1.6-0.3,0.1-0.2,2.6-0.6c0.7-0.3,5.2-0.6,8.3-1.2c0.8-0.1-0.4,0.1-0.1,0.2c4.3-0.7,3.7-0.6,7.2-1.3l3-0.2
						c-2.2,0.1,0.6-0.3,3-0.7c-0.8,0-1.5,0.1-1.9,0.1l3.9-0.5c0.5,0,0.1,0.1-0.6,0.2c0.3,0,0.5-0.1,0.7-0.1c1.4-0.1,0.7,0.1-0.3,0.3
						c-0.5,0-1,0-1.4,0.1c-1,0.2-1.9,0.4-1.7,0.5c0.3,0,0.7-0.1,1.3-0.2c-0.3,0.1-0.4,0.1-0.3,0.1c0.1,0,0.5-0.1,1.2-0.2l0.9,0.1
						l0.2-0.1c1.7-0.2,3.5-0.2,5.2-0.4c1.8-0.3,3.6-0.5,5.6-0.8c2-0.2,4.3-0.5,7.2-0.7c-1.5,0.2-0.3,0.2-0.4,0.4
						c-1.6,0-4.6,0.4-7.6,0.6c1.6-0.1,1.3,0,0.8,0.1l5.4-0.5c-0.1,0.1,1.2,0,2.6,0c-1.1-0.2,4.1-0.4,6.3-0.6
						c0.1,0.1-0.4,0.2-3.1,0.3c3,0,3.8-0.5,6.8-0.5c-0.7,0-1,0-1.3,0.1c1.5-0.2,5.3-0.2,4.4-0.1l-0.7,0c2.2-0.1,5.5-0.2,8.4-0.3
						c2.9-0.1,5.3-0.2,5.6-0.3c0,0-0.6,0.3-0.8,0.3c2.6-0.3,5.2-0.5,7.8-0.8c-0.7,0.2,2,0.6-1.7,0.7c1,0,2.3,0,4.5,0
						c-0.7,0-1.8-0.3-0.8-0.3c2.7,0.2,1.9,0.1,5.2,0.3c-1.1,0,0.1-0.3,1.8-0.3c-0.3,0,0.1,0.3-0.5,0.3l4.2-0.3
						c-1.1,0-0.2,0.2,0.8,0.3c-0.4-0.1,3.6,0.1,4.8,0.1l-1.8-0.1c4.8,0.1,4.7-0.3,9.4-0.2c-0.6,0-1.4,0.3,1,0.4
						c1.1-0.1,4.9-0.6,9.1-0.6l0.8,0.1l3.2,0c-2,0.2-7.6,0.4-10.7,0.6c1.8,0.1,0.5,0.1,3.2,0.2c0.9,0.1-1.5,0.1-2.2,0.1l6.2,0.2
						c-0.3-0.2,4.7,0,4.5-0.2l-6.7,0c-0.3-0.2,3.9-0.4,8.3-0.2c1.1,0.1-0.8,0.3-0.8,0.3c0.6,0,4.2,0,4.6,0.1l-1.9,0
						c2.4,0.1,4-0.1,6.9,0.2c1,0,3,0.3,3.2,0.2c-1.6-0.2-2-0.9-0.8-1c0.4,0,5.3,0.4,6.5,0.5c1.7,0.2-2.5,0.3-1.1,0.4
						c0.1,0,1-0.1,1.4-0.1c1.1,0.1-0.4,0.1,1.9,0.2c0.4-0.2,4.7,0.2,1.1-0.1c2.3,0,2.4,0.1,5.1,0.2c-0.8-0.1,2.4-0.3,4.7-0.3
						c-0.1,0,0.4,0.1,0.6,0.1c4.6,0.2,7.1,0.3,11.5,0.5c0.4,0.1,2.5,0.2,1.6,0.2c0.6,0,1.2,0,2.5,0c2.6,0.2-3-0.1-1,0.2
						c0.2-0.1,3.5-0.1,5.4-0.1c-0.6-0.2-4.4-0.1-6.3-0.1c0-0.2,3.3-0.3,7.8-0.3c3.6,0,1.6,0.2,2.2,0.2c6.8,0.2,5.8-0.3,11.4,0
						c2.2,0.2,0.1,0.3,0.6,0.4c-2.9,0-4.5-0.2-6.5-0.2l2.4,0.1c-0.9,0-2.9,0-4,0c1.9,0.2,11.4,0.2,16.6,0.3c0.9,0,2.5-0.1,1.8-0.2
						l-1.6,0c-1.5-0.1,3.1-0.2,1-0.2c2.2-0.1,4.7-0.2,7.8-0.2l0.6,0.1c-0.1,0-2-0.1-2.9,0c1.3-0.1,4.8,0.1,6.2-0.1l-2.2-0.1
						c2.2-0.1,5-0.3,7.7-0.3c-1.3-0.1-0.6,0-2.6-0.1c1.7,0.2-7.1,0.1-4.3,0.3c-2-0.2-3.5,0-6.1-0.2c0.1,0.1,0.9,0.1-1.4,0.1
						c-0.1,0-0.4,0-0.5,0c-0.1,0-0.1,0-0.2,0c0,0,0.1,0,0.1,0c-0.1,0-0.1,0,0,0c0.6,0,1,0,1.2,0.1c-1.1,0.1-4.8,0.1-6.1,0.2
						c-1.4,0,0.6-0.1-0.2-0.1l-1.9,0.1c-0.2-0.1-3.7-0.2-0.4-0.3l-2.9,0c-1.7-0.1-4.1-0.1-5.5-0.1c-1.4,0-3.5,0.1-2.3,0l-4.6,0l0,0
						c-4.5-0.1-9.3,0-14.4-0.4c-1.5,0-3.1,0-5.6-0.1l-0.5-0.1c-1.9,0-5.9-0.3-6.7-0.2c-2.1-0.3-9.5-0.4-12.9-0.6l-0.1,0.1
						c-2.4-0.1-4.6-0.1-7.6-0.2l0.2,0.1c-2.5,0-6.5-0.3-10.5-0.4c0.3,0,1.3,0,2,0.1c-4.8-0.4-10.1-0.1-14.4-0.4
						c-1.1,0-1.9,0-2.6-0.1c0.1,0,0.2,0,0.3,0c-0.1,0-0.3,0-0.4,0c-0.5,0-1-0.1-1.5-0.1c0.5,0,0.9,0.1,1.3,0.1c-0.8,0-2.1,0-3.3,0
						l-0.5-0.1c-0.1,0-0.2,0-0.3,0c-1.2-0.1-1,0-0.3,0.1c-0.6,0-1.2,0-1.6,0c-1-0.2-3.2,0-4.6-0.2c-0.8,0.1-6.2,0-6.9,0.2
						c0,0-0.4,0,0.3,0c-1.4,0-2.8-0.1-4,0l-0.6-0.2l-3,0.2c-1.8-0.1-2.6-0.1-0.8-0.3c-4.4,0.2-3.6,0.1-7.3,0.3l0.2-0.1
						c-1.3,0-3.5,0.2-4.3,0.1c-3-0.2-14.8,0.4-22.4,0.7c1.5,0.2-3.6,0.1-3.9,0.4c-0.5,0-1.5,0-0.3-0.1c-3.9,0.3-5.9,0.3-8.5,0.8
						c-0.5,0,0.8-0.2,0.4-0.2c-0.3,0-1.2,0.2-1.6,0.2c-0.4,0,0.6-0.1,1.2-0.2c-4,0.4-4.4,0.6-4.6,0.8c-2,0.1-3,0.3-4.5,0.6
						c-0.7,0-1.9,0.1,0.6-0.2c-0.7,0.1-2.8,0.3-4.8,0.5c-2,0.3-3.8,0.5-3.8,0.6c-0.4,0-1.9,0.3-2.3,0.3c-3.1,0.4-3.4,0.4-6.4,0.9
						l0.8-0.1c-1.2,0.4-2.5,0.4-5,0.9l0.1,0c-5.6,0.8-2.4,0.5-8,1.3l0.3,0.1c-0.5,0.3-4.9,0.7-8.1,1.3l1.2-0.1
						c-1.7,0.4-5,0.4-6.7,0.7c-0.4,0,0.6-0.1,1.1-0.2c-4.6,0.5-0.6,0.2-4,0.8c-0.6,0,0.8-0.3-1.5,0c-1.2,0.1-6.7,1.1-9.9,1.2
						c0.7,0,1.4,0-0.2,0.2c-2.5,0.2-6.7,0.3-8.9,0.6c-0.3,0-0.4,0-0.4,0c-1.9,0.2-6.1,0.4-7.3,0.5c-1.8-0.3-11.8,0.4-11.7,0l-5.8,0
						l0.2,0c-3.7,0-5,0-6.4,0.1c-0.9,0-0.2-0.1-0.2-0.1c-5.4-0.2-6-0.1-10.6-0.1l-0.5-0.1c-1.2,0-7.9-0.4-13.2-0.4
						c0.1,0,0.2,0,0.6,0c-6,0-14.4-0.7-16.6-0.3l-4,0c5.1,0.2-0.8,0.2,1.3,0.3c-2,0-5.2-0.3-2.7-0.2l0.4,0c0.9-0.2-6.4-0.2-6.2-0.4
						c-10.1-0.3-19.9-0.6-29.4-0.9l1.1,0.2l-3.3-0.1c-0.9-0.1-1.2-0.2,1.2-0.1c-0.6-0.1-1.6-0.1-2.4-0.1c-0.8,0-1.5,0.1-1.6,0.1
						c-4.6-0.2,1.8-0.2,0.4-0.2l-1.9,0l0.4,0c-1.6,0-1.7,0.1-4.5,0c-1.8-0.1-0.9-0.1-1.6-0.2c0,0-0.1,0-0.2,0c-0.2,0-0.4,0-0.9,0
						l-4.2-0.1l1.7,0.2c-1.8,0-3.9-0.1-2,0.1c-2.8-0.3-15.5-0.5-17.2-0.7c-2.6,0-5.1,0-8.3-0.2c0.8,0.1,1.2,0.2-1.5,0.1
						c1-0.3-5-0.3-7.2-0.6c2,0.2-7.7-0.2-4.7,0.1c-2.3-0.1-0.1-0.1-1.9-0.3c-5.4,0-11.9-0.4-18.6-0.6c-0.1,0,1,0.1-0.4,0.2l-3.5-0.3
						c-1.3,0-1.2,0.2-3.6,0c0.3,0,0.8,0.1,0,0.1c-6.5-0.3-13.2-0.4-19.9-0.8c-6.7-0.4-13.4-1.1-19.8-2.9c1.7,0.5,0.6,0.2-0.8-0.1
						c0.9,0.2,0,0.1,0.1,0.2l-2.6-0.8c-0.9-0.3-1.7-0.6-2.6-0.9c-0.5-0.1-1.9-0.6-3.2-1.1c-1.3-0.6-2.6-1.1-2.9-1.2
						c0.5,0.3,1.1,0.5,1.6,0.7c-1.1-0.4-0.4,0,0.5,0.6c0.9,0.5,2.1,1.1,1.9,1.1c2.5,0.8,6.5,2.5,10.8,3.1c0.9,0.2-0.8-0.1-0.3,0.1
						c1.1,0.1,2.4,0.4,4.8,0.8l-0.3,0c3.4,0.5,5.8,0.8,8.4,1c2.6,0.3,5.2,0.5,9.1,0.7l-0.6-0.1c1.7,0.1,2,0.1,2.8,0.2
						c1.9-0.1-4.7-0.2-2.9-0.3c2.2,0.4,11.7,0.4,13.2,0.7c2.5,0.1-0.7-0.2,1.8-0.1l0.7,0.1l0.6-0.1c1.7,0.1,2.5,0.2,2.6,0.2
						c-0.4,0-1.2,0-1.6,0c2.2,0.2,6.1,0.2,6.8,0.2l-2.4-0.1c7,0.1,15.4,0.5,22.2,0.5l-0.5-0.1c5.1,0,4.1,0.2,9.7,0.3l-0.2,0
						c1.1,0,2.6,0,4.2,0c-1.4,0,2.7,0.2,0.8,0.2c5.6,0.1,2.8,0,6.4-0.1l0.8,0.1c1.3,0,1.4-0.1,4.2,0c-2.3,0,1.8,0.2-0.8,0.2
						c5.9,0.4,8.8,0.1,11.5,0.4c2.7-0.2-5.1-0.3-3.6-0.3c-1.3-0.1,2.2-0.1,4.1,0c1.9,0.1,3.2,0.4,7.9,0.5c-0.5,0-0.5,0-1,0
						c1.8,0.1,3.5,0,5.7,0.2c1.2-0.1,2.8,0.1,3.2-0.1l-4.4-0.1c2.5,0,4.8-0.2,8.8,0.1c-0.3,0-1.5,0.1-2.4,0.1c1.2,0.1,2.3,0,3.5,0.1
						c-0.4,0.2-5.3-0.1-7.9,0c1.3,0.1,5,0,3.7,0.2c1.9-0.2,4.7,0.2,7.9,0l-0.2,0.1c0.5,0,1.6,0,2.5,0l-1.7,0.1
						c2.6-0.1,5,0.2,7.5,0.2c-5.2-0.1-1.2-0.2-3.4-0.3c6.4,0,3.7,0.4,10.9,0.5c-1,0-3.7-0.2-2.1-0.2c1.4,0.1,3.2,0.2,4,0.2
						c4.8,0.1-0.7-0.1,1.3-0.2c1.6,0.2,2.3,0,4.4,0l0,0.1c5.4,0.2,1.4-0.2,6.3,0l-2.1,0.1l2.6,0l-0.5,0.1c2.8,0,3.6,0,6.4,0.1
						c-0.6-0.1,0.4-0.2,2.8-0.2c1.6,0.1-0.9,0.1,2.5,0.2c-0.8,0.1-1.6,0.1-3.1,0c-0.2,0-0.8,0.1-0.9,0.1c1.8,0.1,4.4,0.1,5.7,0.2
						c-0.5,0-1,0-1.3-0.1l5,0c0.8,0.1,0.2,0.1-0.5,0.1c1,0,1.7,0,3.2,0c-0.4,0.1-0.3,0.2-2.4,0.2l4.7,0c0.3,0.1,2.4,0.2,1.8,0.2
						c2.6,0.1,6.4,0,9.9,0.1c0.2,0,0.5,0,1.3,0c3.3,0.1,6.1,0.3,10,0.2l2.2,0.2c3,0-3-0.3,2.1-0.3c3.6,0,1.3,0.2,2.6,0.2
						c1.8-0.1,4.9-0.2,8.1-0.1C289.6,495.2,288.8,495.1,287.8,495.2z M325.1,493.2c-0.7,0.1-2.1,0.3-2.7,0.3
						C323.2,493.3,323.9,493.3,325.1,493.2z M381.2,484.8c-0.5,0.1-1.4,0.1-2.3,0.2C379.6,484.9,380.4,484.9,381.2,484.8z
						 M539.2,484.4C539.2,484.4,539.1,484.4,539.2,484.4C537.5,484.3,538.1,484.4,539.2,484.4z M542.5,484.5c0.3,0,0.3,0,0.2,0
						c-0.2,0-1,0-1.8,0C541.1,484.5,541.5,484.5,542.5,484.5z M183.5,491.7l0.7,0C182.7,491.7,183.1,491.7,183.5,491.7z"/>
					<path class="st4" d="M374.8,485.6c-0.2,0-0.3,0-0.3,0C374.2,485.7,374.2,485.7,374.8,485.6z"/>
					<path class="st4" d="M264.5,494.9l-0.1,0c-0.1,0-0.1,0-0.1,0L264.5,494.9z"/>
					<path class="st4" d="M490.6,484.2c-0.7,0-1.1-0.1-1.3-0.1C489.3,484.1,489.6,484.1,490.6,484.2z"/>
					<path class="st4" d="M560.3,484.2l-2.1,0.1c1,0,1.4,0,1.9,0C560,484.3,559.6,484.2,560.3,484.2z"/>
					<path class="st4" d="M578.9,484.4c0.3,0,0.7,0,1-0.1l-0.1-0.1C578.5,484.3,577.5,484.4,578.9,484.4z"/>
					<path class="st4" d="M562.3,484.6c0.2,0.1,1.5,0,3,0c-0.1,0-0.2,0-0.3,0C565.5,484.4,563.9,484.5,562.3,484.6z"/>
					<path class="st4" d="M565.6,484.6c0.5,0,0.9,0,1.4,0C567.2,484.5,566.5,484.5,565.6,484.6z"/>
					<path class="st4" d="M546.8,484.4c0.7,0,0.4-0.1,0.9-0.1C548.4,484.2,542.9,484.5,546.8,484.4z"/>
					<polygon class="st4" points="563.5,484.9 563,484.8 562.1,484.9 					"/>
					<path class="st4" d="M551.6,484.9l2.4,0c0,0,0.3,0,0.6,0C553.2,484.9,551.6,484.9,551.6,484.9z"/>
					<path class="st4" d="M554.7,484.9c0.8,0,1.5,0,1.9,0C556.2,484.9,555.3,484.9,554.7,484.9z"/>
					<polygon class="st4" points="560.2,485 559.5,485 557.8,485 					"/>
					<path class="st4" d="M525.8,484.6l-2.6,0c-0.3,0,0.4,0.1,1.4,0.1C525.2,484.7,526.2,484.7,525.8,484.6z"/>
					<path class="st4" d="M533.7,485.1c-0.7,0-0.8-0.1-1.2-0.1l-0.1,0.2L533.7,485.1z"/>
					<path class="st4" d="M526.1,485c-0.3,0-3.8,0-0.5,0.1C525.9,485.1,528.5,485.1,526.1,485z"/>
					<polygon class="st4" points="486.6,483.6 487.3,483.6 487.2,483.3 					"/>
					<path class="st4" d="M451.8,483.2c3.1,0.1,0.7-0.1,3.5,0c0.7,0-2.3-0.1-1.5-0.2C451.9,483.1,450.9,483,451.8,483.2z"/>
					<path class="st4" d="M453.8,483c0.3,0,0.6,0,1,0C454.2,483,453.9,483,453.8,483z"/>
					<polygon class="st4" points="62.5,483 60.7,482.2 61.8,482.8 					"/>
					<path class="st4" d="M58.9,481.6l-0.3-0.4l-1.1-0.4C57.9,481,58.6,481.4,58.9,481.6z"/>
					<path class="st4" d="M330.7,492.8l0.1-0.1c-0.3,0-0.8,0.1-1.7,0.2L330.7,492.8z"/>
					<polygon class="st4" points="303.6,495 304,495 303.2,494.9 					"/>
					<path class="st4" d="M280.8,495.4c0.9,0,2,0,3,0C281.7,495.5,280.6,495.3,280.8,495.4z"/>
				</g>
			</g>
		</g>
	</g>
</g>
<g>
	<g>
		<g>
			<g>
				<g>
					<path class="st4" d="M51.9,21.4c-0.9,0-0.6,0.1-0.7,0.1C52.7,21.5,51.9,21.4,51.9,21.4z"/>
					<polygon class="st4" points="66.8,21.8 66.5,21.8 68.7,21.8 					"/>
					<path class="st4" d="M80.7,22.4c-1.3-0.2-5-0.2-7.5-0.4L72.8,22l-1.1,0.1C74.6,22.2,78.6,22.3,80.7,22.4z"/>
					<path class="st4" d="M88.1,23.2c-0.5-0.1,1.6,0-1.7-0.1c0.2,0,0.2,0,0.3,0C86.9,23.1,87.4,23.1,88.1,23.2z"/>
					<path class="st4" d="M86.6,23.1C85.2,23,87.6,23.2,86.6,23.1L86.6,23.1z"/>
					<path class="st4" d="M93.4,23.4l-1.9,0c0.4,0.1,2.1,0.1,1.5,0.1C94.9,23.5,94.5,23.5,93.4,23.4z"/>
					<path class="st4" d="M95.2,23.3l-1,0C94.4,23.3,94.7,23.3,95.2,23.3z"/>
					<path class="st4" d="M92.1,23.2l2.1,0c-0.3,0-0.3-0.1-1,0C93.4,23.2,93,23.3,92.1,23.2z"/>
					<path class="st4" d="M90.9,23.2c-1.1-0.1-2.5-0.2-0.5-0.1C86.7,22.9,87.2,23,90.9,23.2z"/>
					<path class="st4" d="M81.4,22.3l-1.4-0.1l-1.3,0C79.3,22.2,81.5,22.3,81.4,22.3z"/>
					<path class="st4" d="M105.4,24c0.1,0-0.6-0.1-0.8-0.2l-1.4,0C103.9,23.8,105.3,23.9,105.4,24z"/>
					<path class="st4" d="M104.6,23.8l2.1,0C104.9,23.7,104.5,23.8,104.6,23.8z"/>
					<polygon class="st4" points="95.6,23.1 92.1,23.1 96.3,23.2 					"/>
					<polygon class="st4" points="113.6,24.4 112.3,24.4 114.5,24.3 					"/>
					<path class="st4" d="M119,24.6c-0.9,0,1.2,0.2,0.3,0.2c1.5,0.1,2.7,0,3.9,0C121.9,24.8,120.6,24.7,119,24.6z"/>
					<path class="st4" d="M125,24.8c-0.6,0-1.2,0-1.9,0C123.7,24.8,124.3,24.8,125,24.8z"/>
					<path class="st4" d="M110.4,24c0.2,0,0.5,0.1,1.7,0.2l-0.8-0.1C111,24,110.7,24,110.4,24z"/>
					<path class="st4" d="M111.2,24L111.2,24c0.9,0,1.6,0.1,1.8,0.1C112.8,24.1,112.3,24.1,111.2,24z"/>
					<path class="st4" d="M110.2,24c0.1,0,0.1,0,0.2,0C110.3,24,110.3,24,110.2,24z"/>
					<path class="st4" d="M101.2,23.5c1.3,0,3.9,0,1.3-0.2C101.6,23.3,103.1,23.5,101.2,23.5z"/>
					<path class="st4" d="M109.1,23.8l-2.3-0.1c0,0,0.4,0.1-0.2,0.1L109.1,23.8z"/>
					<polygon class="st4" points="110.3,23.8 109.1,23.8 110,23.9 					"/>
					<path class="st4" d="M121.1,24.5c1,0,2,0,3.3,0.1c-1.3-0.1-2.6-0.1-3.9-0.2C120.3,24.4,119.7,24.5,121.1,24.5z"/>
					<path class="st4" d="M116.3,24.3c0.1,0,0.2,0,0.2,0C116.4,24.3,116.3,24.3,116.3,24.3z"/>
					<path class="st4" d="M136.2,25.1c-0.1,0-0.1,0-0.2,0l0,0L136.2,25.1z"/>
					<path class="st4" d="M120.2,24.4c-1-0.1-1.6-0.1-2.1-0.1c0.7,0,1.5,0.1,2.3,0.1C120.5,24.4,120.6,24.4,120.2,24.4z"/>
					<path class="st4" d="M128.3,24.9c-0.5,0-1.1-0.1-1.7-0.1C127.1,24.8,128.1,24.9,128.3,24.9z"/>
					<path class="st4" d="M116.8,24.3c0,0-0.1,0-0.1,0C117,24.4,117,24.4,116.8,24.3z"/>
					<path class="st4" d="M116.8,24.3c0.5,0,0.9,0,1.3,0c-0.6,0-1.1,0-1.6,0C116.6,24.3,116.7,24.3,116.8,24.3z"/>
					<path class="st4" d="M139.9,24.6c-0.2,0.1-2.7,0.1-4.9-0.1c-2.2,0-0.8,0.4,1.1,0.6c0.1,0,0.1-0.1,2.3,0c-0.8-0.1-5-0.3-3.1-0.4
						c3,0.1,2.4,0.1,3.9,0.3c-1.2-0.2,3.8,0,3.1-0.2l-2.6-0.1C139.7,24.7,140.6,24.7,139.9,24.6z"/>
					<path class="st4" d="M131.8,24.9l-0.9,0c1,0.1,1.8,0.1,3.2,0.3c1.5,0,1.9,0,2,0l-4.5-0.2L131.8,24.9z"/>
					<path class="st4" d="M126.7,24.7c0.7-0.1,2.9,0,1.6-0.2c-2.7-0.1-1.9,0-3.5,0C129.2,24.7,123.6,24.5,126.7,24.7
						c-0.9,0-1.7-0.1-2.4-0.1c0.8,0.1,1.5,0.1,2.3,0.1c0,0-0.1,0-0.1,0l0,0l0,0c-0.2,0-0.2,0,0,0c0,0,0.1,0,0.1,0
						C126.6,24.7,126.7,24.7,126.7,24.7c1.3,0.1,0.2,0-0.2,0c0,0,0,0-0.1,0c0,0,0,0,0,0l4.4,0.1C130,24.8,128.8,24.8,126.7,24.7z"/>
					<path class="st4" d="M104.9,23.2c0.1,0,0.1,0,0.1,0C105.3,23.2,105.4,23.2,104.9,23.2z"/>
					<path class="st4" d="M106.7,23.3c-0.3,0-0.6,0-1.6,0c-0.9-0.1,0-0.1,0-0.1c-0.6,0-2.2,0-0.2,0.1l0.3,0c1.8,0.1,4,0.4,3.7,0.4
						C108.3,23.6,107.8,23.5,106.7,23.3z"/>
					<path class="st4" d="M116.8,24l3.6,0.1l-1.8-0.2l0.1,0.1C116.6,23.9,117.1,24,116.8,24z"/>
					<polygon class="st4" points="136.7,25.2 136.2,25.3 138.3,25.2 					"/>
					<polygon class="st4" points="141.4,25.4 141.2,25.5 142.5,25.5 					"/>
					<path class="st4" d="M408.1,31.2l1.1,0C408.7,31.2,408.4,31.2,408.1,31.2z"/>
					<path class="st4" d="M400.4,31.3l-0.2,0.1C400.6,31.4,400.7,31.3,400.4,31.3z"/>
					<path class="st4" d="M257.4,30.3c1.6,0.1,3.3,0.4,3.1,0.2l-0.5-0.1C259,30.4,258.1,30.4,257.4,30.3z"/>
					<path class="st4" d="M337,31.7c-0.1,0-0.3,0-0.5,0c-0.4,0-0.7,0.1-1.1,0.1C335.9,31.8,336.4,31.8,337,31.7z"/>
					<path class="st4" d="M338.1,31.3l2.1,0.1C339.7,31.4,339,31.4,338.1,31.3z"/>
					<path class="st4" d="M450.4,30l1.2-0.2C449.7,29.9,450.5,29.9,450.4,30z"/>
					<path class="st4" d="M189.8,27.5c1.3,0.1,2.4,0.2,3.3,0.2C191.5,27.6,190.2,27.5,189.8,27.5z"/>
					<path class="st4" d="M405.1,32.4c0.7,0,0.9-0.1,0.9-0.1C405.4,32.4,405,32.4,405.1,32.4z"/>
					<path class="st4" d="M197,27.9c-0.2,0-0.5,0-0.7-0.1c-1,0-2-0.1-3.2-0.1C194.3,27.8,195.7,27.9,197,27.9z"/>
					<path class="st4" d="M603,16.5c0.1,0,0.2,0,0.3,0C603.4,16.5,603.2,16.5,603,16.5z"/>
					<path class="st4" d="M647.3,18.7c-0.4-0.1-1.1-0.3-1.8-0.4C645.9,18.3,646.4,18.4,647.3,18.7z"/>
					<path class="st4" d="M160.4,26.3C159.4,26.3,160.2,26.3,160.4,26.3L160.4,26.3z"/>
					<path class="st4" d="M155.5,25.7c0.2,0,0.4,0,0.4,0C155.9,25.7,155.7,25.7,155.5,25.7z"/>
					<path class="st4" d="M207,27.7C207,27.7,207.1,27.7,207,27.7C206.8,27.6,206.9,27.6,207,27.7z"/>
					<path class="st4" d="M158.9,26.2c0.4,0,0.8,0.1,1.3,0.1C160,26.3,159.6,26.2,158.9,26.2z"/>
					<path class="st4" d="M159.1,26.3c-0.3,0-0.6,0-0.9,0C158.1,26.2,158.2,26.2,159.1,26.3z"/>
					<path class="st4" d="M161.8,26.4c-0.6,0-1.1-0.1-1.6-0.1c0.2,0,0.3,0,0.2,0C160.7,26.3,161.1,26.3,161.8,26.4z"/>
					<path class="st4" d="M521.4,26.1c0.1,0,0.1,0,0.2,0C522.7,26,522.2,26,521.4,26.1z"/>
					<path class="st4" d="M283.6,30c0,0-0.1,0-0.1,0C283.5,30,283.6,30,283.6,30L283.6,30z"/>
					<path class="st4" d="M287.2,30.1c-1.5,0.1-2.4,0-3.6,0l1.2,0.3L287.2,30.1z"/>
					<path class="st4" d="M426.7,30.8l-2.5,0c3-0.2,5.3-0.2,2.9-0.3c-0.3,0.3-9.8,0.2-10.2,0.6l-1.7,0c0.5,0,0.6,0,1,0
						c-3.2-0.1-2.4,0.3-6.6,0.3c-1.5,0-2.5,0-1.5-0.1l-3.2,0.1c-0.9,0-0.7-0.1,0.2-0.1l-4.9,0.1l0,0c-0.7,0-2.3,0.1-3.1,0.2
						c-1.3,0,0.6,0,0.3-0.1l-2.7,0.1c-1.1-0.1,1.2-0.2,3-0.2c-2.6-0.3-2.3,0.1-7.8-0.1l2.6-0.1c-1.7-0.2-3.7-0.1-6.6-0.2
						c0.7,0.1,5.9,0.3,2.9,0.4c-0.8,0-1.9,0-3.5,0.1c0-0.1-1.6-0.1-3.5-0.1l0.1-0.2c-2.1,0.1-2,0.1-3.2,0.2c-2.4,0-2.9-0.1-3.4-0.3
						c-3.8,0,2.6,0.2-1.9,0.2c-3.1-0.1-5.4,0-9.1,0.1c-2.2-0.1,0.4-0.1-0.4-0.1l-2,0.1c-0.5,0-0.3,0-0.2-0.1c-1.6,0-0.1,0.2-2.7,0.2
						c-0.7,0.2-5.3-0.3-8.5-0.1c-0.8-0.1,0.4-0.1,0.1-0.2c-4.4,0.1-3.8,0-7.4,0.2l-3.1-0.1c2.3,0.2-0.6,0.3-3.2,0.3
						c0.8,0.1,1.5,0.1,1.9,0.2l-4,0c-0.5,0-0.1-0.1,0.6-0.1c-0.3,0-0.5,0-0.7,0c-1.4-0.1-0.7-0.2,0.3-0.2c0.5,0,1,0.1,1.5,0.1
						c1-0.1,1.9-0.2,1.7-0.3c-0.3,0-0.8,0-1.3,0c0.3,0,0.4,0,0.3-0.1c-0.1,0-0.6,0-1.2,0l-0.9-0.2l-0.2,0.1l-5.3-0.2
						c-3.8,0.1-7.1,0.3-13,0.3c1.5-0.1,0.3-0.2,0.4-0.4c1.6,0.2,4.6,0,7.7,0.1c-1.6-0.1-1.3-0.1-0.8-0.1l-5.5,0
						c0.1-0.1-1.2-0.1-2.6-0.2c1.1,0.3-4.1,0.1-6.4,0.1c-0.1-0.1,0.4-0.2,3.2-0.1c-3-0.3-3.9,0.2-6.9,0c0.7,0,1,0,1.3,0
						c-1.6,0-5.4-0.1-4.5-0.2l0.7,0c-4.5-0.1-13.6-0.4-14.2-0.2c0,0,0.6-0.2,0.9-0.3l-8,0.5c0.7-0.2-2-0.7,1.7-0.7
						c-1.1-0.1-2.4-0.1-4.6-0.1c0.7,0,1.8,0.3,0.8,0.3c-2.7-0.3-1.9-0.2-5.2-0.4c1.1,0.1-0.1,0.3-1.8,0.3c0.3,0-0.1-0.3,0.5-0.3
						l-4.3,0.1c1.1,0,0.2-0.2-0.8-0.3c0.4,0.1-3.7-0.1-4.8-0.1l1.8,0.1c-4.8-0.2-4.8,0.2-9.5,0c0.6,0,1.4-0.3-1-0.4
						c-1.1,0.1-5,0.5-9.2,0.5l-0.8-0.1l-3.2,0c2-0.1,7.7-0.4,10.8-0.4c-1.8-0.1-0.5-0.1-3.2-0.2c-0.9-0.1,1.5-0.1,2.3,0l-6.3-0.3
						c0.3,0.2-4.8,0-4.6,0.1l6.8,0.1c0.3,0.2-4,0.3-8.4,0.1c-1.1-0.1,0.9-0.3,0.8-0.3c-0.6,0-4.2-0.1-4.6-0.1l1.9,0
						c-2.5-0.2-4.1,0.1-7-0.2c-1-0.1-3.1-0.3-3.2-0.2c1.7,0.3,2,0.9,0.8,1c-0.4,0-5.4-0.4-6.6-0.5c-1.7-0.2,2.6-0.3,1.1-0.4
						c-0.1,0-1,0.1-1.4,0.1c-1.1-0.1,0.5-0.1-1.9-0.2c-0.4,0.2-4.8-0.2-1.1,0.1c-2.3,0-2.4-0.1-5.1-0.2c0.9,0.1-2.4,0.3-4.7,0.2
						c0.1,0-0.4-0.1-0.6-0.2c-4.7-0.2-7.2-0.4-11.6-0.6c-0.4-0.1-2.5-0.2-1.6-0.2c-0.6,0-1.2,0-2.6,0c-2.6-0.3,3,0.1,1-0.2
						c-0.2,0.1-3.5,0-5.4,0c0.6,0.2,4.4,0.2,6.4,0.2c0,0.2-3.4,0.3-8,0.2c-3.6-0.1-1.6-0.2-2.2-0.2c-6.8-0.3-5.8,0.1-11.5-0.3
						c-2.2-0.2-0.1-0.3-0.6-0.4c3,0.1,4.5,0.3,6.6,0.4l-2.5-0.2c0.9,0,2.9,0.1,4,0.1c-1.9-0.2-11.6-0.5-16.8-0.9
						c-0.9,0-2.6,0-1.8,0.1l1.7,0.1c1.5,0.2-3.1,0-1,0.2c-2.2,0-4.8,0-7.9-0.2l-0.6-0.2c0.1,0,2.1,0.2,2.9,0.2
						c-1.3,0-4.8-0.4-6.3-0.3l2.2,0.2c-2.3,0-5,0-7.8-0.2c1.3,0.2,0.6,0,2.6,0.3c-1.7-0.3,7.1,0.3,4.4,0c2,0.3,3.5,0.2,6.2,0.5
						c-0.1-0.1-0.9-0.1,1.4,0c0.1,0,0.4,0,0.5,0c0.1,0,0.1,0,0.2,0c0,0-0.1,0-0.1,0c0.1,0,0.1,0,0,0c-0.6,0-1-0.1-1.2-0.1
						c1.2-0.1,4.9,0.1,6.2,0.1c1.4,0.1-0.6,0,0.2,0.1l1.9,0c0.2,0.1,3.7,0.4,0.4,0.3l3,0.1c1.7,0.1,4.1,0.3,5.6,0.3
						c1.4,0.1,3.5,0,2.3,0.1l4.6,0.1l0,0c4.6,0.2,9.4,0.2,14.6,0.7c1.5,0,3.1,0.1,5.7,0.2l0.5,0.1c2,0.1,5.9,0.4,6.8,0.3
						c2.1,0.4,9.6,0.5,13,0.7l0.1-0.1c2.4,0.1,4.7,0.2,7.7,0.2l-0.2-0.1c2.6,0,6.6,0.3,10.6,0.5c-0.3,0-1.3,0-2-0.1
						c4.8,0.5,10.2,0.2,14.6,0.5c1.1,0,1.9,0,2.6,0.1c-0.1,0-0.2,0-0.3,0c0.1,0,0.3,0,0.4,0c0.5,0,1,0.1,1.5,0.1
						c-0.5,0-0.9-0.1-1.3-0.1c0.8,0,2.1,0,3.4,0.1l0.5,0.1c0.1,0,0.2,0,0.3,0c1.2,0.1,1,0,0.3-0.1c0.6,0,1.2,0,1.7,0
						c1,0.2,3.3,0.1,4.6,0.3c0.8-0.1,6.3,0.1,7-0.1c0,0,0.4,0.1-0.3,0c1.4,0.1,2.8,0.1,4,0.1l0.6,0.2l3.1-0.1
						c1.8,0.1,2.6,0.2,0.8,0.3c4.4,0,3.6,0,7.4,0l-0.2,0.1c1.4,0,3.5,0,4.3,0.1c3,0.3,14.9,0.4,22.7,0.8c-1.5-0.3,3.6,0.2,3.9,0
						c0.5,0.1,1.5,0.1,0.3,0.2c4,0,5.9,0.2,8.7,0.1c0.5,0.1-0.8,0.1-0.4,0.1c0.3,0,1.3,0,1.7,0c0.4,0-0.6,0-1.2,0.1
						c4,0,4.5-0.2,4.8-0.4c2,0.1,3.1,0.1,4.6,0c0.7,0.1,1.9,0.2-0.6,0.1c1.4,0,8.6,0.2,8.8,0.1c0.4,0,2,0,2.3,0
						c3.2,0.1,3.5,0.1,6.6,0.1l-0.9,0c1.2-0.2,2.6,0,5.1,0l-0.1,0c5.8,0.2,2.5-0.1,8.2,0.1l-0.3-0.1c0.5-0.3,5,0.2,8.3,0.1l-1.2-0.1
						c1.8-0.1,5,0.4,6.8,0.4c0.4,0-0.6,0-1.2,0.1c4.7,0.1,0.6-0.2,4.1-0.2c0.7,0.1-0.8,0.2,1.5,0.2c1.2,0.1,6.9-0.3,10.1-0.2
						c-0.7-0.1-1.4-0.1,0.2-0.2c2.5,0,6.8,0.2,9.1,0c0.3,0,0.4,0,0.5,0c1.9-0.1,6.2-0.2,7.4-0.3c1.8,0.4,11.9-0.4,11.9-0.1l5.9-0.1
						l-0.2,0c3.8-0.1,5.1-0.2,6.4-0.4c0.9,0,0.2,0.1,0.2,0.1c5.5-0.1,6.1-0.1,10.7-0.5l0.5,0.1c1.2-0.1,8,0,13.4-0.5
						c-0.1,0-0.2,0-0.6,0.1c6.1-0.4,14.6-0.4,16.8-0.9l4-0.3c-5.2,0.2,0.8-0.2-1.4-0.2c2-0.1,5.3-0.1,2.8,0l-0.4,0
						c-0.9,0.3,6.4-0.3,6.3-0.2c10.2-0.7,20.2-1.1,29.7-2l-1.1-0.1l3.3-0.3c0.9,0,1.2,0-1.2,0.2c0.6,0,1.6-0.1,2.5-0.2
						c0.8-0.1,1.5-0.2,1.6-0.3c4.7-0.3-1.8,0.4-0.4,0.3l1.9-0.2l-0.4,0c1.6-0.2,1.7-0.3,4.6-0.5c1.8-0.1,0.9,0,1.6,0
						c0,0,0.1,0,0.2,0c0.2,0,0.4,0,0.9-0.1l4.2-0.3l-1.7,0c1.9-0.2,3.9-0.4,2-0.3c2.9-0.1,15.6-1.6,17.4-1.7c2.6-0.4,5.2-0.7,8.3-1
						c-0.8,0-1.3,0,1.5-0.3c-1,0.5,5-0.5,7.3-0.5c-2,0.1,7.8-1,4.6-0.9c2.3-0.3,0.2,0.1,1.9,0c5.4-0.8,12-1.4,18.7-2.4
						c0.1-0.1-1,0,0.4-0.2L601,18c1.3-0.2,1.2-0.4,3.6-0.5c-0.3,0-0.9,0,0-0.1c6.6-0.7,13.3-1.3,20.1-1.3c6.8-0.1,13.6,0.5,20.1,2.2
						c-1.7-0.5-0.6-0.2,0.8,0.1c-0.9-0.2,0-0.1-0.1-0.2c1.8,0.4,3.6,1.1,5.3,1.7c1,0.1,5.6,2.1,6.2,2.3c-0.5-0.2-1.1-0.5-1.6-0.7
						c1.1,0.4,0.4-0.1-0.6-0.5c-1-0.5-2.2-1.1-2-1.1c-1.3-0.4-2.9-0.9-4.8-1.6c-0.9-0.3-2-0.5-3-0.8c-1-0.3-2.1-0.5-3.2-0.6
						c-0.9-0.2,0.8,0.1,0.3-0.1c-0.6,0-1.2-0.1-1.9-0.2c-0.4-0.1-0.8-0.1-1.3-0.2c-0.5-0.1-1-0.1-1.6-0.2l0.3,0
						c-1.7-0.2-3.2-0.4-4.6-0.5c-1.4-0.1-2.6-0.2-3.9-0.2c-2.6-0.1-5.3-0.2-9.2,0l0.6,0.1c-1.7,0.1-2,0-2.8,0.1
						c-1.9,0.3,4.7-0.2,3,0.1c-1.1-0.1-4.1,0-6.9,0.3c-2.9,0.2-5.6,0.5-6.4,0.4c-2.6,0.3,0.8,0.1-1.8,0.3l-0.7,0l-0.6,0.2
						c-1.7,0.2-2.5,0.2-2.6,0.1c0.4,0,1.2-0.2,1.6-0.2c-2.2,0.2-6.1,0.8-6.9,0.9l2.5-0.3c-3.5,0.5-7.4,1.1-11.2,1.5
						c-3.8,0.5-7.7,1-11,1.5l0.5,0c-5.1,0.8-4.1,0.5-9.8,1.2l0.2,0c-1.1,0.2-2.6,0.4-4.2,0.6c1.4-0.2-2.7,0.2-0.8-0.1
						c-5.6,0.7-2.8,0.4-6.4,1l-0.9,0c-1.3,0.2-1.4,0.3-4.2,0.6c2.3-0.3-1.8,0.1,0.8-0.3c-6,0.4-8.8,1.1-11.6,1.1
						c-2.7,0.5,5.2-0.4,3.6-0.2c1.3-0.1-2.2,0.4-4.1,0.6c-1.9,0.2-3.3,0-8,0.4c0.5,0,0.5-0.1,1-0.1c-1.8,0.1-3.5,0.4-5.7,0.5
						c-1.2,0.3-2.9,0.2-3.2,0.5l4.4-0.4c-2.5,0.3-4.8,0.7-8.9,0.9c0.3-0.1,1.5-0.2,2.4-0.3c-1.2,0-2.3,0.2-3.6,0.3
						c0.3-0.2,5.3-0.5,8-0.9c-1.3,0-5,0.6-3.7,0.2c-1.9,0.4-4.7,0.4-7.9,0.9l0.2-0.1c-0.5,0.1-1.6,0.2-2.5,0.3l1.7-0.3
						c-2.6,0.4-5.1,0.3-7.6,0.5c5.3-0.4,1.2,0.1,3.4,0c-6.5,0.6-3.8-0.1-11,0.5c1-0.1,3.7-0.2,2.2,0c-1.4,0.1-3.2,0.1-4.1,0.1
						c-4.8,0.3,0.7,0.1-1.3,0.3c-1.7,0-2.4,0.2-4.5,0.4l0-0.1c-5.5,0.3-1.4,0.3-6.4,0.6l2.1-0.3l-2.6,0.2l0.5-0.2
						c-2.8,0.2-3.7,0.3-6.4,0.4c0.6,0.1-0.3,0.2-2.8,0.4c-1.7,0,0.9-0.2-2.5,0c0.8-0.1,1.6-0.3,3.1-0.2c0.2,0,0.8-0.1,0.9-0.2
						c-1.8,0-4.5,0.2-5.8,0.3c0.5,0,1.1,0,1.4,0l-5,0.4c-0.8,0-0.2-0.1,0.5-0.1c-1,0.1-1.7,0.2-3.2,0.2c0.4-0.1,0.3-0.2,2.4-0.4
						l-4.8,0.3c-0.3,0-2.5,0-1.8-0.1c-2.6,0.1-6.5,0.4-10,0.5c-0.2,0-0.5,0.1-1.3,0.1c-3.3,0.1-6.2,0.1-10.1,0.3l-2.2-0.1
						c-3.1,0.1,3,0.1-2.1,0.4c-3.6,0.2-1.4-0.1-2.6-0.1c-1.8,0.1-4.9,0.4-8.2,0.3C424.8,30.9,425.6,30.9,426.7,30.8z M388.9,31.5
						c0.7,0,2.2-0.1,2.7-0.1C390.8,31.6,390.1,31.5,388.9,31.5z M331.4,31.4c0.5,0,1.4,0,2.3,0.1C333.1,31.5,332.3,31.5,331.4,31.4z
						 M171.4,26.7C171.4,26.7,171.4,26.7,171.4,26.7C173.1,26.8,172.5,26.8,171.4,26.7z M168,26.5c-0.3,0-0.3,0-0.2,0
						c0.2,0,1,0,1.9,0.1C169.4,26.6,169,26.5,168,26.5z M532.2,26l-0.7,0C533,25.9,532.6,25.9,532.2,26z"/>
					<path class="st4" d="M337.9,31.4c0.2,0,0.3,0,0.3,0.1C338.5,31.4,338.5,31.4,337.9,31.4z"/>
					<path class="st4" d="M450.2,30l0.1,0c0.1,0,0.1,0,0.1,0L450.2,30z"/>
					<path class="st4" d="M220.6,27.8c0.7,0,1.1,0.1,1.3,0.1C221.9,27.9,221.6,27.8,220.6,27.8z"/>
					<path class="st4" d="M150,25.9l2.2,0.1c-1.1,0-1.4-0.1-2-0.1C150.3,25.9,150.7,25.9,150,25.9z"/>
					<path class="st4" d="M131.2,24.3c-0.3,0-0.7,0-1,0l0.1,0.1C131.7,24.4,132.6,24.4,131.2,24.3z"/>
					<path class="st4" d="M148,25.4c-0.2-0.1-1.5-0.1-3.1-0.2c0.1,0,0.2,0,0.3,0C144.8,25.4,146.4,25.4,148,25.4z"/>
					<path class="st4" d="M144.6,25.2c-0.5,0-0.9,0-1.4-0.1C143,25.2,143.8,25.2,144.6,25.2z"/>
					<path class="st4" d="M163.7,26.4c-0.7-0.1-0.5,0.1-0.9,0C162,26.5,167.6,26.5,163.7,26.4z"/>
					<polygon class="st4" points="146.8,25 147.4,25.2 148.2,25.1 					"/>
					<path class="st4" d="M158.8,25.7l-2.4-0.1c0,0-0.3,0-0.7,0C157.2,25.6,158.9,25.7,158.8,25.7z"/>
					<path class="st4" d="M155.7,25.5c-0.8,0-1.5-0.1-2-0.1C154.2,25.5,155.1,25.5,155.7,25.5z"/>
					<polygon class="st4" points="150.1,25.1 150.9,25.2 152.6,25.3 					"/>
					<path class="st4" d="M184.9,26.8l2.7,0.1c0.3,0-0.4-0.1-1.4-0.1C185.5,26.8,184.5,26.8,184.9,26.8z"/>
					<path class="st4" d="M176.9,26.1c0.7,0.1,0.8,0.1,1.2,0.1l0.1-0.2L176.9,26.1z"/>
					<path class="st4" d="M184.7,26.4c0.3,0,3.9,0,0.5-0.1C184.9,26.4,182.2,26.3,184.7,26.4z"/>
					<polygon class="st4" points="224.6,28.4 224,28.3 224.1,28.6 					"/>
					<path class="st4" d="M259.9,29.1c-3.1-0.2-0.8,0.1-3.6,0c-0.7,0,2.3,0.1,1.6,0.2C259.8,29.2,260.8,29.3,259.9,29.1z"/>
					<path class="st4" d="M257.9,29.2c-0.3,0-0.6,0-1,0C257.4,29.2,257.7,29.2,257.9,29.2z"/>
					<path class="st4" d="M654.3,21.1c0.6,0.3,1.2,0.5,1.8,0.8c-0.4-0.2-0.7-0.4-1.1-0.6L654.3,21.1z"/>
					<path class="st4" d="M657.9,22.5l0.4,0.3l1.2,0.4C658.9,23.1,658.1,22.7,657.9,22.5z"/>
					<path class="st4" d="M383.3,31.2l-0.2,0c0.3,0,0.8,0,1.7,0L383.3,31.2z"/>
					<polygon class="st4" points="410.7,31 410.2,31 411.1,31.2 					"/>
					<path class="st4" d="M433.7,30.3c-0.9,0-2,0.1-3,0.1C432.8,30.4,434,30.5,433.7,30.3z"/>
				</g>
			</g>
		</g>
	</g>
</g>
<g>
	<g>
		<g>
			<g>
				<g>
					<path class="st4" d="M29.3,463.2c0.2,0.6,0.2,0.3,0.3,0.4C29.2,462.7,29.3,463.2,29.3,463.2z"/>
					<path class="st4" d="M25.8,453.3l0.1,0.2c-0.2-0.5-0.3-1-0.4-1.5C25.6,452.4,25.7,452.9,25.8,453.3z"/>
					<path class="st4" d="M24.6,443.6c-0.1,0.9,0.3,3.6,0.4,5.3l0,0.3l0.2,0.8c-0.1-1.1-0.3-2.3-0.5-3.4
						C24.7,445.4,24.6,444.3,24.6,443.6z"/>
					<path class="st4" d="M24.9,438.3c-0.1,0.3-0.1-1.1,0,1.2c0-0.1,0-0.2,0-0.2C24.9,439.1,24.9,438.8,24.9,438.3z"/>
					<path class="st4" d="M24.9,439.3C24.9,440.3,24.9,438.6,24.9,439.3L24.9,439.3z"/>
					<path class="st4" d="M24.9,434.5c0,0.5,0,0.9,0,1.4c0-0.3,0.1-1.5,0.1-1C25.1,433.4,25.1,433.7,24.9,434.5z"/>
					<path class="st4" d="M24.9,433.2l0,0.7C24.9,433.8,24.9,433.6,24.9,433.2z"/>
					<path class="st4" d="M24.9,435.4l0-1.5c0,0.2-0.1,0.2,0,0.7C24.8,434.5,24.8,434.8,24.9,435.4z"/>
					<path class="st4" d="M24.8,436.3c-0.1,0.8-0.1,1.8-0.1,0.4C24.7,439.3,24.8,438.9,24.8,436.3z"/>
					<path class="st4" d="M24.4,443.1l0,1l0.1,0.9C24.4,444.5,24.5,443,24.4,443.1z"/>
					<path class="st4" d="M25.6,426c0-0.1-0.1,0.5-0.2,0.5l0,1C25.4,427,25.5,426.1,25.6,426z"/>
					<path class="st4" d="M25.4,426.5l0.1-1.5C25.3,426.4,25.4,426.6,25.4,426.5z"/>
					<polygon class="st4" points="24.7,432.9 24.7,435.4 24.7,432.5 					"/>
					<polygon class="st4" points="26.2,420.2 26.2,421.1 26.2,419.5 					"/>
					<path class="st4" d="M26.5,416.4c0,0.6,0.2-0.9,0.2-0.2c0.1-1,0.1-1.9,0.1-2.8C26.7,414.3,26.7,415.2,26.5,416.4z"/>
					<path class="st4" d="M26.8,412.1c0,0.4,0,0.9,0,1.4C26.8,413,26.8,412.5,26.8,412.1z"/>
					<path class="st4" d="M25.7,422.4c0-0.1,0.1-0.3,0.2-1.2l-0.2,0.6C25.8,422,25.8,422.2,25.7,422.4z"/>
					<path class="st4" d="M25.8,421.9L25.8,421.9c0.1-0.7,0.1-1.1,0.1-1.3C25.9,420.7,25.9,421.1,25.8,421.9z"/>
					<path class="st4" d="M25.7,422.6c0-0.1,0-0.1,0-0.1C25.7,422.5,25.7,422.5,25.7,422.6z"/>
					<path class="st4" d="M25,429c0-0.9,0.1-2.8-0.1-1C24.9,428.7,25.1,427.6,25,429z"/>
					<path class="st4" d="M25.5,423.3l-0.2,1.6c0,0,0.1-0.3,0.1,0.1L25.5,423.3z"/>
					<polygon class="st4" points="25.6,422.5 25.5,423.3 25.6,422.7 					"/>
					<path class="st4" d="M26.5,414.8c0-0.7,0.1-1.5,0.1-2.3c-0.1,0.9-0.2,1.9-0.3,2.8C26.4,415.4,26.4,415.8,26.5,414.8z"/>
					<path class="st4" d="M26.2,418.3c0,0,0-0.1,0-0.2C26.1,418.2,26.1,418.3,26.2,418.3z"/>
					<path class="st4" d="M27.3,404c0,0,0,0.1,0,0.1l0,0L27.3,404z"/>
					<path class="st4" d="M26.3,415.4c-0.1,0.7-0.1,1.1-0.1,1.5c0-0.5,0.1-1.1,0.1-1.7C26.3,415.2,26.3,415.2,26.3,415.4z"/>
					<path class="st4" d="M27,409.7c0,0.4-0.1,0.8-0.2,1.2C26.9,410.6,27,409.8,27,409.7z"/>
					<path class="st4" d="M26.2,417.9c0,0,0,0.1,0,0.1C26.3,417.8,26.2,417.8,26.2,417.9z"/>
					<path class="st4" d="M26.2,417.9c0-0.4,0-0.6,0-0.9c0,0.4-0.1,0.8-0.1,1.2C26.2,418,26.2,417.9,26.2,417.9z"/>
					<path class="st4" d="M26.9,401.4c0.1,0.1,0,2-0.2,3.5c-0.1,1.6,0.4,0.6,0.6-0.8c0-0.1-0.1-0.1,0-1.7c-0.1,0.6-0.4,3.5-0.4,2.2
						c0.1-2.1,0.2-1.7,0.3-2.7c-0.2,0.9,0-2.7-0.2-2.2l-0.1,1.9C26.9,401.6,26.9,400.9,26.9,401.4z"/>
					<path class="st4" d="M27,407.2l0,0.7c0.1-0.7,0.2-1.3,0.3-2.3c0-1.1,0-1.3,0-1.4l-0.3,3.2L27,407.2z"/>
					<path class="st4" d="M26.7,410.8c-0.1-0.5,0-2.1-0.2-1.1c-0.2,1.9,0,1.4-0.1,2.5C26.7,409.1,26.5,413.1,26.7,410.8
						c-0.1,0.6-0.1,1.2-0.1,1.7c0.1-0.6,0.1-1.1,0.2-1.6c0,0,0,0,0,0.1l0,0l0,0c0,0.1,0,0.2,0,0c0,0,0,0,0-0.1
						C26.8,410.9,26.8,410.9,26.7,410.8c0.1-0.9,0-0.1,0,0.1c0,0,0,0,0,0l0,0l0.2-3.1C26.9,408.5,26.9,409.4,26.7,410.8z"/>
					<path class="st4" d="M24.8,426.3C24.8,426.2,24.8,426.2,24.8,426.3C24.8,426,24.8,426,24.8,426.3z"/>
					<path class="st4" d="M25,425.1c0,0.2,0,0.4-0.1,1.2c-0.1,0.6-0.1,0-0.1,0c0,0.4,0,1.6,0.1,0.2l0-0.2c0.2-1.2,0.4-2.8,0.4-2.6
						C25.2,423.9,25.1,424.2,25,425.1z"/>
					<path class="st4" d="M25.9,417.9l0.2-2.6l-0.2,1.3l0.1-0.1C25.8,418,25.9,417.7,25.9,417.9z"/>
					<polygon class="st4" points="27.4,403.8 27.5,404.1 27.5,402.6 					"/>
					<polygon class="st4" points="27.7,400.4 27.8,400.5 27.8,399.6 					"/>
					<path class="st4" d="M26.5,210.2l0-0.8C26.4,209.8,26.5,210,26.5,210.2z"/>
					<path class="st4" d="M26.6,215.7l0.1,0.1C26.6,215.6,26.6,215.4,26.6,215.7z"/>
					<path class="st4" d="M30.2,317.6c0.1-1.1,0.2-2.4,0.1-2.2l-0.1,0.3C30.2,316.5,30.2,317.1,30.2,317.6z"/>
					<path class="st4" d="M28.5,260.9c0,0.1,0,0.2,0,0.3c0,0.3,0.1,0.5,0.1,0.7C28.6,261.6,28.5,261.3,28.5,260.9z"/>
					<path class="st4" d="M28,260.1l0-1.5C28.1,259,28,259.4,28,260.1z"/>
					<path class="st4" d="M25.7,180l-0.1-0.9C25.6,180.5,25.6,179.9,25.7,180z"/>
					<path class="st4" d="M29.5,365.9c0.1-1,0.1-1.7,0.1-2.4C29.6,364.6,29.4,365.6,29.5,365.9z"/>
					<path class="st4" d="M27.7,212.3c0-0.5-0.1-0.7-0.1-0.7C27.6,212.1,27.7,212.4,27.7,212.3z"/>
					<path class="st4" d="M29.7,360.7c0,0.2,0,0.3,0,0.5c0,0.7,0,1.4,0,2.3C29.7,362.6,29.8,361.7,29.7,360.7z"/>
					<path class="st4" d="M28.5,70.7c0-0.1,0-0.2,0-0.2C28.5,70.4,28.5,70.5,28.5,70.7z"/>
					<path class="st4" d="M35.7,39.8c-0.1,0.3-0.3,0.8-0.5,1.2C35.3,40.8,35.5,40.4,35.7,39.8z"/>
					<path class="st4" d="M28.6,386.8C28.6,387.6,28.6,387,28.6,386.8L28.6,386.8z"/>
					<path class="st4" d="M28,390.3c0-0.2,0-0.3,0-0.3C28,390.1,28,390.2,28,390.3z"/>
					<path class="st4" d="M29.3,353.6C29.3,353.6,29.3,353.5,29.3,353.6C29.3,353.7,29.3,353.7,29.3,353.6z"/>
					<path class="st4" d="M28.5,387.9c0-0.3,0.1-0.6,0.1-0.9C28.6,387.2,28.5,387.4,28.5,387.9z"/>
					<path class="st4" d="M28.6,387.8c0,0.2,0,0.4,0,0.6C28.5,388.5,28.5,388.4,28.6,387.8z"/>
					<path class="st4" d="M28.7,385.9c0,0.4-0.1,0.8-0.1,1.2c0-0.1,0-0.2,0-0.2C28.6,386.6,28.6,386.3,28.7,385.9z"/>
					<path class="st4" d="M26,129.2c0,0,0-0.1,0-0.2C26,128.4,26,128.7,26,129.2z"/>
					<path class="st4" d="M28.9,299C28.9,299,28.9,299,28.9,299C28.9,299,28.9,299,28.9,299L28.9,299z"/>
					<path class="st4" d="M28.8,296.4c0.2,1.1,0.1,1.7,0.1,2.5l0.3-0.9L28.8,296.4z"/>
					<path class="st4" d="M26.1,196.9l-0.1,1.8c-0.2-2.2-0.2-3.8-0.3-2.1c0.3,0.2,0.2,7,0.5,7.3l0,1.2c0-0.3,0-0.4,0-0.7
						c-0.1,2.3,0.3,1.7,0.3,4.7c0,1,0,1.8-0.1,1.1l0.1,2.3c0,0.7-0.1,0.5-0.1-0.2l0.1,3.5l0,0c0.1,0.5,0.2,1.6,0.2,2.2
						c0,0.9,0-0.4-0.1-0.2l0.1,2c-0.1,0.8-0.2-0.8-0.2-2.2c-0.3,1.8,0.1,1.6,0,5.6l-0.1-1.8c-0.2,1.2,0,2.6-0.1,4.7
						c0-0.5,0.2-4.2,0.3-2.1c0,0.6,0,1.4,0.1,2.5c-0.1,0-0.1,1.1,0,2.5l-0.2-0.1c0.1,1.5,0.2,1.4,0.3,2.3c0,1.7-0.1,2-0.2,2.4
						c0.1,2.7,0.1-1.9,0.3,1.3c0,2.2,0.1,3.8,0.3,6.5c0,1.6-0.1-0.3-0.1,0.3l0.2,1.4c0,0.3,0,0.2-0.1,0.2c0.1,1.2,0.2,0.1,0.3,1.9
						c0.2,0.5-0.1,3.8,0.1,6.1c0,0.6-0.1-0.3-0.2-0.1c0.2,3.1,0.2,2.7,0.4,5.2l0,2.2c0.1-1.6,0.3,0.4,0.4,2.2c0-0.6,0.1-1.1,0.1-1.4
						l0.2,2.9c0,0.3-0.1,0.1-0.2-0.4c0,0.2,0,0.4,0.1,0.5c0,1-0.1,0.5-0.2-0.2c0-0.3,0-0.7,0.1-1c-0.1-0.7-0.2-1.4-0.3-1.2
						c0,0.2,0.1,0.5,0.1,0.9c0-0.2-0.1-0.3-0.1-0.2c0,0.1,0,0.4,0.1,0.9l-0.2,0.7l0.1,0.2l0,3.8c0.2,2.7,0.6,5,0.7,9.3
						c-0.2-1.1-0.2-0.2-0.4-0.3c0.1-1.2-0.1-3.3-0.2-5.5c0,1.2-0.1,0.9-0.1,0.6l0.2,3.9c-0.1-0.1-0.1,0.8-0.1,1.9
						c0.2-0.8,0.2,2.9,0.4,4.5c-0.1,0.1-0.2-0.3-0.2-2.2c-0.1,2.2,0.4,2.8,0.3,4.9c0-0.5,0-0.7-0.1-0.9c0.1,1.1,0.1,3.8,0,3.2l0-0.5
						c0.1,3.2,0.2,9.7,0.4,10.1c0,0-0.3-0.4-0.3-0.6l0.8,5.7c-0.2-0.5-0.6,1.4-0.7-1.2c0,0.8,0,1.7,0.1,3.3c0-0.5,0.2-1.3,0.3-0.6
						c-0.2,1.9-0.1,1.3-0.2,3.7c0-0.8,0.3,0.1,0.3,1.3c0-0.2-0.3,0.1-0.3-0.3l0.3,3c-0.1-0.8-0.2-0.1-0.3,0.5c0.1-0.3,0,2.6,0,3.4
						l0.1-1.3c0,3.4,0.4,3.4,0.4,6.8c-0.1-0.4-0.4-1-0.4,0.7c0.1,0.8,0.7,3.5,0.8,6.5l-0.1,0.6l0.1,2.3c-0.2-1.4-0.7-5.5-0.9-7.7
						c-0.1,1.3-0.1,0.4-0.1,2.3c-0.1,0.7-0.1-1-0.1-1.6l0,4.5c0.2-0.2,0.2,3.4,0.3,3.3L29,325c0.2-0.2,0.5,2.8,0.5,6
						c-0.1,0.8-0.3-0.6-0.4-0.5c0.1,0.4,0.1,3,0,3.3l-0.1-1.3c-0.1,1.8,0.2,2.9,0,5c0,0.7-0.2,2.2-0.1,2.3c0.2-1.2,0.8-1.4,0.9-0.6
						c0,0.3-0.2,3.8-0.3,4.7c-0.2,1.2-0.3-1.8-0.5-0.8c0,0,0.1,0.7,0.1,1c0,0.8-0.1-0.3-0.1,1.4c0.2,0.3-0.1,3.4,0.1,0.8
						c0,1.6-0.1,1.7-0.1,3.7c0.1-0.6,0.4,1.7,0.4,3.4c0-0.1-0.1,0.3-0.1,0.4c-0.1,3.3-0.2,5.2-0.4,8.3c-0.1,0.3-0.1,1.8-0.2,1.1
						c0,0.5,0.1,0.9,0,1.8c-0.2,1.9,0-2.2-0.2-0.7c0.1,0.1,0.1,2.5,0.1,3.9c0.2-0.4,0.1-3.2,0.1-4.5c0.2,0,0.4,2.4,0.3,5.7
						c0,2.6-0.2,1.1-0.2,1.6c-0.2,4.9,0.2,4.2-0.2,8.2c-0.2,1.6-0.3,0.1-0.4,0.4c0.1-2.1,0.3-3.2,0.3-4.7l-0.2,1.8
						c0-0.7,0.1-2.1,0.1-2.9c-0.2,1.3-0.5,8.2-0.8,12c0,0.7,0,1.8,0.1,1.3l0-1.2c0.2-1.1,0,2.2,0.2,0.7c0,1.6,0,3.4-0.2,5.6
						l-0.2,0.4c0,0,0.2-1.5,0.2-2.1c0,0.9-0.4,3.4-0.3,4.5l0.2-1.6c0,0.8,0,1.7,0,2.7c0,0.9-0.1,1.9-0.2,2.9c0.2-0.9,0-0.5,0.3-1.9
						c-0.3,1.2,0.3-5.1,0-3.1c0.3-1.4,0.2-2.5,0.5-4.4c-0.1,0.1-0.1,0.7,0-1c0-0.1,0-0.3,0-0.4c0-0.1,0-0.1,0-0.1c0,0,0,0.1,0,0.1
						c0-0.1,0-0.1,0,0c0,0.4-0.1,0.7-0.1,0.8c-0.1-0.8,0.1-3.5,0.1-4.4c0.1-1,0,0.4,0.1-0.1l0-1.3c0.1-0.1,0.3-2.6,0.3-0.3l0.1-2.1
						c0.1-1.2,0.3-2.9,0.3-4c0.1-1,0-2.5,0.1-1.6c0-1.1,0-2.2,0.1-3.3l0,0c0.1-3.3,0-6.7,0.4-10.4c0-1.1,0-2.2,0.1-4.1l0.1-0.4
						c0-1.4,0.3-4.2,0.1-4.8c0.3-1.5,0.1-6.8,0.2-9.3l-0.1-0.1c0-1.7,0-3.3,0-5.5l-0.1,0.1c-0.1-1.8,0.2-4.7,0.1-7.6
						c0,0.2,0,0.9,0,1.4c0.2-3.4-0.2-7.3,0-10.4c0-0.8,0-1.3,0-1.9c0,0.1,0,0.1,0,0.2c0-0.1,0-0.2,0-0.3c0-0.3,0-0.7,0.1-1.1
						c0,0.3,0,0.6-0.1,0.9c0-0.6,0-1.5-0.1-2.4l0.1-0.4c0-0.1,0-0.1,0-0.2c0-0.9-0.1-0.7-0.1-0.2c0-0.4,0-0.9-0.1-1.2
						c0.2-0.7-0.1-2.3,0.1-3.3c-0.1-0.6-0.1-4.5-0.4-5c0,0,0-0.3,0,0.2c0-1,0-2-0.1-2.9l0.1-0.4l-0.2-2.2c0.1-1.3,0.1-1.9,0.3-0.6
						c-0.2-3.2-0.1-2.6-0.3-5.3l0.1,0.1c0-1-0.2-2.5-0.1-3.1c0.2-2.2-0.2-10.7-0.2-16.2c-0.3,1.1,0.1-2.6-0.2-2.8
						c0.1-0.3,0.1-1.1,0.2-0.2c-0.1-2.8,0-4.2-0.2-6.2c0.1-0.3,0.1,0.6,0.1,0.3c0-0.2-0.1-0.9-0.1-1.2c0-0.3,0.1,0.4,0.1,0.9
						c-0.1-2.9-0.3-3.2-0.5-3.4c0.1-1.5,0-2.2-0.1-3.2c0.1-0.5,0.1-1.4,0.2,0.4c0-1-0.1-6.2-0.2-6.3c0-0.3,0-1.4-0.1-1.7
						c-0.1-2.3-0.1-2.5-0.1-4.7l0,0.6c-0.2-0.9-0.1-1.8-0.2-3.6l0,0.1c0-4.1-0.1-1.8-0.1-5.8l-0.1,0.2c-0.3-0.4,0-3.6-0.1-5.9l0,0.9
						c-0.1-1.3,0.2-3.6,0.2-4.9c0-0.3,0,0.4,0.1,0.8c0.1-3.4-0.2-0.4-0.3-2.9c0.1-0.5,0.2,0.6,0.2-1.1c0-0.8-0.4-4.9-0.3-7.2
						c-0.1,0.5-0.1,1-0.2-0.1c-0.1-1.8,0.1-4.8-0.1-6.5c0-0.2,0-0.3,0-0.3c-0.1-1.4-0.2-4.4-0.3-5.3c0.4-1.3-0.4-8.5,0-8.5l-0.1-4.2
						l0,0.1c0-2.7-0.1-3.6-0.3-4.6c0-0.6,0.1-0.2,0.1-0.1c0-3.9,0-4.3-0.3-7.6l0.1-0.3c-0.1-0.9,0.1-5.7-0.1-9.5c0,0,0,0.1,0.1,0.4
						c-0.2-4.3,0.2-10.4-0.2-12l-0.1-2.9c0,3.7-0.2-0.6-0.3,1c0-1.5,0.1-3.8,0.2-2l0,0.3c0.2,0.7,0.1-4.6,0.3-4.5
						c0-7.3,0.1-14.4,0.3-21.2l-0.2,0.8l0.1-2.4c0.1-0.6,0.2-0.8,0.1,0.9c0.1-0.9,0-2.8-0.1-2.9c0.1-3.3,0.2,1.3,0.2,0.3l0-1.4
						l0,0.3c-0.1-1.1-0.1-1.2-0.1-3.3c0.1-1.3,0.1-0.7,0.1-1.2c0,0,0,0,0-0.2c0-0.1,0-0.3,0-0.6l0.1-3l-0.2,1.2
						c0-1.3,0.1-2.8-0.1-1.4c0.2-2,0.5-11.2,0.6-12.4c0-1.9,0.1-3.7,0.2-6c-0.1,0.6-0.2,0.9-0.1-1.1c0.3,0.7,0.3-3.6,0.6-5.2
						c-0.3,1.4,0.3-5.6,0-3.4c0.1-1.6,0.1-0.1,0.3-1.3c0.1-3.9,0.7-8.6,0.9-13.4c0-0.1-0.2,0.7-0.2-0.3l0.4-2.5c0-1-0.2-0.9,0.1-2.6
						c-0.1,0.2-0.1,0.6-0.1,0c0.5-4.7,1-9.5,1.8-14.2c0.4-2.4,0.9-4.7,1.5-7.1c0.6-2.3,1.4-4.6,2.3-6.8c-0.5,1.2-0.2,0.4,0.1-0.6
						c-0.2,0.6-0.1-0.1-0.2,0c0.6-1.2,1.1-2.4,1.7-3.6c0.1-0.7,1.9-3.8,2-4.2c-0.2,0.4-0.4,0.7-0.6,1.1c0.6-1.6-1.5,1.9-1.6,1.6
						c-0.6,1.8-2.4,4.5-3.1,7.5c-0.3,0.6,0.1-0.6-0.1-0.3c-0.1,0.8-0.4,1.7-0.9,3.4l0-0.2c-0.3,1.2-0.6,2.2-0.8,3.2
						c-0.2,1-0.4,1.8-0.6,2.7c-0.4,1.8-0.8,3.7-1.2,6.5l0.2-0.4c-0.2,1.2-0.2,1.4-0.4,2c0,1.4,0.5-3.3,0.5-2.1
						c-0.2,0.8-0.5,2.9-0.8,4.9c-0.2,2-0.4,4-0.6,4.5c-0.2,1.8,0.2-0.5,0,1.3l-0.1,0.5l0.1,0.5c-0.1,1.2-0.3,1.8-0.3,1.8
						c0-0.3,0.1-0.8,0.1-1.1c-0.2,1.6-0.3,4.4-0.4,4.9l0.2-1.8c-0.3,5-0.8,11.1-1,16l0.1-0.4c-0.1,3.7-0.3,3-0.4,7l0-0.1
						c0,0.8,0,1.9,0,3c0-1-0.2,1.9-0.2,0.6c-0.1,4,0,2,0.1,4.7l-0.1,0.6c0,0.9,0.1,1,0,3c0-1.7-0.2,1.3-0.2-0.6
						c-0.4,4.3-0.1,6.3-0.4,8.3c0.1,1,0.2,0.1,0.2-1c0.1-1,0.1-2.2,0.1-1.6c0.1-0.9,0.1,1.6,0.1,3c0,1.4-0.4,2.3-0.4,5.7
						c0-0.3,0-0.4,0-0.7c-0.1,1.3,0,2.5-0.1,4.1c0.1,0.9-0.1,2,0.1,2.3l0-3.1c0,1.8,0.2,3.5,0,6.4c0-0.2-0.1-1.1-0.1-1.7
						c-0.1,0.9,0,1.7-0.1,2.5c-0.2-0.3,0-3.8-0.1-5.7c-0.1,0.9,0.1,3.6-0.1,2.6c0.2,1.4-0.1,3.4,0.1,5.7l-0.1-0.2
						c0,0.4,0.1,1.1,0,1.8l-0.1-1.2c0.1,1.9-0.2,3.6-0.1,5.4c0-3.8,0.1-0.8,0.2-2.4c0.1,4.7-0.3,2.7-0.3,7.9c0-0.7,0.1-2.6,0.1-1.5
						c0,1-0.1,2.3-0.1,2.9c0,3.5,0.1-0.5,0.2,0.9c-0.1,1.2,0.1,1.7,0.1,3.2l-0.1,0c-0.1,3.9,0.2,1,0.1,4.6l-0.2-1.5l0,1.8l-0.1-0.4
						c0.1,2,0.1,2.6,0.1,4.6c0.1-0.5,0.2,0.3,0.2,2c-0.1,1.2-0.1-0.7-0.1,1.8c-0.1-0.6-0.2-1.2-0.1-2.2c0-0.1-0.1-0.5-0.1-0.7
						c-0.1,1.3,0,3.2,0,4.1c0-0.3,0-0.8,0-1l0.2,3.6c0,0.6-0.1,0.1-0.1-0.3c0,0.7,0.1,1.2,0.1,2.3c-0.1-0.3-0.2-0.2-0.3-1.7l0.1,3.4
						c0,0.2-0.1,1.8-0.1,1.3c0,1.9,0.2,4.6,0.2,7.1c0,0.1,0,0.4,0.1,0.9c0,2.4,0,4.4,0.1,7.2l-0.1,1.6c0.1,2.2,0.2-2.1,0.3,1.5
						c0.1,2.6-0.1,1-0.2,1.9c0.1,1.3,0.3,3.5,0.2,5.9C26.1,198.3,26.1,197.7,26.1,196.9z M26.9,223.9c0-0.5-0.1-1.6-0.1-1.9
						C27,222.5,26.9,223,26.9,223.9z M28.4,264.8c-0.1-0.4,0-1,0-1.7C28.4,263.7,28.4,264.2,28.4,264.8z M29,379
						C29,379,29,379,29,379C29.1,377.8,29,378.2,29,379z M28.8,381.4c0,0.2,0,0.2,0,0.1c0-0.2,0-0.7,0.1-1.3
						C28.8,380.4,28.8,380.7,28.8,381.4z M27,121.6l0,0.5C26.9,121,27,121.3,27,121.6z"/>
					<path class="st4" d="M28.1,260.2c0-0.1,0-0.2,0.1-0.2C28.1,259.8,28.1,259.8,28.1,260.2z"/>
					<path class="st4" d="M25.7,180.2L25.7,180.2c0-0.1,0-0.2,0-0.2L25.7,180.2z"/>
					<path class="st4" d="M29,343.9c0-0.5,0-0.8,0.1-1C29,342.9,29,343.2,29,343.9z"/>
					<path class="st4" d="M28.3,394.2l0.1-1.6c0,0.7-0.1,1-0.1,1.4C28.2,394.1,28.3,393.8,28.3,394.2z"/>
					<path class="st4" d="M26.4,407.6c0,0.2,0,0.5,0,0.7l0.1-0.1C26.5,407.3,26.5,406.6,26.4,407.6z"/>
					<path class="st4" d="M27.8,395.7c-0.1,0.1-0.2,1.1-0.2,2.2l0-0.2C27.7,398,27.7,396.8,27.8,395.7z"/>
					<path class="st4" d="M27.5,398.1c0,0.3-0.1,0.7-0.1,1C27.5,399.2,27.5,398.7,27.5,398.1z"/>
					<path class="st4" d="M28.7,384.5c-0.1,0.5,0.1,0.3,0.1,0.6C28.8,385.7,28.8,381.7,28.7,384.5z"/>
					<path class="st4" d="M27.4,396.5l0.2-0.4c0-0.2,0-0.4-0.1-0.6C27.4,395.8,27.4,396.2,27.4,396.5z"/>
					<path class="st4" d="M28,388l-0.1,1.7c0,0,0,0.2,0,0.5C27.9,389.1,28,387.9,28,388z"/>
					<path class="st4" d="M27.8,390.2c0,0.6-0.1,1.1-0.1,1.4C27.8,391.2,27.8,390.6,27.8,390.2z"/>
					<polygon class="st4" points="27.5,394.1 27.5,393.6 27.6,392.4 					"/>
					<path class="st4" d="M28.9,369.3l0-1.9c0-0.2-0.1,0.3-0.1,1C28.9,368.9,28.9,369.6,28.9,369.3z"/>
					<path class="st4" d="M28.4,375c0.1-0.5,0.1-0.5,0.1-0.8l-0.2-0.1L28.4,375z"/>
					<path class="st4" d="M28.5,369.5c0-0.2,0-2.8-0.1-0.4C28.5,369.4,28.4,371.3,28.5,369.5z"/>
					<polygon class="st4" points="29.4,341 29.4,341.5 29.7,341.4 					"/>
					<path class="st4" d="M28.9,315.9c-0.1,2.2,0.2,0.5,0.1,2.6c0.1,0.5,0.1-1.7,0.1-1.1C29,316,29.1,315.2,28.9,315.9z"/>
					<path class="st4" d="M29.1,317.3c0,0.2,0,0.4,0,0.7C29.1,317.6,29.1,317.4,29.1,317.3z"/>
					<path class="st4" d="M38.1,35.1l0.7-1.2c-0.2,0.3-0.3,0.5-0.5,0.8L38.1,35.1z"/>
					<path class="st4" d="M39.3,32.6l0.3-0.2l0.3-0.8C39.7,31.9,39.4,32.5,39.3,32.6z"/>
					<path class="st4" d="M26.7,227.9l0,0.1c0-0.2,0-0.6,0-1.2L26.7,227.9z"/>
					<polygon class="st4" points="26.3,208.3 26.3,208.7 26.4,208 					"/>
					<path class="st4" d="M25.7,191.9c0,0.7,0,1.5,0.1,2.1C25.7,192.6,25.9,191.7,25.7,191.9z"/>
				</g>
			</g>
		</g>
	</g>
</g>
<g>
	<g>
		<g>
			<g>
				<g>
					<path class="st4" d="M675,47.6c-0.2-0.6-0.2-0.3-0.3-0.4C675.1,48.1,675,47.6,675,47.6z"/>
					<polygon class="st4" points="678.3,57.3 678.3,57.2 678.8,58.6 					"/>
					<path class="st4" d="M680.8,66.7c0-0.9-0.9-3.4-1.2-5.1l0-0.3l-0.3-0.7C679.7,62.6,680.5,65.2,680.8,66.7z"/>
					<path class="st4" d="M681.5,71.8c0-0.3,0.3,1.1-0.2-1.2c0,0.1,0,0.1,0,0.2C681.3,71,681.4,71.3,681.5,71.8z"/>
					<path class="st4" d="M681.3,70.8C681.1,69.8,681.4,71.5,681.3,70.8L681.3,70.8z"/>
					<path class="st4" d="M682.2,75.4l-0.3-1.3c0,0.3,0.2,1.5,0.1,1C682.3,76.5,682.3,76.2,682.2,75.4z"/>
					<path class="st4" d="M682.6,76.6l-0.1-0.7C682.4,76.1,682.4,76.2,682.6,76.6z"/>
					<path class="st4" d="M682.1,74.5l0.3,1.4c0-0.2,0-0.2-0.1-0.7C682.4,75.4,682.3,75.1,682.1,74.5z"/>
					<path class="st4" d="M682,73.7c-0.1-0.7-0.2-1.7,0.1-0.4c-0.2-1.3-0.4-1.8-0.4-1.7C681.6,71.7,681.8,72.4,682,73.7z"/>
					<path class="st4" d="M681.1,67.1l-0.2-1c-0.1-0.3-0.2-0.6-0.3-0.8C680.8,65.7,681,67.2,681.1,67.1z"/>
					<path class="st4" d="M683.4,83.6c0,0.1,0-0.5,0.1-0.6l-0.2-1C683.4,82.6,683.5,83.6,683.4,83.6z"/>
					<path class="st4" d="M683.5,83.1l0.3,1.5C683.6,83.2,683.5,83,683.5,83.1z"/>
					<polygon class="st4" points="682.8,76.8 682.2,74.5 682.9,77.3 					"/>
					<polygon class="st4" points="684.1,89.2 684,88.4 684.3,89.9 					"/>
					<path class="st4" d="M684.6,92.9c-0.1-0.6,0,0.9-0.2,0.2c0.1,1,0.2,1.9,0.4,2.6C684.7,95,684.6,94.1,684.6,92.9z"/>
					<path class="st4" d="M685,97.1c-0.1-0.4-0.1-0.8-0.2-1.3C684.8,96.2,684.9,96.7,685,97.1z"/>
					<path class="st4" d="M684.1,87c0,0.1,0,0.3,0,1.2l0-0.6C684.1,87.4,684.1,87.2,684.1,87z"/>
					<path class="st4" d="M684.2,87.6L684.2,87.6c0.1,0.6,0.1,1.1,0.1,1.3C684.3,88.7,684.2,88.3,684.2,87.6z"/>
					<path class="st4" d="M684.1,86.9c0,0.1,0,0.1,0,0.1C684.1,87,684.1,86.9,684.1,86.9z"/>
					<path class="st4" d="M683.3,80.7c0.2,0.9,0.5,2.6,0.3,0.9C683.5,80.9,683.6,81.9,683.3,80.7z"/>
					<path class="st4" d="M684.1,86.1c0-0.5-0.1-1-0.2-1.6c0,0,0,0.3-0.1-0.1C683.9,85,684,85.6,684.1,86.1z"/>
					<polygon class="st4" points="684.2,86.9 684.1,86.1 684.2,86.7 					"/>
					<path class="st4" d="M684.8,94.4c0.1,0.7,0.2,1.4,0.3,2.2c-0.1-0.9-0.1-1.8-0.2-2.7C684.8,93.8,684.7,93.4,684.8,94.4z"/>
					<path class="st4" d="M684.5,91.1c0,0,0,0.1,0,0.1C684.6,91.1,684.6,91.1,684.5,91.1z"/>
					<polygon class="st4" points="685.6,104.9 685.6,104.8 685.6,104.7 					"/>
					<path class="st4" d="M684.9,93.8c0-0.7-0.1-1.1-0.2-1.5c0,0.5,0.1,1,0.2,1.6C684.9,94,684.9,94,684.9,93.8z"/>
					<path class="st4" d="M685.2,99.4c0-0.4,0-0.8,0-1.2C685.2,98.6,685.1,99.3,685.2,99.4z"/>
					<path class="st4" d="M684.6,91.5C684.6,91.4,684.6,91.4,684.6,91.5C684.6,91.6,684.6,91.6,684.6,91.5z"/>
					<path class="st4" d="M684.6,91.5c0.1,0.3,0.1,0.6,0.2,0.9c0-0.4-0.1-0.8-0.2-1.1C684.6,91.3,684.6,91.4,684.6,91.5z"/>
					<path class="st4" d="M686.4,107.4c-0.1-0.1-0.2-1.9-0.2-3.4c-0.2-1.5-0.4-0.5-0.5,0.8c0,0,0.1,0,0.2,1.6
						c0.1-0.5-0.1-3.4,0.1-2.1c0.2,2.1,0,1.7,0,2.7c0.1-0.9,0.3,2.6,0.4,2.2l-0.1-1.8C686.3,107.2,686.4,107.9,686.4,107.4z"/>
					<path class="st4" d="M685.5,101.8l0-0.6c0,0.7,0,1.3,0,2.2c0.1,1.1,0.2,1.3,0.2,1.3l-0.2-3.1L685.5,101.8z"/>
					<path class="st4" d="M685.2,98.3c0.2,0.5,0.3,2,0.3,1.1c-0.1-1.9-0.2-1.3-0.3-2.4C685.5,100,685.1,96.1,685.2,98.3
						c-0.1-0.6-0.1-1.1-0.2-1.6C685.1,97.2,685.1,97.7,685.2,98.3c-0.1-0.1-0.1-0.1-0.1-0.2l0,0l0,0c0-0.1,0-0.2,0,0c0,0,0,0,0,0.1
						C685.2,98.2,685.2,98.2,685.2,98.3c0,0.9,0,0.1-0.1-0.1c0,0,0,0,0,0l0,0c0.1,1,0.2,2,0.3,3C685.4,100.5,685.4,99.7,685.2,98.3z
						"/>
					<path class="st4" d="M684.1,83.1C684.2,83.2,684.1,83.2,684.1,83.1C684.2,83.4,684.2,83.5,684.1,83.1z"/>
					<path class="st4" d="M684.3,84.4c0-0.2-0.1-0.4-0.2-1.1c-0.1-0.6,0.1,0,0.1,0c-0.1-0.4-0.3-1.5-0.2-0.1l0,0.2
						c0.1,1.2,0.2,2.8,0.2,2.6C684.3,85.5,684.3,85.2,684.3,84.4z"/>
					<path class="st4" d="M684.9,91.4c0.1,0.8,0.2,1.7,0.3,2.5l0-1.3l-0.1,0.1C685,91.3,684.9,91.6,684.9,91.4z"/>
					<path class="st4" d="M685.6,105.2l-0.1-0.3c0.1,0.5,0.1,1,0.2,1.4L685.6,105.2z"/>
					<polygon class="st4" points="685.7,108.5 685.6,108.3 685.7,109.2 					"/>
					<path class="st4" d="M676.1,293.3l0.1,0.7C676.2,293.7,676.2,293.4,676.1,293.3z"/>
					<path class="st4" d="M676,287.9l-0.1-0.1C675.9,288,676,288.1,676,287.9z"/>
					<path class="st4" d="M680.5,188.8c-0.2,1.1-0.5,2.2-0.4,2.1l0.1-0.3C680.3,189.9,680.4,189.3,680.5,188.8z"/>
					<path class="st4" d="M675.7,243.9c0-0.1,0-0.2,0.1-0.3c0-0.3,0-0.5-0.1-0.7C675.7,243.1,675.7,243.5,675.7,243.9z"/>
					<path class="st4" d="M676.1,244.7l-0.1,1.4C676,245.8,676,245.3,676.1,244.7z"/>
					<path class="st4" d="M677.4,322.6l0.1,0.9C677.5,322.1,677.5,322.7,677.4,322.6z"/>
					<path class="st4" d="M685.2,142c-0.1,0.9-0.2,1.7-0.2,2.3C685.1,143.2,685.2,142.3,685.2,142z"/>
					<path class="st4" d="M674.9,291.2c0,0.5,0.1,0.6,0.1,0.6C675,291.4,674.9,291.1,674.9,291.2z"/>
					<path class="st4" d="M684.8,147c0-0.2,0-0.3,0.1-0.5c0-0.7,0.1-1.4,0.1-2.2C684.9,145.2,684.7,146.1,684.8,147z"/>
					<path class="st4" d="M687.2,428.6c0,0.1,0,0.2,0,0.2C687.2,428.9,687.2,428.8,687.2,428.6z"/>
					<path class="st4" d="M684.6,459.5c0.1-0.3,0.2-0.8,0.2-1.2C684.8,458.4,684.7,458.8,684.6,459.5z"/>
					<path class="st4" d="M685.8,121.6C685.8,120.9,685.8,121.5,685.8,121.6L685.8,121.6z"/>
					<path class="st4" d="M686.3,118.3c0,0.1,0,0.3,0.1,0.3C686.3,118.5,686.3,118.4,686.3,118.3z"/>
					<path class="st4" d="M684.9,154C684.9,154,684.9,154,684.9,154C684.9,153.9,684.9,153.9,684.9,154z"/>
					<path class="st4" d="M685.9,120.6c0,0.3,0,0.6,0,0.9C685.8,121.3,685.9,121.1,685.9,120.6z"/>
					<path class="st4" d="M685.8,120.7c0-0.2,0-0.4,0-0.6C685.8,120,685.8,120.1,685.8,120.7z"/>
					<path class="st4" d="M685.8,122.6c0-0.4,0-0.8,0-1.1c0,0.1,0,0.2,0,0.2C685.8,121.8,685.8,122.1,685.8,122.6z"/>
					<path class="st4" d="M680.1,372c0,0,0,0.1,0,0.1C680.2,372.8,680.2,372.5,680.1,372z"/>
					<path class="st4" d="M679.5,206.9C679.5,206.9,679.5,206.9,679.5,206.9C679.5,206.9,679.5,206.9,679.5,206.9L679.5,206.9z"/>
					<path class="st4" d="M679.3,209.4c0-1.1,0.1-1.7,0.2-2.5l-0.4,0.8L679.3,209.4z"/>
					<path class="st4" d="M676.7,306.1l0-1.8c0.2,2.1,0.2,3.6,0.3,2c-0.3-0.2-0.3-6.8-0.6-7.1l0-1.2c0,0.3,0,0.4,0,0.7
						c0.1-2.3-0.3-1.7-0.4-4.6c0-1,0-1.7,0.1-1L676,291c0-0.7,0-0.5,0.1,0.2l-0.1-3.4l0,0c-0.1-0.5-0.2-1.6-0.2-2.1
						c0-0.9,0,0.4,0.1,0.2l-0.1-1.9c0.1-0.8,0.2,0.8,0.2,2.1c0.3-1.8-0.1-1.6,0-5.4l0.1,1.8c0.2-1.2,0.1-2.6,0.1-4.6
						c-0.1,0.5-0.2,4.1-0.3,2c0-0.6,0-1.3-0.1-2.5c0.1,0,0.1-1.1,0-2.5l0.2,0.1c-0.1-1.5-0.1-1.4-0.2-2.2c0-1.6,0.1-2,0.2-2.4
						c0-2.6-0.2,1.8-0.2-1.3c0.1-2.2,0-3.7-0.1-6.3c0.1-1.5,0.1,0.3,0.1-0.3l-0.1-1.4c0-0.3,0-0.2,0.1-0.2c0-1.1-0.2-0.1-0.2-1.9
						c-0.2-0.5,0.4-3.7,0.2-5.9c0.1-0.5,0.1,0.3,0.2,0.1c0-3.1,0-2.6-0.1-5.1l0.2-2.1c-0.2,1.6-0.2-0.4-0.3-2.2
						c-0.1,0.6-0.2,1-0.2,1.3l0.1-2.8c0-0.3,0.1-0.1,0.1,0.4c0-0.2,0-0.4,0-0.5c0.1-1,0.2-0.5,0.2,0.2c-0.1,0.3-0.1,0.7-0.2,1
						c0,0.7,0.1,1.3,0.2,1.2c0-0.2,0-0.5,0-0.9c0,0.2,0,0.3,0.1,0.2c0-0.1,0-0.4,0-0.8l0.2-0.6l-0.1-0.2l0.4-3.6
						c0-2.6-0.1-4.9,0.2-9.1c0,1,0.2,0.2,0.3,0.3c-0.3,1.1-0.2,3.2-0.4,5.4c0.1-1.1,0.2-0.9,0.2-0.6l0.2-3.8
						c0.1,0.1,0.2-0.8,0.3-1.8c-0.3,0.7,0.1-2.9,0.2-4.4c0.1-0.1,0.1,0.3,0,2.2c0.4-2.1-0.1-2.7,0.3-4.8c0,0.5-0.1,0.7-0.1,0.9
						c0-1.1,0.4-3.7,0.4-3.1l0,0.5c0.3-3.1,1-9.4,0.8-9.8c0,0,0.2,0.4,0.2,0.6l-0.1-5.6c0.1,0.5,0.8-1.3,0.6,1.3
						c0.1-0.7,0.2-1.6,0.4-3.2c-0.1,0.5-0.4,1.2-0.3,0.5c0.4-1.8,0.3-1.3,0.7-3.6c-0.1,0.7-0.3-0.1-0.2-1.3c0,0.2,0.3-0.1,0.3,0.4
						l0.1-3c0,0.7,0.2,0.2,0.4-0.5c-0.1,0.3,0.3-2.5,0.4-3.3l-0.2,1.2c0.4-3.3,0-3.3,0.4-6.6c0,0.4,0.2,1,0.5-0.6
						c-0.1-0.8-0.3-3.5-0.1-6.4l0.1-0.6l0.2-2.2c0.1,1.4,0.1,5.4,0,7.5c0.2-1.2,0.1-0.3,0.3-2.2c0.2-0.6,0,1-0.1,1.6l0.6-4.3
						c-0.2,0.2,0.2-3.3,0.1-3.2l-0.4,4.7c-0.2,0.2-0.1-2.8,0.2-5.8c0.2-0.8,0.2,0.6,0.3,0.6c0-0.4,0.2-2.9,0.3-3.2l-0.1,1.3
						c0.3-1.7,0.1-2.8,0.5-4.9c0.1-0.7,0.4-2.1,0.4-2.2c-0.3,1.1-0.9,1.3-1,0.5c0-0.2,0.6-3.7,0.7-4.5c0.3-1.2,0.2,1.8,0.4,0.8
						c0,0,0-0.7,0-1c0.1-0.7,0.1,0.3,0.3-1.3c-0.1-0.3,0.3-3.3-0.1-0.8c0.1-1.6,0.2-1.7,0.4-3.5c-0.2,0.6-0.2-1.7-0.1-3.3
						c0,0.1,0.1-0.3,0.2-0.4c0.3-3.3,0.5-5,0.7-8c0.1-0.3,0.2-1.7,0.2-1.1c0-0.4,0-0.8,0-1.8c0.3-1.8-0.1,2.1,0.2,0.7
						c-0.1-0.1,0-2.4,0-3.8c-0.2,0.4-0.2,3.1-0.2,4.4c-0.2,0-0.3-2.4-0.2-5.5c0.1-2.5,0.2-1.1,0.2-1.5c0.2-4.7-0.1-4.1,0.1-8
						c0.2-1.6,0.3-0.1,0.4-0.4c0,2.1-0.2,3.2-0.2,4.6l0.1-1.7c0,0.7,0,2-0.1,2.8c0.2-1.3,0.3-8,0.5-11.7c0-0.7-0.1-1.8-0.1-1.2
						l0,1.2c-0.1,1.1-0.1-2.2-0.2-0.7c-0.1-1.6-0.1-3.3-0.1-5.5l0.1-0.4c0,0-0.1,1.4,0,2c-0.1-0.9,0.2-3.4,0-4.4l-0.1,1.5
						c-0.1-1.6-0.3-3.5-0.3-5.4c-0.1,0.9,0,0.4-0.1,1.8c0.2-1.2,0,5,0.3,3c-0.2,1.4,0,2.4-0.2,4.3c0.1-0.1,0.1-0.7,0.1,1
						c0,0.1,0,0.2,0,0.4c0,0,0,0.1,0,0.1c0,0,0-0.1,0-0.1c0,0.1,0,0.1,0,0c0-0.4,0.1-0.7,0.1-0.8c0.1,0.8,0.1,3.4,0.1,4.3
						c0,1-0.1-0.4-0.1,0.1l0.1,1.3c-0.1,0.1-0.3,2.6-0.3,0.3l-0.1,2c-0.1,1.2-0.2,2.9-0.2,3.9c-0.1,1,0,2.4,0,1.6l-0.1,3.2l0,0
						c-0.2,3.2-0.2,6.5-0.6,10.1c-0.1,1.1-0.1,2.2-0.3,3.9l-0.1,0.3c-0.1,1.4-0.5,4.1-0.4,4.7c-0.4,1.5-0.7,6.6-1,9l0.1,0.1
						c-0.2,1.7-0.3,3.2-0.5,5.3l0.1-0.1c-0.1,1.8-0.6,4.5-0.9,7.3c0-0.2,0.1-0.9,0.2-1.4c-0.6,3.3-0.6,7.1-1.2,10.1
						c0,0.8-0.1,1.3-0.2,1.8c0-0.1,0-0.1,0-0.2c0,0.1,0,0.2,0,0.3c-0.1,0.3-0.1,0.7-0.2,1c0.1-0.3,0.1-0.6,0.2-0.9
						c-0.1,0.6-0.2,1.5-0.2,2.3l-0.2,0.4c0,0.1,0,0.1,0,0.2c-0.1,0.8,0,0.7,0.1,0.2c0,0.4-0.1,0.8-0.1,1.2c-0.3,0.7-0.2,2.3-0.5,3.2
						c0,0.6-0.4,4.4-0.3,4.8c0,0-0.1,0.3,0-0.2c-0.1,1-0.3,1.9-0.3,2.8l-0.2,0.4l0,2.1c-0.2,1.3-0.4,1.8-0.3,0.5
						c-0.2,3.1-0.2,2.5-0.3,5.1l-0.1-0.1c-0.1,0.9-0.1,2.4-0.3,3c-0.4,2.1-1.1,10.3-1.7,15.7c0.4-1-0.4,2.5-0.1,2.7
						c-0.1,0.3-0.2,1.1-0.2,0.2c-0.1,2.8-0.4,4.1-0.4,6c-0.1,0.3-0.1-0.6-0.1-0.3c0,0.2,0,0.9-0.1,1.2c-0.1,0.3,0-0.4,0-0.8
						c-0.2,2.8,0,3.1,0.2,3.3c-0.2,1.4-0.2,2.1-0.1,3.2c-0.1,0.5-0.2,1.3-0.1-0.4c-0.1,1-0.4,6-0.2,6.1c-0.1,0.3-0.1,1.4-0.1,1.6
						c-0.1,2.2-0.1,2.4-0.2,4.6l0-0.6c0.2,0.9,0,1.8,0,3.5l0-0.1c-0.2,4,0,1.7-0.2,5.7l0.1-0.2c0.3,0.4-0.2,3.5,0,5.8l0.1-0.8
						c0.1,1.3-0.3,3.5-0.3,4.8c0,0.3,0-0.4-0.1-0.8c-0.1,3.3,0.2,0.4,0.2,2.9c-0.1,0.5-0.2-0.6-0.2,1.1c-0.1,0.8,0.4,4.8,0.3,7
						c0.1-0.5,0.1-1,0.2,0.1c0.1,1.7-0.1,4.7,0.2,6.3c0,0.2,0,0.3,0,0.3c0.1,1.3,0.2,4.3,0.4,5.1c-0.4,1.2,0.5,8.3,0.1,8.3l0.2,4.1
						l0-0.1c0.1,2.6,0.2,3.5,0.3,4.5c0,0.6-0.1,0.2-0.1,0.1c0.1,3.8,0.1,4.2,0.4,7.4l-0.1,0.3c0.1,0.9,0,5.5,0.4,9.3
						c0,0,0-0.1-0.1-0.4c0.3,4.2,0.2,10.1,0.7,11.7l0.3,2.8c-0.2-3.6,0.2,0.5,0.2-1c0.1,1.4,0.1,3.7,0,1.9l0-0.3
						c-0.3-0.6,0.2,4.5,0,4.4c0.5,7.1,0.8,14,1.4,20.6l0.1-0.8l0.2,2.3c0,0.6-0.1,0.8-0.2-0.8c0,0.9,0.3,2.8,0.4,2.8
						c0.2,3.2-0.3-1.2-0.2-0.3l0.1,1.3l0-0.3c0.2,1.1,0.3,1.2,0.5,3.2c0.1,1.3,0,0.7,0,1.1c0,0,0,0,0,0.2c0,0.1,0,0.3,0.1,0.6
						l0.3,2.9l0-1.2c0.2,1.3,0.3,2.7,0.3,1.4c-0.1,2,1.1,10.9,1.2,12.1c0.3,1.8,0.6,3.6,0.9,5.8c0-0.6,0.1-0.9,0.3,1
						c-0.4-0.6,0.3,3.5,0.3,5.1c0-1.4,0.8,5.4,0.7,3.2c0.2,1.6-0.1,0.1,0,1.3c0.7,3.7,1.1,8.3,1.6,13c0.1,0.1,0-0.7,0.2,0.3
						c0,0.8,0,1.7,0,2.5c0.1,0.9,0.3,0.8,0.3,2.5c0-0.2,0-0.6,0.1,0c0.2,4.6,0.4,9.3,0.3,14c-0.1,4.7-0.6,9.4-1.8,13.9
						c0.3-1.2,0.2-0.4,0,0.5c0.1-0.6,0.1,0,0.2-0.1l-0.5,1.9l-0.6,1.9c0,0.4-0.3,1.4-0.6,2.3c-0.3,1-0.6,1.9-0.6,2.1l0.4-1.2
						c-0.2,0.8,0.1,0.3,0.5-0.4c0.4-0.7,0.7-1.5,0.8-1.4c0.1-0.9,0.5-2.1,0.9-3.4c0.3-1.3,0.7-2.8,0.8-4.3c0.1-0.7,0,0.6,0.1,0.2
						c0-0.8,0.1-1.7,0.4-3.4l0,0.2c0.5-4.8,0.8-6.9,0.9-12.3l-0.1,0.4c0-1.2,0.1-1.4,0.1-2c-0.2-1.3,0,3.3-0.2,2.1
						c0.3-1.6-0.2-8.2,0-9.3c-0.1-1.8-0.1,0.5-0.2-1.3l0-0.5l-0.1-0.4c-0.1-1.2,0-1.8,0-1.8c0,0.3,0.1,0.8,0.1,1.1
						c0-1.5-0.4-4.3-0.5-4.8l0.1,1.7c-0.5-4.9-1.2-10.8-2-15.5l0,0.4c-0.6-3.6-0.3-2.9-0.9-6.8l0,0.1c-0.2-0.8-0.3-1.8-0.5-2.9
						c0.2,1-0.1-1.9,0.1-0.6c-0.6-3.9-0.3-1.9-0.9-4.4l0-0.6c-0.2-0.9-0.3-0.9-0.5-2.9c0.3,1.6,0-1.3,0.3,0.5
						c-0.3-4.1-0.9-6.1-0.8-8c-0.5-1.9,0.2,3.6,0.1,2.5c0,0.9-0.4-1.5-0.5-2.8c-0.1-1.3,0.1-2.3-0.3-5.6c0,0.3,0,0.4,0.1,0.7
						c-0.1-1.2-0.3-2.4-0.4-4c-0.2-0.8-0.2-2-0.4-2.2l0.3,3c-0.2-1.7-0.6-3.3-0.7-6.2c0.1,0.2,0.2,1.1,0.3,1.6
						c0-0.8-0.2-1.6-0.2-2.5c0.2,0.2,0.4,3.7,0.7,5.5c0-0.9-0.5-3.5-0.2-2.6c-0.4-1.3-0.3-3.3-0.6-5.5l0.1,0.1
						c0-0.4-0.2-1.1-0.2-1.7l0.2,1.2c-0.3-1.8-0.2-3.5-0.4-5.3c0.3,3.7-0.1,0.8-0.1,2.4c-0.5-4.5,0.1-2.6-0.3-7.7
						c0.1,0.7,0.1,2.6,0,1.5c0-1-0.1-2.2-0.1-2.8c-0.2-3.4-0.1,0.5-0.3-0.9c0.1-1.2-0.2-1.6-0.3-3.1l0.1,0c-0.2-3.8-0.3-1-0.4-4.4
						l0.3,1.4l-0.2-1.8l0.2,0.4c-0.2-1.9-0.2-2.6-0.3-4.5c-0.1,0.4-0.2-0.2-0.3-1.9c0-1.2,0.1,0.6,0-1.8c0.1,0.5,0.2,1.1,0.2,2.2
						c0,0.1,0.1,0.5,0.1,0.6c0-1.2-0.2-3.1-0.2-4c0,0.3,0,0.7,0,0.9l-0.3-3.5c0-0.6,0.1-0.1,0.1,0.3c0-0.7-0.1-1.2-0.2-2.2
						c0.1,0.3,0.2,0.2,0.3,1.7l-0.3-3.3c0-0.2,0-1.7,0.1-1.3c0-1.8-0.4-4.5-0.4-6.9c0-0.1-0.1-0.4-0.1-0.9c-0.1-2.3,0-4.3-0.3-7
						l0.1-1.5c-0.1-2.1-0.1,2.1-0.3-1.4c-0.2-2.5,0.1-0.9,0.1-1.8c-0.1-1.2-0.4-3.4-0.4-5.7C676.6,304.8,676.6,305.4,676.7,306.1z
						 M675.7,279.9c0,0.5,0.1,1.5,0.1,1.9C675.6,281.2,675.7,280.8,675.7,279.9z M676.2,240c0,0.4,0,1-0.1,1.6
						C676,241.2,676.1,240.6,676.2,240z M685.8,129.3C685.8,129.3,685.8,129.3,685.8,129.3C685.7,130.5,685.7,130.1,685.8,129.3z
						 M685.9,126.9c0-0.2,0-0.2,0-0.1c0,0.2,0,0.7,0,1.3C685.9,127.9,685.9,127.6,685.9,126.9z M680,379.5l0-0.5
						C680.1,380,680.1,379.8,680,379.5z"/>
					<path class="st4" d="M676,244.5c0,0.1-0.1,0.2-0.1,0.2C676,245,676,245,676,244.5z"/>
					<path class="st4" d="M677.4,322.5L677.4,322.5c0,0.1,0,0.1,0,0.2L677.4,322.5z"/>
					<path class="st4" d="M684.5,163.4c-0.1,0.5-0.1,0.7-0.2,0.9C684.3,164.4,684.4,164.1,684.5,163.4z"/>
					<path class="st4" d="M685.8,114.4l0,1.5c0-0.7,0-1,0-1.4C685.8,114.6,685.8,114.9,685.8,114.4z"/>
					<path class="st4" d="M686,101.3c0-0.2,0-0.5-0.1-0.7l-0.1,0.1C686,101.7,686,102.3,686,101.3z"/>
					<path class="st4" d="M686.1,113c0.1-0.1,0.1-1.1,0-2.1l0,0.2C686,110.8,686.1,111.9,686.1,113z"/>
					<path class="st4" d="M686.1,110.7c0-0.3,0-0.7,0-1C686,109.6,686.1,110.1,686.1,110.7z"/>
					<path class="st4" d="M685.9,123.9c0-0.5-0.1-0.3-0.1-0.6C685.7,122.8,685.9,126.7,685.9,123.9z"/>
					<polygon class="st4" points="686.5,112.2 686.3,112.6 686.4,113.2 					"/>
					<path class="st4" d="M686.4,120.5l0.1-1.7c0,0,0-0.2,0-0.5C686.4,119.4,686.4,120.6,686.4,120.5z"/>
					<path class="st4" d="M686.4,118.4c0-0.5,0-1.1,0-1.4C686.4,117.3,686.4,118,686.4,118.4z"/>
					<polygon class="st4" points="686.5,114.5 686.5,115 686.5,116.2 					"/>
					<path class="st4" d="M685.8,138.7l-0.1,1.8c0,0.2,0.1-0.3,0.1-1C685.9,139.1,685.9,138.4,685.8,138.7z"/>
					<path class="st4" d="M686.4,133.1c0,0.5-0.1,0.5-0.1,0.8l0.2,0.1L686.4,133.1z"/>
					<path class="st4" d="M686.2,138.5c0,0.2,0,2.7,0.1,0.3C686.3,138.7,686.3,136.8,686.2,138.5z"/>
					<polygon class="st4" points="683.8,166.2 683.8,165.7 683.5,165.8 					"/>
					<path class="st4" d="M681.6,190.6c0.3-2.2-0.1-0.5,0.2-2.5c0-0.5-0.3,1.6-0.2,1.1C681.5,190.5,681.4,191.2,681.6,190.6z"/>
					<path class="st4" d="M681.6,189.2c0-0.2,0-0.4,0-0.7C681.6,188.9,681.6,189.1,681.6,189.2z"/>
					<polygon class="st4" points="683.1,464.4 682.6,465.7 683,464.8 					"/>
					<path class="st4" d="M682.4,466.9l-0.3,0.3L682,468C682.1,467.7,682.3,467.2,682.4,466.9z"/>
					<path class="st4" d="M675.9,276l0-0.1c0,0.2,0,0.5,0,1.2L675.9,276z"/>
					<polygon class="st4" points="676.4,295 676.4,294.7 676.2,295.3 					"/>
					<path class="st4" d="M677.2,311c0-0.7-0.1-1.4-0.1-2.1C677.2,310.4,677,311.2,677.2,311z"/>
				</g>
			</g>
		</g>
	</g>
</g>
</svg>
