<?xml version="1.0" encoding="utf-8"?>
<!-- Generator: Adobe Illustrator 21.1.0, SVG Export Plug-In . SVG Version: 6.00 Build 0)  -->
<svg version="1.1" id="圖層_1" xmlns="http://www.w3.org/2000/svg" xmlns:xlink="http://www.w3.org/1999/xlink" x="0px" y="0px"
	 viewBox="0 0 708.7 510.2" style="enable-background:new 0 0 708.7 510.2;" xml:space="preserve">
<style type="text/css">
	.st0{fill:#3BA261;}
	.st1{fill:#F3994F;}
	.st2{fill:#DAB980;}
	.st3{fill:none;stroke:#947F70;stroke-miterlimit:10;}
</style>
<g>
	<g>
		<path class="st0" d="M346,209.6c0,0-11.1,3-9.1,16C337.5,225.3,348.2,223.1,346,209.6z"/>
		<path class="st1" d="M346,209.6l-9.1,16C336.9,225.6,348.6,223.4,346,209.6z"/>
	</g>
	<g>
		<path class="st0" d="M325.1,210c0,0-3.1,11,9,16C334.1,225.4,337.7,215,325.1,210z"/>
		<path class="st1" d="M325.1,210l9,16C334.1,226,338.2,214.8,325.1,210z"/>
	</g>
	<g>
		<path class="st0" d="M315.5,230.8c0,0,9,7,18.2-2.4C333.1,228.2,324.9,220.9,315.5,230.8z"/>
		<path class="st1" d="M315.5,230.8l18.2-2.4C333.7,228.4,324.8,220.4,315.5,230.8z"/>
	</g>
</g>
<g>
	<g>
		<path class="st0" d="M490.3,219c0,0-8.6-7.5-18.3,1.3C472.5,220.5,480.3,228.3,490.3,219z"/>
		<path class="st1" d="M490.3,219l-18.3,1.3C471.9,220.2,480.3,228.8,490.3,219z"/>
	</g>
	<g>
		<path class="st0" d="M460.2,202.4c0,0-3.4,10.9,8.6,16.2C468.8,217.9,472.7,207.7,460.2,202.4z"/>
		<path class="st1" d="M460.2,202.4l8.6,16.2C468.8,218.6,473.2,207.5,460.2,202.4z"/>
	</g>
	<g>
		<path class="st0" d="M471.4,218.9c0,0,10.6-4.3,7-17C478,202.4,467.6,205.9,471.4,218.9z"/>
		<path class="st1" d="M471.4,218.9l7-17C478.5,202,467.1,205.6,471.4,218.9z"/>
	</g>
</g>
<path class="st2" d="M208.7,232.4c45.5,0,80.8,0,148.3,19.4c0.2,0.1,0.5,0.1,0.7,0.1c69.3,9.1,115.1,4.9,141.5-1.1
	c4.7-1.1,9.2,2.5,9.2,7.3l0,10.2c0,0.9-0.5,1.7-1.3,2.4c-1.5,1.4-3.5,2.1-5.5,2.1c-17.8-0.3-133.9-2.3-176-10.9
	c-34-6.7-74.2-10.3-116.2-14c-4.4-0.4-7.5-4.5-6.6-8.8l0.6-3.1C203.9,233.5,206.2,232.2,208.7,232.4z"/>
<g>
	<g>
		<path class="st2" d="M335,230.9c6.1,8.5,12.3,17.1,18.4,25.6c1.9,2.6,6.2,0.1,4.3-2.5c-6.1-8.5-12.3-17.1-18.4-25.6
			C337.4,225.8,333.1,228.3,335,230.9L335,230.9z"/>
	</g>
</g>
<g>
	<g>
		<path class="st2" d="M462.9,223.3c-8.5,11.2-17,22.5-25.5,33.7c-1.3,1.7,1.1,2.6,2.4,2.7c2,0.2,4.5-0.8,5.7-2.4
			c8.5-11.2,17-22.5,25.5-33.7c1.3-1.7-1.1-2.6-2.4-2.7C466.7,220.7,464.2,221.6,462.9,223.3L462.9,223.3z"/>
	</g>
</g>
<g>
	<g>
		<path class="st2" d="M248.8,273.8c10.5-6.3,21.1-12.7,31.6-19c2.8-1.7,0.2-6-2.5-4.3c-10.5,6.3-21.1,12.7-31.6,19
			C243.6,271.1,246.1,275.4,248.8,273.8L248.8,273.8z"/>
	</g>
</g>
<g>
	<g>
		<path class="st2" d="M273,272.1c-1.1-4.3-2.2-8.7-3.3-13c-0.8-3.1-5.6-1.8-4.8,1.3c1.1,4.3,2.2,8.7,3.3,13
			C269,276.6,273.8,275.2,273,272.1L273,272.1z"/>
	</g>
</g>
<g>
	<g>
		<path class="st2" d="M321.9,274.9c8-3.6,16.1-7.1,24.1-10.7c2.9-1.3,0.4-5.6-2.5-4.3c-8,3.6-16.1,7.1-24.1,10.7
			C316.5,271.9,319,276.2,321.9,274.9L321.9,274.9z"/>
	</g>
</g>
<g>
	<g>
		<path class="st2" d="M451.8,219.3c-1.6,8.8-3.1,17.7-4.7,26.5c-0.6,3.1,4.3,4.5,4.8,1.3c1.6-8.8,3.1-17.7,4.7-26.5
			C457.2,217.5,452.4,216.2,451.8,219.3L451.8,219.3z"/>
	</g>
</g>
<path class="st3" d="M236.3,245.7c0-1.8,8.4-3.3,18.8-3.3"/>
<path class="st3" d="M243.6,240.2c0-1.4,7.8-2.6,17.5-2.6"/>
<path class="st3" d="M295.2,242.5c0,1.8,7.8,3.3,17.5,3.3"/>
<path class="st3" d="M291.8,245.7c0,2.4,7.3,4.3,16.2,4.3"/>
<path class="st3" d="M355.5,262.1c0,1.3,8.3,2.4,18.6,2.4"/>
<path class="st3" d="M348.9,254.7c0,2.6,7.1,4.7,15.9,4.7"/>
<path class="st3" d="M417.2,267.4c0-2.3,6.9-4.1,15.4-4.1"/>
<path class="st3" d="M411.2,264.5c0-2.8,7.3-5.1,16.2-5.1"/>
<path class="st3" d="M483.7,261.9c0,2.4,6.5,4.3,14.5,4.3"/>
<path class="st3" d="M475,263.5c0,3.1,7.8,5.5,17.5,5.5"/>
<g>
	<g>
		<path class="st0" d="M227.2,265.7c0,0,4.7,10.4,17.2,6.5C244,271.6,240.1,261.3,227.2,265.7z"/>
		<path class="st1" d="M227.2,265.7l17.2,6.5C244.4,272.1,240.3,260.9,227.2,265.7z"/>
	</g>
	<g>
		<path class="st0" d="M247.7,293.3c0,0,7.6-8.6-1.1-18.3C246.3,275.5,238.4,283.3,247.7,293.3z"/>
		<path class="st1" d="M247.7,293.3l-1.1-18.3C246.5,274.9,238,283.2,247.7,293.3z"/>
	</g>
	<g>
		<path class="st0" d="M244.3,273.5c0,0-11.4-0.4-13.4,12.5C231.4,285.9,242.4,287,244.3,273.5z"/>
		<path class="st1" d="M244.3,273.5l-13.4,12.5C230.8,286.1,242.7,287.4,244.3,273.5z"/>
	</g>
</g>
<g>
	<g>
		<path class="st2" d="M355.4,275.2c5-3.1,10-6.3,15-9.4c2.7-1.7,0.2-6-2.5-4.3c-5,3.1-10,6.3-15,9.4
			C350.2,272.6,352.7,277,355.4,275.2L355.4,275.2z"/>
	</g>
</g>
<g>
	<g>
		<path class="st2" d="M466.3,285c-6.8-6.4-13.6-12.9-20.4-19.3c-2.3-2.2-5.9,1.3-3.5,3.5c6.8,6.4,13.6,12.9,20.4,19.3
			C465.1,290.7,468.7,287.2,466.3,285L466.3,285z"/>
	</g>
</g>
<g>
	<g>
		<path class="st2" d="M449.1,289.3c1.1-5.2,2.2-10.4,3.3-15.7c0.7-3.1-4.1-4.5-4.8-1.3c-1.1,5.2-2.2,10.4-3.3,15.7
			C443.6,291.1,448.4,292.4,449.1,289.3L449.1,289.3z"/>
	</g>
</g>
<g>
	<g>
		<path class="st2" d="M389.9,243c4.3,7.3,8.6,14.5,12.9,21.8c1.6,2.8,6,0.3,4.3-2.5c-4.3-7.3-8.6-14.5-12.9-21.8
			C392.6,237.7,388.2,240.2,389.9,243L389.9,243z"/>
	</g>
</g>
<g>
	<path class="st0" d="M445.3,291.7c0,0-11.4-0.8-13.8,12.1C432.1,303.7,443,305.2,445.3,291.7z"/>
	<path class="st1" d="M445.3,291.7l-13.8,12.1C431.4,303.8,443.3,305.6,445.3,291.7z"/>
</g>
<g>
	<path class="st0" d="M446.6,291.7c0,0-3.1,11,9,16C455.6,307.1,459.3,296.8,446.6,291.7z"/>
	<path class="st1" d="M446.6,291.7l9,16C455.6,307.8,459.7,296.5,446.6,291.7z"/>
</g>
</svg>
