<?xml version="1.0" encoding="utf-8"?>
<!-- Generator: Adobe Illustrator 21.1.0, SVG Export Plug-In . SVG Version: 6.00 Build 0)  -->
<svg version="1.1" id="圖層_1" xmlns="http://www.w3.org/2000/svg" xmlns:xlink="http://www.w3.org/1999/xlink" x="0px" y="0px"
	 viewBox="0 0 708.7 510.2" style="enable-background:new 0 0 708.7 510.2;" xml:space="preserve">
<style type="text/css">
	.st0{fill:#C8E6F4;}
</style>
<path class="st0" d="M134.3,324.5c40.7,9.9,43-33.5,130.2,0.7s77.9-14,148.3-1.3c70.3,12.8,70.3-10.1,120.9-2.7
	c50.6,7.4,54.7-21.1,54.7-21.1s10.5-40.7-27.9-48.3c-22.7-1.8-9.3-30.8-48.3-46.5s-48.3,49.4-75-11.6c-15-27.7-41.9-8.1-70.9-26.2
	s-55.3-3.3-64.6,10.1s-31.4,18.6-66.3,15.7s-49.5,23.3-51.7,40.1c-3,22.8-19.2,29.4-55.8,34.7S103.5,317,134.3,324.5z"/>
</svg>
