<svg id="圖層_1" data-name="圖層 1" xmlns="http://www.w3.org/2000/svg" viewBox="0 0 284.08 417.56"><defs><style>.cls-1,.cls-3{fill:#fff;}.cls-2,.cls-6{fill:#040000;}.cls-3,.cls-5,.cls-6{stroke:#040000;}.cls-10,.cls-3,.cls-5,.cls-6,.cls-8{stroke-miterlimit:10;}.cls-4{fill:#f09392;}.cls-10,.cls-5,.cls-8{fill:none;}.cls-7{fill:#626262;}.cls-10,.cls-8{stroke:#896138;}.cls-8{stroke-width:3px;}.cls-9{fill:#896138;}.cls-11{fill:#354a9d;}.cls-12{fill:#cececf;}.cls-13{fill:#ddddde;}</style></defs><title>doctor_bear</title><path d="M1280,4304.45c-0.42,6.59-.59,13.21-1.32,19.77-1.8,16.25-8.09,22.31-24.41,23.19a216.85,216.85,0,0,1-23.44-.14c-9.88-.54-17-5.77-20.87-14.75a81.4,81.4,0,0,1-5.21-16.1c-4.21-20.87-12.16-40.46-20-60.08-0.6-1.49-3-3.26-4.51-3.24-20.63.3-30.75-12.76-34.67-30.45-4.09-18.42-3.41-37-1.23-55.73,5.77-49.44,24.52-93.79,52-134.83a18.26,18.26,0,0,0,2.35-4.92c5.52-18.84,11-37.68,16.3-56.59,0.38-1.35-.61-3.46-1.59-4.74-6.31-8.22-6-18.11,1-25.93,5.57-6.2,17.18-7.29,24.94-2.51,1.18,0.73,3.3,1.49,4.18.94,13.81-8.61,29.13-8.51,44.54-8.07,11.35,0.32,22.14,2.61,30,7.82,7.14-1.38,12.79-3.81,18.12-3.26,15.76,1.63,22.21,18.39,12.63,31-1,1.37-1.85,3.72-1.44,5.24q7.4,26.95,15.33,53.75a35.37,35.37,0,0,0,4.61,9.32c25.15,37.73,42,78.8,49.58,123.54,1.56,9.25,1.1,18.83,2,28.21a119.3,119.3,0,0,1-2.88,38.78c-2.23,9.53-6.81,17.95-15.39,23.58a28.49,28.49,0,0,1-17.44,4.58c-3.34-.16-5.07.88-6.29,4.07-7.71,20.22-15.66,40.33-20.12,61.63a74.18,74.18,0,0,1-5.93,16.34c-3.29,6.93-9.32,11.49-16.81,11.91a240.09,240.09,0,0,1-33.32-.49c-8.94-.74-14.51-6.68-16-15.49-1.24-7.52-1.46-15.2-2.22-22.81a24,24,0,0,0-1.07-3.93Zm3.7-202.69c21.12-.34,40.45-11.89,58.3-22.75,6.5-4,8.27-10.32,4.83-16.17s-9.91-7-16.53-3.34a75.2,75.2,0,0,1-11.14,5.56c-38.19,19.53-41.18,22.78-82.32-5.68-6.39-3.59-12.63-2.35-16.16,3.27-3.65,5.81-1.76,12.45,4.95,16.51C1243.56,4090,1263.58,4101.42,1283.74,4101.76Zm-24.06-125.6a7.35,7.35,0,0,0,7-7.54,7.26,7.26,0,0,0-7.54-7A7.28,7.28,0,0,0,1259.68,3976.15Zm45.93,0a7.39,7.39,0,0,0,7-7.55,7.15,7.15,0,1,0-14.29.3A7.14,7.14,0,0,0,1305.61,3976.15Z" transform="translate(-1138 -3930.11)"/><path class="cls-1" d="M1287.6,4209.38c1.36,3.37,8.38,5.41,3.53,10-4.34,4.12-6.21-2.45-9.86-3.88-1.21,1.15-2.46,3-4.18,3.78a6.38,6.38,0,0,1-5.12.15c-2.05-1.16-2-3.51-.54-5.41,1.18-1.52,2.62-2.83,4.1-4.4-1.54-3.14-7.81-5.49-3.3-9.73,4.16-3.91,6.19,2,9.17,3.53,3.14-1.24,5.07-7.74,9.42-3.29C1294.85,4204.25,1288.88,4206.35,1287.6,4209.38Z" transform="translate(-1138 -3930.11)"/><path class="cls-1" d="M1259.68,3976.14a7.28,7.28,0,0,1-.54-14.54,7.26,7.26,0,0,1,7.54,7A7.35,7.35,0,0,1,1259.68,3976.14Z" transform="translate(-1138 -3930.11)"/><path class="cls-1" d="M1305.61,3976.15a7.14,7.14,0,0,1-7.25-7.25,7.15,7.15,0,1,1,14.29-.3A7.39,7.39,0,0,1,1305.61,3976.15Z" transform="translate(-1138 -3930.11)"/><path d="M1282.69,3976.41a6.8,6.8,0,0,1-7.23-6.64c-0.21-4.12,14.19-4.38,14.16-.34A6.87,6.87,0,0,1,1282.69,3976.41Z" transform="translate(-1138 -3930.11)"/><circle class="cls-2" cx="121.54" cy="39.07" r="6.07"/><circle class="cls-2" cx="167.54" cy="39.07" r="6.07"/><path class="cls-3" d="M1260.51,3986.06c7.77-4.92,37-15.88,45.94-2.54,4.94,7.34,2.86,20.69-4.77,26.7-4.11,3.23-8.69,3.46-14.17,3.73-5,.25-18.14.89-26.1-8.05-3.18-3.57-7.08-10.41-4.77-15.66A9.62,9.62,0,0,1,1260.51,3986.06Z" transform="translate(-1138 -3930.11)"/><path d="M1284,3994c-7.34.09-12.79-2.66-13.16-6.64s25.8-4.38,25.75-.34S1291.24,3993.88,1284,3994Z" transform="translate(-1138 -3930.11)"/><path class="cls-4" d="M1234.46,3978.44c5.05-2.59,14.53-1.24,17.3,5.77,2.6,6.59-2.42,13.93-8.65,16-5.88,2-13.42-.6-15.57-6.05-2.46-6.23,3.47-12.81,3.89-13.26A10.53,10.53,0,0,1,1234.46,3978.44Z" transform="translate(-1138 -3930.11)"/><path class="cls-4" d="M1318.73,3995.79c-4.73-3.14-8.19-12.07-3.43-17.91,4.48-5.49,13.33-4.7,18.18-.28,4.58,4.17,6,12,2.34,16.54-4.23,5.19-12.87,3.24-13.47,3.09A10.53,10.53,0,0,1,1318.73,3995.79Z" transform="translate(-1138 -3930.11)"/><path class="cls-5" d="M1275.45,4002.31s8.7,12.1,15.76,0" transform="translate(-1138 -3930.11)"/><path class="cls-6" d="M1346.78,3973.35c2.89-4.8,5.93-7.42,7.75-6.75,1.26,0.46,2,2.53,1.75,4.25-0.68,4.34-7.85,6.05-7.5,7.25s9-.84,9.75,1c0.39,1-1.48,2.64-3.25,4-2.22,1.7-4.7,1-4.75,1.5-0.1.88,7.7,1.78,7.75,3.25,0,0.7-1.7,1.6-7.5,2.75-0.53.1,7.31-.82,8.25,1.33,0.5,1.15-.84,3.16-2.5,4a6.78,6.78,0,0,1-5.67-.17c0-.21,4.92-0.43,8.5,2.17,0.33,0.24,2.52,1.83,2.17,2.83-0.42,1.2-4.29,1.15-7.17.33a13.76,13.76,0,0,1-4.17-2c-0.09-.06,2.29.88,11.58,5.49,1.17,0.58-1.76,2.61-3.25,3-2.28.59-4.82-.7-4.75-1s4.93-.45,7.5,2.25c0.27,0.28,1.54,1.67,1.13,2.63-0.48,1.11-3,1.1-4.62.75s-3.32-1.31-3.25-1.5,5.45,1,8.88,4.5c0.87,0.9,1.14,1.45,1,1.88-0.37,1.07-3.39,1.12-5.5.63a10.37,10.37,0,0,1-4.75-2.62c-0.15-.14,2.4.89,10.88,5.63,0.73,0.41,1.46.93,1.38,1.38-0.15.82-3,1.07-5,.88a13,13,0,0,1-6.37-2.5" transform="translate(-1138 -3930.11)"/><path class="cls-6" d="M1215.07,3973.35c-2.89-4.8-5.93-7.42-7.75-6.75-1.26.46-2,2.53-1.75,4.25,0.68,4.34,7.85,6.05,7.5,7.25s-9-.84-9.75,1c-0.39,1,1.48,2.64,3.25,4,2.22,1.7,4.7,1,4.75,1.5,0.1,0.88-7.7,1.78-7.75,3.25,0,0.7,1.7,1.6,7.5,2.75,0.53,0.1-7.31-.82-8.25,1.33-0.5,1.15.84,3.16,2.5,4a6.78,6.78,0,0,0,5.67-.17c0-.21-4.92-0.43-8.5,2.17-0.33.24-2.52,1.83-2.17,2.83,0.42,1.2,4.29,1.15,7.17.33a13.76,13.76,0,0,0,4.17-2c0.09-.06-2.29.88-11.58,5.49-1.17.58,1.76,2.61,3.25,3,2.28,0.59,4.82-.7,4.75-1s-4.93-.45-7.5,2.25c-0.27.28-1.54,1.67-1.12,2.63,0.48,1.11,3,1.1,4.63.75s3.32-1.31,3.25-1.5-5.45,1-8.87,4.5c-0.87.9-1.14,1.45-1,1.88,0.37,1.07,3.39,1.12,5.5.63a10.37,10.37,0,0,0,4.75-2.62c0.15-.14-2.4.89-10.87,5.63-0.73.41-1.46,0.93-1.37,1.38,0.15,0.82,3,1.07,5,.88a13,13,0,0,0,6.38-2.5" transform="translate(-1138 -3930.11)"/><path class="cls-1" d="M1283.74,4102.43c21.12-.34,40.45-11.89,58.3-22.75,6.5-4,8.27-10.32,4.83-16.17s-9.91-7-16.53-3.34a75.2,75.2,0,0,1-11.14,5.56c-38.19,19.53-41.18,22.78-82.32-5.68-6.39-3.59-12.63-2.35-16.16,3.27-3.65,5.81-1.76,12.45,4.95,16.51C1243.56,4090.65,1263.58,4102.09,1283.74,4102.43Z" transform="translate(-1138 -3930.11)"/><path class="cls-7" d="M1265.15,3999.11a9.29,9.29,0,0,0,3,3.49,11,11,0,0,0,3.76,1.74,11.79,11.79,0,0,0,4.45.24,12.14,12.14,0,0,0,4.31-1.44,10.5,10.5,0,0,0,3.43-3,5.31,5.31,0,0,0,.3-0.47,8.17,8.17,0,0,0,1.59,1.92,11.3,11.3,0,0,0,2,1.45,12.12,12.12,0,0,0,4.62,1.56,11.74,11.74,0,0,0,4.76-.38,10.9,10.9,0,0,0,4-2.12A8.42,8.42,0,0,0,1304,3998c0-.07.08-0.2,0-0.2a0.63,0.63,0,0,0-.14,0l-0.18.05-0.62.17c-0.42.11-.84,0.2-1.27,0.28a14.89,14.89,0,0,1-1.48.19,12.51,12.51,0,0,1-4.75-.48,15.55,15.55,0,0,1-4.18-2.18c-0.37-.26-0.73-0.53-1.11-0.78a7.09,7.09,0,0,0-1.19-.69,3.78,3.78,0,0,0-4.06.78,2.13,2.13,0,0,1-4.08-1.07,3.79,3.79,0,0,0-1.85.59c-0.42.26-.83,0.54-1.24,0.83a18.61,18.61,0,0,1-4,2.29,12.31,12.31,0,0,1-5.32.71,15,15,0,0,1-1.8-.24c-0.47-.09-0.94-0.21-1.4-0.33l-0.35-.1c-0.06,0-.26-0.11-0.29,0a0.42,0.42,0,0,0,0,.16l0,0.17q0,0.17.11,0.33C1265,3998.68,1265,3998.9,1265.15,3999.11Z" transform="translate(-1138 -3930.11)"/><path class="cls-7" d="M1173.79,4135.16a9,9,0,0,0,.53,4.4,1.54,1.54,0,0,0,1.85,1,1.51,1.51,0,0,0,1-1.85,7.07,7.07,0,0,1-.42-3.6,1.51,1.51,0,0,0-1.5-1.5,1.54,1.54,0,0,0-1.5,1.5h0Z" transform="translate(-1138 -3930.11)"/><path class="cls-7" d="M1183.78,4135.66v2a1.5,1.5,0,0,0,3,0v-2a1.5,1.5,0,0,0-3,0h0Z" transform="translate(-1138 -3930.11)"/><path class="cls-7" d="M1197,4134.14l0.59,6.54c0.17,1.91,3.17,1.93,3,0l-0.59-6.54c-0.17-1.91-3.17-1.93-3,0h0Z" transform="translate(-1138 -3930.11)"/><path class="cls-7" d="M1366.33,4148.06l1.41,6c0.44,1.88,3.33,1.08,2.89-.8l-1.41-6c-0.44-1.88-3.33-1.08-2.89.8h0Z" transform="translate(-1138 -3930.11)"/><path class="cls-7" d="M1380.25,4150.07l0.51,2.5a1.5,1.5,0,0,0,2.89-.8l-0.51-2.5a1.5,1.5,0,1,0-2.89.8h0Z" transform="translate(-1138 -3930.11)"/><path class="cls-7" d="M1325.38,4273.54a12.46,12.46,0,0,1,.87,6.62c-0.25,1.91,2.75,1.89,3,0a14.29,14.29,0,0,0-1-7.42c-0.73-1.76-3.64-1-2.89.8h0Z" transform="translate(-1138 -3930.11)"/><path class="cls-7" d="M1335,4272.92a4.68,4.68,0,0,1,.82,2.74,1.5,1.5,0,0,0,3,0,7.54,7.54,0,0,0-1.23-4.25,1.53,1.53,0,0,0-2.05-.54,1.52,1.52,0,0,0-.54,2.05h0Z" transform="translate(-1138 -3930.11)"/><path class="cls-7" d="M1350.75,4268.7a3.24,3.24,0,0,1,.55,2.56c-0.38,1.88,2.51,2.69,2.89.8a6.5,6.5,0,0,0-1.33-5.48,1.51,1.51,0,0,0-2.12,0,1.54,1.54,0,0,0,0,2.12h0Z" transform="translate(-1138 -3930.11)"/><path class="cls-7" d="M1196.54,4259.91a0.57,0.57,0,1,1,.14.07q0.17,0.19,0,0,0.11,0.21,0,.06c0-.25.08,0.41,0,0.14a0.25,0.25,0,1,0,0,.07q0.05-.26,0,0a1.5,1.5,0,1,0,2.89.8,3.31,3.31,0,0,0-1.62-3.73,1.53,1.53,0,0,0-2.05.54,1.52,1.52,0,0,0,.54,2.05h0Z" transform="translate(-1138 -3930.11)"/><path class="cls-7" d="M1206.9,4256l1.46,3.52a1.55,1.55,0,0,0,1.85,1,1.51,1.51,0,0,0,1-1.85l-1.46-3.52a1.55,1.55,0,0,0-1.85-1,1.51,1.51,0,0,0-1,1.85h0Z" transform="translate(-1138 -3930.11)"/><path class="cls-7" d="M1216.28,4253.66v9.5a1.5,1.5,0,0,0,3,0v-9.5a1.5,1.5,0,0,0-3,0h0Z" transform="translate(-1138 -3930.11)"/><path class="cls-7" d="M1255.26,4148.66a32.3,32.3,0,0,0,1.1,7.89,1.5,1.5,0,0,0,2.89-.8,28.88,28.88,0,0,1-1-7.09c0-1.93-3-1.93-3,0h0Z" transform="translate(-1138 -3930.11)"/><path class="cls-7" d="M1262.28,4150.15a8,8,0,0,1,2,2.91,1.54,1.54,0,0,0,1.85,1,1.51,1.51,0,0,0,1-1.85,11.4,11.4,0,0,0-2.8-4.24c-1.41-1.32-3.53.79-2.12,2.12h0Z" transform="translate(-1138 -3930.11)"/><path class="cls-7" d="M1277.78,4148.66v5.5a1.5,1.5,0,0,0,3,0v-5.5a1.5,1.5,0,0,0-3,0h0Z" transform="translate(-1138 -3930.11)"/><path class="cls-7" d="M1200.73,4194.71a15.55,15.55,0,0,1,3.6,5.35c0.7,1.77,3.61,1,2.89-.8a19.11,19.11,0,0,0-4.37-6.67,1.5,1.5,0,0,0-2.12,2.12h0Z" transform="translate(-1138 -3930.11)"/><path class="cls-7" d="M1211.91,4192l1.88,5c0.67,1.79,3.57,1,2.89-.8l-1.88-5c-0.67-1.79-3.57-1-2.89.8h0Z" transform="translate(-1138 -3930.11)"/><path class="cls-7" d="M1222.25,4189.57l1,5.5c0.34,1.9,3.23,1.09,2.89-.8l-1-5.5c-0.34-1.9-3.23-1.09-2.89.8h0Z" transform="translate(-1138 -3930.11)"/><path class="cls-7" d="M1340.77,4197.16a22.14,22.14,0,0,0,1.57,8.4c0.71,1.77,3.61,1,2.89-.8a19.9,19.9,0,0,1-1.46-7.6,1.5,1.5,0,0,0-3,0h0Z" transform="translate(-1138 -3930.11)"/><path class="cls-7" d="M1347.46,4202.43l1,1.51a1.53,1.53,0,0,0,2.05.54,1.52,1.52,0,0,0,.54-2.05l-1-1.51a1.53,1.53,0,0,0-2.05-.54,1.52,1.52,0,0,0-.54,2.05h0Z" transform="translate(-1138 -3930.11)"/><path class="cls-7" d="M1353.69,4201.82a50.8,50.8,0,0,1,2.57,7.25,1.5,1.5,0,0,0,2.89-.8,55.85,55.85,0,0,0-2.88-8c-0.78-1.76-3.37-.24-2.59,1.51h0Z" transform="translate(-1138 -3930.11)"/><path class="cls-7" d="M1224.52,4319.89a7.11,7.11,0,0,1,1.23,3.27,1.54,1.54,0,0,0,1.5,1.5,1.51,1.51,0,0,0,1.5-1.5,10.26,10.26,0,0,0-1.64-4.79c-1.07-1.6-3.67-.1-2.59,1.51h0Z" transform="translate(-1138 -3930.11)"/><path class="cls-7" d="M1231.76,4316.59l1.54,4a1.54,1.54,0,0,0,1.85,1,1.51,1.51,0,0,0,1-1.85l-1.54-4a1.54,1.54,0,0,0-1.85-1,1.51,1.51,0,0,0-1,1.85h0Z" transform="translate(-1138 -3930.11)"/><path class="cls-7" d="M1241.37,4314.55l1.91,6.53c0.54,1.85,3.44,1.06,2.89-.8l-1.91-6.53c-0.54-1.85-3.44-1.06-2.89.8h0Z" transform="translate(-1138 -3930.11)"/><path class="cls-7" d="M1338.73,4101.08l0.49,3a1.51,1.51,0,0,0,1.85,1,1.54,1.54,0,0,0,1-1.85l-0.49-3a1.51,1.51,0,0,0-1.85-1,1.54,1.54,0,0,0-1,1.85h0Z" transform="translate(-1138 -3930.11)"/><path class="cls-7" d="M1343.53,4098.39l2.38,5.06c0.82,1.75,3.41.22,2.59-1.51l-2.38-5.06c-0.82-1.75-3.41-.22-2.59,1.51h0Z" transform="translate(-1138 -3930.11)"/><path class="cls-7" d="M1355.14,4097.31a19.78,19.78,0,0,1,3.16,8.25c0.28,1.9,3.17,1.09,2.89-.8a21.83,21.83,0,0,0-3.46-9c-1.07-1.6-3.67-.1-2.59,1.51h0Z" transform="translate(-1138 -3930.11)"/><path class="cls-7" d="M1269.72,4050.22a4.58,4.58,0,0,1,1,2.44,1.54,1.54,0,0,0,1.5,1.5,1.51,1.51,0,0,0,1.5-1.5,8.12,8.12,0,0,0-1.93-4.57,1.51,1.51,0,0,0-2.12,0,1.53,1.53,0,0,0,0,2.12h0Z" transform="translate(-1138 -3930.11)"/><path class="cls-7" d="M1275.57,4048.34a6.78,6.78,0,0,1,1.5,4.31,1.5,1.5,0,0,0,3,0,9.41,9.41,0,0,0-1.91-5.82,1.55,1.55,0,0,0-2.05-.54,1.51,1.51,0,0,0-.54,2.05h0Z" transform="translate(-1138 -3930.11)"/><path class="cls-7" d="M1285,4048l1.93,7.52c0.48,1.87,3.37,1.08,2.89-.8l-1.93-7.52c-0.48-1.87-3.37-1.08-2.89.8h0Z" transform="translate(-1138 -3930.11)"/><path class="cls-7" d="M1182.22,4087.22l0.5,0.5a1.5,1.5,0,0,0,2.12-2.12l-0.5-.5a1.5,1.5,0,1,0-2.12,2.12h0Z" transform="translate(-1138 -3930.11)"/><path class="cls-7" d="M1193.36,4081.27a8.73,8.73,0,0,0,.4,4.82,1.55,1.55,0,0,0,1.85,1,1.51,1.51,0,0,0,1-1.85,5.84,5.84,0,0,1-.4-3.23,1.54,1.54,0,0,0-1-1.85,1.51,1.51,0,0,0-1.85,1h0Z" transform="translate(-1138 -3930.11)"/><path class="cls-7" d="M1208,4078.41a8.1,8.1,0,0,1,1.31,3.74c0.16,1.91,3.16,1.93,3,0a11.31,11.31,0,0,0-1.72-5.26c-1-1.62-3.64-.12-2.59,1.51h0Z" transform="translate(-1138 -3930.11)"/><circle class="cls-8" cx="121.28" cy="36.43" r="16.98"/><circle class="cls-8" cx="168.19" cy="36.43" r="16.98"/><path class="cls-9" d="M1276.5,3969h11a1.5,1.5,0,0,0,0-3h-11a1.5,1.5,0,0,0,0,3h0Z" transform="translate(-1138 -3930.11)"/><path class="cls-10" d="M1323.17,3966.54" transform="translate(-1138 -3930.11)"/><path class="cls-9" d="M1323.91,3968a227.63,227.63,0,0,1,25.52-5.36c1.9-.29,1.09-3.18-0.8-2.89a227.63,227.63,0,0,0-25.52,5.36,1.5,1.5,0,0,0,.8,2.89h0Z" transform="translate(-1138 -3930.11)"/><path class="cls-9" d="M1240.85,3965.29a235.62,235.62,0,0,0-27.85-6.18c-1.89-.3-2.7,2.59-0.8,2.89a235.62,235.62,0,0,1,27.85,6.18,1.5,1.5,0,0,0,.8-2.89h0Z" transform="translate(-1138 -3930.11)"/><path class="cls-1" d="M1182.43,4050.12S1118.51,4156,1144,4228.75c19.22,6.25,44.45,0,44.45,0l20.82-178.63h-26.85Z" transform="translate(-1138 -3930.11)"/><path class="cls-1" d="M1377.65,4050.12s63.93,105.88,38.43,178.63c-19.22,6.25-44.45,0-44.45,0l-20.82-178.63h26.85Z" transform="translate(-1138 -3930.11)"/><path class="cls-1" d="M1350.8,4035.21l-18.93.81-50.14,75.3-48.24-71.07-24.86,1.07s-30.56,209.46-25.34,212.8,193.61,3.81,193.61,3.81Z" transform="translate(-1138 -3930.11)"/><path class="cls-11" d="M1233.17,4051.62" transform="translate(-1138 -3930.11)"/><path class="cls-11" d="M1334.66,4047.85" transform="translate(-1138 -3930.11)"/><path class="cls-11" d="M1331.86,4051.88" transform="translate(-1138 -3930.11)"/><line class="cls-11" x1="95.48" y1="125.69" x2="95.97" y2="125.67"/><path class="cls-11" d="M1233.48,4055.8" transform="translate(-1138 -3930.11)"/><line class="cls-11" x1="95.17" y1="121.51" x2="92.22" y2="121.62"/><polygon class="cls-12" points="143.61 178.17 144.38 193.72 60.02 137.81 103.82 119.27 143.61 178.17"/><path class="cls-13" d="M1241.82,4049.38l-12-16s-26.2,1.46-36.71,3.22l-12.62,12L1214,4060Z" transform="translate(-1138 -3930.11)"/><polygon class="cls-12" points="143.59 178.15 144.26 193.64 227.17 137.74 183.37 119.19 143.59 178.15"/><path class="cls-13" d="M1321.37,4049.3l12.19-16s24.93,1.18,37.24,2.72l12.92,12.51-34.08,11.32Z" transform="translate(-1138 -3930.11)"/></svg>