<?xml version="1.0" encoding="utf-8"?>
<!-- Generator: Adobe Illustrator 21.1.0, SVG Export Plug-In . SVG Version: 6.00 Build 0)  -->
<svg version="1.1" id="圖層_1" xmlns="http://www.w3.org/2000/svg" xmlns:xlink="http://www.w3.org/1999/xlink" x="0px" y="0px"
	 viewBox="0 0 749.2 97.7" style="enable-background:new 0 0 749.2 97.7;" xml:space="preserve">
<style type="text/css">
	.st0{fill:#D5B67F;}
	.st1{fill:#FFFFFF;}
	.st2{fill:none;stroke:#FFFFFF;stroke-linecap:round;stroke-miterlimit:10;}
	.st3{fill:#926034;}
	.st4{fill:#403D34;}
	.st5{fill:#927E6F;}
	.st6{fill:#F5D447;}
	.st7{fill:#409C5F;}
	.st8{fill:#D2DA50;}
	.st9{fill:#66B789;}
	.st10{fill:#E3C287;}
	.st11{fill:none;stroke:#FFFFFF;stroke-width:0.25;stroke-miterlimit:10;}
	.st12{fill:#63AE83;}
	.st13{fill:#63AE83;stroke:#221714;stroke-width:0.25;stroke-miterlimit:10;}
	.st14{fill:none;stroke:#221714;stroke-width:0.25;stroke-miterlimit:10;}
	.st15{fill:none;}
	.st16{fill:none;stroke:#231815;stroke-width:0.25;stroke-miterlimit:10;}
</style>
<g>
	<path class="st0" d="M669.7,75.3c14.1,1.6,28.3,1.5,42.4-0.4c2.6-0.3,4.2-2.9,3.3-5.4c-3.7-10-7.4-20-9.3-27.2
		c-0.5-1.6-2-2.7-3.7-2.8l-18.5-0.7c-1.6-0.1-3.2,0.9-3.9,2.3c-3,9.7-7.7,19.1-13.5,28.3C665.2,72,666.9,75,669.7,75.3z"/>
	<g>
		<g>
			<path class="st1" d="M685.1,42.7c0,2-0.3,4.1-1.3,6c-0.7,1.2-1.7,2.6-3.3,2.6c-0.5,0-0.5,0.7,0,0.7c1.7,0,2.9-1.3,3.7-2.6
				c1.2-2,1.6-4.4,1.6-6.7C685.8,42.3,685.1,42.3,685.1,42.7L685.1,42.7z"/>
		</g>
	</g>
	<path class="st2" d="M689.8,42.2c-0.8,4-0.1,8.5,1,9.4"/>
	<g>
		<g>
			<path class="st1" d="M697.8,42.3c0,2.5,0.4,5.1,1.6,7.3c0.8,1.5,2.1,2.9,3.8,2.9c0.5,0,0.5-0.7,0-0.7c-1.6,0-2.7-1.5-3.4-2.9
				c-1-2-1.3-4.4-1.4-6.6C698.6,41.8,697.8,41.8,697.8,42.3L697.8,42.3z"/>
		</g>
	</g>
	<path class="st2" d="M693.1,42.7c0,4.4,1,7.9,2.3,7.9"/>
	<g>
		<path class="st3" d="M699.2,68.9c-0.8-1.3-1.7-2.4-2.6-3.3c-0.4,2.2-1.1,3.2-2.2,0.5c-0.8,2-1.5,3.2-2.3,0.4
			c-1.3,4.4-2.9-0.3-2.9-0.3s-1.7,2.7-2.4-0.4c-1,1-1.9,2.4-2.6,4.1c-0.2,0.5,0.2,1,0.7,1c4.6,0,9-0.2,13.4-0.6
			C699.2,70.4,699.6,69.6,699.2,68.9z"/>
		<path class="st4" d="M689.2,66.3c0,0,1.5,4.7,2.9,0.3c0.9,2.9,1.6,1.6,2.3-0.4c1.1,2.7,1.8,1.7,2.2-0.5c-3.2-3-7-2.7-9.8,0.2
			C687.5,68.9,689.2,66.3,689.2,66.3z"/>
	</g>
</g>
<image style="overflow:visible;opacity:0.83;enable-background:new    ;" width="646" height="804" xlink:href="Group_Program/04_切版/Forester2.0/BB3CCAB5.png"  transform="matrix(3.317537e-02 2.640784e-03 -2.640784e-03 3.317537e-02 106.4007 19.8412)">
</image>
<path class="st5" d="M0,71.7v26h749.2V62.3c0,0-137.4,21.2-223.3,2.7c-80.4-17.3-118.8,9.2-158.3,6.7c-48.1-3.1-92-29.9-192.3-12.7
	C110.2,72.8,0,61.6,0,61.6V71.7z"/>
<path class="st6" d="M656.4,85.3c-1.3-2.1-2.1-3.9-1.1-9.1c1.5,0.6,4,1.8,3.8,4.5c-1.5-3.1,0-6.3,1.7-7.7c3.1,0.7,4.3,7,3.2,7.1
	s2.3-4.1,2.9-3.7c0.5-0.1,1.8,7,0,7.2c-1.5,0.2,1.4-6,2.8-6.1c0.7,2.5,0.4,5.1-0.7,7.8c-0.1,0.4-0.5,0.6-0.9,0.6
	c-3.9,0.3-7.5,0.3-10.8,0C656.9,85.8,656.6,85.6,656.4,85.3z"/>
<path class="st7" d="M117.7,87.1c-1.3-2.2-2.2-4.1-1.2-9.5c1.6,0.7,4.2,1.8,4,4.7c-1.6-3.2,0-6.6,1.8-8c3.2,0.8,4.5,7.4,3.3,7.4
	s2.4-4.3,3.1-3.9c0.5-0.1,1.8,7.3,0,7.5c-1.5,0.2,1.5-6.3,2.9-6.4c0.7,2.6,0.4,5.3-0.7,8.1c-0.1,0.4-0.5,0.6-0.9,0.7
	c-4.1,0.3-7.9,0.3-11.3,0C118.2,87.6,117.9,87.4,117.7,87.1z"/>
<path class="st8" d="M75.9,73.2c-1.8-2.9-2.9-5.4-1.5-12.5c2.1,0.9,5.5,2.4,5.2,6.1c-2.1-4.2-0.1-8.6,2.3-10.5
	c4.2,1,5.9,9.7,4.3,9.7c-1.6,0.1,3.1-5.7,4-5.1c0.6-0.2,2.4,9.6,0,9.8c-2,0.3,1.9-8.2,3.8-8.4c0.9,3.4,0.5,6.9-0.9,10.7
	c-0.2,0.5-0.6,0.8-1.2,0.9c-5.3,0.4-10.3,0.4-14.8,0C76.5,73.9,76.2,73.6,75.9,73.2z"/>
<path class="st9" d="M710.9,69.8c-1-1.7-1.7-3.1-0.9-7.2c1.2,0.5,3.2,1.4,3,3.5c-1.2-2.4,0-5,1.3-6.1c2.4,0.6,3.4,5.6,2.5,5.6
	s1.8-3.3,2.3-3c0.4-0.1,1.4,5.5,0,5.7c-1.2,0.2,1.1-4.7,2.2-4.8c0.5,1.9,0.3,4-0.5,6.2c-0.1,0.3-0.4,0.5-0.7,0.5
	c-3.1,0.2-5.9,0.2-8.5,0C711.3,70.1,711.1,70,710.9,69.8z"/>
<g>
	<path class="st10" d="M53.7,84.1h4.9c0.4,0,0.8-0.3,0.8-0.8l-0.3-47.7c0-0.3-0.2-0.7-0.6-0.7h-0.2c-0.5-0.1-0.9,0.2-1,0.7
		l-4.4,47.8C52.9,83.7,53.2,84.1,53.7,84.1z"/>
	<g>
		<g>
			<path class="st10" d="M52.4,46.2c1.3,2.1,2.6,4.3,3.9,6.4c0.6,1,2.3,0.1,1.6-1c-1.3-2.1-2.6-4.3-3.9-6.4
				C53.4,44.2,51.8,45.2,52.4,46.2L52.4,46.2z"/>
		</g>
	</g>
	<g>
		<g>
			<path class="st10" d="M63,53.2c-2.3,3.6-4.7,7.1-7.1,10.7c-0.7,1,1,2,1.6,1c2.3-3.6,4.7-7.1,7.1-10.7
				C65.3,53.2,63.6,52.2,63,53.2L63,53.2z"/>
		</g>
	</g>
	<g>
		<g>
			<path class="st10" d="M60.3,38.3c-0.8,1-1.7,2-2.5,3.1c-0.3,0.4-0.4,0.9,0,1.3c0.3,0.3,1,0.4,1.3,0c0.8-1,1.7-2,2.5-3.1
				c0.3-0.4,0.4-0.9,0-1.3C61.3,38,60.6,37.9,60.3,38.3L60.3,38.3z"/>
		</g>
	</g>
	<path class="st11" d="M57.8,36.5c0,1,0.5,1.7,1.1,1.7"/>
	<path class="st11" d="M57.6,37.5c0.3,0.9,0.9,1.5,1.4,1.4"/>
	<path class="st11" d="M58.4,40.5c0,0.5-0.4,0.9-0.9,0.9"/>
	<path class="st11" d="M58.4,41.4c0,0.4-0.4,0.7-0.9,0.7"/>
	<path class="st11" d="M57.1,46.3c0,0.4,0.8,0.8,1.8,0.8"/>
	<path class="st11" d="M56.9,46.7c0,0.6,0.6,1,1.4,1"/>
	<path class="st11" d="M57.5,51.7c0,0.3-0.4,0.6-0.8,0.6"/>
	<path class="st11" d="M57.9,52.3c0,0.4-0.6,0.8-1.3,0.8"/>
	<path class="st11" d="M57.6,56.7c0,0.4,0.6,0.8,1.3,0.8"/>
	<path class="st11" d="M57.1,57.1c0,0.6,0.7,1.2,1.5,1.2"/>
	<path class="st11" d="M56.2,62.2c0,0.6-0.4,1.2-1,1.2"/>
	<path class="st11" d="M57.1,62.5c0,0.9-0.6,1.7-1.5,1.7"/>
	<path class="st11" d="M57.4,68.3c0,0.6,0.8,1.2,1.9,1.2"/>
	<path class="st11" d="M56.4,68c0,1.1,0.9,2,2,2"/>
	<path class="st12" d="M64.7,52.1c-1.1-0.8-0.6-2.4,0.4-5.1c0.9-2.3,3.4-3.1,4.5-2.4s1.3,3.3-0.4,5.1C67,52,65.8,52.9,64.7,52.1z"/>
	<path class="st13" d="M69.2,46.3c-1.8,0.6-3.8,2.4-4.4,6.1"/>
	<line class="st14" x1="67.9" y1="47.6" x2="69.4" y2="47.9"/>
	<line class="st14" x1="67.4" y1="45.7" x2="67.6" y2="46.5"/>
	<line class="st14" x1="66.3" y1="46.6" x2="66.7" y2="47.8"/>
	<line class="st14" x1="66.9" y1="48.6" x2="68.8" y2="49.1"/>
	<path class="st12" d="M62.4,38c0.9,0.8,2.3,0,4.4-1.7c1.8-1.4,1.9-3.8,1-4.6c-0.9-0.8-3.3-0.3-4.4,1.7C62,35.9,61.5,37.2,62.4,38z"
		/>
	<path class="st13" d="M66.5,32.5c-0.1,1.8-1.2,4-4.3,5.5"/>
	<line class="st14" x1="65.6" y1="34" x2="64.9" y2="32.8"/>
	<line class="st14" x1="67.4" y1="34" x2="66.6" y2="34"/>
	<line class="st14" x1="66.9" y1="35.2" x2="65.8" y2="35.1"/>
	<line class="st14" x1="65" y1="35.2" x2="64.1" y2="33.6"/>
	<path class="st12" d="M52,44.1c-1.1,0.6-2.2-0.5-4.1-2.4c-1.6-1.7-1.2-4.1-0.1-4.7c1.1-0.6,3.3,0.3,4.1,2.4
		C52.9,42,53.1,43.4,52,44.1z"/>
	<path class="st13" d="M49,37.9c-0.2,1.8,0.5,4.2,3.3,6.1"/>
	<line class="st14" x1="49.6" y1="39.6" x2="50.5" y2="38.4"/>
	<line class="st14" x1="48.1" y1="40.5" x2="49.3" y2="40.7"/>
	<line class="st14" x1="50" y1="40.8" x2="51.2" y2="39.4"/>
	<path class="st12" d="M57.3,33.9c-1.2,0.2-1.9-1.3-2.8-3.8c-0.8-2.1,0.5-4.2,1.7-4.4c1.2-0.2,2.9,1.5,2.8,3.8
		C58.9,32.4,58.5,33.7,57.3,33.9z"/>
	<path class="st13" d="M56.9,27.1c-0.9,1.5-1.2,4,0.6,6.9"/>
	<line class="st14" x1="56.9" y1="28.8" x2="58.1" y2="28.1"/>
	<line class="st14" x1="55.3" y1="27.7" x2="56" y2="28.2"/>
	<line class="st14" x1="55.1" y1="29.1" x2="56.1" y2="29.7"/>
	<line class="st14" x1="56.7" y1="30.1" x2="58.3" y2="29.3"/>
</g>
<g>
	<path class="st0" d="M29.8,73.8h6.5c0.6,0,1-0.5,1-1l-0.4-62.3c0-0.5-0.3-0.9-0.8-1l-0.3-0.1c-0.6-0.1-1.2,0.3-1.3,0.9l-5.8,62.4
		C28.7,73.3,29.2,73.8,29.8,73.8z"/>
	<g>
		<line class="st15" x1="28.4" y1="35" x2="33.4" y2="43.4"/>
		<g>
			<path class="st0" d="M27.3,35.6c1.7,2.8,3.4,5.6,5,8.4c0.8,1.4,2.9,0.1,2.1-1.3c-1.7-2.8-3.4-5.6-5-8.4
				C28.6,33,26.5,34.2,27.3,35.6L27.3,35.6z"/>
		</g>
	</g>
	<g>
		<line class="st15" x1="43.1" y1="23.1" x2="33.9" y2="37"/>
		<g>
			<path class="st0" d="M42.1,22.5c-3.1,4.6-6.1,9.3-9.2,13.9C32,37.7,34.1,39,35,37.6c3.1-4.6,6.1-9.3,9.2-13.9
				C45.1,22.4,42.9,21.1,42.1,22.5L42.1,22.5z"/>
		</g>
	</g>
	<path class="st11" d="M35.2,11.7c0,1.3,0.6,2.3,1.4,2.3"/>
	<path class="st11" d="M34.9,13c0.3,1.2,1.1,2.1,1.6,1.9"/>
	<path class="st11" d="M35.9,16.9c0,0.6-0.5,1.1-1.2,1.1"/>
	<path class="st11" d="M35.9,18.1c0,0.5-0.5,0.9-1.2,0.9"/>
	<path class="st11" d="M34.2,24.5c0,0.5,1,1,2.3,1"/>
	<path class="st11" d="M34,25c0,0.7,0.8,1.3,1.9,1.3"/>
	<path class="st11" d="M34.7,31.5c0,0.4-0.5,0.8-1,0.8"/>
	<path class="st11" d="M35.3,32.3c0,0.5-0.7,1-1.6,1"/>
	<path class="st11" d="M34.9,38.1c0,0.6,0.7,1,1.6,1"/>
	<path class="st11" d="M34.2,38.7c0,0.8,0.9,1.5,2,1.5"/>
	<path class="st11" d="M33,45.2c0,0.8-0.6,1.5-1.3,1.5"/>
	<path class="st11" d="M34.2,45.7c0,1.2-0.8,2.2-1.9,2.2"/>
	<path class="st11" d="M33.3,52.8c0,1.4,1.2,2.6,2.6,2.6"/>
	<path class="st11" d="M32.4,62.5c0,0.8-0.6,1.5-1.4,1.5"/>
	<path class="st11" d="M33.3,62.9c0,1.2-1,2.1-2.3,2.1"/>
	<g>
		<line class="st15" x1="30.5" y1="15.6" x2="35.5" y2="24"/>
		<g>
			<path class="st0" d="M29.4,16.2c1.7,2.8,3.4,5.6,5,8.4c0.8,1.4,2.9,0.1,2.1-1.3c-1.7-2.8-3.4-5.6-5-8.4
				C30.7,13.6,28.6,14.9,29.4,16.2L29.4,16.2z"/>
		</g>
	</g>
	<path class="st8" d="M29.7,3.1c0.3,0.3,6.3,5.3,6,5.6s-6.8-4.3-7.1-4.6s-0.3-0.8,0-1.1C28.9,2.8,29.4,2.8,29.7,3.1z"/>
	<path class="st8" d="M31.3,1.8c0.2,0.4,4.7,6.8,4.3,7s-5.5-5.9-5.7-6.3s-0.1-0.8,0.3-1C30.6,1.3,31.1,1.5,31.3,1.8z"/>
	<path class="st8" d="M33.3,1.1C33.4,1.5,36,8.9,35.6,9c-0.4,0-3.6-7.2-3.7-7.6s0.1-0.8,0.6-0.9C32.8,0.4,33.3,0.7,33.3,1.1z"/>
	<path class="st8" d="M38.9,1.5c-0.2,0.4-3,7.7-3.4,7.5s1.9-7.8,2.1-8.2c0.2-0.4,0.7-0.5,1-0.3C39,0.7,39.1,1.1,38.9,1.5z"/>
	<path class="st8" d="M40.6,2.3c-0.3,0.3-4.8,6.7-5.1,6.5c-0.3-0.3,3.7-7.2,3.9-7.5c0.3-0.3,0.7-0.3,1-0.1C40.8,1.5,40.8,2,40.6,2.3
		z"/>
	<path class="st8" d="M37,0.9c-0.1,0.4-1,8.2-1.4,8.1c-0.4-0.1-0.1-8,0-8.4S36.1,0,36.5,0C36.9,0.1,37.1,0.5,37,0.9z"/>
	<path class="st8" d="M35.1,0.8c0,0.4,1,8.2,0.5,8.2c-0.4,0-2-7.8-2-8.2s0.3-0.7,0.7-0.7C34.8,0.1,35.1,0.4,35.1,0.8z"/>
	<path class="st8" d="M41.8,3.5c-0.3,0.2-5.9,5.8-6.1,5.5c-0.2-0.3,4.9-6.4,5.2-6.6s0.8-0.2,1,0.1C42.2,2.8,42.1,3.2,41.8,3.5z"/>
	<path class="st8" d="M42.8,5.1c-0.4,0.2-7.1,4.2-7.3,3.8s6.3-5,6.7-5.2s0.8,0,1,0.4S43.2,4.9,42.8,5.1z"/>
	<line class="st16" x1="38.8" y1="5.7" x2="35.7" y2="8.6"/>
	<line class="st16" x1="39.3" y1="6.5" x2="35.7" y2="8.6"/>
	<line class="st16" x1="37" y1="4.5" x2="35.7" y2="8.6"/>
	<line class="st16" x1="36.1" y1="4.2" x2="35.7" y2="8.6"/>
	<line class="st16" x1="35" y1="4.3" x2="35.7" y2="8.6"/>
	<line class="st16" x1="33.9" y1="4.6" x2="35.7" y2="8.6"/>
	<line class="st16" x1="32.8" y1="5.1" x2="35.7" y2="8.6"/>
	<line class="st16" x1="32" y1="5.8" x2="35.7" y2="8.6"/>
	<line class="st16" x1="38" y1="4.9" x2="35.7" y2="8.6"/>
	<path class="st8" d="M24.6,14.8c0.2,0,4.6-0.5,4.6-0.2c0,0.2-4.4,1.1-4.6,1.1s-0.4-0.2-0.4-0.4C24.2,15,24.3,14.8,24.6,14.8z"/>
	<path class="st8" d="M24.7,13.6c0.2,0.1,4.6,0.7,4.5,0.9s-4.5,0-4.8-0.1c-0.2-0.1-0.3-0.3-0.3-0.5C24.2,13.7,24.5,13.6,24.7,13.6z"
		/>
	<path class="st8" d="M25.2,12.5c0.2,0.1,4.2,1.9,4.1,2.1c-0.1,0.2-4.3-1.3-4.5-1.4c-0.2-0.1-0.3-0.4-0.1-0.6
		C24.7,12.4,24.9,12.4,25.2,12.5z"/>
	<path class="st8" d="M27.5,10.4c0.1,0.2,2,4.2,1.7,4.3c-0.2,0.1-2.5-3.8-2.5-4c-0.1-0.2,0-0.5,0.3-0.5
		C27.2,10.1,27.4,10.2,27.5,10.4z"/>
	<path class="st8" d="M28.5,10c0,0.2,0.9,4.5,0.7,4.6c-0.2,0-1.5-4.3-1.5-4.5s0.1-0.4,0.4-0.5C28.2,9.6,28.4,9.8,28.5,10z"/>
	<path class="st8" d="M26.5,10.9c0.1,0.2,2.9,3.6,2.7,3.7s-3.3-3.1-3.5-3.3s-0.1-0.5,0.1-0.6C26.1,10.7,26.4,10.7,26.5,10.9z"/>
	<path class="st8" d="M25.7,11.7c0.2,0.2,3.7,2.8,3.6,3c-0.2,0.2-4-2.2-4.1-2.3c-0.2-0.2-0.2-0.4,0-0.6
		C25.3,11.5,25.6,11.5,25.7,11.7z"/>
	<path class="st8" d="M29.4,10c0,0.2,0.1,4.6-0.2,4.6c-0.2,0-0.7-4.5-0.7-4.7s0.2-0.4,0.5-0.4C29.3,9.5,29.5,9.7,29.4,10z"/>
	<path class="st8" d="M30.5,10.2c-0.1,0.2-1,4.5-1.3,4.4c-0.2-0.1,0.4-4.5,0.5-4.7s0.3-0.3,0.5-0.2C30.5,9.7,30.6,10,30.5,10.2z"/>
	<line class="st16" x1="29.2" y1="12.1" x2="29.1" y2="14.5"/>
	<line class="st16" x1="29.7" y1="12.2" x2="29.1" y2="14.5"/>
	<line class="st16" x1="28" y1="12.3" x2="29.1" y2="14.5"/>
	<line class="st16" x1="27.5" y1="12.6" x2="29.1" y2="14.5"/>
	<line class="st16" x1="27.1" y1="13" x2="29.1" y2="14.5"/>
	<line class="st16" x1="26.8" y1="13.7" x2="29.1" y2="14.5"/>
	<line class="st16" x1="26.6" y1="14.3" x2="29.1" y2="14.5"/>
	<line class="st16" x1="26.6" y1="14.9" x2="29.1" y2="14.5"/>
	<line class="st16" x1="28.5" y1="12.1" x2="29.1" y2="14.5"/>
	<path class="st8" d="M41.8,16.7c0.1,0.2,2.2,4.8,2,4.9S41,17.2,40.9,17c-0.1-0.2,0.1-0.5,0.3-0.6S41.7,16.4,41.8,16.7z"/>
	<path class="st8" d="M43.1,16.4c0,0.3,0.9,5.2,0.7,5.3c-0.3,0-1.6-4.9-1.6-5.2c0-0.3,0.2-0.5,0.5-0.5C42.8,15.9,43,16.1,43.1,16.4z
		"/>
	<path class="st8" d="M44.5,16.5c-0.1,0.3-0.5,5.3-0.8,5.2s-0.2-5.2-0.2-5.5s0.3-0.4,0.6-0.4C44.4,15.9,44.5,16.2,44.5,16.5z"/>
	<path class="st8" d="M47.6,18.2c-0.2,0.2-3.8,3.7-4,3.5s3.2-4.1,3.4-4.3c0.2-0.2,0.5-0.1,0.7,0.1C47.9,17.8,47.8,18.1,47.6,18.2z"
		/>
	<path class="st8" d="M48.4,19.1c-0.2,0.1-4.6,2.7-4.7,2.4c-0.1-0.2,4.1-3.2,4.3-3.3c0.2-0.1,0.5,0,0.6,0.2
		C48.7,18.7,48.6,19,48.4,19.1z"/>
	<path class="st8" d="M46.7,17.4c-0.2,0.2-2.8,4.5-3,4.4c-0.2-0.2,2.1-4.8,2.3-5s0.5-0.2,0.7-0.1C46.8,16.8,46.8,17.2,46.7,17.4z"/>
	<path class="st8" d="M45.6,16.8c-0.1,0.2-1.6,5.1-1.9,5c-0.2-0.1,0.9-5.1,1-5.4c0.1-0.2,0.4-0.3,0.6-0.2
		C45.6,16.2,45.7,16.5,45.6,16.8z"/>
	<path class="st8" d="M48.8,20.2c-0.3,0.1-5,1.8-5.1,1.5s4.6-2.4,4.9-2.5s0.5,0.1,0.6,0.4S49.1,20.1,48.8,20.2z"/>
	<path class="st8" d="M49,21.4c-0.3,0-5.3,0.6-5.3,0.3c0-0.3,5-1.3,5.3-1.3s0.5,0.2,0.5,0.5S49.2,21.4,49,21.4z"/>
	<line class="st16" x1="46.4" y1="20.7" x2="43.8" y2="21.5"/>
	<line class="st16" x1="46.5" y1="21.3" x2="43.8" y2="21.5"/>
	<line class="st16" x1="45.7" y1="19.5" x2="43.8" y2="21.5"/>
	<line class="st16" x1="45.2" y1="19" x2="43.8" y2="21.5"/>
	<line class="st16" x1="44.6" y1="18.8" x2="43.8" y2="21.5"/>
	<line class="st16" x1="43.8" y1="18.6" x2="43.8" y2="21.5"/>
	<line class="st16" x1="43" y1="18.7" x2="43.8" y2="21.5"/>
	<line class="st16" x1="42.4" y1="18.9" x2="43.8" y2="21.5"/>
	<line class="st16" x1="46.2" y1="20" x2="43.8" y2="21.5"/>
	<path class="st8" d="M22.7,32.2c0.3,0.1,5.3,0.8,5.2,1.1c-0.1,0.3-5.2-0.1-5.5-0.2c-0.3-0.1-0.4-0.3-0.3-0.6
		C22.1,32.3,22.4,32.1,22.7,32.2z"/>
	<path class="st8" d="M23.1,30.9c0.2,0.1,4.9,2.1,4.7,2.4c-0.1,0.2-5-1.4-5.2-1.5s-0.3-0.4-0.2-0.7C22.6,30.9,22.9,30.8,23.1,30.9z"
		/>
	<path class="st8" d="M24,29.8c0.2,0.2,4.1,3.4,3.9,3.6s-4.4-2.7-4.6-2.9c-0.2-0.2-0.2-0.5,0-0.7C23.5,29.6,23.8,29.6,24,29.8z"/>
	<path class="st8" d="M27.2,28.2c0,0.3,0.9,5.2,0.6,5.3c-0.3,0-1.6-4.9-1.6-5.2s0.2-0.5,0.5-0.5C27,27.7,27.2,27.9,27.2,28.2z"/>
	<path class="st8" d="M28.4,28.1c0,0.3-0.3,5.3-0.6,5.3c-0.3,0-0.4-5.2-0.3-5.5c0-0.3,0.3-0.4,0.6-0.4
		C28.3,27.6,28.4,27.8,28.4,28.1z"/>
	<path class="st8" d="M26,28.5c0.1,0.2,2.2,4.9,1.9,4.9c-0.2,0.1-2.8-4.4-2.8-4.6c-0.1-0.2,0.1-0.5,0.3-0.6
		C25.6,28.1,25.9,28.2,26,28.5z"/>
	<path class="st8" d="M24.9,29.1c0.1,0.2,3.3,4.2,3,4.3c-0.2,0.1-3.7-3.6-3.9-3.8c-0.1-0.2-0.1-0.5,0.2-0.7
		C24.5,28.8,24.8,28.8,24.9,29.1z"/>
	<path class="st8" d="M29.5,28.3c-0.1,0.2-1.3,5.2-1.6,5.1c-0.2-0.1,0.6-5.2,0.7-5.4c0.1-0.2,0.4-0.4,0.6-0.3
		C29.5,27.8,29.6,28.1,29.5,28.3z"/>
	<path class="st8" d="M30.6,28.9c-0.1,0.2-2.5,4.7-2.7,4.5c-0.2-0.1,1.8-4.9,1.9-5.1s0.5-0.3,0.7-0.1C30.7,28.3,30.7,28.6,30.6,28.9
		z"/>
	<line class="st16" x1="28.6" y1="30.5" x2="27.8" y2="33.2"/>
	<line class="st16" x1="29.1" y1="30.8" x2="27.8" y2="33.2"/>
	<line class="st16" x1="27.2" y1="30.5" x2="27.8" y2="33.2"/>
	<line class="st16" x1="26.5" y1="30.6" x2="27.8" y2="33.2"/>
	<line class="st16" x1="26" y1="31" x2="27.8" y2="33.2"/>
	<line class="st16" x1="25.4" y1="31.6" x2="27.8" y2="33.2"/>
	<line class="st16" x1="25" y1="32.3" x2="27.8" y2="33.2"/>
	<line class="st16" x1="24.9" y1="32.9" x2="27.8" y2="33.2"/>
	<line class="st16" x1="27.8" y1="30.4" x2="27.8" y2="33.2"/>
	<path class="st11" d="M34.1,52.8c0,0.8,1.1,1.5,2.4,1.5"/>
</g>
</svg>
