<?xml version="1.0" encoding="utf-8"?>
<!-- Generator: Adobe Illustrator 21.1.0, SVG Export Plug-In . SVG Version: 6.00 Build 0)  -->
<svg version="1.1" id="圖層_1" xmlns="http://www.w3.org/2000/svg" xmlns:xlink="http://www.w3.org/1999/xlink" x="0px" y="0px"
	 viewBox="0 0 708.7 510.2" style="enable-background:new 0 0 708.7 510.2;" xml:space="preserve">
<style type="text/css">
	.st0{fill:#D0DBE0;}
	.st1{fill:#403D04;}
	.st2{fill:#3BA261;}
	.st3{fill:none;stroke:#231815;stroke-miterlimit:10;}
	.st4{fill:#947F70;}
	.st5{fill:none;stroke:#FFFFFF;stroke-miterlimit:10;}
	.st6{fill:#67BE8D;}
	.st7{fill:#FFDB3F;}
</style>
<path class="st0" d="M42,398.4c15.1-14.6,30.2-16.2,45-1.3c13.2-10.1,26.5-10.8,39.8-1.2c14.1-10.5,30.3-13.1,49.1-6
	c10.7-7.8,21.6-9.5,32.7-4.9c11.5-1.8,20.7-0.7,24.8,7.7c15.6-5,28.1-2.3,37.4,8.4c7.5-11.5,19.1-18.5,37-19.1
	c12.9-7.9,27.7-6.6,43.7,2c12.6-8.8,21.7-9.2,34.3-5.1c5.4-7.9,32.3-2,36.3,9.8c7.9-5.9,25.2-5.6,31.4,6.9
	c5.2-12.7,16.1-19.4,36.8-16.3c11-8.7,24.2-5.4,27.7,2.3c24,2.8,30.3,14.9,32.4,29.1c7.4-12.9,17.2-20.5,31.8-17.8
	c6.2-10.8,14.8-15.3,26.7-11.5c13.4-8.2,25.1-6.2,35.1,5.4c14.7-5.6,22.3-0.7,23,14.8l-9.8,28.5l-595.7-1.6L42,398.4z"/>
<g>
	<path class="st1" d="M284.7,376.3c1.3-2.1,4.9-2.3,7.9-0.4s7,7,5.7,9.1c-1.3,2.1-7.4,0.5-10.5-1.4
		C284.8,381.7,283.4,378.4,284.7,376.3z"/>
	<path class="st1" d="M284.7,392.3c1.3-2.1,4.9-2.3,7.9-0.4s7,7,5.7,9.1s-7.4,0.5-10.5-1.4S283.4,394.4,284.7,392.3z"/>
	<path class="st1" d="M314.6,372.4c-1.3-2.1-4.9-2.3-7.9-0.4s-7,7-5.7,9.1c1.3,2.1,7.4,0.5,10.5-1.4S315.9,374.5,314.6,372.4z"/>
	<path class="st1" d="M314.6,389.6c-1.3-2.1-4.9-2.3-7.9-0.4s-7,7-5.7,9.1c1.3,2.1,7.4,0.5,10.5-1.4S315.9,391.7,314.6,389.6z"/>
	<path class="st1" d="M299.9,430.4h-0.6c-0.4,0-0.8-0.4-0.8-0.8v-61.9c0-0.4,0.4-0.8,0.8-0.8h0.6c0.4,0,0.8,0.4,0.8,0.8v61.9
		C300.7,430,300.4,430.4,299.9,430.4z"/>
	<path class="st1" d="M284.7,408c1.3-2.1,4.9-2.3,7.9-0.4s7,7,5.7,9.1c-1.3,2.1-7.4,0.5-10.5-1.4S283.4,410.1,284.7,408z"/>
	<path class="st1" d="M314.6,405.3c-1.3-2.1-4.9-2.3-7.9-0.4s-7,7-5.7,9.1c1.3,2.1,7.4,0.5,10.5-1.4
		C314.5,410.7,315.9,407.5,314.6,405.3z"/>
</g>
<g>
	<path class="st1" d="M367.1,391.9c0.7-1.2,2.7-1.3,4.4-0.2s3.9,3.9,3.2,5.1s-4.1,0.3-5.8-0.8C367.1,394.9,366.4,393.1,367.1,391.9z
		"/>
	<path class="st1" d="M367.1,400.8c0.7-1.2,2.7-1.3,4.4-0.2s3.9,3.9,3.2,5.1s-4.1,0.3-5.8-0.8C367.1,403.8,366.4,402,367.1,400.8z"
		/>
	<path class="st1" d="M383.7,389.8c-0.7-1.2-2.7-1.3-4.4-0.2c-1.7,1.1-3.9,3.9-3.2,5.1c0.7,1.2,4.1,0.3,5.8-0.8
		C383.7,392.8,384.5,390.9,383.7,389.8z"/>
	<path class="st1" d="M383.7,399.3c-0.7-1.2-2.7-1.3-4.4-0.2c-1.7,1.1-3.9,3.9-3.2,5.1c0.7,1.2,4.1,0.3,5.8-0.8
		C383.7,402.3,384.5,400.5,383.7,399.3z"/>
	<path class="st1" d="M375.4,422L375.4,422c-0.3,0-0.6-0.3-0.6-0.6v-34.1c0-0.3,0.3-0.6,0.6-0.6l0,0c0.3,0,0.6,0.3,0.6,0.6v34.1
		C376,421.7,375.7,422,375.4,422z"/>
	<path class="st1" d="M367.1,409.5c0.7-1.2,2.7-1.3,4.4-0.2c1.7,1.1,3.9,3.9,3.2,5.1s-4.1,0.3-5.8-0.8S366.4,410.7,367.1,409.5z"/>
	<path class="st1" d="M383.7,408.1c-0.7-1.2-2.7-1.3-4.4-0.2s-3.9,3.9-3.2,5.1c0.7,1.2,4.1,0.3,5.8-0.8
		C383.7,411.1,384.5,409.2,383.7,408.1z"/>
</g>
<path class="st1" d="M59.7,396.1c0,0,150.4,48.9,323.4,23.3c173-25.6,269.4,0,269.4,0l-74.4,45.9l-233.5-6.8L66,444.1L59.7,396.1z"
	/>
<g>
	<path class="st1" d="M631.2,353.7c1.3-2.1,4.9-2.3,7.9-0.4s7,7,5.7,9.1c-1.3,2.1-7.4,0.5-10.5-1.4S629.9,355.8,631.2,353.7z"/>
	<path class="st1" d="M631.2,369.7c1.3-2.1,4.9-2.3,7.9-0.4s7,7,5.7,9.1c-1.3,2.1-7.4,0.5-10.5-1.4S629.9,371.8,631.2,369.7z"/>
	<path class="st1" d="M661.1,349.8c-1.3-2.1-4.9-2.3-7.9-0.4c-3.1,1.9-7,7-5.7,9.1c1.3,2.1,7.4,0.5,10.5-1.4
		C661,355.2,662.4,352,661.1,349.8z"/>
	<path class="st1" d="M661.1,367c-1.3-2.1-4.9-2.3-7.9-0.4c-3.1,1.9-7,7-5.7,9.1c1.3,2.1,7.4,0.5,10.5-1.4
		C661,372.4,662.4,369.2,661.1,367z"/>
	<path class="st1" d="M646.5,407.8h-0.6c-0.4,0-0.8-0.4-0.8-0.8v-61.9c0-0.4,0.4-0.8,0.8-0.8h0.6c0.4,0,0.8,0.4,0.8,0.8V407
		C647.3,407.5,646.9,407.8,646.5,407.8z"/>
	<path class="st1" d="M631.2,385.4c1.3-2.1,4.9-2.3,7.9-0.4c3.1,1.9,7,7,5.7,9.1c-1.3,2.1-7.4,0.5-10.5-1.4S629.9,387.5,631.2,385.4
		z"/>
	<path class="st1" d="M661.1,382.8c-1.3-2.1-4.9-2.3-7.9-0.4c-3.1,1.9-7,7-5.7,9.1c1.3,2.1,7.4,0.5,10.5-1.4
		C661,388.1,662.4,384.9,661.1,382.8z"/>
</g>
<path class="st1" d="M51.1,325.4c1.3-2.1,4.9-2.3,7.9-0.4c3.1,1.9,7,7,5.7,9.1c-1.3,2.1-7.4,0.5-10.5-1.4
	C51.2,330.8,49.8,327.5,51.1,325.4z"/>
<path class="st1" d="M51.1,341.3c1.3-2.1,4.9-2.3,7.9-0.4c3.1,1.9,7,7,5.7,9.1c-1.3,2.1-7.4,0.5-10.5-1.4
	C51.2,346.7,49.8,343.5,51.1,341.3z"/>
<path class="st1" d="M81,321.5c-1.3-2.1-4.9-2.3-7.9-0.4s-7,7-5.7,9.1c1.3,2.1,7.4,0.5,10.5-1.4C80.9,326.9,82.3,323.6,81,321.5z"/>
<path class="st1" d="M81,338.7c-1.3-2.1-4.9-2.3-7.9-0.4s-7,7-5.7,9.1s7.4,0.5,10.5-1.4C80.9,344.1,82.3,340.8,81,338.7z"/>
<path class="st1" d="M66.3,394.7h-0.6c-0.4,0-0.8-0.4-0.8-0.8v-77.1c0-0.4,0.4-0.8,0.8-0.8h0.6c0.4,0,0.8,0.4,0.8,0.8v77.1
	C67.1,394.3,66.8,394.7,66.3,394.7z"/>
<path class="st1" d="M51.1,357.1c1.3-2.1,4.9-2.3,7.9-0.4c3.1,1.9,7,7,5.7,9.1c-1.3,2.1-7.4,0.5-10.5-1.4
	C51.2,362.5,49.8,359.2,51.1,357.1z"/>
<path class="st1" d="M81,354.4c-1.3-2.1-4.9-2.3-7.9-0.4s-7,7-5.7,9.1c1.3,2.1,7.4,0.5,10.5-1.4C80.9,359.8,82.3,356.5,81,354.4z"/>
<g>
	<path class="st1" d="M92.6,366c1.1-1.7,3.9-1.9,6.4-0.3s5.6,5.6,4.6,7.3c-1.1,1.7-6,0.4-8.4-1.1C92.7,370.3,91.5,367.7,92.6,366z"
		/>
	<path class="st1" d="M92.6,378.8c1.1-1.7,3.9-1.9,6.4-0.3s5.6,5.6,4.6,7.3c-1.1,1.7-6,0.4-8.4-1.1
		C92.7,383.2,91.5,380.5,92.6,378.8z"/>
	<path class="st1" d="M116.7,362.8c-1.1-1.7-3.9-1.9-6.4-0.3c-2.5,1.5-5.6,5.6-4.6,7.3c1.1,1.7,6,0.4,8.4-1.1
		C116.6,367.2,117.8,364.5,116.7,362.8z"/>
	<path class="st1" d="M116.7,376.7c-1.1-1.7-3.9-1.9-6.4-0.3c-2.5,1.5-5.6,5.6-4.6,7.3c1.1,1.7,6,0.4,8.4-1.1
		C116.6,381,117.8,378.4,116.7,376.7z"/>
	<path class="st1" d="M104.7,409.6h-0.2c-0.4,0-0.8-0.4-0.8-0.8v-49.5c0-0.4,0.4-0.8,0.8-0.8h0.2c0.4,0,0.8,0.4,0.8,0.8v49.5
		C105.5,409.2,105.2,409.6,104.7,409.6z"/>
	<path class="st1" d="M92.6,391.5c1.1-1.7,3.9-1.9,6.4-0.3s5.6,5.6,4.6,7.3c-1.1,1.7-6,0.4-8.4-1.1
		C92.7,395.8,91.5,393.2,92.6,391.5z"/>
	<path class="st1" d="M116.7,389.4c-1.1-1.7-3.9-1.9-6.4-0.3c-2.5,1.5-5.6,5.6-4.6,7.3c1.1,1.7,6,0.4,8.4-1.1
		C116.6,393.7,117.8,391.1,116.7,389.4z"/>
</g>
<g>
	<path class="st2" d="M81.4,377c-3.9,1.3-6.8-3-11.3-10.5c-3.8-6.4-1.1-13.9,2.9-15.2c3.9-1.3,10.3,3.1,11.3,10.5
		C85.5,371.1,85.3,375.7,81.4,377z"/>
	<path class="st3" d="M76,355.2c-1.9,5.5-1.4,13.7,6.2,22"/>
	<line class="st3" x1="76.8" y1="360.9" x2="80.4" y2="357.9"/>
	<line class="st3" x1="71.3" y1="358.3" x2="73.6" y2="359.6"/>
	<line class="st3" x1="71.3" y1="362.8" x2="74.9" y2="364.1"/>
	<line class="st3" x1="77.2" y1="365.2" x2="81.8" y2="361.5"/>
</g>
<g>
	<path class="st2" d="M497.7,421.4c-3,3.3-8.1,0.8-16.5-4c-7.1-4.1-8.5-12.7-5.4-16c3-3.3,11.5-2.6,16.5,4
		C498.5,413.6,500.8,418.1,497.7,421.4z"/>
	<path class="st3" d="M481,403.5c1.1,6.3,6,13.9,17.8,17.6"/>
	<line class="st3" x1="484.8" y1="408.6" x2="486.6" y2="403.7"/>
	<line class="st3" x1="478.1" y1="409.1" x2="481" y2="409"/>
	<line class="st3" x1="480.6" y1="413.3" x2="484.6" y2="412.6"/>
	<line class="st3" x1="487.4" y1="412.4" x2="489.9" y2="406.4"/>
</g>
<g>
	<path class="st2" d="M83.9,218.9c2.3,3.9,7.8,2.4,16.9-0.5c7.8-2.5,10.9-10.7,8.6-14.6s-10.8-4.9-16.9,0.5
		C84.7,211.1,81.6,215,83.9,218.9z"/>
	<path class="st3" d="M104,204.8c-2.4,6-8.7,12.3-21,13.6"/>
	<line class="st3" x1="99.2" y1="208.9" x2="98.4" y2="203.8"/>
	<line class="st3" x1="105.6" y1="210.8" x2="102.8" y2="210.1"/>
	<line class="st3" x1="102.4" y1="214.4" x2="98.5" y2="212.9"/>
	<line class="st3" x1="95.9" y1="212.2" x2="94.6" y2="205.8"/>
</g>
<path class="st4" d="M351.1,447c1.9,0.4,3.3,2.1,3.3,4.1v15.1c0,2.6-1.9,4.8-4.5,5.1c-16,1.9-68,2-71.4,2.1
	c-36.9,1.3-207.4,4.9-228.6-36.1c-23.3-45.1-30.5-74.1-26.9-163.4c1-25.8,2.5-45.1,4.1-59.6c1.8-17,3.8-27.2,5.4-33.2
	c1.1-4.4,6-6.7,10.2-4.8h0c2.7,1.3,4.4,4.1,4.2,7.1c-2.1,27,1.2,160.7,13.3,190.2c12.7,30.9,12.5,43.5,61.6,61.3
	c52.4,18.9,130.4,10.7,155.7,9.9C283.7,444.9,337.1,443.7,351.1,447z"/>
<path class="st4" d="M89.7,421.6v-38.2c0-2.2-1.2-4.3-3.2-5.4h0c-3.6-2-8.1,0.2-8.9,4.3l-4.6,25L89.7,421.6z"/>
<path class="st4" d="M45.7,260.8l25.7-42.9c2.6-4.3,8-4.3,10.5,0.1l0,0c1.6,2.8,1.5,6.5-0.4,9.1l-35.8,60.6V260.8z"/>
<path class="st4" d="M135.7,469l17.3,16c2,1.9,5,2.3,7.5,1.2h0c4.1-1.9,5.2-7.2,2.3-10.7l-9.1-10.5L135.7,469z"/>
<path class="st4" d="M25,305.4l-12.2-27.8c-1.2-2.6-4.6-3.2-6.5-1l0,0c-1,1.1-1.2,2.7-0.7,4.1L25,328.1c0,0,0-17.1,0-17.1V305.4z"/>
<path class="st4" d="M371.6,460.7v4.2c0,6.9,5.3,12.6,12.1,13.1c39.2,2.9,145.6,9.2,192.5,1.4c56.4-9.3,101.7-56.6,109.5-97.9
	c5-26.6-0.6-145.7-2.8-204c-0.7-19.2-2-31.7-2-31.7c-0.5-4.4-2-6.6-6.6-6.6l0,0c-1.6,0-3.1,0.6-4.2,1.8c-1.7,1.9-3,4.6-3.1,6.7
	l-3.6,175.6l-0.4,20.3c0,0.1,0,0.1,0,0.2c-3.6,61.8-28.2,70.6-37.2,84.3c-12.9,19.5-57.7,17.5-128.4,24.6c-60,6-83.4-3.9-111.5-5.6
	C378.1,446.7,371.6,452.9,371.6,460.7z"/>
<path class="st4" d="M645.6,216.8L645.6,216.8c-1.4,1.4-1.6,3.6-0.5,5.2l20.5,35l4.9-15.5l-19.1-24.8
	C649.8,215.2,647.2,215.2,645.6,216.8z"/>
<path class="st4" d="M469.8,458.5L496,426c1.2-1.5,3.3-2,5.1-1.2l0,0c2.3,1,3.1,3.8,1.9,6l-15.4,27.2L469.8,458.5z"/>
<path class="st4" d="M576,479.4l79.3-16.8c2.1-0.4,3.6-2.1,3.9-4.1l0.2-1.7c0.5-3.3-2.5-6.2-6-5.6l-59.9,10L576,479.4z"/>
<path class="st4" d="M680.9,214.8l18.6-28.4c0.8-1.2,2.4-1.4,3.4-0.4v0c1.4,1.4,1.7,3.7,0.7,5.6L683.7,229L680.9,214.8z"/>
<path class="st4" d="M622.5,390.9L622.5,390.9c-1.9,0.7-3,2.6-2.7,4.5l3.6,40.3l11-11.9l-6.7-30.5
	C627,391.2,624.6,390.1,622.5,390.9z"/>
<g>
	<path class="st1" d="M156.5,393.8c0.7-1.1,2.4-1.2,4-0.2c1.5,1,3.5,3.5,2.8,4.5c-0.7,1.1-3.7,0.2-5.2-0.7S155.8,394.8,156.5,393.8z
		"/>
	<path class="st1" d="M156.5,401.7c0.7-1.1,2.4-1.2,4-0.2c1.5,1,3.5,3.5,2.8,4.5c-0.7,1.1-3.7,0.2-5.2-0.7S155.8,402.8,156.5,401.7z
		"/>
	<path class="st1" d="M171.5,391.8c-0.7-1.1-2.4-1.2-4-0.2c-1.5,1-3.5,3.5-2.8,4.5c0.7,1.1,3.7,0.2,5.2-0.7S172.1,392.9,171.5,391.8
		z"/>
	<path class="st1" d="M171.5,400.4c-0.7-1.1-2.4-1.2-4-0.2s-3.5,3.5-2.8,4.5s3.7,0.2,5.2-0.7S172.1,401.5,171.5,400.4z"/>
	<path class="st1" d="M164,420.8L164,420.8c-0.3,0-0.5-0.2-0.5-0.5v-30.6c0-0.3,0.2-0.5,0.5-0.5l0,0c0.3,0,0.5,0.2,0.5,0.5v30.6
		C164.5,420.6,164.3,420.8,164,420.8z"/>
	<path class="st1" d="M156.5,409.6c0.7-1.1,2.4-1.2,4-0.2c1.5,1,3.5,3.5,2.8,4.5c-0.7,1.1-3.7,0.2-5.2-0.7
		C156.5,412.3,155.8,410.7,156.5,409.6z"/>
	<path class="st1" d="M171.5,408.3c-0.7-1.1-2.4-1.2-4-0.2s-3.5,3.5-2.8,4.5s3.7,0.2,5.2-0.7S172.1,409.3,171.5,408.3z"/>
</g>
<path class="st1" d="M189.5,346.8c1.3-2.1,4.9-2.3,7.9-0.4c3.1,1.9,7,7,5.7,9.1c-1.3,2.1-7.4,0.5-10.5-1.4
	C189.6,352.2,188.2,348.9,189.5,346.8z"/>
<path class="st1" d="M189.5,362.8c1.3-2.1,4.9-2.3,7.9-0.4c3.1,1.9,7,7,5.7,9.1c-1.3,2.1-7.4,0.5-10.5-1.4
	C189.6,368.2,188.2,364.9,189.5,362.8z"/>
<path class="st1" d="M219.4,342.9c-1.3-2.1-4.9-2.3-7.9-0.4c-3.1,1.9-7,7-5.7,9.1c1.3,2.1,7.4,0.5,10.5-1.4
	C219.4,348.3,220.8,345,219.4,342.9z"/>
<path class="st1" d="M219.4,360.1c-1.3-2.1-4.9-2.3-7.9-0.4c-3.1,1.9-7,7-5.7,9.1c1.3,2.1,7.4,0.5,10.5-1.4
	C219.4,365.5,220.8,362.3,219.4,360.1z"/>
<path class="st1" d="M204.8,423.1h-0.6c-0.4,0-0.8-0.4-0.8-0.8v-84c0-0.4,0.4-0.8,0.8-0.8h0.6c0.4,0,0.8,0.4,0.8,0.8v84
	C205.6,422.7,205.2,423.1,204.8,423.1z"/>
<path class="st1" d="M189.5,378.5c1.3-2.1,4.9-2.3,7.9-0.4c3.1,1.9,7,7,5.7,9.1c-1.3,2.1-7.4,0.5-10.5-1.4
	C189.6,383.9,188.2,380.6,189.5,378.5z"/>
<path class="st1" d="M219.4,375.9c-1.3-2.1-4.9-2.3-7.9-0.4c-3.1,1.9-7,7-5.7,9.1c1.3,2.1,7.4,0.5,10.5-1.4
	C219.4,381.2,220.8,378,219.4,375.9z"/>
<path class="st1" d="M539.7,347.7c1.3-2.1,4.9-2.3,7.9-0.4c3.1,1.9,7,7,5.7,9.1c-1.3,2.1-7.4,0.5-10.5-1.4
	C539.8,353.1,538.4,349.8,539.7,347.7z"/>
<path class="st1" d="M539.7,363.7c1.3-2.1,4.9-2.3,7.9-0.4c3.1,1.9,7,7,5.7,9.1c-1.3,2.1-7.4,0.5-10.5-1.4
	C539.8,369.1,538.4,365.8,539.7,363.7z"/>
<path class="st1" d="M569.6,343.8c-1.3-2.1-4.9-2.3-7.9-0.4c-3.1,1.9-7,7-5.7,9.1c1.3,2.1,7.4,0.5,10.5-1.4
	C569.5,349.2,570.9,346,569.6,343.8z"/>
<path class="st1" d="M569.6,361c-1.3-2.1-4.9-2.3-7.9-0.4c-3.1,1.9-7,7-5.7,9.1c1.3,2.1,7.4,0.5,10.5-1.4
	C569.5,366.4,570.9,363.2,569.6,361z"/>
<path class="st1" d="M554.9,415.8h-0.6c-0.4,0-0.8-0.4-0.8-0.8v-90.3c0-0.4,0.4-0.8,0.8-0.8h0.6c0.4,0,0.8,0.4,0.8,0.8V415
	C555.7,415.5,555.4,415.8,554.9,415.8z"/>
<path class="st1" d="M539.7,379.4c1.3-2.1,4.9-2.3,7.9-0.4c3.1,1.9,7,7,5.7,9.1s-7.4,0.5-10.5-1.4
	C539.8,384.8,538.4,381.5,539.7,379.4z"/>
<path class="st1" d="M569.6,376.8c-1.3-2.1-4.9-2.3-7.9-0.4c-3.1,1.9-7,7-5.7,9.1c1.3,2.1,7.4,0.5,10.5-1.4
	C569.5,382.1,570.9,378.9,569.6,376.8z"/>
<g>
	<path class="st1" d="M457.9,358.7c1.3-2.1,4.9-2.3,7.9-0.4s7,7,5.7,9.1s-7.4,0.5-10.5-1.4S456.6,360.8,457.9,358.7z"/>
	<path class="st1" d="M457.9,374.6c1.3-2.1,4.9-2.3,7.9-0.4s7,7,5.7,9.1c-1.3,2.1-7.4,0.5-10.5-1.4S456.6,376.8,457.9,374.6z"/>
	<path class="st1" d="M487.8,354.8c-1.3-2.1-4.9-2.3-7.9-0.4c-3.1,1.9-7,7-5.7,9.1c1.3,2.1,7.4,0.5,10.5-1.4
		C487.7,360.2,489.1,356.9,487.8,354.8z"/>
	<path class="st1" d="M487.8,372c-1.3-2.1-4.9-2.3-7.9-0.4c-3.1,1.9-7,7-5.7,9.1c1.3,2.1,7.4,0.5,10.5-1.4
		C487.7,377.4,489.1,374.1,487.8,372z"/>
	<path class="st1" d="M473.1,412.8h-0.6c-0.4,0-0.8-0.4-0.8-0.8v-61.9c0-0.4,0.4-0.8,0.8-0.8h0.6c0.4,0,0.8,0.4,0.8,0.8V412
		C473.9,412.4,473.6,412.8,473.1,412.8z"/>
	<path class="st1" d="M457.9,390.4c1.3-2.1,4.9-2.3,7.9-0.4c3.1,1.9,7,7,5.7,9.1s-7.4,0.5-10.5-1.4S456.6,392.5,457.9,390.4z"/>
	<path class="st1" d="M487.8,387.7c-1.3-2.1-4.9-2.3-7.9-0.4c-3.1,1.9-7,7-5.7,9.1c1.3,2.1,7.4,0.5,10.5-1.4
		C487.7,393.1,489.1,389.8,487.8,387.7z"/>
</g>
<g>
	<path class="st2" d="M623.3,385.6c-3.9-2.2-2.7-7.7,0-16.9c2.3-7.9,10.4-11.2,14.3-9s5.2,10.6,0,16.9
		C631.1,384.5,627.2,387.7,623.3,385.6z"/>
	<path class="st3" d="M636.8,365.1c-5.9,2.5-12.1,9.1-13,21.4"/>
	<line class="st3" x1="632.8" y1="370" x2="637.9" y2="370.6"/>
	<line class="st3" x1="630.7" y1="363.6" x2="631.5" y2="366.4"/>
	<line class="st3" x1="627.2" y1="367" x2="628.8" y2="370.7"/>
	<line class="st3" x1="629.6" y1="373.4" x2="636.1" y2="374.5"/>
</g>
<g>
	<path class="st2" d="M644.6,215.3c-2.8,3.6-8.1,1.4-16.7-2.7c-7.4-3.5-9.5-12-6.7-15.6c2.8-3.6,11.3-3.5,16.7,2.7
		C644.7,207.4,647.4,211.7,644.6,215.3z"/>
	<path class="st3" d="M626.5,198.7c1.6,6.2,7.1,13.3,19.1,16.2"/>
	<line class="st3" x1="630.7" y1="203.5" x2="632.1" y2="198.5"/>
	<line class="st3" x1="624" y1="204.5" x2="626.9" y2="204.2"/>
	<line class="st3" x1="626.8" y1="208.5" x2="630.8" y2="207.5"/>
	<line class="st3" x1="633.6" y1="207.1" x2="635.6" y2="200.9"/>
</g>
<path class="st5" d="M33,204.8c0,5.5-1.3,9.9-2.9,9.9"/>
<path class="st5" d="M37.7,206.4c0,6.7-0.9,12.1-1.9,12.1"/>
<path class="st5" d="M39.3,239.2c0,6.6,0.6,11.9,1.3,11.9"/>
<path class="st5" d="M36.8,245.2c0,7.6,1.7,13.7,3.8,13.7"/>
<path class="st5" d="M30.1,291.1c0,5.8-1,10.5-2.2,10.5"/>
<path class="st5" d="M33,298.7c0,7.4-2.3,13.3-5.1,13.3"/>
<path class="st5" d="M44.1,330.5c0,9,2.4,16.4,5.4,16.4"/>
<path class="st5" d="M42.8,341.8c0,7.4,3.8,13.4,8.6,13.4"/>
<path class="st5" d="M33.9,364.1c0,5.5-1.7,10-3.8,10"/>
<path class="st5" d="M36.8,371.8c0,5.9-1.7,10.7-3.8,10.7"/>
<path class="st5" d="M59.7,396.1c0,7.7,5.7,14,12.8,14"/>
<path class="st5" d="M64.3,393.2c0,6.3,2.5,11.4,5.5,11.4"/>
<path class="st5" d="M674.9,156.2c0,8.2-2,14.9-4.4,14.9"/>
<path class="st5" d="M677.7,163.7c0,8.2-2.3,14.9-5,14.9"/>
<path class="st5" d="M677.7,214.9c0,3.5,3.1,6.4,6.9,6.4"/>
<path class="st5" d="M674.9,217.1c0,6.6,3.9,11.9,8.8,11.9"/>
<path class="st5" d="M674.9,258.9c0,4.9-2,8.9-4.4,8.9"/>
<path class="st5" d="M679.3,263.8c0,4.1-3.9,7.4-8.8,7.4"/>
<path class="st5" d="M675.2,294.9c0,4-2.1,7.2-4.7,7.2"/>
<path class="st5" d="M679.3,300.6c0,5.8-3.9,10.6-8.8,10.6"/>
<path class="st5" d="M672.8,346.9c0,7.5,5.3,13.5,11.8,13.5"/>
<path class="st5" d="M678.7,346.2c0,5.3,2.7,9.6,5.9,9.6"/>
<path class="st5" d="M667.2,378c-1.7,11.8-6.6,20.9-11.2,20.2"/>
<path class="st5" d="M669.3,381.9c0.2,7.5-2.3,13.6-5.5,13.7"/>
<g>
	<g>
		<g>
			<path class="st6" d="M317.1,389.3c0.9,1,19.9,17,18.9,17.8c-1,0.9-21.5-13.7-22.4-14.6c-0.9-1-0.8-2.5,0.1-3.4
				S316.2,388.4,317.1,389.3z"/>
			<path class="st6" d="M322.2,385.2c0.6,1.2,14.9,21.4,13.8,22.1s-17.4-18.6-18-19.8c-0.6-1.2-0.2-2.6,1-3.2S321.6,384,322.2,385.2
				z"/>
			<path class="st6" d="M328.7,382.7c0.3,1.3,8.5,24.7,7.2,25s-11.6-22.7-11.9-24c-0.3-1.3,0.5-2.5,1.8-2.8
				C327.1,380.6,328.4,381.4,328.7,382.7z"/>
			<path class="st6" d="M346.4,384.2c-0.6,1.2-9.6,24.3-10.7,23.7s5.9-24.8,6.5-25.9s2.1-1.6,3.2-1C346.6,381.6,347,383,346.4,384.2
				z"/>
			<path class="st6" d="M351.6,386.7c-0.9,1-15,21.4-16,20.5s11.6-22.7,12.5-23.7s2.4-1.1,3.4-0.2S352.4,385.7,351.6,386.7z"/>
			<path class="st6" d="M340.4,382.3c-0.3,1.3-3.3,25.9-4.6,25.6c-1.3-0.3-0.4-25.5-0.1-26.7c0.3-1.3,1.6-2.1,2.9-1.7
				S340.7,381,340.4,382.3z"/>
			<path class="st6" d="M334.4,381.9c0,1.3,3,26,1.7,26s-6.5-24.6-6.5-26s1.1-2.4,2.4-2.4C333.3,379.6,334.4,380.6,334.4,381.9z"/>
			<path class="st6" d="M355.5,390.4c-1,0.8-18.7,18.3-19.5,17.3c-0.8-1,15.5-20.2,16.5-21c1-0.8,2.5-0.6,3.3,0.4
				C356.7,388.1,356.6,389.6,355.5,390.4z"/>
			<path class="st6" d="M358.8,395.6c-1.2,0.5-22.5,13.3-23,12.1s19.9-15.9,21.1-16.4c1.2-0.5,2.6,0,3.1,1.2
				C360.6,393.6,360,395,358.8,395.6z"/>
		</g>
		<line class="st3" x1="346" y1="397.5" x2="336.1" y2="406.7"/>
		<line class="st3" x1="347.6" y1="400.1" x2="336.1" y2="406.7"/>
		<line class="st3" x1="340.4" y1="393.7" x2="336.1" y2="406.7"/>
		<line class="st3" x1="337.3" y1="392.6" x2="336.1" y2="406.7"/>
		<line class="st3" x1="334" y1="392.9" x2="336.1" y2="406.7"/>
		<line class="st3" x1="330.3" y1="393.8" x2="336.1" y2="406.7"/>
		<line class="st3" x1="326.9" y1="395.6" x2="336.1" y2="406.7"/>
		<line class="st3" x1="324.5" y1="397.9" x2="336.1" y2="406.7"/>
		<line class="st3" x1="343.4" y1="395" x2="336.1" y2="406.7"/>
	</g>
	<path class="st6" d="M336,434.5L336,434.5c-0.4,0-0.7-0.3-0.7-0.7v-26.3c0-0.4,0.3-0.7,0.7-0.7l0,0c0.4,0,0.7,0.3,0.7,0.7v26.3
		C336.8,434.2,336.4,434.5,336,434.5z"/>
</g>
<g>
	<g>
		<g>
			<path class="st6" d="M119.3,346c1.4,1.5,30.5,26,29,27.4c-1.5,1.4-33-20.9-34.4-22.4c-1.4-1.5-1.3-3.8,0.2-5.2
				C115.6,344.4,117.9,344.5,119.3,346z"/>
			<path class="st6" d="M127.1,339.6c1,1.8,22.9,32.9,21.1,33.8c-1.8,1-26.6-28.6-27.6-30.4c-1-1.8-0.3-4,1.5-4.9
				C123.9,337.1,126.1,337.8,127.1,339.6z"/>
			<path class="st6" d="M137.1,335.8c0.4,2,13,37.9,11.1,38.3s-17.8-34.8-18.2-36.8s0.8-3.9,2.8-4.3S136.6,333.9,137.1,335.8z"/>
			<path class="st6" d="M164.2,338.1c-1,1.8-14.7,37.3-16.5,36.3c-1.8-1,9.1-38,10-39.8c1-1.8,3.2-2.4,4.9-1.5
				C164.5,334.1,165.1,336.3,164.2,338.1z"/>
			<path class="st6" d="M172.2,341.9c-1.3,1.5-23.1,32.8-24.6,31.4c-1.5-1.3,17.8-34.8,19.1-36.3c1.3-1.5,3.6-1.6,5.1-0.3
				C173.4,338.1,173.5,340.4,172.2,341.9z"/>
			<path class="st6" d="M155,335.1c-0.5,2-5,39.8-7,39.3c-2-0.5-0.6-39.1-0.1-41c0.5-2,2.5-3.1,4.4-2.7
				C154.3,331.2,155.5,333.2,155,335.1z"/>
			<path class="st6" d="M145.8,334.6c0,2,4.7,39.8,2.6,39.8s-9.9-37.8-9.9-39.8c0-2,1.6-3.6,3.6-3.6
				C144.1,331,145.8,332.6,145.8,334.6z"/>
			<path class="st6" d="M178.2,347.6c-1.6,1.2-28.6,28.1-29.8,26.5s23.8-31,25.4-32.2c1.6-1.2,3.9-0.9,5.1,0.6
				C180.1,344.1,179.8,346.4,178.2,347.6z"/>
			<path class="st6" d="M183.3,355.5c-1.8,0.8-34.5,20.4-35.3,18.5c-0.8-1.8,30.5-24.4,32.4-25.2s4,0,4.8,1.9
				C186,352.5,185.1,354.7,183.3,355.5z"/>
		</g>
		<line class="st3" x1="163.7" y1="358.5" x2="148.4" y2="372.6"/>
		<line class="st3" x1="166.1" y1="362.4" x2="148.4" y2="372.6"/>
		<line class="st3" x1="155.1" y1="352.7" x2="148.4" y2="372.6"/>
		<line class="st3" x1="150.3" y1="351" x2="148.4" y2="372.6"/>
		<line class="st3" x1="145.3" y1="351.4" x2="148.4" y2="372.6"/>
		<line class="st3" x1="139.5" y1="352.9" x2="148.4" y2="372.6"/>
		<line class="st3" x1="134.3" y1="355.5" x2="148.4" y2="372.6"/>
		<line class="st3" x1="130.6" y1="359.1" x2="148.4" y2="372.6"/>
		<line class="st3" x1="159.6" y1="354.6" x2="148.4" y2="372.6"/>
	</g>
	<path class="st6" d="M148.7,415.3h-0.8c-0.4,0-0.7-0.3-0.7-0.7v-41.2c0-0.4,0.3-0.7,0.7-0.7h0.8c0.4,0,0.7,0.3,0.7,0.7v41.2
		C149.4,415,149.1,415.3,148.7,415.3z"/>
</g>
<g>
	<g>
		<g>
			<path class="st6" d="M502.6,366.5c1.1,1.2,25.1,21.4,23.9,22.6s-27.2-17.3-28.3-18.5s-1.1-3.1,0.2-4.2
				C499.5,365.2,501.4,365.3,502.6,366.5z"/>
			<path class="st6" d="M509,361.2c0.8,1.5,18.9,27.1,17.4,27.9c-1.5,0.8-21.9-23.6-22.7-25c-0.8-1.5-0.2-3.3,1.2-4.1
				C506.4,359.2,508.2,359.8,509,361.2z"/>
			<path class="st6" d="M517.2,358.1c0.4,1.6,10.7,31.2,9.1,31.6c-1.6,0.4-14.6-28.7-15-30.3c-0.4-1.6,0.7-3.2,2.3-3.6
				C515.3,355.5,516.9,356.5,517.2,358.1z"/>
			<path class="st6" d="M539.6,360c-0.8,1.5-12.1,30.7-13.6,29.9c-1.5-0.8,7.5-31.3,8.3-32.8c0.8-1.5,2.6-2,4.1-1.2
				C539.8,356.7,540.4,358.5,539.6,360z"/>
			<path class="st6" d="M546.2,363.2c-1.1,1.2-19,27-20.2,25.9s14.7-28.7,15.8-29.9c1.1-1.2,3-1.3,4.2-0.2S547.3,361.9,546.2,363.2z
				"/>
			<path class="st6" d="M532,357.6c-0.4,1.6-4.1,32.8-5.8,32.4s-0.5-32.2-0.1-33.8c0.4-1.6,2-2.6,3.6-2.2S532.4,356,532,357.6z"/>
			<path class="st6" d="M524.4,357.1c0,1.7,3.8,32.8,2.2,32.8s-8.2-31.1-8.2-32.8c0-1.7,1.3-3,3-3S524.4,355.5,524.4,357.1z"/>
			<path class="st6" d="M551.1,367.8c-1.3,1-23.6,23.1-24.6,21.8c-1-1.3,19.6-25.5,20.9-26.6c1.3-1,3.2-0.8,4.2,0.5
				C552.7,364.9,552.5,366.8,551.1,367.8z"/>
			<path class="st6" d="M555.3,374.3c-1.5,0.7-28.4,16.8-29.1,15.3s25.2-20.1,26.7-20.8c1.5-0.7,3.3,0,4,1.5
				C557.5,371.9,556.8,373.7,555.3,374.3z"/>
		</g>
		<line class="st3" x1="539.2" y1="376.8" x2="526.6" y2="388.5"/>
		<line class="st3" x1="541.2" y1="380" x2="526.6" y2="388.5"/>
		<line class="st3" x1="532.1" y1="372" x2="526.6" y2="388.5"/>
		<line class="st3" x1="528.1" y1="370.6" x2="526.6" y2="388.5"/>
		<line class="st3" x1="524" y1="370.9" x2="526.6" y2="388.5"/>
		<line class="st3" x1="519.3" y1="372.2" x2="526.6" y2="388.5"/>
		<line class="st3" x1="514.9" y1="374.4" x2="526.6" y2="388.5"/>
		<line class="st3" x1="511.9" y1="377.3" x2="526.6" y2="388.5"/>
		<line class="st3" x1="535.8" y1="373.6" x2="526.6" y2="388.5"/>
	</g>
	<path class="st6" d="M526.6,423.6h-0.2c-0.4,0-0.8-0.4-0.8-0.8v-33.5c0-0.4,0.4-0.8,0.8-0.8h0.2c0.4,0,0.8,0.4,0.8,0.8v33.5
		C527.4,423.3,527.1,423.6,526.6,423.6z"/>
</g>
<g>
	<g>
		<g>
			<path class="st6" d="M382.1,353.7c1.5,1.6,33.9,28.9,32.3,30.5c-1.6,1.5-36.7-23.3-38.2-24.9c-1.5-1.6-1.4-4.2,0.2-5.7
				C378,352,380.6,352.1,382.1,353.7z"/>
			<path class="st6" d="M390.8,346.6c1.1,2,25.5,36.6,23.5,37.6c-2,1.1-29.6-31.8-30.7-33.8s-0.3-4.4,1.7-5.5
				S389.8,344.6,390.8,346.6z"/>
			<path class="st6" d="M401.9,342.5c0.5,2.2,14.5,42.2,12.3,42.7c-2.2,0.5-19.8-38.7-20.2-40.9c-0.5-2.2,0.9-4.4,3.1-4.8
				C399.3,338.9,401.5,340.3,401.9,342.5z"/>
			<path class="st6" d="M432.1,344.9c-1.1,2-16.4,41.5-18.3,40.4s10.1-42.3,11.2-44.3c1.1-2,3.5-2.7,5.5-1.7S433.2,343,432.1,344.9z
				"/>
			<path class="st6" d="M441,349.2c-1.5,1.7-25.7,36.5-27.3,35s19.8-38.7,21.3-40.4c1.5-1.7,4.1-1.8,5.7-0.3S442.5,347.6,441,349.2z
				"/>
			<path class="st6" d="M421.9,341.7c-0.5,2.2-5.6,44.2-7.8,43.7c-2.2-0.5-0.6-43.5-0.1-45.7c0.5-2.2,2.7-3.5,4.9-3
				C421.1,337.3,422.4,339.5,421.9,341.7z"/>
			<path class="st6" d="M411.6,341.1c0,2.2,5.2,44.3,2.9,44.3s-11.1-42.1-11.1-44.3s1.8-4.1,4.1-4.1S411.6,338.9,411.6,341.1z"/>
			<path class="st6" d="M447.7,355.6c-1.8,1.4-31.8,31.2-33.2,29.5c-1.4-1.8,26.5-34.5,28.2-35.9c1.8-1.4,4.3-1.1,5.7,0.7
				S449.5,354.2,447.7,355.6z"/>
			<path class="st6" d="M453.4,364.3c-2,0.9-38.4,22.7-39.3,20.6c-0.9-2,34-27.1,36-28c2-0.9,4.4,0,5.4,2.1
				C456.3,361,455.4,363.4,453.4,364.3z"/>
		</g>
		<line class="st3" x1="431.5" y1="367.7" x2="414.6" y2="383.4"/>
		<line class="st3" x1="434.3" y1="372" x2="414.6" y2="383.4"/>
		<line class="st3" x1="422" y1="361.2" x2="414.6" y2="383.4"/>
		<line class="st3" x1="416.6" y1="359.3" x2="414.6" y2="383.4"/>
		<line class="st3" x1="411.1" y1="359.7" x2="414.6" y2="383.4"/>
		<line class="st3" x1="404.7" y1="361.4" x2="414.6" y2="383.4"/>
		<line class="st3" x1="398.8" y1="364.4" x2="414.6" y2="383.4"/>
		<line class="st3" x1="394.8" y1="368.4" x2="414.6" y2="383.4"/>
		<line class="st3" x1="427" y1="363.4" x2="414.6" y2="383.4"/>
	</g>
	<path class="st6" d="M414.9,430.9H414c-0.4,0-0.8-0.4-0.8-0.8v-45.8c0-0.4,0.4-0.8,0.8-0.8h0.9c0.4,0,0.8,0.4,0.8,0.8v45.8
		C415.7,430.5,415.3,430.9,414.9,430.9z"/>
</g>
<g>
	<path class="st1" d="M580.9,377.8c0.8-1.4,3.1-1.5,5.1-0.3c2,1.2,4.5,4.5,3.6,5.8c-0.8,1.4-4.7,0.3-6.7-0.9
		C581,381.3,580.1,379.2,580.9,377.8z"/>
	<path class="st1" d="M580.9,388c0.8-1.4,3.1-1.5,5.1-0.3s4.5,4.5,3.6,5.8c-0.8,1.4-4.7,0.3-6.7-0.9
		C581,391.5,580.1,389.4,580.9,388z"/>
	<path class="st1" d="M600,375.4c-0.8-1.4-3.1-1.5-5.1-0.3c-2,1.2-4.5,4.5-3.6,5.8c0.8,1.4,4.7,0.3,6.7-0.9
		C600,378.8,600.9,376.7,600,375.4z"/>
	<path class="st1" d="M600,386.3c-0.8-1.4-3.1-1.5-5.1-0.3c-2,1.2-4.5,4.5-3.6,5.8c0.8,1.4,4.7,0.3,6.7-0.9
		C600,389.8,600.9,387.7,600,386.3z"/>
	<path class="st1" d="M590.5,412.4L590.5,412.4c-0.4,0-0.7-0.3-0.7-0.7v-39.1c0-0.4,0.3-0.7,0.7-0.7l0,0c0.4,0,0.7,0.3,0.7,0.7v39.1
		C591.2,412.1,590.9,412.4,590.5,412.4z"/>
	<path class="st1" d="M580.9,398.1c0.8-1.4,3.1-1.5,5.1-0.3c2,1.2,4.5,4.5,3.6,5.8c-0.8,1.4-4.7,0.3-6.7-0.9
		C581,401.5,580.1,399.4,580.9,398.1z"/>
	<path class="st1" d="M600,396.4c-0.8-1.4-3.1-1.5-5.1-0.3c-2,1.2-4.5,4.5-3.6,5.8c0.8,1.4,4.7,0.3,6.7-0.9S600.9,397.7,600,396.4z"
		/>
</g>
<g>
	<g>
		<g>
			<path class="st6" d="M571.5,336.8c1.5,1.6,33.8,28.9,32.2,30.4c-1.6,1.5-36.6-23.2-38.1-24.9s-1.4-4.2,0.2-5.7
				S570,335.2,571.5,336.8z"/>
			<path class="st6" d="M580.2,329.7c1.1,2,25.4,36.5,23.5,37.5s-29.6-31.8-30.6-33.7s-0.3-4.4,1.7-5.5
				C576.7,327,579.2,327.7,580.2,329.7z"/>
			<path class="st6" d="M591.3,325.6c0.5,2.2,14.5,42.1,12.3,42.5c-2.2,0.5-19.7-38.6-20.2-40.8c-0.5-2.2,0.9-4.3,3.1-4.8
				C588.7,322,590.8,323.4,591.3,325.6z"/>
			<path class="st6" d="M621.4,328c-1.1,2-16.3,41.4-18.3,40.3c-2-1.1,10.1-42.2,11.1-44.2s3.5-2.7,5.5-1.7
				C621.7,323.6,622.5,326.1,621.4,328z"/>
			<path class="st6" d="M630.3,332.3c-1.5,1.7-25.6,36.4-27.3,34.9c-1.7-1.5,19.7-38.6,21.2-40.3c1.5-1.7,4-1.8,5.7-0.3
				C631.6,328.1,631.8,330.7,630.3,332.3z"/>
			<path class="st6" d="M611.2,324.8c-0.5,2.2-5.6,44.1-7.8,43.6c-2.2-0.5-0.6-43.4-0.1-45.5c0.5-2.2,2.7-3.5,4.9-3
				C610.4,320.4,611.7,322.6,611.2,324.8z"/>
			<path class="st6" d="M601,324.2c0,2.2,5.2,44.2,2.9,44.2c-2.2,0-11-41.9-11-44.2c0-2.2,1.8-4,4-4C599.2,320.2,601,322,601,324.2z
				"/>
			<path class="st6" d="M637,338.6c-1.8,1.4-31.8,31.2-33.1,29.4c-1.4-1.8,26.4-34.4,28.2-35.8c1.8-1.4,4.3-1,5.7,0.7
				C639.1,334.7,638.7,337.3,637,338.6z"/>
			<path class="st6" d="M642.6,347.4c-2,0.9-38.3,22.6-39.2,20.6c-0.9-2,33.9-27.1,36-28c2-0.9,4.4,0,5.3,2.1
				C645.6,344.1,644.6,346.5,642.6,347.4z"/>
		</g>
		<line class="st3" x1="620.8" y1="350.7" x2="603.9" y2="366.4"/>
		<line class="st3" x1="623.6" y1="355.1" x2="603.9" y2="366.4"/>
		<line class="st3" x1="611.3" y1="344.3" x2="603.9" y2="366.4"/>
		<line class="st3" x1="606" y1="342.4" x2="603.9" y2="366.4"/>
		<line class="st3" x1="600.4" y1="342.8" x2="603.9" y2="366.4"/>
		<line class="st3" x1="594" y1="344.5" x2="603.9" y2="366.4"/>
		<line class="st3" x1="588.2" y1="347.4" x2="603.9" y2="366.4"/>
		<line class="st3" x1="584.2" y1="351.4" x2="603.9" y2="366.4"/>
		<line class="st3" x1="616.3" y1="346.4" x2="603.9" y2="366.4"/>
	</g>
	<path class="st6" d="M604.2,413.8h-0.9c-0.4,0-0.8-0.4-0.8-0.8v-45.7c0-0.4,0.4-0.8,0.8-0.8h0.9c0.4,0,0.8,0.4,0.8,0.8V413
		C605,413.4,604.7,413.8,604.2,413.8z"/>
</g>
<g>
	<g>
		<g>
			<path class="st6" d="M225.2,381.3c1.1,1.2,25.1,21.4,23.9,22.6c-1.2,1.1-27.2-17.3-28.3-18.5s-1.1-3.1,0.2-4.2
				C222.1,380,224,380.1,225.2,381.3z"/>
			<path class="st6" d="M231.6,376c0.8,1.5,18.9,27.1,17.4,27.9c-1.5,0.8-21.9-23.6-22.7-25c-0.8-1.5-0.2-3.3,1.2-4.1
				C229,374,230.8,374.5,231.6,376z"/>
			<path class="st6" d="M239.8,372.9c0.4,1.6,10.7,31.2,9.1,31.6s-14.6-28.7-15-30.3c-0.4-1.6,0.7-3.2,2.3-3.6
				S239.5,371.3,239.8,372.9z"/>
			<path class="st6" d="M262.2,374.8c-0.8,1.5-12.1,30.7-13.6,29.9s7.5-31.3,8.3-32.8c0.8-1.5,2.6-2,4.1-1.2
				C262.4,371.5,263,373.3,262.2,374.8z"/>
			<path class="st6" d="M268.7,378c-1.1,1.2-19,27-20.2,25.9c-1.2-1.1,14.7-28.7,15.8-29.9s3-1.3,4.2-0.2
				C269.7,374.8,269.9,376.7,268.7,378z"/>
			<path class="st6" d="M254.6,372.4c-0.4,1.6-4.1,32.8-5.8,32.4c-1.6-0.4-0.5-32.2-0.1-33.8c0.4-1.6,2-2.6,3.6-2.2
				C254,369.1,255,370.8,254.6,372.4z"/>
			<path class="st6" d="M247,371.9c0,1.7,3.8,32.8,2.2,32.8s-8.2-31.1-8.2-32.8c0-1.7,1.3-3,3-3S247,370.3,247,371.9z"/>
			<path class="st6" d="M273.7,382.6c-1.3,1-23.6,23.1-24.6,21.8c-1-1.3,19.6-25.5,20.9-26.6c1.3-1,3.2-0.8,4.2,0.5
				C275.3,379.7,275,381.6,273.7,382.6z"/>
			<path class="st6" d="M277.9,389.1c-1.5,0.7-28.4,16.8-29.1,15.3c-0.7-1.5,25.2-20.1,26.7-20.8c1.5-0.7,3.3,0,4,1.5
				C280.1,386.7,279.4,388.5,277.9,389.1z"/>
		</g>
		<line class="st3" x1="261.7" y1="391.6" x2="249.2" y2="403.3"/>
		<line class="st3" x1="263.8" y1="394.8" x2="249.2" y2="403.3"/>
		<line class="st3" x1="254.7" y1="386.8" x2="249.2" y2="403.3"/>
		<line class="st3" x1="250.7" y1="385.4" x2="249.2" y2="403.3"/>
		<line class="st3" x1="246.6" y1="385.7" x2="249.2" y2="403.3"/>
		<line class="st3" x1="241.9" y1="387" x2="249.2" y2="403.3"/>
		<line class="st3" x1="237.5" y1="389.2" x2="249.2" y2="403.3"/>
		<line class="st3" x1="234.5" y1="392.1" x2="249.2" y2="403.3"/>
		<line class="st3" x1="258.4" y1="388.4" x2="249.2" y2="403.3"/>
	</g>
	<path class="st6" d="M249.2,438.4H249c-0.4,0-0.8-0.4-0.8-0.8v-33.5c0-0.4,0.4-0.8,0.8-0.8h0.2c0.4,0,0.8,0.4,0.8,0.8v33.5
		C250,438.1,249.7,438.4,249.2,438.4z"/>
</g>
<path class="st1" d="M189.5,393.4c1.3-2.1,4.9-2.3,7.9-0.4c3.1,1.9,7,7,5.7,9.1c-1.3,2.1-7.4,0.5-10.5-1.4
	C189.6,398.8,188.2,395.5,189.5,393.4z"/>
<path class="st1" d="M219.4,390.8c-1.3-2.1-4.9-2.3-7.9-0.4c-3.1,1.9-7,7-5.7,9.1c1.3,2.1,7.4,0.5,10.5-1.4
	C219.4,396.2,220.8,392.9,219.4,390.8z"/>
<path class="st1" d="M539.7,333c1.3-2.1,4.9-2.3,7.9-0.4c3.1,1.9,7,7,5.7,9.1c-1.3,2.1-7.4,0.5-10.5-1.4
	C539.8,338.4,538.4,335.1,539.7,333z"/>
<path class="st1" d="M569.6,330.3c-1.3-2.1-4.9-2.3-7.9-0.4c-3.1,1.9-7,7-5.7,9.1c1.3,2.1,7.4,0.5,10.5-1.4
	C569.5,335.7,570.9,332.4,569.6,330.3z"/>
<g>
	<path class="st7" d="M507.3,460.5c0,0,4-6.4,10.8-7.8c0.1,0.1,7-3.4,13.7-2.2c0.1,0-7.1,5.4-13.6,2.3
		C518.1,452.7,517.2,457.7,507.3,460.5z"/>
	<path class="st7" d="M506,447.4c0,0,7.6,0.2,12.2,5.3c0,0.1,6.5,4.3,8.9,10.7c0.1,0.1-8.2-3.3-8.9-10.5
		C518.3,452.7,513.5,454.5,506,447.4z"/>
	<path class="st7" d="M516.5,439.8c0,0,3.9,6.5,2.1,13.1c-0.1,0-0.1,7.7-4.2,13.2c0,0.1-1.6-8.7,4.1-13.2
		C518.6,452.9,514.4,449.9,516.5,439.8z"/>
</g>
<g>
	<path class="st7" d="M117,429.1c0,0,4-6.4,10.8-7.8c0.1,0.1,7-3.4,13.7-2.2c0.1,0-7.1,5.4-13.6,2.3
		C127.7,421.3,126.9,426.4,117,429.1z"/>
	<path class="st7" d="M115.7,416c0,0,7.6,0.2,12.2,5.3c0,0.1,6.5,4.3,8.9,10.7c0.1,0.1-8.2-3.3-8.9-10.5
		C127.9,421.3,123.1,423.2,115.7,416z"/>
	<path class="st7" d="M126.1,408.4c0,0,3.9,6.5,2.1,13.1c-0.1,0-0.1,7.7-4.2,13.2c0,0.1-1.6-8.7,4.1-13.2
		C128.3,421.6,124.1,418.5,126.1,408.4z"/>
</g>
<g>
	<path class="st7" d="M602.6,443.2c0,0,4-6.4,10.8-7.8c0.1,0.1,7-3.4,13.7-2.2c0.1,0-7.1,5.4-13.6,2.3
		C613.4,435.4,612.5,440.5,602.6,443.2z"/>
	<path class="st7" d="M601.3,430.2c0,0,7.6,0.2,12.2,5.3c0,0.1,6.5,4.3,8.9,10.7c0.1,0.1-8.2-3.3-8.9-10.5
		C613.6,435.5,608.8,437.3,601.3,430.2z"/>
	<path class="st7" d="M611.8,422.6c0,0,3.9,6.5,2.1,13.1c-0.1,0-0.1,7.7-4.2,13.2c0,0.1-1.6-8.7,4.1-13.2
		C613.9,435.7,609.7,432.7,611.8,422.6z"/>
</g>
<g>
	<path class="st7" d="M442,434.1c0,0,4-6.4,10.8-7.8c0.1,0.1,7-3.4,13.7-2.2c0.1,0-7.1,5.4-13.6,2.3
		C452.8,426.3,452,431.3,442,434.1z"/>
	<path class="st7" d="M440.8,421c0,0,7.6,0.2,12.2,5.3c0,0.1,6.5,4.3,8.9,10.7c0.1,0.1-8.2-3.3-8.9-10.5
		C453,426.3,448.2,428.2,440.8,421z"/>
	<path class="st7" d="M451.2,413.4c0,0,3.9,6.5,2.1,13.1c-0.1,0-0.1,7.7-4.2,13.2c0,0.1-1.6-8.7,4.1-13.2
		C453.3,426.6,449.2,423.5,451.2,413.4z"/>
</g>
<g>
	<path class="st7" d="M69.7,438.4c0,0,4-6.4,10.8-7.8c0.1,0.1,7-3.4,13.7-2.2c0.1,0-7.1,5.4-13.6,2.3
		C80.5,430.6,79.6,435.6,69.7,438.4z"/>
	<path class="st7" d="M68.5,425.3c0,0,7.6,0.2,12.2,5.3c0,0.1,6.5,4.3,8.9,10.7c0.1,0.1-8.2-3.3-8.9-10.5
		C80.7,430.6,75.9,432.4,68.5,425.3z"/>
	<path class="st7" d="M78.9,417.7c0,0,3.9,6.5,2.1,13.1c-0.1,0-0.1,7.7-4.2,13.2c0,0.1-1.6-8.7,4.1-13.2
		C81,430.8,76.9,427.8,78.9,417.7z"/>
</g>
<g>
	<path class="st7" d="M263.3,447.3c0,0,4-6.4,10.8-7.8c0.1,0.1,7-3.4,13.7-2.2c0.1,0-7.1,5.4-13.6,2.3
		C274,439.5,273.2,444.5,263.3,447.3z"/>
	<path class="st7" d="M262,434.2c0,0,7.6,0.2,12.2,5.3c0,0.1,6.5,4.3,8.9,10.7c0.1,0.1-8.2-3.3-8.9-10.5
		C274.2,439.5,269.4,441.4,262,434.2z"/>
	<path class="st7" d="M272.4,426.6c0,0,3.9,6.5,2.1,13.1c-0.1,0-0.1,7.7-4.2,13.2c0,0.1-1.6-8.7,4.1-13.2
		C274.6,439.7,270.4,436.7,272.4,426.6z"/>
</g>
</svg>
