<?xml version="1.0" encoding="utf-8"?>
<!-- Generator: Adobe Illustrator 21.1.0, SVG Export Plug-In . SVG Version: 6.00 Build 0)  -->
<svg version="1.1" id="圖層_1" xmlns="http://www.w3.org/2000/svg" xmlns:xlink="http://www.w3.org/1999/xlink" x="0px" y="0px"
	 viewBox="0 0 221.3 221.8" style="enable-background:new 0 0 221.3 221.8;" xml:space="preserve">
<style type="text/css">
	.st0{fill:#FFFFFF;stroke:#231815;stroke-miterlimit:10;}
	.st1{fill:#E8C689;}
	.st2{stroke:#231815;stroke-miterlimit:10;}
	.st3{fill:#231815;stroke:#231815;stroke-miterlimit:10;}
	.st4{fill:#F09392;stroke:#231815;stroke-miterlimit:10;}
	.st5{fill:#626262;stroke:#231815;stroke-miterlimit:10;}
	.st6{fill:#231815;stroke:#FFFFFF;stroke-width:6;stroke-miterlimit:10;}
</style>
<g>
	<path class="st0" d="M93.8,62.2c0,0.1,0,0.2,0,0.4C93.8,62.4,93.8,62.3,93.8,62.2z"/>
	<path class="st0" d="M79.6,62.4c0-0.1,0-0.2,0.1-0.4C79.7,62.1,79.6,62.3,79.6,62.4z"/>
	<path class="st0" d="M86.8,70.5c-0.2,0-0.5,0-0.7,0C86.4,70.5,86.6,70.5,86.8,70.5z"/>
	<path class="st0" d="M83.3,56.8c0.1-0.1,0.2-0.1,0.3-0.2C83.5,56.7,83.4,56.8,83.3,56.8z"/>
	<path class="st0" d="M83.8,69.8c-0.1,0-0.2-0.1-0.3-0.2C83.6,69.7,83.7,69.7,83.8,69.8z"/>
	<path class="st0" d="M89.2,56.4c0.1,0,0.2,0.1,0.3,0.1C89.4,56.5,89.3,56.4,89.2,56.4z"/>
	<path class="st0" d="M79.6,63.1c0-0.1,0-0.2,0-0.4C79.6,62.8,79.6,63,79.6,63.1z"/>
	<path class="st0" d="M84.4,70c-0.1,0-0.2-0.1-0.3-0.1C84.2,70,84.3,70,84.4,70z"/>
	<path class="st0" d="M132.1,70.4c-0.2,0-0.4,0-0.6-0.1C131.6,70.4,131.8,70.4,132.1,70.4z"/>
	<path class="st0" d="M131.4,70.3c-3.3-0.6-5.7-3.5-5.8-6.9c0-0.1,0-0.1,0-0.2c-0.2-3.7,2.4-6.9,6-7.4c-3.4,0.5-6,3.4-6.1,7
		c0,0.1,0,0.3,0,0.4C125.5,66.8,128,69.7,131.4,70.3z"/>
	<path class="st0" d="M85.1,70.3c-0.1,0-0.3-0.1-0.4-0.1C84.9,70.2,85,70.2,85.1,70.3z"/>
	<path class="st0" d="M85.9,70.4c-0.1,0-0.3,0-0.4-0.1C85.6,70.4,85.7,70.4,85.9,70.4z"/>
	<path class="st0" d="M93.6,61.5c0,0.1,0,0.2,0.1,0.4C93.7,61.7,93.7,61.6,93.6,61.5z"/>
	<path class="st0" d="M79.7,61.7c0-0.1,0.1-0.2,0.1-0.3C79.8,61.4,79.8,61.6,79.7,61.7z"/>
	<path class="st0" d="M80.8,59.1c0.1-0.1,0.1-0.2,0.2-0.3C80.9,59,80.9,59,80.8,59.1z"/>
	<path class="st0" d="M92,58.4c0.1,0.1,0.1,0.2,0.2,0.3C92.2,58.5,92.1,58.4,92,58.4z"/>
	<path class="st0" d="M90.4,57c0.1,0.1,0.2,0.1,0.3,0.2C90.6,57.2,90.5,57.1,90.4,57z"/>
	<path class="st0" d="M91.5,57.9c0.1,0.1,0.2,0.2,0.3,0.3C91.7,58,91.6,57.9,91.5,57.9z"/>
	<path class="st0" d="M92.5,58.9c0.1,0.1,0.1,0.2,0.2,0.3C92.6,59.1,92.5,59,92.5,58.9z"/>
	<path class="st0" d="M80.5,59.7c0.1-0.1,0.1-0.2,0.2-0.3C80.6,59.5,80.5,59.6,80.5,59.7z"/>
	<path class="st0" d="M80.2,60.3c0-0.1,0.1-0.2,0.1-0.3C80.2,60.1,80.2,60.2,80.2,60.3z"/>
	<path class="st0" d="M132.6,70.5c0.1,0,0.2,0,0.3,0c-0.2,0-0.4,0-0.6,0C132.4,70.5,132.5,70.5,132.6,70.5z"/>
	<path class="st0" d="M93.2,60.1c0.1,0.1,0.1,0.2,0.1,0.3C93.3,60.3,93.2,60.2,93.2,60.1z"/>
	<path class="st0" d="M93.4,60.8c0,0.1,0.1,0.2,0.1,0.3C93.5,61,93.5,60.9,93.4,60.8z"/>
	<path class="st0" d="M89.8,56.7c0.1,0.1,0.2,0.1,0.3,0.2C90,56.8,89.9,56.7,89.8,56.7z"/>
	<path class="st0" d="M92.8,59.5c0.1,0.1,0.1,0.2,0.2,0.3C93,59.7,92.9,59.6,92.8,59.5z"/>
	<path class="st0" d="M79.9,61c0-0.1,0.1-0.2,0.1-0.3C80,60.8,79.9,60.9,79.9,61z"/>
	<path class="st0" d="M82.6,69.1c-0.1-0.1-0.2-0.1-0.3-0.2C82.4,69,82.5,69,82.6,69.1z"/>
	<path class="st0" d="M79.7,64.5c0-0.1,0-0.2-0.1-0.3C79.7,64.3,79.7,64.4,79.7,64.5z"/>
	<path class="st0" d="M81.7,58.1c0.1-0.1,0.1-0.2,0.2-0.2C81.8,57.9,81.8,58,81.7,58.1z"/>
	<path class="st0" d="M79.6,63.7c0,0,0,0.1,0,0.1c0-0.1,0-0.2,0-0.4C79.6,63.5,79.6,63.6,79.6,63.7z"/>
	<path class="st0" d="M86.3,55.9C86.3,55.9,86.3,55.9,86.3,55.9c0.1,0,0.2,0,0.3,0C86.6,55.9,86.5,55.9,86.3,55.9z"/>
	<path class="st0" d="M87.1,55.9c0.1,0,0.2,0,0.3,0C87.3,56,87.2,55.9,87.1,55.9z"/>
	<path class="st0" d="M79.9,65.2c0-0.1-0.1-0.2-0.1-0.3C79.8,65,79.8,65.1,79.9,65.2z"/>
	<path class="st0" d="M84.6,56.3c0.1,0,0.2-0.1,0.3-0.1C84.8,56.2,84.7,56.2,84.6,56.3z"/>
	<path class="st0" d="M83.2,69.5c-0.1-0.1-0.2-0.1-0.3-0.2C83,69.3,83.1,69.4,83.2,69.5z"/>
	<path class="st0" d="M85.3,56.1c0.1,0,0.2,0,0.3-0.1C85.5,56,85.4,56.1,85.3,56.1z"/>
	<path class="st0" d="M91,57.4c0.1,0.1,0.2,0.2,0.3,0.2C91.2,57.6,91.1,57.5,91,57.4z"/>
	<path class="st0" d="M83.9,56.5c0.1,0,0.2-0.1,0.3-0.1C84.1,56.4,84,56.5,83.9,56.5z"/>
	<path class="st0" d="M87.8,56c0.1,0,0.2,0,0.3,0.1C88,56.1,87.9,56,87.8,56z"/>
	<path class="st0" d="M82.2,57.6c0.1-0.1,0.2-0.1,0.3-0.2C82.3,57.5,82.3,57.5,82.2,57.6z"/>
	<path class="st0" d="M64.1,154.4c41.1,28.5,44.1,25.2,82.3,5.7c3.9-1.5,7.6-3.4,11.1-5.6c6.6-3.7,13.1-2.5,16.5,3.3
		c1.1,1.8,1.6,3.6,1.7,5.4c0-2-0.5-4.1-1.7-6.1c-3.4-5.8-9.9-7-16.5-3.3c-3.6,2.2-7.3,4-11.1,5.6c-38.2,19.5-41.2,22.8-82.3-5.7
		c-6.4-3.6-12.6-2.3-16.2,3.3c-1.3,2-1.8,4.1-1.8,6.2c0.1-1.8,0.7-3.7,1.8-5.5C51.5,152.1,57.7,150.8,64.1,154.4z"/>
	<path class="st0" d="M132.8,55.7c-0.1,0-0.1,0-0.2,0c0.1,0,0.2,0,0.4,0C132.9,55.7,132.8,55.7,132.8,55.7z"/>
	<path class="st0" d="M81.6,68.2c-0.1-0.1-0.2-0.2-0.2-0.3C81.4,68,81.5,68.1,81.6,68.2z"/>
	<path class="st0" d="M131.7,55.8c0.2,0,0.4,0,0.6-0.1C132.1,55.7,131.9,55.8,131.7,55.8z"/>
	<path class="st0" d="M82.1,68.7c-0.1-0.1-0.2-0.2-0.3-0.2C81.9,68.5,82,68.6,82.1,68.7z"/>
	<path class="st0" d="M133.4,55.7c0.1,0,0.1,0,0.2,0C133.5,55.7,133.5,55.7,133.4,55.7z"/>
	<path class="st0" d="M82.7,57.2c0.1-0.1,0.2-0.1,0.3-0.2C82.9,57.1,82.8,57.1,82.7,57.2z"/>
	<path class="st0" d="M81.1,67.7c-0.1-0.1-0.1-0.2-0.2-0.3C81,67.5,81.1,67.6,81.1,67.7z"/>
	<path class="st0" d="M81.2,58.6c0.1-0.1,0.1-0.2,0.2-0.2C81.4,58.4,81.3,58.5,81.2,58.6z"/>
	<path class="st0" d="M80.7,67.1c-0.1-0.1-0.1-0.2-0.2-0.3C80.6,66.9,80.7,67,80.7,67.1z"/>
	<path class="st0" d="M80.4,66.5c-0.1-0.1-0.1-0.2-0.2-0.3C80.3,66.3,80.3,66.4,80.4,66.5z"/>
	<path class="st0" d="M88.5,56.2c0.1,0,0.2,0.1,0.3,0.1C88.7,56.2,88.6,56.2,88.5,56.2z"/>
	<path class="st1" d="M25.9,121.5c0.4-1.4,0.8-2.8,1.2-4.2c-1.9,0.1-4.3-0.2-4.5-0.9c-0.1-0.5,0.6-1,1.4-1.4c1.7-1,3.2-1.8,4.5-2.5
		c0-0.1,0.1-0.2,0.1-0.3c-1.8,0.2-3.7,0-4-0.9c-0.1-0.4,0.1-1,1-1.9c1.2-1.2,2.6-2.1,3.9-2.8c-1.3,0-2.6-0.2-2.9-0.9
		c-0.4-1,0.9-2.3,1.1-2.6c0.6-0.6,1.3-1.1,2.1-1.5c-1.5-0.7-3.6-2.3-2.6-2.8c2.5-1.2,4.5-2.2,6.1-3c0-0.1,0-0.2,0.1-0.2
		c-2.6,0.5-5.5,0.4-5.9-0.6c-0.3-1,1.8-2.6,2.2-2.8c1.1-0.8,2.4-1.4,3.6-1.7c-0.3-0.1-0.5-0.2-0.8-0.3c-1.7-0.8-3-2.8-2.5-4
		c0.6-1.4,4.3-1.5,6.5-1.4c0-0.1,0-0.2,0.1-0.3c-4.5-1-5.8-1.8-5.8-2.4c0-1.3,5.8-2.1,7.4-2.9c0.1-0.2,0.1-0.4,0.2-0.5
		c-0.7-0.2-2.7,0.1-4.5-1.3c-1.8-1.4-3.6-3-3.3-4c0.7-1.7,8-0.1,9.5-0.8c0.1-0.2,0.1-0.4,0.2-0.6c-0.8-1.2-6.8-3-7.4-6.9
		c-0.3-1.7,0.5-3.8,1.8-4.3c1.7-0.6,4.5,1.6,7.2,5.8c0.2-0.6,0.3-1.2,0.5-1.8c0.4-1.3-0.6-3.5-1.6-4.7c-6.3-8.2-6-18.1,1-25.9
		c5.6-6.2,17.2-7.3,25-2.5c1.2,0.7,3.3,1.5,4.2,0.9c13.8-8.6,29.1-8.5,44.5-8.1c11.3,0.3,22.1,2.6,30,7.8c7.1-1.4,12.8-3.8,18.1-3.3
		c15.8,1.6,22.2,18.4,12.6,31c-1,1.4-1.9,3.7-1.4,5.2c0.1,0.3,0.2,0.6,0.2,0.9c2.6-3.9,5.2-6,6.9-5.4c1.3,0.5,2,2.5,1.8,4.3
		c-0.6,3.6-5.6,5.4-7.1,6.6c0.1,0.3,0.2,0.7,0.3,1c2.1,0.3,8.4-0.9,9.1,0.7c0.4,1-1.5,2.6-3.3,4c-1.6,1.2-3.3,1.2-4.2,1.3
		c0.1,0.3,0.1,0.5,0.2,0.8c2,0.7,6.9,1.5,7,2.7c0,0.6-1.3,1.4-5.5,2.3c0,0.1,0.1,0.2,0.1,0.3c2.3-0.1,5.6,0.1,6.2,1.4
		c0.5,1.2-0.8,3.2-2.5,4c-0.3,0.1-0.5,0.2-0.8,0.3c1.2,0.3,2.5,0.9,3.6,1.7c0.3,0.2,2.5,1.8,2.2,2.8c-0.3,1-3,1.1-5.6,0.7
		c0,0.1,0.1,0.2,0.1,0.3c1.5,0.7,3.4,1.7,5.7,2.8c1,0.5-1.1,2.1-2.6,2.8c0.8,0.4,1.5,0.8,2.1,1.5c0.3,0.3,1.5,1.7,1.1,2.6
		c-0.3,0.8-1.6,1-2.9,0.9c1.3,0.7,2.7,1.6,3.9,2.8c0.9,0.9,1.1,1.4,1,1.9c-0.3,0.8-2,1-3.7,0.9c0,0.2,0.1,0.3,0.1,0.5
		c1.2,0.6,2.6,1.4,4.2,2.3c0.7,0.4,1.5,0.9,1.4,1.4c-0.1,0.7-2.3,1-4.2,0.9c0.2,0.6,0.3,1.2,0.5,1.8c1.1,3.3,2.6,6.5,4.6,9.3
		c6.1,9.1,11.7,18.5,16.8,28c6.4-14,9.9-29.5,9.9-45.9C221.3,49.5,171.7,0,110.6,0S0,49.5,0,110.6c0,14.6,2.8,28.5,8,41.2
		c4.8-8.6,10-17.1,15.6-25.4C24.6,125,25.4,123.3,25.9,121.5z"/>
	<path class="st0" d="M80.1,65.9c0-0.1-0.1-0.2-0.1-0.3C80,65.7,80,65.8,80.1,65.9z"/>
	<path class="st0" d="M180,84.9c0-0.1-0.1-0.2-0.1-0.3c-0.6,0.1-1.2,0.3-2,0.4C177.8,85,178.7,84.9,180,84.9z"/>
	<path class="st0" d="M176,72.5c0.1,0.2,0.3,0.3,0.7,0.3c-0.1-0.3-0.2-0.7-0.3-1C176.1,72,175.9,72.3,176,72.5z"/>
	<path class="st0" d="M38.3,85c-0.6-0.1-1.1-0.2-1.7-0.3c0,0.1,0,0.2-0.1,0.3C37.7,84.9,38.5,85,38.3,85z"/>
	<path class="st0" d="M183.3,96.1c0-0.1-0.1-0.2-0.1-0.3c-0.3-0.1-0.7-0.1-1-0.2C182.5,95.8,182.9,95.9,183.3,96.1z"/>
	<path class="st0" d="M38.5,79c0-0.1-0.1-0.1-0.2-0.2c-0.1,0.2-0.1,0.4-0.2,0.5C38.4,79.2,38.6,79.1,38.5,79z"/>
	<path class="st0" d="M188.1,112.8c0-0.2-0.1-0.3-0.1-0.5c-0.3,0-0.6-0.1-0.9-0.1C187.4,112.4,187.7,112.6,188.1,112.8z"/>
	<path class="st0" d="M177.8,79c0,0.2,0.3,0.4,0.8,0.5c-0.1-0.3-0.1-0.5-0.2-0.8C178,78.8,177.8,78.8,177.8,79z"/>
	<path class="st0" d="M33.4,95.8c0,0.1,0,0.2-0.1,0.2c0.3-0.1,0.6-0.3,0.8-0.4C33.9,95.6,33.7,95.7,33.4,95.8z"/>
	<path class="st0" d="M28.6,112.3c0,0.1-0.1,0.2-0.1,0.3c0.2-0.1,0.5-0.3,0.7-0.4C29,112.3,28.8,112.3,28.6,112.3z"/>
	<path class="st2" d="M22.5,174.5c0.8,0.3,1.2,1.1,1,1.8c-0.1,0.9-0.1,1.8,0.2,2.6c20.3,25.8,51.7,42.3,87,42.3
		c28,0,53.5-10.4,73-27.5c-0.4-0.7-0.8-1.5-1.2-2.1v0c-1.1-1.6,1.5-3.1,2.6-1.5c0.3,0.5,0.7,1.1,1,1.6c10.6-9.9,19.3-21.8,25.4-35.2
		c-5.1-9.5-10.7-18.9-16.8-28c-2-2.9-3.5-6-4.6-9.3c-0.2-0.6-0.3-1.2-0.5-1.8c-0.3,0-0.6,0-0.8-0.1c-2.3-0.2-4.5-1.1-6.4-2.5
		l-3.6-20.6c-0.4-0.2-0.8-0.5-1.2-0.8c0,0,0.3,0.1,1.2,0.5L174,67.7c0.3-0.5,0.6-0.9,0.9-1.4c-0.1-0.3-0.2-0.6-0.2-0.9
		c-0.4-1.5,0.4-3.9,1.4-5.2c9.6-12.6,3.1-29.4-12.6-31c-5.3-0.6-11,1.9-18.1,3.3c-7.9-5.2-18.7-7.5-30-7.8
		c-15.4-0.4-30.7-0.6-44.5,8.1c-0.9,0.5-3-0.2-4.2-0.9c-7.8-4.8-19.4-3.7-25,2.5c-7,7.8-7.3,17.7-1,25.9c1,1.3,2,3.4,1.6,4.7
		c-0.2,0.6-0.3,1.2-0.5,1.8c0.2,0.3,0.4,0.6,0.6,0.9L37.7,94c0.9-0.4,1.2-0.5,1.1-0.5c-0.4,0.3-0.8,0.5-1.2,0.7L34,114.9
		c-1.9,1.4-4.1,2.3-6.4,2.5c-0.2,0-0.4,0-0.5,0c-0.4,1.4-0.8,2.8-1.2,4.2c-0.5,1.7-1.3,3.4-2.3,4.9C18,134.8,12.8,143.3,8,151.9
		c3.3,8.3,7.7,16.1,12.8,23.3C21.1,174.6,21.8,174.4,22.5,174.5z M168.3,199.5c-0.8,0.2-1.6-0.2-1.8-1l-0.5-3
		c-0.2-0.8,0.2-1.6,1-1.8c0.8-0.2,1.6,0.2,1.8,1l0.5,3C169.5,198.4,169,199.2,168.3,199.5z M173.1,197.8l-2.4-5.1
		c-0.8-1.7,1.8-3.3,2.6-1.5l2.4,5.1C176.5,198,174,199.6,173.1,197.8z M142.5,72.2c4.5-5.5,13.3-4.7,18.2-0.3c4.6,4.2,6,12,2.3,16.5
		c-4.2,5.2-12.9,3.2-13.5,3.1c-1.3-0.3-2.5-0.7-3.6-1.4C141.2,87,137.8,78.1,142.5,72.2z M131.6,55.8
		C131.6,55.8,131.7,55.8,131.6,55.8c0.3,0,0.5-0.1,0.7-0.1c0,0,0.1,0,0.1,0c0.1,0,0.1,0,0.2,0c0.1,0,0.1,0,0.2,0c0,0,0.1,0,0.1,0
		c0.2,0,0.3,0,0.5,0c0.1,0,0.1,0,0.2,0c3.4,0.4,6.1,3.2,6.3,6.7c0,0.1,0,0.3,0,0.4c0.1,4-3,7.4-7,7.5c-0.1,0-0.2,0-0.3,0
		c-0.1,0-0.2,0-0.3,0c-0.1,0-0.1,0-0.2,0c-0.2,0-0.4,0-0.6-0.1c0,0,0,0,0,0c-3.4-0.6-5.9-3.6-5.8-7.1c0-0.1,0-0.3,0-0.4
		C125.6,59.2,128.2,56.3,131.6,55.8z M133.7,77.9c4.9,7.3,2.9,20.7-4.8,26.7c-4.1,3.2-8.7,3.5-14.2,3.7c-5,0.3-18.1,0.9-26.1-8
		c-3.2-3.6-7.1-10.4-4.8-15.7c0.8-1.8,2.2-3.2,3.9-4.2C95.5,75.5,124.7,64.5,133.7,77.9z M114.1,149.9l-1.9-7.5
		c-0.5-1.9,2.4-2.7,2.9-0.8l1.9,7.5C117.5,151,114.6,151.8,114.1,149.9z M107.3,147c0,0.8-0.7,1.5-1.5,1.5s-1.5-0.7-1.5-1.5
		c0-1.6-0.5-3.1-1.5-4.3c-0.4-0.7-0.2-1.6,0.5-2.1c0.7-0.4,1.6-0.2,2.1,0.5C106.6,142.9,107.3,144.9,107.3,147z M100.9,147
		c0,0.8-0.7,1.5-1.5,1.5c-0.8,0-1.5-0.7-1.5-1.5c-0.1-0.9-0.4-1.7-1-2.4l0,0c-0.6-0.6-0.6-1.5,0-2.1c0.6-0.6,1.5-0.6,2.1,0
		C100.1,143.7,100.8,145.3,100.9,147z M116.8,63.8c0.1,3.8-3,6.9-6.8,7c-0.1,0-0.1,0-0.2,0c-3.7,0.2-7-2.6-7.2-6.4
		c0-0.1,0-0.2,0-0.3C102.5,60,116.9,59.7,116.8,63.8z M79.6,62.7c0-0.1,0-0.2,0-0.4c0-0.1,0-0.2,0.1-0.4c0-0.1,0-0.2,0.1-0.3
		c0-0.1,0.1-0.2,0.1-0.3c0-0.1,0.1-0.2,0.1-0.3c0-0.1,0.1-0.2,0.1-0.3c0-0.1,0.1-0.2,0.1-0.3c0-0.1,0.1-0.2,0.1-0.3
		c0.1-0.1,0.1-0.2,0.2-0.3c0.1-0.1,0.1-0.2,0.2-0.3c0.1-0.1,0.1-0.2,0.2-0.3c0.1-0.1,0.1-0.2,0.2-0.3c0.1-0.1,0.1-0.2,0.2-0.3
		c0.1-0.1,0.1-0.2,0.2-0.2c0.1-0.1,0.2-0.2,0.3-0.3c0.1-0.1,0.1-0.2,0.2-0.2c0.1-0.1,0.2-0.2,0.3-0.2c0.1-0.1,0.2-0.1,0.3-0.2
		c0.1-0.1,0.2-0.1,0.3-0.2c0.1-0.1,0.2-0.1,0.3-0.2c0.1-0.1,0.2-0.1,0.3-0.2c0.1-0.1,0.2-0.1,0.3-0.2c0.1-0.1,0.2-0.1,0.3-0.1
		c0.1,0,0.2-0.1,0.3-0.1c0.1,0,0.2-0.1,0.4-0.1c0.1,0,0.2-0.1,0.3-0.1c0.1,0,0.3-0.1,0.4-0.1c0.1,0,0.2,0,0.3-0.1
		c0.2,0,0.5-0.1,0.7-0.1c0,0,0,0,0,0c0.1,0,0.2,0,0.3,0c0.1,0,0.3,0,0.4,0c0.1,0,0.2,0,0.3,0c0.1,0,0.3,0,0.4,0c0.1,0,0.2,0,0.3,0.1
		c0.1,0,0.2,0,0.4,0.1c0.1,0,0.2,0.1,0.3,0.1c0.1,0,0.2,0.1,0.3,0.1c0.1,0,0.2,0.1,0.3,0.1c0.1,0,0.2,0.1,0.3,0.1
		c0.1,0.1,0.2,0.1,0.3,0.2c0.1,0.1,0.2,0.1,0.3,0.2c0.1,0.1,0.2,0.1,0.3,0.2c0.1,0.1,0.2,0.1,0.3,0.2c0.1,0.1,0.2,0.2,0.3,0.2
		c0.1,0.1,0.2,0.1,0.3,0.2c0.1,0.1,0.2,0.2,0.3,0.3c0.1,0.1,0.2,0.2,0.2,0.2c0.1,0.1,0.1,0.2,0.2,0.3c0.1,0.1,0.1,0.2,0.2,0.3
		c0.1,0.1,0.1,0.2,0.2,0.3c0.1,0.1,0.1,0.2,0.2,0.3c0.1,0.1,0.1,0.2,0.2,0.3c0.1,0.1,0.1,0.2,0.2,0.3c0.1,0.1,0.1,0.2,0.1,0.3
		c0,0.1,0.1,0.2,0.1,0.3c0,0.1,0.1,0.2,0.1,0.3c0,0.1,0.1,0.2,0.1,0.3c0,0.1,0,0.2,0.1,0.4c0,0.1,0,0.2,0.1,0.4c0,0.1,0,0.2,0,0.4
		c0,0.1,0,0.2,0,0.4c0,0,0,0,0,0c0.1,4-3,7.4-7,7.5c-0.2,0-0.5,0-0.7,0c-0.1,0-0.2,0-0.3,0c-0.1,0-0.3,0-0.4-0.1
		c-0.1,0-0.2,0-0.3-0.1c-0.1,0-0.3-0.1-0.4-0.1c-0.1,0-0.2-0.1-0.3-0.1c-0.1,0-0.2-0.1-0.3-0.1c-0.1,0-0.2-0.1-0.3-0.1
		c-0.1,0-0.2-0.1-0.3-0.2c-0.1-0.1-0.2-0.1-0.3-0.2c-0.1-0.1-0.2-0.1-0.3-0.2c-0.1-0.1-0.2-0.1-0.3-0.2c-0.1-0.1-0.2-0.1-0.3-0.2
		c-0.1-0.1-0.2-0.1-0.2-0.2c-0.1-0.1-0.2-0.2-0.3-0.2c-0.1-0.1-0.1-0.1-0.2-0.2c-0.1-0.1-0.2-0.2-0.2-0.3c-0.1-0.1-0.1-0.2-0.2-0.2
		c-0.1-0.1-0.1-0.2-0.2-0.3c-0.1-0.1-0.1-0.2-0.2-0.3c-0.1-0.1-0.1-0.2-0.2-0.3c-0.1-0.1-0.1-0.2-0.2-0.3c-0.1-0.1-0.1-0.2-0.2-0.3
		c0-0.1-0.1-0.2-0.1-0.3c0-0.1-0.1-0.2-0.1-0.3c0-0.1-0.1-0.2-0.1-0.3c0-0.1-0.1-0.2-0.1-0.3c0-0.1-0.1-0.2-0.1-0.4
		c0-0.1,0-0.2-0.1-0.3c0-0.1,0-0.2,0-0.4c0,0,0-0.1,0-0.1c0-0.1,0-0.2,0-0.3c0-0.1,0-0.2,0-0.3c0,0,0-0.1,0-0.1
		C79.6,63,79.6,62.8,79.6,62.7z M58.6,75.2c0.8-1,1.9-1.8,3-2.5c5-2.6,14.5-1.2,17.3,5.8c2.6,6.6-2.4,13.9-8.6,16
		c-5.9,2-13.4-0.6-15.6-6.1C52.3,82.3,58.2,75.7,58.6,75.2z M47.9,157c3.5-5.6,9.8-6.9,16.2-3.3c41.1,28.5,44.1,25.2,82.3,5.7
		c3.9-1.5,7.6-3.4,11.1-5.6c6.6-3.7,13.1-2.5,16.5,3.3c1.2,2,1.7,4.1,1.7,6.1c0.2,4.1-2,8-6.5,10.7c-17.9,10.9-37.2,22.4-58.3,22.8
		c-20.2-0.3-40.2-11.8-58.1-22.6c-4.6-2.8-6.9-6.9-6.7-11C46.1,161.1,46.7,159,47.9,157z M37.8,171.2c1,1.6,1.6,3.4,1.7,5.3
		c0.2,1.9-2.8,1.9-3,0c-0.1-1.3-0.6-2.6-1.3-3.7v0C34.2,171.1,36.8,169.6,37.8,171.2z"/>
	<path class="st0" d="M40.3,72.5c0-0.1,0-0.2-0.1-0.3c-0.1,0.2-0.1,0.4-0.2,0.6C40.2,72.6,40.3,72.6,40.3,72.5z"/>
	<path class="st0" d="M79.6,63.8c0,0.1,0,0.2,0,0.4c0,0.1,0,0.2,0.1,0.3c0,0.1,0.1,0.2,0.1,0.4c0,0.1,0.1,0.2,0.1,0.3
		c0,0.1,0.1,0.2,0.1,0.3c0,0.1,0.1,0.2,0.1,0.3c0,0.1,0.1,0.2,0.1,0.3c0,0.1,0.1,0.2,0.2,0.3c0.1,0.1,0.1,0.2,0.2,0.3
		c0.1,0.1,0.1,0.2,0.2,0.3c0.1,0.1,0.1,0.2,0.2,0.3c0.1,0.1,0.1,0.2,0.2,0.3c0.1,0.1,0.1,0.2,0.2,0.2c0.1,0.1,0.2,0.2,0.2,0.3
		c0.1,0.1,0.1,0.2,0.2,0.2c0.1,0.1,0.2,0.2,0.3,0.2c0.1,0.1,0.2,0.1,0.2,0.2c0.1,0.1,0.2,0.1,0.3,0.2c0.1,0.1,0.2,0.1,0.3,0.2
		c0.1,0.1,0.2,0.1,0.3,0.2c0.1,0.1,0.2,0.1,0.3,0.2c0.1,0.1,0.2,0.1,0.3,0.2c0.1,0,0.2,0.1,0.3,0.1c0.1,0,0.2,0.1,0.3,0.1
		c0.1,0,0.2,0.1,0.3,0.1c0.1,0,0.3,0.1,0.4,0.1c0.1,0,0.2,0.1,0.3,0.1c0.1,0,0.3,0,0.4,0.1c0.1,0,0.2,0,0.3,0c0.2,0,0.5,0,0.7,0
		c4-0.2,7.1-3.5,7-7.5c0-0.1,0-0.3,0-0.4c0-0.1,0-0.2,0-0.4c0-0.1,0-0.2-0.1-0.4c0-0.1,0-0.2-0.1-0.4c0-0.1-0.1-0.2-0.1-0.3
		c0-0.1-0.1-0.2-0.1-0.3c0-0.1-0.1-0.2-0.1-0.3c0-0.1-0.1-0.2-0.1-0.3c0-0.1-0.1-0.2-0.2-0.3c-0.1-0.1-0.1-0.2-0.2-0.3
		c-0.1-0.1-0.1-0.2-0.2-0.3c-0.1-0.1-0.1-0.2-0.2-0.3c-0.1-0.1-0.1-0.2-0.2-0.3c-0.1-0.1-0.1-0.2-0.2-0.3c-0.1-0.1-0.2-0.2-0.2-0.2
		c-0.1-0.1-0.2-0.2-0.3-0.3c-0.1-0.1-0.2-0.1-0.3-0.2c-0.1-0.1-0.2-0.2-0.3-0.2c-0.1-0.1-0.2-0.1-0.3-0.2c-0.1-0.1-0.2-0.1-0.3-0.2
		c-0.1-0.1-0.2-0.1-0.3-0.2c-0.1-0.1-0.2-0.1-0.3-0.2c-0.1-0.1-0.2-0.1-0.3-0.1c-0.1,0-0.2-0.1-0.3-0.1c-0.1,0-0.2-0.1-0.3-0.1
		c-0.1,0-0.2-0.1-0.3-0.1c-0.1,0-0.2-0.1-0.4-0.1c-0.1,0-0.2-0.1-0.3-0.1c-0.1,0-0.2,0-0.4,0c-0.1,0-0.2,0-0.3,0c-0.1,0-0.3,0-0.4,0
		c-0.1,0-0.3,0-0.4,0c-0.2,0-0.5,0-0.7,0.1c-0.1,0-0.2,0-0.3,0.1c-0.1,0-0.3,0.1-0.4,0.1c-0.1,0-0.2,0.1-0.3,0.1
		c-0.1,0-0.2,0.1-0.4,0.1c-0.1,0-0.2,0.1-0.3,0.1c-0.1,0-0.2,0.1-0.3,0.1c-0.1,0.1-0.2,0.1-0.3,0.2C83.2,56.9,83.1,57,83,57
		c-0.1,0.1-0.2,0.1-0.3,0.2c-0.1,0.1-0.2,0.1-0.3,0.2c-0.1,0.1-0.2,0.1-0.3,0.2c-0.1,0.1-0.2,0.2-0.3,0.2c-0.1,0.1-0.2,0.1-0.2,0.2
		c-0.1,0.1-0.2,0.2-0.3,0.3c-0.1,0.1-0.1,0.2-0.2,0.2c-0.1,0.1-0.2,0.2-0.2,0.3c-0.1,0.1-0.1,0.2-0.2,0.3c-0.1,0.1-0.1,0.2-0.2,0.3
		c-0.1,0.1-0.1,0.2-0.2,0.3c-0.1,0.1-0.1,0.2-0.2,0.3c0,0.1-0.1,0.2-0.1,0.3c0,0.1-0.1,0.2-0.1,0.3c0,0.1-0.1,0.2-0.1,0.3
		c0,0.1-0.1,0.2-0.1,0.3c0,0.1-0.1,0.2-0.1,0.3c0,0.1,0,0.2-0.1,0.3c0,0.1,0,0.2-0.1,0.4c0,0.1,0,0.2,0,0.4c0,0.1,0,0.2,0,0.4
		c0,0.1,0,0.2,0,0.4C79.6,63.6,79.6,63.7,79.6,63.8z M86.8,57.5c3.4,0,6.1,2.7,6.1,6.1s-2.7,6.1-6.1,6.1s-6.1-2.7-6.1-6.1
		S83.4,57.5,86.8,57.5z"/>
	<path class="st0" d="M83,57c0.1-0.1,0.2-0.1,0.3-0.2C83.2,56.9,83.1,57,83,57z"/>
	<path class="st0" d="M81.9,57.9c0.1-0.1,0.2-0.2,0.3-0.2C82.1,57.7,82,57.8,81.9,57.9z"/>
	<path class="st0" d="M82.4,57.4c0.1-0.1,0.2-0.1,0.3-0.2C82.6,57.3,82.5,57.3,82.4,57.4z"/>
	<path class="st0" d="M80.3,60c0.1-0.1,0.1-0.2,0.2-0.3C80.4,59.8,80.3,59.9,80.3,60z"/>
	<path class="st0" d="M80.6,59.4c0.1-0.1,0.1-0.2,0.2-0.3C80.7,59.2,80.7,59.3,80.6,59.4z"/>
	<path class="st0" d="M80,60.7c0-0.1,0.1-0.2,0.1-0.3C80.1,60.5,80.1,60.6,80,60.7z"/>
	<path class="st0" d="M81.4,58.3c0.1-0.1,0.2-0.2,0.3-0.3C81.6,58.2,81.5,58.3,81.4,58.3z"/>
	<path class="st0" d="M79.8,61.3c0-0.1,0.1-0.2,0.1-0.3C79.9,61.1,79.8,61.2,79.8,61.3z"/>
	<path class="st0" d="M79.7,62c0-0.1,0-0.2,0.1-0.3C79.7,61.8,79.7,61.9,79.7,62z"/>
	<path class="st0" d="M81,58.9c0.1-0.1,0.1-0.2,0.2-0.3C81.1,58.7,81.1,58.8,81,58.9z"/>
	<path class="st0" d="M79.6,62.7c0-0.1,0-0.2,0-0.4C79.6,62.5,79.6,62.6,79.6,62.7z"/>
	<path class="st0" d="M93.7,61.8c0,0.1,0,0.2,0.1,0.4C93.8,62.1,93.7,61.9,93.7,61.8z"/>
	<path class="st0" d="M79.8,64.9c0-0.1-0.1-0.2-0.1-0.4C79.7,64.7,79.7,64.8,79.8,64.9z"/>
	<path class="st0" d="M79.6,63.5c0-0.1,0-0.2,0-0.4c0,0,0,0.1,0,0.1C79.6,63.3,79.6,63.4,79.6,63.5z"/>
	<path class="st0" d="M80,65.6c0-0.1-0.1-0.2-0.1-0.3C79.9,65.3,79.9,65.5,80,65.6z"/>
	<path class="st0" d="M80.2,66.2c0-0.1-0.1-0.2-0.1-0.3C80.1,66,80.2,66.1,80.2,66.2z"/>
	<path class="st0" d="M93.8,62.9c0-0.1,0-0.2,0-0.4C93.8,62.7,93.8,62.8,93.8,62.9C93.8,62.9,93.8,62.9,93.8,62.9z"/>
	<path class="st0" d="M83.6,56.7c0.1-0.1,0.2-0.1,0.3-0.1C83.8,56.6,83.7,56.6,83.6,56.7z"/>
	<path class="st0" d="M80.5,66.8c-0.1-0.1-0.1-0.2-0.2-0.3C80.4,66.6,80.5,66.7,80.5,66.8z"/>
	<path class="st0" d="M85.4,70.3c-0.1,0-0.2,0-0.3-0.1C85.2,70.3,85.3,70.3,85.4,70.3z"/>
	<path class="st0" d="M86.1,70.4c-0.1,0-0.2,0-0.3,0C86,70.4,86,70.4,86.1,70.4z"/>
	<path class="st0" d="M83.5,69.6c-0.1-0.1-0.2-0.1-0.3-0.2C83.3,69.5,83.4,69.6,83.5,69.6z"/>
	<path class="st0" d="M82.9,69.3c-0.1-0.1-0.2-0.1-0.3-0.2C82.7,69.2,82.8,69.2,82.9,69.3z"/>
	<path class="st0" d="M81.8,68.4c-0.1-0.1-0.1-0.1-0.2-0.2C81.6,68.3,81.7,68.4,81.8,68.4z"/>
	<path class="st0" d="M82.3,68.9c-0.1-0.1-0.2-0.1-0.2-0.2C82.1,68.7,82.2,68.8,82.3,68.9z"/>
	<path class="st0" d="M80.9,67.4c-0.1-0.1-0.1-0.2-0.2-0.3C80.8,67.2,80.8,67.3,80.9,67.4z"/>
	<path class="st0" d="M79.6,64.2c0-0.1,0-0.2,0-0.4C79.6,63.9,79.6,64.1,79.6,64.2z"/>
	<path class="st0" d="M84.7,70.2c-0.1,0-0.2-0.1-0.3-0.1C84.5,70.1,84.6,70.1,84.7,70.2z"/>
	<path class="st0" d="M81.3,67.9c-0.1-0.1-0.1-0.2-0.2-0.2C81.2,67.8,81.3,67.8,81.3,67.9z"/>
	<path class="st0" d="M84.1,69.9c-0.1,0-0.2-0.1-0.3-0.1C83.9,69.8,84,69.9,84.1,69.9z"/>
	<path class="st0" d="M89.5,56.5c0.1,0,0.2,0.1,0.3,0.1C89.7,56.6,89.6,56.6,89.5,56.5z"/>
	<path class="st0" d="M88.1,56.1c0.1,0,0.2,0,0.4,0.1C88.4,56.1,88.3,56.1,88.1,56.1z"/>
	<path class="st0" d="M86.7,55.9c0.1,0,0.3,0,0.4,0C86.9,55.9,86.8,55.9,86.7,55.9z"/>
	<path class="st0" d="M88.8,56.3c0.1,0,0.2,0.1,0.3,0.1C89.1,56.4,88.9,56.3,88.8,56.3z"/>
	<path class="st0" d="M87.4,56c0.1,0,0.3,0,0.4,0C87.7,56,87.5,56,87.4,56z"/>
	<path class="st0" d="M84.2,56.4c0.1,0,0.2-0.1,0.4-0.1C84.5,56.3,84.3,56.4,84.2,56.4z"/>
	<path class="st0" d="M84.9,56.2c0.1,0,0.3-0.1,0.4-0.1C85.2,56.1,85,56.1,84.9,56.2z"/>
	<path class="st0" d="M85.6,56c0.2,0,0.5-0.1,0.7-0.1C86.1,55.9,85.8,56,85.6,56z"/>
	<path class="st0" d="M92.7,59.2c0.1,0.1,0.1,0.2,0.2,0.3C92.8,59.4,92.7,59.3,92.7,59.2z"/>
	<path class="st0" d="M92.2,58.6c0.1,0.1,0.1,0.2,0.2,0.3C92.4,58.8,92.3,58.7,92.2,58.6z"/>
	<path class="st0" d="M93.5,61.1c0,0.1,0.1,0.2,0.1,0.3C93.6,61.3,93.6,61.2,93.5,61.1z"/>
	<path class="st0" d="M93,59.8c0.1,0.1,0.1,0.2,0.2,0.3C93.1,60,93.1,59.9,93,59.8z"/>
	<path class="st0" d="M93.3,60.4c0,0.1,0.1,0.2,0.1,0.3C93.4,60.7,93.4,60.6,93.3,60.4z"/>
	<path class="st0" d="M91.3,57.6c0.1,0.1,0.2,0.1,0.3,0.2C91.4,57.8,91.4,57.7,91.3,57.6z"/>
	<path class="st0" d="M91.8,58.1c0.1,0.1,0.2,0.2,0.2,0.2C91.9,58.3,91.9,58.2,91.8,58.1z"/>
	<path class="st0" d="M90.7,57.2c0.1,0.1,0.2,0.1,0.3,0.2C90.9,57.3,90.8,57.3,90.7,57.2z"/>
	<path class="st0" d="M90.1,56.9c0.1,0.1,0.2,0.1,0.3,0.2C90.3,57,90.2,56.9,90.1,56.9z"/>
	<path class="st0" d="M125.6,63.2c0,0.1,0,0.1,0,0.2c0.1,3.4,2.5,6.3,5.8,6.9c0,0,0,0,0,0c0.2,0,0.4,0.1,0.6,0.1c0.1,0,0.1,0,0.2,0
		c0.2,0,0.4,0,0.6,0c4-0.2,7.1-3.6,7-7.5c0-3.7-2.7-6.7-6.3-7.2c-0.1,0-0.1,0-0.2,0c-0.2,0-0.3,0-0.5,0c-0.1,0-0.2,0-0.4,0
		c-0.1,0-0.2,0-0.3,0c-0.2,0-0.4,0-0.6,0.1c0,0-0.1,0-0.1,0C128,56.4,125.4,59.5,125.6,63.2z M132.8,57.5c3.4,0,6.1,2.7,6.1,6.1
		s-2.7,6.1-6.1,6.1c-3.4,0-6.1-2.7-6.1-6.1S129.4,57.5,132.8,57.5z"/>
	<path class="st0" d="M132.4,55.7c0,0-0.1,0-0.1,0c0.1,0,0.2,0,0.3,0C132.5,55.7,132.4,55.7,132.4,55.7z"/>
	<path class="st0" d="M131.6,55.8C131.6,55.8,131.7,55.8,131.6,55.8C131.7,55.8,131.6,55.8,131.6,55.8z"/>
	<path class="st0" d="M131.4,70.3C131.4,70.3,131.4,70.3,131.4,70.3C131.4,70.3,131.4,70.3,131.4,70.3z"/>
	<path class="st0" d="M132.9,55.7c0.2,0,0.3,0,0.5,0C133.2,55.7,133.1,55.7,132.9,55.7z"/>
	<path class="st0" d="M139.8,62.9c0.1,4-3,7.3-7,7.5C136.9,70.3,140,66.9,139.8,62.9c0-0.1,0-0.3,0-0.4c-0.2-3.5-2.9-6.3-6.3-6.7
		C137.1,56.2,139.9,59.2,139.8,62.9z"/>
	<path class="st0" d="M132.3,70.4c-0.1,0-0.1,0-0.2,0C132.1,70.4,132.2,70.4,132.3,70.4z"/>
	<path class="st3" d="M109.9,70.8c0.1,0,0.1,0,0.2,0c3.8-0.1,6.8-3.2,6.8-7c0-4-14.4-3.8-14.2,0.3c0,0.1,0,0.2,0,0.3
		C102.9,68.2,106.2,71,109.9,70.8z"/>
	<circle class="st2" cx="86.8" cy="63.5" r="6.1"/>
	<circle class="st2" cx="132.8" cy="63.5" r="6.1"/>
	<path class="st0" d="M83.9,84.6c-2.3,5.3,1.6,12.1,4.8,15.7c8,8.9,21.1,8.3,26.1,8c5.5-0.3,10.1-0.5,14.2-3.7
		c7.6-6,9.7-19.4,4.8-26.7c-8.9-13.3-38.2-2.4-45.9,2.5C86,81.4,84.7,82.8,83.9,84.6z M102.7,96.7c0,0,8.7,12.1,15.8,0
		C111.4,108.8,102.7,96.7,102.7,96.7z M123.8,81.3c0,4-5.4,6.9-12.6,7c-7.3,0.1-12.8-2.7-13.2-6.6S123.8,77.3,123.8,81.3z"/>
	<path class="st2" d="M111.3,88.3c7.2-0.1,12.6-2.9,12.6-7c0-4-26.1-3.6-25.8,0.3S103.9,88.4,111.3,88.3z"/>
	<path class="st4" d="M70.3,94.6c6.2-2.1,11.3-9.4,8.6-16c-2.8-7-12.3-8.4-17.3-5.8c-1.2,0.6-2.2,1.5-3,2.5c-0.4,0.4-6.3,7-3.9,13.3
		C56.9,94,64.5,96.6,70.3,94.6z"/>
	<path class="st4" d="M146,90.1c1.1,0.7,2.3,1.2,3.6,1.4c0.6,0.2,9.2,2.1,13.5-3.1c3.7-4.5,2.2-12.4-2.3-16.5
		c-4.9-4.4-13.7-5.2-18.2,0.3C137.8,78.1,141.2,87,146,90.1z"/>
	<path class="st2" d="M186.4,101.7c1.5-0.7,3.6-2.3,2.6-2.8c-2.3-1.2-4.2-2.1-5.7-2.8c0.5,1.7,1,3.3,1.4,5
		C185.2,101.3,185.8,101.5,186.4,101.7z"/>
	<path class="st2" d="M183.2,95.8c2.5,0.4,5.2,0.3,5.6-0.7c0.3-1-1.8-2.6-2.2-2.8c-1.1-0.8-2.4-1.4-3.6-1.7
		c-0.4,0.1-0.8,0.2-1.2,0.2C182.2,92.5,182.7,94.1,183.2,95.8z"/>
	<path class="st0" d="M186.3,106.8c0.1,0,0.3,0,0.4,0c-0.2-0.1-0.3-0.2-0.5-0.3C186.3,106.6,186.3,106.7,186.3,106.8z"/>
	<path class="st0" d="M185,102.1c0.3,0,0.5-0.1,0.8-0.1c0.2,0,0.4-0.1,0.6-0.2c-0.6-0.3-1.1-0.4-1.7-0.6
		C184.8,101.4,184.9,101.8,185,102.1z"/>
	<path class="st2" d="M185,102.1c0.4,1.5,0.9,3,1.3,4.4c0.2,0.1,0.3,0.2,0.5,0.3c1.3,0,2.6-0.2,2.9-0.9c0.4-1-0.9-2.4-1.1-2.6
		c-0.6-0.6-1.3-1.1-2.1-1.5c-0.2,0.1-0.4,0.2-0.6,0.2C185.5,102,185.2,102,185,102.1z"/>
	<path class="st2" d="M193.6,116.5c0.1-0.5-0.7-1-1.4-1.4c-1.6-0.9-3-1.6-4.2-2.3c0.4,1.5,0.9,3.1,1.3,4.6
		C191.3,117.5,193.5,117.2,193.6,116.5z"/>
	<path class="st2" d="M182.5,77.5c1.8-1.4,3.6-3,3.3-4c-0.6-1.6-7-0.3-9.1-0.7c0.5,2,1.1,4,1.6,5.9
		C179.2,78.7,180.9,78.7,182.5,77.5z"/>
	<path class="st2" d="M183.5,65.2c0.3-1.7-0.5-3.8-1.8-4.3c-1.6-0.6-4.3,1.5-6.9,5.4c0.5,1.8,1,3.7,1.5,5.5
		C177.9,70.6,182.9,68.8,183.5,65.2z"/>
	<path class="st0" d="M181.7,90.8c0.4,0,0.8-0.1,1.2-0.2c-0.5-0.1-0.9-0.2-1.4-0.3C181.6,90.4,181.7,90.6,181.7,90.8z"/>
	<path class="st2" d="M188,112.3c1.7,0.1,3.4-0.1,3.7-0.9c0.1-0.4-0.1-1-1-1.9c-1.2-1.2-2.6-2.1-3.9-2.8c-0.1,0-0.3,0-0.4,0
		C186.9,108.6,187.4,110.5,188,112.3z"/>
	<path class="st2" d="M185.5,82.2c0-1.2-5-2-7-2.7c0.5,1.7,1,3.4,1.4,5C184.2,83.6,185.5,82.8,185.5,82.2z"/>
	<path class="st2" d="M182.9,90.6c0.3-0.1,0.5-0.2,0.8-0.3c1.7-0.8,3-2.8,2.5-4c-0.6-1.4-4-1.5-6.2-1.4c0.5,1.8,1,3.6,1.5,5.4
		C182,90.3,182.5,90.4,182.9,90.6z"/>
	<path class="st0" d="M181.4,109.5c1.3,1.3,3,2.2,4.8,2.6c0.3,0.1,0.6,0.1,0.9,0.2C182.7,109.9,181.3,109.4,181.4,109.5z"/>
	<path class="st0" d="M177.4,93.4c0.4,0.3,0.8,0.5,1.2,0.8l0-0.3C177.7,93.5,177.4,93.4,177.4,93.4z"/>
	<path class="st0" d="M181.8,105.1c-0.1,0.2,1.6,1.1,3.3,1.5c0.4,0.1,0.9,0.2,1.3,0.2c0-0.1,0-0.2-0.1-0.2
		C183.9,105.4,181.8,105,181.8,105.1z"/>
	<path class="st2" d="M181,100.9c-0.1,0.3,1.9,1.3,4,1.1c-0.1-0.3-0.2-0.6-0.3-0.9C182.8,100.6,181,100.8,181,100.9z"/>
	<path class="st2" d="M187,112.2c-0.3,0-0.6-0.1-0.9-0.2c-1.8-0.4-3.4-1.3-4.8-2.6C181.3,109.4,182.7,109.9,187,112.2
		c0.3,0,0.6,0.1,0.9,0.1c-0.5-1.9-1.1-3.7-1.6-5.6c-0.5,0-0.9-0.1-1.3-0.2c-1.6-0.4-3.3-1.3-3.3-1.5c0-0.1,2.1,0.3,4.5,1.4
		c-0.4-1.5-0.9-3-1.3-4.4c-2,0.2-4-0.9-4-1.1c0-0.2,1.8-0.3,3.7,0.2c-0.5-1.7-1-3.3-1.4-5c-0.4-0.2-0.8-0.4-1.1-0.5
		c-0.2,0-0.4-0.1-0.6-0.1c-1-0.3-2-0.7-2.9-1.2l3.6,20.6c1.9,1.4,4.1,2.3,6.4,2.5c0.3,0,0.5,0,0.8,0.1c-0.5-1.5-0.9-3.1-1.3-4.6
		C187.7,112.6,187.4,112.4,187,112.2z"/>
	<path class="st0" d="M182.1,95.6c-1.7-0.8-2.8-1.3-3.5-1.6l0,0.3c0.9,0.5,1.9,0.9,2.9,1.2C181.8,95.5,181.9,95.5,182.1,95.6z"/>
	<path class="st2" d="M183.2,95.8c-0.5-1.7-1-3.3-1.4-5c-1.2,0.1-2.5-0.1-3.6-0.7c0-0.1,1.5-0.2,3.5,0.1c-0.5-1.8-1-3.6-1.5-5.4
		c-1.3,0-2.2,0.1-2,0.1c0.7-0.1,1.4-0.3,2-0.4c-0.5-1.7-1-3.4-1.4-5c-0.5-0.2-0.8-0.4-0.8-0.5c0-0.1,0.2-0.2,0.6-0.2
		c-0.6-2-1.1-4-1.6-5.9c-0.4-0.1-0.6-0.2-0.7-0.3c-0.1-0.2,0.1-0.4,0.4-0.7c-0.5-1.8-1-3.7-1.5-5.5c-0.3,0.4-0.6,0.9-0.9,1.4
		l4.6,26.2c0.7,0.3,1.9,0.9,3.5,1.6C182.5,95.7,182.8,95.7,183.2,95.8z"/>
	<path class="st0" d="M178.1,90.1c1.1,0.6,2.4,0.8,3.6,0.7c-0.1-0.2-0.1-0.4-0.2-0.5C179.6,89.9,178.1,90,178.1,90.1z"/>
	<path class="st0" d="M35,90.2c-0.5,0.1-1.1,0.2-1.7,0.4c0.5,0.1,1,0.2,1.5,0.2C34.9,90.6,35,90.4,35,90.2z"/>
	<path class="st2" d="M31.6,102.1c-0.4,0-0.7-0.1-1.1-0.1c-0.2,0-0.4-0.1-0.6-0.2c-0.8,0.4-1.5,0.8-2.1,1.5
		c-0.3,0.3-1.5,1.7-1.1,2.6c0.3,0.8,1.6,1,2.9,0.9c0.3-0.1,0.5-0.3,0.8-0.4C30.8,105,31.2,103.5,31.6,102.1z"/>
	<path class="st2" d="M36.6,84.9c-2.2-0.1-5.9,0-6.5,1.4c-0.5,1.2,0.8,3.2,2.5,4c0.3,0.1,0.5,0.2,0.8,0.3c0.6-0.2,1.1-0.3,1.7-0.4
		C35.5,88.4,36,86.6,36.6,84.9z"/>
	<path class="st0" d="M30.3,106.4c-0.3,0.1-0.5,0.3-0.8,0.4c0.2,0,0.5,0,0.7,0C30.3,106.6,30.3,106.5,30.3,106.4z"/>
	<path class="st2" d="M33.4,96c-1.6,0.8-3.6,1.7-6.1,3c-1,0.5,1.1,2.1,2.6,2.8c0.7-0.3,1.3-0.5,2-0.7C32.4,99.4,32.9,97.7,33.4,96z"
		/>
	<path class="st0" d="M31.6,102.1c0.1-0.3,0.2-0.7,0.3-1c-0.6,0.1-1.3,0.4-2,0.7c0.2,0.1,0.4,0.2,0.6,0.2
		C30.9,102.1,31.2,102.1,31.6,102.1z"/>
	<path class="st2" d="M24,115.1c-0.7,0.4-1.5,0.9-1.4,1.4c0.1,0.7,2.5,1,4.5,0.9c0.5-1.6,0.9-3.2,1.4-4.8
		C27.2,113.3,25.8,114.1,24,115.1z"/>
	<path class="st2" d="M33.4,90.6c-1.2,0.3-2.5,0.9-3.6,1.7c-0.3,0.2-2.5,1.8-2.2,2.8c0.4,1,3.3,1.1,5.9,0.6c0.5-1.6,1-3.3,1.4-4.9
		C34.3,90.8,33.8,90.7,33.4,90.6z"/>
	<path class="st2" d="M29.5,106.8c-1.3,0.7-2.7,1.6-3.9,2.8c-0.9,0.9-1.1,1.5-1,1.9c0.3,0.8,2.1,1,4,0.9c0.5-1.9,1.1-3.7,1.6-5.6
		C30,106.8,29.8,106.8,29.5,106.8z"/>
	<path class="st2" d="M30.5,73.5c-0.4,1,1.5,2.6,3.3,4c1.8,1.4,3.8,1.2,4.5,1.3c0.6-2,1.1-4.1,1.7-6.1
		C38.5,73.3,31.2,71.8,30.5,73.5z"/>
	<path class="st2" d="M30.8,82.2c0,0.6,1.4,1.4,5.8,2.4c0.5-1.8,1-3.5,1.5-5.3C36.6,80.1,30.8,80.9,30.8,82.2z"/>
	<path class="st2" d="M34.5,61c-1.3,0.5-2,2.5-1.8,4.3c0.6,3.9,6.6,5.7,7.4,6.9c0.5-1.8,1-3.6,1.5-5.3C39,62.6,36.2,60.3,34.5,61z"
		/>
	<path class="st0" d="M38.2,90.1c0-0.1-1.4-0.2-3.2,0.1c-0.1,0.2-0.1,0.4-0.2,0.6C36,90.9,37.2,90.6,38.2,90.1z"/>
	<path class="st0" d="M38.8,93.5c0,0-0.3,0.1-1.1,0.5l0,0.3C38.1,94,38.5,93.7,38.8,93.5z"/>
	<path class="st2" d="M34.2,95.6c-0.3,0.1-0.5,0.3-0.8,0.4c-0.5,1.7-1,3.4-1.5,5.1c1.8-0.4,3.3-0.3,3.4-0.1c0.1,0.3-1.7,1.2-3.7,1.1
		c-0.4,1.4-0.8,2.9-1.2,4.3c2.3-1,4.2-1.4,4.2-1.3c0.1,0.2-1.6,1.2-3.3,1.5c-0.3,0.1-0.7,0.1-1,0.2c-0.5,1.9-1.1,3.7-1.6,5.6
		c0.2,0,0.4,0,0.6-0.1c4.4-2.3,5.8-2.9,5.7-2.8c-1.3,1.3-3,2.2-4.8,2.6c-0.3,0.1-0.6,0.1-0.9,0.2c-0.2,0.1-0.5,0.2-0.7,0.4
		c-0.5,1.6-0.9,3.2-1.4,4.8c0.2,0,0.4,0,0.5,0c2.3-0.2,4.5-1.1,6.4-2.5l3.6-20.6c-0.9,0.5-1.9,0.9-2.9,1.2
		C34.5,95.5,34.4,95.5,34.2,95.6z"/>
	<path class="st0" d="M34.9,109.5c0.1-0.1-1.3,0.5-5.7,2.8c0.3,0,0.6-0.1,0.9-0.2C31.9,111.7,33.6,110.8,34.9,109.5z"/>
	<path class="st2" d="M40.3,72.5c0,0.1-0.1,0.2-0.3,0.2c-0.6,2-1.1,4.1-1.7,6.1c0.1,0,0.2,0.1,0.2,0.2c0,0.1-0.1,0.2-0.4,0.4
		c-0.5,1.8-1,3.5-1.5,5.3c0.5,0.1,1.1,0.2,1.7,0.3c0.2,0-0.6,0-1.7-0.1c-0.5,1.8-1,3.6-1.5,5.3c1.8-0.3,3.2-0.2,3.2-0.1
		c-1.1,0.5-2.2,0.8-3.4,0.7c-0.5,1.6-0.9,3.3-1.4,4.9c0.3,0,0.5-0.1,0.8-0.2c1.7-0.8,2.8-1.3,3.5-1.6l4.6-26.2
		c-0.2-0.3-0.4-0.6-0.6-0.9c-0.5,1.8-1,3.6-1.5,5.3C40.3,72.2,40.3,72.3,40.3,72.5z"/>
	<path class="st0" d="M34.7,95.4c1-0.3,2-0.7,2.9-1.2l0-0.3c-0.7,0.3-1.9,0.8-3.5,1.6C34.4,95.5,34.5,95.5,34.7,95.4z"/>
	<path class="st2" d="M35.3,101c0-0.2-1.6-0.3-3.4,0.1c-0.1,0.3-0.2,0.7-0.3,1C33.5,102.2,35.3,101.2,35.3,101z"/>
	<path class="st0" d="M31.3,106.6c1.6-0.3,3.3-1.3,3.3-1.5c0-0.1-1.9,0.3-4.2,1.3c0,0.1-0.1,0.2-0.1,0.3
		C30.6,106.7,31,106.7,31.3,106.6z"/>
	<path class="st0" d="M52.8,173.5c17.9,10.9,38,22.3,58.1,22.6c21.1-0.3,40.5-11.9,58.3-22.8c4.3-2.6,6.5-6.2,6.5-10
		c-0.1-1.8-0.6-3.6-1.7-5.4c-3.4-5.8-9.9-7-16.5-3.3c-3.6,2.2-7.3,4-11.1,5.6c-38.2,19.5-41.2,22.8-82.3-5.7
		c-6.4-3.6-12.6-2.3-16.2,3.3c-1.1,1.8-1.7,3.7-1.8,5.5C46.2,167.1,48.5,170.9,52.8,173.5z"/>
	<path class="st0" d="M52.8,174.2c17.9,10.8,38,22.3,58.1,22.6c21.1-0.3,40.5-11.9,58.3-22.8c4.5-2.8,6.7-6.7,6.5-10.7
		c-0.1,3.8-2.3,7.4-6.5,10c-17.9,10.9-37.2,22.4-58.3,22.8c-20.2-0.3-40.2-11.8-58.1-22.6c-4.4-2.6-6.7-6.4-6.7-10.3
		C45.9,167.3,48.2,171.4,52.8,174.2z"/>
	<path class="st5" d="M168.8,194.6c-0.2-0.8-1.1-1.2-1.8-1c-0.8,0.3-1.2,1.1-1,1.8l0.5,3c0.2,0.8,1.1,1.2,1.8,1
		c0.8-0.3,1.2-1.1,1-1.8L168.8,194.6z"/>
	<path class="st5" d="M173.3,191.2c-0.8-1.8-3.4-0.2-2.6,1.5l2.4,5.1c0.8,1.8,3.4,0.2,2.6-1.5L173.3,191.2z"/>
	<path class="st5" d="M182.4,191.6L182.4,191.6c0.5,0.7,0.9,1.4,1.2,2.2c0.8-0.7,1.6-1.4,2.3-2.1c-0.3-0.5-0.6-1.1-1-1.6
		C183.9,188.5,181.3,190,182.4,191.6z"/>
	<path class="st5" d="M96.9,142.4c-0.6,0.6-0.6,1.5,0,2.1l0,0c0.6,0.7,0.9,1.5,1,2.4c0,0.8,0.7,1.5,1.5,1.5c0.8,0,1.5-0.7,1.5-1.5
		c-0.2-1.7-0.8-3.3-1.9-4.6C98.4,141.9,97.5,141.9,96.9,142.4z"/>
	<path class="st5" d="M103.3,140.6c-0.7,0.4-1,1.3-0.5,2.1c1,1.2,1.5,2.7,1.5,4.3c0,0.8,0.7,1.5,1.5,1.5s1.5-0.7,1.5-1.5
		c0-2.1-0.6-4.1-1.9-5.8C104.9,140.5,104,140.3,103.3,140.6z"/>
	<path class="st5" d="M112.2,142.4l1.9,7.5c0.5,1.9,3.4,1.1,2.9-0.8l-1.9-7.5C114.6,139.7,111.7,140.5,112.2,142.4z"/>
	<path class="st5" d="M23.5,176.4c0.2-0.8-0.2-1.6-1-1.8c-0.7-0.2-1.3,0.1-1.7,0.6c0.9,1.3,1.9,2.6,2.9,3.8
		C23.4,178.1,23.3,177.3,23.5,176.4z"/>
	<path class="st5" d="M35.2,172.8c0.7,1.1,1.2,2.4,1.3,3.7c0.2,1.9,3.2,1.9,3,0c-0.1-1.9-0.7-3.7-1.7-5.3
		C36.8,169.6,34.2,171.1,35.2,172.8L35.2,172.8z"/>
</g>
<circle class="st6" cx="87" cy="63.3" r="6.8"/>
<circle class="st6" cx="132.8" cy="63.1" r="6.8"/>
</svg>
