<?xml version="1.0" encoding="utf-8"?>
<!-- Generator: Adobe Illustrator 21.1.0, SVG Export Plug-In . SVG Version: 6.00 Build 0)  -->
<svg version="1.1" id="圖層_1" xmlns="http://www.w3.org/2000/svg" xmlns:xlink="http://www.w3.org/1999/xlink" x="0px" y="0px"
	 viewBox="0 0 708.7 510.2" style="enable-background:new 0 0 708.7 510.2;" xml:space="preserve">
<style type="text/css">
	.st0{fill:#DAB980;}
	.st1{fill:#947F70;}
	.st2{fill:none;stroke:#FFFFFF;stroke-miterlimit:10;}
	.st3{fill:#E8C689;}
	.st4{fill:none;stroke:#E8C689;stroke-width:4;stroke-linecap:round;stroke-miterlimit:10;}
	.st5{fill:#67BE8D;}
	.st6{fill:#718CC6;}
	.st7{fill:#67BE8D;stroke:#231815;stroke-miterlimit:10;}
	.st8{fill:#DAE24B;}
	.st9{fill:none;stroke:#231815;stroke-miterlimit:10;}
</style>
<path class="st0" d="M218.4,368.5h31.4c2.7,0,4.9-2.2,4.9-5l-2.1-302.9c0-2.2-1.5-4.2-3.7-4.7l-1.3-0.3c-2.9-0.7-5.8,1.3-6.1,4.3
	l-28,303.2C213.3,366,215.5,368.5,218.4,368.5z"/>
<g>
	<line class="st1" x1="211.7" y1="179.8" x2="236.2" y2="220.7"/>
	<g>
		<path class="st0" d="M206.5,182.8c8.2,13.6,16.3,27.3,24.5,40.9c4,6.6,14.3,0.6,10.4-6.1c-8.2-13.6-16.3-27.3-24.5-40.9
			C212.9,170.1,202.5,176.1,206.5,182.8L206.5,182.8z"/>
	</g>
</g>
<g>
	<line class="st1" x1="283.4" y1="122" x2="238.7" y2="189.8"/>
	<g>
		<path class="st0" d="M278.3,119c-14.9,22.6-29.8,45.2-44.8,67.7c-4.3,6.5,6.1,12.5,10.4,6.1c14.9-22.6,29.8-45.2,44.8-67.7
			C292.9,118.6,282.5,112.6,278.3,119L278.3,119z"/>
	</g>
</g>
<path class="st2" d="M244.7,66.8c0,6.1,3.1,11,6.9,11"/>
<path class="st2" d="M243.3,73.2c1.7,5.9,5.2,10.1,7.9,9.4"/>
<path class="st2" d="M248.1,92.2c0,3-2.6,5.5-5.8,5.5"/>
<path class="st2" d="M248.1,97.8c0,2.3-2.6,4.2-5.8,4.2"/>
<path class="st2" d="M240.2,129c0,2.6,5.1,4.8,11.3,4.8"/>
<path class="st2" d="M239.1,131.4c0,3.6,4.1,6.5,9.1,6.5"/>
<path class="st2" d="M242.3,163c0,2.1-2.3,3.9-5.1,3.9"/>
<path class="st2" d="M245.2,166.9c0,2.6-3.6,4.8-8,4.8"/>
<path class="st2" d="M243.6,195.2c0,2.8,3.6,5.1,8,5.1"/>
<path class="st2" d="M240.2,197.7c0,4,4.3,7.3,9.5,7.3"/>
<path class="st2" d="M234.1,229.7c0,4.1-2.8,7.4-6.2,7.4"/>
<path class="st2" d="M240.2,231.8c0,5.9-4.1,10.7-9.2,10.7"/>
<path class="st2" d="M242.3,268.7c0,4.1,5.3,7.4,11.8,7.4"/>
<path class="st2" d="M235.6,266.7c0,6.9,5.6,12.5,12.5,12.5"/>
<path class="st2" d="M231,313.4c0,4.1-2.9,7.4-6.6,7.4"/>
<path class="st2" d="M235.6,315.5c0,5.8-5,10.4-11.2,10.4"/>
<g>
	<line class="st1" x1="221.9" y1="85.8" x2="246.4" y2="126.7"/>
	<g>
		<path class="st0" d="M216.7,88.8c8.2,13.6,16.3,27.3,24.5,40.9c4,6.6,14.3,0.6,10.4-6.1c-8.2-13.6-16.3-27.3-24.5-40.9
			C223.1,76.1,212.7,82.2,216.7,88.8L216.7,88.8z"/>
	</g>
</g>
<path class="st2" d="M326,454.6c0,9.2,8.2,16.7,18.3,16.7"/>
<path class="st2" d="M326,462.9c0,4.6,4.4,8.3,9.8,8.3"/>
<g>
	<path class="st1" d="M431.8,426.7h31.4c2.7,0,4.9-2.2,4.9-5L466,118.8c0-2.2-1.5-4.2-3.7-4.7l-1.3-0.3c-2.9-0.7-5.8,1.3-6.1,4.3
		l-28,303.2C426.6,424.2,428.9,426.7,431.8,426.7z"/>
	<g>
		<g>
			<path class="st1" d="M423.9,186.5c8.2,13.6,16.3,27.3,24.5,40.9c4,6.6,14.3,0.6,10.4-6.1c-8.2-13.6-16.3-27.3-24.5-40.9
				C430.3,173.8,419.9,179.9,423.9,186.5L423.9,186.5z"/>
		</g>
	</g>
	<g>
		<g>
			<path class="st1" d="M490.7,231.2c-14.9,22.6-29.8,45.2-44.8,67.7c-4.3,6.5,6.1,12.5,10.4,6.1c14.9-22.6,29.8-45.2,44.8-67.7
				C505.3,230.8,495,224.8,490.7,231.2L490.7,231.2z"/>
		</g>
	</g>
	<g>
		<g>
			<path class="st1" d="M473.8,136.4c-5.2,6.5-10.5,13-15.7,19.5c-2,2.5-2.4,6,0,8.5c2.1,2.1,6.5,2.5,8.5,0
				c5.2-6.5,10.5-13,15.7-19.5c2-2.5,2.4-6,0-8.5C480.2,134.3,475.8,133.9,473.8,136.4L473.8,136.4z"/>
		</g>
	</g>
	<path class="st2" d="M458.1,124.9c0,6.1,3.1,11,6.9,11"/>
	<path class="st2" d="M458.1,130.4c0,6.2,2.3,11.2,5.1,11.2"/>
	<path class="st2" d="M461.5,150.4c0,3-2.6,5.5-5.8,5.5"/>
	<path class="st2" d="M461.5,155.9c0,2.3-2.6,4.2-5.8,4.2"/>
	<path class="st2" d="M453.6,187.2c0,2.6,5.1,4.8,11.3,4.8"/>
	<path class="st2" d="M452.4,189.6c0,3.6,4.1,6.5,9.1,6.5"/>
	<path class="st2" d="M455.7,221.1c0,2.1-2.3,3.9-5.1,3.9"/>
	<path class="st2" d="M458.6,225c0,2.6-3.6,4.8-8,4.8"/>
	<path class="st2" d="M456.9,253.3c0,2.8,3.6,5.1,8,5.1"/>
	<path class="st2" d="M453.6,255.8c0,4,4.3,7.3,9.5,7.3"/>
	<path class="st2" d="M447.5,287.9c0,4.1-2.8,7.4-6.2,7.4"/>
	<path class="st2" d="M453.6,290c0,5.9-4.1,10.7-9.2,10.7"/>
	<path class="st2" d="M455.7,326.9c0,4.1,5.3,7.4,11.8,7.4"/>
	<path class="st2" d="M449,324.8c0,6.9,5.6,12.5,12.5,12.5"/>
	<path class="st2" d="M444.4,371.6c0,4.1-2.9,7.4-6.6,7.4"/>
	<path class="st2" d="M449,373.7c0,5.8-5,10.4-11.2,10.4"/>
</g>
<path class="st3" d="M319.1,502.3h31.4c2.7,0,4.9-2.2,4.9-5l-2.1-302.9c0-2.2-1.5-4.2-3.7-4.7l-1.3-0.3c-2.9-0.7-5.8,1.3-6.1,4.3
	l-28,303.2C313.9,499.8,316.2,502.3,319.1,502.3z"/>
<g>
	<g>
		<path class="st3" d="M261.7,241.4c22.8,30.5,45.5,61.1,68.3,91.6c3.2,4.3,6.4,8.6,9.6,12.9c4.6,6.1,15,0.1,10.4-6.1
			c-22.8-30.5-45.5-61.1-68.3-91.6c-3.2-4.3-6.4-8.6-9.6-12.9C267.5,229.2,257,235.2,261.7,241.4L261.7,241.4z"/>
	</g>
</g>
<g>
	<g>
		<path class="st3" d="M415.2,289.8c-25,37.8-50,75.7-75,113.5c-3.5,5.3-7,10.6-10.5,15.9c-4.3,6.5,6.1,12.5,10.4,6.1
			c25-37.8,50-75.7,75-113.5c3.5-5.3,7-10.6,10.5-15.9C429.8,289.3,419.4,283.3,415.2,289.8L415.2,289.8z"/>
	</g>
</g>
<g>
	<g>
		<path class="st3" d="M381.5,218.7c-12.8,16-25.7,31.9-38.5,47.9c-4.8,6,3.6,14.5,8.5,8.5c12.8-16,25.7-31.9,38.5-47.9
			C394.7,221.2,386.3,212.7,381.5,218.7L381.5,218.7z"/>
	</g>
</g>
<g>
	<g>
		<path class="st3" d="M294.1,235.7c1.2,17.1,2.3,34.2,3.5,51.3c0.5,7.7,12.5,7.7,12,0c-1.2-17.1-2.3-34.2-3.5-51.3
			C305.6,228.1,293.6,228,294.1,235.7L294.1,235.7z"/>
	</g>
</g>
<g>
	<g>
		<path class="st3" d="M381.6,293.7c4.2,9.1,8.5,18.2,12.7,27.2c3.3,7,13.6,0.9,10.4-6.1c-4.2-9.1-8.5-18.2-12.7-27.2
			C388.6,280.6,378.3,286.7,381.6,293.7L381.6,293.7z"/>
	</g>
</g>
<line class="st4" x1="366.5" y1="213.6" x2="372.1" y2="239.9"/>
<line class="st4" x1="266.3" y1="278.9" x2="309.7" y2="302.3"/>
<g>
	<path class="st5" d="M387.8,214.2c0,0,12.9-12.1,0.9-28.4C388.2,186.7,375.1,197.5,387.8,214.2z"/>
	<path class="st6" d="M387.8,214.2l0.9-28.4C388.7,185.8,374.3,197.4,387.8,214.2z"/>
</g>
<g>
	<path class="st5" d="M392.8,217.1c0,0,15.2,9,27.5-7.2C419.4,209.7,405.3,200.1,392.8,217.1z"/>
	<path class="st6" d="M392.8,217.1l27.5-7.2C420.3,210,405.2,199.4,392.8,217.1z"/>
</g>
<g>
	<path class="st5" d="M384.3,283.5c0,0,13.8-11.1,2.9-28.3C386.6,256.1,372.7,265.9,384.3,283.5z"/>
	<path class="st6" d="M384.3,283.5l2.9-28.3C387.2,255.3,372,265.7,384.3,283.5z"/>
</g>
<g>
	<path class="st5" d="M382.1,285.5c0,0-6.1-16.6-25.8-11.8C356.8,274.5,361.7,290.8,382.1,285.5z"/>
	<path class="st6" d="M382.1,285.5l-25.8-11.8C356.3,273.7,361.3,291.5,382.1,285.5z"/>
</g>
<g>
	<path class="st5" d="M300.5,228.1c0,0,17.6-1.6,18.1-21.9C317.6,206.5,300.6,207,300.5,228.1z"/>
	<path class="st6" d="M300.5,228.1l18.1-21.9C318.5,206.2,300.1,206.5,300.5,228.1z"/>
</g>
<g>
	<path class="st5" d="M297.3,229.1c0,0,4-17.2-15.1-24.1C282.3,206.1,277.4,222.3,297.3,229.1z"/>
	<path class="st6" d="M297.3,229.1l-15.1-24.1C282.2,205.1,276.7,222.7,297.3,229.1z"/>
</g>
<g>
	<path class="st5" d="M259.6,233.3c0,0-8.1-21.2-33.3-14.7C227.1,219.6,233.6,240.3,259.6,233.3z"/>
	<path class="st6" d="M259.6,233.3l-33.3-14.7C226.4,218.5,233.1,241.2,259.6,233.3z"/>
</g>
<g>
	<path class="st5" d="M261.1,276.7c0,0-4.2-17.2-24.3-14.7C237.2,262.9,240.2,279.6,261.1,276.7z"/>
	<path class="st6" d="M261.1,276.7L236.8,262C236.8,262,239.8,280.2,261.1,276.7z"/>
</g>
<g>
	<path class="st5" d="M262.2,230.9c0,0,14.1-17.9-4.4-36.3C257.4,195.8,242.8,212.1,262.2,230.9z"/>
	<path class="st6" d="M262.2,230.9l-4.4-36.3C257.9,194.7,241.8,212.1,262.2,230.9z"/>
</g>
<g>
	<path class="st5" d="M422.2,283.5c0,0,11.1-13.7-3-28.2C418.7,256.2,407.2,268.7,422.2,283.5z"/>
	<path class="st6" d="M422.2,283.5l-3-28.2C419.1,255.3,406.5,268.7,422.2,283.5z"/>
</g>
<g>
	<path class="st5" d="M343.8,187.5c0,0,8.3-23.5-17.4-36.1C326.3,152.8,317,174.9,343.8,187.5z"/>
	<path class="st6" d="M343.8,187.5l-17.4-36.1C326.4,151.5,316,175.3,343.8,187.5z"/>
</g>
<g>
	<path class="st5" d="M350.6,186.5c0,0,24.3-5.5,21.3-33.9C370.6,153.2,347,157,350.6,186.5z"/>
	<path class="st6" d="M350.6,186.5l21.3-33.9C371.9,152.5,346.1,156.4,350.6,186.5z"/>
</g>
<path class="st2" d="M350.2,203.8c0,5.8-2.3,10.5-5.1,10.5"/>
<path class="st2" d="M353.4,214.2c0,3-3.7,5.5-8.3,5.5"/>
<path class="st2" d="M341.8,250.7c0,4.1,2.6,7.5,5.8,7.5"/>
<path class="st2" d="M339.4,258.2c0,3.5,4.8,6.3,10.8,6.3"/>
<path class="st2" d="M349.3,286.6c0,5.1-3.3,9.3-7.5,9.3"/>
<path class="st2" d="M350.2,293.4c0,2.7-2.9,4.9-6.4,4.9"/>
<path class="st2" d="M331.6,321.5c0,5.4,5.9,9.8,13.1,9.8"/>
<path class="st2" d="M334.9,317.4c0,4.9,4,9,8.9,9"/>
<path class="st2" d="M353.4,354c0,3.6-6.8,6.5-15.2,6.5"/>
<path class="st2" d="M353.4,360.6c0,2-5.2,3.7-11.6,3.7"/>
<path class="st2" d="M331.6,389.8c0,6.1,5.9,11,13.2,11"/>
<path class="st2" d="M328.4,395.3c0,3,4.4,5.5,9.8,5.5"/>
<path class="st2" d="M353.4,422.4c0,5.8-8.3,10.6-18.5,10.6"/>
<path class="st2" d="M350.2,433c0,2.5-4.8,4.5-10.8,4.5"/>
<g>
	<path class="st5" d="M427.8,287.1c0,0,17.2,4.1,24.2-14.9C451,272.3,434.7,267.2,427.8,287.1z"/>
	<path class="st6" d="M427.8,287.1l24.2-14.9C451.9,272.2,434.4,266.6,427.8,287.1z"/>
</g>
<g>
	<path class="st5" d="M501.4,224c-7.2-4.8-3.9-15.2,2.7-32.3c5.6-14.6,21.5-19.8,28.7-15s8.2,21-2.7,32.3
		C516.4,223.1,508.6,228.7,501.4,224z"/>
	<path class="st7" d="M530.3,187c-11.6,3.9-24.4,15.5-28.1,38.8"/>
	<line class="st7" x1="521.9" y1="195.7" x2="531.6" y2="197.6"/>
	<line class="st7" x1="519" y1="183.2" x2="520" y2="188.6"/>
	<line class="st7" x1="511.7" y1="189.1" x2="514.2" y2="196.5"/>
	<line class="st7" x1="515.4" y1="201.8" x2="527.5" y2="204.7"/>
</g>
<g>
	<path class="st5" d="M487.3,134.6c6,5.2,14.4-0.3,28-10.5c11.6-8.6,12.1-24,6.1-29.2c-6-5.2-20.7-2-28,10.5
		C484.3,121,481.2,129.4,487.3,134.6z"/>
	<path class="st7" d="M512.8,99.7c-0.6,11.3-7.6,25.5-27.3,34.6"/>
	<line class="st7" x1="507.2" y1="109.3" x2="503.1" y2="101.2"/>
	<line class="st7" x1="519" y1="108.8" x2="513.9" y2="109.3"/>
	<line class="st7" x1="515.6" y1="116.7" x2="508.4" y2="116.4"/>
	<line class="st7" x1="503.5" y1="116.6" x2="497.8" y2="106.6"/>
</g>
<g>
	<path class="st5" d="M421.3,173c-6.9,4.1-14.1-2.9-25.7-15.2c-9.9-10.5-7.8-25.8-0.9-29.9c6.9-4.1,20.8,1.6,25.7,15.2
		C426.6,160.1,428.1,168.9,421.3,173z"/>
	<path class="st7" d="M402.2,134.1c-1.4,11.2,3,26.5,20.9,38.9"/>
	<line class="st7" x1="406" y1="144.6" x2="411.6" y2="137.3"/>
	<line class="st7" x1="394.5" y1="142" x2="399.5" y2="143.4"/>
	<line class="st7" x1="396.5" y1="150.4" x2="403.7" y2="151.3"/>
	<line class="st7" x1="408.5" y1="152.4" x2="415.8" y2="143.6"/>
</g>
<g>
	<path class="st5" d="M454.7,108.4c-7.9,1-11.9-8.2-17.6-24.1c-4.9-13.6,3-26.8,10.9-27.8c7.9-1,18.4,9.7,17.6,24.1
		C464.7,98.7,462.6,107.4,454.7,108.4z"/>
	<path class="st7" d="M452.5,65.2c-5.7,9.8-7.7,25.5,3.9,43.9"/>
	<line class="st7" x1="451.9" y1="76.3" x2="459.9" y2="71.8"/>
	<line class="st7" x1="442.3" y1="69.4" x2="446.3" y2="72.6"/>
	<line class="st7" x1="440.8" y1="77.9" x2="447.1" y2="81.6"/>
	<line class="st7" x1="451" y1="84.5" x2="461.3" y2="79.2"/>
</g>
<g>
	<path class="st8" d="M218,25.1c1.4,1.5,30.5,26,29,27.4c-1.5,1.4-33-20.9-34.4-22.4s-1.3-3.8,0.2-5.2
		C214.3,23.5,216.6,23.6,218,25.1z"/>
	<path class="st8" d="M225.8,18.7c1,1.8,22.9,32.9,21.1,33.8c-1.8,1-26.6-28.6-27.6-30.4c-1-1.8-0.3-4,1.5-4.9
		C222.7,16.3,224.9,16.9,225.8,18.7z"/>
	<path class="st8" d="M235.8,15c0.4,2,13,37.9,11.1,38.3c-2,0.4-17.8-34.8-18.2-36.8c-0.4-2,0.8-3.9,2.8-4.3
		C233.4,11.8,235.4,13,235.8,15z"/>
	<path class="st8" d="M262.9,17.2c-1,1.8-14.7,37.3-16.5,36.3c-1.8-1,9.1-38,10-39.8c1-1.8,3.2-2.4,4.9-1.5
		C263.2,13.2,263.9,15.4,262.9,17.2z"/>
	<path class="st8" d="M270.9,21.1c-1.3,1.5-23.1,32.8-24.6,31.4s17.8-34.8,19.1-36.3c1.3-1.5,3.6-1.6,5.1-0.3
		C272.1,17.3,272.3,19.6,270.9,21.1z"/>
	<path class="st8" d="M253.7,14.3c-0.5,2-5,39.8-7,39.3c-2-0.5-0.6-39.1-0.1-41c0.5-2,2.5-3.1,4.4-2.7
		C253,10.3,254.2,12.3,253.7,14.3z"/>
	<path class="st8" d="M244.5,13.8c0,2,4.7,39.8,2.6,39.8c-2,0-9.9-37.8-9.9-39.8s1.6-3.6,3.6-3.6S244.5,11.7,244.5,13.8z"/>
	<path class="st8" d="M277,26.7c-1.6,1.2-28.6,28.1-29.8,26.5c-1.2-1.6,23.8-31,25.4-32.2c1.6-1.2,3.9-0.9,5.1,0.6
		C278.8,23.2,278.6,25.5,277,26.7z"/>
	<path class="st8" d="M282,34.6c-1.8,0.8-34.5,20.4-35.3,18.5c-0.8-1.8,30.5-24.4,32.4-25.2c1.8-0.8,4,0,4.8,1.9
		C284.7,31.7,283.9,33.8,282,34.6z"/>
	<line class="st9" x1="262.4" y1="37.7" x2="247.2" y2="51.8"/>
	<line class="st9" x1="264.9" y1="41.5" x2="247.2" y2="51.8"/>
	<line class="st9" x1="253.8" y1="31.8" x2="247.2" y2="51.8"/>
	<line class="st9" x1="249" y1="30.1" x2="247.2" y2="51.8"/>
	<line class="st9" x1="244" y1="30.5" x2="247.2" y2="51.8"/>
	<line class="st9" x1="238.3" y1="32" x2="247.2" y2="51.8"/>
	<line class="st9" x1="233" y1="34.7" x2="247.2" y2="51.8"/>
	<line class="st9" x1="229.4" y1="38.2" x2="247.2" y2="51.8"/>
	<line class="st9" x1="258.4" y1="33.8" x2="247.2" y2="51.8"/>
</g>
<g>
	<path class="st8" d="M193.2,81.8c1.1,0,22.4-2.4,22.4-1.2c0,1.1-21.3,5.4-22.5,5.3s-2-0.9-2-2.1C191.2,82.7,192.1,81.8,193.2,81.8z
		"/>
	<path class="st8" d="M193.7,76.1c1.1,0.3,22.3,3.4,22,4.5c-0.3,1.1-22-0.2-23.1-0.5s-1.7-1.4-1.4-2.5
		C191.4,76.4,192.6,75.8,193.7,76.1z"/>
	<path class="st8" d="M196,70.6c1,0.6,20.5,9.4,19.9,10.3s-21.1-6.2-22.1-6.8c-1-0.6-1.3-1.9-0.7-2.8C193.8,70.3,195,70,196,70.6z"
		/>
	<path class="st8" d="M207.4,60.4c0.4,1.1,9.5,20.5,8.4,20.8s-12-18.4-12.3-19.5c-0.4-1.1,0.2-2.2,1.3-2.6S207.1,59.3,207.4,60.4z"
		/>
	<path class="st8" d="M212.1,58.6c0.1,1.1,4.4,22.1,3.3,22.2c-1.1,0.1-7.3-20.8-7.4-21.9c-0.1-1.1,0.7-2.1,1.9-2.2
		C211,56.6,212,57.5,212.1,58.6z"/>
	<path class="st8" d="M202.7,63c0.6,1,14.3,17.5,13.3,18.1c-1,0.6-16.2-14.9-16.8-15.9c-0.6-1-0.3-2.2,0.6-2.8
		C200.8,61.7,202.1,62,202.7,63z"/>
	<path class="st8" d="M198.9,66.5c0.8,0.8,18.1,13.5,17.3,14.4c-0.8,0.8-19.3-10.6-20.1-11.4c-0.8-0.8-0.9-2.1-0.1-2.9
		C196.8,65.8,198.1,65.8,198.9,66.5z"/>
	<path class="st8" d="M216.8,58.3c-0.1,1.1,0.4,22.6-0.8,22.5c-1.1-0.1-3.4-21.7-3.3-22.9c0.1-1.1,1.1-2,2.2-1.8
		C216.1,56.2,216.9,57.2,216.8,58.3z"/>
	<path class="st8" d="M222,59.3c-0.4,1.1-5.1,22-6.1,21.6c-1.1-0.4,1.9-21.9,2.3-23c0.4-1.1,1.6-1.6,2.6-1.2
		C221.8,57.1,222.3,58.3,222,59.3z"/>
	<line class="st9" x1="215.6" y1="68.5" x2="215.4" y2="80.2"/>
	<line class="st9" x1="218.1" y1="69" x2="215.4" y2="80.2"/>
	<line class="st9" x1="209.9" y1="69.7" x2="215.4" y2="80.2"/>
	<line class="st9" x1="207.3" y1="71" x2="215.4" y2="80.2"/>
	<line class="st9" x1="205.5" y1="73.2" x2="215.4" y2="80.2"/>
	<line class="st9" x1="203.9" y1="76.2" x2="215.4" y2="80.2"/>
	<line class="st9" x1="203" y1="79.3" x2="215.4" y2="80.2"/>
	<line class="st9" x1="203" y1="82.2" x2="215.4" y2="80.2"/>
	<line class="st9" x1="212.4" y1="68.6" x2="215.4" y2="80.2"/>
</g>
<g>
	<path class="st8" d="M276.7,90.9c0.4,1.2,10.9,23.5,9.7,23.9c-1.2,0.4-13.8-21.2-14.2-22.4c-0.4-1.2,0.3-2.6,1.5-3
		S276.3,89.7,276.7,90.9z"/>
	<path class="st8" d="M283.1,89.3c0.1,1.3,4.6,25.5,3.3,25.6c-1.3,0.1-8-24-8-25.3c-0.1-1.3,0.9-2.4,2.2-2.5S283,88,283.1,89.3z"/>
	<path class="st8" d="M289.9,89.8c-0.3,1.3-2.5,25.8-3.8,25.5c-1.3-0.3-1.1-25.2-0.8-26.5c0.3-1.3,1.5-2.1,2.8-1.8
		C289.4,87.2,290.2,88.5,289.9,89.8z"/>
	<path class="st8" d="M305.3,98.4c-1,0.8-18.7,18-19.4,16.9c-0.8-1,15.6-19.9,16.6-20.7c1-0.8,2.5-0.6,3.3,0.4
		C306.5,96.1,306.3,97.6,305.3,98.4z"/>
	<path class="st8" d="M308.9,102.8c-1.2,0.5-22.4,13.1-22.9,11.9c-0.5-1.2,19.8-15.7,21-16.2s2.6,0,3.1,1.2
		C310.7,100.9,310.1,102.3,308.9,102.8z"/>
	<path class="st8" d="M300.6,94.2c-0.8,1-13.6,22-14.7,21.2c-1-0.8,10.2-23.1,11-24.1c0.8-1,2.3-1.2,3.3-0.4
		C301.3,91.7,301.4,93.2,300.6,94.2z"/>
	<path class="st8" d="M295.4,91.4c-0.5,1.2-8,24.6-9.1,24.1c-1.2-0.5,4.3-24.9,4.9-26.1c0.5-1.2,1.9-1.7,3.1-1.2
		C295.4,88.8,295.9,90.2,295.4,91.4z"/>
	<path class="st8" d="M310.9,107.8c-1.3,0.3-24.4,8.8-24.7,7.5c-0.3-1.3,22.3-11.8,23.6-12.1s2.5,0.5,2.8,1.8
		S312.2,107.5,310.9,107.8z"/>
	<path class="st8" d="M311.8,113.7c-1.3,0-25.8,2.7-25.7,1.4s24.5-6.1,25.8-6.1c1.3,0,2.3,1.1,2.3,2.4S313.1,113.8,311.8,113.7z"/>
	<line class="st9" x1="299.5" y1="110.2" x2="286.7" y2="114.4"/>
	<line class="st9" x1="299.9" y1="113.2" x2="286.7" y2="114.4"/>
	<line class="st9" x1="296" y1="104.5" x2="286.7" y2="114.4"/>
	<line class="st9" x1="293.6" y1="102.2" x2="286.7" y2="114.4"/>
	<line class="st9" x1="290.6" y1="101.1" x2="286.7" y2="114.4"/>
	<line class="st9" x1="286.8" y1="100.4" x2="286.7" y2="114.4"/>
	<line class="st9" x1="283" y1="100.6" x2="286.7" y2="114.4"/>
	<line class="st9" x1="279.9" y1="101.7" x2="286.7" y2="114.4"/>
	<line class="st9" x1="298.1" y1="106.9" x2="286.7" y2="114.4"/>
</g>
<g>
	<path class="st8" d="M183.9,166.3c1.3,0.4,25.6,4.1,25.2,5.3c-0.4,1.3-25.2-0.5-26.5-0.8c-1.3-0.4-2-1.7-1.6-2.9
		S182.7,166,183.9,166.3z"/>
	<path class="st8" d="M186.1,160.2c1.1,0.7,23.7,10.4,23,11.6c-0.7,1.1-24.3-6.8-25.4-7.5c-1.1-0.7-1.5-2.1-0.8-3.2
		C183.5,159.9,185,159.5,186.1,160.2z"/>
	<path class="st8" d="M190.3,154.8c0.9,0.9,19.9,16.5,19,17.4c-0.9,0.9-21.5-13.2-22.4-14.2c-0.9-0.9-0.9-2.4,0.1-3.3
		C187.9,153.8,189.4,153.8,190.3,154.8z"/>
	<path class="st8" d="M206.1,146.9c0.1,1.3,4.4,25.5,3.1,25.6c-1.3,0.1-7.8-24-7.8-25.3s0.9-2.4,2.2-2.5
		C204.9,144.6,206,145.6,206.1,146.9z"/>
	<path class="st8" d="M211.8,146.3c-0.2,1.3-1.7,25.8-3,25.6c-1.3-0.2-1.9-25.2-1.7-26.5s1.5-2.1,2.7-1.9
		C211.2,143.8,212,145,211.8,146.3z"/>
	<path class="st8" d="M200,148.4c0.4,1.2,10.6,23.6,9.4,24c-1.2,0.4-13.5-21.4-13.8-22.6s0.3-2.6,1.5-3
		C198.3,146.4,199.6,147.1,200,148.4z"/>
	<path class="st8" d="M194.7,151.2c0.7,1.1,16,20.4,14.8,21.1c-1.1,0.7-18.2-17.5-18.9-18.6c-0.7-1.1-0.3-2.6,0.8-3.2
		C192.6,149.7,194.1,150,194.7,151.2z"/>
	<path class="st8" d="M217,147.4c-0.5,1.2-6.3,25.1-7.6,24.6c-1.2-0.5,2.7-25.1,3.2-26.3c0.5-1.2,1.8-1.8,3-1.4
		C216.9,144.8,217.5,146.2,217,147.4z"/>
	<path class="st8" d="M222.5,150.1c-0.7,1.1-12.2,22.8-13.3,22.1s8.7-23.7,9.4-24.8c0.7-1.1,2.2-1.3,3.3-0.6
		C222.9,147.5,223.2,149,222.5,150.1z"/>
	<line class="st9" x1="212.6" y1="158.3" x2="209" y2="171.2"/>
	<line class="st9" x1="215.3" y1="159.6" x2="209" y2="171.2"/>
	<line class="st9" x1="206" y1="158" x2="209" y2="171.2"/>
	<line class="st9" x1="202.7" y1="158.7" x2="209" y2="171.2"/>
	<line class="st9" x1="200.1" y1="160.6" x2="209" y2="171.2"/>
	<line class="st9" x1="197.4" y1="163.3" x2="209" y2="171.2"/>
	<line class="st9" x1="195.4" y1="166.6" x2="209" y2="171.2"/>
	<line class="st9" x1="194.6" y1="169.8" x2="209" y2="171.2"/>
	<line class="st9" x1="209.1" y1="157.5" x2="209" y2="171.2"/>
</g>
</svg>
