<?xml version="1.0" encoding="utf-8"?>
<!-- Generator: Adobe Illustrator 21.1.0, SVG Export Plug-In . SVG Version: 6.00 Build 0)  -->
<svg version="1.1" id="圖層_1" xmlns="http://www.w3.org/2000/svg" xmlns:xlink="http://www.w3.org/1999/xlink" x="0px" y="0px"
	 viewBox="0 0 708.7 510.2" style="enable-background:new 0 0 708.7 510.2;" xml:space="preserve">
<style type="text/css">
	.st0{fill:#67BE8D;}
	.st1{fill:#EB715F;}
	.st2{fill:#947F70;}
</style>
<g>
	<path class="st0" d="M281,183.1c0,0-14.8-38.6-60.6-26.9C221.7,158,233.5,195.9,281,183.1z"/>
	<path class="st1" d="M281,183.1l-60.6-26.9C220.4,156.2,232.7,197.5,281,183.1z"/>
</g>
<g>
	<g>
		<path class="st2" d="M338.4,155c8.1,9.2,14.9,22.8,19.9,34.6c14.4,33.7,19.7,70.9,19.4,107.3c-0.3,31.9-5.2,63.6-12.8,94.6
			c-0.8,3.1,4.1,4.5,4.8,1.3c12.2-49.7,17.4-101.8,8.5-152.5c-4.7-27-13.4-54-28-77.4c-2.5-4-5.1-8-8.3-11.6
			C339.8,149,336.2,152.5,338.4,155L338.4,155z"/>
	</g>
</g>
<g>
	<g>
		<path class="st2" d="M424.6,150.8c-9.8,2-19.5,6.7-27.6,12.3c-17.2,11.9-27.6,29.7-30.1,50.4c-0.4,3.2,4.6,3.2,5,0
			c3.4-28.5,25.8-52.2,54-58C429.1,155,427.7,150.1,424.6,150.8L424.6,150.8z"/>
	</g>
</g>
<g>
	<g>
		<path class="st2" d="M388.2,138.1c1,10.2,1.9,20.5,2.9,30.7c0.3,3.2,5.3,3.2,5,0c-1-10.2-1.9-20.5-2.9-30.7
			C392.9,134.9,387.9,134.9,388.2,138.1L388.2,138.1z"/>
	</g>
</g>
<g>
	<g>
		<path class="st2" d="M283.6,188.1c4.6,9.4,12.6,17.8,20.7,24.3c19.7,15.9,44.5,22,69.5,20.9c3.2-0.1,3.2-5.1,0-5
			c-24.2,1.1-48.5-4.8-67.3-20.6c-7.2-6.1-14.3-13.6-18.5-22.2C286.5,182.7,282.2,185.2,283.6,188.1L283.6,188.1z"/>
	</g>
</g>
<g>
	<g>
		<path class="st2" d="M309.6,271.1c1,6.3,6.2,12.3,10.6,16.5c15.6,15.1,38.1,22.3,58.8,27.2c3.1,0.7,4.5-4.1,1.3-4.8
			c-19.8-4.7-41.6-11.4-56.6-25.9c-3.8-3.7-8.5-8.9-9.3-14.3C313.9,266.6,309.1,267.9,309.6,271.1L309.6,271.1z"/>
	</g>
</g>
<g>
	<g>
		<path class="st2" d="M447.8,213.5c-0.5,33.8-40.7,48.4-68.9,48.6c-3.2,0-3.2,5,0,5c31.1-0.2,73.3-16.9,73.9-53.6
			C452.8,210.3,447.8,210.3,447.8,213.5L447.8,213.5z"/>
	</g>
</g>
<g>
	<path class="st0" d="M283.7,179c0,0,29.1-29.3-0.3-66.3C282.2,114.7,252.5,141,283.7,179z"/>
	<path class="st1" d="M283.7,179l-0.3-66.3C283.4,112.7,250.7,140.8,283.7,179z"/>
</g>
<g>
	<path class="st0" d="M310.1,267.7c0,0,1.9-22.1-23-27.2C287.3,241.7,284.1,262.8,310.1,267.7z"/>
	<path class="st1" d="M310.1,267.7l-23-27.2C287.1,240.5,283.4,263.3,310.1,267.7z"/>
</g>
<g>
	<path class="st0" d="M312.4,265.1c0,0,19.5-10.6,10-34.2C321.5,231.8,302.2,240.8,312.4,265.1z"/>
	<path class="st1" d="M312.4,265.1l10-34.2C322.4,231,301.3,240.5,312.4,265.1z"/>
</g>
<g>
	<path class="st0" d="M306,273.5c0,0-10.4-19.5-34.1-10.2C272.8,264.2,281.6,283.6,306,273.5z"/>
	<path class="st1" d="M306,273.5l-34.1-10.2C271.9,263.3,281.3,284.4,306,273.5z"/>
</g>
<g>
	<path class="st0" d="M391.7,132.9c0,0,21.1-6.7,16.4-31.6C407.1,102,386.4,107.1,391.7,132.9z"/>
	<path class="st1" d="M391.7,132.9l16.4-31.6C408.1,101.3,385.6,106.6,391.7,132.9z"/>
</g>
<g>
	<path class="st0" d="M487.8,197.5c0,0-20.2-9.1-33.3,12.6C455.7,210.3,474.5,220.3,487.8,197.5z"/>
	<path class="st1" d="M487.8,197.5l-33.3,12.6C454.5,210.1,474.8,221.2,487.8,197.5z"/>
</g>
<g>
	<path class="st0" d="M452.2,210.3c0,0,12.5-18.3-6.7-35C445.1,176.5,432,193.3,452.2,210.3z"/>
	<path class="st1" d="M452.2,210.3l-6.7-35C445.5,175.4,431.1,193.4,452.2,210.3z"/>
</g>
</svg>
