<?xml version="1.0" encoding="utf-8"?>
<!-- Generator: Adobe Illustrator 21.1.0, SVG Export Plug-In . SVG Version: 6.00 Build 0)  -->
<svg version="1.1" id="圖層_1" xmlns="http://www.w3.org/2000/svg" xmlns:xlink="http://www.w3.org/1999/xlink" x="0px" y="0px"
	 viewBox="0 0 708.7 510.2" style="enable-background:new 0 0 708.7 510.2;" xml:space="preserve">
<style type="text/css">
	.st0{fill:#3BA261;}
	.st1{fill:#947F70;}
	.st2{fill:#FFFFFF;}
</style>
<g>
	<path class="st0" d="M423.2,121.4C386,135.9,321.4,137,300.8,224.7c-8.5,75.8,42.2,151,105.5,93h5.8c27.7,27.6,72.5,32.3,94.6-36.8
		C529.5,140.6,435.6,150.4,423.2,121.4z"/>
	<g>
		<g>
			<path class="st1" d="M419.7,125.4c0,49.4-1.5,98.9-6.6,148c-2,18.9-4.5,37.8-8.2,56.4c-2.7,13.2-5.8,26.7-11.4,39.1
				c-2.8,6.1-7.6,16.5-15.6,16.6c-3.2,0.1-3.2,5.1,0,5c7.7-0.1,13-6.6,16.6-12.7c6.2-10.6,9.6-22.9,12.5-34.7
				c9.9-40.7,13-83.2,15.3-124.9c1.7-30.9,2.4-61.9,2.4-92.8C424.7,122.2,419.7,122.2,419.7,125.4L419.7,125.4z"/>
		</g>
	</g>
	<g>
		<g>
			<path class="st1" d="M357.9,163.3c0.4,10.1,11.3,16.2,19.6,19.5c13.4,5.3,28.7,6.2,42.4,1.9c3.1-1,1.8-5.8-1.3-4.8
				c-11.7,3.6-24.3,3.2-36-0.5c-6.9-2.2-19.4-7.3-19.7-16C362.7,160,357.7,160,357.9,163.3L357.9,163.3z"/>
		</g>
	</g>
	<g>
		<g>
			<path class="st1" d="M326.1,208.2c0.4,14.4,18.5,20.3,30,22.8c19.4,4.2,40.6,3.3,59.4-3.1c3-1,1.7-5.9-1.3-4.8
				c-16.8,5.7-35.5,6.9-53,3.8c-9.5-1.7-29.7-6-30.1-18.7C331,205,326,205,326.1,208.2L326.1,208.2z"/>
		</g>
	</g>
	<g>
		<g>
			<path class="st1" d="M326.1,279.1c0.5,12.1,14.6,17.4,24.6,19.4c19.3,3.9,39.8,0.5,57.8-6.8c2.9-1.2,1.7-6-1.3-4.8
				c-15.8,6.4-33.2,9.8-50.3,7.6c-8.2-1-25.4-4.4-25.8-15.4C331,275.9,326,275.9,326.1,279.1L326.1,279.1z"/>
		</g>
	</g>
	<g>
		<g>
			<path class="st1" d="M468,170c-0.4,7-12.5,9.7-17.7,10.8c-9,1.9-18.8,1.9-27.5-1.2c-3-1.1-4.3,3.7-1.3,4.8
				c10.6,3.8,23,3.3,33.7,0.4c7.2-2,17.3-6,17.8-14.8C473.2,166.8,468.2,166.8,468,170L468,170z"/>
		</g>
	</g>
	<g>
		<g>
			<path class="st1" d="M487.3,225.4c-0.2,3.1-7.3,4.9-9.4,5.5c-6.5,1.9-13.3,2.7-20,3c-12,0.6-29.1,0.5-38.5-8.5
				c-2.3-2.2-5.9,1.3-3.5,3.5c11.1,10.6,30.9,10.8,45.3,9.7c7.4-0.6,15-1.6,21.9-4.3c4.1-1.6,9-4.1,9.3-9
				C492.5,222.2,487.5,222.2,487.3,225.4L487.3,225.4z"/>
		</g>
	</g>
	<g>
		<g>
			<path class="st1" d="M480.9,286.3c-0.2,4.7-6.1,7.5-9.8,9c-6.5,2.7-13.7,3.9-20.6,4.3c-11.8,0.7-30.4-0.2-36.4-12.5
				c-1.4-2.9-5.7-0.4-4.3,2.5c7.2,14.6,28.7,16,42.8,14.8c10.3-0.9,32.9-4.2,33.4-18.2C486,283,481,283,480.9,286.3L480.9,286.3z"/>
		</g>
	</g>
	<g>
		<g>
			<path class="st2" d="M365.6,131.9c0.5,21.5,18.6,36.8,39.5,37.2c7.7,0.2,7.7-11.8,0-12c-14.3-0.3-27.1-10.3-27.5-25.2
				C377.5,124.1,365.5,124.1,365.6,131.9L365.6,131.9z"/>
		</g>
	</g>
	<g>
		<g>
			<path class="st2" d="M318.7,148.7c0.5,33,29.5,56.3,61.2,56.6c7.7,0.1,7.7-11.9,0-12c-25.1-0.3-48.9-18.2-49.2-44.6
				C330.6,141,318.6,141,318.7,148.7L318.7,148.7z"/>
		</g>
	</g>
	<g>
		<g>
			<path class="st2" d="M265.7,188.6c0.6,48.1,57.1,69.2,97.4,69.4c7.7,0,7.7-12,0-12c-21.2-0.1-42.8-5.1-60.5-17
				c-13.7-9.2-24.6-23.4-24.9-40.4C277.6,180.9,265.6,180.9,265.7,188.6L265.7,188.6z"/>
		</g>
	</g>
	<g>
		<g>
			<path class="st2" d="M455.2,131.9c-0.2,10.8-6.6,22.8-18.6,23.2c-7.7,0.2-7.7,12.2,0,12c18.7-0.6,30.3-17.6,30.6-35.2
				C467.4,124.1,455.4,124.1,455.2,131.9L455.2,131.9z"/>
		</g>
	</g>
	<g>
		<g>
			<path class="st2" d="M514,166.2c-0.2,11.5-9.5,19.8-18.8,25.1c-13.8,7.9-30,10.7-45.8,10.8c-7.7,0.1-7.7,12.1,0,12
				c28.4-0.2,75.9-12,76.6-47.9C526.1,158.5,514.1,158.5,514,166.2L514,166.2z"/>
		</g>
	</g>
	<g>
		<g>
			<path class="st2" d="M531.8,213.4c-0.3,13-12.9,21.7-23.3,26.9c-17.3,8.7-37.4,11.5-56.6,11.6c-7.7,0-7.7,12,0,12
				c22.2-0.1,45.2-3.8,64.9-14.4c13.7-7.4,26.7-19.5,27-36.1C544,205.7,532,205.7,531.8,213.4L531.8,213.4z"/>
		</g>
	</g>
</g>
</svg>
