<svg id="圖層_1" data-name="圖層 1" xmlns="http://www.w3.org/2000/svg" viewBox="0 0 325.8 367"><defs><style>.cls-1{fill:#dae24b;}.cls-2{fill:none;stroke:#dab980;stroke-linecap:round;stroke-miterlimit:10;stroke-width:4px;}</style></defs><title>index_front_leaf8</title><path class="cls-1" d="M474.5,305.8,421.1,313c25.1-6.8,46.4-16,50.5-39.5-15.3,13.7-31.5,20.7-48.3,23.5,29.2-19.4,51.8-41.7,46.4-75.6-9.2,22.9-26.2,40.6-48.6,54.7,27.6-34.8,44.1-71.3,31.2-112.6-4.7,37.4-21.9,69.5-43.6,99.7,24.9-45,37.2-89.1,22.9-128.6-2.7,40.2-17.8,80.8-38.4,121.5,19.1-55.8,33.4-111.7,13.8-141.8,1.7,34.1-13.8,87.1-31.2,142.2,9.9-63.9,19.9-128.2,10.9-158.6-17.1,23.7-26.1,85.1-33.3,148,5.7-68.6,11.2-136.7,3.4-170.6-22.4,30.9-23.9,103-24,174.6-1.1-78.9-2.6-157-23.8-194.3-12.3,37.8-7.6,113.6-6.3,194.3-3.3-71.7-7-141.6-20-175.6-6.8,43.1-3.7,101.4,2.3,164.5-7.6-53.2-16.6-103.1-28.2-147.1-12.7,46.1-9.1,98.9,1.6,155.1-19.3-45.5-29.1-90.2-27.7-133.9-21.1,28.9,4.2,132.4,6.7,130.6,0,0-34-71.2-35.2-101.7-11.3,35.8-2.9,73.6,17.6,112.5-26.7-28-42.8-57.1-46.5-87.5-6.1,38.6,13.9,78.8,43.4,108.5-22.3-6.7-49.3-38.9-64.1-71.3,11.1,46.2,28.6,80.4,54.8,98.1-34.1-16.6-44.2-29.6-58.7-45.1,33.1,68.2,124.6,117.6,168,79.1C346.9,372.3,424.5,345.3,474.5,305.8Z" transform="translate(-148.7 -55.6)"/><path class="cls-2" d="M314.5,245.5c0,88.2,4.8,157.7-15.9,175.1" transform="translate(-148.7 -55.6)"/><path class="cls-2" d="M351.7,260.9c1.8,30.6-30.1,38.1-33.4,35" transform="translate(-148.7 -55.6)"/><path class="cls-2" d="M369.8,278.8c0,23.5-18,39.1-51.5,33.3" transform="translate(-148.7 -55.6)"/><path class="cls-2" d="M392.6,300.1c-10.4,29.2-35.9,37.9-74.3,30.6" transform="translate(-148.7 -55.6)"/><path class="cls-2" d="M275.9,260.9c3.4,13,5.1,38.1,36.3,44.1" transform="translate(-148.7 -55.6)"/><path class="cls-2" d="M254.8,278.8c3.3,21.4,13.3,39.1,59.7,39.1" transform="translate(-148.7 -55.6)"/><path class="cls-2" d="M232.5,295.9c2.7,19.6,41.8,53.7,83.6,31.3" transform="translate(-148.7 -55.6)"/></svg>