<?xml version="1.0" encoding="utf-8"?>
<!-- Generator: Adobe Illustrator 21.1.0, SVG Export Plug-In . SVG Version: 6.00 Build 0)  -->
<svg version="1.1" id="圖層_1" xmlns="http://www.w3.org/2000/svg" xmlns:xlink="http://www.w3.org/1999/xlink" x="0px" y="0px"
	 viewBox="0 0 708.7 510.2" style="enable-background:new 0 0 708.7 510.2;" xml:space="preserve">
<style type="text/css">
	.st0{fill:#DAE24B;}
	.st1{fill:#DAB980;}
	.st2{fill:none;stroke:#DAB980;stroke-miterlimit:10;}
	.st3{fill:none;stroke:#DAB980;stroke-width:2;stroke-miterlimit:10;}
	.st4{fill:none;stroke:#DAB980;stroke-width:3;stroke-miterlimit:10;}
</style>
<path class="st0" d="M319.4,317c1,32.5,23.7,59.6,52.9,59.6c29.2,0,52.9-26.7,52.9-59.6s-23.7-59.6-52.9-59.6
	C343.1,257.4,318.4,284.1,319.4,317z"/>
<path class="st0" d="M300,89c80.3,57.7,123.1,134.1,125.2,234.3H319.7C313.7,164.5,310.6,100.8,300,89z"/>
<g>
	<g>
		<path class="st1" d="M368.3,429c9.1-62.9,6-127-7.6-189c-9.1-41.2-22.6-81.5-40.3-119.8c-2.5-5.4-5.1-10.8-7.8-16.1
			c-0.7-1.5-1.5-3-2.2-4.5c-0.6-1.2-0.7-2-0.6-1c-0.2-3.2-5.3-3.2-5,0c0.1,1.9,1.5,3.8,2.3,5.5c1.9,3.9,3.9,7.8,5.8,11.8
			c6.9,14.4,13.2,29.1,18.8,44.1c18.5,49.1,30.7,100.8,35.1,153.1c3.2,38.1,2.2,76.6-3.3,114.5C363,430.8,367.8,432.2,368.3,429
			L368.3,429z"/>
	</g>
</g>
<line class="st2" x1="349.8" y1="132.7" x2="336.8" y2="159.8"/>
<line class="st3" x1="355.2" y1="137.3" x2="339.2" y2="166.9"/>
<line class="st3" x1="358.3" y1="142.1" x2="340" y2="175.8"/>
<line class="st2" x1="361.1" y1="146.2" x2="341.8" y2="181"/>
<line class="st4" x1="333.9" y1="159" x2="311.7" y2="153.2"/>
<line class="st2" x1="334.1" y1="165.8" x2="312.3" y2="161.3"/>
<line class="st3" x1="337.1" y1="172.2" x2="312.7" y2="167.4"/>
<line class="st2" x1="339.2" y1="179" x2="313.1" y2="173.4"/>
<line class="st4" x1="364.1" y1="149" x2="344.2" y2="184"/>
<line class="st4" x1="353.4" y1="218.9" x2="383" y2="175.3"/>
<line class="st4" x1="357.2" y1="236.1" x2="315.5" y2="218.7"/>
<line class="st4" x1="358.1" y1="240" x2="393" y2="192"/>
<line class="st4" x1="367.2" y1="305" x2="318.2" y2="285"/>
<line class="st4" x1="365.8" y1="282.5" x2="317.3" y2="262.7"/>
<line class="st4" x1="418.7" y1="264.5" x2="371.1" y2="313.5"/>
<line class="st3" x1="420.6" y1="274.8" x2="370.1" y2="324.8"/>
<line class="st3" x1="386" y1="180.3" x2="356.3" y2="222.8"/>
<line class="st3" x1="353.4" y1="227.8" x2="315.7" y2="211.7"/>
<line class="st3" x1="350.5" y1="209.5" x2="314.4" y2="196.8"/>
<line class="st3" x1="364.3" y1="287.7" x2="317.5" y2="267.6"/>
<line class="st3" x1="367.2" y1="311.6" x2="318.5" y2="291.7"/>
<line class="st2" x1="416.6" y1="255.4" x2="368.1" y2="300.6"/>
<line class="st2" x1="368.6" y1="292.1" x2="414.9" y2="248.4"/>
<line class="st2" x1="369.6" y1="317" x2="318.7" y2="297.7"/>
<line class="st2" x1="380.6" y1="171.7" x2="353.4" y2="212.2"/>
<line class="st2" x1="352.1" y1="222" x2="314.9" y2="207"/>
<line class="st3" x1="372.3" y1="361.1" x2="425.2" y2="315.8"/>
<line class="st2" x1="370.1" y1="354" x2="321.1" y2="329.8"/>
<line class="st4" x1="372.3" y1="352.8" x2="424.9" y2="310.5"/>
<line class="st3" x1="370.1" y1="357.5" x2="322.1" y2="333.1"/>
</svg>
