<?xml version="1.0" encoding="utf-8"?>
<!-- Generator: Adobe Illustrator 21.1.0, SVG Export Plug-In . SVG Version: 6.00 Build 0)  -->
<svg version="1.1" id="圖層_1" xmlns="http://www.w3.org/2000/svg" xmlns:xlink="http://www.w3.org/1999/xlink" x="0px" y="0px"
	 viewBox="0 0 708.7 510.2" style="enable-background:new 0 0 708.7 510.2;" xml:space="preserve">
<style type="text/css">
	.st0{fill:#947F70;}
	.st1{fill:#DAB980;}
	.st2{fill:#FFFFFF;}
	.st3{fill:none;stroke:#FFFFFF;stroke-linecap:round;stroke-miterlimit:10;}
	.st4{fill:none;stroke:#FFFFFF;stroke-width:2;stroke-linecap:round;stroke-miterlimit:10;}
	.st5{fill:#3BA261;}
	.st6{fill:#956134;}
	.st7{fill:#403D34;}
	.st8{fill:#D0DBE0;}
	.st9{fill:#67BE8D;}
	.st10{fill:#FFDB3F;}
	.st11{fill:#DAE24B;}
	.st12{fill:none;stroke:#FFFFFF;stroke-width:3;stroke-linecap:round;stroke-miterlimit:10;}
</style>
<path class="st0" d="M313.9,398.4c81,9.3,162,8.5,242.9-2.5c14.4-1.9,23.5-16.5,19.4-30.5c-0.2-0.6-0.5-1.2-0.8-1.8
	c-29.7-52.3-52.3-108.8-53-156c0-1.2-0.2-2.4-0.7-3.5c-3.6-8.3-11.6-13.9-20.6-14.3l-106.2-4.1c-9.1-0.4-17.6,4.7-21.8,12.9
	c-0.2,0.5-0.4,0.9-0.6,1.4c-17.1,56-43.7,110.5-76.9,163.8c-0.2,0.4-0.4,0.8-0.6,1.2C288.6,379.6,298,396.6,313.9,398.4z"/>
<path class="st1" d="M69.3,471.4c98.4,11.2,196.8,10.2,295.3-3c17.9-2.4,29-20.5,23.2-37.6c-25.5-69.4-51.3-139.4-65.1-189.7
	c-3.8-11.2-14.1-18.8-25.9-19.3L167.7,217c-11.4-0.4-22,6-26.9,16.3C120,300.8,87.4,366.4,46.7,430.7
	C38.2,448.4,49.8,469.2,69.3,471.4z"/>
<g>
	<g>
		<path class="st2" d="M176.7,244.7c-0.1,14.2-2.4,28.9-9.1,41.6c-4.6,8.7-12,17.9-22.7,18.1c-3.2,0.1-3.2,5.1,0,5
			c11.6-0.3,20.3-8.8,25.8-18.3c8.1-13.9,10.9-30.5,11-46.4C181.7,241.5,176.7,241.5,176.7,244.7L176.7,244.7z"/>
	</g>
</g>
<path class="st3" d="M209.3,241.2c-5.5,27.9-0.9,59.2,7.3,65.7"/>
<g>
	<g>
		<path class="st2" d="M265.5,241.5c0.1,17.4,3,35.5,11.4,50.9c5.5,10.1,14.5,19.9,26.8,20.2c3.2,0.1,3.2-4.9,0-5
			c-11.4-0.3-19-10.7-23.7-20c-7-14.2-9.4-30.4-9.5-46.1C270.5,238.3,265.5,238.3,265.5,241.5L265.5,241.5z"/>
	</g>
</g>
<path class="st4" d="M232.7,244.7c0,30.5,7.3,55.2,16.3,55.2"/>
<path class="st5" d="M351.1,470.9c-3.3-5.5-5.5-10.1-2.9-23.4c3.9,1.6,10.3,4.5,9.7,11.5c-3.9-7.9-0.1-16.1,4.3-19.7
	c7.9,1.9,11.1,18.1,8.1,18.2c-3,0.1,5.8-10.6,7.5-9.6c1.2-0.3,4.5,17.9,0,18.4c-3.8,0.5,3.6-15.4,7.1-15.7c1.7,6.3,0.9,13-1.7,20
	c-0.3,0.9-1.2,1.5-2.2,1.6c-10,0.7-19.3,0.8-27.8,0C352.3,472.2,351.5,471.7,351.1,470.9z"/>
<g>
	<path class="st6" d="M275.1,427.3c-5.6-9.4-11.6-16.9-18-22.7c-3,15.5-7.9,22.5-15.4,3.5c-5.3,13.9-10.2,22.6-16.2,2.7
		c-9.4,30.4-20-2-20-2s-11.8,18.5-16.6-2.6c-6.9,7.3-13,16.9-17.9,28.7c-1.4,3.5,1.2,7.3,4.9,7.3c31.7-0.1,62.9-1.4,93.6-4
		C274.7,437.7,277.8,431.9,275.1,427.3z"/>
	<path class="st7" d="M205.5,408.8c0,0,10.6,32.4,20,2c6,19.9,10.9,11.3,16.2-2.7c7.5,19,12.5,12,15.4-3.5
		c-22.6-20.6-48.6-19.1-68.2,1.5C193.7,427.3,205.5,408.8,205.5,408.8z"/>
</g>
<path class="st8" d="M77.7,460.7c7.9-5.8,16.3-7.8,25.5-5.1c10.6,3.2,8.3,18.9-2.7,19.2c-6.3,0.1-12.6,0-18.7-0.4
	C74.8,473.9,72,464.9,77.7,460.7z"/>
<path class="st8" d="M352.2,461.8c-9.3-6.8-19.2-9.2-30-6c-12.4,3.8-9.8,22.3,3.2,22.5c7.4,0.2,14.8,0,22-0.5
	C355.6,477.3,358.8,466.7,352.2,461.8z"/>
<path class="st8" d="M189.5,465.8c-9.3-6.8-19.2-9.2-30-6c-12.4,3.8-9.8,22.3,3.2,22.5c7.4,0.2,14.8,0,22-0.5
	C193,481.3,196.2,470.7,189.5,465.8z"/>
<path class="st9" d="M389.7,419.5c-3.3-5.5-5.5-10.1-2.9-23.4c3.9,1.6,10.3,4.5,9.7,11.5c-3.9-7.9-0.1-16.1,4.3-19.7
	c7.9,1.9,11.1,18.1,8.1,18.2c-3,0.1,5.8-10.6,7.5-9.6c1.2-0.3,4.5,17.9,0,18.4c-3.8,0.5,3.6-15.4,7.1-15.7c1.7,6.3,0.9,13-1.7,20
	c-0.3,0.9-1.2,1.5-2.2,1.6c-10,0.7-19.3,0.8-27.8,0C390.9,420.7,390.2,420.2,389.7,419.5z"/>
<path class="st8" d="M309.7,115.7c49.5,9.8,99.2,9.7,149.1,0c14.5-20.7-8.1-32-22.9-14.6c7.8-20.9-18.4-40.3-36.6-14.6
	c-3.7-17-32.8-17-34.8,6.4c-2.7-16.6-31.6-14.7-29.6,2.3C322.3,77.3,291.2,93.4,309.7,115.7z"/>
<path class="st8" d="M660.4,234c-49.5,9.8-99.2,9.7-149.1,0c-14.5-20.7,8.1-32,22.9-14.6c-7.8-20.9,18.4-40.3,36.6-14.6
	c3.7-17,32.8-17,34.8,6.4c2.7-16.6,31.6-14.7,29.6,2.3C647.8,195.7,678.8,211.7,660.4,234z"/>
<path class="st8" d="M74.3,187.6c49.5,9.8,99.2,9.7,149.1,0c14.5-20.7-8.1-32-22.9-14.6c7.8-20.9-18.4-40.3-36.6-14.6
	c-3.7-17-32.8-17-34.8,6.4c-2.7-16.6-31.6-14.7-29.6,2.3C86.9,149.3,55.8,165.3,74.3,187.6z"/>
<path class="st10" d="M522.9,398.8c-3.3-5.5-5.5-10.1-2.9-23.4c3.9,1.6,10.3,4.5,9.7,11.5c-3.9-7.9-0.1-16.1,4.3-19.7
	c7.9,1.9,11.1,18.1,8.1,18.2c-3,0.1,5.8-10.6,7.5-9.6c1.2-0.3,4.5,17.9,0,18.4c-3.8,0.5,3.6-15.4,7.1-15.7c1.7,6.3,0.9,13-1.7,20
	c-0.3,0.9-1.2,1.5-2.2,1.6c-10,0.7-19.3,0.8-27.8,0C524.1,400,523.3,399.5,522.9,398.8z"/>
<path class="st11" d="M104.9,476.6c-3.3-5.5-5.5-10.1-2.9-23.4c3.9,1.6,10.3,4.5,9.7,11.5c-3.9-7.9-0.1-16.1,4.3-19.7
	c7.9,1.9,11.1,18.1,8.1,18.2c-3,0.1,5.8-10.6,7.5-9.6c1.2-0.3,4.5,17.9,0,18.4c-3.8,0.5,3.6-15.4,7.1-15.7c1.7,6.3,0.9,13-1.7,20
	c-0.3,0.9-1.2,1.5-2.2,1.6c-10,0.7-19.3,0.8-27.8,0C106.1,477.8,105.4,477.3,104.9,476.6z"/>
<path class="st8" d="M523.8,390.2c-9.3-6.8-19.2-9.2-30-6c-12.4,3.8-9.8,22.3,3.2,22.5c7.4,0.2,14.8,0,22-0.5
	C527.3,405.7,530.5,395.1,523.8,390.2z"/>
<path class="st12" d="M422.1,204.7c-2.1,23.1-15.7,48.3-38.4,42"/>
<path class="st4" d="M478.5,201.9c0,34.3,12.6,62,28.1,62"/>
<path class="st4" d="M449.5,206.7c0,34.1-14.8,61.7-33,61.7"/>
</svg>
