<?xml version="1.0" encoding="utf-8"?>
<!-- Generator: Adobe Illustrator 21.1.0, SVG Export Plug-In . SVG Version: 6.00 Build 0)  -->
<svg version="1.1" id="圖層_1" xmlns="http://www.w3.org/2000/svg" xmlns:xlink="http://www.w3.org/1999/xlink" x="0px" y="0px"
	 viewBox="0 0 708.7 510.2" style="enable-background:new 0 0 708.7 510.2;" xml:space="preserve">
<style type="text/css">
	.st0{fill:#3BA261;}
	.st1{fill:#DAB980;}
	.st2{fill:none;stroke:#DAB980;stroke-miterlimit:10;}
	.st3{fill:none;stroke:#DAB980;stroke-width:2;stroke-miterlimit:10;}
	.st4{fill:none;stroke:#DAB980;stroke-width:3;stroke-miterlimit:10;}
</style>
<path class="st0" d="M394.4,295.8c-1,32.5-23.7,59.6-52.9,59.6s-52.9-26.7-52.9-59.6s23.7-59.6,52.9-59.6S395.4,262.9,394.4,295.8z"
	/>
<path class="st0" d="M413.8,67.8c-80.3,57.7-123.1,134.1-125.2,234.3H394C400.1,143.2,403.1,79.5,413.8,67.8z"/>
<g>
	<g>
		<path class="st1" d="M350.3,406.5c-9.2-63.6-5.6-128.5,8.7-191.1c9.2-40.1,22.5-79.3,40-116.5c2.3-4.9,4.7-9.8,7.2-14.7
			c1-2,2.7-4.4,2.9-6.7c0.3-3.2-4.8-3.2-5,0c0.1-0.8,0.1-0.5-0.4,0.6c-0.6,1.3-1.2,2.5-1.9,3.7c-2.1,4.3-4.2,8.6-6.3,12.9
			c-7,14.8-13.4,29.9-19.1,45.3c-18.5,49.6-30.4,101.7-34.5,154.4c-3,37.8-1.8,75.9,3.6,113.4C345.9,411,350.7,409.6,350.3,406.5
			L350.3,406.5z"/>
	</g>
</g>
<line class="st2" x1="363.9" y1="111.5" x2="376.9" y2="138.6"/>
<line class="st3" x1="358.6" y1="116" x2="374.6" y2="145.7"/>
<line class="st3" x1="355.4" y1="120.9" x2="373.7" y2="154.6"/>
<line class="st2" x1="352.6" y1="125" x2="372" y2="159.7"/>
<line class="st4" x1="379.8" y1="137.8" x2="402" y2="132"/>
<line class="st2" x1="379.7" y1="144.6" x2="401.4" y2="140.1"/>
<line class="st3" x1="376.7" y1="150.9" x2="401" y2="146.2"/>
<line class="st2" x1="374.6" y1="157.8" x2="400.6" y2="152.1"/>
<line class="st4" x1="349.7" y1="127.8" x2="369.5" y2="162.8"/>
<line class="st4" x1="360.3" y1="197.7" x2="330.8" y2="154.1"/>
<line class="st4" x1="356.5" y1="214.9" x2="398.3" y2="197.5"/>
<line class="st4" x1="355.6" y1="218.8" x2="320.8" y2="170.7"/>
<line class="st4" x1="346.6" y1="283.8" x2="395.5" y2="263.8"/>
<line class="st4" x1="347.9" y1="261.3" x2="396.4" y2="241.4"/>
<line class="st4" x1="295" y1="243.3" x2="342.7" y2="292.3"/>
<line class="st3" x1="293.1" y1="253.5" x2="343.6" y2="303.6"/>
<line class="st3" x1="327.7" y1="159.1" x2="357.4" y2="201.5"/>
<line class="st3" x1="360.3" y1="206.6" x2="398.1" y2="190.5"/>
<line class="st3" x1="363.2" y1="188.3" x2="399.3" y2="175.6"/>
<line class="st3" x1="349.4" y1="266.4" x2="396.2" y2="246.4"/>
<line class="st3" x1="346.6" y1="290.4" x2="395.2" y2="270.5"/>
<line class="st2" x1="297.1" y1="234.2" x2="345.7" y2="279.4"/>
<line class="st2" x1="345.1" y1="270.8" x2="298.9" y2="227.1"/>
<line class="st2" x1="344.2" y1="295.8" x2="395" y2="276.5"/>
<line class="st2" x1="333.1" y1="150.5" x2="360.3" y2="191"/>
<line class="st2" x1="361.6" y1="200.8" x2="398.8" y2="185.7"/>
<line class="st3" x1="341.4" y1="339.8" x2="288.5" y2="294.6"/>
<line class="st2" x1="343.6" y1="332.7" x2="392.6" y2="308.5"/>
<line class="st4" x1="341.4" y1="331.6" x2="288.9" y2="289.3"/>
<line class="st3" x1="343.6" y1="336.3" x2="391.7" y2="311.9"/>
</svg>
