<?xml version="1.0" encoding="utf-8"?>
<!-- Generator: Adobe Illustrator 21.1.0, SVG Export Plug-In . SVG Version: 6.00 Build 0)  -->
<svg version="1.1" id="圖層_1" xmlns="http://www.w3.org/2000/svg" xmlns:xlink="http://www.w3.org/1999/xlink" x="0px" y="0px"
	 viewBox="0 0 708.7 510.2" style="enable-background:new 0 0 708.7 510.2;" xml:space="preserve">
<style type="text/css">
	.st0{fill:#67BE8D;}
	.st1{fill:#DAB980;}
	.st2{fill:none;stroke:#DAB980;stroke-miterlimit:10;}
	.st3{fill:none;stroke:#DAB980;stroke-width:2;stroke-miterlimit:10;}
	.st4{fill:none;stroke:#DAB980;stroke-width:3;stroke-miterlimit:10;}
</style>
<path class="st0" d="M380.4,306.7c-1,32.5-23.7,59.6-52.9,59.6c-29.2,0-52.9-26.7-52.9-59.6s23.7-59.6,52.9-59.6
	C356.7,247.1,381.4,273.8,380.4,306.7z"/>
<path class="st0" d="M399.8,78.7C319.5,136.4,276.7,212.8,274.6,313h105.5C386.1,154.1,389.2,90.4,399.8,78.7z"/>
<g>
	<g>
		<path class="st1" d="M336.3,417.4c-9.2-63.6-5.6-128.5,8.7-191.1c9.2-40.1,22.5-79.3,40-116.5c2.3-4.9,4.7-9.8,7.2-14.7
			c1-2,2.7-4.4,2.9-6.7c0.3-3.2-4.8-3.2-5,0c0.1-0.8,0.1-0.5-0.4,0.6c-0.6,1.3-1.2,2.5-1.9,3.7c-2.1,4.3-4.2,8.6-6.3,12.9
			c-7,14.8-13.4,29.9-19.1,45.3c-18.5,49.6-30.4,101.7-34.5,154.4c-3,37.8-1.8,75.9,3.6,113.4C331.9,421.9,336.8,420.5,336.3,417.4
			L336.3,417.4z"/>
	</g>
</g>
<line class="st2" x1="350" y1="122.4" x2="363" y2="149.5"/>
<line class="st3" x1="344.6" y1="126.9" x2="360.6" y2="156.6"/>
<line class="st3" x1="341.5" y1="131.8" x2="359.8" y2="165.5"/>
<line class="st2" x1="338.7" y1="135.9" x2="358" y2="170.6"/>
<line class="st4" x1="365.9" y1="148.7" x2="388.1" y2="142.9"/>
<line class="st2" x1="365.7" y1="155.5" x2="387.5" y2="151"/>
<line class="st3" x1="362.7" y1="161.8" x2="387.1" y2="157.1"/>
<line class="st2" x1="360.6" y1="168.7" x2="386.7" y2="163"/>
<line class="st4" x1="335.7" y1="138.7" x2="355.6" y2="173.7"/>
<line class="st4" x1="346.4" y1="208.6" x2="316.8" y2="165"/>
<line class="st4" x1="342.6" y1="225.8" x2="384.3" y2="208.4"/>
<line class="st4" x1="341.7" y1="229.6" x2="306.8" y2="181.6"/>
<line class="st4" x1="332.6" y1="294.7" x2="381.6" y2="274.7"/>
<line class="st4" x1="334" y1="272.2" x2="382.4" y2="252.3"/>
<line class="st4" x1="281.1" y1="254.2" x2="328.7" y2="303.2"/>
<line class="st3" x1="279.2" y1="264.4" x2="329.7" y2="314.5"/>
<line class="st3" x1="313.8" y1="170" x2="343.5" y2="212.4"/>
<line class="st3" x1="346.4" y1="217.5" x2="384.1" y2="201.4"/>
<line class="st3" x1="349.3" y1="199.2" x2="385.4" y2="186.5"/>
<line class="st3" x1="335.5" y1="277.3" x2="382.2" y2="257.3"/>
<line class="st3" x1="332.6" y1="301.3" x2="381.3" y2="281.4"/>
<line class="st2" x1="283.2" y1="245" x2="331.7" y2="290.3"/>
<line class="st2" x1="331.2" y1="281.7" x2="284.9" y2="238"/>
<line class="st2" x1="330.2" y1="306.7" x2="381.1" y2="287.4"/>
<line class="st2" x1="319.1" y1="161.4" x2="346.4" y2="201.9"/>
<line class="st2" x1="347.7" y1="211.7" x2="384.9" y2="196.6"/>
<line class="st3" x1="327.5" y1="350.7" x2="274.6" y2="305.5"/>
<line class="st2" x1="329.7" y1="343.6" x2="378.7" y2="319.4"/>
<line class="st4" x1="327.5" y1="342.5" x2="274.9" y2="300.2"/>
<line class="st3" x1="329.7" y1="347.2" x2="377.7" y2="322.8"/>
</svg>
