<?xml version="1.0" encoding="utf-8"?>
<!-- Generator: Adobe Illustrator 21.1.0, SVG Export Plug-In . SVG Version: 6.00 Build 0)  -->
<svg version="1.1" id="圖層_1" xmlns="http://www.w3.org/2000/svg" xmlns:xlink="http://www.w3.org/1999/xlink" x="0px" y="0px"
	 viewBox="0 0 708.7 510.2" style="enable-background:new 0 0 708.7 510.2;" xml:space="preserve">
<style type="text/css">
	.st0{fill:#DAE24B;}
	.st1{fill:#DAB980;}
	.st2{fill:#FFFFFF;}
</style>
<path class="st0" d="M344.2,120.8C381.4,135.3,446,136.4,466.6,224c8.5,75.8-42.2,151-105.5,93h-5.8c-27.3,37-72.5,17.1-94.6-36.8
	C237.9,139.9,331.8,149.8,344.2,120.8z"/>
<g>
	<g>
		<path class="st1" d="M342.8,124.7c0,51.9,1.6,103.9,7.4,155.5c2.1,18.9,4.7,37.8,8.9,56.4c2.8,12.8,6.2,25.9,12.2,37.7
			c3.6,7.1,9.4,15.4,18.2,15.6c3.2,0.1,3.2-4.9,0-5c-6.8-0.1-11.2-7.8-13.9-13.1c-5.8-11.2-8.9-23.7-11.6-35.9
			c-8.9-40.1-12-81.7-14-122.6c-1.5-29.5-2.1-59-2.1-88.5C347.8,121.5,342.8,121.5,342.8,124.7L342.8,124.7z"/>
	</g>
</g>
<g>
	<g>
		<path class="st1" d="M404.5,162.6c-0.4,8.7-12.9,13.8-19.7,16c-11.6,3.7-24.3,4.2-36,0.5c-3.1-1-4.4,3.9-1.3,4.8
			c13.8,4.3,29.1,3.4,42.4-1.9c8.3-3.3,19.2-9.4,19.6-19.5C409.7,159.4,404.7,159.4,404.5,162.6L404.5,162.6z"/>
	</g>
</g>
<g>
	<g>
		<path class="st1" d="M436.3,207.5c-0.4,12.7-20.6,17-30.1,18.7c-17.5,3-36.2,1.9-53-3.8c-3.1-1-4.4,3.8-1.3,4.8
			c18.8,6.4,40,7.3,59.4,3.1c11.5-2.5,29.6-8.4,30-22.8C441.4,204.3,436.4,204.3,436.3,207.5L436.3,207.5z"/>
	</g>
</g>
<g>
	<g>
		<path class="st1" d="M436.3,278.5c-0.4,10.9-17.6,14.3-25.8,15.4c-17.1,2.2-34.5-1.2-50.3-7.6c-3-1.2-4.3,3.6-1.3,4.8
			c18.1,7.3,38.5,10.7,57.8,6.8c9.9-2,24.1-7.3,24.6-19.4C441.4,275.3,436.4,275.3,436.3,278.5L436.3,278.5z"/>
	</g>
</g>
<g>
	<g>
		<path class="st1" d="M294.4,169.4c0.5,8.8,10.6,12.8,17.8,14.8c10.8,2.9,23.1,3.5,33.7-0.4c3-1.1,1.7-5.9-1.3-4.8
			c-8.7,3.2-18.5,3.1-27.5,1.2c-5.2-1.1-17.3-3.8-17.7-10.8C299.2,166.2,294.2,166.2,294.4,169.4L294.4,169.4z"/>
	</g>
</g>
<g>
	<g>
		<path class="st1" d="M275.1,224.8c0.3,4.8,5,7.3,9,8.9c7,2.8,14.7,3.9,22.2,4.4c14.3,1.1,34.1,0.9,45.3-9.7
			c2.3-2.2-1.2-5.8-3.5-3.5c-9.4,8.9-26.4,9-38.5,8.5c-6.6-0.3-13.2-1.1-19.6-2.9c-2.2-0.6-9.7-2.4-9.8-5.6
			C280,221.6,275,221.6,275.1,224.8L275.1,224.8z"/>
	</g>
</g>
<g>
	<g>
		<path class="st1" d="M281.6,285.6c0.5,14,23.1,17.3,33.4,18.2c14.1,1.2,35.6-0.2,42.8-14.8c1.4-2.9-2.9-5.4-4.3-2.5
			c-6,12.3-24.6,13.2-36.4,12.5c-7-0.4-14.2-1.7-20.6-4.3c-3.7-1.5-9.6-4.3-9.8-9C286.4,282.4,281.4,282.4,281.6,285.6L281.6,285.6z
			"/>
	</g>
</g>
<g>
	<g>
		<path class="st2" d="M389.8,131.2c-0.3,14.9-13.2,24.9-27.5,25.2c-7.7,0.2-7.7,12.2,0,12c20.9-0.4,39-15.7,39.5-37.2
			C401.9,123.5,389.9,123.5,389.8,131.2L389.8,131.2z"/>
	</g>
</g>
<g>
	<g>
		<path class="st2" d="M436.7,148.1c-0.4,26.4-24.1,44.3-49.2,44.6c-7.7,0.1-7.7,12.1,0,12c31.7-0.4,60.8-23.6,61.2-56.6
			C448.8,140.4,436.8,140.4,436.7,148.1L436.7,148.1z"/>
	</g>
</g>
<g>
	<g>
		<path class="st2" d="M472.9,197.5c-0.2,17-11.2,31.2-24.9,40.4c-17.8,11.9-39.3,16.9-60.5,17c-7.7,0-7.7,12,0,12
			c40.3-0.2,96.8-21.3,97.4-69.4C485,189.8,473,189.8,472.9,197.5L472.9,197.5z"/>
	</g>
</g>
<g>
	<g>
		<path class="st2" d="M300.2,131.2c0.4,17.6,11.9,34.6,30.6,35.2c7.7,0.2,7.7-11.8,0-12c-12-0.4-18.4-12.3-18.6-23.2
			C312,123.5,300,123.5,300.2,131.2L300.2,131.2z"/>
	</g>
</g>
<g>
	<g>
		<path class="st2" d="M241.5,165.6c0.7,36,48.2,47.7,76.6,47.9c7.7,0.1,7.7-11.9,0-12c-15.7-0.1-32-2.9-45.8-10.8
			c-9.3-5.3-18.6-13.7-18.8-25.1C253.3,157.9,241.3,157.9,241.5,165.6L241.5,165.6z"/>
	</g>
</g>
<g>
	<g>
		<path class="st2" d="M223.6,212.8c0.3,16.5,13.3,28.7,27,36.1c19.7,10.6,42.8,14.3,64.9,14.4c7.7,0,7.7-12,0-12
			c-19.2-0.1-39.2-3-56.6-11.6c-10.4-5.2-23.1-13.9-23.3-26.9C235.5,205.1,223.5,205,223.6,212.8L223.6,212.8z"/>
	</g>
</g>
</svg>
