<?xml version="1.0" encoding="utf-8"?>
<!-- Generator: Adobe Illustrator 23.0.1, SVG Export Plug-In . SVG Version: 6.00 Build 0)  -->
<svg version="1.1" id="圖層_1" xmlns="http://www.w3.org/2000/svg" xmlns:xlink="http://www.w3.org/1999/xlink" x="0px" y="0px"
	 viewBox="0 0 265.66 256.96" style="enable-background:new 0 0 265.66 256.96;" xml:space="preserve">
<style type="text/css">
	.st0{fill:#8FB928;}
	.st1{fill:#718CC6;}
	.st2{fill:#67BE8D;}
	.st3{fill:#67BE8D;stroke:#8FB928;stroke-width:3;stroke-miterlimit:10;}
</style>
<g>
	<path class="st0" d="M112.97,153.91c2.09,1.68,4.71-1.51,2.64-3.21C113.54,148.99,110.88,152.23,112.97,153.91z"/>
	<path class="st1" d="M112.01,255.74c14.93-16.35,26.64-32.26,33.8-47.81c5.72-12.42,8.78-25.29,9.32-36.61
		c0.9-19.23-3.95-29.5-4.02-29.6l0.8-0.42l-0.8,0.42l1.63-0.85c0.08,0.11,1.96,2.86,3.72,8.08c1.61,4.76,3.43,12.62,2.98,22.94
		c-0.51,11.56-3.71,23.81-9.5,36.44c-7.22,15.74-18.52,32.1-33.6,48.63L112.01,255.74z"/>
	<path class="st2" d="M33.77,78.52l4.44-1.17c13.59,51.71,66.68,82.68,118.39,69.1c51.71-13.58,82.68-66.7,69.1-118.39l4.44-1.17
		c14.24,54.14-18.23,109.77-72.38,124c-31.57,8.29-65.19,0.9-90.37-19.88C50.94,117.51,39.16,99.13,33.77,78.52z"/>
	<path class="st3" d="M190.87,34.34"/>
	<path class="st2" d="M155.29,149.97c-0.72-1.04-0.45-2.47,0.59-3.19c0.45-0.31,44.98-32.11,32.71-112.11l4.54-0.7
		c6.61,43.18-3.08,72.51-12.37,89.51c-1.79,3.29-3.77,6.47-5.91,9.54c18.94-17.21,29.73-40.23,32.13-68.74
		c2.34-27.7-4.57-50.45-4.64-50.68l4.39-1.36c0.3,0.96,7.22,23.71,4.85,52.27c-2.17,26.5-13.22,62.96-53.25,86.14
		c-0.83,0.48-1.87,0.39-2.61-0.22C155.56,150.31,155.41,150.15,155.29,149.97z"/>
	<path class="st2" d="M104.45,88.21c-6.03-25.5-4.72-48.89-4.66-49.87l4.59,0.27c-0.06,0.93-4.89,93.19,52.01,106.39l-1.04,4.47
		c-8.59-1.96-16.6-5.9-23.39-11.51C119.06,127.37,109.73,110.57,104.45,88.21z"/>
	<path class="st2" d="M103.09,127.95C82.07,106.19,73.29,71.49,77.01,24.8l4.58,0.36c-3.62,45.28,4.72,78.77,24.76,99.54
		c16.3,16.92,36.4,20.66,45.64,21.46c-9.43-11.98-16.23-30-20.27-53.67c-2.03-11.97-3.17-24.08-3.42-36.22h4.6
		c0,0.62,0.47,64.19,25.94,90.82c0.38,0.4,0.61,0.93,0.64,1.48c0.06,1.27-0.92,2.34-2.19,2.4c-1.16,0.05-25.84,0.96-47.88-17.16
		C107.2,131.98,105.09,130.02,103.09,127.95z"/>
	<path class="st2" d="M82.41,128.38C44.16,95.6,39.97,37.79,39.81,35.34l4.59-0.3c0.04,0.58,4.24,58.35,41.03,89.87
		c18.1,15.51,41.15,22.21,68.58,19.98c3.53-5.5,22.35-38.72,9.69-104.47l4.51-0.87c14.25,73.94-10.04,107.51-11.07,108.9
		c-0.39,0.52-0.98,0.85-1.63,0.91c-28.49,2.54-52.59-4.12-71.68-19.81C83.35,129.17,82.88,128.78,82.41,128.38z"/>
	<path class="st2" d="M223.18,17.77C223.19,17.77,223.19,17.77,223.18,17.77c5.31-2.45,11.59-0.14,14.05,5.16
		c2.45,5.3,0.14,11.59-5.16,14.04c-5.3,2.45-11.59,0.14-14.04-5.16C215.58,26.51,217.89,20.22,223.18,17.77z"/>
	<path class="st2" d="M200.97,0.98c0,0,0.01,0,0.01-0.01c5.31-2.45,11.6-0.14,14.05,5.17c2.45,5.31,0.14,11.6-5.17,14.05
		c-5.31,2.45-11.6,0.14-14.05-5.17C193.36,9.72,195.67,3.44,200.97,0.98z"/>
	<path class="st2" d="M186.42,24.73c0,0,0.01,0,0.01-0.01c5.31-2.45,11.6-0.14,14.05,5.17c2.45,5.31,0.14,11.6-5.17,14.05
		c-5.31,2.45-11.6,0.14-14.05-5.17C178.82,33.47,181.12,27.18,186.42,24.73z"/>
	<path class="st2" d="M124.92,46.93c0,0,0.01,0,0.01-0.01c5.31-2.45,11.6-0.14,14.05,5.17c2.45,5.31,0.14,11.6-5.17,14.05
		c-5.31,2.45-11.6,0.14-14.05-5.17C117.31,55.67,119.62,49.38,124.92,46.93z"/>
	<path class="st2" d="M69.51,29.89c-2.45-5.3-0.14-11.58,5.16-14.03c0,0,0.01,0,0.01-0.01c5.31-2.45,11.6-0.14,14.05,5.17
		c2.45,5.31,0.14,11.6-5.17,14.05C78.25,37.52,71.97,35.2,69.51,29.89C69.51,29.89,69.51,29.89,69.51,29.89z"/>
	<path class="st2" d="M32.31,40.13c-2.45-5.3-0.14-11.58,5.16-14.03c0,0,0,0,0.01,0c5.3-2.45,11.59-0.14,14.04,5.16
		c2.45,5.3,0.14,11.59-5.16,14.04C41.05,47.74,34.77,45.43,32.31,40.13C32.31,40.13,32.31,40.13,32.31,40.13z"/>
	<path class="st2" d="M6.14,71.8C6.14,71.8,6.14,71.8,6.14,71.8c5.31-2.45,11.59-0.14,14.05,5.16c2.45,5.3,0.14,11.59-5.16,14.04
		c-5.3,2.45-11.59,0.14-14.04-5.16C-1.47,80.54,0.84,74.25,6.14,71.8z"/>
	<path class="st2" d="M159.08,37.89c-0.86-3.63,1.38-7.26,5-8.13c3.63-0.87,7.28,1.37,8.15,5c0.87,3.63-1.37,7.28-5,8.15
		s-7.28-1.37-8.15-5C159.09,37.91,159.08,37.9,159.08,37.89z"/>
	<path class="st2" d="M252.33,56.11c-0.87-3.63,1.37-7.27,5-8.14c3.63-0.87,7.28,1.37,8.15,5c0.87,3.63-1.37,7.28-5,8.15
		c-3.63,0.87-7.28-1.37-8.15-5C252.33,56.12,252.33,56.12,252.33,56.11z"/>
	<path class="st2" d="M95.23,40.76c-0.87-3.63,1.37-7.27,5-8.14c3.63-0.87,7.28,1.37,8.15,5c0.87,3.63-1.37,7.28-5,8.15
		s-7.28-1.37-8.15-5C95.23,40.77,95.23,40.77,95.23,40.76z"/>
	<path class="st2" d="M30.17,82.02c-0.87-3.63,1.37-7.27,5-8.14c3.63-0.87,7.28,1.37,8.15,5c0.87,3.63-1.37,7.28-5,8.15
		s-7.28-1.37-8.15-5C30.18,82.03,30.18,82.02,30.17,82.02z"/>
	<path class="st2" d="M8.56,82.45l4.08-2.11c25.35,49.01,45.88,78.43,144.28,66.06c39.4-4.96,68.26-22.05,85.8-50.81
		c13.11-21.5,14.64-41.86,14.64-42.06l4.59,0.3c-0.08,0.87-1.59,21.52-15.21,43.97c-12.57,20.72-38.26,46.75-89.25,53.16
		c-47.13,5.93-78.26,2.92-100.92-9.73c-4.18-2.33-8.15-5.03-11.84-8.07C30.58,121.53,20.24,105.05,8.56,82.45z"/>
	<path class="st2" d="M212.27,93.95c1.55,1.28,3.53-1.13,1.98-2.41C212.7,90.26,210.73,92.67,212.27,93.95z"/>
	<path class="st2" d="M198.38,95.46c-0.08,0.49-0.12,0.99-0.11,1.48c0.03,0.88,0.46,1.71,1.16,2.25c0.65,0.49,1.46,0.74,2.27,0.68
		c0.32-0.02,0.63-0.1,0.92-0.23c1.16-0.58,2.13-1.32,2.34-2.75c0.17-1.09-0.24-2.19-1.09-2.9c-0.51-0.42-1.14-0.66-1.8-0.68
		c-0.39-0.15-0.81-0.21-1.23-0.17C199.59,93.27,198.58,94.22,198.38,95.46z"/>
	<path class="st2" d="M55.01,52.66c3.97,3.26,9.02-2.89,5.06-6.15C56.11,43.24,51.04,49.4,55.01,52.66z"/>
	<path class="st1" d="M79.14,111.99c2.18,1.8,4.96-1.59,2.78-3.38C79.74,106.81,76.95,110.19,79.14,111.99z"/>
	<path class="st2" d="M122.11,122.22c2.18,1.8,4.96-1.59,2.78-3.38C122.71,117.04,119.93,120.42,122.11,122.22z"/>
	<path class="st1" d="M104.95,125.67c4.66,3.83,10.59-3.42,5.93-7.22C106.22,114.62,100.29,121.84,104.95,125.67z"/>
	<path class="st2" d="M215.53,73.99c1.61,1.31,3.68-1.17,2.05-2.49C215.97,70.18,213.93,72.68,215.53,73.99z"/>
</g>
</svg>
