<?xml version="1.0" encoding="utf-8"?>
<!-- Generator: Adobe Illustrator 23.0.1, SVG Export Plug-In . SVG Version: 6.00 Build 0)  -->
<svg version="1.1" id="圖層_1" xmlns="http://www.w3.org/2000/svg" xmlns:xlink="http://www.w3.org/1999/xlink" x="0px" y="0px"
	 viewBox="0 0 265.66 256.96" style="enable-background:new 0 0 265.66 256.96;" xml:space="preserve">
<style type="text/css">
	.st0{fill:#8FB928;}
	.st1{fill:#119A94;}
	.st2{fill:#D4D222;}
	.st3{fill:#D4D222;stroke:#8FB928;stroke-width:3;stroke-miterlimit:10;}
	.st4{fill:#0E9993;}
</style>
<path class="st0" d="M150.06,150.7c-2.07,1.7,0.54,4.89,2.64,3.21C154.78,152.23,152.12,148.99,150.06,150.7z"/>
<path class="st1" d="M149.32,256.96c-15.08-16.53-26.38-32.89-33.6-48.63c-5.79-12.63-8.99-24.88-9.5-36.44
	c-0.45-10.32,1.37-18.18,2.98-22.94c1.76-5.22,3.63-7.97,3.72-8.08l1.63,0.85l-0.8-0.42l0.8,0.42c-0.07,0.1-4.92,10.37-4.02,29.6
	c0.54,11.33,3.61,24.2,9.32,36.61c7.16,15.55,18.88,31.46,33.8,47.81L149.32,256.96z"/>
<path class="st2" d="M198.25,131.02c-25.17,20.77-58.8,28.17-90.37,19.88c-54.14-14.24-86.61-69.86-72.38-124l4.44,1.17
	c-13.58,51.69,17.39,104.81,69.1,118.39c51.71,13.58,104.8-17.39,118.39-69.1l4.44,1.17C226.5,99.13,214.72,117.51,198.25,131.02z"
	/>
<path class="st3" d="M74.79,34.34"/>
<path class="st2" d="M109.93,150.45c-0.74,0.61-1.78,0.7-2.61,0.22C67.3,127.48,56.25,91.02,54.08,64.52
	c-2.37-28.56,4.55-51.32,4.85-52.27l4.39,1.36c-0.07,0.23-6.98,22.98-4.64,50.68c2.4,28.5,13.19,51.53,32.13,68.74
	c-2.14-3.07-4.11-6.26-5.91-9.54c-9.29-17-18.98-46.33-12.37-89.51l4.54,0.7c-12.26,80,32.26,111.8,32.71,112.11
	c1.04,0.72,1.31,2.15,0.59,3.19C110.25,150.15,110.1,150.31,109.93,150.45z"/>
<path class="st2" d="M133.71,137.95c-6.79,5.61-14.8,9.55-23.39,11.51l-1.04-4.47c56.9-13.2,52.07-105.46,52.01-106.39l4.59-0.27
	c0.06,0.98,1.37,24.37-4.66,49.87C155.94,110.57,146.6,127.37,133.71,137.95z"/>
<path class="st2" d="M156.25,133.81c-22.04,18.12-46.73,17.22-47.88,17.16c-1.27-0.06-2.25-1.13-2.19-2.4
	c0.03-0.55,0.25-1.08,0.64-1.48c25.47-26.62,25.94-90.19,25.94-90.82h4.6c-0.25,12.14-1.39,24.25-3.42,36.22
	c-4.03,23.67-10.83,41.69-20.27,53.67c9.24-0.8,29.34-4.53,45.64-21.46c20.04-20.77,28.38-54.26,24.76-99.54l4.58-0.36
	c3.73,46.69-5.05,81.4-26.08,103.15C160.58,130.02,158.47,131.98,156.25,133.81z"/>
<path class="st2" d="M181.84,129.56c-19.09,15.69-43.19,22.35-71.68,19.81c-0.65-0.06-1.24-0.39-1.63-0.91
	c-1.04-1.39-25.32-34.96-11.07-108.9l4.51,0.87c-12.67,65.74,6.16,98.97,9.69,104.47c27.43,2.23,50.48-4.47,68.58-19.98
	c36.79-31.51,40.99-89.29,41.03-89.87l4.59,0.3c-0.16,2.44-4.35,60.26-42.6,93.04C182.78,128.78,182.31,129.17,181.84,129.56z"/>
<path class="st2" d="M47.63,31.81c-2.45,5.3-8.74,7.61-14.04,5.16c-5.3-2.45-7.61-8.74-5.16-14.04c2.45-5.3,8.74-7.61,14.04-5.16
	c0,0,0,0,0.01,0C47.78,20.22,50.08,26.51,47.63,31.81z"/>
<path class="st2" d="M69.85,15.02c-2.45,5.31-8.74,7.62-14.05,5.17c-5.31-2.45-7.62-8.74-5.17-14.05c2.45-5.31,8.74-7.62,14.05-5.17
	c0,0,0.01,0,0.01,0.01C69.99,3.44,72.3,9.72,69.85,15.02z"/>
<path class="st2" d="M84.4,38.77c-2.45,5.31-8.74,7.62-14.05,5.17c-5.31-2.45-7.62-8.74-5.17-14.05c2.45-5.31,8.74-7.62,14.05-5.17
	c0,0,0.01,0,0.01,0.01C84.54,27.18,86.85,33.47,84.4,38.77z"/>
<path class="st2" d="M145.9,60.97c-2.45,5.31-8.74,7.62-14.05,5.17c-5.31-2.45-7.62-8.74-5.17-14.05c2.45-5.31,8.74-7.62,14.05-5.17
	c0,0,0.01,0,0.01,0.01C146.04,49.38,148.35,55.67,145.9,60.97z"/>
<path class="st2" d="M196.15,29.9c-2.45,5.31-8.74,7.62-14.05,5.17c-5.31-2.45-7.62-8.74-5.17-14.05c2.45-5.31,8.74-7.62,14.05-5.17
	c0,0,0.01,0,0.01,0.01C196.29,18.31,198.6,24.59,196.15,29.9C196.15,29.89,196.15,29.89,196.15,29.9z"/>
<path class="st2" d="M233.35,40.13c-2.45,5.3-8.74,7.61-14.04,5.16c-5.3-2.45-7.61-8.74-5.16-14.04c2.45-5.3,8.74-7.61,14.04-5.16
	c0,0,0,0,0.01,0C233.49,28.54,235.8,34.83,233.35,40.13C233.35,40.13,233.35,40.13,233.35,40.13z"/>
<path class="st2" d="M264.68,85.84c-2.45,5.3-8.74,7.61-14.04,5.16c-5.3-2.45-7.61-8.74-5.16-14.04c2.45-5.3,8.74-7.61,14.04-5.16
	c0,0,0,0,0.01,0C264.83,74.25,267.13,80.54,264.68,85.84z"/>
<path class="st2" d="M106.57,37.91c-0.87,3.63-4.52,5.87-8.15,5s-5.87-4.52-5-8.15c0.87-3.63,4.52-5.87,8.15-5
	c3.63,0.86,5.87,4.5,5,8.13C106.58,37.9,106.58,37.91,106.57,37.91z"/>
<path class="st2" d="M13.33,56.13c-0.87,3.63-4.52,5.87-8.15,5s-5.87-4.52-5-8.15c0.87-3.63,4.52-5.87,8.15-5
	c3.63,0.87,5.87,4.51,5,8.14C13.34,56.12,13.33,56.12,13.33,56.13z"/>
<path class="st2" d="M170.43,40.78c-0.87,3.63-4.52,5.87-8.15,5s-5.87-4.52-5-8.15c0.87-3.63,4.52-5.87,8.15-5
	c3.63,0.87,5.87,4.51,5,8.14C170.43,40.77,170.43,40.77,170.43,40.78z"/>
<path class="st2" d="M235.48,82.03c-0.87,3.63-4.52,5.87-8.15,5s-5.87-4.52-5-8.15c0.87-3.63,4.52-5.87,8.15-5
	c3.63,0.87,5.87,4.51,5,8.14C235.49,82.02,235.48,82.03,235.48,82.03z"/>
<path class="st2" d="M220.96,133.15c-3.7,3.04-7.66,5.74-11.84,8.07c-22.67,12.65-53.79,15.66-100.92,9.73
	c-51-6.41-76.69-32.45-89.25-53.16C5.31,75.34,3.8,54.69,3.72,53.82l4.59-0.3c0,0.2,1.53,20.56,14.64,42.06
	c17.53,28.76,46.4,45.86,85.8,50.81c98.39,12.38,118.92-17.04,144.28-66.06l4.08,2.11C245.42,105.05,235.08,121.53,220.96,133.15z"
	/>
<path class="st4" d="M51.41,91.54c-1.55,1.28,0.43,3.68,1.98,2.41C54.94,92.67,52.96,90.26,51.41,91.54z"/>
<path class="st4" d="M64.82,93.14c-0.42-0.04-0.84,0.02-1.23,0.17c-0.66,0.02-1.29,0.26-1.8,0.68c-0.84,0.71-1.26,1.81-1.09,2.9
	c0.21,1.43,1.18,2.17,2.34,2.75c0.29,0.13,0.61,0.2,0.92,0.23c0.81,0.06,1.62-0.19,2.27-0.68c0.7-0.54,1.12-1.37,1.16-2.25
	c0.01-0.5-0.03-0.99-0.11-1.48C67.08,94.22,66.07,93.27,64.82,93.14z"/>
<path class="st2" d="M205.59,46.51c-3.97,3.26,1.09,9.41,5.06,6.15C214.62,49.4,209.56,43.24,205.59,46.51z"/>
<path class="st2" d="M183.74,108.61c-2.17,1.8,0.6,5.18,2.78,3.38C188.71,110.19,185.93,106.81,183.74,108.61z"/>
<path class="st2" d="M140.77,118.84c-2.17,1.8,0.6,5.18,2.78,3.38S142.95,117.04,140.77,118.84z"/>
<path class="st2" d="M154.78,118.45c-4.66,3.8,1.28,11.05,5.93,7.22C165.37,121.84,159.44,114.62,154.78,118.45z"/>
<path class="st2" d="M48.08,71.5c-1.63,1.33,0.44,3.8,2.05,2.49C51.74,72.68,49.69,70.18,48.08,71.5z"/>
</svg>
