<?xml version="1.0" encoding="utf-8"?>
<!-- Generator: Adobe Illustrator 21.1.0, SVG Export Plug-In . SVG Version: 6.00 Build 0)  -->
<svg version="1.1" id="圖層_1" xmlns="http://www.w3.org/2000/svg" xmlns:xlink="http://www.w3.org/1999/xlink" x="0px" y="0px"
	 viewBox="0 0 708.7 510.2" style="enable-background:new 0 0 708.7 510.2;" xml:space="preserve">
<style type="text/css">
	.st0{clip-path:url(#SVGID_2_);}
	.st1{clip-path:url(#SVGID_4_);}
	.st2{clip-path:url(#SVGID_6_);}
	.st3{clip-path:url(#SVGID_8_);}
	.st4{clip-path:url(#SVGID_10_);}
	.st5{fill:#FFFFFF;stroke:#040000;stroke-miterlimit:10;}
	.st6{fill:#FFFFFF;}
	.st7{fill:#040000;stroke:#040000;stroke-miterlimit:10;}
	.st8{fill:#805C35;}
	.st9{opacity:0.6;fill:#040000;enable-background:new    ;}
	.st10{fill:#946970;}
	.st11{opacity:0.6;fill:#946970;enable-background:new    ;}
	.st12{opacity:0.6;fill:#805C35;enable-background:new    ;}
	.st13{fill:#947F70;}
	.st14{opacity:0.6;fill:#947F70;enable-background:new    ;}
	.st15{fill:#67BE8D;}
	.st16{fill:#67BE8D;stroke:#231815;stroke-miterlimit:10;}
	.st17{fill:none;stroke:#231815;stroke-miterlimit:10;}
	.st18{font-family:'KAWAIITEGAKIMOJI';}
	.st19{font-size:72px;}
	.st20{clip-path:url(#SVGID_12_);}
	.st21{clip-path:url(#SVGID_14_);}
	.st22{clip-path:url(#SVGID_16_);}
	.st23{clip-path:url(#SVGID_18_);}
	.st24{clip-path:url(#SVGID_20_);}
</style>
<g>
	<defs>
		
			<rect id="SVGID_1_" x="280.3" y="374.3" transform="matrix(0.8656 -0.5008 0.5008 0.8656 -156.1603 201.8269)" width="35" height="35"/>
	</defs>
	<clipPath id="SVGID_2_">
		<use xlink:href="#SVGID_1_"  style="overflow:visible;"/>
	</clipPath>
	<path class="st0" d="M295.9,388.5c-6.1,3.5-5.6,16.2-2.8,21c0.9,1.5,1.8,1.7,2.5,1.7c1-0.1,2.1-0.4,3.9-1.4c0.9-0.5,1.8-1,2.7-1.7
		c1.2-0.9,2.4-1.7,3.6-2.4c1.3-0.7,2.5-1.5,3.7-2c1-0.6,2.1-1,2.8-1.5c3.5-2,4.2-3.5,3-5.6C312.8,391.7,302,385,295.9,388.5z"/>
</g>
<g>
	<defs>
		
			<rect id="SVGID_3_" x="280.3" y="374.3" transform="matrix(0.8656 -0.5008 0.5008 0.8656 -156.1603 201.8269)" width="35" height="35"/>
	</defs>
	<clipPath id="SVGID_4_">
		<use xlink:href="#SVGID_3_"  style="overflow:visible;"/>
	</clipPath>
	<path class="st1" d="M288.3,393.3c-0.7-1.1-4.3-5.1-6.2-4c-2,1.2-0.4,6.3,0.3,7.4c0.9,1.6,3.1,2.1,4.7,1.1S289.2,394.9,288.3,393.3
		z"/>
</g>
<g>
	<defs>
		
			<rect id="SVGID_5_" x="280.3" y="374.3" transform="matrix(0.8656 -0.5008 0.5008 0.8656 -156.1603 201.8269)" width="35" height="35"/>
	</defs>
	<clipPath id="SVGID_6_">
		<use xlink:href="#SVGID_5_"  style="overflow:visible;"/>
	</clipPath>
	<path class="st2" d="M290.7,388.7c1.6-0.9,2.1-3.1,1.2-4.6c-0.7-1.1-4.3-5.1-6.2-4c-2,1.2-0.4,6.3,0.3,7.4
		C286.9,389,289,389.6,290.7,388.7z"/>
</g>
<g>
	<defs>
		
			<rect id="SVGID_7_" x="280.3" y="374.3" transform="matrix(0.8656 -0.5008 0.5008 0.8656 -156.1603 201.8269)" width="35" height="35"/>
	</defs>
	<clipPath id="SVGID_8_">
		<use xlink:href="#SVGID_7_"  style="overflow:visible;"/>
	</clipPath>
	<path class="st3" d="M303.5,376.9c-2,1.2-0.4,6.3,0.3,7.4c0.9,1.6,3.1,2.1,4.7,1.1c1.6-0.9,2.2-3.1,1.3-4.7
		C309.2,379.6,305.5,375.7,303.5,376.9z"/>
</g>
<g>
	<defs>
		
			<rect id="SVGID_9_" x="279.5" y="374.3" transform="matrix(0.8656 -0.5008 0.5008 0.8656 -156.2704 201.4044)" width="35" height="35"/>
	</defs>
	<clipPath id="SVGID_10_">
		<use xlink:href="#SVGID_9_"  style="overflow:visible;"/>
	</clipPath>
	<path class="st4" d="M297.9,384c1.6-0.9,2.1-3.1,1.2-4.6c-0.7-1.1-4.3-5.1-6.2-4c-2,1.2-0.4,6.3,0.3,7.4
		C294,384.4,296.2,384.9,297.9,384z"/>
</g>
<path class="st5" d="M501.3,103.5"/>
<g>
	<g>
		<g>
			<polygon points="306.8,204.4 306.8,204.4 307.4,202.2 307.4,202.2 			"/>
			<path d="M489.1,263.8l-34.8-26.7c-2.5-1.3-5.1-2.5-7.6-3.6c-3.5-1.6-7.1-2.5-9.5-3.4c-0.4-4.2-0.6-8.5-0.8-12.6l-5.8-27.1
				c-2.4-5.5-5.3-10.9-7.8-16.5c9.5-5.9,12.7-13,10.1-22.9c-1.2-4.8-4.1-8.4-9.3-9.5c-5.1-1.1-9.2,0.6-12.1,4.8
				c-2.9,4.1-5.5,8.5-8.4,13.1c-6.9-3.5-13.7-5.8-20.6-7h-23.3c-6.5,1.2-13.2,3.4-19.7,6.5c-5-13.1-11.9-18.5-22.1-18.1
				c-9,0.4-17,6.5-18.8,15.5c-0.8,4-1.1,9.2,0.8,12.4c3.6,5.6,9.1,9.9,14.2,15.3c-1.8,3.2-3.3,6.4-4.5,9.6l-2.9,10.8v25.8
				c1.2,5.6,3.2,10.8,5.6,15.6l0,0l14.4,19.1c0.6,0.6,1.2,1.1,1.8,1.6c6.9,5.9,14.3,10.1,21.9,12.6h36.7c10.1-3,20.6-8.4,31.4-16
				c0.1,0.4,0.5,0.7,0.4,1.1c-7.3,21.2-17.6,39.7-40.2,48.2c-1.5,0.5-3.3,2.7-3.3,4c-0.2,13.8-0.4,27.6,0,41.3l2.9,10.5
				c1.9,1.7,4.7,2.5,8.5,2.7c6.9,0.1,13.8,0.1,20.7,0c7.4,0,11.3-1.3,13.1-5.3l1.5-16c0-10.5-0.1-21.1,0.1-31.6
				c0.2-9.1,5.1-13.7,14.2-14.1c5.9-0.2,11.8-0.4,17.7,0.1c2.7,0.2,5.2,2.1,7.8,3.3c-1.8,2.2-3.3,4.6-5.5,6.4
				c-6.2,4.8-13.4,8.6-18.7,14.3c-2.1,2.3-3.5,4.7-4.6,7.1v18.7c0.5,1.3,1,2.5,1.6,3.8c4.5,9.8,13.3,13.1,23.5,13.2c3,0,5.9,0,9,0
				l27.7-4c4.7-2.9,8.6-7.1,11.5-12.8c2.3-4.4,4.1-8.7,5.3-13.3v-33.2C507.3,290.6,499.6,275.9,489.1,263.8z M359,218.7
				c-0.8-0.7-3-5-3-6.3c0-1,0.1-1.9,0.5-2.8c0.4-0.8,2.2-3.2,2.5-3.5c1.3-1.1,3.2-1.7,5-1.7c2.8,0,5.2,1.3,6.7,3.4
				c1,1.3,1.1,7.3,0.6,8.4c-0.7,1.5-1.8,2.5-3.2,3.4C367,220.2,360.3,219.9,359,218.7z M416.8,234.9c-1.6,4.1-6.2,8.6-15,13.6
				c-0.8,0.5-1.7,0.8-2.4,1.1H394l-9.1-4.1c-1.3-1-2.8-1.9-4.1-3c-1.9-1.7-3.9-3.6-5.2-6.1c0-0.1-0.1-0.1-0.1-0.2v-12.5
				c0.8-2.7,2.8-6.3,3.8-8.7l5.8-1.8c2.2,0.2,4.8,0.8,7.6,1.2L409,220c1.9,1.2,3.8,2.5,5.2,4c1.2,1.2,2.1,2.5,2.7,4v6.9H416.8z"/>
		</g>
		<path d="M357.8,308.4c-4.1-1.3-8.2-3.6-11.6-6.4c-8.6-6.8-16.8-13.9-25.2-21l-1.5,12.7c0,19.1,0,38.2,0,57.3l2.7,15
			c1.8,1.8,4.6,2.8,8.5,2.9c6.9,0.2,13.8,0.1,20.7,0.1c2.4,0,4.4-0.2,6.1-0.7l6.1-6.1l0.8-17.7c0-8.5-0.1-17,0.1-25.4
			C364.7,313.7,363.5,310.3,357.8,308.4z"/>
		<path class="st6" d="M355.9,212.4"/>
		<path d="M399.7,238.7l5.5-1c3.2-1.3,5.3-3.8,5.1-6.4c0-0.4-0.1-0.7-0.1-1l-2.2-3.8c-1.9-1.6-4.8-1.8-7.5-1.8c-1.5,0-3,0-4.4,0.2
			l-4.4,2.2c-0.7,0.8-1.3,2.1-1.6,3.6c-0.1,1,0,1.9,0.4,2.9l5,4.2C396.7,238.3,398.1,238.7,399.7,238.7
			C399.6,238.7,399.6,238.7,399.7,238.7z"/>
	</g>
	<path d="M378.4,229.1"/>
	<path class="st6" d="M396.5,211.1c-0.8-0.7-3-5-3-6.3c0-1,0.1-1.9,0.5-2.8s2.2-3.2,2.5-3.5c1.3-1.1,3.2-1.7,5-1.7
		c2.8,0,5.2,1.3,6.7,3.4c1,1.3,1.1,7.3,0.6,8.4c-0.7,1.5-1.8,2.5-3.2,3.4C404.5,212.4,397.9,212.2,396.5,211.1z"/>
	<path class="st7" d="M310.7,196.3c-5.3-4.2-10.2-6.1-12.1-4.5c-1.5,1-1.6,3.6-0.6,5.6c2.4,4.6,12,3.8,12,5.2
		c0,1.7-11.6,2.7-11.9,5.1c-0.1,1.2,2.8,2.4,5.6,3.3c3.4,1.1,6.3-0.7,6.5-0.2c0.5,1-9,5.1-8.5,6.8c0.2,0.8,2.7,1.1,10.4,0.1
		c0.7-0.1-9.5,2.1-9.8,4.8c-0.2,1.5,2.2,3.3,4.6,3.5c3.5,0.5,7.1-2.3,7-2.4c-0.1-0.2-6.3,1.5-9.8,5.8c-0.4,0.4-2.5,3-1.7,4.1
		c1,1.2,5.8-0.4,9.1-2.5c2.2-1.3,3.6-2.9,4.5-4c0.1-0.1-2.5,1.9-12.5,10.9c-1.2,1.1,3.2,2.3,5.2,2.1c3-0.2,5.8-2.8,5.6-3
		c-0.2-0.4-6.3,1.5-8.6,5.6c-0.2,0.4-1.3,2.5-0.5,3.4c1,1.1,4.1,0,6.1-1c2.1-1.1,3.6-2.8,3.5-3c-0.2-0.4-6.4,3.3-9.5,8.7
		c-0.7,1.3-0.8,2.1-0.6,2.5c0.8,1.1,4.6-0.1,7.1-1.5c2.7-1.6,4.2-3.6,5-4.8c0.1-0.2-2.7,1.9-11.6,10.8c-0.7,0.7-1.5,1.7-1.2,2.1
		c0.5,0.8,4.1,0,6.5-1c1.7-0.7,4.5-2.2,7-5.5"/>
	<path class="st7" d="M428.3,183.8c4-5.6,8-8.6,10.4-7.8c1.7,0.6,2.5,3,2.2,5.1c-1,5.1-10.5,6.9-10.1,8.4c0.5,1.6,11.9-0.7,12.8,1.5
		c0.5,1.1-2.1,3.2-4.4,4.6c-3,1.9-6.2,1.1-6.3,1.7c-0.1,1.1,10.1,2.4,10.1,4.1c0,0.8-2.3,1.8-9.9,3c-0.7,0.1,9.7-0.7,10.8,1.8
		c0.6,1.3-1.2,3.8-3.4,4.7c-3.3,1.5-7.5-0.1-7.5-0.4s6.5-0.4,11.1,2.8c0.5,0.2,3.3,2.3,2.8,3.4c-0.6,1.5-5.7,1.2-9.5,0.1
		c-2.4-0.7-4.2-1.7-5.5-2.5c-0.1-0.1,3,1.1,15.1,6.9c1.6,0.7-2.4,3-4.4,3.5c-3,0.6-6.3-1-6.2-1.3c0.1-0.5,6.5-0.4,9.8,2.9
		c0.4,0.4,1.9,2.1,1.5,3.2c-0.6,1.3-4,1.2-6.1,0.7c-2.3-0.5-4.4-1.7-4.2-1.9c0.1-0.4,7.1,1.3,11.5,5.7c1.1,1.1,1.5,1.8,1.2,2.3
		c-0.5,1.2-4.5,1.2-7.3,0.6c-3-0.7-5.1-2.3-6.2-3.3c-0.2-0.1,3.2,1.1,14.2,7c1,0.5,1.9,1.1,1.8,1.7c-0.2,1-4,1.2-6.7,0.8
		c-1.8-0.2-4.8-0.8-8.4-3.2"/>
</g>
<g>
	<g>
		<path class="st8" d="M249.6,133.2c-4,6.3-9,12-14.2,17.3c-0.9,0.9-1.8,1.7-2.7,2.6c-0.4-1.6-1.2-3.1-1.6-4.6
			c-0.9-3.3-0.9-6.5-1.3-9.8c0-0.3-0.3-0.7-0.6-0.8c-2.4-0.8-2,3.6-2,4.7c0.1,2.1,0.2,4,0.4,6c0.1,1,0.4,2.2,0.6,3.4
			c0.1,1.5,0.6,3,0.8,4.5v0.1c-6.8,6.3-13.7,12.5-19,20.2c-0.1,0.2-0.4,0.2-0.5,0.1c-3.6-3.2-6-7.8-8.1-12.1
			c-1.7-3.6-1.7-7.9-3.9-11.3c-1,0.2-1.9,0.7-2.5,1.6c0.2,0.7,0.3,1.3,0.5,2c0.8,2.4,1.7,4.8,2.6,7.2c-1.4-0.2-2.8-0.8-4.1-1.2
			c-1.8-0.6-3.8-1-5.4-1.9c-1-0.6-1.7-0.2-1.7,0.9c0,1.2,2.9,2.3,3.8,2.7c0.6,0.3,1.3,0.6,1.9,0.9c2.3,1.1,5,1.9,7.2,2.7
			c1.7,3.7,3.9,7.3,5,11.2c1,3.6,1.3,7,0.6,10.7c-0.9,4.5-4.1,8.5-6.4,12.4c-2,3.3-3.9,6.6-5.4,10.2c-0.7,1.8-1.4,3.6-2.1,5.3l0,0
			c-0.2,0.9,0,1.7,0.4,2.3c1.2,1.2,2.4,2.2,2.7,2.5c0.5,0.4,1.1,0.8,1.7,1.1c0.2,0.1,0.4,0.1,0.7,0.2c1.6,0.4,2.8,0.1,3.9-0.6
			c5.2-6.8,8.3-14.9,10.5-23.1c1.3-4.9,2.4-9.8,3.7-14.7c1.1-3.8,2.7-7.3,5-10.5c2.4-4.5,5.7-8.3,9.1-12.3c4.3-5,8.6-9.9,12.9-14.8
			c2.2-2.6,4.4-5.2,6.4-7.9c1.1-1.5,2.3-3.9,3.8-5.3C251.7,134.2,250.7,133.5,249.6,133.2z"/>
		<path class="st8" d="M199.3,166.1c-0.4-0.7-0.8-1.2-1.3-1.8c-1.3-0.2-2.7-0.7-3.9-1.1c-1.8-0.6-3.8-1-5.4-1.9
			c-0.8-0.5-1.5-0.3-1.7,0.5C191,163.2,194.9,165.4,199.3,166.1z"/>
		<path class="st8" d="M197.6,158.6c0.8,2.7,1.8,5.3,3.1,7.8c1.3,2.4,2.8,4.5,4.3,6.7c1.3,1.9,2.7,3.9,4.6,5.3c0-0.5,0.1-1,0.1-1.4
			c-0.1,0-0.2,0-0.3-0.1c-3.6-3.2-6-7.8-8.1-12.1c-1.7-3.6-1.7-7.9-3.9-11.3c-0.4,0.1-0.8,0.2-1.1,0.4
			C196.9,155.4,197.1,157.1,197.6,158.6z"/>
		<path class="st8" d="M230.8,154c0.7,1.2,1.5,0.2,2-1l0,0c-0.4-1.6-1.2-3.1-1.6-4.6c-0.9-3.3-0.9-6.5-1.3-9.8
			c0-0.3-0.3-0.7-0.6-0.8c-0.4-0.1-0.7-0.1-0.9,0c-0.1,4,0.3,8.1,1.2,12C229.8,151.2,230.1,152.8,230.8,154z"/>
		<path class="st8" d="M249.8,134.9c-2.9,4.2-5.6,8.5-8.8,12.3c-3.3,4-7,7.6-10.7,11.3c-1.7,1.7-3.6,3.4-5.1,5.3
			c-0.8,1.1-1.6,2.2-2.5,3.1c-8.4,9.2-12.1,21.2-15.1,33c-2.1,8.4-4.5,18.6-12.1,23.8c0.2,0.2,0.5,0.3,0.7,0.4
			c0.2,0.1,0.4,0.1,0.6,0.2c1.6,0.4,2.8,0.1,3.9-0.6c5.2-6.8,8.3-14.9,10.5-23.1c1.3-4.9,2.4-9.8,3.7-14.7c1.1-3.8,2.7-7.3,5-10.5
			c2.4-4.5,5.7-8.3,9.1-12.3c4.3-5,8.6-9.9,12.9-14.8c2.2-2.6,4.4-5.2,6.4-7.9c1.1-1.5,2.3-3.9,3.8-5.3c-0.3-0.6-0.9-1.2-1.5-1.5
			C250.4,134.1,250.1,134.5,249.8,134.9z"/>
	</g>
	<path class="st9" d="M193.2,165.5c-1.9-0.9-3.9-1.6-5.7-2.6l0,0c1.5,1.1,3.2,1.7,4.8,2.5c2.1,1,4.4,2,6.7,2.5c0.1,0,0.1-0.1,0-0.1
		C197.1,167.2,195.1,166.4,193.2,165.5z"/>
	<path class="st9" d="M195.5,155.1c0.8,3.2,1.5,6.7,3.2,9.6h0.1C197.3,161.6,196.5,158.3,195.5,155.1
		C195.5,155.1,195.4,155.1,195.5,155.1z"/>
	<path class="st9" d="M205.8,182c0.4,1.9,1.1,3.6,0.8,5.7c-0.3,2-0.8,4.3-1.8,6.1c-1.6,3.1-3,6.1-4.8,9.1c-1.8,2.9-3.5,5.9-5,9
		c-1.2,2.4-2.8,5.3-2.8,7.9c0,0-0.1-0.1-0.1,0v0.1c0,0,0.1,0.1,0.1,0c2.4-6.8,6-12.8,9.7-19c1.7-2.9,3.2-6,4.3-9.2
		c0.5-1.4,0.9-3.1,0.8-4.5C206.9,185.3,206.3,183.7,205.8,182C205.8,181.9,205.8,181.9,205.8,182z"/>
	<path class="st9" d="M228.9,157.9c-3.5,2.5-6.9,5.7-9.8,8.9c-1.6,1.7-3.2,3.2-4.6,5c-1.6,2-2.6,4.1-4,6.2l0,0
		c1.4-1.7,2.5-3.6,3.9-5.4c1.5-1.9,3.2-3.7,4.9-5.5C222.4,163.9,225.6,160.9,228.9,157.9C229,158,228.9,157.9,228.9,157.9z"/>
	<path class="st9" d="M227.7,141.1c0,2.3,0,4.5,0.2,6.8c0.3,2.5,0.5,5.4,1.4,7.8c0,0.1,0.1,0.1,0.1,0
		C228.6,150.9,227.9,146,227.7,141.1L227.7,141.1z"/>
	<path class="st9" d="M247,137.9c-2.1,2.6-4.2,5.3-6.4,7.8c-1.8,2-3.6,4.4-5.7,6.1l0,0c2.3-1.7,4.2-4.2,6.2-6.3
		C243.2,143.2,245.2,140.6,247,137.9C247.1,138,247,137.9,247,137.9z"/>
</g>
<g>
	<path class="st10" d="M518.8,301.2c-0.7,1.5-0.9,3.4-1.2,4.7c-1.4,6.6-3.1,13.5-5.5,20.3c-4.3,11.8-11.8,23.9-20.4,34.8
		c-1.2-5-1.2-10.9-1-16.5c0.1-4,0.8-8.4,1.5-12.7c0.3-2.1,0.6-4.2,1.3-6.4c0-0.1,0.1-0.2,0.1-0.3c-1,0.4-2,1.1-2.9,2
		c-0.3,0.4-0.5,0.9-0.7,1.4c-2,4.4-2.9,8.8-3.6,12.9c-0.6,3.7-0.8,7.1-0.8,10.5c0,3.3,0.1,7.1-0.4,11.1c-0.5,4.5-1.9,9.3-5.1,13.9
		c-5.3,7.7-12.5,13.8-19.9,18.2c-3.5,2-6.9,3.4-10.4,5.2c-1.2,0.8-2.5,1.7-3.6,2.7c2.3,2.3,4.7,4.4,7,6.6c0.6,0.6,1.3,1.2,1.9,1.8
		c2.8-1.2,5.6-2.5,8.3-4.1c2.4-1.8,4.9-3.8,7.3-5.8c5.9-4.9,10.7-10.4,15.5-16.4c5.4-6.8,10.3-14.2,14.6-21.7c0,0,0.1,0,0.2-0.1
		c1.7-2.8,3.2-5.8,4.6-8.7c8.5-18.7,14.9-37.5,15.8-54.5C520.4,300.2,519.6,300.6,518.8,301.2z"/>
	<path class="st10" d="M492.3,325.7c-0.1,0.7-0.3,1.3-0.5,2c-0.5,1.7-1.1,3.5-1.4,5.2c-0.9,4.8-1.4,9.6-1.7,14.3
		c-0.2,4.1,0,7.8,0.3,11.7c0.2,3,0.3,6.1-0.6,9.6c1.7-2.1,2.8-4.5,3.4-6.8c0-0.3,0-0.5,0-0.8c0,0.1-0.1,0.1-0.1,0.2
		c-1.2-5-1.2-10.9-1-16.5c0.1-4,0.8-8.4,1.5-12.7c0.3-2.1,0.6-4.2,1.3-6.4c0-0.1,0.1-0.2,0.1-0.3
		C493.1,325.2,492.7,325.4,492.3,325.7z"/>
	<path class="st10" d="M513.2,329.5c-2.7,8-6.3,16-10.4,23.9c-4.2,8.1-8.8,16.3-14.4,24.1c-5.2,7.2-11.6,14.4-18.6,19.7
		c-3.5,2.6-7.1,4.8-10.8,6.6c-2.7,1.3-5.4,2.4-8.1,3.7c0.7,0.7,1.5,1.3,2.2,2c0.6,0.6,1.3,1.2,1.9,1.8c2.8-1.2,5.6-2.5,8.3-4.1
		c2.4-1.8,4.9-3.8,7.3-5.8c5.9-4.9,10.7-10.4,15.5-16.4c5.4-6.8,10.3-14.2,14.6-21.7c0,0,0.1,0,0.2-0.1c1.7-2.8,3.2-5.8,4.6-8.7
		c8.5-18.7,14.9-37.5,15.8-54.5c-0.3,0.1-0.7,0.2-1,0.4C519.4,309.6,516.5,319.6,513.2,329.5z"/>
	<path class="st11" d="M490.4,328.5c-2.9,7.6-4,14.2-4.5,21.2c-0.6,7.4,1.4,13.6-2.1,22c0,0.1,0,0.2,0.1,0.1
		c3.3-6.9,2.9-13.2,2.6-19c-0.3-7.3,1.3-16,4-24.2C490.6,328.4,490.5,328.3,490.4,328.5z"/>
	<path class="st11" d="M482.2,374.9c-4.9,7.4-10.5,13-17.4,18.2c-2.6,1.9-5.4,3.4-8.1,4.5c-2.9,1.2-5.7,2.8-8.6,4.7v0.1
		c6.1-2.5,12.1-5.1,18-9.3c6.4-4.5,12.4-11.3,16.2-18C482.3,374.9,482.3,374.8,482.2,374.9z"/>
	<path class="st11" d="M517,311.8c-1,3.6-1.6,7.1-2.9,10.8c-1.5,4.2-3.4,8.3-5.3,12.5c-1.9,4.3-4.6,8.9-7.4,13
		c-1.3,1.8-2.5,3.7-3.8,5.5c-1.4,2.1-2.8,4.6-4.5,6.5v0.1c3.1-2.9,5.8-7.4,8.1-10.9c2.9-4.2,5.6-8.8,7.7-13.2
		c1.8-3.9,3.6-7.8,5-11.7c1.6-4.4,2.5-8.5,3.2-12.7C517.2,311.6,517.1,311.6,517,311.8z"/>
</g>
<g>
	<g>
		<path class="st8" d="M480.7,390.9c-7,2.6-14.4,4-21.8,5c-1.2,0.2-2.5,0.3-3.7,0.4c0.6-1.5,0.9-3.2,1.5-4.6c1.3-3.1,3.3-5.7,5-8.6
			c0.2-0.3,0.2-0.7,0-1c-1.5-2.1-3.8,1.6-4.5,2.5c-1.2,1.7-2.3,3.2-3.4,5c-0.5,0.8-1.1,2-1.6,3.1c-0.8,1.2-1.4,2.7-2.1,4l-0.1,0.1
			c-9.2,0.9-18.5,1.5-27.4,4.5c-0.2,0.1-0.4,0-0.5-0.3c-0.9-4.8,0-9.8,0.9-14.5c0.8-3.9,3.5-7.4,3.8-11.3c-1-0.5-1.9-0.6-2.9-0.3
			c-0.3,0.6-0.6,1.2-0.8,1.9c-0.8,2.4-1.6,4.9-2.4,7.3c-1-1-1.7-2.3-2.5-3.4c-1.1-1.5-2.4-3.1-3.1-4.8c-0.4-1-1.2-1.2-1.9-0.4
			c-0.7,0.9,0.9,3.6,1.3,4.4c0.3,0.6,0.6,1.2,1,1.9c1.1,2.3,2.7,4.6,4.1,6.5c-0.9,4-1.4,8.1-2.9,11.9c-1.4,3.5-3.3,6.4-6.1,8.8
			c-3.5,3-8.5,4.3-12.7,5.9c-3.6,1.4-7.1,2.9-10.5,4.8c-1.7,0.9-3.3,2-4.9,3l0,0c-0.7,0.6-1,1.3-1.1,2.1c0.2,1.6,0.5,3.2,0.6,3.6
			c0.2,0.7,0.4,1.3,0.7,1.9c0.1,0.2,0.3,0.4,0.4,0.6c1,1.3,2.2,1.8,3.5,1.9c8.2-2.2,15.6-6.8,22.5-11.9c4-3,7.8-6.3,11.9-9.4
			c3.2-2.4,6.6-4.1,10.4-5.3c4.6-2.1,9.5-3.1,14.7-4.2c6.4-1.4,12.8-2.6,19.3-3.9c3.3-0.7,6.6-1.4,9.9-2.4c1.8-0.5,4.2-1.7,6.2-1.9
			C481.6,393,481.3,391.8,480.7,390.9z"/>
		<path class="st8" d="M420.7,386.3c0.1-0.8,0.1-1.5,0-2.2c-0.9-1-1.6-2.2-2.4-3.3c-1.1-1.5-2.4-3.1-3.1-4.8c-0.4-0.9-1-1.2-1.6-0.6
			C415.9,379,417.7,383.1,420.7,386.3z"/>
		<path class="st8" d="M423.9,379.3c-1,2.6-1.8,5.3-2.3,8.1c-0.4,2.6-0.6,5.3-0.7,7.9c-0.1,2.3-0.3,4.8,0.4,7c0.3-0.4,0.7-0.7,1-1
			c-0.1,0-0.1-0.1-0.2-0.2c-0.9-4.8,0-9.8,0.9-14.5c0.8-3.9,3.5-7.4,3.8-11.3c-0.4-0.2-0.8-0.3-1.1-0.4
			C425.3,376.4,424.5,377.8,423.9,379.3z"/>
		<path class="st8" d="M453.1,396c-0.1,1.4,1.1,1.1,2.2,0.4c0,0,0,0-0.1,0c0.6-1.5,0.9-3.2,1.5-4.6c1.3-3.1,3.3-5.7,5-8.6
			c0.2-0.3,0.2-0.7,0-1s-0.5-0.5-0.7-0.6c-2.5,3.1-4.7,6.6-6.4,10.2C454,393.1,453.2,394.5,453.1,396z"/>
		<path class="st8" d="M479.8,392.4c-4.8,1.6-9.6,3.3-14.5,4.4c-5.1,1.1-10.2,1.8-15.4,2.5c-2.4,0.3-4.9,0.5-7.3,1.1
			c-1.3,0.3-2.6,0.7-3.9,0.9c-12.3,2.2-22.5,9.4-32.1,16.9c-6.8,5.3-14.9,12-24.1,11.5c0.1,0.3,0.2,0.5,0.3,0.8
			c0.1,0.2,0.2,0.3,0.4,0.5c1,1.3,2.2,1.8,3.5,1.9c8.2-2.2,15.6-6.8,22.5-11.9c4-3,7.8-6.3,11.9-9.4c3.2-2.4,6.6-4.1,10.4-5.3
			c4.6-2.1,9.5-3.1,14.7-4.2c6.4-1.4,12.8-2.6,19.3-3.9c3.3-0.7,6.6-1.4,9.9-2.4c1.8-0.5,4.2-1.7,6.2-1.9c0.1-0.7,0-1.4-0.2-2.1
			C480.7,392.1,480.3,392.3,479.8,392.4z"/>
	</g>
	<path class="st12" d="M416.2,382.1c-1-1.9-2.1-3.7-2.9-5.6l0,0c0.5,1.8,1.4,3.3,2.3,4.9c1.1,2.1,2.3,4.3,3.8,6.1c0,0,0.1,0,0.1-0.1
		C418.3,385.8,417.2,384,416.2,382.1z"/>
	<path class="st12" d="M424.4,375.3c-1.3,3-2.9,6.2-3.3,9.5c0,0.1,0.1,0.1,0.1,0C421.9,381.5,423.2,378.4,424.4,375.3
		C424.4,375.2,424.4,375.2,424.4,375.3z"/>
	<path class="st12" d="M416.2,402.8c-0.8,1.8-1.4,3.5-2.8,5c-1.4,1.4-3.3,2.9-5.1,3.8c-3.1,1.5-6.2,3-9.4,4.3
		c-3.2,1.3-6.4,2.5-9.5,4c-2.4,1.2-5.4,2.5-7,4.6v-0.1l-0.1,0.1v0.1c6-3.9,12.6-6.5,19.2-9.2c3.1-1.3,6.2-2.8,9-4.7
		c1.2-0.8,2.6-1.9,3.4-3.1C415,406.2,415.5,404.5,416.2,402.8C416.3,402.8,416.2,402.8,416.2,402.8z"/>
	<path class="st12" d="M449.2,397.9c-4.3-0.2-8.9,0.3-13.2,1c-2.2,0.4-4.5,0.6-6.7,1.1c-2.4,0.6-4.6,1.6-6.9,2.5l0,0
		c2.1-0.5,4.2-1.4,6.4-1.9c2.4-0.6,4.8-1,7.2-1.4C440.4,398.5,444.8,398.1,449.2,397.9C449.2,398,449.2,397.9,449.2,397.9z"/>
	<path class="st12" d="M458.5,383.8c-1.4,1.8-2.8,3.6-4,5.6c-1.3,2.2-2.9,4.6-3.7,7c0,0.1,0.1,0.1,0.1,0.1
		C453.2,392.1,455.6,387.9,458.5,383.8L458.5,383.8z"/>
	<path class="st12" d="M475.6,393.1c-3.3,0.8-6.5,1.6-9.8,2.2c-2.7,0.5-5.5,1.3-8.2,1.4l0,0c2.9,0.1,5.9-0.7,8.8-1.2
		c3.1-0.5,6.3-1.3,9.3-2.2C475.7,393.2,475.7,393.1,475.6,393.1z"/>
</g>
<g>
	<g>
		<path class="st13" d="M525,246.3c-1.3,7.3-1.6,14.9-1.3,22.3c0,1.2,0.1,2.5,0.2,3.7c1.4-0.9,3-1.5,4.3-2.3
			c2.9-1.8,5.1-4.2,7.6-6.4c0.2-0.2,0.7-0.3,1-0.2c2.3,1.1-1,4-1.7,4.8c-1.5,1.5-2.8,2.8-4.4,4.2c-0.7,0.7-1.8,1.4-2.8,2.1
			c-1.1,1-2.5,1.8-3.6,2.8l-0.1,0.1c0.7,9.2,1.6,18.5,0.2,27.7c0,0.2,0.1,0.4,0.3,0.4c4.8,0.1,9.7-1.6,14.1-3.4
			c3.7-1.5,6.7-4.6,10.5-5.7c0.6,0.9,0.9,1.8,0.8,2.9c-0.6,0.4-1.1,0.8-1.7,1.1c-2.2,1.2-4.5,2.4-6.8,3.6c1.1,0.8,2.5,1.3,3.8,1.9
			c1.7,0.8,3.4,1.9,5.3,2.3c1.1,0.2,1.4,1,0.7,1.8c-0.8,0.9-3.7-0.3-4.6-0.6c-0.6-0.2-1.3-0.4-2-0.7c-2.5-0.7-5-1.9-7.1-2.9
			c-3.8,1.6-7.8,2.7-11.3,4.9c-3.2,1.9-5.7,4.3-7.6,7.5c-2.4,3.9-2.8,9.1-3.7,13.5c-0.8,3.8-1.7,7.5-3,11.1
			c-0.6,1.8-1.4,3.6-2.1,5.3l0,0c-0.5,0.8-1.1,1.2-1.9,1.4c-1.6,0.1-3.3,0-3.6,0c-0.7,0-1.4-0.2-2-0.3c-0.2-0.1-0.4-0.2-0.6-0.3
			c-1.5-0.8-2.2-1.9-2.4-3.1c0.8-8.5,4-16.6,8-24.1c2.3-4.5,4.9-8.8,7.2-13.3c1.8-3.5,2.9-7.2,3.4-11.1c1.3-4.9,1.5-9.9,1.7-15.2
			c0.3-6.6,0.4-13.1,0.6-19.6c0.1-3.4,0.3-6.8,0.7-10.1c0.2-1.9,1-4.4,0.8-6.4C522.8,245.7,524,245.8,525,246.3z"/>
		<path class="st13" d="M539.7,304.6c0.7-0.2,1.5-0.3,2.2-0.4c1.1,0.8,2.5,1.3,3.7,1.8c1.7,0.8,3.4,1.9,5.3,2.3
			c0.9,0.2,1.3,0.8,0.9,1.5C547.7,308.1,543.4,307,539.7,304.6z"/>
		<path class="st13" d="M546,300.3c-2.4,1.5-4.9,2.6-7.6,3.6c-2.5,0.9-5.1,1.4-7.7,2c-2.3,0.5-4.6,1.1-7,0.8
			c0.3-0.4,0.6-0.8,0.9-1.2c0.1,0.1,0.1,0.1,0.2,0.1c4.8,0.1,9.7-1.6,14.1-3.4c3.7-1.5,6.7-4.6,10.5-5.7c0.2,0.3,0.4,0.7,0.6,1.1
			C548.7,298.4,547.4,299.4,546,300.3z"/>
		<path class="st13" d="M524.7,274.3c-1.3,0.4-1.2-0.9-0.8-2.1c0,0,0,0,0,0.1c1.4-0.9,3-1.5,4.3-2.3c2.9-1.8,5.1-4.2,7.6-6.4
			c0.2-0.2,0.7-0.3,1-0.2c0.4,0.2,0.6,0.4,0.7,0.6c-2.7,3-5.7,5.8-9,8.1C527.4,272.9,526.1,274,524.7,274.3z"/>
		<path class="st13" d="M523.7,247.4c-0.7,5-1.6,10-1.9,15.1c-0.2,5.2,0,10.4,0.2,15.6c0.1,2.4,0.3,4.9,0.1,7.4
			c-0.1,1.3-0.3,2.6-0.3,4c-0.1,12.5-5.5,23.8-11.3,34.5c-4.1,7.6-9.3,16.7-7.2,25.7c-0.3-0.1-0.6-0.1-0.8-0.2
			c-0.2-0.1-0.4-0.2-0.6-0.3c-1.5-0.8-2.2-1.9-2.4-3.1c0.8-8.5,4-16.6,8-24.1c2.3-4.5,4.9-8.8,7.2-13.3c1.8-3.5,2.9-7.2,3.4-11.1
			c1.3-4.9,1.5-9.9,1.7-15.2c0.3-6.6,0.4-13.1,0.6-19.6c0.1-3.4,0.3-6.8,0.7-10.1c0.2-1.9,1-4.4,0.8-6.4c0.7-0.2,1.4-0.3,2.1-0.1
			C523.8,246.4,523.8,246.9,523.7,247.4z"/>
	</g>
	<path class="st14" d="M544.6,308.3c2,0.6,4,1.5,6,1.9l0,0c-1.8-0.2-3.5-0.9-5.3-1.4c-2.3-0.7-4.6-1.6-6.6-2.8c-0.1,0,0-0.1,0.1-0.1
		C540.6,306.9,542.6,307.7,544.6,308.3z"/>
	<path class="st14" d="M550,299.1c-2.8,1.8-5.6,3.9-8.8,4.9c-0.1,0-0.1,0,0-0.1C544.2,302.6,547.1,300.8,550,299.1L550,299.1z"/>
	<path class="st14" d="M524.2,311.9c-1.6,1.1-3.3,1.9-4.5,3.6s-2.3,3.7-2.8,5.7c-0.9,3.3-1.9,6.6-2.6,10c-0.7,3.4-1.4,6.7-2.4,10
		c-0.7,2.5-1.5,5.8-3.4,7.7h0.1l-0.1,0.1h-0.1c2.9-6.6,4.2-13.5,5.8-20.5c0.7-3.3,1.7-6.6,3.1-9.7c0.6-1.3,1.4-2.9,2.4-3.9
		C521,313.6,522.6,312.8,524.2,311.9C524.2,311.8,524.2,311.8,524.2,311.9z"/>
	<path class="st14" d="M523.5,278.5c0.9,4.2,1.2,8.8,1.2,13.2c0,2.3,0.2,4.5,0,6.8c-0.2,2.5-0.9,4.8-1.3,7.2l0,0
		c0.1-2.2,0.6-4.4,0.8-6.6c0.1-2.4,0.2-4.9,0.1-7.4c-0.1-4.5-0.4-8.8-0.9-13.3C523.4,278.5,523.5,278.4,523.5,278.5z"/>
	<path class="st14" d="M535.7,267c-1.5,1.7-3.1,3.3-4.8,4.9c-1.9,1.7-4,3.6-6.3,4.8c-0.1,0-0.2,0-0.1-0.1
		C528.5,273.5,532.2,270.4,535.7,267C535.7,266.9,535.8,266.9,535.7,267z"/>
	<path class="st14" d="M523.7,251.6c-0.2,3.4-0.5,6.7-0.5,10.1c0,2.7-0.4,5.6,0,8.3l0,0c-0.6-2.9-0.3-6-0.3-8.9
		c0-3.2,0.2-6.4,0.6-9.5C523.6,251.5,523.7,251.5,523.7,251.6z"/>
</g>
<g>
	<g>
		<path class="st10" d="M461,110.3c4.1,6.2,9.2,11.8,14.5,17c0.9,0.9,1.8,1.7,2.7,2.6c0.4-1.6,1.2-3.1,1.5-4.6
			c0.9-3.3,0.8-6.5,1.1-9.9c0-0.3,0.2-0.7,0.6-0.8c2.4-0.8,2.1,3.6,2.1,4.7c0,2.1-0.1,4-0.2,6.1c-0.1,1-0.4,2.3-0.5,3.4
			c-0.1,1.5-0.5,3-0.7,4.5v0.1c6.9,6.2,13.9,12.2,19.3,19.9c0.1,0.2,0.4,0.2,0.5,0.1c3.6-3.3,5.9-7.9,7.9-12.2
			c1.7-3.6,1.6-8,3.7-11.4c1,0.2,1.9,0.7,2.5,1.5c-0.1,0.7-0.3,1.3-0.4,2c-0.8,2.4-1.6,4.9-2.5,7.3c1.4-0.2,2.7-0.8,4.1-1.3
			c1.8-0.6,3.8-1,5.4-2c0.9-0.6,1.7-0.3,1.7,0.8c0,1.2-2.9,2.4-3.7,2.8c-0.6,0.3-1.2,0.6-1.9,0.9c-2.3,1.2-4.9,2-7.1,2.8
			c-1.6,3.8-3.7,7.3-4.8,11.3c-1,3.6-1.1,7.1-0.4,10.7c1,4.5,4.3,8.5,6.7,12.3c2.1,3.3,4,6.6,5.6,10.1c0.8,1.7,1.5,3.5,2.2,5.3l0,0
			c0.2,0.9,0,1.7-0.4,2.3c-1.1,1.2-2.4,2.3-2.6,2.5c-0.5,0.4-1.1,0.8-1.7,1.2c-0.2,0.1-0.4,0.2-0.7,0.2c-1.6,0.4-2.8,0.2-3.9-0.5
			c-5.3-6.7-8.5-14.7-11-22.9c-1.4-4.8-2.5-9.8-4-14.6c-1.1-3.8-2.9-7.3-5.2-10.4c-2.5-4.5-5.8-8.2-9.3-12.1
			c-4.3-4.9-8.8-9.7-13.2-14.6c-2.3-2.5-4.5-5.1-6.5-7.8c-1.2-1.5-2.4-3.9-3.9-5.2C459,111.4,460,110.6,461,110.3z"/>
		<path class="st10" d="M512,142.3c0.4-0.7,0.8-1.2,1.3-1.8c1.3-0.2,2.6-0.8,3.9-1.2c1.8-0.6,3.8-1,5.4-2c0.8-0.5,1.5-0.3,1.7,0.5
			C520.2,139.2,516.3,141.4,512,142.3z"/>
		<path class="st10" d="M513.6,134.8c-0.7,2.7-1.7,5.3-3,7.8c-1.2,2.4-2.7,4.6-4.2,6.8c-1.3,1.9-2.6,4-4.5,5.4c0-0.5-0.1-1-0.2-1.4
			c0.1,0,0.2,0,0.3-0.1c3.6-3.3,5.9-7.9,7.9-12.2c1.7-3.6,1.6-8,3.7-11.4c0.4,0.1,0.8,0.2,1.2,0.4
			C514.1,131.6,514,133.2,513.6,134.8z"/>
		<path class="st10" d="M480.2,130.8c-0.7,1.2-1.5,0.2-2-1c0,0,0,0,0.1,0c0.4-1.6,1.2-3.1,1.5-4.6c0.9-3.3,0.8-6.5,1.1-9.9
			c0-0.3,0.2-0.7,0.6-0.8c0.4-0.1,0.7-0.1,0.9,0c0.2,4-0.1,8.1-0.9,12.1C481.2,127.9,480.9,129.5,480.2,130.8z"/>
		<path class="st10" d="M460.9,112c2.9,4.1,5.7,8.4,9.1,12.2c3.4,3.9,7.2,7.5,10.9,11.1c1.7,1.7,3.6,3.4,5.2,5.2
			c0.8,1,1.6,2.1,2.5,3.1c8.6,9.1,12.5,20.9,15.7,32.7c2.3,8.3,4.9,18.5,12.6,23.6c-0.2,0.2-0.5,0.3-0.7,0.4
			c-0.2,0.1-0.4,0.1-0.6,0.2c-1.6,0.4-2.8,0.2-3.9-0.5c-5.3-6.7-8.5-14.7-11-22.9c-1.4-4.8-2.5-9.8-4-14.6
			c-1.1-3.8-2.9-7.3-5.2-10.4c-2.5-4.5-5.8-8.2-9.3-12.1c-4.3-4.9-8.8-9.7-13.2-14.6c-2.3-2.5-4.5-5.1-6.5-7.8
			c-1.2-1.5-2.4-3.9-3.9-5.2c0.3-0.6,0.8-1.2,1.5-1.6C460.3,111.2,460.6,111.6,460.9,112z"/>
	</g>
	<path class="st11" d="M518,141.6c1.9-0.9,3.9-1.7,5.7-2.8l0,0c-1.5,1.1-3.1,1.8-4.8,2.6c-2.1,1.1-4.4,2.1-6.7,2.6
		c-0.1,0-0.1-0.1,0-0.1C514.2,143.3,516.2,142.5,518,141.6z"/>
	<path class="st11" d="M515.6,131.2c-0.7,3.2-1.3,6.7-3,9.6h-0.1C513.9,137.7,514.7,134.4,515.6,131.2L515.6,131.2z"/>
	<path class="st11" d="M505.8,158.2c-0.4,1.9-1,3.7-0.7,5.7s0.9,4.3,1.9,6.1c1.6,3,3.1,6.1,5,9c1.8,2.9,3.6,5.8,5.2,8.9
		c1.2,2.3,2.9,5.2,2.9,7.9c0,0,0.1-0.1,0.1,0v0.1c0,0-0.1,0.1-0.1,0c-2.5-6.7-6.3-12.7-10-18.8c-1.8-2.9-3.3-6-4.4-9.1
		c-0.5-1.4-1-3.1-0.9-4.5C504.7,161.6,505.3,160,505.8,158.2C505.7,158.2,505.8,158.2,505.8,158.2z"/>
	<path class="st11" d="M482.2,134.6c3.6,2.4,7,5.6,10,8.7c1.6,1.6,3.3,3.2,4.7,4.9c1.6,1.9,2.7,4.1,4.1,6.1l0,0
		c-1.4-1.7-2.6-3.6-4-5.3c-1.6-1.9-3.3-3.7-5-5.4c-3.1-3.2-6.4-6.1-9.9-8.9C482.1,134.7,482.2,134.6,482.2,134.6z"/>
	<path class="st11" d="M483.1,117.8c0.1,2.3,0.1,4.5-0.1,6.8c-0.2,2.5-0.4,5.4-1.2,7.8c0,0.1-0.1,0.1-0.1,0
		C482.4,127.6,483,122.8,483.1,117.8L483.1,117.8z"/>
	<path class="st11" d="M463.8,115c2.2,2.6,4.3,5.2,6.6,7.6c1.9,2,3.6,4.3,5.8,6l0,0c-2.4-1.7-4.3-4.1-6.3-6.2
		C467.7,120.2,465.6,117.7,463.8,115C463.7,115.1,463.7,115,463.8,115z"/>
</g>
<g>
	<g>
		<path class="st8" d="M376.7,447.2c-7.4-1.1-15-1.2-22.3-0.7c-1.2,0.1-2.5,0.2-3.7,0.3c0.9,1.3,1.5,3,2.4,4.3
			c1.8,2.8,4.3,5,6.6,7.4c0.2,0.2,0.4,0.7,0.2,1c-1,2.4-4.1-0.8-4.9-1.6c-1.5-1.4-2.9-2.7-4.3-4.2c-0.7-0.7-1.4-1.8-2.2-2.7
			c-1.1-1.1-1.9-2.4-2.9-3.5l-0.1-0.1c-9.2,1-18.4,2.1-27.7,1c-0.2,0-0.4,0.1-0.4,0.3c0,4.8,1.9,9.7,3.8,14.1
			c1.6,3.7,4.8,6.5,5.9,10.4c-0.8,0.6-1.8,1-2.8,0.8c-0.4-0.6-0.8-1.1-1.2-1.7c-1.3-2.2-2.5-4.5-3.7-6.7c-0.8,1.2-1.2,2.6-1.8,3.8
			c-0.8,1.7-1.8,3.5-2.1,5.4c-0.2,1.1-1,1.4-1.8,0.7c-0.9-0.8,0.2-3.7,0.4-4.6c0.2-0.6,0.4-1.3,0.6-2c0.7-2.5,1.8-5,2.7-7.2
			c-1.7-3.7-2.9-7.7-5.2-11.1c-2-3.1-4.5-5.6-7.7-7.4c-4-2.3-9.1-2.5-13.6-3.3c-3.8-0.7-7.5-1.5-11.2-2.7c-1.8-0.6-3.6-1.3-5.4-2
			l0,0c-0.8-0.5-1.2-1.1-1.5-1.9c-0.1-1.6-0.1-3.3-0.1-3.6c0-0.7,0.1-1.4,0.3-2c0.1-0.2,0.2-0.4,0.3-0.6c0.8-1.5,1.8-2.2,3-2.5
			c8.5,0.5,16.7,3.6,24.4,7.3c4.5,2.2,8.9,4.7,13.5,6.9c3.6,1.7,7.3,2.7,11.2,3.1c5,1.2,10,1.2,15.2,1.3c6.6,0.1,13.1,0.1,19.6,0.1
			c3.4,0,6.8,0.1,10.2,0.4c1.9,0.2,4.4,0.8,6.5,0.6C377.3,444.9,377.2,446.2,376.7,447.2z"/>
		<path class="st8" d="M318.8,463.4c0.2,0.7,0.4,1.4,0.5,2.2c-0.7,1.1-1.2,2.5-1.7,3.7c-0.8,1.7-1.8,3.5-2.1,5.4
			c-0.2,1-0.8,1.3-1.5,0.9C315.6,471.5,316.5,467.2,318.8,463.4z"/>
		<path class="st8" d="M323.3,469.6c-1.5-2.4-2.8-4.8-3.8-7.5c-0.9-2.5-1.6-5.1-2.2-7.7c-0.6-2.3-1.2-4.6-1-7
			c0.4,0.3,0.8,0.6,1.2,0.8c-0.1,0.1-0.1,0.1-0.1,0.2c0,4.8,1.9,9.7,3.8,14.1c1.6,3.7,4.8,6.5,5.9,10.4c-0.3,0.2-0.7,0.5-1.1,0.6
			C325.3,472.2,324.2,471,323.3,469.6z"/>
		<path class="st8" d="M348.7,447.6c-0.4-1.3,0.8-1.2,2.1-0.8c0,0,0,0-0.1,0c0.9,1.3,1.5,3,2.4,4.3c1.8,2.8,4.3,5,6.6,7.4
			c0.2,0.2,0.4,0.7,0.2,1c-0.2,0.4-0.4,0.6-0.6,0.7c-3.1-2.6-5.9-5.5-8.3-8.8C350.1,450.2,349.1,449,348.7,447.6z"/>
		<path class="st8" d="M375.6,445.9c-5-0.6-10.1-1.4-15.1-1.5c-5.2-0.1-10.4,0.3-15.6,0.6c-2.4,0.2-4.9,0.4-7.4,0.3
			c-1.3-0.1-2.7-0.2-4-0.2c-12.5,0.3-23.9-4.8-34.8-10.3c-7.7-3.9-17-8.8-25.9-6.5c0-0.3,0.1-0.6,0.2-0.8c0.1-0.2,0.2-0.4,0.3-0.6
			c0.8-1.5,1.8-2.2,3-2.5c8.5,0.5,16.7,3.6,24.4,7.3c4.5,2.2,8.9,4.7,13.5,6.9c3.6,1.7,7.3,2.7,11.2,3.1c5,1.2,10,1.2,15.2,1.3
			c6.6,0.1,13.1,0.1,19.6,0.1c3.4,0,6.8,0.1,10.2,0.4c1.9,0.2,4.4,0.8,6.5,0.6c0.3,0.7,0.3,1.4,0.2,2.1
			C376.6,446,376.1,445.9,375.6,445.9z"/>
	</g>
	<path class="st12" d="M315.2,468.4c-0.6,2-1.4,4-1.8,6l0,0c0.2-1.8,0.8-3.5,1.3-5.3c0.6-2.3,1.4-4.6,2.6-6.7c0-0.1,0.1,0,0.1,0.1
		C316.6,464.4,315.8,466.4,315.2,468.4z"/>
	<path class="st12" d="M324.5,473.5c-1.9-2.7-4.1-5.5-5.1-8.7c0,0,0-0.1,0.1,0C320.9,467.9,322.8,470.7,324.5,473.5
		C324.6,473.5,324.6,473.5,324.5,473.5z"/>
	<path class="st12" d="M311.1,448.1c-1.2-1.6-2-3.2-3.8-4.4c-1.7-1.1-3.8-2.2-5.8-2.7c-3.3-0.9-6.6-1.8-10-2.4s-6.7-1.2-10.1-2.1
		c-2.5-0.7-5.8-1.4-7.8-3.1v0.1l-0.1-0.1v-0.1c6.7,2.7,13.6,3.9,20.7,5.2c3.3,0.6,6.7,1.5,9.8,2.9c1.4,0.6,2.9,1.3,4,2.3
		C309.4,445,310.2,446.6,311.1,448.1C311.2,448.1,311.2,448.1,311.1,448.1z"/>
	<path class="st12" d="M344.5,446.5c-4.2,1-8.8,1.4-13.1,1.6c-2.3,0.1-4.5,0.3-6.8,0.2c-2.5-0.1-4.8-0.7-7.3-1.1l0,0
		c2.2,0.1,4.4,0.5,6.6,0.6c2.4,0.1,4.9,0,7.4-0.1C335.7,447.5,340.1,447.1,344.5,446.5C344.5,446.4,344.5,446.5,344.5,446.5z"/>
	<path class="st12" d="M356.3,458.4c-1.7-1.5-3.4-3-5-4.7c-1.7-1.9-3.7-3.9-5-6.2c0-0.1,0-0.2,0.1-0.1
		C349.5,451.4,352.7,455,356.3,458.4C356.3,458.4,356.3,458.5,356.3,458.4z"/>
	<path class="st12" d="M371.4,446c-3.4-0.1-6.7-0.3-10.1-0.3c-2.7,0-5.6-0.2-8.3,0.3l0,0c2.8-0.6,6-0.4,8.9-0.5
		c3.2-0.1,6.4,0.1,9.6,0.4C371.4,445.9,371.4,446,371.4,446z"/>
</g>
<g>
	<path class="st13" d="M300.9,88.2c-1.3,1.1-2.3,2.7-3.1,3.7c-4.1,5.4-8.6,10.9-13.8,16c-8.9,8.8-21,16.5-33.5,22.6
		c1.1-5.1,3.6-10.4,6.2-15.5c1.8-3.6,4.4-7.3,6.8-10.9c1.2-1.8,2.4-3.5,3.9-5.3c0.1-0.1,0.2-0.2,0.2-0.3c-1.1-0.1-2.3,0.1-3.5,0.5
		c-0.4,0.3-0.9,0.6-1.2,0.9c-3.7,3.1-6.4,6.8-8.8,10.2c-2.1,3.1-3.8,6.1-5.2,9.2s-2.9,6.6-5.1,9.9c-2.4,3.9-5.8,7.6-10.6,10.4
		c-8.1,4.6-17.3,7-25.9,7.6c-4,0.3-7.7,0-11.7,0.1c-1.5,0.2-3,0.5-4.5,0.8c1.1,3.1,2.3,6.1,3.5,9.2c0.3,0.8,0.6,1.6,0.9,2.5
		c3,0.2,6.1,0.3,9.3,0c3-0.5,6-1.3,9.1-2c7.4-1.8,14.2-4.7,21.1-8c7.8-3.8,15.5-8.3,22.6-13.2c0,0,0.1,0.1,0.2,0
		c2.8-1.8,5.4-3.8,7.9-5.9c15.8-13.2,29.7-27.5,37.8-42.6C302.8,88,301.9,88,300.9,88.2z"/>
	<path class="st13" d="M266.4,98.6c-0.4,0.6-0.8,1.1-1.3,1.6c-1.2,1.4-2.5,2.7-3.5,4.1c-2.9,4-5.4,8.2-7.7,12.3
		c-2,3.6-3.4,7.2-4.8,10.8c-1.1,2.8-2.4,5.7-4.7,8.5c2.4-1.2,4.4-2.9,6-4.6c0.1-0.2,0.3-0.5,0.4-0.7c-0.1,0-0.1,0.1-0.2,0.1
		c1.1-5.1,3.6-10.4,6.2-15.5c1.8-3.6,4.4-7.3,6.8-10.9c1.2-1.8,2.4-3.5,3.9-5.3c0.1-0.1,0.2-0.2,0.2-0.3
		C267.3,98.6,266.9,98.6,266.4,98.6z"/>
	<path class="st13" d="M283.6,111.5c-5.8,6.1-12.6,11.8-19.7,17.2c-7.3,5.5-15,11-23.4,15.5c-7.9,4.3-16.7,7.9-25.4,9.6
		c-4.3,0.8-8.5,1.2-12.6,1.2c-3,0-5.9-0.2-8.9-0.3c0.4,0.9,0.7,1.9,1.1,2.8c0.3,0.8,0.6,1.6,0.9,2.5c3,0.2,6.1,0.3,9.3,0
		c3-0.5,6-1.3,9.1-2c7.4-1.8,14.2-4.7,21.1-8c7.8-3.8,15.5-8.3,22.6-13.2c0,0,0.1,0.1,0.2,0c2.8-1.8,5.4-3.8,7.9-5.9
		c15.8-13.2,29.7-27.5,37.8-42.6c-0.3-0.1-0.7-0.1-1.1-0.1C297.8,96.1,290.9,104,283.6,111.5z"/>
	<path class="st14" d="M263.5,100.3c-5.9,5.6-9.7,11.2-13.2,17.3c-3.7,6.5-4.6,13.1-11.4,19.2c-0.1,0.1-0.1,0.2,0.1,0.1
		c6-4.8,8.3-10.8,10.6-16.2c2.9-6.8,8.1-14,14.1-20.3C263.7,100.3,263.6,100.2,263.5,100.3z"/>
	<path class="st14" d="M236,139c-7.6,4.5-15.1,7.1-23.6,8.7c-3.2,0.6-6.4,0.6-9.3,0.5c-3.2-0.2-6.4,0-9.8,0.4c0,0-0.1,0,0,0.1
		c6.6,0.5,13.1,0.7,20.3-0.4c7.7-1.2,16.1-4.7,22.5-9.1C236.1,139.1,236.1,138.9,236,139z"/>
	<path class="st14" d="M294.8,97c-2.5,2.8-4.5,5.8-7.3,8.5c-3.1,3.1-6.7,6.1-10.2,9c-3.6,3-8,6.1-12.3,8.5c-1.9,1.1-3.9,2.2-5.8,3.4
		c-2.2,1.3-4.5,2.9-6.9,3.9c-0.1,0-0.1,0.1,0,0.1c4.1-1.2,8.4-4.2,12-6.3c4.5-2.6,8.9-5.5,12.7-8.6c3.3-2.7,6.6-5.5,9.6-8.4
		c3.3-3.3,5.9-6.6,8.4-10.1C295,97,294.9,96.9,294.8,97z"/>
</g>
<g>
	<path class="st8" d="M524.4,156.7c-0.1,1.6-0.4,3.2-0.6,4.4c-1,6-2,12.4-2.6,19.3c-1,11.8-0.5,26,0.8,39.8
		c1.8-3.2,3.3-7.8,4.7-12.3c1-3.2,1.8-7.1,2.6-10.8c0.4-1.9,0.8-3.7,1-5.8c0-0.1,0-0.2,0-0.3c0.4,0.9,0.7,2.1,0.9,3.3
		c0,0.5,0,1,0,1.5c-0.1,4.7-0.9,8.7-1.6,12.3c-0.6,3.3-1.4,6.1-2.3,8.7c-0.9,2.6-1.9,5.5-2.6,8.9c-0.9,3.8-1.5,8.5-1.1,14
		c0.6,9.3,2.5,18.5,4.9,26.4c1.1,3.7,2.5,6.9,3.7,10.4c0.4,1.4,0.7,2.9,1,4.3c-1.7,0.4-3.4,0.6-5.1,0.9c-0.5,0.1-0.9,0.2-1.4,0.2
		c-1-2.6-2-5.3-3-8.3c-0.7-2.9-1.4-5.9-2-9c-1.6-7.4-2.5-14.7-3.2-22.3c-0.8-8.6-1.3-17.4-1.4-25.9c0,0,0-0.1-0.1-0.2
		c-0.1-3.3,0-6.5,0-9.7c0.7-19.8,2.5-38.5,6.4-52.4C523.9,154.9,524.2,155.7,524.4,156.7z"/>
	<path class="st8" d="M530.8,192c-0.1,0.6-0.2,1.2-0.3,1.9c-0.2,1.7-0.4,3.4-0.7,5c-0.8,4.3-1.8,8.4-2.8,12.2c-0.9,3.3-2,6.1-3.1,9
		c-0.9,2.2-1.7,4.6-2.2,7.9c-0.2-2.7-0.2-5.2,0.1-7.4c0.1-0.2,0.1-0.4,0.2-0.7c0,0.1,0,0.2,0,0.2c1.8-3.2,3.3-7.8,4.7-12.3
		c1-3.2,1.8-7.1,2.6-10.8c0.4-1.9,0.8-3.7,1-5.8c0-0.1,0-0.2,0-0.3C530.5,191.2,530.7,191.6,530.8,192z"/>
	<path class="st8" d="M519.8,182.3c-0.8,7.9-1.1,16.4-1.1,25.1c-0.1,9,0,18.2,0.7,27.7c0.6,8.9,1.9,18.4,3.9,26.8
		c1,4.2,2.2,8.1,3.5,11.7c1,2.7,2,5.2,2.9,7.8c-0.5,0.1-1,0.2-1.6,0.2c-0.5,0.1-0.9,0.2-1.4,0.2c-1-2.6-2-5.3-3-8.3
		c-0.7-2.9-1.4-5.9-2-9c-1.6-7.4-2.5-14.7-3.2-22.3c-0.8-8.6-1.3-17.4-1.4-25.9c0,0,0-0.1-0.1-0.2c-0.1-3.3,0-6.5,0-9.7
		c0.7-19.8,2.5-38.5,6.4-52.4c0.1,0.3,0.3,0.6,0.4,0.9C522,162.9,520.8,172.6,519.8,182.3z"/>
	<path class="st12" d="M531,195.4c-0.5,7.7-1.7,13.6-3.3,19.4c-1.6,6.2-4.2,9.8-4.6,18.6c0,0.1-0.1,0.1-0.1,0
		c0.2-7.5,2-12.1,3.6-16.6C528.6,211.2,530.1,203.4,531,195.4C530.9,195.2,531,195.2,531,195.4z"/>
	<path class="st12" d="M523,236.9c0.4,8.8,1.7,16.6,3.7,24.9c0.7,3.1,1.7,6,2.7,8.5c1.1,2.8,2,5.7,2.9,8.9c0,0,0,0.1,0,0
		c-2.3-5.6-4.5-11.4-6.2-18.3C524.2,253.6,523.1,244.6,523,236.9C523,236.8,523,236.7,523,236.9z"/>
	<path class="st12" d="M522.5,166.1c-0.4,3.5-1.1,6.5-1.4,10.2c-0.4,4.2-0.5,8.6-0.7,13c-0.2,4.5-0.1,9.8,0.2,14.7
		c0.1,2.2,0.3,4.4,0.4,6.6c0.1,2.5,0.2,5.3,0.5,7.9c0,0.1,0,0.1,0,0.1c-0.8-4.1-0.9-9.4-1.1-13.5c-0.3-5.1-0.4-10.4-0.3-15.1
		c0.1-4.2,0.3-8.3,0.6-12.2c0.4-4.4,1-8.2,1.7-11.9C522.5,165.8,522.6,165.9,522.5,166.1z"/>
</g>
<g>
	<path class="st8" d="M448,108.9c-1.6-0.4-3.2-1.3-4.3-1.8c-5.9-2.7-12.2-5.3-19-7.4c-11.7-3.6-25.8-5.4-39.7-5.9
		c3,3.4,7.4,6.5,11.8,9.5c3.1,2.1,6.9,4,10.5,5.9c1.8,0.9,3.6,1.8,5.7,2.6c0.1,0,0.2,0.1,0.3,0.1c-0.9,0.4-2.1,0.6-3.4,0.8
		c-0.5-0.1-1-0.2-1.5-0.3c-4.6-1.1-8.5-2.9-12.1-4.7c-3.2-1.6-5.9-3.3-8.5-5.1c-2.5-1.8-5.3-3.9-8.6-5.7c-3.7-2.1-8.3-3.8-13.8-4.2
		c-9.3-0.8-18.6,0.5-26.8,2.8c-3.8,1.1-7.1,2.5-10.8,3.7c-1.4,0.3-2.9,0.6-4.4,0.8c-0.2-2.6-0.3-5.3-0.4-7.9c0-0.7-0.1-1.4-0.1-2.1
		c2.7-1.1,5.5-2.2,8.5-3c3-0.6,6-1,9.2-1.5c7.5-1.1,14.9-1.2,22.5-0.9c8.6,0.3,17.5,1.1,25.9,2.4c0,0,0.1-0.1,0.2-0.1
		c3.3,0.4,6.5,1.1,9.6,1.8c19.7,4.6,38.1,10.7,51.5,19.3C449.8,108.4,449,108.7,448,108.9z"/>
	<path class="st8" d="M412.2,112.3c-0.6-0.3-1.2-0.5-1.8-0.8c-1.6-0.6-3.4-1.2-4.9-1.9c-4.2-2.1-8.2-4.3-11.9-6.6
		c-3.2-2-5.9-4.2-8.6-6.4c-2.1-1.7-4.4-3.5-7.6-4.7c2.7,0.1,5.2,0.7,7.3,1.5c0.2,0.1,0.4,0.3,0.6,0.4c-0.1,0-0.2,0-0.2,0
		c3,3.4,7.4,6.5,11.8,9.5c3.1,2.1,6.9,4,10.5,5.9c1.8,0.9,3.6,1.8,5.7,2.6c0.1,0,0.2,0.1,0.3,0.1
		C413.1,112.1,412.7,112.2,412.2,112.3z"/>
	<path class="st8" d="M423,97.3c-7.7-2.6-16.2-4.6-24.9-6.3c-8.9-1.7-18.1-3.2-27.6-3.9c-8.9-0.6-18.5-0.5-27.1,1.1
		c-4.3,0.8-8.3,1.9-12,3.2c-2.7,1-5.4,2.1-8.1,3.1c0-0.8-0.1-1.6-0.1-2.5c0-0.7-0.1-1.4-0.1-2.1c2.7-1.1,5.5-2.2,8.5-3
		c3-0.6,6-1,9.2-1.5c7.5-1.1,14.9-1.2,22.5-0.9c8.6,0.3,17.5,1.1,25.9,2.4c0,0,0.1-0.1,0.2-0.1c3.3,0.4,6.5,1.1,9.6,1.8
		c19.7,4.6,38.1,10.7,51.5,19.3c-0.3,0.2-0.6,0.3-0.9,0.4C442.1,104,432.6,100.5,423,97.3z"/>
	<path class="st12" d="M408.9,112.1c-7.6-2.2-13.3-5.1-19-8.5c-6-3.6-9.3-8.2-18-10.5c-0.1,0-0.1-0.1,0-0.1
		c7.4,1.6,11.9,5.3,16.1,8.5C393.3,105.6,401,109.3,408.9,112.1C409,112,409,112.1,408.9,112.1z"/>
	<path class="st12" d="M368.4,92.4c-8.8-0.9-16.7-0.4-25.1,1.2c-3.2,0.6-6.1,1.6-8.7,2.7c-2.8,1.2-5.9,2.1-9.2,2.9c0,0-0.1,0,0,0
		c5.8-2.5,11.8-4.8,18.8-6.3C351.7,91.3,360.8,91.2,368.4,92.4C368.5,92.3,368.5,92.4,368.4,92.4z"/>
	<path class="st12" d="M438.9,104.4c-3.4-1.3-6.4-2.8-10-4c-4.1-1.3-8.5-2.3-12.9-3.4c-4.5-1.1-9.8-1.9-14.7-2.3
		c-2.2-0.2-4.4-0.4-6.6-0.6c-2.5-0.3-5.3-0.7-7.9-0.6c-0.1,0-0.1-0.1,0-0.1c4.2-0.4,9.4,0.4,13.5,0.7c5.1,0.5,10.3,1.2,15,2.3
		c4.1,1,8.2,1.9,12.1,3.1c4.4,1.3,8,3,11.7,4.8C439.2,104.3,439.1,104.4,438.9,104.4z"/>
</g>
<g>
	<g>
		<path class="st10" d="M260.2,111.4c7.2-1.9,14.7-2.8,22.1-3.1c1.2-0.1,2.5-0.1,3.7-0.1c-0.7,1.4-1.2,3.1-1.9,4.5
			c-1.5,3-3.8,5.4-5.7,8.1c-0.2,0.3-0.3,0.7-0.1,1c1.3,2.2,4-1.3,4.7-2.1c1.4-1.6,2.6-3,3.8-4.7c0.6-0.8,1.2-1.9,1.9-2.9
			c1-1.2,1.6-2.6,2.5-3.8l0.1-0.1c9.3-0.1,18.5,0.1,27.6-2.1c0.2-0.1,0.4,0.1,0.5,0.3c0.5,4.8-0.8,9.8-2.2,14.4
			c-1.1,3.8-4.1,7-4.8,11c0.9,0.5,1.9,0.8,2.9,0.5c0.3-0.6,0.7-1.2,1-1.8c1-2.3,2-4.7,3-7.1c0.9,1.1,1.5,2.4,2.2,3.6
			c1,1.6,2.2,3.3,2.7,5.1c0.3,1.1,1.1,1.3,1.9,0.5c0.8-0.9-0.6-3.7-0.9-4.5c-0.2-0.6-0.5-1.3-0.8-1.9c-0.9-2.4-2.3-4.8-3.5-6.9
			c1.3-3.9,2.1-8,3.9-11.6c1.7-3.3,3.8-6.1,6.8-8.2c3.7-2.7,8.8-3.5,13.1-4.8c3.7-1.1,7.3-2.3,10.9-3.9c1.7-0.8,3.4-1.7,5.1-2.6l0,0
			c0.8-0.6,1.1-1.2,1.3-2c-0.1-1.6-0.3-3.3-0.3-3.6c-0.1-0.7-0.3-1.4-0.5-2c-0.1-0.2-0.2-0.4-0.3-0.6c-0.9-1.4-2-2-3.3-2.2
			c-8.4,1.5-16.2,5.4-23.4,9.9c-4.3,2.7-8.4,5.6-12.6,8.3c-3.4,2.1-7,3.5-10.8,4.3c-4.8,1.7-9.8,2.3-15,2.9
			c-6.5,0.8-13,1.5-19.5,2.2c-3.4,0.4-6.7,0.9-10,1.5c-1.9,0.4-4.3,1.3-6.4,1.3C259.4,109.3,259.6,110.5,260.2,111.4z"/>
		<path class="st10" d="M319.6,121.2c-0.2,0.7-0.2,1.5-0.2,2.2c0.8,1.1,1.5,2.3,2.1,3.5c1,1.6,2.2,3.3,2.7,5.1
			c0.3,0.9,0.9,1.2,1.6,0.8C323.6,128.9,322.2,124.7,319.6,121.2z"/>
		<path class="st10" d="M315.8,127.9c1.3-2.5,2.2-5.1,2.9-7.9c0.7-2.6,1-5.2,1.4-7.9c0.3-2.3,0.7-4.7,0.2-7c-0.4,0.3-0.7,0.6-1.1,1
			c0.1,0.1,0.1,0.1,0.1,0.2c0.5,4.8-0.8,9.8-2.2,14.4c-1.1,3.8-4.1,7-4.8,11c0.4,0.2,0.7,0.4,1.1,0.5
			C314.1,130.6,315,129.3,315.8,127.9z"/>
		<path class="st10" d="M288.1,108.8c0.3-1.4-1-1.2-2.1-0.6c0,0,0,0,0.1,0c-0.7,1.4-1.2,3.1-1.9,4.5c-1.5,3-3.8,5.4-5.7,8.1
			c-0.2,0.3-0.3,0.7-0.1,1c0.2,0.4,0.4,0.6,0.7,0.6c2.8-2.9,5.3-6.2,7.3-9.7C286.9,111.5,287.8,110.2,288.1,108.8z"/>
		<path class="st10" d="M261.2,110c4.9-1.1,9.8-2.5,14.9-3.1c5.1-0.7,10.3-0.9,15.5-1.1c2.4-0.1,4.9-0.1,7.3-0.5
			c1.3-0.2,2.6-0.5,3.9-0.6c12.4-1.1,23.2-7.4,33.5-14.1c7.2-4.7,15.9-10.6,25-9.4c-0.1-0.3-0.2-0.5-0.3-0.8
			c-0.1-0.2-0.2-0.4-0.3-0.5c-0.9-1.4-2-2-3.3-2.2c-8.4,1.5-16.2,5.4-23.4,9.9c-4.3,2.7-8.4,5.6-12.6,8.3c-3.4,2.1-7,3.5-10.8,4.3
			c-4.8,1.7-9.8,2.3-15,2.9c-6.5,0.8-13,1.5-19.5,2.2c-3.4,0.4-6.7,0.9-10,1.5c-1.9,0.4-4.3,1.3-6.4,1.3c-0.2,0.7-0.2,1.4,0,2.1
			C260.2,110.3,260.7,110.1,261.2,110z"/>
	</g>
	<path class="st11" d="M323.6,125.7c0.8,1.9,1.8,3.8,2.4,5.8l0,0c-0.4-1.8-1.2-3.4-1.8-5.1c-0.9-2.2-1.9-4.4-3.3-6.4
		c0-0.1-0.1,0-0.1,0.1C321.9,121.9,322.8,123.8,323.6,125.7z"/>
	<path class="st11" d="M314.9,131.9c1.6-2.9,3.4-5.9,4.1-9.2c0-0.1-0.1-0.1-0.1,0C317.9,125.9,316.3,128.8,314.9,131.9L314.9,131.9z
		"/>
	<path class="st11" d="M325.5,105.1c1-1.7,1.7-3.4,3.3-4.8c1.6-1.3,3.5-2.6,5.4-3.3c3.2-1.2,6.4-2.5,9.7-3.5c3.3-1,6.6-2,9.8-3.2
		c2.5-0.9,5.6-2,7.4-4v0.1l0.1-0.1v-0.1c-6.3,3.4-13.1,5.4-20,7.5c-3.2,1-6.5,2.3-9.4,3.9c-1.3,0.7-2.7,1.7-3.7,2.8
		C326.9,101.8,326.2,103.5,325.5,105.1C325.4,105.1,325.4,105.2,325.5,105.1z"/>
	<path class="st11" d="M292.2,107.2c4.3,0.6,8.9,0.4,13.2,0.1c2.3-0.2,4.5-0.2,6.8-0.6c2.5-0.4,4.7-1.2,7.1-1.9l0,0
		c-2.2,0.3-4.3,1-6.5,1.3c-2.4,0.4-4.9,0.6-7.3,0.7c-4.4,0.3-8.8,0.4-13.3,0.2C292.1,107.1,292.1,107.2,292.2,107.2z"/>
	<path class="st11" d="M281.7,120.4c1.6-1.7,3.1-3.3,4.4-5.2c1.5-2.1,3.2-4.3,4.3-6.7c0-0.1-0.1-0.2-0.1-0.1
		C287.6,112.6,284.9,116.6,281.7,120.4L281.7,120.4z"/>
	<path class="st11" d="M265.4,109.7c3.3-0.5,6.7-1,10-1.4c2.7-0.3,5.6-0.8,8.3-0.7l0,0c-2.9-0.3-6,0.2-8.9,0.5
		c-3.2,0.3-6.4,0.8-9.5,1.4C265.3,109.6,265.3,109.7,265.4,109.7z"/>
</g>
<g>
	<path class="st10" d="M231.1,165.6c-0.7,1.5-0.9,3.4-1.1,4.7c-1.3,6.7-2.9,13.6-5.3,20.5c-4.2,11.9-11.6,24-20.2,35
		c-1.3-5.1-1.4-11-1.3-16.8c0-4.1,0.7-8.5,1.3-12.8c0.3-2.1,0.6-4.2,1.2-6.5c0-0.1,0.1-0.2,0.1-0.3c-1,0.4-2,1.1-2.9,2
		c-0.3,0.4-0.5,0.9-0.7,1.4c-2,4.4-2.8,8.9-3.4,13.1c-0.6,3.7-0.7,7.2-0.6,10.6c0.1,3.4,0.3,7.3-0.2,11.2c-0.4,4.6-1.8,9.4-4.9,14
		c-5.3,7.7-12.5,13.8-20,18.1c-3.5,2-7,3.3-10.5,5.1c-1.2,0.8-2.5,1.7-3.7,2.7c2.4,2.3,4.8,4.6,7.3,6.8c0.7,0.6,1.3,1.2,1.9,1.8
		c2.8-1.2,5.6-2.4,8.4-4c2.5-1.8,4.9-3.7,7.3-5.8c5.9-4.9,10.7-10.4,15.5-16.4c5.4-6.8,10.3-14.2,14.5-21.7c0,0,0.1,0,0.2-0.1
		c1.7-2.8,3.2-5.8,4.5-8.8c8.4-18.8,14.6-37.8,15.2-55C232.7,164.7,231.9,165.1,231.1,165.6z"/>
	<path class="st13" d="M204.6,190.1c-0.1,0.7-0.3,1.4-0.4,2c-0.5,1.8-1.1,3.5-1.4,5.3c-0.8,4.9-1.3,9.8-1.5,14.4
		c-0.2,4.1,0.1,8,0.5,11.8c0.3,3,0.4,6.2-0.5,9.7c1.7-2.1,2.7-4.5,3.3-6.8c0-0.3,0-0.5,0-0.8c0,0.1-0.1,0.1-0.1,0.2
		c-1.3-5.1-1.4-11-1.3-16.8c0-4.1,0.7-8.5,1.3-12.8c0.3-2.1,0.6-4.2,1.2-6.5c0-0.1,0.1-0.2,0.1-0.3
		C205.3,189.6,204.9,189.8,204.6,190.1z"/>
	<path class="st13" d="M225.8,194.3c-2.6,8-6.1,16.1-10.2,24.1c-4.2,8.2-8.7,16.4-14.3,24.2c-5.2,7.3-11.6,14.4-18.7,19.7
		c-3.5,2.6-7.2,4.8-10.8,6.5c-2.7,1.3-5.5,2.4-8.2,3.6c0.8,0.7,1.5,1.4,2.3,2.1c0.7,0.6,1.3,1.2,1.9,1.8c2.8-1.2,5.6-2.4,8.4-4
		c2.5-1.8,4.9-3.7,7.3-5.8c5.9-4.9,10.7-10.4,15.5-16.4c5.4-6.8,10.3-14.2,14.5-21.7c0,0,0.1,0,0.2-0.1c1.7-2.8,3.2-5.8,4.5-8.8
		c8.4-18.8,14.6-37.8,15.2-55c-0.3,0.1-0.7,0.2-1,0.4C231.8,174.2,229,184.3,225.8,194.3z"/>
	<path class="st14" d="M202.7,192.8c-2.8,7.6-3.8,14.4-4.3,21.4c-0.5,7.5,1.7,13.8-1.8,22.3c0,0.1,0,0.2,0.1,0.1
		c3.3-7,2.7-13.4,2.4-19.3C198.7,209.9,200.2,201.1,202.7,192.8C202.8,192.7,202.7,192.7,202.7,192.8z"/>
	<path class="st14" d="M195,239.9c-4.9,7.4-10.5,13-17.5,18.1c-2.6,1.9-5.5,3.3-8.2,4.4c-3,1.2-5.8,2.7-8.7,4.6v0.1
		c6.1-2.4,12.2-5,18.2-9.1c6.4-4.4,12.4-11.2,16.2-18C195.2,239.9,195.1,239.7,195,239.9z"/>
	<path class="st14" d="M229.4,176.3c-1,3.7-1.5,7.2-2.8,10.9c-1.4,4.2-3.3,8.4-5.2,12.6c-1.9,4.3-4.6,9-7.3,13.1
		c-1.2,1.9-2.5,3.7-3.7,5.6c-1.4,2.1-2.7,4.6-4.5,6.5v0.1c3.1-2.8,5.8-7.4,8.1-10.9c2.9-4.3,5.6-8.8,7.6-13.3
		c1.8-3.9,3.5-7.8,4.9-11.8c1.6-4.4,2.4-8.6,3.1-12.8C229.7,176.2,229.5,176.2,229.4,176.3z"/>
</g>
<g>
	<path class="st13" d="M394.6,89.7c1.5,0.7,3.2,1,4.3,1.3c6.1,1.6,12.5,3.4,19,5.9c11.3,4.2,23.6,11.1,35.3,18.7
		c-4,0.6-9.1,0.2-14.1-0.3c-3.5-0.4-7.5-1.2-11.4-2.1c-1.9-0.4-3.8-0.8-5.9-1.5c-0.1,0-0.2-0.1-0.3-0.1c0.6,0.8,1.5,1.6,2.5,2.5
		c0.5,0.2,0.9,0.5,1.4,0.7c4.3,1.9,8.4,2.9,12.1,3.8c3.3,0.8,6.4,1.2,9.3,1.4c2.9,0.2,6.2,0.4,9.7,1.1c4,0.7,8.6,2.2,13.3,5
		c8,4.8,15,11,20.7,17.2c2.6,2.9,4.6,5.8,7.1,8.7c1,1,2.1,2.1,3.2,3.1c1.4-1.7,2.7-3.4,4-5.2c0.3-0.5,0.7-0.9,1.1-1.4
		c-1.7-2.3-3.5-4.6-5.6-6.9c-2.2-2.1-4.5-4.1-6.8-6.2c-5.7-5-11.7-9.3-18.1-13.5c-7.2-4.8-14.9-9.3-22.4-13.2c0,0,0-0.1-0.1-0.1
		c-2.9-1.6-5.8-3-8.7-4.3C425.9,96.2,408,89.7,393,87.8C393.3,88.3,393.9,89,394.6,89.7z"/>
	<path class="st13" d="M422.3,112.5c0.6,0.1,1.2,0.3,1.8,0.5c1.6,0.5,3.3,1.1,4.9,1.5c4.4,1,8.7,1.8,12.8,2.4
		c3.6,0.5,6.8,0.5,10.1,0.6c2.5,0.1,5.2,0.2,8.5,1.2c-2.3-1.5-4.6-2.5-6.7-3.2c-0.2,0-0.5-0.1-0.7-0.1c0.1,0,0.1,0.1,0.2,0.1
		c-4,0.6-9.1,0.2-14.1-0.3c-3.5-0.4-7.5-1.2-11.4-2.1c-1.9-0.4-3.8-0.8-5.9-1.5c-0.1,0-0.2-0.1-0.3-0.1
		C421.8,111.9,422,112.2,422.3,112.5z"/>
	<path class="st13" d="M420.5,96.2c7.6,2.7,15.4,6.1,23.3,10c8.1,4,16.3,8.2,24.5,13.2c7.6,4.7,15.4,10.3,21.7,16.3
		c3.1,3,5.9,6,8.4,9c1.8,2.2,3.4,4.5,5.2,6.7c0.4-0.5,0.8-1.1,1.2-1.6c0.3-0.5,0.7-0.9,1.1-1.4c-1.7-2.3-3.5-4.6-5.6-6.9
		c-2.2-2.1-4.5-4.1-6.8-6.2c-5.7-5-11.7-9.3-18.1-13.5c-7.2-4.8-14.9-9.3-22.4-13.2c0,0,0-0.1-0.1-0.1c-2.9-1.6-5.8-3-8.7-4.3
		C425.9,96.1,408,89.6,393,87.7c0.2,0.3,0.4,0.5,0.6,0.8C401.7,89.8,411.1,92.8,420.5,96.2z"/>
	<path class="st14" d="M425.2,114.2c7.3,2.9,13.3,4.2,19.5,5.1c6.6,1,11.5-0.2,19.7,3.3c0.1,0,0.2,0,0-0.1
		c-6.8-3.2-12.2-3.2-17.2-3.5C441,118.8,433,116.9,425.2,114.2C425.1,114.1,425.1,114.2,425.2,114.2z"/>
	<path class="st14" d="M467.6,124.1c7.6,4.4,13.9,9.3,20.1,15.2c2.3,2.2,4.3,4.6,5.9,6.8c1.8,2.4,3.8,4.8,6.2,7.2h0.1
		c-3.6-5-7.4-10-12.5-15C481.8,132.9,474.5,127.6,467.6,124.1C467.5,124,467.4,124,467.6,124.1z"/>
	<path class="st14" d="M404.2,91.8c3.4,1.1,6.5,1.8,10.1,3.1c4,1.5,8.1,3.3,12.2,5.1c4.2,1.8,8.9,4.3,13.1,6.8
		c1.9,1.1,3.8,2.3,5.7,3.4c2.2,1.3,4.7,2.5,6.8,4.1c0.1,0,0.1,0,0.1,0c-3.2-2.7-7.9-5.1-11.4-7.3c-4.4-2.6-9-5.1-13.4-7.1
		c-3.8-1.7-7.6-3.4-11.4-4.8c-4.2-1.6-8-2.6-11.8-3.5C404,91.6,404,91.8,404.2,91.8z"/>
</g>
<g>
	<g>
		<path class="st13" d="M210.7,219.6c-1.4,7.3-3.8,14.5-6.7,21.3c-0.5,1.1-1,2.3-1.5,3.4c-1-1.3-2.3-2.4-3.2-3.7
			c-2.1-2.7-3.3-5.7-4.9-8.7c-0.2-0.3-0.5-0.6-0.8-0.5c-2.6,0.2-0.5,4.1-0.1,5.1c0.8,1.9,1.6,3.6,2.6,5.5c0.5,0.9,1.2,1.9,1.8,3
			c0.6,1.4,1.6,2.6,2.4,3.9v0.1c-3.9,8.4-8.1,16.7-10,25.8c0,0.2-0.2,0.4-0.5,0.3c-4.6-1.6-8.5-5-12-8.2c-2.9-2.7-4.6-6.7-7.8-9
			c-0.9,0.6-1.5,1.4-1.7,2.4c0.4,0.6,0.8,1.1,1.2,1.7c1.7,1.9,3.4,3.9,5.1,5.7c-1.4,0.3-2.8,0.3-4.2,0.4c-1.9,0.2-3.9,0.5-5.8,0.3
			c-1.1-0.2-1.7,0.4-1.3,1.5s3.6,1,4.5,1.1c0.7,0,1.4,0.1,2.1,0.1c2.6,0.2,5.3,0,7.7-0.2c3,2.8,6.3,5.3,8.8,8.5
			c2.3,2.9,3.8,6,4.5,9.7c0.9,4.5-0.6,9.4-1.3,13.9c-0.6,3.8-1.1,7.6-1.2,11.5c0,1.9,0,3.8,0.1,5.7l0,0c0.2,0.9,0.6,1.5,1.3,2
			c1.5,0.6,3.1,1.2,3.4,1.3c0.7,0.2,1.3,0.3,2,0.4c0.2,0,0.5,0,0.7-0.1c1.7-0.2,2.7-1,3.4-2c2.3-8.2,2.1-16.9,1.1-25.4
			c-0.6-5-1.5-10-2-15c-0.4-3.9-0.2-7.8,0.7-11.6c0.5-5.1,2.1-9.8,3.8-14.8c2.1-6.2,4.3-12.4,6.4-18.6c1.1-3.2,2.1-6.4,3-9.7
			c0.5-1.8,0.7-4.5,1.6-6.3C213,219.8,211.8,219.5,210.7,219.6z"/>
		<path class="st13" d="M176.3,269c-0.6-0.5-1.2-0.8-1.9-1.2c-1.3,0.3-2.7,0.3-4.1,0.4c-1.9,0.2-3.9,0.5-5.8,0.3
			c-1-0.1-1.5,0.3-1.4,1.1C167.6,269.3,172,269.9,176.3,269z"/>
		<path class="st13" d="M171.9,262.7c1.7,2.2,3.6,4.2,5.8,6c2.1,1.7,4.3,3.2,6.5,4.6c1.9,1.3,4,2.6,6.2,3.2
			c-0.1-0.5-0.3-0.9-0.4-1.4c-0.1,0-0.2,0.1-0.3,0c-4.6-1.6-8.5-5-12-8.2c-2.9-2.7-4.6-6.7-7.8-9c-0.3,0.2-0.7,0.5-0.9,0.8
			C170.1,259.9,170.9,261.4,171.9,262.7z"/>
		<path class="st13" d="M201.1,245.9c1.1,0.8,1.5-0.4,1.5-1.7c0,0,0,0,0,0.1c-1-1.3-2.3-2.4-3.2-3.7c-2.1-2.7-3.3-5.7-4.9-8.7
			c-0.2-0.3-0.5-0.6-0.8-0.5c-0.4,0-0.7,0.2-0.9,0.3c1.4,3.8,3.3,7.4,5.6,10.7C199.1,243.7,199.9,245.1,201.1,245.9z"/>
		<path class="st13" d="M211.6,221.1c-1.1,4.9-2,9.9-3.6,14.8c-1.6,4.9-3.7,9.7-5.7,14.5c-0.9,2.2-2,4.5-2.7,6.8
			c-0.4,1.3-0.7,2.6-1.1,3.8c-4.3,11.7-3.3,24.2-1.7,36.3c1.1,8.6,2.7,18.9-2.4,26.6c0.3,0,0.6,0.1,0.8,0.1s0.4,0,0.6-0.1
			c1.7-0.2,2.7-1,3.4-2c2.3-8.2,2.1-16.9,1.1-25.4c-0.6-5-1.5-10-2-15c-0.4-3.9-0.2-7.8,0.7-11.6c0.5-5.1,2.1-9.8,3.8-14.8
			c2.1-6.2,4.3-12.4,6.4-18.6c1.1-3.2,2.1-6.4,3-9.7c0.5-1.8,0.7-4.5,1.6-6.3c-0.5-0.5-1.2-0.8-2-0.9
			C211.8,220.1,211.7,220.6,211.6,221.1z"/>
	</g>
	<path class="st14" d="M170.5,270.7c-2.1-0.1-4.2,0-6.3-0.3l0,0c1.8,0.5,3.6,0.4,5.4,0.6c2.4,0.1,4.8,0.2,7.2-0.2c0.1,0,0-0.1,0-0.1
		C174.7,270.7,172.5,270.8,170.5,270.7z"/>
	<path class="st14" d="M168.7,260.2c1.9,2.7,3.9,5.7,6.5,7.7c0,0,0.1,0,0-0.1C172.8,265.5,170.8,262.8,168.7,260.2
		C168.7,260.2,168.6,260.2,168.7,260.2z"/>
	<path class="st14" d="M188.3,281.2c1.1,1.6,2.4,3,2.9,5s0.8,4.3,0.6,6.3c-0.3,3.4-0.5,6.8-1.1,10.3c-0.5,3.4-1.1,6.8-1.3,10.2
		c-0.2,2.6-0.6,6,0.4,8.4h-0.1v0.1c0,0,0.1,0.1,0.1,0c-0.3-7.2,0.8-14.1,1.9-21.2c0.5-3.3,0.7-6.8,0.5-10.2
		c-0.1-1.5-0.3-3.2-0.9-4.5C190.6,283.9,189.4,282.6,188.3,281.2C188.3,281.1,188.2,281.2,188.3,281.2z"/>
	<path class="st14" d="M200.7,250.3c-2.4,3.6-4.2,7.9-5.8,11.9c-0.8,2.1-1.8,4.2-2.4,6.4c-0.7,2.4-0.9,4.8-1.4,7.2l0,0
		c0.7-2.1,1-4.3,1.6-6.4c0.7-2.3,1.6-4.7,2.5-6.9C196.9,258.3,198.7,254.3,200.7,250.3C200.8,250.3,200.8,250.2,200.7,250.3z"/>
	<path class="st14" d="M193.4,235.1c0.8,2.1,1.7,4.2,2.8,6.2c1.2,2.3,2.5,4.8,4.2,6.7c0.1,0.1,0.2,0,0.1-0.1
		C197.8,243.9,195.4,239.6,193.4,235.1L193.4,235.1z"/>
	<path class="st14" d="M210,225c-1,3.2-1.9,6.5-3.1,9.6c-0.9,2.6-1.7,5.4-3,7.8l0,0c1.5-2.5,2.4-5.5,3.4-8.2
		C208.4,231.2,209.3,228.1,210,225C210.2,225,210.1,224.9,210,225z"/>
</g>
<g>
	<path class="st8" d="M232.6,425.7c-0.5-1.6-0.4-3.5-0.5-4.8c-0.4-6.8-1.1-13.9-2.6-21c-2.6-12.3-8.4-25.4-15.4-37.3
		c-1.9,4.9-2.8,10.8-3.5,16.4c-0.5,4.1-0.4,8.6-0.4,12.9c0,2.2,0,4.3,0.4,6.6c0,0.1,0,0.2,0,0.3c-0.9-0.5-1.8-1.4-2.6-2.3
		c-0.2-0.5-0.4-1-0.5-1.4c-1.4-4.6-1.6-9.2-1.7-13.4c-0.1-3.8,0.2-7.2,0.8-10.6c0.5-3.3,1.2-7.2,1.2-11.1c0.2-4.6-0.6-9.6-3.1-14.5
		c-4.2-8.3-10.6-15.3-17.5-20.6c-3.2-2.5-6.5-4.2-9.8-6.4c-1.1-1-2.2-2-3.3-3.1c2.7-2,5.4-3.9,8.1-5.8c0.7-0.5,1.4-1,2.2-1.5
		c2.6,1.5,5.3,3.1,7.8,5.1c2.2,2.1,4.3,4.3,6.5,6.7c5.2,5.6,9.3,11.7,13.2,18.3c4.4,7.4,8.3,15.4,11.6,23.5c0,0,0.1,0,0.1,0.1
		c1.3,3,2.4,6.2,3.3,9.3c5.9,19.7,9.5,39.4,7.9,56.5C234.1,426.9,233.3,426.4,232.6,425.7z"/>
	<path class="st8" d="M209.5,398c0-0.7-0.1-1.4-0.2-2.1c-0.2-1.8-0.6-3.7-0.7-5.4c-0.1-5,0-9.8,0.4-14.5c0.4-4.1,1.2-7.9,2-11.7
		c0.6-3,1.2-6.1,0.8-9.7c1.4,2.3,2.1,4.8,2.4,7.2c0,0.3,0,0.5-0.1,0.8c0-0.1-0.1-0.1-0.1-0.2c-1.9,4.9-2.8,10.8-3.5,16.4
		c-0.5,4.1-0.4,8.6-0.4,12.9c0,2.2,0,4.3,0.4,6.6c0,0.1,0,0.2,0,0.3C210.2,398.6,209.8,398.3,209.5,398z"/>
	<path class="st8" d="M231.1,396.6c-1.5-8.3-4-16.8-7-25.2c-3.1-8.6-6.5-17.4-11-25.9c-4.2-7.9-9.6-15.8-15.9-22
		c-3.2-3-6.5-5.7-9.9-7.9c-2.5-1.6-5.1-3.1-7.7-4.6c0.8-0.6,1.7-1.2,2.5-1.8c0.7-0.5,1.4-1,2.2-1.5c2.6,1.5,5.3,3.1,7.8,5.1
		c2.2,2.1,4.3,4.3,6.5,6.7c5.2,5.6,9.3,11.7,13.2,18.3c4.4,7.4,8.3,15.4,11.6,23.5c0,0,0.1,0,0.1,0.1c1.3,3,2.4,6.2,3.3,9.3
		c5.9,19.7,9.5,39.4,7.9,56.5c-0.3-0.1-0.6-0.3-0.9-0.5C234.4,417.3,233,406.9,231.1,396.6z"/>
	<path class="st12" d="M207.9,395c-1.8-7.9-1.9-14.7-1.4-21.8c0.5-7.5,3.5-13.5,1.1-22.4c0-0.1,0.1-0.2,0.1,0
		c2.3,7.3,0.9,13.6-0.2,19.4c-1.4,7.3-1,16.2,0.5,24.8C208.1,395.1,208,395.1,207.9,395z"/>
	<path class="st12" d="M206.5,347.4c-3.8-8-8.7-14.3-14.9-20.3c-2.3-2.2-5-4-7.5-5.5c-2.8-1.6-5.4-3.5-8-5.7v-0.1
		c5.8,3.2,11.4,6.6,16.8,11.4c5.8,5.2,10.9,12.7,13.7,20C206.7,347.4,206.6,347.5,206.5,347.4z"/>
	<path class="st12" d="M232.3,414.9c-0.5-3.8-0.5-7.3-1.3-11.1c-0.9-4.3-2.2-8.8-3.5-13.2c-1.3-4.5-3.4-9.5-5.6-13.9c-1-2-2-4-3-6
		c-1.1-2.3-2.1-4.9-3.6-7.1c0-0.1,0-0.2,0-0.1c2.7,3.2,4.8,8.1,6.6,11.9c2.3,4.6,4.4,9.5,5.8,14.2c1.2,4.1,2.5,8.2,3.3,12.3
		C232,406.5,232.2,410.7,232.3,414.9C232.6,415.1,232.4,415.1,232.3,414.9z"/>
</g>
<g>
	<g>
		<path class="st13" d="M200.6,372.8c6.3,4,12,9,17.2,14.2c0.9,0.9,1.7,1.8,2.6,2.7c-1.6,0.4-3.1,1.2-4.6,1.6
			c-3.3,0.9-6.5,0.9-9.8,1.2c-0.3,0-0.7,0.3-0.8,0.6c-0.8,2.4,3.6,2,4.7,2c2.1-0.1,4-0.1,6-0.3c1-0.1,2.2-0.4,3.4-0.6
			c1.5-0.1,3-0.6,4.5-0.8h0.1c6.3,6.8,12.4,13.7,20.2,19c0.2,0.1,0.2,0.4,0.1,0.5c-3.2,3.6-7.8,6-12.1,8.1
			c-3.6,1.7-7.9,1.7-11.3,3.9c0.2,1,0.7,1.9,1.6,2.5c0.7-0.1,1.3-0.3,2-0.5c2.4-0.8,4.8-1.7,7.2-2.6c-0.2,1.4-0.8,2.8-1.2,4.1
			c-0.6,1.8-1,3.8-1.9,5.4c-0.6,1-0.2,1.7,0.9,1.7c1.2,0,2.3-2.9,2.7-3.7c0.3-0.6,0.6-1.2,0.9-1.9c1.2-2.3,2-4.9,2.7-7.2
			c3.7-1.7,7.3-3.8,11.2-5c3.6-1,7-1.3,10.7-0.5c4.5,0.9,8.5,4.1,12.4,6.5c3.3,2,6.6,3.9,10.2,5.4c1.8,0.7,3.6,1.4,5.3,2.1l0,0
			c0.9,0.2,1.7,0,2.3-0.4c1.2-1.2,2.2-2.4,2.5-2.7c0.4-0.5,0.8-1.1,1.1-1.7c0.1-0.2,0.2-0.4,0.2-0.7c0.4-1.6,0.1-2.8-0.6-3.9
			c-6.8-5.2-14.9-8.3-23.1-10.6c-4.9-1.3-9.8-2.4-14.6-3.7c-3.8-1.1-7.3-2.8-10.5-5c-4.5-2.4-8.3-5.7-12.3-9.1
			c-5-4.3-9.9-8.6-14.8-12.9c-2.5-2.2-5.2-4.4-7.9-6.4c-1.5-1.1-3.9-2.3-5.3-3.8C201.6,370.7,200.9,371.7,200.6,372.8z"/>
		<path class="st13" d="M233.4,423.2c-0.7,0.4-1.2,0.8-1.8,1.3c-0.2,1.3-0.8,2.7-1.2,3.9c-0.6,1.8-1,3.8-1.9,5.4
			c-0.5,0.8-0.3,1.5,0.5,1.7C230.5,431.4,232.6,427.5,233.4,423.2z"/>
		<path class="st13" d="M225.9,424.9c2.7-0.8,5.3-1.8,7.8-3.1c2.4-1.3,4.5-2.8,6.7-4.3c1.9-1.3,3.9-2.7,5.3-4.6
			c-0.5,0-1-0.1-1.4-0.2c0,0.1,0,0.2-0.1,0.3c-3.2,3.6-7.8,6-12.1,8.1c-3.6,1.7-7.9,1.7-11.3,3.9c0.1,0.4,0.2,0.8,0.4,1.1
			C222.7,425.5,224.3,425.3,225.9,424.9z"/>
		<path class="st13" d="M221.4,391.6c1.2-0.7,0.2-1.5-1-2l0,0c-1.6,0.4-3.1,1.2-4.6,1.6c-3.3,0.9-6.5,0.9-9.8,1.2
			c-0.3,0-0.7,0.3-0.8,0.6c-0.1,0.4-0.1,0.7,0,0.9c4,0.1,8.1-0.2,12-1.1C218.5,392.6,220.2,392.3,221.4,391.6z"/>
		<path class="st13" d="M202.3,372.5c4.2,2.9,8.5,5.6,12.3,8.9c4,3.4,7.6,7,11.3,10.7c1.7,1.7,3.4,3.6,5.3,5.1
			c1.1,0.8,2.1,1.6,3.1,2.5c9.2,8.4,21.1,12.2,33,15.2c8.4,2.2,18.6,4.6,23.8,12.2c0.2-0.2,0.3-0.5,0.4-0.7s0.1-0.4,0.2-0.6
			c0.4-1.6,0.1-2.8-0.6-3.9c-6.8-5.2-14.9-8.3-23.1-10.6c-4.9-1.3-9.8-2.4-14.6-3.7c-3.8-1.1-7.3-2.8-10.5-5
			c-4.5-2.4-8.3-5.7-12.3-9.1c-5-4.3-9.9-8.6-14.8-12.9c-2.5-2.2-5.2-4.4-7.9-6.4c-1.5-1.1-3.9-2.3-5.3-3.8
			c-0.6,0.3-1.2,0.9-1.6,1.5C201.5,372,201.9,372.3,202.3,372.5z"/>
	</g>
	<path class="st14" d="M232.8,429.2c-0.9,1.9-1.6,3.9-2.7,5.7l0,0c1.1-1.5,1.8-3.2,2.5-4.8c1-2.1,2-4.4,2.5-6.7c0-0.1-0.1-0.1-0.1,0
		C234.4,425.4,233.7,427.4,232.8,429.2z"/>
	<path class="st14" d="M222.4,427c3.2-0.8,6.7-1.5,9.6-3.1v-0.1C228.9,425.1,225.6,426,222.4,427L222.4,427z"/>
	<path class="st14" d="M249.3,416.7c1.9-0.4,3.6-1.1,5.7-0.8c2,0.3,4.3,0.9,6.1,1.8c3.1,1.6,6.1,3,9.1,4.8c2.9,1.8,5.9,3.5,9,5
		c2.4,1.2,5.3,2.8,7.9,2.8c0,0-0.1,0.1,0,0.1h0.1c0,0,0.1-0.1,0-0.1c-6.8-2.4-12.8-6.1-19-9.7c-2.9-1.7-6-3.2-9.2-4.3
		c-1.4-0.5-3.1-0.9-4.5-0.9C252.6,415.6,251,416.2,249.3,416.7C249.2,416.6,249.2,416.7,249.3,416.7z"/>
	<path class="st14" d="M225.3,393.5c2.5,3.5,5.7,6.9,8.9,9.8c1.7,1.6,3.2,3.2,5,4.6c2,1.6,4.1,2.6,6.2,4l0,0
		c-1.7-1.4-3.6-2.5-5.4-3.9c-1.9-1.5-3.7-3.2-5.5-4.9c-3.2-3.1-6.2-6.3-9.1-9.7C225.3,393.4,225.2,393.5,225.3,393.5z"/>
	<path class="st14" d="M208.5,394.7c2.3,0,4.5,0,6.8-0.2c2.5-0.3,5.4-0.5,7.8-1.3c0.1,0,0.1-0.1,0-0.1
		C218.2,393.8,213.4,394.5,208.5,394.7C208.5,394.6,208.4,394.7,208.5,394.7z"/>
	<path class="st14" d="M205.3,375.4c2.6,2.1,5.3,4.2,7.8,6.5c2,1.8,4.4,3.6,6.1,5.7l0,0c-1.7-2.3-4.2-4.3-6.3-6.2
		C210.6,379.2,208,377.2,205.3,375.4C205.4,375.3,205.3,375.4,205.3,375.4z"/>
</g>
<g>
	<path class="st13" d="M442.7,408.3c-1.5,0.6-2.9,1.5-4,2c-5.4,2.9-11.3,5.9-17.6,8.6c-11,4.6-24.6,8.4-38.2,11.2
		c2.5-2.9,6.4-5.9,10.3-8.8c2.8-2,6.2-4.1,9.6-6c1.7-1,3.3-1.9,5.2-2.9c0.1-0.1,0.2-0.1,0.3-0.1c-1-0.1-2.2-0.1-3.5,0.1
		c-0.5,0.1-1,0.3-1.4,0.5c-4.4,1.6-8,3.6-11.3,5.5c-2.9,1.7-5.3,3.4-7.6,5.1c-2.2,1.7-4.7,3.7-7.7,5.5c-3.4,2.1-7.6,4.1-13,5.5
		c-9,2.2-18.4,3-26.7,2.8c-3.9-0.1-7.3-0.5-11.1-0.7c-1.5,0-3,0.1-4.5,0.2c0.2,1.9,0.5,3.8,0.7,5.7c0.1,0.5,0.1,1,0.2,1.5
		c2.8,0.3,5.7,0.5,8.8,0.6c3-0.1,6.1-0.4,9.2-0.6c7.5-0.6,14.8-1.8,22.3-3.4c8.5-1.7,17-3.9,25.2-6.4c0,0,0.1,0,0.2,0
		c3.1-0.9,6.2-1.9,9.2-3c18.7-6.8,36-14.4,48-22.8C444.5,408.4,443.6,408.3,442.7,408.3z"/>
	<path class="st13" d="M407,412.3c-0.5,0.3-1.1,0.6-1.7,0.9c-1.5,0.7-3.2,1.4-4.5,2.2c-3.9,2.2-7.5,4.5-10.8,6.8
		c-2.9,2-5.2,4-7.6,6.1c-1.9,1.6-3.9,3.2-6.9,4.7c2.6-0.6,5-1.4,7-2.4c0.2-0.1,0.4-0.3,0.6-0.4c-0.1,0-0.1,0-0.2,0
		c2.5-2.9,6.4-5.9,10.3-8.8c2.8-2,6.2-4.1,9.6-6c1.7-1,3.3-1.9,5.2-2.9c0.1-0.1,0.2-0.1,0.3-0.1C407.8,412.3,407.4,412.3,407,412.3z
		"/>
	<path class="st13" d="M419.6,421c-7.3,3.2-15.3,6.2-23.6,8.9c-8.5,2.8-17.4,5.5-26.6,7.7c-8.7,2-18.1,3.6-26.8,4.1
		c-4.3,0.2-8.4,0.2-12.3-0.1c-2.8-0.2-5.6-0.5-8.4-0.8c0.1,0.6,0.2,1.2,0.3,1.7c0.1,0.5,0.1,1,0.2,1.5c2.8,0.3,5.7,0.5,8.8,0.6
		c3-0.1,6.1-0.4,9.2-0.6c7.5-0.6,14.8-1.8,22.3-3.4c8.5-1.7,17-3.9,25.2-6.4c0,0,0.1,0,0.2,0c3.1-0.9,6.2-1.9,9.2-3
		c18.7-6.8,36-14.4,48-22.8c-0.3-0.1-0.6-0.1-1-0.1C437.5,412.8,428.6,417,419.6,421z"/>
	<path class="st14" d="M403.7,413.1c-7.2,2.9-12.4,6-17.5,9.4c-5.4,3.6-8.1,7.4-16.3,10.6c-0.1,0-0.1,0.1,0,0.1
		c7.1-2.5,11-5.8,14.7-8.9C389.3,420.5,396.3,416.5,403.7,413.1C403.9,413.1,403.8,413.1,403.7,413.1z"/>
	<path class="st14" d="M366.5,434.3c-8.5,2.2-16.4,3.3-24.9,3.7c-3.2,0.1-6.2,0-8.9-0.3c-3-0.3-6-0.4-9.4-0.4c0,0-0.1,0,0,0
		c6.1,0.7,12.2,1.3,19.4,1.1C350.3,438.1,359.2,436.6,366.5,434.3C366.7,434.3,366.7,434.2,366.5,434.3z"/>
	<path class="st14" d="M434.3,413.2c-3.2,1.5-5.9,3.1-9.3,4.6c-3.9,1.7-8.1,3.2-12.2,4.7c-4.3,1.6-9.4,3.1-14.1,4.3
		c-2.2,0.5-4.3,1.1-6.5,1.6c-2.5,0.6-5.1,1.4-7.7,1.9c-0.1,0-0.1,0.1,0,0.1c4.2-0.4,9.2-1.9,13.2-2.9c5-1.2,10-2.7,14.5-4.3
		c3.9-1.4,7.8-2.8,11.5-4.4c4.1-1.7,7.5-3.6,10.9-5.5C434.6,413.2,434.4,413.1,434.3,413.2z"/>
</g>
<g>
	<path class="st8" d="M389.1,98.2c3.1,1.3,6.2,2.8,9.4,3.9c2.1,0.7,4.3,1.3,6.4,1.8c1.8,0.8,3.7,1.5,5.6,2.1c-1.7,0.5-3.4,1-5.2,1.3
		c-1.8,0.4-3.7,0.8-5.5,1c-0.4,0-0.7,0-1.1,0c-2.3-0.1-4.6-0.7-6.8-1.3c-2.2-0.5-4.4-1.2-6.6-1.9c-1.3-0.4-2.6-1-3.1,0.2
		c2.7,1.2,5.4,2.4,8.2,3.3c2.7,0.8,5.5,1.1,8.3,1.4c-0.4,0.3-0.8,0.5-1.2,0.8c-0.4,0.2-0.9,0.3-1.3,0.5c-1.1,0.4-2.3,0.9-3.5,1.2
		c-0.2,0-0.3,0.1-0.5,0.1c-1,0.2-1.9,0.4-2.9,0.6c-1.2,0.2-2.5,0.2-3.6,0.4c-1.6,0.4-3.5,0.2-4.9,1c-0.3,0.2-0.2,0.6,0.1,1
		c0.5,0,1,0.1,1.5,0.1c1,0,2-0.1,3-0.1h0.1c2.2-0.2,4.3-0.7,6.4-1.1c1.9-0.4,4-0.7,5.8-1.3c2.1-0.7,3.6-2,5.4-3
		c1.7-0.9,3.8-1,5.8-1.4c1.8-0.4,3.4-1,5.1-1.5c1.8-0.5,3.4-0.5,5.4-0.3c2.5,0.3,4.9,0.7,7.4,1c1.4,0.1,2.8,0.3,4.1,0.5
		c0.8,0.1,1.6,0.2,2.4,0.4c0.6,0.1,1.1,0.3,1.6,0.4c1.9,0.3,3.8,0.8,5.7,1.5c3.4,1.3,6.6,2.9,9.8,4.4c1.6,0.8,3.1,1.5,4.8,2.2
		c1.6,0.7,3.2,1.2,4.9,1.8c1.6,0.6,2.8,1.3,4.2,2.3c0.3,0.2,0.6,0.4,0.9,0.7c1.5,0.2,3.1-0.4,2.9-1.9c-0.1-0.4-0.2-0.7-0.3-1.1
		c-0.1,0-0.2-0.1-0.2-0.1c-0.4-0.2-0.9-0.5-1.3-0.7c-0.9-0.5-1.7-0.9-2.6-1.4c-1.4-0.7-2.7-1.5-4.2-2.1s-3.1-1-4.6-1.5
		c-2.8-0.9-5.5-1.9-8.1-3.3c-0.5-0.3-2.3-2-2.7-2.8c-0.9-1.9-2.4-4.3-3.3-6.2c-2.1-4.1-4.6-7.9-7.9-11.5c-1.6-1.7-3.2-3.4-4.9-5
		c-1.4-1.3-3-2.3-4.5-3.5s-2.7-2.5-4-3.9c-2.2-1.7-4.2-3.6-6.3-5.4c-1.2-1-2.3-2.6-3.3-3.7c-0.4-0.5-1-1.1-1.7-0.9
		c-0.5,0.1-0.8,0.7-0.6,1.1c2.3,1.6,3.9,3.9,6.1,5.7c2.2,1.8,6.3,5.5,7.2,6.3c0.2,0.2,0.4,0.3,0.7,0.5c0.1,0.1,0,0.3-0.1,0.2
		c-2.4-1.1-5-1.2-7.4-2.1c-1.7-0.6-3.2-1.4-4.8-2.2c-0.1,0-0.3-0.1-0.4-0.1c-2.8-1.1-5.4-2.9-8.1-4.3c-0.4,0.2-0.6,0.5-0.5,0.9
		c2.1,1.2,4.2,2.4,6.3,3.6c3.3,1.8,6.7,3.4,10.3,4.4c1.7,0.5,3.5,0.8,5.2,1.5c1.3,0.6,2.4,1.3,3.4,2.2c1.3,1.2,2.3,2.5,3.3,3.8
		c0.9,0.9,1.8,1.8,2.8,2.7c1.1,1.3,2.1,2.5,3,3.9c1.5,2.2,2.5,4.7,3.8,7c0.7,1.3,3,5.2,2.8,5.1c-2.3-0.9-4.8-1.1-7.1-1.5
		c-2.3-0.4-4.6-0.9-6.9-1c-4-0.2-8,0.2-12.1-0.5c-1.9-0.3-3.8-0.9-5.6-1.6c-1.3-0.4-2.5-1.1-3.6-1.9c-0.6-0.4-1.2-0.8-1.8-1.2
		c-1.8-1.4-3.8-2.7-5.4-4.2c-0.8-0.7-1.6-1.6-2.6-2c-0.4-0.2-1.2-0.5-1.5-0.1c-0.1,0.1-0.1,0.3-0.1,0.5l0.1,0.1
		c1.6,1.2,3.3,2.4,4.8,3.7c1,0.9,2,1.8,3.1,2.7c0.7,0.5,1.4,0.9,2.2,1.3c0.2,0.1,0.1,0.3-0.1,0.2c-3.1-0.9-6.2-1.5-9.3-2.5
		c-1.4-0.5-2.7-1-4-1.7c-0.7-0.3-1.4-0.7-2.1-1c-0.4-0.1-0.8-0.3-1.2-0.4c-0.3-0.1-0.9-0.1-1.1,0.1
		C387.1,97.3,388.1,97.8,389.1,98.2z"/>
	<path class="st8" d="M383,114.3c2.2-0.2,4.4-0.4,6.5-0.7c2.3-0.3,4.5-0.8,6.6-1.6c0.9-0.3,1.8-0.7,2.6-1.1c0.4-0.2,0.9-0.5,1.1-0.9
		c0.1-0.1,0.1-0.2,0.2-0.3c-0.5,0.1-1,0.2-1.5,0.3c-0.4,0.2-0.7,0.4-1.1,0.7c-0.4,0.2-0.9,0.3-1.3,0.5c-1.1,0.4-2.3,0.9-3.5,1.2
		c-0.2,0-0.3,0.1-0.5,0.1c-1,0.2-1.9,0.4-2.9,0.6c-1.2,0.2-2.5,0.2-3.6,0.4c-1.6,0.4-3.5,0.2-4.9,1c-0.3,0.2-0.2,0.5,0,0.8
		C381,114.6,382,114.4,383,114.3z"/>
	<path class="st8" d="M387.3,106.1c3.2,0.9,6.2,2.2,9.5,2.6c2.9,0.3,5.7,0.1,8.4-0.5c1.3-0.3,2.5-0.7,3.7-1.1s2.5-0.7,3.7-1.2
		c-0.7-0.1-1.3-0.1-1.9-0.1c0,0,0,0,0.1,0c-1.7,0.5-3.4,1-5.2,1.3c-1.8,0.4-3.7,0.8-5.5,1c-0.4,0-0.7,0-1.1,0
		c-2.3-0.1-4.6-0.7-6.8-1.3c-2.2-0.5-4.4-1.2-6.6-1.9c-1.3-0.4-2.6-1-3.1,0.2h0.1C383.7,104.8,385.8,105.6,387.3,106.1z"/>
	<path class="st8" d="M386.9,96.9c0.8,0.1,1.6,0.4,2.4,0.7c1.4,0.6,2.8,1.2,4.2,1.8c1.7,0.7,3.4,1.4,5.1,2c1.5,0.5,3.1,0.7,4.6,1
		c3.4,0.5,6.5,2,9.8,2.8c0.9,0.2,1.7,0.4,2.5,0.3c0.7,0,1.3-0.1,2-0.1c1.4,0.1,2.8,0.2,4.3,0.4c0.5,0,0.9-0.1,1.4,0
		c2.1,0.3,4.2,0.7,6.4,1c2.1,0.3,4.3,0.3,6.4,0.8c1.6,0.4,3.2,0.9,4.8,1.6c1.5,0.6,3,1.2,4.4,2.1c1.4,0.8,2.7,1.2,4.2,1.7
		c3.1,1,6.2,2.2,9.1,3.6c1.5,0.7,3.1,1.4,4.6,2.2c0.7,0.4,2.1,0.6,2.6,1.2c0.6,0.6,0.4,1.5,0,2l-0.1,0.1c1.3,0,2.4-0.7,2.2-1.9
		c-0.1-0.4-0.2-0.7-0.3-1.1c-0.1,0-0.2-0.1-0.2-0.1c-0.4-0.2-0.9-0.5-1.3-0.7c-0.9-0.5-1.7-0.9-2.6-1.4c-1.4-0.7-2.7-1.5-4.2-2.1
		s-3.1-1-4.6-1.5c-2.8-0.9-5.5-1.9-8.1-3.3c-0.5-0.3-2.3-2-2.7-2.8c-0.9-1.9-2.4-4.3-3.3-6.2c-2.1-4.1-4.6-7.9-7.9-11.5
		c-1.6-1.7-3.2-3.4-4.9-5c-1.4-1.3-3-2.3-4.5-3.5s-2.7-2.5-4-3.9c-2.2-1.7-4.2-3.6-6.3-5.4c-1.2-1-2.3-2.6-3.3-3.7
		c-0.4-0.5-1-1.1-1.7-0.9c-0.2,0.1-0.3,0.2-0.4,0.3c0.7,0.6,1.3,1.3,1.9,1.9c1.6,1.7,3.5,3.1,5.2,4.7c1.7,1.5,3.3,3,5.1,4.4
		c0.8,0.6,2.2,1.7,2.3,2.6c0,0.1-0.1,0.1-0.2,0.1c-0.6-0.1-1.2-0.4-1.7-0.7c-2.1-0.7-4.3-0.9-6.4-1.7c-1.7-0.6-3.2-1.4-4.8-2.2
		c-0.1,0-0.3-0.1-0.4-0.1c-2.8-1.1-5.4-2.9-8.1-4.3c-0.2,0.1-0.4,0.3-0.5,0.5c0.7,0.4,1.4,0.8,2.2,1.2c4.6,2.6,9.3,5,14.4,6.4
		c2.2,0.6,4.5,1.1,6.6,2.2c2,1.1,3.7,2.6,5.3,4.1c3.3,3.1,6,6.5,8,10.3c1,1.9,2.1,3.7,3.3,5.6c1.1,1.7,2.1,3.4,2.7,5.3
		c0,0.1-0.1,0.2-0.2,0.1c-0.4-0.2-0.9-0.5-1.3-0.7v0.1c-2.3-0.9-4.8-1.1-7.1-1.5c-2.3-0.4-4.6-0.9-6.9-1c-4-0.2-8,0.2-12.1-0.5
		c-1.9-0.3-3.8-0.9-5.6-1.6c-1.3-0.4-2.5-1.1-3.6-1.9c-0.6-0.4-1.2-0.8-1.8-1.2c-1.8-1.4-3.8-2.7-5.4-4.2c-0.8-0.7-1.6-1.6-2.6-2
		c-0.4-0.2-1.2-0.5-1.5-0.1c-0.1,0.1-0.1,0.3-0.1,0.5l0.1,0.1c1.6,1.2,3.3,2.4,4.8,3.7c1,0.9,2,1.8,3.1,2.7c0.7,0.5,1.4,0.9,2.2,1.3
		c0.2,0.1,0.1,0.3-0.1,0.2c-3.1-0.9-6.2-1.5-9.3-2.5c-1.4-0.5-2.7-1-4-1.7c-0.7-0.3-1.4-0.7-2.1-1c-0.4-0.1-0.8-0.3-1.2-0.4
		c-0.3-0.1-0.9-0.1-1.1,0.1C386.7,96.6,386.8,96.7,386.9,96.9z"/>
	<path class="st12" d="M383.5,115.2c1.6-0.2,3.2-0.3,4.7-0.5c1.6-0.2,3.1-0.6,4.7-0.9c2.9-0.5,5.8-1,7.7-2.9c0.1-0.1,0-0.1-0.1-0.1
		c-1.1,0.7-2.1,1.4-3.5,1.7c-1.6,0.4-3.3,0.8-5,1.1c-1.5,0.3-2.9,0.6-4.4,0.9C386.3,114.7,384.8,114.8,383.5,115.2
		C383.4,115.1,383.4,115.2,383.5,115.2z"/>
	<path class="st12" d="M386.5,106.7c2.8,1,5.1,2,8,2.2c0,0,0.1,0,0,0C391.8,108.5,389.2,107.5,386.5,106.7
		C386.5,106.6,386.4,106.7,386.5,106.7z"/>
	<path class="st12" d="M444.8,112.3c1.5,0.7,3.2,1.2,4.7,1.9c1.7,0.8,3.4,1.7,5.2,2.5c1.5,0.7,2.9,1.3,4.5,1.7
		c0.9,0.2,1.7,0.4,2.5,0.9s2.1,1,2.8,1.7h0.1c-0.3-0.9-1.9-1.7-2.8-2.2c-0.6-0.3-1.2-0.5-1.8-0.7c-1.1-0.3-2.2-0.6-3.2-1
		c-2-0.8-3.9-1.8-5.9-2.6C448.9,113.6,446.9,113.1,444.8,112.3C444.9,112.2,444.8,112.3,444.8,112.3z"/>
	<path class="st12" d="M417.7,106.4c1.7,0.3,3.5,0.2,5.2,0.5c1.9,0.3,3.9,0.6,5.8,0.8c2.1,0.2,4.2,0.4,6.3,1c1.7,0.5,3.4,1,5.1,1.2
		c0,0,0.1,0,0,0c-1.7-0.4-3.3-1-4.9-1.5c-1.9-0.6-3.9-0.7-5.9-0.9c-2-0.2-3.9-0.5-5.9-0.7C421.5,106.4,419.7,106.4,417.7,106.4
		C417.6,106.3,417.6,106.4,417.7,106.4z"/>
	<path class="st12" d="M427.9,87.8c2.2,2.4,4.7,4.6,6.5,7.2c1.7,2.4,2.6,5.1,4.4,7.4h0.1c-1.6-2.4-2.5-5.1-4.2-7.5
		c-0.8-1.2-1.9-2.4-3-3.5C430.5,90.2,429.4,88.9,427.9,87.8C428,87.7,427.9,87.8,427.9,87.8z"/>
	<path class="st12" d="M413.5,79.8c0.3,0.2,0.5,0.3,0.8,0.4c0.4,0.2,0.9,0.2,1.3,0.4c0,0,0.1,0,0,0c-0.3-0.2-0.6-0.3-0.9-0.4
		C414.3,80,414,79.9,413.5,79.8C413.5,79.7,413.5,79.8,413.5,79.8z"/>
</g>
<g>
	<path class="st8" d="M180.5,228.8c0.1,3.4-0.2,6.8,0.1,10.2c0.2,2.2,0.6,4.4,1,6.7c0,2,0.1,4,0.3,6c-1.4-1.4-2.8-2.8-4-4.3
		c-1.4-1.6-2.6-3.2-3.9-4.7c-0.2-0.4-0.4-0.7-0.5-1c-0.9-2.1-1.3-4.5-1.8-6.8c-0.5-2.2-0.8-4.6-1-6.9c-0.1-1.4-0.1-2.9-1.8-2.8
		c-0.1,3-0.2,6,0.2,8.8c0.3,2.9,1.4,5.4,2.4,8.2c-0.5-0.3-1-0.6-1.5-0.9c-0.4-0.4-0.8-0.7-1.2-1c-1-0.9-2.1-1.9-3.1-2.8
		c-0.1-0.2-0.3-0.3-0.4-0.5c-0.7-0.9-1.4-1.6-2.1-2.5c-0.9-1-1.4-2.2-2.2-3.2c-1.2-1.4-2-3.2-3.6-4.1c-0.4-0.3-0.8,0.1-1,0.4
		c0.2,0.4,0.4,0.9,0.6,1.5c0.5,0.8,1,1.8,1.6,2.8c0,0.1,0,0.1,0.1,0.2c1.3,1.9,2.9,3.7,4.4,5.5c1.4,1.6,2.7,3.5,4.3,4.9
		c1.8,1.6,4,2.6,6,3.9c1.9,1.3,3,3.2,4.4,4.8c1.3,1.5,2.8,2.7,4.2,4.2c1.4,1.4,2.2,3,3,4.9c0.9,2.4,1.5,4.9,2.4,7.2
		c0.5,1.3,1,2.6,1.4,4c0.3,0.8,0.6,1.5,0.7,2.3c0.2,0.6,0.2,1.1,0.3,1.7c0.5,1.9,0.9,3.8,0.9,5.8c0.2,3.6-0.1,7.2-0.3,10.8
		c-0.1,1.7-0.2,3.5-0.3,5.2c0,1.7,0.2,3.5,0.3,5.1c0.1,1.7-0.1,3.1-0.6,4.7c-0.1,0.4-0.2,0.7-0.3,1.1c0.4,1.5,2,2.8,3.6,2
		c0.4-0.2,0.8-0.4,1.1-0.7c0-0.1,0-0.2,0-0.2c0.1-0.5,0.1-0.9,0.2-1.4c0.1-0.9,0.3-1.9,0.3-3c0.2-1.6,0.4-3.1,0.3-4.7
		c-0.1-1.7-0.3-3.2-0.5-4.8c-0.4-2.9-0.4-5.9-0.1-8.8c0-0.6,1.2-2.9,2-3.6c1.8-1.6,3.8-3.7,5.5-5.4c3.6-3.4,6.9-7.2,9.5-11.6
		c1.2-2.1,2.4-4.3,3.4-6.5c0.8-1.8,1.2-3.6,1.9-5.5c0.7-1.8,1.6-3.5,2.5-5.1c0.9-2.7,2.1-5.2,3.2-7.8c0.6-1.4,1.8-3.1,2.7-4.4
		c0.3-0.5,0.8-1.3,0.2-1.9c-0.5-0.4-1.3-0.5-1.7-0.2c-0.7,2.7-2.6,5-3.7,7.7c-1.1,2.7-3.2,7.9-3.8,9c-0.1,0.3-0.2,0.5-0.3,0.8
		c0,0.1-0.3,0.1-0.4,0c0.2-2.7-1-5.1-1.1-7.7c-0.1-1.7,0-3.5,0.2-5.3c0-0.1,0-0.3,0-0.4c-0.1-3.1,0.7-6,1-9
		c-0.4-0.2-0.9-0.3-1.3-0.1c-0.3,2.4-0.7,4.7-1.1,7.2c-0.5,3.8-0.8,7.5-0.1,11.2c0.2,1.8,0.7,3.6,0.7,5.4c-0.1,1.4-0.4,2.7-1,4
		c-0.7,1.6-1.7,3-2.8,4.5c-0.6,1.2-1.1,2.4-1.8,3.6c-0.9,1.5-1.9,2.9-3,4.2c-1.8,2.3-4.2,4.1-6.2,6.1c-1.1,1.1-4.5,4.8-4.5,4.6
		c-0.1-2.4-1.1-4.8-1.6-7.1c-0.6-2.3-1.3-4.6-2.3-6.8c-1.7-3.8-4.1-7.3-5.3-11.4c-0.6-2-0.8-3.8-0.8-5.8c-0.1-1.4,0.1-2.7,0.4-4
		c0.1-0.7,0.3-1.4,0.5-2.1c0.7-2.2,1.3-4.5,2.3-6.6c0.4-1,1.1-2.1,1-3.2c0-0.4,0-1.3-0.6-1.5c-0.2,0-0.4,0-0.6,0.1l0,0.1
		c-0.6,2-1.1,3.9-2,5.8c-0.6,1.3-1.1,2.6-1.6,3.9c-0.3,0.8-0.4,1.7-0.4,2.5c0,0.2-0.3,0.3-0.3,0c-0.5-3.2-1.3-6.3-1.6-9.5
		c-0.2-1.5-0.1-2.9,0-4.3c0.1-0.7,0.1-1.5,0.2-2.3c0-0.4,0-0.9-0.2-1.3c0-0.3-0.3-0.8-0.7-1C180.5,226.6,180.4,227.8,180.5,228.8z"
		/>
	<path class="st8" d="M158.9,229c1.2,2,2.6,4,4,5.8c1.4,2,3.1,3.9,5,5.5c0.8,0.7,1.6,1.4,2.6,1.9c0.5,0.3,1,0.6,1.6,0.7
		c0.1,0,0.3,0.1,0.4,0c-0.3-0.4-0.7-0.9-1-1.3c-0.4-0.2-0.8-0.5-1.3-0.8c-0.4-0.4-0.8-0.7-1.2-1c-1-0.9-2.1-1.9-3.1-2.8
		c-0.1-0.2-0.3-0.3-0.4-0.5c-0.7-0.9-1.4-1.6-2.1-2.5c-0.9-1-1.4-2.2-2.2-3.2c-1.2-1.4-2-3.2-3.6-4.1c-0.3-0.2-0.7,0-0.9,0.2
		C157.6,227.3,158.3,228.2,158.9,229z"/>
	<path class="st8" d="M170.5,230c0.4,3.3,0.5,6.6,1.5,9.8c1,2.9,2.6,5.4,4.6,7.6c1,1.1,1.9,2,3,3c1,0.9,2.1,2.1,3.1,3
		c-0.2-0.7-0.5-1.2-0.8-1.8c0,0,0,0,0,0.1c-1.4-1.4-2.8-2.8-4-4.3c-1.4-1.6-2.6-3.2-3.9-4.7c-0.2-0.4-0.4-0.7-0.5-1
		c-0.9-2.1-1.3-4.5-1.8-6.8c-0.5-2.2-0.8-4.6-1-6.9c-0.1-1.4-0.1-2.9-1.8-2.8c0,0,0,0.1,0,0.1C170.2,226.3,170.3,228.5,170.5,230z"
		/>
	<path class="st8" d="M180.9,226.3c0.3,0.8,0.3,1.7,0.3,2.5c0,1.5,0,3,0,4.6c0,1.8,0,3.7,0.2,5.5c0.1,1.6,0.6,3.2,1.1,4.7
		c1,3.3,0.8,6.8,1.5,10.1c0.1,0.9,0.3,1.7,0.8,2.5c0.4,0.6,0.7,1.2,1,1.8c0.6,1.4,1.1,2.7,1.6,4.1c0.2,0.4,0.5,0.8,0.7,1.3
		c0.7,2.1,1.2,4.2,2,6.3c0.7,2.1,1.6,4.1,2.2,6.2c0.4,1.7,0.5,3.3,0.4,5c0.1,1.7,0.1,3.2-0.2,4.8c-0.2,1.6-0.1,3,0.1,4.6
		c0.3,3.2,0.4,6.5,0.3,9.8c0,1.7-0.2,3.4-0.3,5.1c0,0.8,0.3,2.1-0.1,2.9c-0.4,0.8-1.4,1-2.3,0.7c-0.1,0-0.1,0-0.3-0.1
		c0.7,1.1,1.9,2,3.3,1.4c0.4-0.2,0.8-0.4,1.1-0.7c0-0.1,0-0.2,0-0.2c0.1-0.5,0.1-0.9,0.2-1.4c0.1-0.9,0.3-1.9,0.3-3
		c0.2-1.6,0.4-3.1,0.3-4.7c-0.1-1.7-0.3-3.2-0.5-4.8c-0.4-2.9-0.4-5.9-0.1-8.8c0-0.6,1.2-2.9,2-3.6c1.8-1.6,3.8-3.7,5.5-5.4
		c3.6-3.4,6.9-7.2,9.5-11.6c1.2-2.1,2.4-4.3,3.4-6.5c0.8-1.8,1.2-3.6,1.9-5.5c0.7-1.8,1.6-3.5,2.5-5.1c0.9-2.7,2.1-5.2,3.2-7.8
		c0.6-1.4,1.8-3.1,2.7-4.4c0.3-0.5,0.8-1.3,0.2-1.9c-0.2-0.1-0.4-0.3-0.6-0.3c-0.3,0.9-0.8,1.7-1.3,2.5c-1.2,2.1-1.9,4.4-2.9,6.6
		c-1,2.1-1.9,4.2-2.6,6.4c-0.4,1-0.9,2.7-1.9,3.1c-0.1,0-0.2,0-0.3-0.1c-0.2-0.6-0.2-1.3-0.1-1.9c-0.1-2.2-1.1-4.3-1.2-6.6
		c-0.1-1.7,0-3.5,0.2-5.3c0-0.1,0-0.3,0-0.4c-0.1-3.1,0.7-6,1-9c-0.3-0.2-0.6-0.3-0.8-0.3c-0.1,0.9-0.3,1.6-0.4,2.5
		c-0.8,5.2-1.2,10.5-0.5,15.7c0.4,2.3,0.9,4.6,0.6,7c-0.3,2.3-1.3,4.3-2.2,6.4c-2,4.3-4.7,8-7.9,11.3c-1.6,1.6-3.3,3.4-4.9,5.1
		c-1.4,1.6-3,3.2-4.8,4.5c-0.1,0-0.2,0-0.2-0.1c0.1-0.5,0.1-0.9,0.2-1.4c-0.1,0-0.1,0-0.1,0c-0.1-2.4-1.1-4.8-1.6-7.1
		c-0.6-2.3-1.3-4.6-2.3-6.8c-1.7-3.8-4.1-7.3-5.3-11.4c-0.6-2-0.8-3.8-0.8-5.8c-0.1-1.4,0.1-2.7,0.4-4c0.1-0.7,0.3-1.4,0.5-2.1
		c0.7-2.2,1.3-4.5,2.3-6.6c0.4-1,1.1-2.1,1-3.2c0-0.4,0-1.3-0.6-1.5c-0.2,0-0.4,0-0.6,0.1l0,0.1c-0.6,2-1.1,3.9-2,5.8
		c-0.6,1.3-1.1,2.6-1.6,3.9c-0.3,0.8-0.4,1.7-0.4,2.5c0,0.2-0.3,0.3-0.3,0c-0.5-3.2-1.3-6.3-1.6-9.5c-0.2-1.5-0.1-2.9,0-4.3
		c0.1-0.7,0.1-1.5,0.2-2.3c0-0.4,0-0.9-0.2-1.3c0-0.3-0.3-0.8-0.7-1C181.1,225.9,181,226.2,180.9,226.3z"/>
	<path class="st12" d="M158.2,229.9c1,1.4,1.9,2.8,2.9,4.3c1,1.4,2.3,2.7,3.3,4c1.9,2.5,4,5,7.1,6c0.1,0,0.1,0,0-0.1
		c-1.3-0.8-2.6-1.5-3.7-2.6c-1.3-1.4-2.5-2.7-3.7-4.3c-1-1.3-2-2.4-3.1-3.7C160.1,232.3,159.3,231,158.2,229.9
		C158.2,229.7,158.1,229.8,158.2,229.9z"/>
	<path class="st12" d="M169.3,229.5c0.2,3,0.1,5.5,1.3,8.2c0,0,0,0.1,0.1,0c-0.8-2.6-0.9-5.5-1.2-8.3
		C169.5,229.4,169.4,229.4,169.3,229.5z"/>
	<path class="st12" d="M191,285.8c-0.1,1.7,0.1,3.4,0,5.1c0,1.9-0.3,3.8-0.3,5.7c-0.1,1.6-0.1,3.2,0.2,4.8c0.1,0.9,0.3,1.7,0.2,2.6
		c-0.2,1-0.2,2.3-0.6,3.2l0,0.1c0.9-0.6,1.1-2.3,1.2-3.4c0.1-0.6,0-1.3-0.1-1.9c-0.2-1.1-0.3-2.2-0.4-3.4c-0.1-2.1,0.2-4.3,0.2-6.4
		c0-2.1-0.4-4.2-0.3-6.3C191.3,285.8,191.1,285.7,191,285.8z"/>
	<path class="st12" d="M184.8,258.3c0.6,1.7,1.5,3.3,2,5c0.6,1.9,1.2,3.9,1.9,5.8c0.8,2,1.6,4,1.9,6.2c0.2,1.8,0.5,3.4,1.1,5.3
		c0,0,0,0.1,0,0c-0.3-1.7-0.4-3.4-0.6-5.2c-0.2-2-1-4-1.8-5.8c-0.7-1.9-1.3-3.8-2-5.7C186.7,262,185.7,260.2,184.8,258.3
		C184.9,258.3,184.8,258.3,184.8,258.3z"/>
	<path class="st12" d="M211.2,261c-1.7,2.9-3,6-5.1,8.7c-2,2.5-4.5,4.3-6.4,6.9l0,0.1c2-2.4,4.6-4.2,6.6-6.6c1-1.2,1.9-2.7,2.6-4
		c0.8-1.5,1.8-3.1,2.4-4.8C211.3,261,211.1,260.9,211.2,261z"/>
	<path class="st12" d="M213.3,244.6c-0.1,0.3,0,0.6-0.1,0.9c0,0.4,0.2,0.9,0.2,1.3l0,0.1c0-0.4,0-0.7-0.1-1
		C213.6,245.5,213.6,245.1,213.3,244.6C213.6,244.6,213.4,244.6,213.3,244.6z"/>
</g>
<g>
	<path class="st15" d="M274.7,90.7c-4.4-6.1-2.9-13.8,0.9-15.6s11,1.8,12.7,9.2c2,8.6,2.9,13.8-0.9,15.6
		C283.6,101.7,280.2,98.4,274.7,90.7z"/>
	<path class="st16" d="M286.8,100.7c-0.1-11.4-5.5-17.8-10.8-20.5"/>
	<line class="st17" x1="274.7" y1="85.2" x2="279.5" y2="84.9"/>
	<line class="st17" x1="280.9" y1="81.7" x2="281.7" y2="79.2"/>
	<line class="st17" x1="283.1" y1="85.9" x2="284.8" y2="82.5"/>
	<line class="st17" x1="276.2" y1="88.9" x2="282.2" y2="88.3"/>
</g>
<g>
	<path class="st15" d="M317.3,91.9c-3-0.1-3.9-3.7-5.1-10c-1-5.3,2.7-9.8,5.7-9.7c3,0.1,6.3,4.7,5.1,10
		C321.6,88.9,320.3,92,317.3,91.9z"/>
	<path class="st16" d="M319.1,75.7c-2.7,3.3-4.4,9-1.2,16.5"/>
	<line class="st17" x1="318.2" y1="79.8" x2="321.4" y2="78.6"/>
	<line class="st17" x1="315" y1="76.7" x2="316.3" y2="78.1"/>
	<line class="st17" x1="314" y1="79.8" x2="316.1" y2="81.5"/>
	<line class="st17" x1="317.4" y1="82.8" x2="321.5" y2="81.5"/>
</g>
<g>
	<path class="st15" d="M313.6,111.3c2.1,1.7,0.8,4.9-1.7,10.1c-2.2,4.5-7.3,5.7-9.4,4s-2-6.8,1.7-10.1
		C308.8,111.2,311.4,109.6,313.6,111.3z"/>
	<path class="st16" d="M303.5,122.2c3.8-0.9,8.1-4.2,9.8-11.5"/>
	<line class="st17" x1="306.4" y1="119.7" x2="303.4" y2="118.8"/>
	<line class="st17" x1="307" y1="123.7" x2="306.8" y2="121.9"/>
	<line class="st17" x1="309.4" y1="122" x2="308.8" y2="119.6"/>
	<line class="st17" x1="308.6" y1="117.9" x2="304.8" y2="116.7"/>
</g>
<g>
	<path class="st15" d="M342.2,101.6c4.5-4.3,11.3-0.5,22.4,6.8c9.5,6.2,10.7,18.2,6.3,22.5c-4.5,4.3-16.1,2.6-22.4-6.8
		C340.5,112.4,337.7,105.9,342.2,101.6z"/>
	<path class="st16" d="M363.9,127.6c-1-8.8-7.2-19.6-23.1-25.6"/>
	<line class="st17" x1="359" y1="120.4" x2="356.2" y2="126.9"/>
	<line class="st17" x1="368.3" y1="120.2" x2="364.3" y2="120"/>
	<line class="st17" x1="365.2" y1="114.1" x2="359.6" y2="114.8"/>
	<line class="st17" x1="355.7" y1="114.8" x2="351.8" y2="123"/>
</g>
<g>
	<path class="st15" d="M351.7,77c-3.8-1.8-2.9-7-0.9-15.6c1.7-7.4,8.9-11,12.7-9.2c3.8,1.8,5.3,9.5,0.9,15.6
		C358.9,75.6,355.5,78.8,351.7,77z"/>
	<path class="st16" d="M363.1,57.3c-5.3,2.7-10.6,9-10.8,20.5"/>
	<line class="st17" x1="359.6" y1="62" x2="364.4" y2="62.3"/>
	<line class="st17" x1="357.4" y1="56.3" x2="358.2" y2="58.8"/>
	<line class="st17" x1="354.3" y1="59.6" x2="356" y2="63"/>
	<line class="st17" x1="356.9" y1="65.4" x2="363" y2="66"/>
</g>
<g>
	<path class="st15" d="M446.2,391.6c-5.5,0.8-8.3-5.6-12.4-16.6c-3.5-9.4,1.9-18.7,7.4-19.4c5.5-0.8,12.9,6.6,12.4,16.6
		C453.1,384.8,451.7,390.9,446.2,391.6z"/>
	<path class="st16" d="M444.3,361.6c-3.9,6.9-5.1,17.8,3.1,30.5"/>
	<line class="st17" x1="444" y1="369.3" x2="449.5" y2="366.2"/>
	<line class="st17" x1="437.2" y1="364.6" x2="440.1" y2="366.8"/>
	<line class="st17" x1="436.3" y1="370.6" x2="440.7" y2="373.1"/>
	<line class="st17" x1="443.4" y1="375.1" x2="450.5" y2="371.3"/>
</g>
<g>
	<path class="st15" d="M462.3,379.1c-2.2-1.1-1.7-4.1-0.5-9.2c1-4.3,5.2-6.4,7.5-5.4c2.2,1.1,3.1,5.6,0.5,9.2
		C466.5,378.3,464.5,380.2,462.3,379.1z"/>
	<path class="st16" d="M469,367.6c-3.1,1.6-6.2,5.3-6.3,12"/>
	<line class="st17" x1="467" y1="370.4" x2="469.8" y2="370.5"/>
	<line class="st17" x1="465.6" y1="367" x2="466.1" y2="368.5"/>
	<line class="st17" x1="463.8" y1="368.9" x2="464.8" y2="370.9"/>
	<line class="st17" x1="465.4" y1="372.3" x2="468.9" y2="372.7"/>
</g>
<g>
	<path class="st15" d="M439.9,416.4c2.4,1.2,1.9,4.5,0.6,10.1c-1.1,4.8-5.8,7.1-8.2,5.9s-3.4-6.1-0.6-10.1
		C435.3,417.4,437.4,415.3,439.9,416.4z"/>
	<path class="st16" d="M432.6,429.1c3.4-1.7,6.9-5.8,6.9-13.2"/>
	<line class="st17" x1="434.8" y1="426.1" x2="431.7" y2="425.9"/>
	<line class="st17" x1="436.2" y1="429.8" x2="435.7" y2="428.1"/>
	<line class="st17" x1="438.2" y1="427.6" x2="437.1" y2="425.4"/>
	<line class="st17" x1="436.5" y1="423.9" x2="432.6" y2="423.5"/>
</g>
<g>
	<path class="st15" d="M481.8,414.4c3.7,5.1,2.4,11.5-0.8,13c-3.1,1.5-9.2-1.5-10.6-7.6c-1.7-7.2-2.4-11.5,0.8-13
		C474.3,405.3,477.1,408,481.8,414.4z"/>
	<path class="st16" d="M471.6,406.1c0.1,9.5,4.6,14.8,9,17.1"/>
	<line class="st17" x1="481.7" y1="419" x2="477.7" y2="419.3"/>
	<line class="st17" x1="476.6" y1="422" x2="475.8" y2="424.1"/>
	<line class="st17" x1="474.7" y1="418.5" x2="473.3" y2="421.3"/>
	<line class="st17" x1="480.5" y1="416" x2="475.5" y2="416.5"/>
</g>
<g>
	<path class="st15" d="M488.1,393.7c1.3-4,6.6-3.7,15.4-2.8c7.5,0.8,12,7.5,10.6,11.5c-1.3,4-8.8,6.5-15.4,2.8
		C490.3,400.6,486.7,397.6,488.1,393.7z"/>
	<path class="st16" d="M509,402.5c-3.3-4.9-10.3-9.5-21.6-8.2"/>
	<line class="st17" x1="503.9" y1="399.7" x2="504.1" y2="404.5"/>
	<line class="st17" x1="509.3" y1="396.7" x2="506.9" y2="397.9"/>
	<line class="st17" x1="505.6" y1="394.1" x2="502.4" y2="396.2"/>
	<line class="st17" x1="500.2" y1="397.4" x2="500.3" y2="403.5"/>
</g>
<text transform="matrix(1 0 0 1 227.6998 222.6339)" class="st18 st19">森</text>
<text transform="matrix(1 0 0 1 230.1002 287.6026)" class="st18 st19">存</text>
<text transform="matrix(1 0 0 1 230.1003 354.6005)" class="st18 st19">者</text>
<g>
	<defs>
		
			<rect id="SVGID_11_" x="340.1" y="395.2" transform="matrix(0.4601 -0.8878 0.8878 0.4601 -173.3086 540.2925)" width="35" height="35"/>
	</defs>
	<clipPath id="SVGID_12_">
		<use xlink:href="#SVGID_11_"  style="overflow:visible;"/>
	</clipPath>
	<path class="st20" d="M359.4,409.3c-6.2-3.2-16.7,4-19.2,8.9c-0.8,1.6-0.4,2.4-0.1,3.1c0.6,0.8,1.5,1.6,3.3,2.5
		c0.9,0.5,1.8,0.9,2.9,1.3c1.4,0.5,2.7,1.1,4,1.8s2.6,1.3,3.7,2.1c1,0.5,2,1.2,2.8,1.6c3.6,1.9,5.2,1.7,6.3-0.5
		C365.7,425.2,365.6,412.5,359.4,409.3z"/>
</g>
<g>
	<defs>
		
			<rect id="SVGID_13_" x="340.1" y="395.2" transform="matrix(0.4601 -0.8878 0.8878 0.4601 -173.3086 540.2925)" width="35" height="35"/>
	</defs>
	<clipPath id="SVGID_14_">
		<use xlink:href="#SVGID_13_"  style="overflow:visible;"/>
	</clipPath>
	<path class="st21" d="M351.2,405.4c0.6-1.2,2-6.4,0-7.4c-2.1-1.1-5.5,3-6.1,4.2c-0.9,1.7-0.1,3.7,1.6,4.6
		C348.4,407.7,350.3,407.1,351.2,405.4z"/>
</g>
<g>
	<defs>
		
			<rect id="SVGID_15_" x="340.1" y="395.2" transform="matrix(0.4601 -0.8878 0.8878 0.4601 -173.3086 540.2925)" width="35" height="35"/>
	</defs>
	<clipPath id="SVGID_16_">
		<use xlink:href="#SVGID_15_"  style="overflow:visible;"/>
	</clipPath>
	<path class="st22" d="M356.4,404.9c1.7,0.9,3.7,0.1,4.5-1.4c0.6-1.2,2-6.4,0-7.4c-2.1-1.1-5.5,3-6.1,4.2
		C354.1,402,354.7,404.1,356.4,404.9z"/>
</g>
<g>
	<defs>
		
			<rect id="SVGID_17_" x="340.1" y="395.2" transform="matrix(0.4601 -0.8878 0.8878 0.4601 -173.3086 540.2925)" width="35" height="35"/>
	</defs>
	<clipPath id="SVGID_18_">
		<use xlink:href="#SVGID_17_"  style="overflow:visible;"/>
	</clipPath>
	<path class="st23" d="M373.2,409.4c-2.1-1.1-5.5,3-6.1,4.2c-0.9,1.7-0.1,3.7,1.6,4.6c1.7,0.9,3.8,0.2,4.6-1.4
		C373.9,415.7,375.3,410.5,373.2,409.4z"/>
</g>
<g>
	<defs>
		
			<rect id="SVGID_19_" x="339.7" y="394.5" transform="matrix(0.4601 -0.8878 0.8878 0.4601 -172.9173 539.5101)" width="35" height="35"/>
	</defs>
	<clipPath id="SVGID_20_">
		<use xlink:href="#SVGID_19_"  style="overflow:visible;"/>
	</clipPath>
	<path class="st24" d="M364.2,408.5c1.7,0.9,3.7,0.1,4.5-1.4c0.6-1.2,2-6.4,0-7.4c-2.1-1.1-5.5,3-6.1,4.2
		C361.8,405.5,362.5,407.7,364.2,408.5z"/>
</g>
</svg>
