<?xml version="1.0" encoding="utf-8"?>
<!-- Generator: Adobe Illustrator 23.0.1, SVG Export Plug-In . SVG Version: 6.00 Build 0)  -->
<svg version="1.1" id="圖層_1" xmlns="http://www.w3.org/2000/svg" xmlns:xlink="http://www.w3.org/1999/xlink" x="0px" y="0px"
	 viewBox="0 0 708.66 510.24" style="enable-background:new 0 0 708.66 510.24;" xml:space="preserve">
<style type="text/css">
	.st0{fill:#65A9DC;}
	.st1{fill:#947F70;}
	.st2{fill:none;stroke:#FFFFFF;stroke-miterlimit:10;}
	.st3{fill:#67BE8D;}
	.st4{fill:#67BE8D;stroke:#231815;stroke-miterlimit:10;}
	.st5{fill:none;stroke:#231815;stroke-miterlimit:10;}
	.st6{fill:#DAB980;}
	.st7{fill:#956134;}
	.st8{fill:#403D34;}
	.st9{fill:#FFDB3F;}
	.st10{fill:#3BA261;}
	.st11{fill:#367473;}
	.st12{fill:#D0DBE0;}
	.st13{fill:#DAE24B;}
</style>
<path class="st0" d="M155.63,150.01c-49.5,9.8-99.2,9.7-149.1,0c-14.5-20.7,8.1-32,22.9-14.6c-7.8-20.9,18.4-40.3,36.6-14.6
	c3.7-17,32.8-17,34.8,6.4c2.7-16.6,31.6-14.7,29.6,2.3C143.03,111.71,174.03,127.71,155.63,150.01z"/>
<path class="st0" d="M532.37,56.11c49.5,9.8,99.2,9.7,149.1,0c14.5-20.7-8.1-32-22.9-14.6c7.8-20.9-18.4-40.3-36.6-14.6
	c-3.7-17-32.8-17-34.8,6.4c-2.7-16.6-31.6-14.7-29.6,2.3C544.97,17.81,513.87,33.81,532.37,56.11z"/>
<path class="st0" d="M86.68,51.23c49.5,9.8,99.2,9.7,149.1,0c14.5-20.7-8.1-32-22.9-14.6c7.8-20.9-18.4-40.3-36.6-14.6
	c-3.7-17-32.8-17-34.8,6.4c-2.7-16.6-31.6-14.7-29.6,2.3C99.28,12.83,68.18,28.93,86.68,51.23z"/>
<g>
	<g>
		<path class="st1" d="M629.01,284.8h20.69c1.78,0,3.23-1.45,3.23-3.29l-1.38-199.6c0-1.45-0.99-2.77-2.44-3.1l-0.86-0.2
			c-1.91-0.46-3.82,0.86-4.02,2.83l-18.45,199.8C625.58,283.15,627.1,284.8,629.01,284.8z"/>
		<g>
			<g>
				<path class="st1" d="M623.8,126.51c5.4,8.96,10.74,17.99,16.14,26.95c2.64,4.35,9.42,0.4,6.85-4.02
					c-5.4-8.96-10.74-17.99-16.14-26.95C628.02,118.14,621.17,122.16,623.8,126.51L623.8,126.51z"/>
			</g>
		</g>
		<g>
			<g>
				<path class="st1" d="M667.82,155.97c-9.82,14.89-19.64,29.79-29.52,44.61c-2.83,4.28,4.02,8.24,6.85,4.02
					c9.82-14.89,19.64-29.79,29.52-44.61C677.44,155.71,670.66,151.75,667.82,155.97L667.82,155.97z"/>
			</g>
		</g>
		<g>
			<g>
				<path class="st1" d="M656.69,93.5c-3.43,4.28-6.92,8.57-10.35,12.85c-1.32,1.65-1.58,3.95,0,5.6c1.38,1.38,4.28,1.65,5.6,0
					c3.43-4.28,6.92-8.57,10.35-12.85c1.32-1.65,1.58-3.95,0-5.6C660.9,92.11,658,91.85,656.69,93.5L656.69,93.5z"/>
			</g>
		</g>
		<path class="st2" d="M646.34,85.92c0,4.02,2.04,7.25,4.55,7.25"/>
		<path class="st2" d="M646.34,89.54c0,4.09,1.52,7.38,3.36,7.38"/>
		<path class="st2" d="M648.58,102.72c0,1.98-1.71,3.62-3.82,3.62"/>
		<path class="st2" d="M648.58,106.35c0,1.52-1.71,2.77-3.82,2.77"/>
		<path class="st2" d="M643.38,126.97c0,1.71,3.36,3.16,7.45,3.16"/>
		<path class="st2" d="M642.58,128.56c0,2.37,2.7,4.28,6,4.28"/>
		<path class="st2" d="M644.76,149.31c0,1.38-1.52,2.57-3.36,2.57"/>
		<path class="st2" d="M646.67,151.88c0,1.71-2.37,3.16-5.27,3.16"/>
		<path class="st2" d="M645.55,170.53c0,1.85,2.37,3.36,5.27,3.36"/>
		<path class="st2" d="M643.38,172.18c0,2.64,2.83,4.81,6.26,4.81"/>
		<path class="st2" d="M639.36,193.33c0,2.7-1.85,4.88-4.09,4.88"/>
		<path class="st2" d="M643.38,194.72c0,3.89-2.7,7.05-6.06,7.05"/>
		<path class="st2" d="M644.76,219.03c0,2.7,3.49,4.88,7.78,4.88"/>
		<path class="st2" d="M640.34,217.65c0,4.55,3.69,8.24,8.24,8.24"/>
		<path class="st2" d="M637.31,248.49c0,2.7-1.91,4.88-4.35,4.88"/>
		<path class="st2" d="M640.34,249.87c0,3.82-3.29,6.85-7.38,6.85"/>
	</g>
	<g>
		<path class="st3" d="M674.87,151.22c-4.74-3.16-2.57-10.02,1.78-21.28c3.69-9.62,14.17-13.05,18.91-9.88
			c4.74,3.16,5.4,13.84-1.78,21.28C684.76,150.63,679.62,154.32,674.87,151.22z"/>
		<path class="st4" d="M693.92,126.84c-7.64,2.57-16.08,10.21-18.52,25.57"/>
		<line class="st5" x1="688.38" y1="132.58" x2="694.78" y2="133.83"/>
		<line class="st5" x1="686.47" y1="124.34" x2="687.13" y2="127.9"/>
		<line class="st5" x1="681.66" y1="128.23" x2="683.31" y2="133.1"/>
		<line class="st5" x1="684.1" y1="136.6" x2="692.07" y2="138.51"/>
	</g>
	<g>
		<path class="st3" d="M665.58,92.31c3.95,3.43,9.49-0.2,18.45-6.92c7.64-5.67,7.97-15.82,4.02-19.24s-13.64-1.32-18.45,6.92
			C663.61,83.35,661.56,88.89,665.58,92.31z"/>
		<path class="st4" d="M682.39,69.31c-0.4,7.45-5.01,16.8-17.99,22.8"/>
		<line class="st5" x1="678.7" y1="75.64" x2="675.99" y2="70.3"/>
		<line class="st5" x1="686.47" y1="75.31" x2="683.11" y2="75.64"/>
		<line class="st5" x1="684.23" y1="80.52" x2="679.49" y2="80.32"/>
		<line class="st5" x1="676.26" y1="80.45" x2="672.5" y2="73.86"/>
	</g>
	<g>
		<path class="st3" d="M622.09,117.62c-4.55,2.7-9.29-1.91-16.94-10.02c-6.52-6.92-5.14-17-0.59-19.7
			c4.55-2.7,13.71,1.05,16.94,10.02C625.58,109.12,626.57,114.92,622.09,117.62z"/>
		<path class="st4" d="M609.5,91.98c-0.92,7.38,1.98,17.46,13.77,25.63"/>
		<line class="st5" x1="612.01" y1="98.9" x2="615.7" y2="94.09"/>
		<line class="st5" x1="604.43" y1="97.19" x2="607.72" y2="98.11"/>
		<line class="st5" x1="605.75" y1="102.72" x2="610.49" y2="103.32"/>
		<line class="st5" x1="613.66" y1="104.04" x2="618.47" y2="98.24"/>
	</g>
	<g>
		<path class="st3" d="M644.1,75.05c-5.21,0.66-7.84-5.4-11.6-15.88c-3.23-8.96,1.98-17.66,7.18-18.32
			c5.21-0.66,12.13,6.39,11.6,15.88C650.69,68.66,649.31,74.39,644.1,75.05z"/>
		<path class="st4" d="M642.65,46.58c-3.76,6.46-5.07,16.8,2.57,28.93"/>
		<line class="st5" x1="642.26" y1="53.89" x2="647.53" y2="50.93"/>
		<line class="st5" x1="635.93" y1="49.35" x2="638.56" y2="51.46"/>
		<line class="st5" x1="634.94" y1="54.95" x2="639.09" y2="57.39"/>
		<line class="st5" x1="641.66" y1="59.3" x2="648.45" y2="55.81"/>
	</g>
</g>
<path class="st6" d="M52.15,480.38C254,500.3,455.84,498.53,657.9,475.04c36.72-4.27,59.49-36.47,47.59-66.9
	C653.18,284.67,600.25,160.13,571.95,70.63c-7.79-19.93-28.92-33.45-53.13-34.34L254,27.76c-23.38-0.71-45.13,10.68-55.18,29
	c-5.33,15.01-11.04,29.97-17.12,44.88C139.17,205.99,78.84,307.86,5.79,407.97C-11.64,439.46,12.15,476.46,52.15,480.38z"/>
<g>
	<path class="st7" d="M497.71,396c-11.69-20.77-24.35-37.42-37.97-50.39c-7.37,33.59-18.41,48.56-33.72,6.79
		c-12.29,29.98-23.42,48.66-35.42,5.01c-22.1,65.68-43.44-5.43-43.44-5.43s-26.69,39.65-36-6.55
		c-15.42,15.52-29.21,36.1-40.52,61.53c-3.24,7.55,2.22,15.96,10.28,16.16c70.62,11.3,139.45,10.72,204.01-3.67
		C496.27,418.63,503.34,406.16,497.71,396z"/>
	<path class="st8" d="M347.16,351.98c0,0,21.34,71.12,43.44,5.43c11.99,43.65,23.12,25.19,35.42-5.01
		c15.31,41.77,26.57,26.8,33.72-6.79c-48.1-46.07-104.79-44.2-148.57-0.4C320.47,391.62,347.16,351.98,347.16,351.98z"/>
</g>
<path class="st9" d="M491.94,421.87c-3.3-5.5-5.5-10.1-2.9-23.4c3.9,1.6,10.3,4.5,9.7,11.5c-3.9-7.9-0.1-16.1,4.3-19.7
	c7.9,1.9,11.1,18.1,8.1,18.2s5.8-10.6,7.5-9.6c1.2-0.3,4.5,17.9,0,18.4c-3.8,0.5,3.6-15.4,7.1-15.7c1.7,6.3,0.9,13-1.7,20
	c-0.3,0.9-1.2,1.5-2.2,1.6c-10,0.7-19.3,0.8-27.8,0C493.14,423.07,492.34,422.57,491.94,421.87z"/>
<path class="st10" d="M437.9,433.86c-3.3-5.5-5.5-10.1-2.9-23.4c3.9,1.6,10.3,4.5,9.7,11.5c-3.9-7.9-0.1-16.1,4.3-19.7
	c7.9,1.9,11.1,18.1,8.1,18.2s5.8-10.6,7.5-9.6c1.2-0.3,4.5,17.9,0,18.4c-3.8,0.5,3.6-15.4,7.1-15.7c1.7,6.3,0.9,13-1.7,20
	c-0.3,0.9-1.2,1.5-2.2,1.6c-10,0.7-19.3,0.8-27.8,0C439.1,435.16,438.3,434.66,437.9,433.86z"/>
<path class="st11" d="M601.28,142.09c-10-26.84-18.83-52-26.08-74.92c-7.96-20.36-29.55-34.17-54.27-35.08L250.4,23.37
	c-23.89-0.73-46.1,10.9-56.37,29.62c-5.45,15.33-11.28,30.62-17.49,45.85c-5.89,14.46-12.13,28.88-18.68,43.25
	c-23,54.65,32.58,61.3,70.7,0c-17.53,43.52,47.27,49.11,52.6,0c8.39,43.52,55.65,37.67,61.75,0c0.76,28.52,43.45,31.57,49.55,0
	c3.81,19.37,35.07,19.37,39.64,0c2.29,29.28,55.65,31.57,67.09,0c6.1,25.47,45.74,25.47,51.84,0
	C570.09,185.61,617.91,174.91,601.28,142.09z"/>
<g>
	<path class="st10" d="M315.42,410.51c0,0-17.57,11.21-38.99,10.95C276.31,421.68,294.02,413.65,315.42,410.51z"/>
	<path class="st10" d="M311.95,399.41c0,0-13.89,16.15-34.34,22.3C277.54,421.96,292.38,408.87,311.95,399.41z"/>
	<path class="st10" d="M275.31,378.83c0,0,6.97,21.52,2.98,44.3C278.47,423.32,274.38,402.43,275.31,378.83z"/>
	<path class="st10" d="M306.65,390.85c0,0-9.89,19.41-28.25,30.69C278.38,421.81,289.84,405.15,306.65,390.85z"/>
	<path class="st10" d="M238.7,411.66c0,0,20.62-1.09,39.96,9.75C278.87,421.28,259.45,419.52,238.7,411.66z"/>
	<path class="st10" d="M240.7,402.37c0,0,20.52,3.75,37.44,18.77C278.37,421.07,259.59,414.82,240.7,402.37z"/>
	<path class="st10" d="M248.39,393.22c0,0,18.96,9.83,31.52,29.26C280.15,422.47,263.52,410.81,248.39,393.22z"/>
	<path class="st10" d="M256.69,383.98c0,0,15.59,15.47,22.37,37.9C279.3,421.95,266.46,405.51,256.69,383.98z"/>
	<path class="st10" d="M287.4,379.71c0,0,0.97,22.57-9.01,42.82C278.51,422.77,280.16,401.73,287.4,379.71z"/>
	<path class="st10" d="M264.44,379.82c0,0,11.98,18.88,13.83,42.22C278.49,422.18,269.41,403.06,264.44,379.82z"/>
	<path class="st10" d="M298.36,383.81c0,0-5.01,21.68-20.01,37.74C278.41,421.81,285.55,402.4,298.36,383.81z"/>
</g>
<path class="st12" d="M296.8,419.14c-9.3-6.8-19.2-9.2-30-6c-12.4,3.8-9.8,22.3,3.2,22.5c7.4,0.2,14.8,0,22-0.5
	C300.2,434.64,303.4,424.04,296.8,419.14z"/>
<g>
	<path class="st10" d="M170.13,425.51c0,0-9.19,11.72-23.7,16.6C146.39,442.29,156.44,432.69,170.13,425.51z"/>
	<path class="st10" d="M165.16,418.85c0,0-5.55,14.18-17.88,23.16C147.29,442.2,154.2,429.86,165.16,418.85z"/>
	<path class="st10" d="M135.59,413.63c0,0,9.79,12.86,12.48,29.17C148.24,442.89,140.54,429.77,135.59,413.63z"/>
	<path class="st10" d="M159.57,414.33c0,0-2.08,15.43-11.8,27.38C147.83,441.89,151.62,427.95,159.57,414.33z"/>
	<path class="st10" d="M118.66,444.43c0,0,13.65-5.61,29.26-2.87C148.03,441.42,134.51,444.82,118.66,444.43z"/>
	<path class="st10" d="M117.81,437.69c0,0,14.73-2.32,29.69,3.81C147.64,441.39,133.49,441.62,117.81,437.69z"/>
	<path class="st10" d="M120.84,429.7c0,0,15.11,2.15,28.18,12.28C149.18,441.92,135.2,437.98,120.84,429.7z"/>
	<path class="st10" d="M124.25,421.51c0,0,14.17,6.74,24.05,20.27C148.48,441.77,135.93,433.72,124.25,421.51z"/>
	<path class="st10" d="M143.95,411.37c0,0,5.99,14.99,4.05,31.01C148.14,442.51,144.28,427.93,143.95,411.37z"/>
	<path class="st10" d="M128.49,416.87c0,0,12.55,9.9,19.31,25.2C147.98,442.12,137.34,431.37,128.49,416.87z"/>
	<path class="st10" d="M152.31,411.54c0,0,1.75,15.81-4.57,30.18C147.84,441.89,148.07,427.1,152.31,411.54z"/>
</g>
<path class="st12" d="M196.27,442.6c-16.82-12.22-34.73-16.53-54.27-10.78c-22.43,6.83-17.73,40.06,5.79,40.42
	c13.39,0.36,26.77,0,39.79-0.9C202.61,470.44,208.39,451.4,196.27,442.6z"/>
<path class="st9" d="M207.55,500.71c-3.3-5.5-5.5-10.1-2.9-23.4c3.9,1.6,10.3,4.5,9.7,11.5c-3.9-7.9-0.1-16.1,4.3-19.7
	c7.9,1.9,11.1,18.1,8.1,18.2s5.8-10.6,7.5-9.6c1.2-0.3,4.5,17.9,0,18.4c-3.8,0.5,3.6-15.4,7.1-15.7c1.7,6.3,0.9,13-1.7,20
	c-0.3,0.9-1.2,1.5-2.2,1.6c-10,0.7-19.3,0.8-27.8,0C208.75,501.91,208.05,501.41,207.55,500.71z"/>
<g>
	<path class="st10" d="M699.06,440.87c0,0-24.49,17.15-54.35,16.74C644.53,457.95,669.23,445.68,699.06,440.87z"/>
	<path class="st10" d="M694.21,423.9c0,0-19.37,24.7-47.87,34.1C646.25,458.39,666.93,438.36,694.21,423.9z"/>
	<path class="st10" d="M643.14,392.43c0,0,9.72,32.91,4.15,67.74C647.54,460.46,641.84,428.52,643.14,392.43z"/>
	<path class="st10" d="M686.83,410.81c0,0-13.79,29.68-39.39,46.93C647.42,458.15,663.4,432.68,686.83,410.81z"/>
	<path class="st10" d="M592.11,442.63c0,0,28.75-1.67,55.71,14.91C648.11,457.35,621.02,454.64,592.11,442.63z"/>
	<path class="st10" d="M594.88,428.43c0,0,28.61,5.74,52.2,28.71C647.41,457.02,621.22,447.47,594.88,428.43z"/>
	<path class="st10" d="M605.61,414.43c0,0,26.43,15.03,43.94,44.74C649.89,459.17,626.71,441.33,605.61,414.43z"/>
	<path class="st10" d="M617.18,400.3c0,0,21.74,23.65,31.19,57.95C648.7,458.37,630.8,433.23,617.18,400.3z"/>
	<path class="st10" d="M660,393.78c0,0,1.35,34.51-12.56,65.48C647.6,459.63,649.9,427.44,660,393.78z"/>
	<path class="st10" d="M627.98,393.95c0,0,16.71,28.87,19.28,64.55C647.57,458.71,634.91,429.49,627.98,393.95z"/>
	<path class="st10" d="M675.28,400.05c0,0-6.98,33.15-27.9,57.71C647.45,458.16,657.42,428.47,675.28,400.05z"/>
</g>
<path class="st12" d="M613.87,492.51c15.63,1.21,31.7,1.7,47.77,1.21c28.23-0.48,33.87-45.34,6.95-54.56
	c-23.45-7.76-44.95-1.94-65.14,14.55C589.12,465.59,596.07,491.29,613.87,492.51z"/>
<path class="st3" d="M566.89,483.98c-3.3-5.5-5.5-10.1-2.9-23.4c3.9,1.6,10.3,4.5,9.7,11.5c-3.9-7.9-0.1-16.1,4.3-19.7
	c7.9,1.9,11.1,18.1,8.1,18.2s5.8-10.6,7.5-9.6c1.2-0.3,4.5,17.9,0,18.4c-3.8,0.5,3.6-15.4,7.1-15.7c1.7,6.3,0.9,13-1.7,20
	c-0.3,0.9-1.2,1.5-2.2,1.6c-10,0.7-19.3,0.8-27.8,0C568.09,485.18,567.39,484.68,566.89,483.98z"/>
<path class="st12" d="M571.14,476.51c-9.3-6.8-19.2-9.2-30-6c-12.4,3.8-9.8,22.3,3.2,22.5c7.4,0.2,14.8,0,22-0.5
	C574.64,492.01,577.84,481.41,571.14,476.51z"/>
<g>
	<path class="st1" d="M60.01,499.11h40.47c3.48,0,6.32-2.84,6.32-6.44l-2.71-390.37c0-2.84-1.93-5.41-4.77-6.06l-1.68-0.39
		c-3.74-0.9-7.47,1.68-7.86,5.54L53.69,492.15C53.44,495.89,56.27,499.11,60.01,499.11z"/>
	<g>
		<line class="st1" x1="51.38" y1="255.92" x2="82.95" y2="308.63"/>
		<g>
			<path class="st1" d="M44.67,259.78c10.57,17.53,21.01,35.18,31.58,52.71c5.16,8.51,18.43,0.77,13.4-7.86
				c-10.57-17.53-21.01-35.18-31.58-52.71C52.92,243.41,39.52,251.15,44.67,259.78L44.67,259.78z"/>
		</g>
	</g>
	<g>
		<line class="st1" x1="139.77" y1="172.61" x2="94.75" y2="231.15"/>
		<g>
			<path class="st1" d="M134.63,170.02c-15,19.51-30.01,39.02-45.11,58.45c-4.33,5.61,6.14,10.79,10.47,5.27
				c15-19.51,30.01-39.02,45.11-58.45C149.33,169.68,138.86,164.5,134.63,170.02L134.63,170.02z"/>
		</g>
	</g>
	<path class="st2" d="M93.9,110.28c0,7.86,4,14.18,8.89,14.18"/>
	<path class="st2" d="M92.1,118.53c2.19,7.6,6.7,13.02,10.18,12.11"/>
	<path class="st2" d="M98.29,143.02c0,3.87-3.35,7.09-7.47,7.09"/>
	<path class="st2" d="M98.29,150.24c0,2.96-3.35,5.41-7.47,5.41"/>
	<path class="st2" d="M88.11,190.45c0,3.35,6.57,6.19,14.56,6.19"/>
	<path class="st2" d="M86.69,193.54c0,4.64,5.28,8.38,11.73,8.38"/>
	<path class="st2" d="M90.81,234.26c0,2.71-2.96,5.03-6.57,5.03"/>
	<path class="st2" d="M94.55,239.29c0,3.35-4.64,6.19-10.31,6.19"/>
	<path class="st2" d="M92.49,275.76c0,3.61,4.64,6.57,10.31,6.57"/>
	<path class="st2" d="M88.11,278.98c0,5.16,5.54,9.41,12.24,9.41"/>
	<path class="st2" d="M80.24,320.23c0,5.28-3.61,9.54-7.99,9.54"/>
	<path class="st2" d="M88.11,322.93c0,7.6-5.28,13.79-11.86,13.79"/>
	<path class="st2" d="M82.18,367.91c0,8.89,7.22,16.11,16.11,16.11"/>
	<path class="st2" d="M76.25,428.1c0,5.28-3.74,9.54-8.51,9.54"/>
	<path class="st2" d="M82.18,430.8c0,7.47-6.44,13.4-14.43,13.4"/>
	<g>
		<line class="st1" x1="64.52" y1="134.77" x2="96.1" y2="187.48"/>
		<g>
			<path class="st1" d="M57.82,138.64c10.57,17.53,21.01,35.18,31.58,52.71c5.16,8.51,18.43,0.77,13.4-7.86
				c-10.57-17.53-21.01-35.18-31.58-52.71C66.07,122.27,52.66,130.13,57.82,138.64L57.82,138.64z"/>
		</g>
	</g>
	<g>
		<path class="st13" d="M59.49,56.54c1.8,1.93,39.31,33.51,37.37,35.31c-1.93,1.8-42.53-26.94-44.33-28.87s-1.68-4.9,0.26-6.7
			C54.73,54.48,57.69,54.61,59.49,56.54z"/>
		<path class="st13" d="M69.55,48.29c1.29,2.32,29.51,42.4,27.19,43.56c-2.32,1.29-34.28-36.86-35.57-39.18
			c-1.29-2.32-0.39-5.16,1.93-6.32C65.55,45.2,68.39,45.97,69.55,48.29z"/>
		<path class="st13" d="M82.43,43.52c0.52,2.58,16.75,48.84,14.31,49.36C94.16,93.4,73.8,48.03,73.28,45.46
			c-0.52-2.58,1.03-5.03,3.61-5.54C79.34,39.4,81.92,40.95,82.43,43.52z"/>
		<path class="st13" d="M117.36,46.36c-1.29,2.32-18.95,48.07-21.26,46.78c-2.32-1.29,11.73-48.97,12.89-51.29
			c1.29-2.32,4.12-3.09,6.32-1.93C117.75,41.2,118.65,44.04,117.36,46.36z"/>
		<path class="st13" d="M127.67,51.39C126,53.32,97.9,93.66,95.97,91.85c-1.93-1.8,22.94-44.85,24.62-46.78
			c1.68-1.93,4.64-2.06,6.57-0.39C129.22,46.49,129.48,49.45,127.67,51.39z"/>
		<path class="st13" d="M105.5,42.62c-0.64,2.58-6.44,51.29-9.02,50.65s-0.77-50.39-0.13-52.84c0.64-2.58,3.22-4,5.67-3.48
			C104.6,37.47,106.15,40.04,105.5,42.62z"/>
		<path class="st13" d="M93.65,41.98c0,2.58,6.06,51.29,3.35,51.29c-2.58,0-12.76-48.72-12.76-51.29s2.06-4.64,4.64-4.64
			S93.65,39.27,93.65,41.98z"/>
		<path class="st13" d="M135.53,58.6c-2.06,1.55-36.86,36.21-38.41,34.15c-1.55-2.06,30.67-39.95,32.74-41.5
			c2.06-1.55,5.03-1.16,6.57,0.77C137.85,54.09,137.59,57.06,135.53,58.6z"/>
		<path class="st13" d="M141.98,68.78c-2.32,1.03-44.46,26.29-45.49,23.84c-1.03-2.32,39.31-31.45,41.76-32.48
			c2.32-1.03,5.16,0,6.19,2.45C145.46,65.05,144.43,67.75,141.98,68.78z"/>
		<line class="st5" x1="116.72" y1="72.78" x2="97.13" y2="90.95"/>
		<line class="st5" x1="119.94" y1="77.68" x2="97.13" y2="90.95"/>
		<line class="st5" x1="105.63" y1="65.18" x2="97.13" y2="90.95"/>
		<line class="st5" x1="99.45" y1="62.98" x2="97.13" y2="90.95"/>
		<line class="st5" x1="93" y1="63.5" x2="97.13" y2="90.95"/>
		<line class="st5" x1="85.66" y1="65.43" x2="97.13" y2="90.95"/>
		<line class="st5" x1="78.83" y1="68.91" x2="97.13" y2="90.95"/>
		<line class="st5" x1="74.19" y1="73.42" x2="97.13" y2="90.95"/>
		<line class="st5" x1="111.56" y1="67.75" x2="97.13" y2="90.95"/>
	</g>
	<g>
		<path class="st13" d="M27.53,129.61c1.42,0,28.87-3.09,28.87-1.55c0,1.42-27.45,6.96-29,6.83c-1.55-0.13-2.58-1.16-2.58-2.71
			C24.95,130.77,26.11,129.61,27.53,129.61z"/>
		<path class="st13" d="M28.18,122.27c1.42,0.39,28.74,4.38,28.35,5.8c-0.39,1.42-28.35-0.26-29.77-0.64
			c-1.42-0.39-2.19-1.8-1.8-3.22C25.21,122.66,26.76,121.88,28.18,122.27z"/>
		<path class="st13" d="M31.14,115.18c1.29,0.77,26.42,12.11,25.65,13.27c-0.77,1.16-27.19-7.99-28.48-8.76
			c-1.29-0.77-1.68-2.45-0.9-3.61C28.31,114.79,29.85,114.41,31.14,115.18z"/>
		<path class="st13" d="M45.83,102.03c0.52,1.42,12.24,26.42,10.83,26.81s-15.47-23.71-15.85-25.13c-0.52-1.42,0.26-2.84,1.68-3.35
			S45.45,100.62,45.83,102.03z"/>
		<path class="st13" d="M51.89,99.71c0.13,1.42,5.67,28.48,4.25,28.61c-1.42,0.13-9.41-26.81-9.54-28.22
			c-0.13-1.42,0.9-2.71,2.45-2.84C50.47,97.14,51.76,98.3,51.89,99.71z"/>
		<path class="st13" d="M39.78,105.39c0.77,1.29,18.43,22.55,17.14,23.33c-1.29,0.77-20.88-19.2-21.65-20.49
			c-0.77-1.29-0.39-2.84,0.77-3.61C37.33,103.71,39,104.1,39.78,105.39z"/>
		<path class="st13" d="M34.88,109.9c1.03,1.03,23.33,17.4,22.3,18.56c-1.03,1.03-24.87-13.66-25.9-14.69
			c-1.03-1.03-1.16-2.71-0.13-3.74C32.17,108.99,33.85,108.99,34.88,109.9z"/>
		<path class="st13" d="M57.95,99.33c-0.13,1.42,0.52,29.13-1.03,29c-1.42-0.13-4.38-27.97-4.25-29.51
			c0.13-1.42,1.42-2.58,2.84-2.32C57.05,96.62,58.08,97.91,57.95,99.33z"/>
		<path class="st13" d="M64.65,100.62c-0.52,1.42-6.57,28.35-7.86,27.84c-1.42-0.52,2.45-28.22,2.96-29.64
			c0.52-1.42,2.06-2.06,3.35-1.55C64.39,97.78,65.04,99.33,64.65,100.62z"/>
		<line class="st5" x1="56.4" y1="112.47" x2="56.14" y2="127.55"/>
		<line class="st5" x1="59.62" y1="113.12" x2="56.14" y2="127.55"/>
		<line class="st5" x1="49.06" y1="114.02" x2="56.14" y2="127.55"/>
		<line class="st5" x1="45.7" y1="115.7" x2="56.14" y2="127.55"/>
		<line class="st5" x1="43.38" y1="118.53" x2="56.14" y2="127.55"/>
		<line class="st5" x1="41.32" y1="122.4" x2="56.14" y2="127.55"/>
		<line class="st5" x1="40.16" y1="126.39" x2="56.14" y2="127.55"/>
		<line class="st5" x1="40.16" y1="130.13" x2="56.14" y2="127.55"/>
		<line class="st5" x1="52.28" y1="112.6" x2="56.14" y2="127.55"/>
	</g>
	<g>
		<path class="st13" d="M138.14,134.07c0.27,1.61,9.17,32.1,7.56,32.37c-1.61,0.27-13.32-29.76-13.59-31.36
			c-0.27-1.61,0.9-3.25,2.51-3.52C136.22,131.29,137.87,132.46,138.14,134.07z"/>
		<path class="st13" d="M146.6,133.32c-0.13,1.68,0.74,33.39-0.93,33.25c-1.68-0.13-5.37-32.16-5.11-33.81
			c0.13-1.68,1.63-2.88,3.3-2.74S146.74,131.64,146.6,133.32z"/>
		<path class="st13" d="M155.16,135.32c-0.64,1.59-8.36,32.34-9.95,31.7c-1.59-0.64,3.65-32.3,4.29-33.9
			c0.64-1.59,2.33-2.37,3.93-1.73C155.05,131.91,155.8,133.72,155.16,135.32z"/>
		<path class="st13" d="M173.04,149.35c-1.43,0.82-27.42,19.17-28.09,17.63c-0.82-1.43,23.85-22.21,25.28-23.03s3.3-0.26,4.12,1.17
			C175.03,146.67,174.48,148.53,173.04,149.35z"/>
		<path class="st13" d="M176.74,155.68c-1.63,0.4-31.14,12.19-31.54,10.56c-0.4-1.63,28.35-16.02,29.98-16.41s3.31,0.52,3.71,2.15
			C179.42,153.62,178.37,155.28,176.74,155.68z"/>
		<path class="st13" d="M167.9,143.06c-1.22,1.11-21.72,25.28-22.96,24.04c-1.11-1.22,17.62-27.36,18.84-28.48
			c1.22-1.11,3.17-1.07,4.28,0.15C169.29,140.02,169.12,141.95,167.9,143.06z"/>
		<path class="st13" d="M161.84,138.46c-0.88,1.43-15.12,29.71-16.42,28.86c-1.43-0.88,10.47-30.84,11.47-32.25
			c0.88-1.43,2.76-1.78,4.19-0.91C162.36,135.15,162.72,137.03,161.84,138.46z"/>
		<path class="st13" d="M178.29,162.44c-1.72,0.12-32.83,6.31-32.95,4.6c-0.12-1.72,30.76-10.55,32.47-10.67s3.08,1.14,3.2,2.85
			C181.13,160.93,180,162.32,178.29,162.44z"/>
		<path class="st13" d="M178.25,170.13c-1.66-0.26-33.39-1.74-33-3.37c0.39-1.63,32.41-2.85,34.07-2.59
			c1.65,0.26,2.71,1.86,2.45,3.52S179.88,170.52,178.25,170.13z"/>
		<line class="st5" x1="163.29" y1="163.21" x2="146.15" y2="165.99"/>
		<line class="st5" x1="163.2" y1="167.11" x2="146.15" y2="165.99"/>
		<line class="st5" x1="159.98" y1="155.25" x2="146.15" y2="165.99"/>
		<line class="st5" x1="157.39" y1="151.84" x2="146.15" y2="165.99"/>
		<line class="st5" x1="153.79" y1="149.84" x2="146.15" y2="165.99"/>
		<line class="st5" x1="149.09" y1="148.19" x2="146.15" y2="165.99"/>
		<line class="st5" x1="144.21" y1="147.68" x2="146.15" y2="165.99"/>
		<line class="st5" x1="140.04" y1="148.46" x2="146.15" y2="165.99"/>
		<line class="st5" x1="162.17" y1="158.73" x2="146.15" y2="165.99"/>
	</g>
	<g>
		<path class="st13" d="M15.55,238.52c1.68,0.52,32.99,5.28,32.48,6.83c-0.52,1.68-32.48-0.64-34.15-1.03
			c-1.68-0.52-2.58-2.19-2.06-3.74S14,238.13,15.55,238.52z"/>
		<path class="st13" d="M18.38,230.66c1.42,0.9,30.54,13.4,29.64,14.95c-0.9,1.42-31.32-8.76-32.74-9.67
			c-1.42-0.9-1.93-2.71-1.03-4.12C15.03,230.27,16.96,229.75,18.38,230.66z"/>
		<path class="st13" d="M23.8,223.7c1.16,1.16,25.65,21.26,24.49,22.42s-27.71-17.01-28.87-18.3c-1.16-1.16-1.16-3.09,0.13-4.25
			C20.7,222.41,22.64,222.41,23.8,223.7z"/>
		<path class="st13" d="M44.16,213.51c0.13,1.68,5.67,32.86,4,32.99c-1.68,0.13-10.05-30.93-10.05-32.61c0-1.68,1.16-3.09,2.84-3.22
			C42.61,210.55,44.03,211.84,44.16,213.51z"/>
		<path class="st13" d="M51.5,212.74c-0.26,1.68-2.19,33.25-3.87,32.99s-2.45-32.48-2.19-34.15c0.26-1.68,1.93-2.71,3.48-2.45
			C50.73,209.52,51.76,211.07,51.5,212.74z"/>
		<path class="st13" d="M36.3,215.45c0.52,1.55,13.66,30.42,12.11,30.93c-1.55,0.52-17.4-27.58-17.79-29.13
			c-0.39-1.55,0.39-3.35,1.93-3.87C34.11,212.87,35.78,213.77,36.3,215.45z"/>
		<path class="st13" d="M29.47,219.06c0.9,1.42,20.62,26.29,19.07,27.19c-1.42,0.9-23.46-22.55-24.36-23.97
			c-0.9-1.42-0.39-3.35,1.03-4.12C26.76,217.12,28.69,217.51,29.47,219.06z"/>
		<path class="st13" d="M58.21,214.16c-0.64,1.55-8.12,32.35-9.79,31.7c-1.55-0.64,3.48-32.35,4.12-33.9
			c0.64-1.55,2.32-2.32,3.87-1.8C58.08,210.81,58.85,212.61,58.21,214.16z"/>
		<path class="st13" d="M65.29,217.64c-0.9,1.42-15.72,29.38-17.14,28.48s11.21-30.54,12.11-31.96c0.9-1.42,2.84-1.68,4.25-0.77
			C65.81,214.29,66.2,216.22,65.29,217.64z"/>
		<line class="st5" x1="52.53" y1="228.21" x2="47.9" y2="244.83"/>
		<line class="st5" x1="56.01" y1="229.88" x2="47.9" y2="244.83"/>
		<line class="st5" x1="44.03" y1="227.82" x2="47.9" y2="244.83"/>
		<line class="st5" x1="39.78" y1="228.72" x2="47.9" y2="244.83"/>
		<line class="st5" x1="36.43" y1="231.17" x2="47.9" y2="244.83"/>
		<line class="st5" x1="32.95" y1="234.65" x2="47.9" y2="244.83"/>
		<line class="st5" x1="30.37" y1="238.9" x2="47.9" y2="244.83"/>
		<line class="st5" x1="29.34" y1="243.03" x2="47.9" y2="244.83"/>
		<line class="st5" x1="48.02" y1="227.18" x2="47.9" y2="244.83"/>
	</g>
	<path class="st2" d="M87.78,368.55c0,5.28,6.83,9.54,15.21,9.54"/>
	<g>
		<line class="st1" x1="130.2" y1="310.78" x2="97.47" y2="362.78"/>
		<g>
			<path class="st1" d="M123.72,306.55c-10.85,17.35-21.88,34.65-32.73,52c-5.25,8.45,7.65,16.79,13.07,8.4
				c10.85-17.35,21.88-34.65,32.73-52C142.05,306.5,129.09,298.04,123.72,306.55L123.72,306.55z"/>
		</g>
	</g>
	<g>
		<path class="st13" d="M123.29,270.78c0.56,1.66,14.9,29.91,13.34,30.39c-1.66,0.56-18.37-26.79-19.03-28.38
			c-0.56-1.66,0.28-3.37,1.84-3.85C120.99,268.46,122.7,269.29,123.29,270.78z"/>
		<path class="st13" d="M131.33,268.51c0.09,1.68,6.87,32.64,5.09,32.81c-1.68,0.09-11.09-30.57-11.18-32.25
			c-0.09-1.68,1.08-3.15,2.75-3.24C129.7,265.56,131.24,266.83,131.33,268.51z"/>
		<path class="st13" d="M140.14,268.86c-0.27,1.62-2.37,33.23-3.99,32.96c-1.62-0.27-2.28-32.43-1.91-34.13
			c0.27-1.62,1.84-2.74,3.53-2.37C139.39,265.6,140.51,267.17,140.14,268.86z"/>
		<path class="st13" d="M160.27,279.5c-1.29,1.08-23.43,23.73-24.51,22.44c-1.08-1.29,19.31-26.17,20.67-27.15
			c1.36-0.97,3.19-0.86,4.27,0.43C161.78,276.52,161.56,278.42,160.27,279.5z"/>
		<path class="st13" d="M165.17,285.03c-1.51,0.77-28.32,17.56-29.08,16.05c-0.77-1.51,24.99-20.89,26.5-21.65
			c1.51-0.77,3.33,0,4.02,1.41C167.34,282.52,166.68,284.26,165.17,285.03z"/>
		<path class="st13" d="M154.12,274.23c-0.96,1.32-16.79,28.81-18.11,27.85c-1.32-0.96,12.31-30.2,13.34-31.41
			c1.03-1.21,2.95-1.63,4.27-0.68C154.94,270.95,155.19,272.84,154.12,274.23z"/>
		<path class="st13" d="M147.21,270.77c-0.63,1.56-9.39,32.07-11.02,31.33c-1.56-0.63,4.7-32.2,5.33-33.76
			c0.63-1.56,2.5-2.26,3.95-1.56C147.21,267.45,148.02,269.25,147.21,270.77z"/>
		<path class="st13" d="M167.92,291.3c-1.63,0.38-31.03,12.22-31.48,10.48c-0.38-1.63,28.33-15.99,29.97-16.37
			c1.63-0.38,3.24,0.54,3.72,2.1C170.57,289.25,169.55,290.93,167.92,291.3z"/>
		<path class="st13" d="M169.21,299.09c-1.68,0.09-33.05,4.31-33.14,2.63c-0.09-1.68,31.37-8.65,33.04-8.74
			c1.68-0.09,3.01,1.33,3.1,3.01C172.24,297.56,170.89,299,169.21,299.09z"/>
		<line class="st5" x1="153.19" y1="294.86" x2="136.97" y2="300.76"/>
		<line class="st5" x1="153.85" y1="298.67" x2="136.97" y2="300.76"/>
		<line class="st5" x1="148.56" y1="287.72" x2="136.97" y2="300.76"/>
		<line class="st5" x1="145.35" y1="284.78" x2="136.97" y2="300.76"/>
		<line class="st5" x1="141.41" y1="283.48" x2="136.97" y2="300.76"/>
		<line class="st5" x1="136.55" y1="282.68" x2="136.97" y2="300.76"/>
		<line class="st5" x1="131.6" y1="283.06" x2="136.97" y2="300.76"/>
		<line class="st5" x1="127.64" y1="284.62" x2="136.97" y2="300.76"/>
		<line class="st5" x1="151.41" y1="290.59" x2="136.97" y2="300.76"/>
	</g>
</g>
<path class="st12" d="M82.99,485c9.36-7.52,19.31-10.11,30.22-6.61c12.56,4.15,9.84,24.5-3.2,24.89c-7.47,0.13-14.93,0-22.16-0.52
	C79.55,502.11,76.23,490.45,82.99,485z"/>
</svg>
