<?xml version="1.0" encoding="utf-8"?>
<!-- Generator: Adobe Illustrator 21.1.0, SVG Export Plug-In . SVG Version: 6.00 Build 0)  -->
<svg version="1.1" xmlns="http://www.w3.org/2000/svg" xmlns:xlink="http://www.w3.org/1999/xlink" x="0px" y="0px"
	 viewBox="0 0 841.9 595.3" style="enable-background:new 0 0 841.9 595.3;" xml:space="preserve">
<style type="text/css">
	.st0{display:none;opacity:0.66;}
	.st1{fill:#DAB980;}
	.st2{fill:none;stroke:#000000;stroke-width:0.5;stroke-linecap:round;stroke-linejoin:round;}
	.st3{fill:#F5E3A5;}
	.st4{fill:none;stroke:#F8E0A6;stroke-width:0.5;stroke-miterlimit:10;}
	.st5{fill:#947F70;}
	.st6{fill:#F8E0A6;}
</style>
<g id="圖層_1" class="st0">
	
		<image style="display:inline;overflow:visible;" width="800" height="1080" xlink:href="4572C677.jpg"  transform="matrix(0.9569 0 0 0.9569 6.4449 87.7762)">
	</image>
</g>
<g id="圖層_2">
	<g>
		<path class="st1" d="M140.6,154.9l142.6,2.4c0,0,4.8,4.2-1.8,16l-66.6-2.8c0,0,13,6.4,17.1,5.9l0.9,2.3c0,0-9.6,2.3-26.5-7.2
			h-63.9C142.3,171.5,139.1,165.9,140.6,154.9z"/>
		<path class="st2" d="M282,170.9"/>
		<path class="st3" d="M282.9,158.7c0,0,3.2,2.9-2,13.3C281,172,276.8,165.6,282.9,158.7z"/>
		<path class="st4" d="M152.8,160.6c0,0,6.6-2.3,9,0"/>
		<path class="st4" d="M167.5,167c0,0,6.6-2.3,9,0"/>
		<path class="st4" d="M229.1,162.1c0,0,9.3-0.5,11.6,2.1"/>
		<path class="st4" d="M252.4,165.9c0,0,9.3-0.5,11.6,2.1"/>
		<path class="st4" d="M188.4,162.1c0,0,6.8,2.5,9.6,0"/>
	</g>
	<g>
		<path class="st5" d="M249.2,169.4l114-8c0,0,4,2.4-0.6,10.7l-53.4,2.6c0,0,10.8,3.4,14,2.8l0.8,1.5c0,0-7.5,2.2-21.5-3l-51,4.3
			C251.5,180.3,248.6,176.8,249.2,169.4z"/>
		<path class="st2" d="M363,170.5"/>
		<path class="st3" d="M363,162.3c0,0,2.7,1.7-0.8,8.9C362.2,171.2,358.5,167.3,363,162.3z"/>
		<path class="st4" d="M259.2,172.3c0,0,5.2-2,7.2-0.6"/>
		<path class="st4" d="M271.4,175.6c0,0,5.2-2,7.2-0.6"/>
		<path class="st4" d="M320.3,168.2c0,0,7.4-0.9,9.4,0.6"/>
		<path class="st4" d="M339.1,169.2c0,0,7.4-0.9,9.4,0.6"/>
		<path class="st4" d="M287.7,170.9c0,0,5.6,1.2,7.7-0.6"/>
	</g>
	<g>
		<path class="st1" d="M487.6,171.4l114-8c0,0,4,2.4-0.6,10.7l-53.4,2.6c0,0,10.8,3.4,14,2.8l0.8,1.5c0,0-7.5,2.2-21.5-3l-51,4.3
			C489.9,182.3,487,178.8,487.6,171.4z"/>
		<path class="st2" d="M601.4,172.5"/>
		<path class="st3" d="M601.4,164.4c0,0,2.7,1.7-0.8,8.9C600.6,173.3,596.9,169.3,601.4,164.4z"/>
		<path class="st4" d="M497.6,174.3c0,0,5.2-2,7.2-0.6"/>
		<path class="st4" d="M509.8,177.6c0,0,5.2-2,7.2-0.6"/>
		<path class="st4" d="M558.7,170.2c0,0,7.4-0.9,9.4,0.6"/>
		<path class="st4" d="M577.5,171.2c0,0,7.4-0.9,9.4,0.6"/>
		<path class="st4" d="M526.1,172.9c0,0,5.6,1.2,7.7-0.6"/>
	</g>
	<g>
		<path class="st1" d="M128.2,174.6v46.7l-8.8-9.3c0,0-2.6,5.4,1.8,10.1l-5.8,1c0,0,1.2,3.2,8.8,3.8c0,0,5,4.6,4.1,8.5l-2.9,31.2
			c0,0,7.6,4.6,12.3,0l4.1-89.8l5.3-12.5c0,0-3.5-5.6-9,0c0,0,0.3,1.6-3.5,8.5L128.2,174.6z"/>
		<path class="st6" d="M141.1,166.4c0,0-3.1-2.5,1.5-2.9C142.7,163.5,147.7,165.8,141.1,166.4z"/>
		<path class="st4" d="M134.9,191.4c0,0-2.2-5.3,0.1-7.2"/>
		<path class="st4" d="M135.8,204.4c0,0,2-5.3,0.1-7.2"/>
		<path class="st4" d="M132.6,216.4c0,0,2-5.3,0.1-7.2"/>
		<path class="st4" d="M135.1,226.5c0,0-1.1,2.6-0.5,7"/>
		<path class="st4" d="M133.8,244.2c0,0-1.1,2.6-0.5,7"/>
	</g>
	<g>
		<path class="st1" d="M598.3,368.4l7.3-46.1l7.2,10.5c0,0,3.5-5-0.2-10.2l6-0.1c0,0-0.7-3.4-8.1-5.1c0,0-4.2-5.3-2.7-9l7.8-30.4
			c0,0-6.8-5.7-12.2-1.9l-18.1,88.1l-7.2,11.5c0,0,2.6,6.1,9,1.4c0,0,0-1.6,4.8-7.8L598.3,368.4z"/>
		<path class="st6" d="M584.2,374.5c0,0,2.7,3-2,2.7C582.2,377.1,577.6,374.1,584.2,374.5z"/>
		<path class="st4" d="M594.3,350.8c0,0,1.3,5.6-1.2,7.1"/>
		<path class="st4" d="M595.4,337.8c0,0-2.8,4.9-1.2,7.1"/>
		<path class="st4" d="M600.5,326.5c0,0-2.8,4.9-1.2,7.1"/>
		<path class="st4" d="M599.6,316.1c0,0,1.5-2.4,1.6-6.8"/>
		<path class="st4" d="M603.6,298.7c0,0,1.5-2.4,1.6-6.8"/>
	</g>
	<g>
		<path class="st1" d="M131.8,367.4v56.9L116.3,413c0,0-4.7,6.6,3.1,12.3l-10.4,1.2c0,0,2.1,3.9,15.5,4.7c0,0,8.8,5.6,7.2,10.3
			l-5.2,38c0,0,13.5,5.6,21.7,0l7.2-109.5l9.3-15.2c0,0-6.2-6.9-16,0c0,0,0.5,2-6.2,10.3L131.8,367.4z"/>
		<path class="st6" d="M154.8,357.4c0,0-5.5-3.1,2.7-3.6C157.5,353.9,166.4,356.6,154.8,357.4z"/>
		<path class="st4" d="M143.6,387.8c0,0-3.8-6.5,0.2-8.8"/>
		<path class="st4" d="M145.3,403.7c0,0,3.6-6.4,0.2-8.8"/>
		<path class="st4" d="M139.5,418.3c0,0,3.6-6.4,0.2-8.8"/>
		<path class="st4" d="M144.1,430.7c0,0-2,3.2-0.9,8.5"/>
		<path class="st4" d="M141.8,452.3c0,0-2,3.2-0.9,8.5"/>
	</g>
	<g>
		<path class="st5" d="M609.4,185.8v46.7l12.8-9.3c0,0,3.8,5.4-2.6,10.1l8.5,1c0,0-1.7,3.2-12.8,3.8c0,0-7.2,4.6-6,8.5l4.3,31.2
			c0,0-11.1,4.6-17.9,0l-6-89.8l-7.7-12.5c0,0,5.1-5.6,13.2,0c0,0-0.4,1.6,5.1,8.5L609.4,185.8z"/>
		<path class="st6" d="M590.5,177.7c0,0,4.5-2.5-2.3-2.9C588.3,174.7,580.9,177,590.5,177.7z"/>
		<path class="st4" d="M599.7,202.6c0,0,3.2-5.3-0.1-7.2"/>
		<path class="st4" d="M598.3,215.6c0,0-2.9-5.3-0.1-7.2"/>
		<path class="st4" d="M603.1,227.6c0,0-2.9-5.3-0.1-7.2"/>
		<path class="st4" d="M599.3,237.7c0,0,1.7,2.6,0.7,7"/>
		<path class="st4" d="M601.2,255.5c0,0,1.7,2.6,0.7,7"/>
	</g>
	<g>
		<path class="st5" d="M145.3,270.9v46.7l12.8-9.3c0,0,3.8,5.4-2.6,10.1l8.5,1c0,0-1.7,3.2-12.8,3.8c0,0-7.2,4.6-6,8.5l4.3,31.2
			c0,0-11.1,4.6-17.9,0l-6-89.8l-7.7-12.5c0,0,5.1-5.6,13.2,0c0,0-0.4,1.6,5.1,8.5L145.3,270.9z"/>
		<path class="st6" d="M126.5,262.7c0,0,4.5-2.5-2.3-2.9C124.2,259.8,116.8,262.1,126.5,262.7z"/>
		<path class="st4" d="M135.6,287.7c0,0,3.2-5.3-0.1-7.2"/>
		<path class="st4" d="M134.2,300.7c0,0-2.9-5.3-0.1-7.2"/>
		<path class="st4" d="M139,312.7c0,0-2.9-5.3-0.1-7.2"/>
		<path class="st4" d="M135.2,322.8c0,0,1.7,2.6,0.7,7"/>
		<path class="st4" d="M137.1,340.5c0,0,1.7,2.6,0.7,7"/>
	</g>
	<g>
		<path class="st5" d="M613.8,388.8l-7.5,46.1l14.1-7.1c0,0,2.9,6-4.1,9.5l8.2,2.4c0,0-2.2,2.9-13.2,1.7c0,0-7.9,3.4-7.2,7.4
			l-0.8,31.5c0,0-11.7,2.8-17.6-2.9l8.5-89.6l-5.6-13.5c0,0,5.9-4.7,13,2.1c0,0-0.7,1.5,3.7,9.2L613.8,388.8z"/>
		<path class="st6" d="M596.4,377.7c0,0,4.9-1.8-1.8-3.3C594.7,374.4,587,375.5,596.4,377.7z"/>
		<path class="st4" d="M601.5,403.8c0,0,4-4.7,1-7.1"/>
		<path class="st4" d="M598,416.4c0,0-2.1-5.7,1-7.1"/>
		<path class="st4" d="M600.8,429c0,0-2.1-5.7,1-7.1"/>
		<path class="st4" d="M595.5,438.4c0,0,1.2,2.8-0.4,7"/>
		<path class="st4" d="M594.5,456.2c0,0,1.2,2.8-0.4,7"/>
	</g>
	<g>
		<path class="st1" d="M373.2,177.9l61.3,1.7L422,190.8c0,0,7,3.7,13.3-2l1.1,7.8c0,0,4.3-1.4,5.3-11.5c0,0,6.3-6.4,11.2-5.1l40.8,5
			c0,0,6.3-9.9,0.4-16.3l-117.6-8.6l-16.2-7.4c0,0-7.5,4.4-0.3,12c0,0,2.1-0.3,11,4.9L373.2,177.9z"/>
		<path class="st6" d="M363,160.4c0,0-3.4,4-3.8-2.2C359.2,158.2,362.3,151.6,363,160.4z"/>
		<path class="st4" d="M395.5,169.6c0,0-7,2.7-9.4-0.4"/>
		<path class="st4" d="M412.6,168.8c0,0-6.9-2.9-9.4-0.4"/>
		<path class="st4" d="M428.2,173.6c0,0-6.9-2.9-9.4-0.4"/>
		<path class="st4" d="M441.5,170.5c0,0,3.4,1.6,9.2,0.9"/>
		<path class="st4" d="M464.8,172.8c0,0,3.4,1.6,9.2,0.9"/>
	</g>
	<g>
		<path class="st1" d="M611.3,490l-140.6,24c0,0-5.5-3.2-1.1-16.1l66-9.5c0,0-14-3.9-17.9-2.7l-1.3-2.1c0,0,9-4.1,27.4,2.2
			l62.8-11.8C606.6,474,610.8,479,611.3,490z"/>
		<path class="st2" d="M469.4,500.4"/>
		<path class="st3" d="M470.8,512.6c0,0-3.6-2.2-0.5-13.4C470.2,499.1,475.5,504.7,470.8,512.6z"/>
		<path class="st4" d="M598.3,486.7c0,0-6.1,3.5-8.8,1.7"/>
		<path class="st4" d="M582.6,483.1c0,0-6.1,3.5-8.8,1.7"/>
		<path class="st4" d="M523,499.3c0,0-9,2.2-11.8,0.1"/>
		<path class="st4" d="M499.4,499.8c0,0-9,2.2-11.8,0.1"/>
		<path class="st4" d="M563.1,491.8c0,0-7.2-1.2-9.4,1.8"/>
	</g>
	<g>
		<path class="st1" d="M495.7,502.2l-113.2-15.6c0,0-3.4-3.6,2.9-11.9l52.7,8.6c0,0-9.8-6.1-13-6.1l-0.5-1.8c0,0,7.9-0.8,20.4,8
			l50.8,6.2C495.8,489.5,497.9,494.1,495.7,502.2z"/>
		<path class="st2" d="M384.7,476.5"/>
		<path class="st3" d="M382.9,485.6c0,0-2.3-2.5,2.8-9.8C385.6,475.8,388.4,481.1,382.9,485.6z"/>
		<path class="st4" d="M486.5,496.8c0,0-5.5,1.1-7.1-0.9"/>
		<path class="st4" d="M475.4,490.5c0,0-5.5,1.1-7.1-0.9"/>
		<path class="st4" d="M425.9,488.2c0,0-7.4-0.5-9-2.7"/>
		<path class="st4" d="M407.8,483.1c0,0-7.4-0.5-9-2.7"/>
		<path class="st4" d="M458.3,492.2c0,0-5.2-2.5-7.6-0.9"/>
	</g>
	<g>
		<path class="st1" d="M259.4,484.5l-114.1,7c0,0-4-2.5,0.7-10.7l53.4-2.1c0,0-10.7-3.5-13.9-2.9l-0.8-1.5c0,0,7.6-2.1,21.5,3.2
			l51-3.8C257.2,473.6,260,477.1,259.4,484.5z"/>
		<path class="st2" d="M145.6,482.4"/>
		<path class="st3" d="M145.5,490.5c0,0-2.7-1.7,0.9-8.9C146.4,481.6,150.1,485.6,145.5,490.5z"/>
		<path class="st4" d="M249.4,481.5c0,0-5.2,1.9-7.2,0.5"/>
		<path class="st4" d="M237.3,478.1c0,0-5.2,1.9-7.2,0.5"/>
		<path class="st4" d="M188.3,485c0,0-7.4,0.9-9.4-0.7"/>
		<path class="st4" d="M169.5,483.9c0,0-7.4,0.9-9.4-0.7"/>
		<path class="st4" d="M220.9,482.6c0,0-5.6-1.2-7.7,0.6"/>
	</g>
	<g>
		<path class="st5" d="M381.7,479.1l-65.2-2.2l13.4-11.2c0,0-7.4-3.7-14.1,1.8l-1.1-7.8c0,0-4.6,1.4-5.8,11.4c0,0-6.7,6.4-12,5
			l-43.4-5.4c0,0-6.8,9.8-0.6,16.3l125.1,9.7l17.1,7.6c0,0,8-4.4,0.5-12c0,0-2.3,0.3-11.6-5L381.7,479.1z"/>
		<path class="st6" d="M392.5,496.7c0,0,3.7-4,4,2.2C396.5,498.9,393.1,505.4,392.5,496.7z"/>
		<path class="st4" d="M358,487.2c0,0,7.5-2.6,10,0.5"/>
		<path class="st4" d="M339.8,487.8c0,0,7.3,2.9,10,0.5"/>
		<path class="st4" d="M323.2,482.9c0,0,7.3,2.9,10,0.5"/>
		<path class="st4" d="M309,485.8c0,0-3.6-1.6-9.7-1"/>
		<path class="st4" d="M284.3,483.3c0,0-3.6-1.6-9.7-1"/>
	</g>
</g>
</svg>
