<?xml version="1.0" encoding="utf-8"?>
<!-- Generator: Adobe Illustrator 23.0.1, SVG Export Plug-In . SVG Version: 6.00 Build 0)  -->
<svg version="1.1" id="圖層_1" xmlns="http://www.w3.org/2000/svg" xmlns:xlink="http://www.w3.org/1999/xlink" x="0px" y="0px"
	 viewBox="0 0 708.6 155.1" style="enable-background:new 0 0 708.6 155.1;" xml:space="preserve">
<style type="text/css">
	.st0{fill:#947F70;}
	.st1{fill:#3BA261;}
	.st2{fill:none;stroke:#231815;stroke-miterlimit:10;}
	.st3{fill:#367473;}
	.st4{fill:none;stroke:#FFFFFF;stroke-miterlimit:10;}
</style>
<path class="st0" d="M708.6,155.1V96.7C676.2,86.3,595.5,91,559.9,104c-45.2,9.1-97.1,9.4-153.5,3.8c-62.4-8.2-115.7-1.4-177.1,8.7
	C80.6,115.6,55.8,108.2,0,91.5v63.6H708.6z"/>
<polygon class="st0" points="178.3,123 149.9,85.6 152.6,82.7 190.9,121.5 "/>
<path class="st0" d="M572,103.1l12.5-33c5.7-13,12.9-25.5,21.9-37.4l13.6-11.1l-6-5.5c-8.1,4.9-14.7,11.6-20.3,19.3L572.8,73
	l-19.8,36.8l17,2.6L572,103.1z"/>
<polygon class="st0" points="583.1,16.1 592.4,37.5 589.3,50.1 579.2,17.9 "/>
<polygon class="st0" points="167.2,98.3 168,73 171.2,73 172.7,109.5 "/>
<g>
	<path class="st1" d="M150.5,82.5c1.4-1.3,0.4-3.4-1.5-7c-1.7-3.1-5.3-3.7-6.7-2.5s-1.2,4.9,1.5,7C147.2,82.7,149,83.7,150.5,82.5z"
		/>
	<path class="st2" d="M143.1,75.2c2.7,0.5,5.8,2.7,7.3,7.7"/>
	<line class="st2" x1="145.1" y1="76.9" x2="143.1" y2="77.6"/>
	<line class="st2" x1="145.4" y1="74" x2="145.4" y2="75.2"/>
	<line class="st2" x1="147.2" y1="75.1" x2="146.9" y2="76.8"/>
	<line class="st2" x1="146.8" y1="78" x2="144.2" y2="79"/>
</g>
<g>
	<path class="st1" d="M619,16.8c2.4,2.2,5.9,0,11.6-3.9c4.8-3.3,5.3-9.6,2.9-11.8C631-1.1,625-0.1,621.9,5
		C618,11.2,616.6,14.6,619,16.8z"/>
	<path class="st2" d="M629.8,2.9c-0.4,4.6-3.4,10.3-11.6,13.7"/>
	<line class="st2" x1="627.5" y1="6.8" x2="625.9" y2="3.4"/>
	<line class="st2" x1="632.3" y1="6.7" x2="630.2" y2="6.8"/>
	<line class="st2" x1="630.8" y1="9.9" x2="627.8" y2="9.7"/>
	<line class="st2" x1="625.8" y1="9.7" x2="623.7" y2="5.6"/>
</g>
<g>
	<path class="st3" d="M650.3,140.2c1.3,4.5,7.2,4.5,17.1,3.9c8.5-0.5,13.7-7.8,12.4-12.3c-1.3-4.5-9.5-7.7-17.1-3.9
		C653.2,132.6,649,135.7,650.3,140.2z"/>
	<path class="st2" d="M674.1,131.4c-3.9,5.3-12,10-24.6,8.1"/>
	<line class="st2" x1="668.3" y1="134.3" x2="668.9" y2="129"/>
	<line class="st2" x1="674.2" y1="137.9" x2="671.6" y2="136.4"/>
	<line class="st2" x1="670" y1="140.6" x2="666.6" y2="138.1"/>
	<line class="st2" x1="664.1" y1="136.7" x2="664.5" y2="129.9"/>
</g>
<g>
	<path class="st1" d="M170.1,70.7c-2.5,0.4-3.8-2.5-5.8-7.5c-1.7-4.2,0.8-8.5,3.3-8.9c2.5-0.4,5.9,2.9,5.8,7.5
		C173.2,67.5,172.6,70.3,170.1,70.7z"/>
	<path class="st2" d="M169.1,57c-1.7,3.1-2.2,8.1,1.5,13.9"/>
	<line class="st2" x1="169" y1="60.5" x2="171.5" y2="59"/>
	<line class="st2" x1="165.9" y1="58.4" x2="167.2" y2="59.4"/>
	<line class="st2" x1="165.5" y1="61.1" x2="167.5" y2="62.2"/>
	<line class="st2" x1="168.8" y1="63.1" x2="171.9" y2="61.4"/>
</g>
<g>
	<path class="st1" d="M580.4,14.5c-1.5,1.1-3.4-0.3-6.5-2.9c-2.6-2.2-2.5-5.9-1-7c1.5-1.1,4.9-0.2,6.5,2.9
		C581.3,11.3,581.9,13.3,580.4,14.5z"/>
	<path class="st2" d="M574.9,5.8c0,2.7,1.4,6.2,5.9,8.6"/>
	<line class="st2" x1="576.1" y1="8.2" x2="577.1" y2="6.3"/>
	<line class="st2" x1="573.3" y1="7.9" x2="574.5" y2="8.1"/>
	<line class="st2" x1="574" y1="9.8" x2="575.7" y2="9.8"/>
	<line class="st2" x1="576.8" y1="10" x2="578.3" y2="7.7"/>
</g>
<g>
	<path class="st3" d="M47,131.1c-1.3,4.5-7.2,4.5-17.1,3.9c-8.5-0.5-13.7-7.8-12.4-12.3s9.5-7.7,17.1-3.9
		C44.1,123.5,48.3,126.6,47,131.1z"/>
	<path class="st2" d="M23.2,122.3c3.9,5.3,12,10,24.6,8.1"/>
	<line class="st2" x1="29.1" y1="125.2" x2="28.5" y2="119.9"/>
	<line class="st2" x1="23.1" y1="128.8" x2="25.8" y2="127.3"/>
	<line class="st2" x1="27.3" y1="131.5" x2="30.8" y2="129"/>
	<line class="st2" x1="33.3" y1="127.6" x2="32.8" y2="120.8"/>
</g>
<g>
	<path class="st3" d="M434.6,125.7c-1.3,4.5-7.2,4.5-17.1,3.9c-8.5-0.5-13.7-7.8-12.4-12.3s9.5-7.7,17.1-3.9
		C431.7,118.1,435.9,121.2,434.6,125.7z"/>
	<path class="st2" d="M410.8,116.8c3.9,5.3,12,10,24.6,8.1"/>
	<line class="st2" x1="416.7" y1="119.7" x2="416.1" y2="114.4"/>
	<line class="st2" x1="410.7" y1="123.3" x2="413.4" y2="121.9"/>
	<line class="st2" x1="415" y1="126.1" x2="418.4" y2="123.6"/>
	<line class="st2" x1="420.9" y1="122.1" x2="420.4" y2="115.4"/>
</g>
<path class="st4" d="M71.7,117c0,8.6,7.1,15.6,15.9,15.6"/>
<path class="st4" d="M74.6,115.7c0,5.9,4.5,10.7,10,10.7"/>
<path class="st4" d="M180.3,134.5c-4.5,5.5-12,6.8-16.6,3"/>
<path class="st4" d="M176.2,144.1c-8.7,2-16.2,1.6-16.8-0.9"/>
<path class="st4" d="M257.8,120.8c0,5.9,6.5,10.7,14.6,10.7"/>
<path class="st4" d="M256.3,130.6c0,4,7.9,7.2,17.6,7.2"/>
<path class="st4" d="M341.8,111.7c0,9,8.4,16.3,18.8,16.3"/>
<path class="st4" d="M347.3,111.3c0,6.4,6.3,11.5,14,11.5"/>
<path class="st4" d="M420.4,137.1c0,4.5-6.9,8.1-15.5,8.1"/>
<path class="st4" d="M425.1,141c0,4.5-7.5,8.2-16.8,8.2"/>
<path class="st4" d="M523.2,117c0,7.1,6.7,12.8,15.1,12.8"/>
<path class="st4" d="M519.5,125.3c0,6.5,8.4,11.8,18.8,11.8"/>
<path class="st4" d="M599.7,136.7c0,4.2-6,7.7-13.3,7.7"/>
<path class="st4" d="M595.6,132.9c0,3.2-4.4,5.8-9.8,5.8"/>
<path class="st4" d="M661.8,98.8c0,5.9-6.3,10.7-14,10.7"/>
<path class="st4" d="M663.8,107.5c0,4.2-9.1,7.5-20.3,7.5"/>
</svg>
