<?xml version="1.0" encoding="utf-8"?>
<!-- Generator: Adobe Illustrator 21.1.0, SVG Export Plug-In . SVG Version: 6.00 Build 0)  -->
<svg version="1.1" id="圖層_1" xmlns="http://www.w3.org/2000/svg" xmlns:xlink="http://www.w3.org/1999/xlink" x="0px" y="0px"
	 viewBox="0 0 708.6 159.8" style="enable-background:new 0 0 708.6 159.8;" xml:space="preserve">
<style type="text/css">
	.st0{fill:#FFFFFF;}
	.st1{fill:#947F70;}
	.st2{fill:#3BA261;}
	.st3{fill:none;stroke:#231815;stroke-miterlimit:10;}
	.st4{fill:#367473;}
	.st5{fill:none;stroke:#FFFFFF;stroke-miterlimit:10;}
</style>
<rect y="129.4" class="st0" width="708.6" height="30.5"/>
<path class="st1" d="M708.6,134.4v-25c-28.6,0-148.6-4.9-148.6-4.9s-97.2,3.9-153.6-1.7c-62.4-8.2-115.7-1.4-177.1,8.7
	C126.4,123.1,55.8,104.1,0,86.5v73.2c17.3-1.9,56.9,2.1,106.9-1.5s178.9-26,277.5-22.5c75.4,6.7,83.3,10.2,149.4,2.5
	C597.4,138.2,670.7,129.2,708.6,134.4z"/>
<path class="st1" d="M178.3,118L151,82c-0.6-0.8-0.6-2,0.1-2.7l0,0c0.8-0.9,2.2-0.9,3,0l36.8,37.2L178.3,118z"/>
<path class="st1" d="M572,103.1l12.5-33c5.7-13,12.9-25.5,21.9-37.4l7.4-9.1c2-1.6,4.5-3.6,2.7-5.3l0,0c-1.4-1.3-3.6-1.5-5.2-0.4
	c-6.8,4.7-12.5,10.7-17.5,17.5l-21,37.6L553,109.8l17,2.6L572,103.1z"/>
<path class="st1" d="M584,18.2l8.4,19.3l-3.1,12.6l-9.5-30.3c-0.3-1.1,0.2-2.3,1.2-2.7l0,0C582.2,16.5,583.5,17.1,584,18.2z"/>
<path class="st1" d="M167.2,93.3l0.7-23.7c0-0.9,0.8-1.6,1.7-1.6l0,0c0.9,0,1.6,0.7,1.7,1.6l1.4,34.9L167.2,93.3z"/>
<g>
	<path class="st2" d="M150.5,77.5c1.4-1.3,0.4-3.4-1.5-7c-1.7-3.1-5.3-3.7-6.7-2.5s-1.2,4.9,1.5,7C147.2,77.7,149,78.7,150.5,77.5z"
		/>
	<path class="st3" d="M143.1,70.2c2.7,0.5,5.8,2.7,7.3,7.7"/>
	<line class="st3" x1="145.1" y1="71.9" x2="143.1" y2="72.6"/>
	<line class="st3" x1="145.4" y1="69" x2="145.4" y2="70.2"/>
	<line class="st3" x1="147.2" y1="70.1" x2="146.9" y2="71.8"/>
	<line class="st3" x1="146.8" y1="73" x2="144.2" y2="74"/>
</g>
<g>
	<path class="st2" d="M619,16.8c2.4,2.2,5.9,0,11.6-3.9c4.8-3.3,5.3-9.6,2.9-11.8C631-1.1,625-0.1,621.9,5
		C618,11.2,616.6,14.6,619,16.8z"/>
	<path class="st3" d="M629.8,2.9c-0.4,4.6-3.4,10.3-11.6,13.7"/>
	<line class="st3" x1="627.5" y1="6.8" x2="625.9" y2="3.4"/>
	<line class="st3" x1="632.3" y1="6.7" x2="630.2" y2="6.8"/>
	<line class="st3" x1="630.8" y1="9.9" x2="627.8" y2="9.7"/>
	<line class="st3" x1="625.8" y1="9.7" x2="623.7" y2="5.6"/>
</g>
<g>
	<path class="st4" d="M676.2,120.6c0.9,3.2,5.1,3.2,12.2,2.8c6.1-0.4,9.8-5.6,8.9-8.8s-6.8-5.5-12.2-2.8
		C678.3,115.2,675.3,117.4,676.2,120.6z"/>
	<path class="st3" d="M693.2,114.3c-2.8,3.8-8.6,7.1-17.6,5.8"/>
	<line class="st3" x1="689.1" y1="116.4" x2="689.5" y2="112.6"/>
	<line class="st3" x1="693.3" y1="119" x2="691.5" y2="117.9"/>
	<line class="st3" x1="690.3" y1="120.9" x2="687.9" y2="119.1"/>
	<line class="st3" x1="686.1" y1="118.1" x2="686.4" y2="113.2"/>
</g>
<g>
	<path class="st2" d="M170.1,65.7c-2.5,0.4-3.8-2.5-5.8-7.5c-1.7-4.2,0.8-8.5,3.3-8.9s5.9,2.9,5.8,7.5
		C173.2,62.5,172.6,65.3,170.1,65.7z"/>
	<path class="st3" d="M169.1,52c-1.7,3.1-2.2,8.1,1.5,13.9"/>
	<line class="st3" x1="169" y1="55.5" x2="171.5" y2="54"/>
	<line class="st3" x1="165.9" y1="53.4" x2="167.2" y2="54.4"/>
	<line class="st3" x1="165.5" y1="56.1" x2="167.5" y2="57.2"/>
	<line class="st3" x1="168.8" y1="58.1" x2="171.9" y2="56.4"/>
</g>
<g>
	<path class="st2" d="M580.4,14.5c-1.5,1.1-3.4-0.3-6.5-2.9c-2.6-2.2-2.5-5.9-1-7s4.9-0.2,6.5,2.9C581.3,11.3,581.9,13.3,580.4,14.5
		z"/>
	<path class="st3" d="M574.9,5.8c0,2.7,1.4,6.2,5.9,8.6"/>
	<line class="st3" x1="576.1" y1="8.2" x2="577.1" y2="6.3"/>
	<line class="st3" x1="573.3" y1="7.9" x2="574.5" y2="8.1"/>
	<line class="st3" x1="574" y1="9.8" x2="575.7" y2="9.8"/>
	<line class="st3" x1="576.8" y1="10" x2="578.3" y2="7.7"/>
</g>
<g>
	<path class="st4" d="M47,126.1c-1.3,4.5-7.2,4.5-17.1,3.9c-8.5-0.5-13.7-7.8-12.4-12.3s9.5-7.7,17.1-3.9
		C44.1,118.5,48.3,121.6,47,126.1z"/>
	<path class="st3" d="M23.2,117.3c3.9,5.3,12,10,24.6,8.1"/>
	<line class="st3" x1="29.1" y1="120.2" x2="28.5" y2="114.9"/>
	<line class="st3" x1="23.1" y1="123.8" x2="25.8" y2="122.3"/>
	<line class="st3" x1="27.3" y1="126.5" x2="30.8" y2="124"/>
	<line class="st3" x1="33.3" y1="122.6" x2="32.8" y2="115.8"/>
</g>
<g>
	<path class="st4" d="M418.6,119.7c-1.3,4.5-7.2,4.5-17.1,3.9c-8.5-0.5-13.7-7.8-12.4-12.3s9.5-7.7,17.1-3.9
		C415.7,112.1,419.9,115.2,418.6,119.7z"/>
	<path class="st3" d="M394.8,110.8c3.9,5.3,12,10,24.6,8.1"/>
	<line class="st3" x1="400.7" y1="113.7" x2="400.1" y2="108.4"/>
	<line class="st3" x1="394.7" y1="117.3" x2="397.4" y2="115.9"/>
	<line class="st3" x1="399" y1="120.1" x2="402.4" y2="117.6"/>
	<line class="st3" x1="404.9" y1="116.1" x2="404.4" y2="109.4"/>
</g>
<path class="st5" d="M58.7,113c0,8.6,7.1,15.6,15.9,15.6"/>
<path class="st5" d="M63.6,111.7c0,5.9,4.5,10.7,10,10.7"/>
<path class="st5" d="M165.3,130.5c-4.5,5.5-12,6.8-16.6,3"/>
<path class="st5" d="M166.2,139.1c-8.7,2-16.2,1.6-16.8-0.9"/>
<path class="st5" d="M248.8,115.8c0,5.9,6.5,10.7,14.6,10.7"/>
<path class="st5" d="M251.3,125.6c0,4,7.9,7.2,17.6,7.2"/>
<path class="st5" d="M333.8,116.7c0,9,8.4,16.3,18.8,16.3"/>
<path class="st5" d="M339.3,114.3c0,6.4,6.3,11.5,14,11.5"/>
<path class="st5" d="M448.4,127.1c0,4.5-6.9,8.1-15.5,8.1"/>
<path class="st5" d="M443.1,124c0,4.5-7.5,8.2-16.8,8.2"/>
<path class="st5" d="M523.2,112c0,7.1,6.7,12.8,15.1,12.8"/>
<path class="st5" d="M519.5,116.3c0,6.5,8.4,11.8,18.8,11.8"/>
<path class="st5" d="M602.7,125.7c0,4.2-6,7.7-13.3,7.7"/>
<path class="st5" d="M600.6,122.9c0,3.2-4.4,5.8-9.8,5.8"/>
<path class="st5" d="M652.8,111.8c0,5.9-6.3,10.7-14,10.7"/>
<path class="st5" d="M656.8,118.5c0,4.2-9.1,7.5-20.3,7.5"/>
</svg>
