<?xml version="1.0" encoding="utf-8"?>
<!-- Generator: Adobe Illustrator 21.1.0, SVG Export Plug-In . SVG Version: 6.00 Build 0)  -->
<svg version="1.1" id="圖層_1" xmlns="http://www.w3.org/2000/svg" xmlns:xlink="http://www.w3.org/1999/xlink" x="0px" y="0px"
	 viewBox="0 0 708.7 333.2" style="enable-background:new 0 0 708.7 333.2;" xml:space="preserve">
<style type="text/css">
	.st0{fill:#947F70;}
	.st1{fill:#DAB980;}
	.st2{fill:#3BA261;}
	.st3{fill:none;stroke:#231815;stroke-miterlimit:10;}
	.st4{fill:#367473;}
</style>
<path class="st0" d="M0,225.4c55.8,16.7,80.6,24.1,229.3,25c61.4-10.1,114.7-16.9,177.1-8.7c56.4,5.6,108.3,5.3,153.5-3.8
	c35.6-13,116.3-17.7,148.7-7.3v102.6H0V225.4z"/>
<polygon class="st0" points="217.2,263 150.1,175 160.2,164.6 250.5,256 "/>
<path class="st0" d="M541.5,246.3l29.9-78.8c13.7-31.1,30.8-61,52.3-89.4l32.4-26.5l-14.3-13.1c-19.4,11.8-35.1,27.7-48.6,46.1
	l-49.8,89.7L496,262.2l40.6,6.2L541.5,246.3z"/>
<polygon class="st0" points="568.2,38.5 590.3,89.7 582.9,119.8 558.9,42.9 "/>
<polygon class="st1" points="98,280.3 214.5,282.2 153.6,284.5 "/>
<polygon class="st1" points="221,308.8 337.5,306.6 276.6,304.1 "/>
<path class="st1" d="M364.6,263l116.5-2.1l-60.9-2.6l0,0L364.6,263z"/>
<polygon class="st1" points="503.8,314.9 620.3,316.1 559.4,317.6 "/>
<polygon class="st1" points="592,267.1 708.5,268.3 647.6,269.8 "/>
<polygon class="st1" points="427.6,307.4 544.1,306.5 483.2,305.4 "/>
<polygon class="st1" points="4.4,295.4 120.9,294.5 60,293.4 "/>
<polygon class="st0" points="190.4,195.1 192.4,135.4 205.1,135.4 208.5,221.5 "/>
<g>
	<path class="st2" d="M151.6,167.5c3.4-3,1-8.1-3.6-16.5c-3.9-7.2-12.5-8.8-15.9-5.8s-2.8,11.5,3.6,16.5
		C143.8,168.1,148.2,170.5,151.6,167.5z"/>
	<path class="st3" d="M134.1,150.4c6.3,1.2,13.7,6.3,17.2,18.2"/>
	<line class="st3" x1="139" y1="154.3" x2="134.1" y2="156"/>
	<line class="st3" x1="139.7" y1="147.6" x2="139.5" y2="150.5"/>
	<line class="st3" x1="143.9" y1="150.2" x2="143.1" y2="154.2"/>
	<line class="st3" x1="142.8" y1="157" x2="136.8" y2="159.3"/>
</g>
<g>
	<path class="st2" d="M653.8,40.1c5.7,5.2,14,0.1,27.6-9.3c11.5-8,12.6-23,6.9-28.2c-5.7-5.2-20.1-2.7-27.6,9.3
		C651.4,26.8,648.1,34.9,653.8,40.1z"/>
	<path class="st3" d="M679.8,7c-0.9,11-8.2,24.6-27.7,32.8"/>
	<line class="st3" x1="674.1" y1="16.2" x2="670.3" y2="8.1"/>
	<line class="st3" x1="685.6" y1="16" x2="680.6" y2="16.3"/>
	<line class="st3" x1="682" y1="23.6" x2="675" y2="23.1"/>
	<line class="st3" x1="670.2" y1="23.2" x2="665" y2="13.3"/>
</g>
<g>
	<path class="st4" d="M641.6,313.8c1.3,4.5,7.2,4.5,17.1,3.9c8.5-0.5,13.7-7.8,12.4-12.3s-9.5-7.7-17.1-3.9
		C644.5,306.2,640.3,309.3,641.6,313.8z"/>
	<path class="st3" d="M665.4,305c-3.9,5.3-12,10-24.6,8.1"/>
	<line class="st3" x1="659.6" y1="307.9" x2="660.2" y2="302.6"/>
	<line class="st3" x1="665.5" y1="311.5" x2="662.9" y2="310"/>
	<line class="st3" x1="661.3" y1="314.2" x2="657.9" y2="311.7"/>
	<line class="st3" x1="655.4" y1="310.3" x2="655.8" y2="303.5"/>
</g>
<g>
	<path class="st2" d="M197.3,129.9c-5.9,0.9-9-5.9-13.6-17.7c-3.9-10,1.8-20,7.7-20.9s13.9,6.9,13.6,17.7
		C204.6,122.5,203.2,129,197.3,129.9z"/>
	<path class="st3" d="M195,97.7c-4.1,7.4-5.3,19.1,3.6,32.7"/>
	<line class="st3" x1="194.7" y1="106" x2="200.6" y2="102.5"/>
	<line class="st3" x1="187.4" y1="101" x2="190.5" y2="103.3"/>
	<line class="st3" x1="186.5" y1="107.3" x2="191.2" y2="110"/>
	<line class="st3" x1="194.2" y1="112.1" x2="201.7" y2="108"/>
</g>
<g>
	<path class="st2" d="M561.7,34.6c-3.6,2.7-8.2-0.7-15.5-6.9c-6.2-5.3-6-14-2.4-16.8c3.6-2.7,11.8-0.4,15.5,6.9
		C563.8,27.1,565.3,31.9,561.7,34.6z"/>
	<path class="st3" d="M548.5,13.9c-0.1,6.4,3.4,14.7,14.2,20.6"/>
	<line class="st3" x1="551.3" y1="19.6" x2="553.9" y2="15.1"/>
	<line class="st3" x1="544.6" y1="18.9" x2="547.5" y2="19.3"/>
	<line class="st3" x1="546.3" y1="23.5" x2="550.4" y2="23.5"/>
	<line class="st3" x1="553.1" y1="23.9" x2="556.7" y2="18.4"/>
</g>
<g>
	<path class="st4" d="M55.1,318.3c-1.3,4.5-7.2,4.5-17.1,3.9c-8.5-0.5-13.7-7.8-12.4-12.3s9.5-7.7,17.1-3.9
		C52.2,310.7,56.4,313.8,55.1,318.3z"/>
	<path class="st3" d="M31.3,309.5c3.9,5.3,12,10,24.6,8.1"/>
	<line class="st3" x1="37.2" y1="312.4" x2="36.6" y2="307.1"/>
	<line class="st3" x1="31.2" y1="316" x2="33.9" y2="314.5"/>
	<line class="st3" x1="35.4" y1="318.7" x2="38.9" y2="316.2"/>
	<line class="st3" x1="41.4" y1="314.8" x2="40.9" y2="308"/>
</g>
<g>
	<path class="st4" d="M293.7,263.2c-1.3,4.5-7.2,4.5-17.1,3.9c-8.5-0.5-13.7-7.8-12.4-12.3s9.5-7.7,17.1-3.9
		C290.8,255.6,295,258.7,293.7,263.2z"/>
	<path class="st3" d="M269.9,254.3c3.9,5.3,12,10,24.6,8.1"/>
	<line class="st3" x1="275.8" y1="257.2" x2="275.2" y2="251.9"/>
	<line class="st3" x1="269.8" y1="260.8" x2="272.5" y2="259.4"/>
	<line class="st3" x1="274.1" y1="263.6" x2="277.5" y2="261.1"/>
	<line class="st3" x1="280" y1="259.6" x2="279.5" y2="252.9"/>
</g>
</svg>
