<?xml version="1.0" encoding="utf-8"?>
<!-- Generator: Adobe Illustrator 23.0.1, SVG Export Plug-In . SVG Version: 6.00 Build 0)  -->
<svg version="1.1" id="圖層_1" xmlns="http://www.w3.org/2000/svg" xmlns:xlink="http://www.w3.org/1999/xlink" x="0px" y="0px"
	 viewBox="0 0 708.6 119.9" style="enable-background:new 0 0 708.6 119.9;" xml:space="preserve">
<style type="text/css">
	.st0{fill:#947F70;}
	.st1{fill:#DAB980;}
	.st2{fill:#3BA261;}
	.st3{fill:none;stroke:#231815;stroke-miterlimit:10;}
	.st4{fill:#367473;}
</style>
<path class="st0" d="M708.6,119.9V74c-32.4-10.4-113.1-5.7-148.7,7.3c-45.2,9.1-97.1,9.4-153.5,3.8c-62.4-8.2-115.7-1.4-177.1,8.7
	C80.6,92.9,55.8,85.5,0,68.8v51.1H708.6z"/>
<polygon class="st0" points="168.4,101.7 140.2,63 142.1,60.7 180.1,100.9 "/>
<path class="st0" d="M514.6,100.8l12.2-32.2c5.6-12.7,12.6-25,21.4-36.6l13.3-10.8l-5.9-5.4c-7.9,4.8-14.4,11.3-19.9,18.9
	l-20.4,36.7l-19.4,36l16.6,2.5L514.6,100.8z"/>
<polygon class="st0" points="525.5,15.7 534.6,36.7 531.6,49 521.7,17.5 "/>
<polygon class="st1" points="39.8,99.9 156.3,101.9 95.4,104.1 "/>
<polygon class="st1" points="300.6,97.1 417.1,94.9 356.2,92.4 "/>
<polygon class="st1" points="479.5,102.8 596,104 535.1,105.5 "/>
<polygon class="st1" points="592,91.7 708.5,92.9 647.6,94.4 "/>
<polygon class="st1" points="192.3,112.4 308.8,111.5 247.9,110.4 "/>
<polygon class="st0" points="156.5,79 157,62.9 160.4,62.9 161.4,86.2 "/>
<g>
	<path class="st2" d="M140.3,60.4c1.5-1.3,0.4-3.6-1.6-7.3c-1.7-3.2-5.5-3.9-7-2.5c-1.5,1.3-1.2,5.1,1.6,7.3
		C136.9,60.7,138.9,61.7,140.3,60.4z"/>
	<path class="st3" d="M132.7,52.9c2.8,0.5,6,2.8,7.6,8"/>
	<line class="st3" x1="134.8" y1="54.6" x2="132.7" y2="55.3"/>
	<line class="st3" x1="135.1" y1="51.6" x2="135" y2="52.9"/>
	<line class="st3" x1="137" y1="52.8" x2="136.6" y2="54.5"/>
	<line class="st3" x1="136.5" y1="55.8" x2="133.8" y2="56.8"/>
</g>
<g>
	<path class="st2" d="M560.6,16.4c2.3,2.1,5.7,0,11.3-3.8c4.7-3.3,5.2-9.4,2.8-11.5s-8.2-1.1-11.3,3.8
		C559.6,11,558.2,14.3,560.6,16.4z"/>
	<path class="st3" d="M571.2,2.9c-0.4,4.5-3.4,10.1-11.3,13.4"/>
	<line class="st3" x1="568.9" y1="6.6" x2="567.3" y2="3.3"/>
	<line class="st3" x1="573.6" y1="6.5" x2="571.5" y2="6.7"/>
	<line class="st3" x1="572.1" y1="9.6" x2="569.2" y2="9.4"/>
	<line class="st3" x1="567.3" y1="9.5" x2="565.1" y2="5.4"/>
</g>
<g>
	<path class="st4" d="M662.5,106c1.1,3.6,5.8,3.6,13.8,3.2c6.9-0.4,11.1-6.3,10-10c-1.1-3.6-7.7-6.2-13.8-3.2
		C664.8,99.9,661.4,102.4,662.5,106z"/>
	<path class="st3" d="M681.7,98.9c-3.2,4.3-9.7,8.1-19.9,6.6"/>
	<line class="st3" x1="677" y1="101.2" x2="677.5" y2="97"/>
	<line class="st3" x1="681.8" y1="104.2" x2="679.7" y2="102.9"/>
	<line class="st3" x1="678.4" y1="106.3" x2="675.7" y2="104.3"/>
	<line class="st3" x1="673.6" y1="103.2" x2="674" y2="97.7"/>
</g>
<g>
	<path class="st2" d="M158.6,61.3c-2.6-0.4-3.1-3.6-3.5-9.2c-0.4-4.7,3.2-8.2,5.8-7.9c2.6,0.4,5,4.6,3.5,9.2
		C162.5,59.1,161.2,61.7,158.6,61.3z"/>
	<path class="st3" d="M161.6,47.5c-2.6,2.6-4.6,7.4-2.6,14.2"/>
	<line class="st3" x1="160.4" y1="50.9" x2="163.4" y2="50.2"/>
	<line class="st3" x1="158" y1="47.9" x2="159" y2="49.3"/>
	<line class="st3" x1="156.8" y1="50.4" x2="158.5" y2="52.2"/>
	<line class="st3" x1="159.5" y1="53.4" x2="163.1" y2="52.6"/>
</g>
<g>
	<path class="st2" d="M522.9,14.1c-1.5,1.1-3.4-0.3-6.3-2.8c-2.5-2.2-2.5-5.7-1-6.9c1.5-1.1,4.8-0.2,6.3,2.8
		C523.7,11.1,524.4,13,522.9,14.1z"/>
	<path class="st3" d="M517.5,5.7c0,2.6,1.4,6,5.8,8.4"/>
	<line class="st3" x1="518.6" y1="8" x2="519.7" y2="6.2"/>
	<line class="st3" x1="515.9" y1="7.7" x2="517.1" y2="7.9"/>
	<line class="st3" x1="516.6" y1="9.6" x2="518.3" y2="9.6"/>
	<line class="st3" x1="519.4" y1="9.8" x2="520.8" y2="7.5"/>
</g>
<g>
	<path class="st4" d="M30.8,102.2c-1,3.4-5.5,3.4-13.1,3c-6.5-0.4-10.5-6-9.5-9.4c1-3.4,7.3-5.9,13.1-3
		C28.6,96.4,31.8,98.8,30.8,102.2z"/>
	<path class="st3" d="M12.6,95.5c3,4.1,9.2,7.7,18.8,6.2"/>
	<line class="st3" x1="17.1" y1="97.7" x2="16.6" y2="93.6"/>
	<line class="st3" x1="12.5" y1="100.4" x2="14.5" y2="99.3"/>
	<line class="st3" x1="15.7" y1="102.5" x2="18.4" y2="100.6"/>
	<line class="st3" x1="20.3" y1="99.5" x2="19.9" y2="94.3"/>
</g>
<g>
	<path class="st4" d="M448.8,99.8c-0.9,3.3-5.1,3.3-12.3,3c-6.1-0.3-9.9-5.5-9-8.7c0.9-3.3,6.8-5.6,12.3-3
		C446.7,94.4,449.7,96.6,448.8,99.8z"/>
	<path class="st3" d="M431.6,93.6c2.9,3.8,8.7,7.1,17.8,5.6"/>
	<line class="st3" x1="435.9" y1="95.7" x2="435.4" y2="91.8"/>
	<line class="st3" x1="431.6" y1="98.3" x2="433.5" y2="97.3"/>
	<line class="st3" x1="434.7" y1="100.3" x2="437.2" y2="98.4"/>
	<line class="st3" x1="438.9" y1="97.3" x2="438.5" y2="92.5"/>
</g>
</svg>
