<svg xmlns="http://www.w3.org/2000/svg" viewBox="0 0 340.8 417.56"><defs><style>.cls-1,.cls-2{fill:#fff;}.cls-2,.cls-4{stroke:#040000;stroke-miterlimit:10;}.cls-3{fill:#f09392;}.cls-4,.cls-6{fill:#040000;}.cls-5{fill:#626262;}</style></defs><title>talk</title><g id="圖層_2" data-name="圖層 2"><g id="圖層_1-2" data-name="圖層 1"><path d="M112.22,120c5.86-16.08-26,87.45-29,85.06-26.88-21.32-53.06-48.33-68.6-79.26C4.35,105.41-1.61,83.94.38,60.7c1.21-14.05,12.68-26.64,26.41-28S53.1,40.4,57,54.3c7.15,25.8,22.3,45.6,44.7,60C103.31,115.36,109.29,118.59,112.22,120Z"/><path d="M201.45,374.33c-.42,6.59-.59,13.21-1.32,19.77-1.8,16.25-8.09,22.31-24.41,23.19a216.85,216.85,0,0,1-23.44-.14c-9.88-.54-17-5.77-20.87-14.75a81.4,81.4,0,0,1-5.21-16.1c-4.21-20.87-12.16-40.46-20-60.08-.6-1.49-22.51-79.62-22.31-97.95-2-53.23,6.42-85.26,33.86-126.31a18.26,18.26,0,0,0,2.35-4.92c5.52-18.84,11-37.68,16.3-56.59.38-1.35-.61-3.46-1.59-4.74-6.31-8.22-6-18.11,1-25.93C141.43,3.6,153,2.5,160.8,7.28c1.18.73,3.3,1.49,4.18.94C178.78-.39,194.1-.28,209.51.16c11.35.32,22.14,2.61,30,7.82,7.14-1.38,12.79-3.81,18.12-3.26,15.76,1.63,22.21,18.39,12.63,31-1,1.37-1.85,3.72-1.44,5.24q7.4,26.95,15.33,53.75a35.37,35.37,0,0,0,4.61,9.32c25.15,37.73,42,78.8,49.58,123.54,1.56,9.25,1.1,18.83,2,28.21a119.3,119.3,0,0,1-2.88,38.78c-2.23,9.53-6.81,17.95-15.39,23.58a28.49,28.49,0,0,1-17.44,4.58c-3.34-.16-5.07.88-6.29,4.07-7.71,20.22-15.66,40.33-20.12,61.63a74.18,74.18,0,0,1-5.93,16.34c-3.29,6.93-9.32,11.49-16.81,11.91a240.09,240.09,0,0,1-33.32-.49c-8.94-.74-14.51-6.68-16-15.49-1.24-7.52-1.46-15.2-2.22-22.81a24,24,0,0,0-1.07-3.93Zm3.7-202.69c21.12-.34,40.45-11.89,58.3-22.75,6.5-4,8.27-10.32,4.83-16.17s-9.91-7-16.53-3.34a75.2,75.2,0,0,1-11.14,5.56c-38.19,19.53-41.18,22.78-82.32-5.68-6.39-3.59-12.63-2.35-16.16,3.27-3.65,5.81-1.76,12.45,4.95,16.51C165,159.86,185,171.31,205.15,171.64Z"/><path class="cls-1" d="M209,279.26c1.36,3.37,8.38,5.41,3.53,10-4.34,4.12-6.21-2.45-9.86-3.88-1.21,1.15-2.46,3-4.18,3.78a6.38,6.38,0,0,1-5.12.15c-2.05-1.16-2-3.51-.54-5.41,1.18-1.52,2.62-2.83,4.1-4.4-1.54-3.14-7.81-5.49-3.3-9.73,4.16-3.91,6.19,2,9.17,3.53,3.14-1.24,5.07-7.74,9.42-3.29C216.26,274.14,210.29,276.24,209,279.26Z"/><path class="cls-2" d="M181.92,55.95c7.77-4.92,37-15.88,45.94-2.54,4.94,7.34,2.86,20.69-4.77,26.7-4.11,3.23-8.69,3.46-14.17,3.73-5,.25-18.14.89-26.1-8.05-3.18-3.57-7.08-10.41-4.77-15.66A9.62,9.62,0,0,1,181.92,55.95Z"/><path d="M205.44,63.85c-7.34.09-12.79-2.66-13.16-6.64s25.8-4.38,25.75-.34S212.65,63.77,205.44,63.85Z"/><path class="cls-3" d="M155.87,48.32c5.05-2.59,14.53-1.24,17.3,5.77,2.6,6.59-2.42,13.93-8.65,16-5.88,2-13.42-.6-15.57-6.05-2.46-6.23,3.47-12.81,3.89-13.26A10.53,10.53,0,0,1,155.87,48.32Z"/><path class="cls-3" d="M240.14,65.68c-4.73-3.14-8.19-12.07-3.43-17.91,4.48-5.49,13.33-4.7,18.18-.28,4.58,4.17,6,12,2.34,16.54-4.23,5.19-12.87,3.24-13.47,3.09A10.53,10.53,0,0,1,240.14,65.68Z"/><path class="cls-4" d="M268.19,43.24c2.89-4.8,5.93-7.42,7.75-6.75,1.26.46,2,2.53,1.75,4.25-.68,4.34-7.85,6.05-7.5,7.25s9-.84,9.75,1c.39,1-1.48,2.64-3.25,4-2.22,1.7-4.7,1-4.75,1.5-.1.88,7.7,1.78,7.75,3.25,0,.7-1.7,1.6-7.5,2.75-.53.1,7.31-.82,8.25,1.33.5,1.15-.84,3.16-2.5,4a6.78,6.78,0,0,1-5.67-.17c0-.21,4.92-.43,8.5,2.17.33.24,2.52,1.83,2.17,2.83-.42,1.2-4.29,1.15-7.17.33a13.76,13.76,0,0,1-4.17-2c-.09-.06,2.29.88,11.58,5.49,1.17.58-1.76,2.61-3.25,3-2.28.59-4.82-.7-4.75-1s4.93-.45,7.5,2.25c.27.28,1.54,1.67,1.13,2.63-.48,1.11-3,1.1-4.62.75s-3.32-1.31-3.25-1.5,5.45,1,8.88,4.5c.87.9,1.14,1.45,1,1.88-.37,1.07-3.39,1.12-5.5.63A10.37,10.37,0,0,1,275.56,85c-.15-.14,2.4.89,10.88,5.63.73.41,1.46.93,1.38,1.38-.15.82-3,1.07-5,.88a13,13,0,0,1-6.37-2.5"/><path class="cls-4" d="M136.48,43.24c-2.89-4.8-5.93-7.42-7.75-6.75-1.26.46-2,2.53-1.75,4.25.68,4.34,7.85,6.05,7.5,7.25s-9-.84-9.75,1c-.39,1,1.48,2.64,3.25,4,2.22,1.7,4.7,1,4.75,1.5.1.88-7.7,1.78-7.75,3.25,0,.7,1.7,1.6,7.5,2.75.53.1-7.31-.82-8.25,1.33-.5,1.15.84,3.16,2.5,4a6.78,6.78,0,0,0,5.67-.17c0-.21-4.92-.43-8.5,2.17-.33.24-2.52,1.83-2.17,2.83.42,1.2,4.29,1.15,7.17.33a13.76,13.76,0,0,0,4.17-2c.09-.06-2.29.88-11.58,5.49-1.17.58,1.76,2.61,3.25,3,2.28.59,4.82-.7,4.75-1s-4.93-.45-7.5,2.25c-.27.28-1.54,1.67-1.12,2.63.48,1.11,3,1.1,4.63.75s3.32-1.31,3.25-1.5-5.45,1-8.88,4.5c-.87.9-1.14,1.45-1,1.88.37,1.07,3.39,1.12,5.5.63A10.37,10.37,0,0,0,129.11,85c.15-.14-2.4.89-10.88,5.63-.73.41-1.46.93-1.37,1.38.15.82,3,1.07,5,.88a13,13,0,0,0,6.38-2.5"/><path class="cls-1" d="M205.15,172.32c21.12-.34,40.45-11.89,58.3-22.75,6.5-4,8.27-10.32,4.83-16.17s-9.91-7-16.53-3.34a75.2,75.2,0,0,1-11.14,5.56c-38.19,19.53-41.18,22.78-82.32-5.68-6.39-3.59-12.63-2.35-16.16,3.27-3.65,5.81-1.76,12.45,4.95,16.51C165,160.54,185,172,205.15,172.32Z"/><path class="cls-5" d="M95.2,205a9,9,0,0,0,.53,4.4,1.54,1.54,0,0,0,1.85,1,1.51,1.51,0,0,0,1-1.85,7.07,7.07,0,0,1-.42-3.6,1.51,1.51,0,0,0-1.5-1.5,1.54,1.54,0,0,0-1.5,1.5Z"/><path class="cls-5" d="M105.19,205.55v2a1.5,1.5,0,0,0,3,0v-2a1.5,1.5,0,0,0-3,0Z"/><path class="cls-5" d="M118.39,204l.59,6.54c.17,1.91,3.17,1.93,3,0l-.59-6.54c-.17-1.91-3.17-1.93-3,0Z"/><path class="cls-5" d="M287.73,217.95l1.41,6c.44,1.88,3.33,1.08,2.89-.8l-1.41-6c-.44-1.88-3.33-1.08-2.89.8Z"/><path class="cls-5" d="M301.66,220l.51,2.5a1.5,1.5,0,1,0,2.89-.8l-.51-2.5a1.5,1.5,0,1,0-2.89.8Z"/><path class="cls-5" d="M246.79,343.42a12.46,12.46,0,0,1,.87,6.62c-.25,1.91,2.75,1.89,3,0a14.29,14.29,0,0,0-1-7.42c-.73-1.76-3.64-1-2.89.8Z"/><path class="cls-5" d="M256.38,342.81a4.68,4.68,0,0,1,.82,2.74,1.5,1.5,0,0,0,3,0,7.54,7.54,0,0,0-1.23-4.25,1.53,1.53,0,0,0-2.05-.54,1.52,1.52,0,0,0-.54,2.05Z"/><path class="cls-5" d="M272.16,338.58a3.24,3.24,0,0,1,.55,2.56c-.38,1.88,2.51,2.69,2.89.8a6.5,6.5,0,0,0-1.33-5.48,1.51,1.51,0,0,0-2.12,0,1.54,1.54,0,0,0,0,2.12Z"/><path class="cls-5" d="M118,329.79c.08,0,.37.16.14.07q.17.19,0,0,.11.21,0,.06c0-.25.08.41,0,.14q0-.17,0,.07.05-.26,0,0a1.5,1.5,0,0,0,2.89.8,3.31,3.31,0,0,0-1.62-3.73,1.53,1.53,0,0,0-2.05.54,1.52,1.52,0,0,0,.54,2.05Z"/><path class="cls-5" d="M128.31,325.91l1.46,3.52a1.55,1.55,0,0,0,1.85,1,1.51,1.51,0,0,0,1-1.85l-1.46-3.52a1.55,1.55,0,0,0-1.85-1,1.51,1.51,0,0,0-1,1.85Z"/><path class="cls-5" d="M137.69,323.55V333a1.5,1.5,0,0,0,3,0v-9.5a1.5,1.5,0,0,0-3,0Z"/><path class="cls-5" d="M176.66,218.55a32.3,32.3,0,0,0,1.1,7.89,1.5,1.5,0,0,0,2.89-.8,28.88,28.88,0,0,1-1-7.09c0-1.93-3-1.93-3,0Z"/><path class="cls-5" d="M183.69,220a8,8,0,0,1,2,2.91,1.54,1.54,0,0,0,1.85,1,1.51,1.51,0,0,0,1-1.85,11.4,11.4,0,0,0-2.8-4.24c-1.41-1.32-3.53.79-2.12,2.12Z"/><path class="cls-5" d="M199.19,218.55V224a1.5,1.5,0,0,0,3,0v-5.5a1.5,1.5,0,0,0-3,0Z"/><path class="cls-5" d="M122.14,264.6a15.55,15.55,0,0,1,3.6,5.35c.7,1.77,3.61,1,2.89-.8a19.11,19.11,0,0,0-4.37-6.67c-1.38-1.36-3.5.76-2.12,2.12Z"/><path class="cls-5" d="M133.32,261.91l1.88,5c.67,1.79,3.57,1,2.89-.8l-1.88-5c-.67-1.79-3.57-1-2.89.8Z"/><path class="cls-5" d="M143.66,259.46l1,5.5c.34,1.9,3.23,1.09,2.89-.8l-1-5.5c-.34-1.9-3.23-1.09-2.89.8Z"/><path class="cls-5" d="M262.18,267a22.14,22.14,0,0,0,1.57,8.4c.71,1.77,3.61,1,2.89-.8a19.9,19.9,0,0,1-1.46-7.6,1.5,1.5,0,0,0-3,0Z"/><path class="cls-5" d="M268.87,272.32l1,1.51a1.53,1.53,0,0,0,2.05.54,1.52,1.52,0,0,0,.54-2.05l-1-1.51a1.53,1.53,0,0,0-2.05-.54,1.52,1.52,0,0,0-.54,2.05Z"/><path class="cls-5" d="M275.1,271.71a50.8,50.8,0,0,1,2.57,7.25,1.5,1.5,0,0,0,2.89-.8,55.85,55.85,0,0,0-2.88-8c-.78-1.76-3.37-.24-2.59,1.51Z"/><path class="cls-5" d="M145.93,389.77a7.11,7.11,0,0,1,1.23,3.27,1.54,1.54,0,0,0,1.5,1.5,1.51,1.51,0,0,0,1.5-1.5,10.26,10.26,0,0,0-1.64-4.79c-1.07-1.6-3.67-.1-2.59,1.51Z"/><path class="cls-5" d="M153.17,386.47l1.54,4a1.54,1.54,0,0,0,1.85,1,1.51,1.51,0,0,0,1-1.85l-1.54-4a1.54,1.54,0,0,0-1.85-1,1.51,1.51,0,0,0-1,1.85Z"/><path class="cls-5" d="M162.78,384.43l1.91,6.53c.54,1.85,3.44,1.06,2.89-.8l-1.91-6.53c-.54-1.85-3.44-1.06-2.89.8Z"/><path class="cls-5" d="M260.13,171l.49,3a1.51,1.51,0,0,0,1.85,1,1.54,1.54,0,0,0,1-1.85l-.49-3a1.51,1.51,0,0,0-1.85-1,1.54,1.54,0,0,0-1,1.85Z"/><path class="cls-5" d="M264.94,168.28l2.38,5.06c.82,1.75,3.41.22,2.59-1.51l-2.38-5.06c-.82-1.75-3.41-.22-2.59,1.51Z"/><path class="cls-5" d="M276.55,167.2a19.78,19.78,0,0,1,3.16,8.25c.28,1.9,3.17,1.09,2.89-.8a21.83,21.83,0,0,0-3.46-9c-1.07-1.6-3.67-.1-2.59,1.51Z"/><path class="cls-5" d="M191.13,120.1a4.58,4.58,0,0,1,1,2.44,1.54,1.54,0,0,0,1.5,1.5,1.51,1.51,0,0,0,1.5-1.5,8.12,8.12,0,0,0-1.93-4.57,1.51,1.51,0,0,0-2.12,0,1.53,1.53,0,0,0,0,2.12Z"/><path class="cls-5" d="M197,118.23a6.78,6.78,0,0,1,1.5,4.31,1.5,1.5,0,0,0,3,0,9.41,9.41,0,0,0-1.91-5.82,1.55,1.55,0,0,0-2.05-.54,1.51,1.51,0,0,0-.54,2.05Z"/><path class="cls-5" d="M206.38,117.91l1.93,7.52c.48,1.87,3.37,1.08,2.89-.8l-1.93-7.52c-.48-1.87-3.37-1.08-2.89.8Z"/><path class="cls-5" d="M103.63,157.11l.5.5a1.5,1.5,0,0,0,2.12-2.12l-.5-.5a1.5,1.5,0,1,0-2.12,2.12Z"/><path class="cls-5" d="M114.77,151.15a8.73,8.73,0,0,0,.4,4.82,1.55,1.55,0,0,0,1.85,1,1.51,1.51,0,0,0,1-1.85,5.84,5.84,0,0,1-.4-3.23,1.54,1.54,0,0,0-1-1.85,1.51,1.51,0,0,0-1.85,1Z"/><path class="cls-5" d="M129.4,148.3a8.1,8.1,0,0,1,1.31,3.74c.16,1.91,3.16,1.93,3,0a11.31,11.31,0,0,0-1.72-5.26c-1-1.62-3.64-.12-2.59,1.51Z"/><path class="cls-5" d="M38.56,129.08c-.27,0,.19.07.2.07.32.09-.07-.09.2.09,0,0,.38.26.2.11a3,3,0,0,1,.33.32,1.5,1.5,0,0,0,2.12-2.12,4.78,4.78,0,0,0-3-1.48,1.5,1.5,0,0,0-1.5,1.5,1.55,1.55,0,0,0,1.5,1.5Z"/><path class="cls-5" d="M42.49,122a20.28,20.28,0,0,0,3.64,3.23,1.51,1.51,0,0,0,2.05-.54,1.53,1.53,0,0,0-.54-2.05,17.12,17.12,0,0,1-3-2.77A1.5,1.5,0,0,0,42.49,122Z"/><path class="cls-5" d="M51.46,114l2.7,3.31a1.51,1.51,0,0,0,2.12,0,1.53,1.53,0,0,0,0-2.12l-2.7-3.31a1.51,1.51,0,0,0-2.12,0,1.53,1.53,0,0,0,0,2.12Z"/><path class="cls-5" d="M64.49,159.34a15.67,15.67,0,0,1,2.77,3.7c.92,1.7,3.51.18,2.59-1.51a18.48,18.48,0,0,0-3.23-4.3,1.5,1.5,0,0,0-2.12,2.12Z"/><path class="cls-5" d="M69.53,149.28A10.29,10.29,0,0,1,72.46,151a1.54,1.54,0,0,0,2.12,0,1.51,1.51,0,0,0,0-2.12,14.53,14.53,0,0,0-4.25-2.54,1.51,1.51,0,0,0-1.85,1,1.53,1.53,0,0,0,1,1.85Z"/><path class="cls-5" d="M71.84,136.84a43.46,43.46,0,0,1,7,6.18c1.3,1.43,3.42-.7,2.12-2.12a47,47,0,0,0-7.57-6.65c-1.58-1.12-3.08,1.48-1.51,2.59Z"/><path class="cls-5" d="M26.86,72.42a19.14,19.14,0,0,1,2.33,4.91c.57,1.84,3.47,1.05,2.89-.8a22.07,22.07,0,0,0-2.63-5.62c-1.06-1.61-3.66-.11-2.59,1.51Z"/><path class="cls-5" d="M34.86,73.32l2.33,3a1.51,1.51,0,0,0,2.12,0,1.54,1.54,0,0,0,0-2.12L37,71.2a1.51,1.51,0,0,0-2.12,0,1.54,1.54,0,0,0,0,2.12Z"/><path class="cls-5" d="M43,70.68a55.39,55.39,0,0,1,4,7.36c.78,1.76,3.37.24,2.59-1.51a55.39,55.39,0,0,0-4-7.36c-1-1.62-3.64-.12-2.59,1.51Z"/><ellipse class="cls-3" cx="206.25" cy="73.68" rx="6.26" ry="6.83"/><path class="cls-1" d="M181.06,46.8a7.28,7.28,0,0,1-.54-14.54,7.26,7.26,0,0,1,7.54,7A7.35,7.35,0,0,1,181.06,46.8Z"/><path class="cls-1" d="M227,46.8a7.14,7.14,0,0,1-7.25-7.25,7.15,7.15,0,1,1,14.29-.3A7.39,7.39,0,0,1,227,46.8Z"/><circle class="cls-6" cx="180.92" cy="39.84" r="6.07"/><circle class="cls-6" cx="226.92" cy="39.84" r="6.07"/></g></g></svg>