<?xml version="1.0" encoding="utf-8"?>
<!-- Generator: Adobe Illustrator 23.0.1, SVG Export Plug-In . SVG Version: 6.00 Build 0)  -->
<svg version="1.1" id="圖層_1" xmlns="http://www.w3.org/2000/svg" xmlns:xlink="http://www.w3.org/1999/xlink" x="0px" y="0px"
	 viewBox="0 0 225.7 350.9" style="enable-background:new 0 0 225.7 350.9;" xml:space="preserve">
<style type="text/css">
	.st0{fill:#E8C689;}
	.st1{fill:none;stroke:#E8C689;stroke-width:4;stroke-linecap:round;stroke-miterlimit:10;}
	.st2{fill:#67BE8D;}
	.st3{fill:#718CC6;}
	.st4{fill:none;stroke:#FFFFFF;stroke-miterlimit:10;}
</style>
<g>
	<path class="st0" d="M92.8,350.9h31.4c2.7,0,4.9-2.2,4.9-5L127,43c0-2.2-1.5-4.2-3.7-4.7L122,38c-2.9-0.7-5.8,1.3-6.1,4.3
		l-28,303.2C87.6,348.4,89.9,350.9,92.8,350.9z"/>
	<g>
		<g>
			<path class="st0" d="M35.4,90c22.8,30.5,45.5,61.1,68.3,91.6c3.2,4.3,6.4,8.6,9.6,12.9c4.6,6.1,15,0.1,10.4-6.1
				c-22.8-30.5-45.5-61.1-68.3-91.6c-3.2-4.3-6.4-8.6-9.6-12.9C41.2,77.8,30.7,83.8,35.4,90L35.4,90z"/>
		</g>
	</g>
	<g>
		<g>
			<path class="st0" d="M188.9,138.4c-25,37.8-50,75.7-75,113.5c-3.5,5.3-7,10.6-10.5,15.9c-4.3,6.5,6.1,12.5,10.4,6.1
				c25-37.8,50-75.7,75-113.5c3.5-5.3,7-10.6,10.5-15.9C203.5,137.9,193.1,131.9,188.9,138.4L188.9,138.4z"/>
		</g>
	</g>
	<g>
		<g>
			<path class="st0" d="M155.2,67.3c-12.8,16-25.7,31.9-38.5,47.9c-4.8,6,3.6,14.5,8.5,8.5c12.8-16,25.7-31.9,38.5-47.9
				C168.4,69.8,160,61.3,155.2,67.3L155.2,67.3z"/>
		</g>
	</g>
	<g>
		<g>
			<path class="st0" d="M67.8,84.3c1.2,17.1,2.3,34.2,3.5,51.3c0.5,7.7,12.5,7.7,12,0c-1.2-17.1-2.3-34.2-3.5-51.3
				C79.3,76.7,67.3,76.6,67.8,84.3L67.8,84.3z"/>
		</g>
	</g>
	<g>
		<g>
			<path class="st0" d="M155.3,142.3c4.2,9.1,8.5,18.2,12.7,27.2c3.3,7,13.6,0.9,10.4-6.1c-4.2-9.1-8.5-18.2-12.7-27.2
				C162.3,129.2,152,135.3,155.3,142.3L155.3,142.3z"/>
		</g>
	</g>
	<line class="st1" x1="140.2" y1="62.2" x2="145.8" y2="88.5"/>
	<line class="st1" x1="40" y1="127.5" x2="83.4" y2="150.9"/>
	<g>
		<path class="st2" d="M161.5,62.8c0,0,12.9-12.1,0.9-28.4C161.9,35.3,148.8,46.1,161.5,62.8z"/>
		<path class="st3" d="M161.5,62.8l0.9-28.4C162.4,34.4,148,46,161.5,62.8z"/>
	</g>
	<g>
		<path class="st2" d="M166.5,65.7c0,0,15.2,9,27.5-7.2C193.1,58.3,179,48.7,166.5,65.7z"/>
		<path class="st3" d="M166.5,65.7l27.5-7.2C194,58.6,178.9,48,166.5,65.7z"/>
	</g>
	<g>
		<path class="st2" d="M158,132.1c0,0,13.8-11.1,2.9-28.3C160.3,104.7,146.4,114.5,158,132.1z"/>
		<path class="st3" d="M158,132.1l2.9-28.3C160.9,103.9,145.7,114.3,158,132.1z"/>
	</g>
	<g>
		<path class="st2" d="M155.8,134.1c0,0-6.1-16.6-25.8-11.8C130.5,123.1,135.4,139.4,155.8,134.1z"/>
		<path class="st3" d="M155.8,134.1L130,122.3C130,122.3,135,140.1,155.8,134.1z"/>
	</g>
	<g>
		<path class="st2" d="M74.2,76.7c0,0,17.6-1.6,18.1-21.9C91.3,55.1,74.3,55.6,74.2,76.7z"/>
		<path class="st3" d="M74.2,76.7l18.1-21.9C92.2,54.8,73.8,55.1,74.2,76.7z"/>
	</g>
	<g>
		<path class="st2" d="M71,77.7c0,0,4-17.2-15.1-24.1C56,54.7,51.1,70.9,71,77.7z"/>
		<path class="st3" d="M71,77.7L55.9,53.6C55.9,53.7,50.4,71.3,71,77.7z"/>
	</g>
	<g>
		<path class="st2" d="M33.3,81.9c0,0-8.1-21.2-33.3-14.7C0.8,68.2,7.3,88.9,33.3,81.9z"/>
		<path class="st3" d="M33.3,81.9L0,67.2C0.1,67.1,6.8,89.8,33.3,81.9z"/>
	</g>
	<g>
		<path class="st2" d="M35.71,125.3c0,0-4.2-17.2-24.3-14.7C11.81,111.5,14.81,128.2,35.71,125.3z"/>
		<path class="st3" d="M35.71,125.3l-24.3-14.7C11.41,110.6,14.41,128.8,35.71,125.3z"/>
	</g>
	<g>
		<path class="st2" d="M35.9,79.5c0,0,14.1-17.9-4.4-36.3C31.1,44.4,16.5,60.7,35.9,79.5z"/>
		<path class="st3" d="M35.9,79.5l-4.4-36.3C31.6,43.3,15.5,60.7,35.9,79.5z"/>
	</g>
	<g>
		<path class="st2" d="M195.9,132.1c0,0,11.1-13.7-3-28.2C192.4,104.8,180.9,117.3,195.9,132.1z"/>
		<path class="st3" d="M195.9,132.1l-3-28.2C192.8,103.9,180.2,117.3,195.9,132.1z"/>
	</g>
	<g>
		<path class="st2" d="M117.5,36.1c0,0,8.3-23.5-17.4-36.1C100,1.4,90.7,23.5,117.5,36.1z"/>
		<path class="st3" d="M117.5,36.1L100.1,0C100.1,0.1,89.7,23.9,117.5,36.1z"/>
	</g>
	<g>
		<path class="st2" d="M124.3,35.1c0,0,24.3-5.5,21.3-33.9C144.3,1.8,120.7,5.6,124.3,35.1z"/>
		<path class="st3" d="M124.3,35.1l21.3-33.9C145.6,1.1,119.8,5,124.3,35.1z"/>
	</g>
	<path class="st4" d="M123.9,52.4c0,5.8-2.3,10.5-5.1,10.5"/>
	<path class="st4" d="M127.1,62.8c0,3-3.7,5.5-8.3,5.5"/>
	<path class="st4" d="M115.5,99.3c0,4.1,2.6,7.5,5.8,7.5"/>
	<path class="st4" d="M113.1,106.8c0,3.5,4.8,6.3,10.8,6.3"/>
	<path class="st4" d="M123,135.2c0,5.1-3.3,9.3-7.5,9.3"/>
	<path class="st4" d="M123.9,142c0,2.7-2.9,4.9-6.4,4.9"/>
	<path class="st4" d="M105.3,170.1c0,5.4,5.9,9.8,13.1,9.8"/>
	<path class="st4" d="M108.6,166c0,4.9,4,9,8.9,9"/>
	<path class="st4" d="M127.1,202.6c0,3.6-6.8,6.5-15.2,6.5"/>
	<path class="st4" d="M127.1,209.2c0,2-5.2,3.7-11.6,3.7"/>
	<path class="st4" d="M105.3,238.4c0,6.1,5.9,11,13.2,11"/>
	<path class="st4" d="M102.1,243.9c0,3,4.4,5.5,9.8,5.5"/>
	<path class="st4" d="M127.1,271c0,5.8-8.3,10.6-18.5,10.6"/>
	<path class="st4" d="M123.9,281.6c0,2.5-4.8,4.5-10.8,4.5"/>
	<g>
		<path class="st2" d="M201.5,135.7c0,0,17.2,4.1,24.2-14.9C224.7,120.9,208.4,115.8,201.5,135.7z"/>
		<path class="st3" d="M201.5,135.7l24.2-14.9C225.6,120.8,208.1,115.2,201.5,135.7z"/>
	</g>
</g>
</svg>
