<?xml version="1.0" encoding="utf-8"?>
<!-- Generator: Adobe Illustrator 23.0.1, SVG Export Plug-In . SVG Version: 6.00 Build 0)  -->
<svg version="1.1" id="圖層_1" xmlns="http://www.w3.org/2000/svg" xmlns:xlink="http://www.w3.org/1999/xlink" x="0px" y="0px"
	 viewBox="0 0 133.31 358.68" style="enable-background:new 0 0 133.31 358.68;" xml:space="preserve">
<style type="text/css">
	.st0{fill:#DAB980;}
	.st1{fill:none;}
	.st2{fill:none;stroke:#FFFFFF;stroke-miterlimit:10;}
	.st3{fill:#DAE24B;}
	.st4{fill:none;stroke:#231815;stroke-miterlimit:10;}
</style>
<g>
	<path class="st0" d="M37.51,358.68h31.4c2.7,0,4.9-2.2,4.9-5l-2.1-302.9c0-2.2-1.5-4.2-3.7-4.7l-1.3-0.3c-2.9-0.7-5.8,1.3-6.1,4.3
		l-28,303.2C32.41,356.18,34.61,358.68,37.51,358.68z"/>
	<g>
		<line class="st1" x1="30.81" y1="169.98" x2="55.31" y2="210.88"/>
		<g>
			<path class="st0" d="M25.61,172.98c8.2,13.6,16.3,27.3,24.5,40.9c4,6.6,14.3,0.6,10.4-6.1c-8.2-13.6-16.3-27.3-24.5-40.9
				C32.01,160.28,21.61,166.28,25.61,172.98L25.61,172.98z"/>
		</g>
	</g>
	<g>
		<line class="st1" x1="102.51" y1="112.18" x2="57.81" y2="179.98"/>
		<g>
			<path class="st0" d="M97.41,109.18c-14.9,22.6-29.8,45.2-44.8,67.7c-4.3,6.5,6.1,12.5,10.4,6.1c14.9-22.6,29.8-45.2,44.8-67.7
				C112.01,108.78,101.61,102.78,97.41,109.18L97.41,109.18z"/>
		</g>
	</g>
	<path class="st2" d="M63.81,56.98c0,6.1,3.1,11,6.9,11"/>
	<path class="st2" d="M62.41,63.38c1.7,5.9,5.2,10.1,7.9,9.4"/>
	<path class="st2" d="M67.21,82.38c0,3-2.6,5.5-5.8,5.5"/>
	<path class="st2" d="M67.21,87.98c0,2.3-2.6,4.2-5.8,4.2"/>
	<path class="st2" d="M59.31,119.18c0,2.6,5.1,4.8,11.3,4.8"/>
	<path class="st2" d="M58.21,121.58c0,3.6,4.1,6.5,9.1,6.5"/>
	<path class="st2" d="M61.41,153.18c0,2.1-2.3,3.9-5.1,3.9"/>
	<path class="st2" d="M64.31,157.08c0,2.6-3.6,4.8-8,4.8"/>
	<path class="st2" d="M62.71,185.38c0,2.8,3.6,5.1,8,5.1"/>
	<path class="st2" d="M59.31,187.88c0,4,4.3,7.3,9.5,7.3"/>
	<path class="st2" d="M53.21,219.88c0,4.1-2.8,7.4-6.2,7.4"/>
	<path class="st2" d="M59.31,221.98c0,5.9-4.1,10.7-9.2,10.7"/>
	<path class="st2" d="M54.71,256.88c0,6.9,5.6,12.5,12.5,12.5"/>
	<path class="st2" d="M50.11,303.58c0,4.1-2.9,7.4-6.6,7.4"/>
	<path class="st2" d="M54.71,305.68c0,5.8-5,10.4-11.2,10.4"/>
	<g>
		<line class="st1" x1="41.01" y1="75.98" x2="65.51" y2="116.88"/>
		<g>
			<path class="st0" d="M35.81,78.98c8.2,13.6,16.3,27.3,24.5,40.9c4,6.6,14.3,0.6,10.4-6.1c-8.2-13.6-16.3-27.3-24.5-40.9
				C42.21,66.28,31.81,72.38,35.81,78.98L35.81,78.98z"/>
		</g>
	</g>
	<g>
		<path class="st3" d="M37.11,15.28c1.4,1.5,30.5,26,29,27.4s-33-20.9-34.4-22.4s-1.3-3.8,0.2-5.2
			C33.41,13.68,35.71,13.78,37.11,15.28z"/>
		<path class="st3" d="M44.91,8.88c1,1.8,22.9,32.9,21.1,33.8c-1.8,1-26.6-28.6-27.6-30.4s-0.3-4,1.5-4.9
			C41.81,6.48,44.01,7.08,44.91,8.88z"/>
		<path class="st3" d="M54.91,5.18c0.4,2,13,37.9,11.1,38.3c-2,0.4-17.8-34.8-18.2-36.8s0.8-3.9,2.8-4.3
			C52.51,1.98,54.51,3.18,54.91,5.18z"/>
		<path class="st3" d="M82.01,7.38c-1,1.8-14.7,37.3-16.5,36.3s9.1-38,10-39.8c1-1.8,3.2-2.4,4.9-1.5
			C82.31,3.38,83.01,5.58,82.01,7.38z"/>
		<path class="st3" d="M90.01,11.28c-1.3,1.5-23.1,32.8-24.6,31.4s17.8-34.8,19.1-36.3c1.3-1.5,3.6-1.6,5.1-0.3
			C91.21,7.48,91.41,9.78,90.01,11.28z"/>
		<path class="st3" d="M72.81,4.48c-0.5,2-5,39.8-7,39.3s-0.6-39.1-0.1-41c0.5-2,2.5-3.1,4.4-2.7C72.11,0.48,73.31,2.48,72.81,4.48z
			"/>
		<path class="st3" d="M63.61,3.98c0,2,4.7,39.8,2.6,39.8c-2,0-9.9-37.8-9.9-39.8s1.6-3.6,3.6-3.6S63.61,1.88,63.61,3.98z"/>
		<path class="st3" d="M96.11,16.88c-1.6,1.2-28.6,28.1-29.8,26.5c-1.2-1.6,23.8-31,25.4-32.2s3.9-0.9,5.1,0.6
			C97.91,13.38,97.71,15.68,96.11,16.88z"/>
		<path class="st3" d="M101.11,24.78c-1.8,0.8-34.5,20.4-35.3,18.5c-0.8-1.8,30.5-24.4,32.4-25.2c1.8-0.8,4,0,4.8,1.9
			C103.81,21.88,103.01,23.98,101.11,24.78z"/>
		<line class="st4" x1="81.51" y1="27.88" x2="66.31" y2="41.98"/>
		<line class="st4" x1="84.01" y1="31.68" x2="66.31" y2="41.98"/>
		<line class="st4" x1="72.91" y1="21.98" x2="66.31" y2="41.98"/>
		<line class="st4" x1="68.11" y1="20.28" x2="66.31" y2="41.98"/>
		<line class="st4" x1="63.11" y1="20.68" x2="66.31" y2="41.98"/>
		<line class="st4" x1="57.41" y1="22.18" x2="66.31" y2="41.98"/>
		<line class="st4" x1="52.11" y1="24.88" x2="66.31" y2="41.98"/>
		<line class="st4" x1="48.51" y1="28.38" x2="66.31" y2="41.98"/>
		<line class="st4" x1="77.51" y1="23.98" x2="66.31" y2="41.98"/>
	</g>
	<g>
		<path class="st3" d="M12.31,71.98c1.1,0,22.4-2.4,22.4-1.2c0,1.1-21.3,5.4-22.5,5.3s-2-0.9-2-2.1
			C10.31,72.88,11.21,71.98,12.31,71.98z"/>
		<path class="st3" d="M12.81,66.28c1.1,0.3,22.3,3.4,22,4.5s-22-0.2-23.1-0.5s-1.7-1.4-1.4-2.5
			C10.51,66.58,11.71,65.98,12.81,66.28z"/>
		<path class="st3" d="M15.11,60.78c1,0.6,20.5,9.4,19.9,10.3s-21.1-6.2-22.1-6.8c-1-0.6-1.3-1.9-0.7-2.8
			C12.91,60.48,14.11,60.18,15.11,60.78z"/>
		<path class="st3" d="M26.51,50.58c0.4,1.1,9.5,20.5,8.4,20.8s-12-18.4-12.3-19.5c-0.4-1.1,0.2-2.2,1.3-2.6
			S26.21,49.48,26.51,50.58z"/>
		<path class="st3" d="M31.21,48.78c0.1,1.1,4.4,22.1,3.3,22.2c-1.1,0.1-7.3-20.8-7.4-21.9c-0.1-1.1,0.7-2.1,1.9-2.2
			C30.11,46.78,31.11,47.68,31.21,48.78z"/>
		<path class="st3" d="M21.81,53.18c0.6,1,14.3,17.5,13.3,18.1s-16.2-14.9-16.8-15.9s-0.3-2.2,0.6-2.8
			C19.91,51.88,21.21,52.18,21.81,53.18z"/>
		<path class="st3" d="M18.01,56.68c0.8,0.8,18.1,13.5,17.3,14.4c-0.8,0.8-19.3-10.6-20.1-11.4s-0.9-2.1-0.1-2.9
			C15.91,55.98,17.21,55.98,18.01,56.68z"/>
		<path class="st3" d="M35.91,48.48c-0.1,1.1,0.4,22.6-0.8,22.5c-1.1-0.1-3.4-21.7-3.3-22.9c0.1-1.1,1.1-2,2.2-1.8
			C35.21,46.38,36.01,47.38,35.91,48.48z"/>
		<path class="st3" d="M41.11,49.48c-0.4,1.1-5.1,22-6.1,21.6c-1.1-0.4,1.9-21.9,2.3-23c0.4-1.1,1.6-1.6,2.6-1.2
			S41.41,48.48,41.11,49.48z"/>
		<line class="st4" x1="34.71" y1="58.68" x2="34.51" y2="70.38"/>
		<line class="st4" x1="37.21" y1="59.18" x2="34.51" y2="70.38"/>
		<line class="st4" x1="29.01" y1="59.88" x2="34.51" y2="70.38"/>
		<line class="st4" x1="26.41" y1="61.18" x2="34.51" y2="70.38"/>
		<line class="st4" x1="24.61" y1="63.38" x2="34.51" y2="70.38"/>
		<line class="st4" x1="23.01" y1="66.38" x2="34.51" y2="70.38"/>
		<line class="st4" x1="22.11" y1="69.48" x2="34.51" y2="70.38"/>
		<line class="st4" x1="22.11" y1="72.38" x2="34.51" y2="70.38"/>
		<line class="st4" x1="31.51" y1="58.78" x2="34.51" y2="70.38"/>
	</g>
	<g>
		<path class="st3" d="M95.81,81.08c0.4,1.2,10.9,23.5,9.7,23.9c-1.2,0.4-13.8-21.2-14.2-22.4c-0.4-1.2,0.3-2.6,1.5-3
			S95.41,79.88,95.81,81.08z"/>
		<path class="st3" d="M102.21,79.48c0.1,1.3,4.6,25.5,3.3,25.6c-1.3,0.1-8-24-8-25.3c-0.1-1.3,0.9-2.4,2.2-2.5
			S102.11,78.18,102.21,79.48z"/>
		<path class="st3" d="M109.01,79.98c-0.3,1.3-2.5,25.8-3.8,25.5s-1.1-25.2-0.8-26.5c0.3-1.3,1.5-2.1,2.8-1.8
			C108.51,77.38,109.31,78.68,109.01,79.98z"/>
		<path class="st3" d="M124.41,88.58c-1,0.8-18.7,18-19.4,16.9c-0.8-1,15.6-19.9,16.6-20.7c1-0.8,2.5-0.6,3.3,0.4
			C125.61,86.28,125.41,87.78,124.41,88.58z"/>
		<path class="st3" d="M128.01,92.98c-1.2,0.5-22.4,13.1-22.9,11.9s19.8-15.7,21-16.2s2.6,0,3.1,1.2
			C129.81,91.08,129.21,92.48,128.01,92.98z"/>
		<path class="st3" d="M119.71,84.38c-0.8,1-13.6,22-14.7,21.2c-1-0.8,10.2-23.1,11-24.1s2.3-1.2,3.3-0.4
			C120.41,81.88,120.51,83.38,119.71,84.38z"/>
		<path class="st3" d="M114.51,81.58c-0.5,1.2-8,24.6-9.1,24.1c-1.2-0.5,4.3-24.9,4.9-26.1c0.5-1.2,1.9-1.7,3.1-1.2
			C114.51,78.98,115.01,80.38,114.51,81.58z"/>
		<path class="st3" d="M130.01,97.98c-1.3,0.3-24.4,8.8-24.7,7.5c-0.3-1.3,22.3-11.8,23.6-12.1c1.3-0.3,2.5,0.5,2.8,1.8
			S131.31,97.68,130.01,97.98z"/>
		<path class="st3" d="M130.91,103.88c-1.3,0-25.8,2.7-25.7,1.4s24.5-6.1,25.8-6.1s2.3,1.1,2.3,2.4S132.21,103.98,130.91,103.88z"/>
		<line class="st4" x1="118.61" y1="100.38" x2="105.81" y2="104.58"/>
		<line class="st4" x1="119.01" y1="103.38" x2="105.81" y2="104.58"/>
		<line class="st4" x1="115.11" y1="94.68" x2="105.81" y2="104.58"/>
		<line class="st4" x1="112.71" y1="92.38" x2="105.81" y2="104.58"/>
		<line class="st4" x1="109.71" y1="91.28" x2="105.81" y2="104.58"/>
		<line class="st4" x1="105.91" y1="90.58" x2="105.81" y2="104.58"/>
		<line class="st4" x1="102.11" y1="90.78" x2="105.81" y2="104.58"/>
		<line class="st4" x1="99.01" y1="91.88" x2="105.81" y2="104.58"/>
		<line class="st4" x1="117.21" y1="97.08" x2="105.81" y2="104.58"/>
	</g>
	<g>
		<path class="st3" d="M3.01,156.48c1.3,0.4,25.6,4.1,25.2,5.3c-0.4,1.3-25.2-0.5-26.5-0.8c-1.3-0.4-2-1.7-1.6-2.9
			S1.81,156.18,3.01,156.48z"/>
		<path class="st3" d="M5.21,150.38c1.1,0.7,23.7,10.4,23,11.6c-0.7,1.1-24.3-6.8-25.4-7.5c-1.1-0.7-1.5-2.1-0.8-3.2
			C2.61,150.08,4.11,149.68,5.21,150.38z"/>
		<path class="st3" d="M9.41,144.98c0.9,0.9,19.9,16.5,19,17.4s-21.5-13.2-22.4-14.2c-0.9-0.9-0.9-2.4,0.1-3.3
			C7.01,143.98,8.51,143.98,9.41,144.98z"/>
		<path class="st3" d="M25.21,137.08c0.1,1.3,4.4,25.5,3.1,25.6c-1.3,0.1-7.8-24-7.8-25.3s0.9-2.4,2.2-2.5
			C24.01,134.78,25.11,135.78,25.21,137.08z"/>
		<path class="st3" d="M30.91,136.48c-0.2,1.3-1.7,25.8-3,25.6s-1.9-25.2-1.7-26.5s1.5-2.1,2.7-1.9
			C30.31,133.98,31.11,135.18,30.91,136.48z"/>
		<path class="st3" d="M19.11,138.58c0.4,1.2,10.6,23.6,9.4,24c-1.2,0.4-13.5-21.4-13.8-22.6s0.3-2.6,1.5-3
			C17.41,136.58,18.71,137.28,19.11,138.58z"/>
		<path class="st3" d="M13.81,141.38c0.7,1.1,16,20.4,14.8,21.1c-1.1,0.7-18.2-17.5-18.9-18.6s-0.3-2.6,0.8-3.2
			C11.71,139.88,13.21,140.18,13.81,141.38z"/>
		<path class="st3" d="M36.11,137.58c-0.5,1.2-6.3,25.1-7.6,24.6c-1.2-0.5,2.7-25.1,3.2-26.3s1.8-1.8,3-1.4
			C36.01,134.98,36.61,136.38,36.11,137.58z"/>
		<path class="st3" d="M41.61,140.28c-0.7,1.1-12.2,22.8-13.3,22.1s8.7-23.7,9.4-24.8s2.2-1.3,3.3-0.6
			C42.01,137.68,42.31,139.18,41.61,140.28z"/>
		<line class="st4" x1="31.71" y1="148.48" x2="28.11" y2="161.38"/>
		<line class="st4" x1="34.41" y1="149.78" x2="28.11" y2="161.38"/>
		<line class="st4" x1="25.11" y1="148.18" x2="28.11" y2="161.38"/>
		<line class="st4" x1="21.81" y1="148.88" x2="28.11" y2="161.38"/>
		<line class="st4" x1="19.21" y1="150.78" x2="28.11" y2="161.38"/>
		<line class="st4" x1="16.51" y1="153.48" x2="28.11" y2="161.38"/>
		<line class="st4" x1="14.51" y1="156.78" x2="28.11" y2="161.38"/>
		<line class="st4" x1="13.71" y1="159.98" x2="28.11" y2="161.38"/>
		<line class="st4" x1="28.21" y1="147.68" x2="28.11" y2="161.38"/>
	</g>
</g>
<path class="st2" d="M59.43,255.46c0,4.1,5.3,7.4,11.8,7.4"/>
</svg>
