<?xml version="1.0" encoding="utf-8"?>
<!-- Generator: Adobe Illustrator 23.0.1, SVG Export Plug-In . SVG Version: 6.00 Build 0)  -->
<svg version="1.1" id="圖層_1" xmlns="http://www.w3.org/2000/svg" xmlns:xlink="http://www.w3.org/1999/xlink" x="0px" y="0px"
	 viewBox="0 0 149.41 370.26" style="enable-background:new 0 0 149.41 370.26;" xml:space="preserve">
<style type="text/css">
	.st0{fill:#947F70;}
	.st1{fill:none;stroke:#FFFFFF;stroke-miterlimit:10;}
	.st2{fill:#67BE8D;}
	.st3{fill:#67BE8D;stroke:#231815;stroke-miterlimit:10;}
	.st4{fill:none;stroke:#231815;stroke-miterlimit:10;}
</style>
<g>
	<g>
		<path class="st0" d="M42.96,370.26h31.4c2.7,0,4.9-2.2,4.9-5l-2.1-302.9c0-2.2-1.5-4.2-3.7-4.7l-1.3-0.3c-2.9-0.7-5.8,1.3-6.1,4.3
			l-28,303.2C37.76,367.76,40.06,370.26,42.96,370.26z"/>
		<g>
			<g>
				<path class="st0" d="M35.06,130.06c8.2,13.6,16.3,27.3,24.5,40.9c4,6.6,14.3,0.6,10.4-6.1c-8.2-13.6-16.3-27.3-24.5-40.9
					C41.46,117.36,31.06,123.46,35.06,130.06L35.06,130.06z"/>
			</g>
		</g>
		<g>
			<g>
				<path class="st0" d="M101.86,174.76c-14.9,22.6-29.8,45.2-44.8,67.7c-4.3,6.5,6.1,12.5,10.4,6.1c14.9-22.6,29.8-45.2,44.8-67.7
					C116.46,174.36,106.16,168.36,101.86,174.76L101.86,174.76z"/>
			</g>
		</g>
		<g>
			<g>
				<path class="st0" d="M84.96,79.96c-5.2,6.5-10.5,13-15.7,19.5c-2,2.5-2.4,6,0,8.5c2.1,2.1,6.5,2.5,8.5,0
					c5.2-6.5,10.5-13,15.7-19.5c2-2.5,2.4-6,0-8.5C91.36,77.86,86.96,77.46,84.96,79.96L84.96,79.96z"/>
			</g>
		</g>
		<path class="st1" d="M69.26,68.46c0,6.1,3.1,11,6.9,11"/>
		<path class="st1" d="M69.26,73.96c0,6.2,2.3,11.2,5.1,11.2"/>
		<path class="st1" d="M72.66,93.96c0,3-2.6,5.5-5.8,5.5"/>
		<path class="st1" d="M72.66,99.46c0,2.3-2.6,4.2-5.8,4.2"/>
		<path class="st1" d="M64.76,130.76c0,2.6,5.1,4.8,11.3,4.8"/>
		<path class="st1" d="M63.56,133.16c0,3.6,4.1,6.5,9.1,6.5"/>
		<path class="st1" d="M66.86,164.66c0,2.1-2.3,3.9-5.1,3.9"/>
		<path class="st1" d="M69.76,168.56c0,2.6-3.6,4.8-8,4.8"/>
		<path class="st1" d="M68.06,196.86c0,2.8,3.6,5.1,8,5.1"/>
		<path class="st1" d="M64.76,199.36c0,4,4.3,7.3,9.5,7.3"/>
		<path class="st1" d="M58.66,231.46c0,4.1-2.8,7.4-6.2,7.4"/>
		<path class="st1" d="M64.76,233.56c0,5.9-4.1,10.7-9.2,10.7"/>
		<path class="st1" d="M66.86,270.46c0,4.1,5.3,7.4,11.8,7.4"/>
		<path class="st1" d="M60.16,268.36c0,6.9,5.6,12.5,12.5,12.5"/>
		<path class="st1" d="M55.56,315.16c0,4.1-2.9,7.4-6.6,7.4"/>
		<path class="st1" d="M60.16,317.26c0,5.8-5,10.4-11.2,10.4"/>
	</g>
	<g>
		<path class="st2" d="M112.56,167.56c-7.2-4.8-3.9-15.2,2.7-32.3c5.6-14.6,21.5-19.8,28.7-15s8.2,21-2.7,32.3
			C127.56,166.66,119.76,172.26,112.56,167.56z"/>
		<path class="st3" d="M141.46,130.56c-11.6,3.9-24.4,15.5-28.1,38.8"/>
		<line class="st4" x1="133.06" y1="139.26" x2="142.76" y2="141.16"/>
		<line class="st4" x1="130.16" y1="126.76" x2="131.16" y2="132.16"/>
		<line class="st4" x1="122.86" y1="132.66" x2="125.36" y2="140.06"/>
		<line class="st4" x1="126.56" y1="145.36" x2="138.66" y2="148.26"/>
	</g>
	<g>
		<path class="st2" d="M98.46,78.16c6,5.2,14.4-0.3,28-10.5c11.6-8.6,12.1-24,6.1-29.2c-6-5.2-20.7-2-28,10.5
			C95.46,64.56,92.36,72.96,98.46,78.16z"/>
		<path class="st3" d="M123.96,43.26c-0.6,11.3-7.6,25.5-27.3,34.6"/>
		<line class="st4" x1="118.36" y1="52.86" x2="114.26" y2="44.76"/>
		<line class="st4" x1="130.16" y1="52.36" x2="125.06" y2="52.86"/>
		<line class="st4" x1="126.76" y1="60.26" x2="119.56" y2="59.96"/>
		<line class="st4" x1="114.66" y1="60.16" x2="108.96" y2="50.16"/>
	</g>
	<g>
		<path class="st2" d="M32.46,116.56c-6.9,4.1-14.1-2.9-25.7-15.2c-9.9-10.5-7.8-25.8-0.9-29.9s20.8,1.6,25.7,15.2
			C37.76,103.66,39.26,112.46,32.46,116.56z"/>
		<path class="st3" d="M13.36,77.66c-1.4,11.2,3,26.5,20.9,38.9"/>
		<line class="st4" x1="17.16" y1="88.16" x2="22.76" y2="80.86"/>
		<line class="st4" x1="5.66" y1="85.56" x2="10.66" y2="86.96"/>
		<line class="st4" x1="7.66" y1="93.96" x2="14.86" y2="94.86"/>
		<line class="st4" x1="19.66" y1="95.96" x2="26.96" y2="87.16"/>
	</g>
	<g>
		<path class="st2" d="M65.86,51.96c-7.9,1-11.9-8.2-17.6-24.1c-4.9-13.6,3-26.8,10.9-27.8s18.4,9.7,17.6,24.1
			C75.86,42.26,73.76,50.96,65.86,51.96z"/>
		<path class="st3" d="M63.66,8.76c-5.7,9.8-7.7,25.5,3.9,43.9"/>
		<line class="st4" x1="63.06" y1="19.86" x2="71.06" y2="15.36"/>
		<line class="st4" x1="53.46" y1="12.96" x2="57.46" y2="16.16"/>
		<line class="st4" x1="51.96" y1="21.46" x2="58.26" y2="25.16"/>
		<line class="st4" x1="62.16" y1="28.06" x2="72.46" y2="22.76"/>
	</g>
</g>
</svg>
