<?xml version="1.0" encoding="utf-8"?>
<!-- Generator: Adobe Illustrator 23.0.1, SVG Export Plug-In . SVG Version: 6.00 Build 0)  -->
<svg version="1.1" id="圖層_1" xmlns="http://www.w3.org/2000/svg" xmlns:xlink="http://www.w3.org/1999/xlink" x="0px" y="0px"
	 viewBox="0 0 79.1 313" style="enable-background:new 0 0 79.1 313;" xml:space="preserve">
<style type="text/css">
	.st0{fill:#947F70;}
	.st1{fill:none;stroke:#FFFFFF;stroke-miterlimit:10;}
</style>
<g>
	<path class="st0" d="M8.8,313h31.4c2.7,0,4.9-2.2,4.9-5L43,5.1c0-2.2-1.5-4.2-3.7-4.7L38,0.1c-2.9-0.7-5.8,1.3-6.1,4.3l-28,303.2
		C3.6,310.5,5.9,313,8.8,313z"/>
	<g>
		<g>
			<path class="st0" d="M0.9,72.8c8.2,13.6,16.3,27.3,24.5,40.9c4,6.6,14.3,0.6,10.4-6.1C27.6,94,19.5,80.3,11.3,66.7
				C7.3,60.1-3.1,66.2,0.9,72.8L0.9,72.8z"/>
		</g>
	</g>
	<g>
		<g>
			<path class="st0" d="M67.7,117.5c-14.9,22.6-29.8,45.2-44.8,67.7c-4.3,6.5,6.1,12.5,10.4,6.1c14.9-22.6,29.8-45.2,44.8-67.7
				C82.3,117.1,72,111.1,67.7,117.5L67.7,117.5z"/>
		</g>
	</g>
	<g>
		<g>
			<path class="st0" d="M50.8,22.7c-5.2,6.5-10.5,13-15.7,19.5c-2,2.5-2.4,6,0,8.5c2.1,2.1,6.5,2.5,8.5,0c5.2-6.5,10.5-13,15.7-19.5
				c2-2.5,2.4-6,0-8.5C57.2,20.6,52.8,20.2,50.8,22.7L50.8,22.7z"/>
		</g>
	</g>
	<path class="st1" d="M35.1,11.2c0,6.1,3.1,11,6.9,11"/>
	<path class="st1" d="M35.1,16.7c0,6.2,2.3,11.2,5.1,11.2"/>
	<path class="st1" d="M38.5,36.7c0,3-2.6,5.5-5.8,5.5"/>
	<path class="st1" d="M38.5,42.2c0,2.3-2.6,4.2-5.8,4.2"/>
	<path class="st1" d="M30.6,73.5c0,2.6,5.1,4.8,11.3,4.8"/>
	<path class="st1" d="M29.4,75.9c0,3.6,4.1,6.5,9.1,6.5"/>
	<path class="st1" d="M32.7,107.4c0,2.1-2.3,3.9-5.1,3.9"/>
	<path class="st1" d="M35.6,111.3c0,2.6-3.6,4.8-8,4.8"/>
	<path class="st1" d="M33.9,139.6c0,2.8,3.6,5.1,8,5.1"/>
	<path class="st1" d="M30.6,142.1c0,4,4.3,7.3,9.5,7.3"/>
	<path class="st1" d="M24.5,174.2c0,4.1-2.8,7.4-6.2,7.4"/>
	<path class="st1" d="M30.6,176.3c0,5.9-4.1,10.7-9.2,10.7"/>
	<path class="st1" d="M32.7,213.2c0,4.1,5.3,7.4,11.8,7.4"/>
	<path class="st1" d="M26,211.1c0,6.9,5.6,12.5,12.5,12.5"/>
	<path class="st1" d="M21.4,257.9c0,4.1-2.9,7.4-6.6,7.4"/>
	<path class="st1" d="M26,260c0,5.8-5,10.4-11.2,10.4"/>
</g>
</svg>
