<?xml version="1.0" encoding="utf-8"?>
<!-- Generator: Adobe Illustrator 23.0.1, SVG Export Plug-In . SVG Version: 6.00 Build 0)  -->
<svg version="1.1" id="圖層_1" xmlns="http://www.w3.org/2000/svg" xmlns:xlink="http://www.w3.org/1999/xlink" x="0px" y="0px"
	 viewBox="0 0 149.4 169.4" style="enable-background:new 0 0 149.4 169.4;" xml:space="preserve">
<style type="text/css">
	.st0{fill:#67BE8D;}
	.st1{fill:#67BE8D;stroke:#231815;stroke-miterlimit:10;}
	.st2{fill:none;stroke:#231815;stroke-miterlimit:10;}
</style>
<g>
	<path class="st0" d="M112.6,167.6c-7.2-4.8-3.9-15.2,2.7-32.3c5.6-14.6,21.5-19.8,28.7-15s8.2,21-2.7,32.3
		C127.6,166.7,119.8,172.3,112.6,167.6z"/>
	<path class="st1" d="M141.5,130.6c-11.6,3.9-24.4,15.5-28.1,38.8"/>
	<line class="st2" x1="133.1" y1="139.3" x2="142.8" y2="141.2"/>
	<line class="st2" x1="130.2" y1="126.8" x2="131.2" y2="132.2"/>
	<line class="st2" x1="122.9" y1="132.7" x2="125.4" y2="140.1"/>
	<line class="st2" x1="126.6" y1="145.4" x2="138.7" y2="148.3"/>
</g>
<g>
	<path class="st0" d="M98.5,78.2c6,5.2,14.4-0.3,28-10.5c11.6-8.6,12.1-24,6.1-29.2c-6-5.2-20.7-2-28,10.5
		C95.5,64.6,92.4,73,98.5,78.2z"/>
	<path class="st1" d="M124,43.3c-0.6,11.3-7.6,25.5-27.3,34.6"/>
	<line class="st2" x1="118.4" y1="52.9" x2="114.3" y2="44.8"/>
	<line class="st2" x1="130.2" y1="52.4" x2="125.1" y2="52.9"/>
	<line class="st2" x1="126.8" y1="60.3" x2="119.6" y2="60"/>
	<line class="st2" x1="114.7" y1="60.2" x2="109" y2="50.2"/>
</g>
<g>
	<path class="st0" d="M32.5,116.6c-6.9,4.1-14.1-2.9-25.7-15.2C-3.1,90.9-1,75.6,5.9,71.5s20.8,1.6,25.7,15.2
		C37.8,103.7,39.3,112.5,32.5,116.6z"/>
	<path class="st1" d="M13.4,77.7c-1.4,11.2,3,26.5,20.9,38.9"/>
	<line class="st2" x1="17.2" y1="88.2" x2="22.8" y2="80.9"/>
	<line class="st2" x1="5.7" y1="85.6" x2="10.7" y2="87"/>
	<line class="st2" x1="7.7" y1="94" x2="14.9" y2="94.9"/>
	<line class="st2" x1="19.7" y1="96" x2="27" y2="87.2"/>
</g>
<g>
	<path class="st0" d="M65.9,52C58,53,54,43.8,48.3,27.9c-4.9-13.6,3-26.8,10.9-27.8s18.4,9.7,17.6,24.1C75.9,42.3,73.8,51,65.9,52z"
		/>
	<path class="st1" d="M63.7,8.8C58,18.6,56,34.3,67.6,52.7"/>
	<line class="st2" x1="63.1" y1="19.9" x2="71.1" y2="15.4"/>
	<line class="st2" x1="53.5" y1="13" x2="57.5" y2="16.2"/>
	<line class="st2" x1="52" y1="21.5" x2="58.3" y2="25.2"/>
	<line class="st2" x1="62.2" y1="28.1" x2="72.5" y2="22.8"/>
</g>
</svg>
