<?xml version="1.0" encoding="utf-8"?>
<!-- Generator: Adobe Illustrator 23.0.1, SVG Export Plug-In . SVG Version: 6.00 Build 0)  -->
<svg version="1.1" id="圖層_1" xmlns="http://www.w3.org/2000/svg" xmlns:xlink="http://www.w3.org/1999/xlink" x="0px" y="0px"
	 viewBox="0 0 225.7 136.1" style="enable-background:new 0 0 225.7 136.1;" xml:space="preserve">
<style type="text/css">
	.st0{fill:#67BE8D;}
	.st1{fill:#718CC6;}
</style>
<g>
	<path class="st0" d="M161.5,62.8c0,0,12.9-12.1,0.9-28.4C161.9,35.3,148.8,46.1,161.5,62.8z"/>
	<path class="st1" d="M161.5,62.8l0.9-28.4C162.4,34.4,148,46,161.5,62.8z"/>
</g>
<g>
	<path class="st0" d="M166.5,65.7c0,0,15.2,9,27.5-7.2C193.1,58.3,179,48.7,166.5,65.7z"/>
	<path class="st1" d="M166.5,65.7l27.5-7.2C194,58.6,178.9,48,166.5,65.7z"/>
</g>
<g>
	<path class="st0" d="M158,132.1c0,0,13.8-11.1,2.9-28.3C160.3,104.7,146.4,114.5,158,132.1z"/>
	<path class="st1" d="M158,132.1l2.9-28.3C160.9,103.9,145.7,114.3,158,132.1z"/>
</g>
<g>
	<path class="st0" d="M155.8,134.1c0,0-6.1-16.6-25.8-11.8C130.5,123.1,135.4,139.4,155.8,134.1z"/>
	<path class="st1" d="M155.8,134.1L130,122.3C130,122.3,135,140.1,155.8,134.1z"/>
</g>
<g>
	<path class="st0" d="M74.2,76.7c0,0,17.6-1.6,18.1-21.9C91.3,55.1,74.3,55.6,74.2,76.7z"/>
	<path class="st1" d="M74.2,76.7l18.1-21.9C92.2,54.8,73.8,55.1,74.2,76.7z"/>
</g>
<g>
	<path class="st0" d="M71,77.7c0,0,4-17.2-15.1-24.1C56,54.7,51.1,70.9,71,77.7z"/>
	<path class="st1" d="M71,77.7L55.9,53.6C55.9,53.7,50.4,71.3,71,77.7z"/>
</g>
<g>
	<path class="st0" d="M33.3,81.9c0,0-8.1-21.2-33.3-14.7C0.8,68.2,7.3,88.9,33.3,81.9z"/>
	<path class="st1" d="M33.3,81.9L0,67.2C0.1,67.1,6.8,89.8,33.3,81.9z"/>
</g>
<g>
	<path class="st0" d="M35.7,125.3c0,0-4.2-17.2-24.3-14.7C11.8,111.5,14.8,128.2,35.7,125.3z"/>
	<path class="st1" d="M35.7,125.3l-24.3-14.7C11.4,110.6,14.4,128.8,35.7,125.3z"/>
</g>
<g>
	<path class="st0" d="M35.9,79.5c0,0,14.1-17.9-4.4-36.3C31.1,44.4,16.5,60.7,35.9,79.5z"/>
	<path class="st1" d="M35.9,79.5l-4.4-36.3C31.6,43.3,15.5,60.7,35.9,79.5z"/>
</g>
<g>
	<path class="st0" d="M195.9,132.1c0,0,11.1-13.7-3-28.2C192.4,104.8,180.9,117.3,195.9,132.1z"/>
	<path class="st1" d="M195.9,132.1l-3-28.2C192.8,103.9,180.2,117.3,195.9,132.1z"/>
</g>
<g>
	<path class="st0" d="M117.5,36.1c0,0,8.3-23.5-17.4-36.1C100,1.4,90.7,23.5,117.5,36.1z"/>
	<path class="st1" d="M117.5,36.1L100.1,0C100.1,0.1,89.7,23.9,117.5,36.1z"/>
</g>
<g>
	<path class="st0" d="M124.3,35.1c0,0,24.3-5.5,21.3-33.9C144.3,1.8,120.7,5.6,124.3,35.1z"/>
	<path class="st1" d="M124.3,35.1l21.3-33.9C145.6,1.1,119.8,5,124.3,35.1z"/>
</g>
<g>
	<path class="st0" d="M201.5,135.7c0,0,17.2,4.1,24.2-14.9C224.7,120.9,208.4,115.8,201.5,135.7z"/>
	<path class="st1" d="M201.5,135.7l24.2-14.9C225.6,120.8,208.1,115.2,201.5,135.7z"/>
</g>
</svg>
