<?xml version="1.0" encoding="utf-8"?>
<!-- Generator: Adobe Illustrator 23.0.1, SVG Export Plug-In . SVG Version: 6.00 Build 0)  -->
<svg version="1.1" id="圖層_1" xmlns="http://www.w3.org/2000/svg" xmlns:xlink="http://www.w3.org/1999/xlink" x="0px" y="0px"
	 viewBox="0 0 166.1 313" style="enable-background:new 0 0 166.1 313;" xml:space="preserve">
<style type="text/css">
	.st0{fill:#E8C689;}
	.st1{fill:none;stroke:#E8C689;stroke-width:4;stroke-linecap:round;stroke-miterlimit:10;}
	.st2{fill:none;stroke:#FFFFFF;stroke-miterlimit:10;}
</style>
<path class="st0" d="M58.6,313H90c2.7,0,4.9-2.2,4.9-5L92.8,5.1c0-2.2-1.5-4.2-3.7-4.7l-1.3-0.3c-2.9-0.7-5.8,1.3-6.1,4.3l-28,303.2
	C53.4,310.5,55.7,313,58.6,313z"/>
<g>
	<g>
		<path class="st0" d="M1.2,52.1c22.8,30.5,45.5,61.1,68.3,91.6c3.2,4.3,6.4,8.6,9.6,12.9c4.6,6.1,15,0.1,10.4-6.1
			C66.7,120,44,89.4,21.2,58.9c-3.2-4.3-6.4-8.6-9.6-12.9C7,39.9-3.5,45.9,1.2,52.1L1.2,52.1z"/>
	</g>
</g>
<g>
	<g>
		<path class="st0" d="M154.7,100.5c-25,37.8-50,75.7-75,113.5c-3.5,5.3-7,10.6-10.5,15.9c-4.3,6.5,6.1,12.5,10.4,6.1
			c25-37.8,50-75.7,75-113.5c3.5-5.3,7-10.6,10.5-15.9C169.3,100,158.9,94,154.7,100.5L154.7,100.5z"/>
	</g>
</g>
<g>
	<g>
		<path class="st0" d="M121,29.4c-12.8,16-25.7,31.9-38.5,47.9c-4.8,6,3.6,14.5,8.5,8.5c12.8-16,25.7-31.9,38.5-47.9
			C134.2,31.9,125.8,23.4,121,29.4L121,29.4z"/>
	</g>
</g>
<g>
	<g>
		<path class="st0" d="M33.6,46.4c1.2,17.1,2.3,34.2,3.5,51.3c0.5,7.7,12.5,7.7,12,0c-1.2-17.1-2.3-34.2-3.5-51.3
			C45.1,38.8,33.1,38.7,33.6,46.4L33.6,46.4z"/>
	</g>
</g>
<g>
	<g>
		<path class="st0" d="M121.1,104.4c4.2,9.1,8.5,18.2,12.7,27.2c3.3,7,13.6,0.9,10.4-6.1c-4.2-9.1-8.5-18.2-12.7-27.2
			C128.1,91.3,117.8,97.4,121.1,104.4L121.1,104.4z"/>
	</g>
</g>
<line class="st1" x1="106" y1="24.3" x2="111.6" y2="50.6"/>
<line class="st1" x1="5.8" y1="89.6" x2="49.2" y2="113"/>
<path class="st2" d="M89.7,14.5c0,5.8-2.3,10.5-5.1,10.5"/>
<path class="st2" d="M92.9,24.9c0,3-3.7,5.5-8.3,5.5"/>
<path class="st2" d="M81.3,61.4c0,4.1,2.6,7.5,5.8,7.5"/>
<path class="st2" d="M78.9,68.9c0,3.5,4.8,6.3,10.8,6.3"/>
<path class="st2" d="M88.8,97.3c0,5.1-3.3,9.3-7.5,9.3"/>
<path class="st2" d="M89.7,104.1c0,2.7-2.9,4.9-6.4,4.9"/>
<path class="st2" d="M71.1,132.2c0,5.4,5.9,9.8,13.1,9.8"/>
<path class="st2" d="M74.4,128.1c0,4.9,4,9,8.9,9"/>
<path class="st2" d="M92.9,164.7c0,3.6-6.8,6.5-15.2,6.5"/>
<path class="st2" d="M92.9,171.3c0,2-5.2,3.7-11.6,3.7"/>
<path class="st2" d="M71.1,200.5c0,6.1,5.9,11,13.2,11"/>
<path class="st2" d="M67.9,206c0,3,4.4,5.5,9.8,5.5"/>
<path class="st2" d="M92.9,233.1c0,5.8-8.3,10.6-18.5,10.6"/>
<path class="st2" d="M89.7,243.7c0,2.5-4.8,4.5-10.8,4.5"/>
</svg>
