<svg xmlns="http://www.w3.org/2000/svg" viewBox="0 0 276.76 470.9"><defs><style>.cls-1,.cls-3{fill:#fff;}.cls-2,.cls-6{fill:#040000;}.cls-3,.cls-5,.cls-6{stroke:#040000;stroke-miterlimit:10;}.cls-4{fill:#f09392;}.cls-5{fill:none;}.cls-7{fill:#626262;}.cls-8{fill:#efea3a;}.cls-9{fill:#d7cf3e;}</style></defs><title>young_1</title><g id="圖層_2" data-name="圖層 2"><g id="圖層_1-2" data-name="圖層 1"><path d="M137.41,427.67c-.42,6.59-.59,13.21-1.32,19.77-1.8,16.25-8.09,22.31-24.41,23.19a216.85,216.85,0,0,1-23.44-.14c-9.88-.54-17-5.77-20.87-14.75a81.4,81.4,0,0,1-5.21-16.1C58,418.78,50,399.19,42.15,379.57c-.6-1.49-3-3.26-4.51-3.24C17,376.63,6.89,363.56,3,345.88c-4.09-18.42-3.41-37-1.23-55.73,5.77-49.44,24.52-93.79,52-134.83a18.26,18.26,0,0,0,2.35-4.92c5.52-18.84,11-37.68,16.3-56.59.38-1.35-.61-3.46-1.59-4.74-6.31-8.22-6-18.11,1-25.93,5.57-6.2,17.18-7.29,24.94-2.51,1.18.73,3.3,1.49,4.18.94,13.81-8.61,29.13-8.51,44.54-8.07,11.35.32,22.14,2.61,30,7.82,7.14-1.38,12.79-3.81,18.12-3.26,15.76,1.63,22.21,18.39,12.63,31-1,1.37-1.85,3.72-1.44,5.24q7.4,26.95,15.33,53.75a35.37,35.37,0,0,0,4.61,9.32c25.15,37.73,42,78.8,49.58,123.54,1.56,9.25,1.1,18.83,2,28.21a119.3,119.3,0,0,1-2.88,38.78c-2.23,9.53-6.81,17.95-15.39,23.58a28.49,28.49,0,0,1-17.44,4.58c-3.34-.16-5.07.88-6.29,4.07-7.71,20.22-15.66,40.33-20.12,61.63a74.18,74.18,0,0,1-5.93,16.34c-3.29,6.93-9.32,11.49-16.81,11.91a240.09,240.09,0,0,1-33.32-.49c-8.94-.74-14.51-6.68-16-15.49-1.24-7.52-1.46-15.2-2.22-22.81a24,24,0,0,0-1.07-3.93ZM141.11,225c21.12-.34,40.45-11.89,58.3-22.75,6.5-4,8.27-10.32,4.83-16.17s-9.91-7-16.53-3.34a75.2,75.2,0,0,1-11.14,5.56c-38.19,19.53-41.18,22.78-82.32-5.68-6.39-3.59-12.63-2.35-16.16,3.27-3.65,5.81-1.76,12.45,4.95,16.51C100.93,213.2,120.95,224.65,141.11,225ZM117,99.38a7.35,7.35,0,0,0,7-7.54,7.26,7.26,0,0,0-7.54-7A7.28,7.28,0,0,0,117,99.38Zm45.93,0a7.39,7.39,0,0,0,7-7.55,7.15,7.15,0,1,0-14.29.3A7.14,7.14,0,0,0,163,99.38Z"/><path class="cls-1" d="M145,332.6c1.36,3.37,8.38,5.41,3.53,10-4.34,4.12-6.21-2.45-9.86-3.88-1.21,1.15-2.46,3-4.18,3.78a6.38,6.38,0,0,1-5.12.15c-2.05-1.16-2-3.51-.54-5.41,1.18-1.52,2.62-2.83,4.1-4.4-1.54-3.14-7.81-5.49-3.3-9.73,4.16-3.91,6.19,2,9.17,3.53,3.14-1.24,5.07-7.74,9.42-3.29C152.22,327.48,146.25,329.58,145,332.6Z"/><path class="cls-1" d="M117,99.37a7.28,7.28,0,0,1-.54-14.54,7.26,7.26,0,0,1,7.54,7A7.35,7.35,0,0,1,117,99.37Z"/><path class="cls-1" d="M163,99.38a7.14,7.14,0,0,1-7.25-7.25,7.15,7.15,0,1,1,14.29-.3A7.39,7.39,0,0,1,163,99.38Z"/><path d="M140.06,99.64A6.8,6.8,0,0,1,132.82,93c-.21-4.12,14.19-4.38,14.16-.34A6.87,6.87,0,0,1,140.06,99.64Z"/><circle class="cls-2" cx="116.9" cy="92.41" r="6.07"/><circle class="cls-2" cx="162.91" cy="92.41" r="6.07"/><path class="cls-3" d="M117.88,109.29c7.77-4.92,37-15.88,45.94-2.54,4.94,7.34,2.86,20.69-4.77,26.7-4.11,3.23-8.69,3.46-14.17,3.73-5,.25-18.14.89-26.1-8.05-3.18-3.57-7.08-10.41-4.77-15.66A9.62,9.62,0,0,1,117.88,109.29Z"/><path d="M141.4,117.19c-7.34.09-12.79-2.66-13.16-6.64s25.8-4.38,25.75-.34S148.61,117.11,141.4,117.19Z"/><path class="cls-4" d="M91.83,101.66c5.05-2.59,14.53-1.24,17.3,5.77,2.6,6.59-2.42,13.93-8.65,16-5.88,2-13.42-.6-15.57-6.05-2.46-6.23,3.47-12.81,3.89-13.26A10.53,10.53,0,0,1,91.83,101.66Z"/><path class="cls-4" d="M176.1,119c-4.73-3.14-8.19-12.07-3.43-17.91,4.48-5.49,13.33-4.7,18.18-.28,4.58,4.17,6,12,2.34,16.54-4.23,5.19-12.87,3.24-13.47,3.09A10.53,10.53,0,0,1,176.1,119Z"/><path class="cls-5" d="M134.67,127.9s16.72,6.29,22.09-8.93"/><path class="cls-6" d="M204.15,96.58c2.89-4.8,5.93-7.42,7.75-6.75,1.26.46,2,2.53,1.75,4.25-.68,4.34-7.85,6.05-7.5,7.25s9-.84,9.75,1c.39,1-1.48,2.64-3.25,4-2.22,1.7-4.7,1-4.75,1.5-.1.88,7.7,1.78,7.75,3.25,0,.7-1.7,1.6-7.5,2.75-.53.1,7.31-.82,8.25,1.33.5,1.15-.84,3.16-2.5,4a6.78,6.78,0,0,1-5.67-.17c0-.21,4.92-.43,8.5,2.17.33.24,2.52,1.83,2.17,2.83-.42,1.2-4.29,1.15-7.17.33a13.76,13.76,0,0,1-4.17-2c-.09-.06,2.29.88,11.58,5.49,1.17.58-1.76,2.61-3.25,3-2.28.59-4.82-.7-4.75-1s4.93-.45,7.5,2.25c.27.28,1.54,1.67,1.13,2.63-.48,1.11-3,1.1-4.62.75s-3.32-1.31-3.25-1.5,5.45,1,8.88,4.5c.87.9,1.14,1.45,1,1.88-.37,1.07-3.39,1.12-5.5.63a10.37,10.37,0,0,1-4.75-2.62c-.15-.14,2.4.89,10.88,5.63.73.41,1.46.93,1.38,1.38-.15.82-3,1.07-5,.88a13,13,0,0,1-6.37-2.5"/><path class="cls-6" d="M72.44,96.58c-2.89-4.8-5.93-7.42-7.75-6.75-1.26.46-2,2.53-1.75,4.25.68,4.34,7.85,6.05,7.5,7.25s-9-.84-9.75,1c-.39,1,1.48,2.64,3.25,4,2.22,1.7,4.7,1,4.75,1.5.1.88-7.7,1.78-7.75,3.25,0,.7,1.7,1.6,7.5,2.75.53.1-7.31-.82-8.25,1.33-.5,1.15.84,3.16,2.5,4a6.78,6.78,0,0,0,5.67-.17c0-.21-4.92-.43-8.5,2.17-.33.24-2.52,1.83-2.17,2.83.42,1.2,4.29,1.15,7.17.33a13.76,13.76,0,0,0,4.17-2c.09-.06-2.29.88-11.58,5.49-1.17.58,1.76,2.61,3.25,3,2.28.59,4.82-.7,4.75-1s-4.93-.45-7.5,2.25c-.27.28-1.54,1.67-1.12,2.63.48,1.11,3,1.1,4.63.75s3.32-1.31,3.25-1.5-5.45,1-8.88,4.5c-.87.9-1.14,1.45-1,1.88.37,1.07,3.39,1.12,5.5.63a10.37,10.37,0,0,0,4.75-2.62c.15-.14-2.4.89-10.88,5.63-.73.41-1.46.93-1.37,1.38.15.82,3,1.07,5,.88a13,13,0,0,0,6.38-2.5"/><path class="cls-1" d="M141.11,225.66c21.12-.34,40.45-11.89,58.3-22.75,6.5-4,8.27-10.32,4.83-16.17s-9.91-7-16.53-3.34A75.2,75.2,0,0,1,176.57,189c-38.19,19.53-41.18,22.78-82.32-5.68-6.39-3.59-12.63-2.35-16.16,3.27C74.44,192.36,76.33,199,83,203.05,100.93,213.87,120.95,225.32,141.11,225.66Z"/><path class="cls-7" d="M31.16,258.39a9,9,0,0,0,.53,4.4,1.54,1.54,0,0,0,1.85,1,1.51,1.51,0,0,0,1-1.85,7.07,7.07,0,0,1-.42-3.6,1.51,1.51,0,0,0-1.5-1.5,1.54,1.54,0,0,0-1.5,1.5Z"/><path class="cls-7" d="M41.15,258.89v2a1.5,1.5,0,0,0,3,0v-2a1.5,1.5,0,0,0-3,0Z"/><path class="cls-7" d="M54.35,257.37l.59,6.54c.17,1.91,3.17,1.93,3,0l-.59-6.54c-.17-1.91-3.17-1.93-3,0Z"/><path class="cls-7" d="M223.69,271.29l1.41,6c.44,1.88,3.33,1.08,2.89-.8l-1.41-6c-.44-1.88-3.33-1.08-2.89.8Z"/><path class="cls-7" d="M237.62,273.3l.51,2.5A1.5,1.5,0,0,0,241,275l-.51-2.5a1.5,1.5,0,1,0-2.89.8Z"/><path class="cls-7" d="M182.75,396.76a12.46,12.46,0,0,1,.87,6.62c-.25,1.91,2.75,1.89,3,0a14.29,14.29,0,0,0-1-7.42c-.73-1.76-3.64-1-2.89.8Z"/><path class="cls-7" d="M192.34,396.15a4.68,4.68,0,0,1,.82,2.74,1.5,1.5,0,0,0,3,0,7.54,7.54,0,0,0-1.23-4.25,1.53,1.53,0,0,0-2.05-.54,1.52,1.52,0,0,0-.54,2.05Z"/><path class="cls-7" d="M208.12,391.92a3.24,3.24,0,0,1,.55,2.56c-.38,1.88,2.51,2.69,2.89.8a6.5,6.5,0,0,0-1.33-5.48,1.51,1.51,0,0,0-2.12,0,1.54,1.54,0,0,0,0,2.12Z"/><path class="cls-7" d="M53.91,383.13c.08,0,.37.16.14.07q.17.19,0,0,.11.21,0,.06c0-.25.08.41,0,.14q0-.17,0,.07.05-.26,0,0a1.5,1.5,0,0,0,2.89.8,3.31,3.31,0,0,0-1.62-3.73,1.53,1.53,0,0,0-2.05.54,1.52,1.52,0,0,0,.54,2.05Z"/><path class="cls-7" d="M64.27,379.25l1.46,3.52a1.55,1.55,0,0,0,1.85,1,1.51,1.51,0,0,0,1-1.85l-1.46-3.52a1.55,1.55,0,0,0-1.85-1,1.51,1.51,0,0,0-1,1.85Z"/><path class="cls-7" d="M73.65,376.89v9.5a1.5,1.5,0,0,0,3,0v-9.5a1.5,1.5,0,0,0-3,0Z"/><path class="cls-7" d="M112.62,271.89a32.3,32.3,0,0,0,1.1,7.89,1.5,1.5,0,0,0,2.89-.8,28.88,28.88,0,0,1-1-7.09c0-1.93-3-1.93-3,0Z"/><path class="cls-7" d="M119.65,273.38a8,8,0,0,1,2,2.91,1.54,1.54,0,0,0,1.85,1,1.51,1.51,0,0,0,1-1.85,11.4,11.4,0,0,0-2.8-4.24c-1.41-1.32-3.53.79-2.12,2.12Z"/><path class="cls-7" d="M135.15,271.89v5.5a1.5,1.5,0,0,0,3,0v-5.5a1.5,1.5,0,0,0-3,0Z"/><path class="cls-7" d="M58.1,317.94a15.55,15.55,0,0,1,3.6,5.35c.7,1.77,3.61,1,2.89-.8a19.11,19.11,0,0,0-4.37-6.67c-1.38-1.36-3.5.76-2.12,2.12Z"/><path class="cls-7" d="M69.28,315.25l1.88,5c.67,1.79,3.57,1,2.89-.8l-1.88-5c-.67-1.79-3.57-1-2.89.8Z"/><path class="cls-7" d="M79.62,312.8l1,5.5c.34,1.9,3.23,1.09,2.89-.8l-1-5.5c-.34-1.9-3.23-1.09-2.89.8Z"/><path class="cls-7" d="M198.14,320.39a22.14,22.14,0,0,0,1.57,8.4c.71,1.77,3.61,1,2.89-.8a19.9,19.9,0,0,1-1.46-7.6,1.5,1.5,0,0,0-3,0Z"/><path class="cls-7" d="M204.83,325.66l1,1.51a1.53,1.53,0,0,0,2.05.54,1.52,1.52,0,0,0,.54-2.05l-1-1.51a1.53,1.53,0,0,0-2.05-.54,1.52,1.52,0,0,0-.54,2.05Z"/><path class="cls-7" d="M211.06,325a50.8,50.8,0,0,1,2.57,7.25,1.5,1.5,0,0,0,2.89-.8,55.85,55.85,0,0,0-2.88-8c-.78-1.76-3.37-.24-2.59,1.51Z"/><path class="cls-7" d="M196.09,224.3l.49,3a1.51,1.51,0,0,0,1.85,1,1.54,1.54,0,0,0,1-1.85l-.49-3a1.51,1.51,0,0,0-1.85-1,1.54,1.54,0,0,0-1,1.85Z"/><path class="cls-7" d="M200.9,221.62l2.38,5.06c.82,1.75,3.41.22,2.59-1.51l-2.38-5.06c-.82-1.75-3.41-.22-2.59,1.51Z"/><path class="cls-7" d="M212.51,220.54a19.78,19.78,0,0,1,3.16,8.25c.28,1.9,3.17,1.09,2.89-.8a21.83,21.83,0,0,0-3.46-9c-1.07-1.6-3.67-.1-2.59,1.51Z"/><path class="cls-7" d="M127.09,173.44a4.58,4.58,0,0,1,1,2.44,1.54,1.54,0,0,0,1.5,1.5,1.51,1.51,0,0,0,1.5-1.5,8.12,8.12,0,0,0-1.93-4.57,1.51,1.51,0,0,0-2.12,0,1.53,1.53,0,0,0,0,2.12Z"/><path class="cls-7" d="M132.94,171.57a6.78,6.78,0,0,1,1.5,4.31,1.5,1.5,0,0,0,3,0,9.41,9.41,0,0,0-1.91-5.82,1.55,1.55,0,0,0-2.05-.54,1.51,1.51,0,0,0-.54,2.05Z"/><path class="cls-7" d="M142.34,171.25l1.93,7.52c.48,1.87,3.37,1.08,2.89-.8l-1.93-7.52c-.48-1.87-3.37-1.08-2.89.8Z"/><path class="cls-7" d="M39.59,210.45l.5.5a1.5,1.5,0,0,0,2.12-2.12l-.5-.5a1.5,1.5,0,0,0-2.12,2.12Z"/><path class="cls-7" d="M50.73,204.49a8.73,8.73,0,0,0,.4,4.82,1.55,1.55,0,0,0,1.85,1,1.51,1.51,0,0,0,1-1.85,5.84,5.84,0,0,1-.4-3.23,1.54,1.54,0,0,0-1-1.85,1.51,1.51,0,0,0-1.85,1Z"/><path class="cls-7" d="M65.36,201.64a8.1,8.1,0,0,1,1.31,3.74c.16,1.91,3.16,1.93,3,0a11.31,11.31,0,0,0-1.72-5.26c-1-1.62-3.64-.12-2.59,1.51Z"/><path class="cls-8" d="M174.91,55.86c-4.23-1.71-20.85-4.26-27.93-4.75-12.64-.88-27-2.13-39.28-7.06-10-4-22-11.61-22-22.54A11.78,11.78,0,0,1,94.8,9.62a20.58,20.58,0,0,1,8.71-.09c3,.53,5.86,1.74,7.55,4.29a.64.64,0,0,0,1.1,0c.18-.35-.06-1.16-.15-1.53a9.71,9.71,0,0,0-1.75-3.58C106.6,3.92,99.51.91,93.57.2a25.55,25.55,0,0,0-16,3.16C68.38,8.82,64,19.85,65.64,30.27c1.85,11.6,9,21.89,18.88,29.88a88.13,88.13,0,0,0,34.9,17.17c12.62,2.92,25.32,1.36,37.17-1.41,8.08-1.88,21.75-4,26.25-7C187.14,66,180.47,58.11,174.91,55.86Z"/><path class="cls-9" d="M82.74,2.44C74,8.29,67.06,17.8,68.76,28.79,70.82,42,82.92,50.06,94.25,55.09a152.84,152.84,0,0,0,42,11.8,136.83,136.83,0,0,0,21.89,1.3c5.49-.16,10.65-1.13,14.82-4.9,1.43-1.3-.69-3.41-2.12-2.12-4.65,4.21-11.06,4.11-17,4a149.59,149.59,0,0,1-17.23-1.26,150.79,150.79,0,0,1-34.51-8.8C91.5,51,79.51,45.72,74,35.06c-6-11.62.27-23.3,10.28-30,1.59-1.07.09-3.67-1.51-2.59Z"/><path class="cls-9" d="M71.87,43.21a116.86,116.86,0,0,0,81.81,32.35,1.5,1.5,0,0,0,0-3A113.77,113.77,0,0,1,74,41.09c-1.39-1.34-3.52.78-2.12,2.12Z"/><path class="cls-9" d="M102.78,5.07c-8.62-4.4-18.69-.53-22.64,8.24-4.72,10.45.75,21.61,9.38,28C111.67,57.63,140.67,63.14,167.34,57c1.88-.43,1.09-3.32-.8-2.89a92,92,0,0,1-61.93-7.36c-8.81-4.45-19.38-9.89-22.44-20-3.45-11.45,6.73-25.4,19.08-19.09,1.72.88,3.24-1.71,1.51-2.59Z"/></g></g></svg>