<svg id="Layer_1" data-name="Layer 1" xmlns="http://www.w3.org/2000/svg" xmlns:xlink="http://www.w3.org/1999/xlink" viewBox="0 0 1636.66 2099.66"><defs><style>.cls-1{fill:none;}.cls-2{fill:#138141;}.cls-3{fill:#146234;}.cls-4{fill:#92be40;}.cls-5{fill:#3d2611;}.cls-6{fill:#228c45;}.cls-7{clip-path:url(#clip-path);}.cls-8{fill:#41a949;}.cls-9{fill:#156334;}.cls-10{clip-path:url(#clip-path-2);}.cls-11{fill:#117c3f;}.cls-12{clip-path:url(#clip-path-3);}.cls-13{clip-path:url(#clip-path-4);}.cls-14{clip-path:url(#clip-path-5);}.cls-15{clip-path:url(#clip-path-6);}.cls-16{fill:#5a9b45;}.cls-17{fill:#221b16;}.cls-18{fill:#4e3820;}.cls-19{fill:#674e31;}.cls-20{fill:#8a6d4d;}</style><clipPath id="clip-path" transform="translate(-0.5 -9)"><rect class="cls-1" x="50.62" y="90.29" width="143.86" height="84.8" transform="translate(114.06 -47.74) rotate(40.03)"/></clipPath><clipPath id="clip-path-2" transform="translate(-0.5 -9)"><rect class="cls-1" x="136.25" y="109.08" width="84.66" height="39.78" transform="translate(127.91 -85.4) rotate(40.86)"/></clipPath><clipPath id="clip-path-3" transform="translate(-0.5 -9)"><rect class="cls-1" x="1436.54" y="76.13" width="175.13" height="103.23" transform="translate(1330.37 -1389.38) rotate(77.93)"/></clipPath><clipPath id="clip-path-4" transform="translate(-0.5 -9)"><rect class="cls-1" x="1529.17" y="141.86" width="103.06" height="48.43" transform="translate(1435.63 -1416.69) rotate(78.77)"/></clipPath><clipPath id="clip-path-5" transform="translate(-0.5 -9)"><rect class="cls-1" x="221.87" y="69" width="81.14" height="47.83" transform="translate(121.25 -147.03) rotate(40.03)"/></clipPath><clipPath id="clip-path-6" transform="translate(-0.5 -9)"><rect class="cls-1" x="270.17" y="79.6" width="47.75" height="22.44" transform="matrix(0.76, 0.65, -0.65, 0.76, 131.08, -170.25)"/></clipPath></defs><title>background_short</title><ellipse class="cls-2" cx="749.85" cy="86.09" rx="72.21" ry="64.28"/><ellipse class="cls-2" cx="978.33" cy="90.92" rx="49.48" ry="55.99" transform="translate(715.54 1028.81) rotate(-79.83)"/><ellipse class="cls-2" cx="862.36" cy="62.41" rx="92.61" ry="62.41"/><ellipse class="cls-3" cx="433.98" cy="119.3" rx="70.17" ry="63.8" transform="translate(-16.5 119.74) rotate(-16.57)"/><ellipse class="cls-3" cx="406.27" cy="155.71" rx="95.05" ry="58.23" transform="translate(-28.04 113.34) rotate(-16.57)"/><ellipse class="cls-3" cx="535.99" cy="100.29" rx="74.98" ry="62.35" transform="matrix(1, -0.1, 0.1, 1, -7.7, 43.49)"/><ellipse class="cls-3" cx="637.33" cy="100.29" rx="47.42" ry="77.41" transform="translate(472.57 715.2) rotate(-84.19)"/><ellipse class="cls-3" cx="1133.33" cy="95.95" rx="63.8" ry="70.17" transform="translate(922.58 1204.73) rotate(-84.19)"/><ellipse class="cls-3" cx="1086.71" cy="115.4" rx="61.14" ry="102.51" transform="translate(861.32 1175.83) rotate(-84.19)"/><ellipse class="cls-3" cx="1234.9" cy="117.22" rx="62.35" ry="74.98" transform="translate(764.92 1256.39) rotate(-73.18)"/><ellipse class="cls-3" cx="1328.6" cy="155.81" rx="47.42" ry="77.41" transform="translate(563.08 1244.17) rotate(-61.81)"/><path class="cls-4" d="M1636.16,320c0-61.76-365.93-232.48-817.33-232.48-443,0-803.64,164.41-816.94,228.91H.5V1444.21H1635.16V325.53A16,16,0,0,0,1636.16,320Z" transform="translate(-0.5 -9)"/><rect class="cls-5" x="128.93" y="222.26" width="69.92" height="8.02" transform="translate(-58.23 47.14) rotate(-16.57)"/><rect class="cls-5" x="150.17" y="183.65" width="69.92" height="8.02" transform="translate(311.7 -52.3) rotate(73.43)"/><rect class="cls-5" x="134.25" y="179.88" width="15.88" height="148.92" transform="translate(-67.14 42.12) rotate(-16.57)"/><circle class="cls-6" cx="110.76" cy="148.75" r="51.76" transform="translate(-38.33 28.77) rotate(-16.57)"/><g class="cls-7"><circle class="cls-8" cx="110.64" cy="148.56" r="51.76" transform="translate(-74.78 128.73) rotate(-49.97)"/></g><circle class="cls-9" cx="169.51" cy="136.56" r="25.85" transform="translate(-32.41 45.02) rotate(-16.57)"/><g class="cls-10"><circle class="cls-11" cx="170.2" cy="136.48" r="25.85" transform="translate(-44.87 166.9) rotate(-49.14)"/></g><rect class="cls-5" x="1451.27" y="243.66" width="85.12" height="9.77" transform="translate(192.23 -535.34) rotate(21.33)"/><rect class="cls-5" x="1500.54" y="222.46" width="85.12" height="9.77" transform="translate(2315.65 -1136.37) rotate(111.33)"/><rect class="cls-5" x="1442.32" y="168.63" width="19.33" height="181.28" transform="translate(193.27 -519.38) rotate(21.33)"/><circle class="cls-6" cx="1500.77" cy="134.35" r="63" transform="translate(829.23 1474.45) rotate(-68.67)"/><g class="cls-12"><circle class="cls-8" cx="1500.79" cy="134.08" r="63" transform="translate(4.63 307.74) rotate(-12.07)"/></g><circle class="cls-9" cx="1566.31" cy="166.57" r="31.47" transform="matrix(0.36, -0.93, 0.93, 0.36, 840.92, 1556)"/><g class="cls-13"><circle class="cls-11" cx="1567.03" cy="167.01" r="31.47" transform="translate(-3.01 299.5) rotate(-11.23)"/></g><rect class="cls-5" x="266.04" y="143.43" width="39.44" height="4.53" transform="translate(-30.19 78.56) rotate(-16.57)"/><rect class="cls-5" x="278.02" y="121.66" width="39.44" height="4.53" transform="translate(331.09 -205.8) rotate(73.43)"/><rect class="cls-5" x="269.04" y="119.53" width="8.96" height="83.99" transform="translate(-35.21 75.72) rotate(-16.57)"/><circle class="cls-6" cx="255.79" cy="101.97" r="29.19" transform="translate(-18.96 68.19) rotate(-16.57)"/><g class="cls-14"><circle class="cls-8" cx="255.72" cy="101.87" r="29.19" transform="translate(12.75 223.16) rotate(-49.97)"/></g><circle class="cls-9" cx="288.92" cy="95.09" r="14.58" transform="translate(-15.62 77.36) rotate(-16.57)"/><g class="cls-15"><circle class="cls-11" cx="289.31" cy="95.05" r="14.58" transform="translate(27.65 242.66) rotate(-49.14)"/></g><path class="cls-16" d="M203.68,90.24" transform="translate(-0.5 -9)"/><path class="cls-16" d="M304.3,90.24" transform="translate(-0.5 -9)"/><path class="cls-16" d="M405.26,90.24" transform="translate(-0.5 -9)"/><polygon class="cls-16" points="297.37 280.49 273.02 304.64 321.72 304.64 297.37 280.49"/><polygon class="cls-16" points="341.99 280.49 317.64 304.64 366.34 304.64 341.99 280.49"/><polygon class="cls-16" points="386.47 280.49 362.12 304.64 410.82 304.64 386.47 280.49"/><polygon class="cls-16" points="1461.76 422.3 1437.41 446.46 1486.11 446.46 1461.76 422.3"/><polygon class="cls-16" points="1506.38 422.3 1482.03 446.46 1530.73 446.46 1506.38 422.3"/><polygon class="cls-16" points="1550.86 422.3 1526.51 446.46 1575.21 446.46 1550.86 422.3"/><polygon class="cls-16" points="77.5 398.15 53.15 422.3 101.85 422.3 77.5 398.15"/><polygon class="cls-16" points="122.13 398.15 97.78 422.3 146.48 422.3 122.13 398.15"/><polygon class="cls-16" points="166.61 398.15 142.26 422.3 190.96 422.3 166.61 398.15"/><polygon class="cls-16" points="1294.37 196.18 1270.02 220.33 1318.72 220.33 1294.37 196.18"/><polygon class="cls-16" points="1339 196.18 1314.65 220.33 1363.35 220.33 1339 196.18"/><polygon class="cls-16" points="1383.48 196.18 1359.13 220.33 1407.83 220.33 1383.48 196.18"/><polygon class="cls-16" points="328.15 852.98 303.8 877.13 352.5 877.13 328.15 852.98"/><polygon class="cls-16" points="372.77 852.98 348.42 877.13 397.12 877.13 372.77 852.98"/><polygon class="cls-16" points="417.25 852.98 392.9 877.13 441.6 877.13 417.25 852.98"/><polygon class="cls-16" points="32.95 1052.03 8.6 1076.18 57.3 1076.18 32.95 1052.03"/><polygon class="cls-16" points="77.58 1052.03 53.23 1076.18 101.92 1076.18 77.58 1052.03"/><polygon class="cls-16" points="122.05 1052.03 97.7 1076.18 146.4 1076.18 122.05 1052.03"/><polygon class="cls-16" points="1338.93 613.76 1314.58 637.91 1363.28 637.91 1338.93 613.76"/><polygon class="cls-16" points="1383.55 613.76 1359.2 637.91 1407.9 637.91 1383.55 613.76"/><polygon class="cls-16" points="1428.03 613.76 1403.68 637.91 1452.38 637.91 1428.03 613.76"/><polygon class="cls-16" points="1479.05 865.05 1454.7 889.21 1503.4 889.21 1479.05 865.05"/><polygon class="cls-16" points="1523.67 865.05 1499.33 889.21 1548.02 889.21 1523.67 865.05"/><polygon class="cls-16" points="1568.15 865.05 1543.8 889.21 1592.5 889.21 1568.15 865.05"/><path class="cls-17" d="M975.1,2046.22,734.38,1595.75a25,25,0,0,1,22-36.77h481.44a25,25,0,0,1,22,36.77l-240.72,450.47A25,25,0,0,1,975.1,2046.22Z" transform="translate(-0.5 -9)"/><path class="cls-17" d="M1254.48,2077.67,1074.14,1557.1a25,25,0,0,1,23.62-33.18h360.69a25,25,0,0,1,23.62,33.18l-180.35,520.58C1294,2100.09,1262.25,2100.09,1254.48,2077.67Z" transform="translate(-0.5 -9)"/><path class="cls-17" d="M520.48,1960.55,340.13,1440a25,25,0,0,1,23.62-33.18H724.44A25,25,0,0,1,748.06,1440L567.71,1960.55C559.95,1983,528.25,1983,520.48,1960.55Z" transform="translate(-0.5 -9)"/><path class="cls-17" d="M299.87,2052,119.52,1531.4a25,25,0,0,1,23.62-33.18H503.83a25,25,0,0,1,23.62,33.18L347.1,2052C339.33,2074.4,307.63,2074.4,299.87,2052Z" transform="translate(-0.5 -9)"/><path class="cls-18" d="M266.25,1418.78c-13.15,0-22.3,11.43-17.8,22.23L425.3,1865c3,7.26,10.41,10.89,17.8,10.89V1418.78Z" transform="translate(-0.5 -9)"/><path class="cls-19" d="M460.9,1865,637.75,1441c4.51-10.8-4.64-22.23-17.8-22.23H443.1v457.07C450.49,1875.85,457.87,1872.22,460.9,1865Z" transform="translate(-0.5 -9)"/><path class="cls-18" d="M972.69,1452.66c-13.15,0-22.3,11.43-17.8,22.23l176.85,423.95c3,7.26,10.41,10.89,17.8,10.89V1452.66Z" transform="translate(-0.5 -9)"/><path class="cls-19" d="M1167.34,1898.84l176.85-423.95c4.51-10.8-4.64-22.23-17.8-22.23H1149.54v457.07C1156.93,1909.73,1164.31,1906.1,1167.34,1898.84Z" transform="translate(-0.5 -9)"/><path class="cls-18" d="M506.2,1418.78c-23.22,0-39.36,17.25-31.41,33.56l312.13,639.89c5.34,11,18.38,16.43,31.41,16.43V1418.78Z" transform="translate(-0.5 -9)"/><path class="cls-19" d="M849.74,2092.23l312.13-639.89c8-16.3-8.2-33.56-31.41-33.56H818.33v689.88C831.37,2108.66,844.4,2103.18,849.74,2092.23Z" transform="translate(-0.5 -9)"/><path class="cls-18" d="M43.75,1418.78c-9.57,0-16.23,8.32-12.95,16.17l128.65,308.42c2.2,5.28,7.57,7.92,12.95,7.92V1418.78Z" transform="translate(-0.5 -9)"/><path class="cls-19" d="M185.35,1743.37,314,1435c3.28-7.86-3.38-16.17-12.95-16.17H172.4v332.51C177.77,1751.29,183.15,1748.65,185.35,1743.37Z" transform="translate(-0.5 -9)"/><path class="cls-18" d="M1139.73,1437.61c-17.13,0-29,12.73-23.17,24.76l230.27,472.08c3.94,8.08,13.56,12.12,23.17,12.12v-509Z" transform="translate(-0.5 -9)"/><path class="cls-19" d="M1393.18,1934.44l230.27-472.08c5.87-12-6-24.76-23.17-24.76H1370v509C1379.62,1946.56,1389.24,1942.52,1393.18,1934.44Z" transform="translate(-0.5 -9)"/><path class="cls-20" d="M187,1437.61H19.81c-6.22,0-10.55,5.4-8.41,10.51L95,1648.56a9.45,9.45,0,0,0,16.83,0l83.61-200.45C197.58,1443,193.26,1437.61,187,1437.61Z" transform="translate(-0.5 -9)"/><path class="cls-20" d="M424.16,1437.61H227.23c-7.32,0-12.42,6.36-9.91,12.38l98.46,236c1.69,4,5.8,6.06,9.91,6.06s8.22-2,9.91-6.06l98.46-236C436.58,1444,431.48,1437.61,424.16,1437.61Z" transform="translate(-0.5 -9)"/><path class="cls-20" d="M1194.54,1431.74H975.46a11.6,11.6,0,0,0-11,15.54L1074,1743.68a11.79,11.79,0,0,0,22,0l109.54-296.4A11.6,11.6,0,0,0,1194.54,1431.74Z" transform="translate(-0.5 -9)"/><path class="cls-20" d="M1425.68,1437.61H1233.37a10.18,10.18,0,0,0-9.68,13.64l96.15,260.18a10.35,10.35,0,0,0,19.35,0l96.15-260.18A10.18,10.18,0,0,0,1425.68,1437.61Z" transform="translate(-0.5 -9)"/><path class="cls-20" d="M1511.38,1445.74a6.17,6.17,0,0,0-5.86,8.27l58.27,157.68a6.14,6.14,0,0,0,5.86,4v-170Z" transform="translate(-0.5 -9)"/><path class="cls-20" d="M1627.93,1445.74h-58.27v170a6.14,6.14,0,0,0,5.86-4L1633.79,1454A6.17,6.17,0,0,0,1627.93,1445.74Z" transform="translate(-0.5 -9)"/><ellipse class="cls-4" cx="818.83" cy="1436.36" rx="817.83" ry="164.31"/><polygon class="cls-4" points="79.5 1544.07 46.69 1489.23 112.31 1489.23 79.5 1544.07"/><polygon class="cls-4" points="128.28 1560.47 95.47 1505.62 161.08 1505.62 128.28 1560.47"/><polygon class="cls-4" points="212.74 1571.49 179.93 1516.65 245.55 1516.65 212.74 1571.49"/><polygon class="cls-4" points="290.18 1598.91 257.37 1544.07 322.98 1544.07 290.18 1598.91"/><polygon class="cls-4" points="394.9 1598.91 362.09 1544.07 427.71 1544.07 394.9 1598.91"/><polygon class="cls-4" points="488.94 1633.75 456.14 1578.91 521.75 1578.91 488.94 1633.75"/><polygon class="cls-4" points="530.92 1615.31 498.11 1560.47 563.73 1560.47 530.92 1615.31"/><polygon class="cls-4" points="640.43 1630.75 607.62 1575.91 673.23 1575.91 640.43 1630.75"/><polygon class="cls-4" points="685.5 1642.73 652.7 1587.89 718.31 1587.89 685.5 1642.73"/><polygon class="cls-4" points="773.43 1626.1 740.62 1571.26 806.23 1571.26 773.43 1626.1"/><polygon class="cls-4" points="941.15 1633.75 908.34 1578.91 973.96 1578.91 941.15 1633.75"/><polygon class="cls-4" points="988.08 1642.73 955.27 1587.89 1020.89 1587.89 988.08 1642.73"/><polygon class="cls-4" points="1157.44 1615.31 1124.64 1560.47 1190.25 1560.47 1157.44 1615.31"/><polygon class="cls-4" points="1190.25 1630.75 1157.44 1575.91 1223.06 1575.91 1190.25 1630.75"/><polygon class="cls-4" points="1272.02 1615.31 1239.22 1560.47 1304.83 1560.47 1272.02 1615.31"/><polygon class="cls-4" points="1341 1606.33 1308.19 1551.49 1373.81 1551.49 1341 1606.33"/><polygon class="cls-4" points="1508.38 1560.47 1475.58 1505.62 1541.19 1505.62 1508.38 1560.47"/><polygon class="cls-4" points="1475.58 1560.47 1442.77 1505.62 1508.38 1505.62 1475.58 1560.47"/><polygon class="cls-16" points="1263.64 1021.21 1239.29 1045.36 1287.99 1045.36 1263.64 1021.21"/><polygon class="cls-16" points="1308.27 1021.21 1283.92 1045.36 1332.62 1045.36 1308.27 1021.21"/><polygon class="cls-16" points="1352.75 1021.21 1328.4 1045.36 1377.1 1045.36 1352.75 1021.21"/><polygon class="cls-16" points="101.85 1423.14 77.5 1447.29 126.2 1447.29 101.85 1423.14"/><polygon class="cls-16" points="146.48 1423.14 122.13 1447.29 170.83 1447.29 146.48 1423.14"/><polygon class="cls-16" points="190.96 1423.14 166.61 1447.29 215.31 1447.29 190.96 1423.14"/><polygon class="cls-16" points="1434.49 1416.04 1410.14 1440.19 1458.84 1440.19 1434.49 1416.04"/><polygon class="cls-16" points="1479.12 1416.04 1454.77 1440.19 1503.47 1440.19 1479.12 1416.04"/><polygon class="cls-16" points="1523.6 1416.04 1499.25 1440.19 1547.95 1440.19 1523.6 1416.04"/><polygon class="cls-16" points="1435.57 691.29 1411.22 715.45 1459.92 715.45 1435.57 691.29"/><polygon class="cls-16" points="1480.2 691.29 1455.85 715.45 1504.55 715.45 1480.2 691.29"/><polygon class="cls-16" points="1524.67 691.29 1500.33 715.45 1549.02 715.45 1524.67 691.29"/><polygon class="cls-16" points="1348.75 1247.89 1324.4 1272.05 1373.1 1272.05 1348.75 1247.89"/><polygon class="cls-16" points="1393.38 1247.89 1369.03 1272.05 1417.73 1272.05 1393.38 1247.89"/><polygon class="cls-16" points="1437.86 1247.89 1413.51 1272.05 1462.21 1272.05 1437.86 1247.89"/><polygon class="cls-16" points="97.58 679.22 73.23 703.37 121.94 703.37 97.58 679.22"/><polygon class="cls-16" points="142.21 679.22 117.86 703.37 166.56 703.37 142.21 679.22"/><polygon class="cls-16" points="186.69 679.22 162.34 703.37 211.04 703.37 186.69 679.22"/><polygon class="cls-16" points="373.22 537.79 348.88 561.94 397.57 561.94 373.22 537.79"/><polygon class="cls-16" points="417.85 537.79 393.5 561.94 442.2 561.94 417.85 537.79"/><polygon class="cls-16" points="462.33 537.79 437.98 561.94 486.68 561.94 462.33 537.79"/><polygon class="cls-16" points="186.47 1246.24 162.12 1270.39 210.82 1270.39 186.47 1246.24"/><polygon class="cls-16" points="231.09 1246.24 206.74 1270.39 255.44 1270.39 231.09 1246.24"/><polygon class="cls-16" points="275.57 1246.24 251.22 1270.39 299.92 1270.39 275.57 1246.24"/></svg>