<svg id="Layer_1" data-name="Layer 1" xmlns="http://www.w3.org/2000/svg" xmlns:xlink="http://www.w3.org/1999/xlink" viewBox="0 0 1636.71 3184.86"><defs><style>.cls-1{fill:none;}.cls-2{fill:#138141;}.cls-3{fill:#146234;}.cls-4{fill:#92be40;}.cls-5{fill:#3d2611;}.cls-6{fill:#228c45;}.cls-7{clip-path:url(#clip-path);}.cls-8{fill:#41a949;}.cls-9{fill:#156334;}.cls-10{clip-path:url(#clip-path-2);}.cls-11{fill:#117c3f;}.cls-12{clip-path:url(#clip-path-3);}.cls-13{clip-path:url(#clip-path-4);}.cls-14{clip-path:url(#clip-path-5);}.cls-15{clip-path:url(#clip-path-6);}.cls-16{fill:#5a9b45;}.cls-17{fill:#221b16;}.cls-18{fill:#4e3820;}.cls-19{fill:#674e31;}.cls-20{fill:#8a6d4d;}</style><clipPath id="clip-path" transform="translate(0 -9)"><rect class="cls-1" x="50.62" y="90.29" width="143.86" height="84.8" transform="translate(114.06 -47.74) rotate(40.03)"/></clipPath><clipPath id="clip-path-2" transform="translate(0 -9)"><rect class="cls-1" x="136.25" y="109.08" width="84.66" height="39.78" transform="translate(127.91 -85.4) rotate(40.86)"/></clipPath><clipPath id="clip-path-3" transform="translate(0 -9)"><rect class="cls-1" x="1436.54" y="76.13" width="175.13" height="103.23" transform="translate(1330.37 -1389.38) rotate(77.93)"/></clipPath><clipPath id="clip-path-4" transform="translate(0 -9)"><rect class="cls-1" x="1529.17" y="141.86" width="103.06" height="48.43" transform="translate(1435.63 -1416.69) rotate(78.77)"/></clipPath><clipPath id="clip-path-5" transform="translate(0 -9)"><rect class="cls-1" x="221.87" y="69" width="81.14" height="47.83" transform="translate(121.25 -147.03) rotate(40.03)"/></clipPath><clipPath id="clip-path-6" transform="translate(0 -9)"><rect class="cls-1" x="270.17" y="79.6" width="47.75" height="22.44" transform="translate(131.08 -170.25) rotate(40.86)"/></clipPath></defs><title>background</title><ellipse class="cls-2" cx="750.35" cy="86.09" rx="72.21" ry="64.28"/><ellipse class="cls-2" cx="978.33" cy="90.92" rx="49.48" ry="55.99" transform="translate(716.04 1028.81) rotate(-79.83)"/><ellipse class="cls-2" cx="862.86" cy="62.41" rx="92.61" ry="62.41"/><ellipse class="cls-3" cx="433.98" cy="119.3" rx="70.17" ry="63.8" transform="translate(-16 119.74) rotate(-16.57)"/><ellipse class="cls-3" cx="406.27" cy="155.71" rx="95.05" ry="58.23" transform="translate(-27.54 113.34) rotate(-16.57)"/><ellipse class="cls-3" cx="535.99" cy="100.29" rx="74.98" ry="62.35" transform="matrix(1, -0.1, 0.1, 1, -7.2, 43.49)"/><ellipse class="cls-3" cx="637.33" cy="100.29" rx="47.42" ry="77.41" transform="translate(473.07 715.2) rotate(-84.19)"/><ellipse class="cls-3" cx="1133.33" cy="95.95" rx="63.8" ry="70.17" transform="translate(923.08 1204.73) rotate(-84.19)"/><ellipse class="cls-3" cx="1086.71" cy="115.4" rx="61.14" ry="102.51" transform="translate(861.82 1175.83) rotate(-84.19)"/><ellipse class="cls-3" cx="1234.9" cy="117.22" rx="62.35" ry="74.98" transform="translate(765.42 1256.39) rotate(-73.18)"/><ellipse class="cls-3" cx="1328.6" cy="155.81" rx="47.42" ry="77.41" transform="translate(563.58 1244.17) rotate(-61.81)"/><path class="cls-4" d="M1636.16,320c0-61.76-365.93-232.48-817.33-232.48-443,0-803.64,164.41-816.94,228.91H.5V1444.21H1635.16V325.53A16,16,0,0,0,1636.16,320Z" transform="translate(0 -9)"/><rect class="cls-5" x="128.93" y="222.26" width="69.92" height="8.02" transform="translate(-57.73 47.14) rotate(-16.57)"/><rect class="cls-5" x="150.17" y="183.65" width="69.92" height="8.02" transform="translate(312.2 -52.3) rotate(73.43)"/><rect class="cls-5" x="134.25" y="179.88" width="15.88" height="148.92" transform="translate(-66.64 42.12) rotate(-16.57)"/><circle class="cls-6" cx="110.76" cy="148.75" r="51.76" transform="translate(-37.83 28.77) rotate(-16.57)"/><g class="cls-7"><circle class="cls-8" cx="110.64" cy="148.56" r="51.76" transform="translate(-74.28 128.73) rotate(-49.97)"/></g><circle class="cls-9" cx="169.51" cy="136.56" r="25.85" transform="translate(-31.91 45.02) rotate(-16.57)"/><g class="cls-10"><circle class="cls-11" cx="170.2" cy="136.48" r="25.85" transform="translate(-44.37 166.9) rotate(-49.14)"/></g><rect class="cls-5" x="1451.27" y="243.66" width="85.12" height="9.77" transform="translate(192.73 -535.34) rotate(21.33)"/><rect class="cls-5" x="1500.54" y="222.46" width="85.12" height="9.77" transform="translate(2316.15 -1136.37) rotate(111.33)"/><rect class="cls-5" x="1442.32" y="168.63" width="19.33" height="181.28" transform="translate(193.77 -519.38) rotate(21.33)"/><circle class="cls-6" cx="1500.77" cy="134.35" r="63" transform="translate(829.73 1474.45) rotate(-68.67)"/><g class="cls-12"><circle class="cls-8" cx="1500.79" cy="134.08" r="63" transform="translate(5.13 307.74) rotate(-12.07)"/></g><circle class="cls-9" cx="1566.31" cy="166.57" r="31.47" transform="translate(841.42 1556) rotate(-68.67)"/><g class="cls-13"><circle class="cls-11" cx="1567.03" cy="167.01" r="31.47" transform="translate(-2.51 299.5) rotate(-11.23)"/></g><rect class="cls-5" x="266.04" y="143.43" width="39.44" height="4.53" transform="translate(-29.69 78.56) rotate(-16.57)"/><rect class="cls-5" x="278.02" y="121.66" width="39.44" height="4.53" transform="translate(331.59 -205.8) rotate(73.43)"/><rect class="cls-5" x="269.04" y="119.53" width="8.96" height="83.99" transform="translate(-34.71 75.72) rotate(-16.57)"/><circle class="cls-6" cx="255.79" cy="101.97" r="29.19" transform="translate(-18.46 68.19) rotate(-16.57)"/><g class="cls-14"><circle class="cls-8" cx="255.72" cy="101.87" r="29.19" transform="translate(13.25 223.16) rotate(-49.97)"/></g><circle class="cls-9" cx="288.92" cy="95.09" r="14.58" transform="translate(-15.12 77.36) rotate(-16.57)"/><g class="cls-15"><circle class="cls-11" cx="289.31" cy="95.05" r="14.58" transform="translate(28.15 242.66) rotate(-49.14)"/></g><path class="cls-16" d="M203.68,90.24" transform="translate(0 -9)"/><path class="cls-16" d="M304.3,90.24" transform="translate(0 -9)"/><path class="cls-16" d="M405.26,90.24" transform="translate(0 -9)"/><polygon class="cls-16" points="297.87 280.49 273.52 304.64 322.22 304.64 297.87 280.49"/><polygon class="cls-16" points="342.49 280.49 318.14 304.64 366.84 304.64 342.49 280.49"/><polygon class="cls-16" points="386.97 280.49 362.62 304.64 411.32 304.64 386.97 280.49"/><polygon class="cls-16" points="1462.26 422.3 1437.91 446.46 1486.61 446.46 1462.26 422.3"/><polygon class="cls-16" points="1506.88 422.3 1482.53 446.46 1531.23 446.46 1506.88 422.3"/><polygon class="cls-16" points="1551.36 422.3 1527.01 446.46 1575.71 446.46 1551.36 422.3"/><polygon class="cls-16" points="78 398.15 53.65 422.3 102.35 422.3 78 398.15"/><polygon class="cls-16" points="122.63 398.15 98.28 422.3 146.98 422.3 122.63 398.15"/><polygon class="cls-16" points="167.11 398.15 142.76 422.3 191.46 422.3 167.11 398.15"/><polygon class="cls-16" points="1294.87 196.18 1270.52 220.33 1319.22 220.33 1294.87 196.18"/><polygon class="cls-16" points="1339.5 196.18 1315.15 220.33 1363.85 220.33 1339.5 196.18"/><polygon class="cls-16" points="1383.98 196.18 1359.63 220.33 1408.33 220.33 1383.98 196.18"/><polygon class="cls-16" points="211.24 713.16 186.89 737.31 235.59 737.31 211.24 713.16"/><polygon class="cls-16" points="255.87 713.16 231.52 737.31 280.22 737.31 255.87 713.16"/><polygon class="cls-16" points="300.35 713.16 276 737.31 324.7 737.31 300.35 713.16"/><polygon class="cls-16" points="328.65 852.98 304.3 877.13 353 877.13 328.65 852.98"/><polygon class="cls-16" points="373.27 852.98 348.92 877.13 397.62 877.13 373.27 852.98"/><polygon class="cls-16" points="417.75 852.98 393.4 877.13 442.1 877.13 417.75 852.98"/><polygon class="cls-16" points="33.45 1052.03 9.1 1076.18 57.8 1076.18 33.45 1052.03"/><polygon class="cls-16" points="78.08 1052.03 53.73 1076.18 102.42 1076.18 78.08 1052.03"/><polygon class="cls-16" points="122.55 1052.03 98.2 1076.18 146.9 1076.18 122.55 1052.03"/><polygon class="cls-16" points="1339.43 613.76 1315.08 637.91 1363.78 637.91 1339.43 613.76"/><polygon class="cls-16" points="1384.05 613.76 1359.7 637.91 1408.4 637.91 1384.05 613.76"/><polygon class="cls-16" points="1428.53 613.76 1404.18 637.91 1452.88 637.91 1428.53 613.76"/><polygon class="cls-16" points="1479.55 865.05 1455.2 889.21 1503.9 889.21 1479.55 865.05"/><polygon class="cls-16" points="1524.17 865.05 1499.83 889.21 1548.52 889.21 1524.17 865.05"/><polygon class="cls-16" points="1568.65 865.05 1544.3 889.21 1593 889.21 1568.65 865.05"/><polygon class="cls-16" points="1393.35 1085.67 1369 1109.82 1417.7 1109.82 1393.35 1085.67"/><polygon class="cls-16" points="1437.98 1085.67 1413.63 1109.82 1462.33 1109.82 1437.98 1085.67"/><polygon class="cls-16" points="1482.46 1085.67 1458.11 1109.82 1506.81 1109.82 1482.46 1085.67"/><rect class="cls-4" y="1398.36" width="1636.71" height="1114.42"/><path class="cls-17" d="M974.65,3131.41,733.93,2680.94a25,25,0,0,1,22-36.77h481.44a25,25,0,0,1,22,36.77l-240.72,450.47A25,25,0,0,1,974.65,3131.41Z" transform="translate(0 -9)"/><path class="cls-17" d="M1254,3162.87l-180.35-520.58a25,25,0,0,1,23.62-33.18H1458a25,25,0,0,1,23.62,33.18l-180.35,520.58C1293.5,3185.28,1261.8,3185.28,1254,3162.87Z" transform="translate(0 -9)"/><path class="cls-17" d="M520,3045.75,339.68,2525.17A25,25,0,0,1,363.3,2492H724a25,25,0,0,1,23.62,33.18L567.26,3045.75C559.5,3068.16,527.79,3068.16,520,3045.75Z" transform="translate(0 -9)"/><path class="cls-17" d="M299.42,3137.18,119.07,2616.6a25,25,0,0,1,23.62-33.18H503.38A25,25,0,0,1,527,2616.6L346.65,3137.18C338.88,3159.59,307.18,3159.59,299.42,3137.18Z" transform="translate(0 -9)"/><path class="cls-18" d="M265.8,2504c-13.15,0-22.3,11.43-17.8,22.23l176.85,423.95c3,7.26,10.41,10.89,17.8,10.89V2504Z" transform="translate(0 -9)"/><path class="cls-19" d="M460.45,2950.16,637.3,2526.21c4.51-10.8-4.64-22.23-17.8-22.23H442.65V2961C450,2961,457.42,2957.41,460.45,2950.16Z" transform="translate(0 -9)"/><path class="cls-18" d="M972.24,2537.86c-13.15,0-22.3,11.43-17.8,22.23L1131.29,2984c3,7.26,10.41,10.89,17.8,10.89V2537.86Z" transform="translate(0 -9)"/><path class="cls-19" d="M1166.89,2984l176.85-423.95c4.51-10.8-4.64-22.23-17.8-22.23H1149.09v457.07C1156.48,2994.92,1163.86,2991.29,1166.89,2984Z" transform="translate(0 -9)"/><path class="cls-18" d="M505.75,2504c-23.22,0-39.36,17.25-31.41,33.56l312.13,639.89c5.34,11,18.38,16.43,31.41,16.43V2504Z" transform="translate(0 -9)"/><path class="cls-19" d="M849.29,3177.42l312.13-639.89c8-16.3-8.2-33.56-31.41-33.56H817.88v689.88C830.91,3193.86,843.95,3188.38,849.29,3177.42Z" transform="translate(0 -9)"/><path class="cls-18" d="M43.3,2504c-9.57,0-16.23,8.32-12.95,16.17L159,2828.57c2.2,5.28,7.57,7.92,12.95,7.92V2504Z" transform="translate(0 -9)"/><path class="cls-19" d="M184.9,2828.57l128.65-308.42c3.28-7.86-3.38-16.17-12.95-16.17H172v332.51C177.32,2836.49,182.7,2833.85,184.9,2828.57Z" transform="translate(0 -9)"/><path class="cls-18" d="M1139.28,2522.8c-17.13,0-29,12.73-23.17,24.76l230.27,472.08c3.94,8.08,13.56,12.12,23.17,12.12v-509Z" transform="translate(0 -9)"/><path class="cls-19" d="M1392.73,3019.64,1623,2547.56c5.87-12-6-24.76-23.17-24.76H1369.55v509C1379.17,3031.76,1388.78,3027.72,1392.73,3019.64Z" transform="translate(0 -9)"/><path class="cls-20" d="M186.59,2522.8H19.36c-6.22,0-10.55,5.4-8.41,10.51l83.61,200.45a9.45,9.45,0,0,0,16.83,0L195,2533.31C197.13,2528.2,192.81,2522.8,186.59,2522.8Z" transform="translate(0 -9)"/><path class="cls-20" d="M423.71,2522.8H226.78c-7.32,0-12.42,6.36-9.91,12.38l98.46,236c1.69,4,5.8,6.06,9.91,6.06s8.22-2,9.91-6.06l98.46-236C436.13,2529.16,431,2522.8,423.71,2522.8Z" transform="translate(0 -9)"/><path class="cls-20" d="M1194.09,2516.93H975a11.6,11.6,0,0,0-11,15.54l109.54,296.4a11.79,11.79,0,0,0,22,0l109.54-296.4A11.6,11.6,0,0,0,1194.09,2516.93Z" transform="translate(0 -9)"/><path class="cls-20" d="M1425.23,2522.8H1232.92a10.18,10.18,0,0,0-9.68,13.64l96.15,260.18a10.35,10.35,0,0,0,19.35,0l96.15-260.18A10.18,10.18,0,0,0,1425.23,2522.8Z" transform="translate(0 -9)"/><path class="cls-20" d="M1510.93,2530.93a6.17,6.17,0,0,0-5.86,8.27l58.27,157.68a6.14,6.14,0,0,0,5.86,4v-170Z" transform="translate(0 -9)"/><path class="cls-20" d="M1627.47,2530.93H1569.2v170a6.14,6.14,0,0,0,5.86-4l58.27-157.68A6.17,6.17,0,0,0,1627.47,2530.93Z" transform="translate(0 -9)"/><ellipse class="cls-4" cx="818.88" cy="2521.56" rx="817.83" ry="164.31"/><polygon class="cls-4" points="79.55 2629.27 46.74 2574.42 112.36 2574.42 79.55 2629.27"/><polygon class="cls-4" points="128.32 2645.66 95.52 2590.82 161.13 2590.82 128.32 2645.66"/><polygon class="cls-4" points="212.79 2656.69 179.98 2601.85 245.6 2601.85 212.79 2656.69"/><polygon class="cls-4" points="290.23 2684.11 257.42 2629.27 323.03 2629.27 290.23 2684.11"/><polygon class="cls-4" points="394.95 2684.11 362.14 2629.27 427.76 2629.27 394.95 2684.11"/><polygon class="cls-4" points="488.99 2718.95 456.19 2664.11 521.8 2664.11 488.99 2718.95"/><polygon class="cls-4" points="530.97 2700.51 498.16 2645.66 563.77 2645.66 530.97 2700.51"/><polygon class="cls-4" points="640.48 2715.95 607.67 2661.11 673.28 2661.11 640.48 2715.95"/><polygon class="cls-4" points="685.55 2727.93 652.75 2673.08 718.36 2673.08 685.55 2727.93"/><polygon class="cls-4" points="773.48 2711.29 740.67 2656.45 806.28 2656.45 773.48 2711.29"/><polygon class="cls-4" points="941.2 2718.95 908.39 2664.11 974 2664.11 941.2 2718.95"/><polygon class="cls-4" points="988.13 2727.93 955.32 2673.08 1020.94 2673.08 988.13 2727.93"/><polygon class="cls-4" points="1157.49 2700.51 1124.68 2645.66 1190.3 2645.66 1157.49 2700.51"/><polygon class="cls-4" points="1190.3 2715.95 1157.49 2661.11 1223.11 2661.11 1190.3 2715.95"/><polygon class="cls-4" points="1272.07 2700.51 1239.27 2645.66 1304.88 2645.66 1272.07 2700.51"/><polygon class="cls-4" points="1341.05 2691.53 1308.24 2636.68 1373.86 2636.68 1341.05 2691.53"/><polygon class="cls-4" points="1508.43 2645.66 1475.63 2590.82 1541.24 2590.82 1508.43 2645.66"/><polygon class="cls-4" points="1475.63 2645.66 1442.82 2590.82 1508.43 2590.82 1475.63 2645.66"/><polygon class="cls-16" points="1480.17 2458.84 1455.82 2483 1504.52 2483 1480.17 2458.84"/><polygon class="cls-16" points="1524.8 2458.84 1500.45 2483 1549.15 2483 1524.8 2458.84"/><polygon class="cls-16" points="1569.28 2458.84 1544.93 2483 1593.63 2483 1569.28 2458.84"/><polygon class="cls-16" points="127.4 2414.21 103.05 2438.37 151.75 2438.37 127.4 2414.21"/><polygon class="cls-16" points="172.03 2414.21 147.68 2438.37 196.38 2438.37 172.03 2414.21"/><polygon class="cls-16" points="216.5 2414.21 192.15 2438.37 240.85 2438.37 216.5 2414.21"/><polygon class="cls-16" points="1260.33 1423.14 1235.98 1447.29 1284.68 1447.29 1260.33 1423.14"/><polygon class="cls-16" points="1304.95 1423.14 1280.61 1447.29 1329.31 1447.29 1304.95 1423.14"/><polygon class="cls-16" points="1349.43 1423.14 1325.08 1447.29 1373.78 1447.29 1349.43 1423.14"/><polygon class="cls-16" points="1435.62 1776.49 1411.27 1800.64 1459.97 1800.64 1435.62 1776.49"/><polygon class="cls-16" points="1480.24 1776.49 1455.9 1800.64 1504.6 1800.64 1480.24 1776.49"/><polygon class="cls-16" points="1524.72 1776.49 1500.37 1800.64 1549.07 1800.64 1524.72 1776.49"/><polygon class="cls-16" points="1348.8 2333.09 1324.45 2357.24 1373.15 2357.24 1348.8 2333.09"/><polygon class="cls-16" points="1393.43 2333.09 1369.08 2357.24 1417.78 2357.24 1393.43 2333.09"/><polygon class="cls-16" points="1437.91 2333.09 1413.56 2357.24 1462.26 2357.24 1437.91 2333.09"/><polygon class="cls-16" points="235.66 2094.33 211.32 2118.48 260.01 2118.48 235.66 2094.33"/><polygon class="cls-16" points="280.29 2094.33 255.94 2118.48 304.64 2118.48 280.29 2094.33"/><polygon class="cls-16" points="324.77 2094.33 300.42 2118.48 349.12 2118.48 324.77 2094.33"/><polygon class="cls-16" points="97.63 1764.41 73.28 1788.57 121.98 1788.57 97.63 1764.41"/><polygon class="cls-16" points="142.26 1764.41 117.91 1788.57 166.61 1788.57 142.26 1764.41"/><polygon class="cls-16" points="186.74 1764.41 162.39 1788.57 211.09 1788.57 186.74 1764.41"/><polygon class="cls-16" points="328.72 1526.32 304.37 1550.47 353.07 1550.47 328.72 1526.32"/><polygon class="cls-16" points="373.35 1526.32 349 1550.47 397.7 1550.47 373.35 1526.32"/><polygon class="cls-16" points="417.83 1526.32 393.48 1550.47 442.18 1550.47 417.83 1526.32"/><polygon class="cls-16" points="186.97 1246.24 162.62 1270.39 211.32 1270.39 186.97 1246.24"/><polygon class="cls-16" points="231.59 1246.24 207.24 1270.39 255.94 1270.39 231.59 1246.24"/><polygon class="cls-16" points="276.07 1246.24 251.72 1270.39 300.42 1270.39 276.07 1246.24"/></svg>