<svg id="Layer_1" data-name="Layer 1" xmlns="http://www.w3.org/2000/svg" xmlns:xlink="http://www.w3.org/1999/xlink" viewBox="0 0 1635.66 1435.21"><defs><style>.cls-1{fill:none;}.cls-2{fill:#138141;}.cls-3{fill:#146234;}.cls-4{fill:#92be40;}.cls-5{fill:#3d2611;}.cls-6{fill:#228c45;}.cls-7{clip-path:url(#clip-path);}.cls-8{fill:#41a949;}.cls-9{fill:#156334;}.cls-10{clip-path:url(#clip-path-2);}.cls-11{fill:#117c3f;}.cls-12{clip-path:url(#clip-path-3);}.cls-13{clip-path:url(#clip-path-4);}.cls-14{clip-path:url(#clip-path-5);}.cls-15{clip-path:url(#clip-path-6);}.cls-16{fill:#5a9b45;}</style><clipPath id="clip-path" transform="translate(0 -231.96)"><rect class="cls-1" x="51.12" y="313.26" width="143.86" height="84.8" transform="translate(257.58 4.18) rotate(40.03)"/></clipPath><clipPath id="clip-path-2" transform="translate(0 -231.96)"><rect class="cls-1" x="136.75" y="332.04" width="84.66" height="39.78" transform="translate(273.9 -31.39) rotate(40.86)"/></clipPath><clipPath id="clip-path-3" transform="translate(0 -231.96)"><rect class="cls-1" x="1437.04" y="299.09" width="175.13" height="103.23" transform="translate(1548.8 -1213.52) rotate(77.93)"/></clipPath><clipPath id="clip-path-4" transform="translate(0 -231.96)"><rect class="cls-1" x="1529.67" y="364.82" width="103.06" height="48.43" transform="translate(1654.72 -1237.66) rotate(78.77)"/></clipPath><clipPath id="clip-path-5" transform="translate(0 -231.96)"><rect class="cls-1" x="222.37" y="291.96" width="81.14" height="47.83" transform="translate(264.77 -95.11) rotate(40.03)"/></clipPath><clipPath id="clip-path-6" transform="translate(0 -231.96)"><rect class="cls-1" x="270.67" y="302.56" width="47.75" height="22.44" transform="matrix(0.76, 0.65, -0.65, 0.76, 277.08, -116.23)"/></clipPath></defs><title>ms</title><ellipse class="cls-2" cx="750.85" cy="86.09" rx="72.21" ry="64.28"/><ellipse class="cls-2" cx="978.83" cy="313.89" rx="49.48" ry="55.99" transform="translate(496.99 989.93) rotate(-79.83)"/><ellipse class="cls-2" cx="863.36" cy="62.41" rx="92.61" ry="62.41"/><ellipse class="cls-3" cx="434.48" cy="342.26" rx="70.17" ry="63.8" transform="translate(-79.57 -93.82) rotate(-16.57)"/><ellipse class="cls-3" cx="406.77" cy="378.67" rx="95.05" ry="58.23" transform="translate(-91.11 -100.21) rotate(-16.57)"/><ellipse class="cls-3" cx="536.49" cy="323.25" rx="74.98" ry="62.35" transform="matrix(1, -0.1, 0.1, 1, -28.84, -178.37)"/><ellipse class="cls-3" cx="637.83" cy="323.25" rx="47.42" ry="77.41" transform="translate(251.7 693.13) rotate(-84.19)"/><ellipse class="cls-3" cx="1133.83" cy="318.91" rx="63.8" ry="70.17" transform="translate(701.71 1182.65) rotate(-84.19)"/><ellipse class="cls-3" cx="1087.21" cy="338.36" rx="61.14" ry="102.51" transform="translate(640.46 1153.75) rotate(-84.19)"/><ellipse class="cls-3" cx="1235.4" cy="340.18" rx="62.35" ry="74.98" transform="translate(552.35 1192.37) rotate(-73.18)"/><ellipse class="cls-3" cx="1329.1" cy="378.78" rx="47.42" ry="77.41" transform="translate(367.33 1139.27) rotate(-61.81)"/><path class="cls-4" d="M1635.66,543c0-61.76-365.93-232.48-817.33-232.48-443,0-803.64,164.41-816.94,228.91H0V1667.18H1634.66V548.5A16,16,0,0,0,1635.66,543Z" transform="translate(0 -231.96)"/><rect class="cls-5" x="129.43" y="445.22" width="69.92" height="8.02" transform="translate(-121.3 -166.41) rotate(-16.57)"/><rect class="cls-5" x="150.67" y="406.61" width="69.92" height="8.02" transform="translate(526.25 -116.38) rotate(73.43)"/><rect class="cls-5" x="134.75" y="402.84" width="15.88" height="148.92" transform="translate(-130.21 -171.44) rotate(-16.57)"/><circle class="cls-6" cx="111.26" cy="371.71" r="51.76" transform="translate(-101.4 -184.79) rotate(-16.57)"/><g class="cls-7"><circle class="cls-8" cx="111.14" cy="371.53" r="51.76" transform="translate(-244.82 -14.29) rotate(-49.97)"/></g><circle class="cls-9" cx="170.01" cy="359.52" r="25.85" transform="translate(-95.48 -168.54) rotate(-16.57)"/><g class="cls-10"><circle class="cls-11" cx="170.7" cy="359.44" r="25.85" transform="translate(-212.82 21.4) rotate(-49.14)"/></g><rect class="cls-5" x="1451.77" y="466.62" width="85.12" height="9.77" transform="translate(273.86 -743.21) rotate(21.33)"/><rect class="cls-5" x="1501.04" y="445.42" width="85.12" height="9.77" transform="translate(2524.52 -1055.73) rotate(111.33)"/><rect class="cls-5" x="1442.82" y="391.6" width="19.33" height="181.28" transform="translate(274.9 -727.25) rotate(21.33)"/><circle class="cls-6" cx="1501.27" cy="357.31" r="63" transform="translate(622.36 1393.82) rotate(-68.67)"/><g class="cls-12"><circle class="cls-8" cx="1501.29" cy="357.04" r="63" transform="translate(-41.47 89.81) rotate(-12.07)"/></g><circle class="cls-9" cx="1566.81" cy="389.53" r="31.47" transform="translate(634.05 1475.37) rotate(-68.67)"/><g class="cls-13"><circle class="cls-11" cx="1567.53" cy="389.97" r="31.47" transform="translate(-45.94 80.91) rotate(-11.23)"/></g><rect class="cls-5" x="266.54" y="366.39" width="39.44" height="4.53" transform="translate(-93.26 -135) rotate(-16.57)"/><rect class="cls-5" x="278.52" y="344.62" width="39.44" height="4.53" transform="translate(545.64 -269.87) rotate(73.43)"/><rect class="cls-5" x="269.54" y="342.49" width="8.96" height="83.99" transform="translate(-98.28 -137.84) rotate(-16.57)"/><circle class="cls-6" cx="256.29" cy="324.93" r="29.19" transform="translate(-82.03 -145.36) rotate(-16.57)"/><g class="cls-14"><circle class="cls-8" cx="256.23" cy="324.83" r="29.19" transform="translate(-157.3 80.14) rotate(-49.97)"/></g><circle class="cls-9" cx="289.42" cy="318.06" r="14.58" transform="translate(-78.69 -136.2) rotate(-16.57)"/><g class="cls-15"><circle class="cls-11" cx="289.81" cy="318.01" r="14.58" transform="translate(-140.3 97.17) rotate(-49.14)"/></g><path class="cls-16" d="M203.68,81.24" transform="translate(0 -231.96)"/><path class="cls-16" d="M304.3,81.24" transform="translate(0 -231.96)"/><path class="cls-16" d="M405.26,81.24" transform="translate(0 -231.96)"/><polygon class="cls-16" points="298.37 280.49 274.02 304.64 322.72 304.64 298.37 280.49"/><polygon class="cls-16" points="342.99 280.49 318.64 304.64 367.34 304.64 342.99 280.49"/><polygon class="cls-16" points="387.47 280.49 363.12 304.64 411.82 304.64 387.47 280.49"/><polygon class="cls-16" points="1462.76 422.3 1438.41 446.46 1487.11 446.46 1462.76 422.3"/><polygon class="cls-16" points="1507.38 422.3 1483.03 446.46 1531.73 446.46 1507.38 422.3"/><polygon class="cls-16" points="1551.86 422.3 1527.51 446.46 1576.21 446.46 1551.86 422.3"/><polygon class="cls-16" points="78.5 398.15 54.15 422.3 102.85 422.3 78.5 398.15"/><polygon class="cls-16" points="123.13 398.15 98.78 422.3 147.48 422.3 123.13 398.15"/><polygon class="cls-16" points="167.61 398.15 143.26 422.3 191.96 422.3 167.61 398.15"/><polygon class="cls-16" points="1295.37 196.18 1271.02 220.33 1319.72 220.33 1295.37 196.18"/><polygon class="cls-16" points="1340 196.18 1315.65 220.33 1364.35 220.33 1340 196.18"/><polygon class="cls-16" points="1384.48 196.18 1360.13 220.33 1408.83 220.33 1384.48 196.18"/></svg>