<svg id="Layer_1" data-name="Layer 1" xmlns="http://www.w3.org/2000/svg" xmlns:xlink="http://www.w3.org/1999/xlink" viewBox="0 0 1710.94 3184.86"><defs><style>.cls-1{fill:none;}.cls-2{fill:#138141;}.cls-3{fill:#146234;}.cls-4{fill:#92be40;}.cls-5{fill:#3d2611;}.cls-6{fill:#228c45;}.cls-7{clip-path:url(#clip-path);}.cls-8{fill:#41a949;}.cls-9{fill:#156334;}.cls-10{clip-path:url(#clip-path-2);}.cls-11{fill:#117c3f;}.cls-12{clip-path:url(#clip-path-3);}.cls-13{clip-path:url(#clip-path-4);}.cls-14{clip-path:url(#clip-path-5);}.cls-15{clip-path:url(#clip-path-6);}.cls-16{fill:#5a9b45;}.cls-17{fill:#221b16;}.cls-18{fill:#4e3820;}.cls-19{fill:#674e31;}.cls-20{fill:#8a6d4d;}</style><clipPath id="clip-path" transform="translate(17.06 -9)"><rect class="cls-1" x="50.62" y="90.29" width="143.86" height="84.8" transform="translate(114.06 -47.74) rotate(40.03)"/></clipPath><clipPath id="clip-path-2" transform="translate(17.06 -9)"><rect class="cls-1" x="136.25" y="109.08" width="84.66" height="39.78" transform="translate(127.91 -85.4) rotate(40.86)"/></clipPath><clipPath id="clip-path-3" transform="translate(17.06 -9)"><rect class="cls-1" x="1436.54" y="76.13" width="175.13" height="103.23" transform="translate(1330.37 -1389.38) rotate(77.93)"/></clipPath><clipPath id="clip-path-4" transform="translate(17.06 -9)"><rect class="cls-1" x="1529.17" y="141.86" width="103.06" height="48.43" transform="translate(1435.63 -1416.69) rotate(78.77)"/></clipPath><clipPath id="clip-path-5" transform="translate(17.06 -9)"><rect class="cls-1" x="221.87" y="69" width="81.14" height="47.83" transform="translate(121.25 -147.03) rotate(40.03)"/></clipPath><clipPath id="clip-path-6" transform="translate(17.06 -9)"><rect class="cls-1" x="270.17" y="79.6" width="47.75" height="22.44" transform="translate(131.08 -170.25) rotate(40.86)"/></clipPath></defs><title>background_added</title><ellipse class="cls-2" cx="767.4" cy="86.09" rx="72.21" ry="64.28"/><ellipse class="cls-2" cx="978.33" cy="90.92" rx="49.48" ry="55.99" transform="translate(733.1 1028.81) rotate(-79.83)"/><ellipse class="cls-2" cx="879.91" cy="62.41" rx="92.61" ry="62.41"/><ellipse class="cls-3" cx="433.98" cy="119.3" rx="70.17" ry="63.8" transform="translate(1.06 119.74) rotate(-16.57)"/><ellipse class="cls-3" cx="406.27" cy="155.71" rx="95.05" ry="58.23" transform="translate(-10.48 113.34) rotate(-16.57)"/><ellipse class="cls-3" cx="535.99" cy="100.29" rx="74.98" ry="62.35" transform="matrix(1, -0.1, 0.1, 1, 9.85, 43.49)"/><ellipse class="cls-3" cx="637.33" cy="100.29" rx="47.42" ry="77.41" transform="translate(490.12 715.2) rotate(-84.19)"/><ellipse class="cls-3" cx="1133.33" cy="95.95" rx="63.8" ry="70.17" transform="translate(940.14 1204.73) rotate(-84.19)"/><ellipse class="cls-3" cx="1086.71" cy="115.4" rx="61.14" ry="102.51" transform="translate(878.88 1175.83) rotate(-84.19)"/><ellipse class="cls-3" cx="1234.9" cy="117.22" rx="62.35" ry="74.98" transform="translate(782.47 1256.39) rotate(-73.18)"/><ellipse class="cls-3" cx="1328.6" cy="155.81" rx="47.42" ry="77.41" transform="translate(580.63 1244.17) rotate(-61.81)"/><path class="cls-4" d="M1636.16,320c0-61.76-365.93-232.48-817.33-232.48-443,0-803.64,164.41-816.94,228.91H.5V1444.21H1635.16V325.53A16,16,0,0,0,1636.16,320Z" transform="translate(17.06 -9)"/><rect class="cls-5" x="128.93" y="222.26" width="69.92" height="8.02" transform="translate(-40.67 47.14) rotate(-16.57)"/><rect class="cls-5" x="150.17" y="183.65" width="69.92" height="8.02" transform="translate(329.25 -52.3) rotate(73.43)"/><rect class="cls-5" x="134.25" y="179.88" width="15.88" height="148.92" transform="translate(-49.58 42.12) rotate(-16.57)"/><circle class="cls-6" cx="110.76" cy="148.75" r="51.76" transform="translate(-20.77 28.77) rotate(-16.57)"/><g class="cls-7"><circle class="cls-8" cx="110.64" cy="148.56" r="51.76" transform="translate(-57.22 128.73) rotate(-49.97)"/></g><circle class="cls-9" cx="169.51" cy="136.56" r="25.85" transform="translate(-14.85 45.02) rotate(-16.57)"/><g class="cls-10"><circle class="cls-11" cx="170.2" cy="136.48" r="25.85" transform="translate(-27.31 166.9) rotate(-49.14)"/></g><rect class="cls-5" x="1451.27" y="243.66" width="85.12" height="9.77" transform="translate(209.79 -535.34) rotate(21.33)"/><rect class="cls-5" x="1500.54" y="222.46" width="85.12" height="9.77" transform="translate(2333.21 -1136.37) rotate(111.33)"/><rect class="cls-5" x="1442.32" y="168.63" width="19.33" height="181.28" transform="translate(210.82 -519.38) rotate(21.33)"/><circle class="cls-6" cx="1500.77" cy="134.35" r="63" transform="translate(846.79 1474.45) rotate(-68.67)"/><g class="cls-12"><circle class="cls-8" cx="1500.79" cy="134.08" r="63" transform="translate(22.19 307.74) rotate(-12.07)"/></g><circle class="cls-9" cx="1566.31" cy="166.57" r="31.47" transform="translate(858.48 1556) rotate(-68.67)"/><g class="cls-13"><circle class="cls-11" cx="1567.03" cy="167.01" r="31.47" transform="translate(14.55 299.5) rotate(-11.23)"/></g><rect class="cls-5" x="266.04" y="143.43" width="39.44" height="4.53" transform="translate(-12.63 78.56) rotate(-16.57)"/><rect class="cls-5" x="278.02" y="121.66" width="39.44" height="4.53" transform="translate(348.64 -205.8) rotate(73.43)"/><rect class="cls-5" x="269.04" y="119.53" width="8.96" height="83.99" transform="translate(-17.65 75.72) rotate(-16.57)"/><circle class="cls-6" cx="255.79" cy="101.97" r="29.19" transform="translate(-1.4 68.19) rotate(-16.57)"/><g class="cls-14"><circle class="cls-8" cx="255.72" cy="101.87" r="29.19" transform="translate(30.3 223.16) rotate(-49.97)"/></g><circle class="cls-9" cx="288.92" cy="95.09" r="14.58" transform="translate(1.93 77.36) rotate(-16.57)"/><g class="cls-15"><circle class="cls-11" cx="289.31" cy="95.05" r="14.58" transform="translate(45.2 242.66) rotate(-49.14)"/></g><path class="cls-16" d="M203.68,90.24" transform="translate(17.06 -9)"/><path class="cls-16" d="M304.3,90.24" transform="translate(17.06 -9)"/><path class="cls-16" d="M405.26,90.24" transform="translate(17.06 -9)"/><polygon class="cls-16" points="314.92 280.49 290.57 304.64 339.27 304.64 314.92 280.49"/><polygon class="cls-16" points="359.55 280.49 335.2 304.64 383.9 304.64 359.55 280.49"/><polygon class="cls-16" points="404.03 280.49 379.68 304.64 428.38 304.64 404.03 280.49"/><polygon class="cls-16" points="1479.31 422.3 1454.96 446.46 1503.66 446.46 1479.31 422.3"/><polygon class="cls-16" points="1523.94 422.3 1499.59 446.46 1548.29 446.46 1523.94 422.3"/><polygon class="cls-16" points="1568.42 422.3 1544.07 446.46 1592.77 446.46 1568.42 422.3"/><polygon class="cls-16" points="95.06 398.15 70.71 422.3 119.41 422.3 95.06 398.15"/><polygon class="cls-16" points="139.68 398.15 115.33 422.3 164.03 422.3 139.68 398.15"/><polygon class="cls-16" points="184.16 398.15 159.81 422.3 208.51 422.3 184.16 398.15"/><polygon class="cls-16" points="1311.93 196.18 1287.58 220.33 1336.28 220.33 1311.93 196.18"/><polygon class="cls-16" points="1356.56 196.18 1332.21 220.33 1380.91 220.33 1356.56 196.18"/><polygon class="cls-16" points="1401.04 196.18 1376.69 220.33 1425.38 220.33 1401.04 196.18"/><polygon class="cls-16" points="228.3 713.16 203.95 737.31 252.65 737.31 228.3 713.16"/><polygon class="cls-16" points="272.92 713.16 248.57 737.31 297.27 737.31 272.92 713.16"/><polygon class="cls-16" points="317.4 713.16 293.05 737.31 341.75 737.31 317.4 713.16"/><polygon class="cls-16" points="345.7 852.98 321.35 877.13 370.05 877.13 345.7 852.98"/><polygon class="cls-16" points="390.33 852.98 365.98 877.13 414.68 877.13 390.33 852.98"/><polygon class="cls-16" points="434.81 852.98 410.46 877.13 459.16 877.13 434.81 852.98"/><polygon class="cls-16" points="50.5 1052.03 26.15 1076.18 74.85 1076.18 50.5 1052.03"/><polygon class="cls-16" points="95.13 1052.03 70.78 1076.18 119.48 1076.18 95.13 1052.03"/><polygon class="cls-16" points="139.61 1052.03 115.26 1076.18 163.96 1076.18 139.61 1052.03"/><polygon class="cls-16" points="1356.48 613.76 1332.13 637.91 1380.83 637.91 1356.48 613.76"/><polygon class="cls-16" points="1401.11 613.76 1376.76 637.91 1425.46 637.91 1401.11 613.76"/><polygon class="cls-16" points="1445.59 613.76 1421.24 637.91 1469.94 637.91 1445.59 613.76"/><polygon class="cls-16" points="1496.6 865.05 1472.25 889.21 1520.95 889.21 1496.6 865.05"/><polygon class="cls-16" points="1541.23 865.05 1516.88 889.21 1565.58 889.21 1541.23 865.05"/><polygon class="cls-16" points="1585.71 865.05 1561.36 889.21 1610.06 889.21 1585.71 865.05"/><polygon class="cls-16" points="1410.41 1085.67 1386.06 1109.82 1434.76 1109.82 1410.41 1085.67"/><polygon class="cls-16" points="1455.04 1085.67 1430.69 1109.82 1479.39 1109.82 1455.04 1085.67"/><polygon class="cls-16" points="1499.52 1085.67 1475.16 1109.82 1523.87 1109.82 1499.52 1085.67"/><rect class="cls-4" y="1398.36" width="1710.94" height="1114.42"/><path class="cls-17" d="M974.65,3131.41,733.93,2680.94a25,25,0,0,1,22-36.77h481.44a25,25,0,0,1,22,36.77l-240.72,450.47A25,25,0,0,1,974.65,3131.41Z" transform="translate(17.06 -9)"/><path class="cls-17" d="M1254,3162.87l-180.35-520.58a25,25,0,0,1,23.62-33.18H1458a25,25,0,0,1,23.62,33.18l-180.35,520.58C1293.5,3185.28,1261.8,3185.28,1254,3162.87Z" transform="translate(17.06 -9)"/><path class="cls-17" d="M520,3045.75,339.68,2525.17A25,25,0,0,1,363.3,2492H724a25,25,0,0,1,23.62,33.18L567.26,3045.75C559.5,3068.16,527.79,3068.16,520,3045.75Z" transform="translate(17.06 -9)"/><path class="cls-17" d="M299.42,3137.18,119.07,2616.6a25,25,0,0,1,23.62-33.18H503.38A25,25,0,0,1,527,2616.6L346.65,3137.18C338.88,3159.59,307.18,3159.59,299.42,3137.18Z" transform="translate(17.06 -9)"/><path class="cls-18" d="M265.8,2504c-13.15,0-22.3,11.43-17.8,22.23l176.85,423.95c3,7.26,10.41,10.89,17.8,10.89V2504Z" transform="translate(17.06 -9)"/><path class="cls-19" d="M460.45,2950.16,637.3,2526.21c4.51-10.8-4.64-22.23-17.8-22.23H442.65V2961C450,2961,457.42,2957.41,460.45,2950.16Z" transform="translate(17.06 -9)"/><path class="cls-18" d="M972.24,2537.86c-13.15,0-22.3,11.43-17.8,22.23L1131.29,2984c3,7.26,10.41,10.89,17.8,10.89V2537.86Z" transform="translate(17.06 -9)"/><path class="cls-19" d="M1166.89,2984l176.85-423.95c4.51-10.8-4.64-22.23-17.8-22.23H1149.09v457.07C1156.48,2994.92,1163.86,2991.29,1166.89,2984Z" transform="translate(17.06 -9)"/><path class="cls-18" d="M505.75,2504c-23.22,0-39.36,17.25-31.41,33.56l312.13,639.89c5.34,11,18.38,16.43,31.41,16.43V2504Z" transform="translate(17.06 -9)"/><path class="cls-19" d="M849.29,3177.42l312.13-639.89c8-16.3-8.2-33.56-31.41-33.56H817.88v689.88C830.91,3193.86,843.95,3188.38,849.29,3177.42Z" transform="translate(17.06 -9)"/><path class="cls-18" d="M43.3,2504c-9.57,0-16.23,8.32-12.95,16.17L159,2828.57c2.2,5.28,7.57,7.92,12.95,7.92V2504Z" transform="translate(17.06 -9)"/><path class="cls-19" d="M184.9,2828.57l128.65-308.42c3.28-7.86-3.38-16.17-12.95-16.17H172v332.51C177.32,2836.49,182.7,2833.85,184.9,2828.57Z" transform="translate(17.06 -9)"/><path class="cls-18" d="M1139.28,2522.8c-17.13,0-29,12.73-23.17,24.76l230.27,472.08c3.94,8.08,13.56,12.12,23.17,12.12v-509Z" transform="translate(17.06 -9)"/><path class="cls-19" d="M1392.73,3019.64,1623,2547.56c5.87-12-6-24.76-23.17-24.76H1369.55v509C1379.17,3031.76,1388.78,3027.72,1392.73,3019.64Z" transform="translate(17.06 -9)"/><path class="cls-20" d="M186.59,2522.8H19.36c-6.22,0-10.55,5.4-8.41,10.51l83.61,200.45a9.45,9.45,0,0,0,16.83,0L195,2533.31C197.13,2528.2,192.81,2522.8,186.59,2522.8Z" transform="translate(17.06 -9)"/><path class="cls-20" d="M423.71,2522.8H226.78c-7.32,0-12.42,6.36-9.91,12.38l98.46,236c1.69,4,5.8,6.06,9.91,6.06s8.22-2,9.91-6.06l98.46-236C436.13,2529.16,431,2522.8,423.71,2522.8Z" transform="translate(17.06 -9)"/><path class="cls-20" d="M1194.09,2516.93H975a11.6,11.6,0,0,0-11,15.54l109.54,296.4a11.79,11.79,0,0,0,22,0l109.54-296.4A11.6,11.6,0,0,0,1194.09,2516.93Z" transform="translate(17.06 -9)"/><path class="cls-20" d="M1425.23,2522.8H1232.92a10.18,10.18,0,0,0-9.68,13.64l96.15,260.18a10.35,10.35,0,0,0,19.35,0l96.15-260.18A10.18,10.18,0,0,0,1425.23,2522.8Z" transform="translate(17.06 -9)"/><path class="cls-20" d="M1510.93,2530.93a6.17,6.17,0,0,0-5.86,8.27l58.27,157.68a6.14,6.14,0,0,0,5.86,4v-170Z" transform="translate(17.06 -9)"/><path class="cls-20" d="M1627.47,2530.93H1569.2v170a6.14,6.14,0,0,0,5.86-4l58.27-157.68A6.17,6.17,0,0,0,1627.47,2530.93Z" transform="translate(17.06 -9)"/><ellipse class="cls-4" cx="835.94" cy="2521.56" rx="817.83" ry="164.31"/><polygon class="cls-4" points="96.61 2629.27 63.8 2574.42 129.41 2574.42 96.61 2629.27"/><polygon class="cls-4" points="145.38 2645.66 112.57 2590.82 178.19 2590.82 145.38 2645.66"/><polygon class="cls-4" points="229.85 2656.69 197.04 2601.85 262.65 2601.85 229.85 2656.69"/><polygon class="cls-4" points="307.28 2684.11 274.47 2629.27 340.09 2629.27 307.28 2684.11"/><polygon class="cls-4" points="412.01 2684.11 379.2 2629.27 444.81 2629.27 412.01 2684.11"/><polygon class="cls-4" points="506.05 2718.95 473.24 2664.11 538.86 2664.11 506.05 2718.95"/><polygon class="cls-4" points="548.02 2700.51 515.22 2645.66 580.83 2645.66 548.02 2700.51"/><polygon class="cls-4" points="657.53 2715.95 624.72 2661.11 690.34 2661.11 657.53 2715.95"/><polygon class="cls-4" points="702.61 2727.93 669.8 2673.08 735.42 2673.08 702.61 2727.93"/><polygon class="cls-4" points="790.53 2711.29 757.72 2656.45 823.34 2656.45 790.53 2711.29"/><polygon class="cls-4" points="958.25 2718.95 925.45 2664.11 991.06 2664.11 958.25 2718.95"/><polygon class="cls-4" points="1005.18 2727.93 972.38 2673.08 1037.99 2673.08 1005.18 2727.93"/><polygon class="cls-4" points="1174.55 2700.51 1141.74 2645.66 1207.36 2645.66 1174.55 2700.51"/><polygon class="cls-4" points="1207.36 2715.95 1174.55 2661.11 1240.16 2661.11 1207.36 2715.95"/><polygon class="cls-4" points="1289.13 2700.51 1256.32 2645.66 1321.94 2645.66 1289.13 2700.51"/><polygon class="cls-4" points="1358.11 2691.53 1325.3 2636.68 1390.91 2636.68 1358.11 2691.53"/><polygon class="cls-4" points="1525.49 2645.66 1492.68 2590.82 1558.3 2590.82 1525.49 2645.66"/><polygon class="cls-4" points="1492.68 2645.66 1459.87 2590.82 1525.49 2590.82 1492.68 2645.66"/><polygon class="cls-16" points="1497.23 2458.84 1472.88 2483 1521.58 2483 1497.23 2458.84"/><polygon class="cls-16" points="1541.85 2458.84 1517.51 2483 1566.2 2483 1541.85 2458.84"/><polygon class="cls-16" points="1586.33 2458.84 1561.98 2483 1610.68 2483 1586.33 2458.84"/><polygon class="cls-16" points="144.46 2414.21 120.11 2438.37 168.8 2438.37 144.46 2414.21"/><polygon class="cls-16" points="189.08 2414.21 164.73 2438.37 213.43 2438.37 189.08 2414.21"/><polygon class="cls-16" points="233.56 2414.21 209.21 2438.37 257.91 2438.37 233.56 2414.21"/><polygon class="cls-16" points="1277.38 1423.14 1253.03 1447.29 1301.73 1447.29 1277.38 1423.14"/><polygon class="cls-16" points="1322.01 1423.14 1297.66 1447.29 1346.36 1447.29 1322.01 1423.14"/><polygon class="cls-16" points="1366.49 1423.14 1342.14 1447.29 1390.84 1447.29 1366.49 1423.14"/><polygon class="cls-16" points="1452.67 1776.49 1428.32 1800.64 1477.02 1800.64 1452.67 1776.49"/><polygon class="cls-16" points="1497.3 1776.49 1472.95 1800.64 1521.65 1800.64 1497.3 1776.49"/><polygon class="cls-16" points="1541.78 1776.49 1517.43 1800.64 1566.13 1800.64 1541.78 1776.49"/><polygon class="cls-16" points="1365.86 2333.09 1341.51 2357.24 1390.21 2357.24 1365.86 2333.09"/><polygon class="cls-16" points="1410.48 2333.09 1386.13 2357.24 1434.83 2357.24 1410.48 2333.09"/><polygon class="cls-16" points="1454.96 2333.09 1430.61 2357.24 1479.31 2357.24 1454.96 2333.09"/><polygon class="cls-16" points="252.72 2094.33 228.37 2118.48 277.07 2118.48 252.72 2094.33"/><polygon class="cls-16" points="297.35 2094.33 273 2118.48 321.7 2118.48 297.35 2094.33"/><polygon class="cls-16" points="341.83 2094.33 317.48 2118.48 366.18 2118.48 341.83 2094.33"/><polygon class="cls-16" points="114.69 1764.41 90.34 1788.57 139.04 1788.57 114.69 1764.41"/><polygon class="cls-16" points="159.32 1764.41 134.97 1788.57 183.67 1788.57 159.32 1764.41"/><polygon class="cls-16" points="203.8 1764.41 179.45 1788.57 228.15 1788.57 203.8 1764.41"/><polygon class="cls-16" points="345.78 1526.32 321.43 1550.47 370.13 1550.47 345.78 1526.32"/><polygon class="cls-16" points="390.4 1526.32 366.05 1550.47 414.75 1550.47 390.4 1526.32"/><polygon class="cls-16" points="434.88 1526.32 410.53 1550.47 459.23 1550.47 434.88 1526.32"/><polygon class="cls-16" points="204.02 1246.24 179.67 1270.39 228.37 1270.39 204.02 1246.24"/><polygon class="cls-16" points="248.65 1246.24 224.3 1270.39 273 1270.39 248.65 1246.24"/><polygon class="cls-16" points="293.13 1246.24 268.78 1270.39 317.48 1270.39 293.13 1246.24"/></svg>