<svg xmlns="http://www.w3.org/2000/svg" viewBox="0 0 206.52 313.22"><defs><style>.cls-1{fill:#a57351;}.cls-2,.cls-4{fill:#fff;}.cls-2{opacity:0.69;}.cls-3{fill:#d3a98c;}.cls-5{fill:#704020;}.cls-6{fill:none;stroke:#704020;stroke-miterlimit:10;}</style></defs><title>資產 1</title><g id="圖層_2" data-name="圖層 2"><g id="圖層_1-2" data-name="圖層 1"><path class="cls-1" d="M187.08,33.69H19.45A19.51,19.51,0,0,0,0,53.14V293.77a19.51,19.51,0,0,0,19.45,19.45H187.08a19.51,19.51,0,0,0,19.44-19.45V53.14A19.51,19.51,0,0,0,187.08,33.69Zm4.8,139.69v102A26.69,26.69,0,0,1,165.26,302h-124a26.7,26.7,0,0,1-26.62-26.62V71.41A26.7,26.7,0,0,1,41.26,44.79h124a26.69,26.69,0,0,1,26.62,26.62Z"/><path class="cls-2" d="M165.26,302h-124a26.7,26.7,0,0,1-26.62-26.62V71.41A26.7,26.7,0,0,1,41.26,44.79h124a26.69,26.69,0,0,1,26.62,26.62V275.35A26.69,26.69,0,0,1,165.26,302Z"/><path class="cls-1" d="M102.52,6.39C82.94,6.39,67.06,19,67.06,34.64H138C138,19,122.11,6.39,102.52,6.39Z"/><path class="cls-1" d="M78.81.7c-5,2.28-6.51,9.51-3.46,16.13l18-8.27C90.26,1.93,83.77-1.59,78.81.7Z"/><path class="cls-3" d="M80,3.48c-2.43,1.12-3.19,4.66-1.69,7.91l8.81-4.06C85.59,4.08,82.4,2.35,80,3.48Z"/><path class="cls-1" d="M126.29.7c5,2.28,6.51,9.51,3.46,16.13l-18-8.27C114.84,1.93,121.33-1.59,126.29.7Z"/><circle class="cls-4" cx="113.74" cy="24.81" r="4.88"/><circle cx="113.38" cy="25.44" r="3.27"/><circle class="cls-4" cx="113.01" cy="24.81" r="0.63"/><circle class="cls-4" cx="93.31" cy="24.18" r="4.88"/><circle cx="92.96" cy="24.81" r="3.27"/><circle class="cls-4" cx="92.59" cy="24.18" r="0.63"/><path class="cls-3" d="M124.62,3.48c2.44,1.12,3.19,4.66,1.7,7.91l-8.81-4.06C119,4.08,122.19,2.35,124.62,3.48Z"/><ellipse class="cls-5" cx="103.26" cy="32.49" rx="2.55" ry="1.79"/><path class="cls-6" d="M103.26,34.28v5.89a8.22,8.22,0,0,1-10-2"/><path class="cls-6" d="M103.31,34.28v5.89a8.22,8.22,0,0,0,10-2"/></g></g></svg>